<svg id="V02" xmlns="http://www.w3.org/2000/svg" viewBox="0 0 841.89 595.28"><defs><style>.cls-1{fill:#434343;}.cls-2{fill:#ec1818;}</style></defs><title>prod vecto</title><rect class="cls-1" x="309.65" y="220.6" width="32.09" height="166.89"/><rect class="cls-1" x="309.65" y="166.84" width="32.09" height="32.09" transform="translate(-33.93 283.87) rotate(-45)"/><polygon class="cls-1" points="415.79 220.6 415.79 318.46 364.44 220.6 348.39 220.6 348.39 387.48 364.44 387.48 364.44 289.62 415.79 387.48 431.84 387.48 431.84 220.6 415.79 220.6"/><polygon class="cls-2" points="729.76 220.6 711.62 220.6 673.54 280.74 642.15 220.6 605.95 220.6 653.69 312.08 605.95 387.48 624.09 387.48 661.89 327.78 693.05 387.48 729.25 387.48 681.74 296.44 729.76 220.6"/><path class="cls-2" d="M598.28,387.48V220.6H514.84V387.48Zm-32.09-16H546.93V236.64h19.26Z"/><path class="cls-1" d="M303,387.48V220.6H219.56v32.09H287V288h-67.4v99.49Zm-51.34-16V304h19.25v67.4Z"/><path class="cls-2" d="M440.23,220.6V387.48h66.22V288H456.27V220.6ZM457.3,355.27v-36.5h33.28v36.5Z"/><path class="cls-1" d="M211.9,220.6H128.45V387.48h32.1V304h9.7l25.6,83.44H211.9L186.77,304H211.9ZM179.8,288H160.55V236.64H179.8Z"/></svg>