<?xml version="1.0" encoding="UTF-8" standalone="no"?>
<!-- Created with Inkscape (http://www.inkscape.org/) -->

<svg
   xmlns:dc="http://purl.org/dc/elements/1.1/"
   xmlns:cc="http://creativecommons.org/ns#"
   xmlns:rdf="http://www.w3.org/1999/02/22-rdf-syntax-ns#"
   xmlns:svg="http://www.w3.org/2000/svg"
   xmlns="http://www.w3.org/2000/svg"
   xmlns:sodipodi="http://sodipodi.sourceforge.net/DTD/sodipodi-0.dtd"
   xmlns:inkscape="http://www.inkscape.org/namespaces/inkscape"
   width="252.48042"
   height="288.56888"
   viewBox="0 0 66.802109 76.350518"
   version="1.1"
   id="svg8"
   inkscape:version="0.92.5 (2060ec1f9f, 2020-04-08)"
   sodipodi:docname="DuME-icon-large.svg">
  <defs
     id="defs2" />
  <sodipodi:namedview
     id="base"
     pagecolor="#ffffff"
     bordercolor="#666666"
     borderopacity="1.0"
     inkscape:pageopacity="0.0"
     inkscape:pageshadow="2"
     inkscape:zoom="0.7"
     inkscape:cx="2.1161441"
     inkscape:cy="221.6868"
     inkscape:document-units="mm"
     inkscape:current-layer="layer1"
     showgrid="false"
     units="px"
     inkscape:window-width="1870"
     inkscape:window-height="1052"
     inkscape:window-x="1920"
     inkscape:window-y="0"
     inkscape:window-maximized="1"
     fit-margin-top="0"
     fit-margin-left="0"
     fit-margin-right="0"
     fit-margin-bottom="0" />
  <metadata
     id="metadata5">
    <rdf:RDF>
      <cc:Work
         rdf:about="">
        <dc:format>image/svg+xml</dc:format>
        <dc:type
           rdf:resource="http://purl.org/dc/dcmitype/StillImage" />
        <dc:title></dc:title>
      </cc:Work>
    </rdf:RDF>
  </metadata>
  <g
     inkscape:label="Calque 1"
     inkscape:groupmode="layer"
     id="layer1"
     transform="translate(-41.884402,-191.09139)">
    <path
       id="path841"
       d="M 105.16923,223.10184 52.680406,192.07079 c -4.26472,-2.52007 -10.796004,-0.0746 -10.796004,6.15848 v 62.0472 c 0,5.59183 6.069023,8.96188 10.796004,6.15846 l 52.488824,-31.01612 c 4.68226,-2.75865 4.69716,-9.55835 0,-12.31697 z"
       inkscape:connector-curvature="0"
       style="fill:#710132;stroke-width:0.14911601" />
    <path
       style="color:#000000;font-style:normal;font-variant:normal;font-weight:normal;font-stretch:normal;font-size:medium;line-height:normal;font-family:sans-serif;font-variant-ligatures:normal;font-variant-position:normal;font-variant-caps:normal;font-variant-numeric:normal;font-variant-alternates:normal;font-feature-settings:normal;text-indent:0;text-align:start;text-decoration:none;text-decoration-line:none;text-decoration-style:solid;text-decoration-color:#000000;letter-spacing:normal;word-spacing:normal;text-transform:none;writing-mode:lr-tb;direction:ltr;text-orientation:mixed;dominant-baseline:auto;baseline-shift:baseline;text-anchor:start;white-space:normal;shape-padding:0;clip-rule:nonzero;display:inline;overflow:visible;visibility:visible;opacity:1;isolation:auto;mix-blend-mode:normal;color-interpolation:sRGB;color-interpolation-filters:linearRGB;solid-color:#000000;solid-opacity:1;vector-effect:none;fill:#ec1818;fill-opacity:1;fill-rule:nonzero;stroke:none;stroke-width:2.49399996;stroke-linecap:butt;stroke-linejoin:miter;stroke-miterlimit:4;stroke-dasharray:none;stroke-dashoffset:0;stroke-opacity:1;color-rendering:auto;image-rendering:auto;shape-rendering:auto;text-rendering:auto;enable-background:accumulate"
       d="m 60.384858,205.56632 c -0.455678,0.0822 -0.898745,0.29587 -1.251953,0.65234 l -10.691406,10.74609 c -0.453126,0.45421 -0.691406,1.06513 -0.691406,1.66992 0,0.60566 0.239195,1.21771 0.693359,1.67188 l 10.691406,10.75586 v 0.002 c 0.709295,0.7093 1.775036,0.85115 2.585938,0.51367 0.810901,-0.33747 1.460937,-1.18987 1.460937,-2.1914 v -6.4431 h 14.895183 c 1.297515,0 2.369141,-1.07163 2.369141,-2.36914 v -3.86967 c 0,-1.2975 -1.071626,-2.36914 -2.369141,-2.36914 H 63.181733 v -6.44309 c 0,-1.00542 -0.654469,-1.85516 -1.464843,-2.19141 -0.405188,-0.16812 -0.874944,-0.21724 -1.332032,-0.13476 z"
       id="path977"
       inkscape:connector-curvature="0"
       sodipodi:nodetypes="cccsccccscsssscsccc" />
    <path
       sodipodi:nodetypes="cccsccccscsssscsccc"
       inkscape:connector-curvature="0"
       id="path995"
       d="m 67.811292,225.41007 c 0.455678,0.0822 0.898745,0.29587 1.251953,0.65234 l 10.691406,10.74609 c 0.453126,0.45421 0.691406,1.06513 0.691406,1.66992 0,0.60566 -0.239195,1.21771 -0.693359,1.67188 l -10.691406,10.75586 v 0.002 c -0.709295,0.7093 -1.775036,0.85115 -2.585938,0.51367 -0.810901,-0.33747 -1.460937,-1.18987 -1.460937,-2.1914 v -6.4431 H 50.119234 c -1.297515,0 -2.369141,-1.07163 -2.369141,-2.36914 v -3.86967 c 0,-1.2975 1.071626,-2.36914 2.369141,-2.36914 h 14.895183 v -6.44309 c 0,-1.00542 0.654469,-1.85516 1.464843,-2.19141 0.405188,-0.16812 0.874944,-0.21724 1.332032,-0.13476 z"
       style="color:#000000;font-style:normal;font-variant:normal;font-weight:normal;font-stretch:normal;font-size:medium;line-height:normal;font-family:sans-serif;font-variant-ligatures:normal;font-variant-position:normal;font-variant-caps:normal;font-variant-numeric:normal;font-variant-alternates:normal;font-feature-settings:normal;text-indent:0;text-align:start;text-decoration:none;text-decoration-line:none;text-decoration-style:solid;text-decoration-color:#000000;letter-spacing:normal;word-spacing:normal;text-transform:none;writing-mode:lr-tb;direction:ltr;text-orientation:mixed;dominant-baseline:auto;baseline-shift:baseline;text-anchor:start;white-space:normal;shape-padding:0;clip-rule:nonzero;display:inline;overflow:visible;visibility:visible;opacity:1;isolation:auto;mix-blend-mode:normal;color-interpolation:sRGB;color-interpolation-filters:linearRGB;solid-color:#000000;solid-opacity:1;vector-effect:none;fill:#ec1818;fill-opacity:1;fill-rule:nonzero;stroke:none;stroke-width:2.49399996;stroke-linecap:butt;stroke-linejoin:miter;stroke-miterlimit:4;stroke-dasharray:none;stroke-dashoffset:0;stroke-opacity:1;color-rendering:auto;image-rendering:auto;shape-rendering:auto;text-rendering:auto;enable-background:accumulate" />
  </g>
</svg>
