<?xml version="1.0" encoding="UTF-8" standalone="no"?>
<!-- Created with Inkscape (http://www.inkscape.org/) -->

<svg
   width="32"
   height="32"
   viewBox="0 0 8.4666666 8.4666666"
   version="1.1"
   id="svg8"
   inkscape:version="1.1.1 (3bf5ae0d25, 2021-09-20)"
   sodipodi:docname="bash-batch-command-file_sl.svg"
   xmlns:inkscape="http://www.inkscape.org/namespaces/inkscape"
   xmlns:sodipodi="http://sodipodi.sourceforge.net/DTD/sodipodi-0.dtd"
   xmlns="http://www.w3.org/2000/svg"
   xmlns:svg="http://www.w3.org/2000/svg"
   xmlns:rdf="http://www.w3.org/1999/02/22-rdf-syntax-ns#"
   xmlns:cc="http://creativecommons.org/ns#"
   xmlns:dc="http://purl.org/dc/elements/1.1/">
  <defs
     id="defs2">
    <style
       id="style1399">.cls-1{fill:#e3e3e3;}</style>
  </defs>
  <sodipodi:namedview
     id="base"
     pagecolor="#ffffff"
     bordercolor="#666666"
     borderopacity="1.0"
     inkscape:pageopacity="0.0"
     inkscape:pageshadow="2"
     inkscape:zoom="19.693946"
     inkscape:cx="14.979223"
     inkscape:cy="12.948142"
     inkscape:document-units="mm"
     inkscape:current-layer="svg8"
     showgrid="false"
     units="px"
     inkscape:window-width="1843"
     inkscape:window-height="1146"
     inkscape:window-x="2473"
     inkscape:window-y="207"
     inkscape:window-maximized="0"
     inkscape:pagecheckerboard="0">
    <sodipodi:guide
       position="8.4666666,0"
       orientation="-32,0"
       id="guide854"
       inkscape:locked="false" />
    <sodipodi:guide
       position="8.4666666,8.4666666"
       orientation="0,-32"
       id="guide856"
       inkscape:locked="false" />
    <sodipodi:guide
       position="0,8.4666814"
       orientation="1,6.123234e-17"
       id="guide858"
       inkscape:locked="false" />
  </sodipodi:namedview>
  <metadata
     id="metadata5">
    <rdf:RDF>
      <cc:Work
         rdf:about="">
        <dc:format>image/svg+xml</dc:format>
        <dc:type
           rdf:resource="http://purl.org/dc/dcmitype/StillImage" />
      </cc:Work>
    </rdf:RDF>
  </metadata>
  <path
     style="fill:#e3e3e3;fill-opacity:1;stroke-width:0.0623172"
     d="m 27.804688,7.5996094 c -2.1e-5,-0.3966603 -0.157052,-0.778081 -0.4375,-1.0585938 L 21.263672,0.4375 C 20.983182,0.15707259 20.601729,0 20.205078,0 15.260417,0 10.315755,0 5.3710938,0 4.5450788,0 3.875,0.67007917 3.875,1.4960938 V 30.410156 c 0,0.826014 0.6700788,1.496094 1.4960938,1.496094 H 26.308594 c 0.826014,0 1.496093,-0.67008 1.496094,-1.496094 0,-7.603516 0,-15.207031 0,-22.8105466 z M 7.9645103,13.070713 c 0.1125171,-0.0032 0.2256919,0.03738 0.3135095,0.119704 l 5.2726592,4.945849 c 0.18661,0.171975 0.18661,0.468343 0,0.64032 l -5.2726592,4.943949 c -0.1792946,0.164637 -0.4566627,0.156492 -0.6213187,-0.0228 l -1.592248,-1.69675 C 5.8924949,21.821689 5.9082437,21.53482 6.094854,21.370163 L 9.4085538,18.455476 6.094854,15.535088 C 5.9082253,15.370431 5.896135,15.085462 6.0644531,14.906169 l 1.592248,-1.698651 c 0.084155,-0.08781 0.1952944,-0.133607 0.3078092,-0.136805 z m 16.8041067,7.699033 c 0.243253,-0.0021 0.438704,0.197559 0.440813,0.440813 l 0.0019,2.32377 c 0.0021,0.243257 -0.197561,0.438704 -0.440813,0.440813 l -9.849897,0.0038 c -0.244275,-0.0014 -0.442219,-0.194639 -0.440813,-0.438913 v -2.32567 c -0.0021,-0.243257 0.195661,-0.436805 0.438913,-0.438913 z"
     transform="scale(0.26458333)"
     id="path1026"
     sodipodi:nodetypes="cccccssssccscccccccccccsccccccccc" />
</svg>
