<?xml version="1.0" encoding="utf-8"?>
<svg width="32" height="32" viewBox="0 0 8.4666666 8.4666666" version="1.1" id="svg8" xmlns="http://www.w3.org/2000/svg">
  <defs id="defs2">
    <style id="style1399">.cls-1{fill:#e3e3e3;}</style>
  </defs>
  <path id="path1369" style="fill-opacity: 1; stroke-width: 0.0499257; fill: rgb(67, 67, 67);" d="M 5.237 5.228 C 4.875 5.228 4.582 5.522 4.582 5.884 C 4.582 6.245 4.875 6.539 5.237 6.539 C 5.599 6.539 5.893 6.245 5.893 5.884 C 5.893 5.522 5.599 5.228 5.237 5.228 Z"/>
  <path id="path-1" style="fill-opacity: 1; stroke-width: 0.0499257; fill: rgb(67, 67, 67);" d="M 1.463 1.524 C 1.412 1.525 1.366 1.558 1.351 1.609 L 0.004 6.252 C -0.013 6.314 0.022 6.381 0.085 6.398 L 0.688 6.573 C 0.751 6.592 0.816 6.555 0.835 6.492 L 2.182 1.851 C 2.2 1.787 2.165 1.721 2.102 1.703 L 1.498 1.529 C 1.487 1.525 1.475 1.524 1.463 1.524 Z"/>
  <path d="M 2.557 3.968 C 2.621 4.032 2.652 4.171 2.652 4.222 C 2.652 4.222 2.94 3.857 3.264 3.857 C 3.578 3.857 3.868 3.979 4.052 4.23 C 4.161 4.399 4.219 4.641 4.221 4.92 L 4.221 6.181 C 4.216 6.282 4.175 6.394 4.104 6.452 C 4.037 6.507 3.922 6.539 3.81 6.539 C 3.698 6.539 3.583 6.507 3.516 6.452 C 3.445 6.394 3.404 6.282 3.399 6.181 L 3.399 5.015 C 3.4 4.882 3.389 4.79 3.336 4.726 C 3.283 4.631 3.208 4.61 3.063 4.61 C 2.863 4.61 2.82 4.669 2.733 4.772 C 2.678 4.845 2.684 5.036 2.684 5.036 L 2.684 6.181 C 2.679 6.282 2.638 6.394 2.567 6.452 C 2.5 6.507 2.385 6.539 2.273 6.539 C 2.161 6.539 2.046 6.507 1.979 6.452 C 1.908 6.394 1.867 6.282 1.862 6.181 L 1.862 4.226 C 1.866 4.127 1.906 4.015 1.974 3.957 C 2.039 3.9 2.152 3.867 2.262 3.867 C 2.381 3.867 2.496 3.907 2.557 3.968 Z" style="fill: rgb(67, 67, 67);"/>
  <path d="M 8.408 6.035 C 8.408 6.155 8.314 6.283 8.185 6.369 C 7.966 6.504 7.684 6.578 7.377 6.578 C 6.989 6.578 6.648 6.443 6.429 6.214 C 6.212 5.986 6.086 5.634 6.086 5.234 C 6.086 4.838 6.209 4.482 6.415 4.247 C 6.623 4.01 6.948 3.864 7.308 3.864 C 7.645 3.864 7.952 3.995 8.15 4.198 C 8.347 4.402 8.467 4.711 8.467 5.038 C 8.467 5.227 8.412 5.373 8.329 5.444 C 8.242 5.518 8.11 5.534 8.002 5.534 L 6.932 5.534 C 6.958 5.616 6.97 5.648 7.055 5.727 C 7.139 5.806 7.237 5.841 7.404 5.841 C 7.553 5.841 7.677 5.813 7.787 5.745 C 7.862 5.703 7.951 5.655 8.045 5.655 C 8.16 5.655 8.272 5.724 8.324 5.791 C 8.377 5.86 8.408 5.965 8.408 6.035 Z M 7.033 4.673 C 6.96 4.749 6.948 4.783 6.924 4.866 L 7.652 4.866 C 7.639 4.79 7.632 4.757 7.567 4.679 C 7.502 4.603 7.433 4.57 7.298 4.57 C 7.173 4.57 7.103 4.599 7.033 4.673 Z" style="fill: rgb(67, 67, 67);"/>
</svg>