<?xml version="1.0" encoding="utf-8"?>
<svg width="32" height="32" viewBox="0 0 8.4666666 8.4666666" version="1.1" id="svg8" xmlns="http://www.w3.org/2000/svg">
  <defs id="defs2">
    <style id="style1399">.cls-1{fill:#e3e3e3;}</style>
  </defs>
  <path id="path1369" style="fill: rgb(227, 227, 227); fill-opacity: 1; stroke-width: 0.0499257;" d="M 4.326 4.847 C 3.862 4.847 3.487 5.224 3.487 5.688 C 3.487 6.151 3.862 6.528 4.326 6.528 C 4.79 6.528 5.167 6.151 5.167 5.688 C 5.167 5.224 4.79 4.847 4.326 4.847 Z"/>
  <path d="M 0.891 3.232 C 0.973 3.314 1.013 3.492 1.013 3.558 C 1.013 3.558 1.382 3.09 1.797 3.09 C 2.2 3.09 2.572 3.246 2.807 3.568 C 2.947 3.785 3.021 4.095 3.024 4.453 L 3.024 6.069 C 3.018 6.199 2.965 6.342 2.874 6.416 C 2.788 6.487 2.641 6.528 2.497 6.528 C 2.354 6.528 2.206 6.487 2.12 6.416 C 2.029 6.342 1.977 6.199 1.97 6.069 L 1.97 4.574 C 1.972 4.404 1.957 4.286 1.89 4.204 C 1.822 4.082 1.725 4.055 1.54 4.055 C 1.283 4.055 1.228 4.131 1.117 4.263 C 1.046 4.356 1.054 4.601 1.054 4.601 L 1.054 6.069 C 1.047 6.199 0.995 6.342 0.904 6.416 C 0.818 6.487 0.67 6.528 0.527 6.528 C 0.383 6.528 0.236 6.487 0.15 6.416 C 0.059 6.342 0.006 6.199 0 6.069 L 0 3.563 C 0.005 3.436 0.056 3.292 0.144 3.218 C 0.227 3.145 0.372 3.103 0.513 3.103 C 0.665 3.103 0.813 3.154 0.891 3.232 Z" style="fill: rgb(227, 227, 227);"/>
  <path d="M 8.391 5.882 C 8.391 6.036 8.271 6.2 8.106 6.31 C 7.825 6.483 7.463 6.578 7.07 6.578 C 6.572 6.578 6.135 6.405 5.854 6.111 C 5.576 5.819 5.415 5.368 5.415 4.855 C 5.415 4.347 5.572 3.891 5.837 3.59 C 6.103 3.286 6.52 3.099 6.981 3.099 C 7.413 3.099 7.807 3.267 8.061 3.527 C 8.313 3.789 8.467 4.185 8.467 4.604 C 8.467 4.846 8.396 5.033 8.29 5.124 C 8.179 5.219 8.009 5.24 7.871 5.24 L 6.499 5.24 C 6.533 5.345 6.548 5.386 6.657 5.487 C 6.765 5.588 6.89 5.633 7.104 5.633 C 7.295 5.633 7.454 5.597 7.595 5.51 C 7.691 5.456 7.806 5.395 7.926 5.395 C 8.073 5.395 8.217 5.483 8.284 5.569 C 8.352 5.658 8.391 5.792 8.391 5.882 Z M 6.629 4.136 C 6.535 4.233 6.52 4.277 6.489 4.383 L 7.422 4.383 C 7.406 4.286 7.397 4.244 7.313 4.144 C 7.23 4.046 7.142 4.004 6.968 4.004 C 6.808 4.004 6.718 4.041 6.629 4.136 Z" style="fill: rgb(227, 227, 227);"/>
</svg>