<?xml version="1.0" encoding="UTF-8" standalone="no"?>
<!-- Created with Inkscape (http://www.inkscape.org/) -->

<svg
   xmlns:dc="http://purl.org/dc/elements/1.1/"
   xmlns:cc="http://creativecommons.org/ns#"
   xmlns:rdf="http://www.w3.org/1999/02/22-rdf-syntax-ns#"
   xmlns:svg="http://www.w3.org/2000/svg"
   xmlns="http://www.w3.org/2000/svg"
   xmlns:sodipodi="http://sodipodi.sourceforge.net/DTD/sodipodi-0.dtd"
   xmlns:inkscape="http://www.inkscape.org/namespaces/inkscape"
   width="32"
   height="32"
   viewBox="0 0 8.4666666 8.4666666"
   version="1.1"
   id="svg8"
   inkscape:version="0.92.5 (2060ec1f9f, 2020-04-08)"
   sodipodi:docname="render-compute-build_bd.svg">
  <defs
     id="defs2">
    <style
       id="style1399">.cls-1{fill:#e3e3e3;}</style>
    <style
       id="style1399-1">.cls-1{fill:#e3e3e3;}</style>
  </defs>
  <sodipodi:namedview
     id="base"
     pagecolor="#ffffff"
     bordercolor="#666666"
     borderopacity="1.0"
     inkscape:pageopacity="0.0"
     inkscape:pageshadow="2"
     inkscape:zoom="7.9999995"
     inkscape:cx="1.032232"
     inkscape:cy="17.324565"
     inkscape:document-units="mm"
     inkscape:current-layer="svg8"
     showgrid="false"
     units="px"
     inkscape:window-width="1920"
     inkscape:window-height="1043"
     inkscape:window-x="0"
     inkscape:window-y="120"
     inkscape:window-maximized="1">
    <sodipodi:guide
       position="8.4666666,0"
       orientation="-32,0"
       id="guide854"
       inkscape:locked="false" />
    <sodipodi:guide
       position="8.4666666,8.4666666"
       orientation="0,-32"
       id="guide856"
       inkscape:locked="false" />
    <sodipodi:guide
       position="0,8.4666814"
       orientation="1,6.123234e-17"
       id="guide858"
       inkscape:locked="false" />
  </sodipodi:namedview>
  <metadata
     id="metadata5">
    <rdf:RDF>
      <cc:Work
         rdf:about="">
        <dc:format>image/svg+xml</dc:format>
        <dc:type
           rdf:resource="http://purl.org/dc/dcmitype/StillImage" />
        <dc:title></dc:title>
      </cc:Work>
    </rdf:RDF>
  </metadata>
  <path
     style="fill:#3e8b45;fill-opacity:1;stroke-width:0.01661956"
     inkscape:connector-curvature="0"
     d="M 5.8075384,2.2628263 V 0.00256635 h -3.323911 c -0.2210399,0 -0.3988692,0.17783 -0.3988692,0.39887 V 8.1129063 c 0,0.22104 0.1778293,0.39887 0.3988692,0.39887 h 5.5841703 c 0.22104,0 0.398869,-0.17783 0.398869,-0.39887 v -5.45121 H 6.2064075 c -0.2193779,0 -0.3988691,-0.17949 -0.3988691,-0.39887 z m 2.6591283,-0.23434 v 0.10138 H 6.3393642 V 0.00256635 h 0.1013793 c 0.1063651,0 0.2077443,0.0415 0.2825324,0.11634 L 8.3503297,1.7476163 c 0.07479,0.0748 0.116337,0.17617 0.116337,0.28087 z"
     id="path1112" />
  <path
     sodipodi:type="inkscape:offset"
     inkscape:radius="0.72749752"
     inkscape:original="M 2.9882812 1.0371094 C 2.9262192 1.0371094 2.8657207 1.061938 2.8183594 1.109375 L 0.06640625 3.8613281 C -0.02831588 3.9560501 -0.02831588 4.1084784 0.06640625 4.203125 L 0.70898438 4.8457031 C 0.75634598 4.8930651 0.81887304 4.9179688 0.88085938 4.9179688 C 0.94292117 4.9179688 1.00342 4.8930641 1.0507812 4.8457031 L 3.8027344 2.09375 C 3.8974574 1.99918 3.8974574 1.8465998 3.8027344 1.7519531 L 3.1601562 1.109375 C 3.1128702 1.061938 3.050343 1.0371094 2.9882812 1.0371094 z M 1.296875 1.0585938 L 1.09375 1.4628906 L 0.68945312 1.6660156 L 1.09375 1.8671875 L 1.296875 2.2714844 L 1.4980469 1.8671875 L 1.9023438 1.6660156 L 1.4980469 1.4628906 L 1.296875 1.0585938 z M 2.9882812 1.5371094 L 3.375 1.9238281 L 2.71875 2.5800781 L 2.3320312 2.1933594 L 2.9882812 1.5371094 z M 3.2675781 3.2207031 L 3.0664062 3.625 L 2.6621094 3.8261719 L 3.0664062 4.0273438 L 3.2675781 4.4316406 L 3.4707031 4.0273438 L 3.875 3.8261719 L 3.4707031 3.625 L 3.2675781 3.2207031 z "
     style="fill:#ffffff;fill-opacity:1;stroke-width:0.00757779"
     id="path1446"
     d="m 2.9882812,0.31054688 c -0.256091,0 -0.5090017,0.10832897 -0.6855468,0.28515624 L 2.0195312,0.88085938 1.9472656,0.734375 a 0.72757027,0.72757027 0 0 0 -1.30078122,-0.001953 l -0.09375,0.18945312 -0.18945313,0.09375 a 0.72757027,0.72757027 0 0 0 0.001953,1.3007812 l 0.14648437,0.072266 -0.95898437,0.9589843 c -0.37065937,0.3706589 -0.37098904,0.9984475 0,1.3691407 L 0.1953125,5.359375 C 0.37888977,5.5429538 0.62401957,5.6445313 0.88085938,5.6445312 1.1375456,5.6445313 1.3882223,5.5356051 1.5644531,5.359375 l 0.8457031,-0.8457031 0.1132813,0.056641 0.09375,0.1855469 a 0.72757027,0.72757027 0 0 0 1.3007813,0.00195 l 0.09375,-0.1875 0.1875,-0.09375 a 0.72757027,0.72757027 0 0 0 0,-1.3007813 l -0.1875,-0.09375 L 3.9550781,2.96875 4.3164062,2.609375 v -0.00195 c 0.370241,-0.3711782 0.3708125,-0.9986269 0,-1.3691407 L 3.6757812,0.59570312 C 3.4917218,0.41105591 3.2443727,0.31054688 2.9882812,0.31054688 Z"
     transform="matrix(0.85178466,0,0,0.85178466,0.01810427,0.81605283)" />
  <path
     sodipodi:type="inkscape:offset"
     inkscape:radius="0.67980736"
     inkscape:original="M 4.5371094 3.8242188 C 4.3918623 3.6789732 4.140625 3.7800731 4.140625 3.9882812 L 4.140625 4.9179688 L 2.8242188 4.9179688 C 2.6954331 4.9179688 2.5917969 5.0216041 2.5917969 5.1503906 L 2.5917969 6.0800781 C 2.5917969 6.2088647 2.695433 6.3125 2.8242188 6.3125 L 4.140625 6.3125 L 4.140625 7.2421875 C 4.140625 7.4503721 4.3918623 7.5534486 4.5371094 7.4082031 L 6.1640625 5.78125 C 6.2541155 5.690225 6.2541155 5.5421973 6.1640625 5.4511719 L 4.5371094 3.8242188 z "
     style="fill:#ffffff;fill-opacity:1;stroke-width:0.00968313"
     id="path835"
     d="M 4.0273438,3.1445312 C 3.7173809,3.2714229 3.4609375,3.6107441 3.4609375,3.9882812 v 0.25 H 2.8242188 c -0.4934848,0 -0.9121094,0.4186229 -0.9121094,0.9121094 v 0.9296875 c 0,0.493486 0.4186247,0.9121094 0.9121094,0.9121094 h 0.6367187 v 0.25 c 0,0.3775563 0.2535289,0.7153898 0.5625,0.84375 0.3089711,0.1283602 0.7260813,0.070791 0.9941406,-0.1972656 L 6.6445312,6.2617188 a 0.67987535,0.67987535 0 0 0 0.00195,-0.00195 c 0.3492101,-0.3529793 0.3492084,-0.9341302 0,-1.2871094 a 0.67987535,0.67987535 0 0 0 -0.00195,-0.00195 L 5.0175781,3.34375 C 4.7506092,3.0767838 4.3373066,3.0176396 4.0273438,3.1445312 Z"
     transform="translate(-0.6314243)" />
  <path
     id="path1579"
     d="M 1.1225352,2.7507846 1.294616,2.4065581 1.6389068,2.2344127 1.294616,2.0622672 1.1225352,1.7180408 0.95045405,2.0622672 0.60616323,2.2344127 0.95045405,2.4065581 Z M 2.8019257,3.5587442 2.629845,3.9029706 2.2855539,4.0751161 2.629845,4.2472614 2.8019257,4.5914878 2.9740066,4.2472614 3.3182977,4.0751161 2.9740066,3.9029706 Z M 3.2577529,2.308027 2.710076,1.7603502 C 2.669799,1.7199442 2.616935,1.6998052 2.5640719,1.6998052 c -0.052863,0 -0.105727,0.020138 -0.1460686,0.060544 L 0.07406237,4.104291 c -0.08068286,0.080683 -0.08068286,0.2114541 0,0.2920726 l 0.54767694,0.5476767 c 0.0403419,0.040342 0.0932052,0.06048 0.14600417,0.06048 0.0528633,0 0.10572712,-0.020139 0.14606867,-0.06048 L 3.2577529,2.6000353 c 0.080684,-0.080553 0.080684,-0.2113897 0,-0.2920083 z M 2.333641,3.0130682 2.0050349,2.6844622 2.5640076,2.1254896 2.8926136,2.4540957 Z"
     inkscape:connector-curvature="0"
     style="fill:#3e8b45;fill-opacity:1;stroke-width:0.00645465"
     sodipodi:nodetypes="ccccccccccccccccccccscscsscccccccc" />
  <path
     id="path1583"
     d="M 5.532925,5.4513696 3.9061585,3.8246039 C 3.7609114,3.6793584 3.50915,3.7810084 3.50915,3.9892166 V 4.9188029 H 2.1922437 c -0.1287857,0 -0.2323952,0.1036086 -0.2323952,0.2323951 v 0.9295804 c 0,0.1287866 0.1036095,0.2323951 0.2323952,0.2323951 H 3.50915 v 0.9295804 c 0,0.2081846 0.2517614,0.3098582 0.3970085,0.1646127 L 5.532925,5.7806009 c 0.090053,-0.091025 0.090053,-0.2382059 0,-0.3292313 z"
     inkscape:connector-curvature="0"
     style="fill:#3e8b45;fill-opacity:1;stroke-width:0.00968313"
     sodipodi:nodetypes="ccscsssscsccc" />
</svg>
