<?xml version="1.0" encoding="UTF-8" standalone="no"?>
<!-- Created with Inkscape (http://www.inkscape.org/) -->

<svg
   xmlns:dc="http://purl.org/dc/elements/1.1/"
   xmlns:cc="http://creativecommons.org/ns#"
   xmlns:rdf="http://www.w3.org/1999/02/22-rdf-syntax-ns#"
   xmlns:svg="http://www.w3.org/2000/svg"
   xmlns="http://www.w3.org/2000/svg"
   xmlns:sodipodi="http://sodipodi.sourceforge.net/DTD/sodipodi-0.dtd"
   xmlns:inkscape="http://www.inkscape.org/namespaces/inkscape"
   width="32"
   height="32"
   viewBox="0 0 8.4666666 8.4666666"
   version="1.1"
   id="svg8"
   inkscape:version="0.92.5 (2060ec1f9f, 2020-04-08)"
   sodipodi:docname="set-audio-scodec_bl.svg">
  <defs
     id="defs2">
    <style
       id="style1399">.cls-1{fill:#e3e3e3;}</style>
    <style
       id="style1399-4">.cls-1{fill:#e3e3e3;}</style>
    <style
       id="style1399-8">.cls-1{fill:#e3e3e3;}</style>
    <style
       id="style1399-4-5">.cls-1{fill:#e3e3e3;}</style>
    <style
       id="style1399-9">.cls-1{fill:#e3e3e3;}</style>
    <style
       id="style1399-4-6">.cls-1{fill:#e3e3e3;}</style>
    <style
       id="style1399-8-4">.cls-1{fill:#e3e3e3;}</style>
    <style
       id="style1399-4-5-3">.cls-1{fill:#e3e3e3;}</style>
    <style
       id="style1399-88">.cls-1{fill:#e3e3e3;}</style>
    <style
       id="style1399-3">.cls-1{fill:#e3e3e3;}</style>
    <style
       id="style1399-94">.cls-1{fill:#e3e3e3;}</style>
    <style
       id="style1399-5">.cls-1{fill:#e3e3e3;}</style>
    <style
       id="style1399-46">.cls-1{fill:#e3e3e3;}</style>
    <style
       id="style1399-4-2">.cls-1{fill:#e3e3e3;}</style>
    <style
       id="style1399-8-5">.cls-1{fill:#e3e3e3;}</style>
    <style
       id="style1399-4-5-8">.cls-1{fill:#e3e3e3;}</style>
    <style
       id="style1399-9-6">.cls-1{fill:#e3e3e3;}</style>
    <style
       id="style1399-4-6-2">.cls-1{fill:#e3e3e3;}</style>
    <style
       id="style1399-8-4-8">.cls-1{fill:#e3e3e3;}</style>
    <style
       id="style1399-4-5-3-4">.cls-1{fill:#e3e3e3;}</style>
    <style
       id="style1399-88-7">.cls-1{fill:#e3e3e3;}</style>
    <style
       id="style1399-3-2">.cls-1{fill:#e3e3e3;}</style>
    <style
       id="style1399-94-4">.cls-1{fill:#e3e3e3;}</style>
    <style
       id="style1399-5-0">.cls-1{fill:#e3e3e3;}</style>
    <style
       id="style1399-39">.cls-1{fill:#e3e3e3;}</style>
    <style
       id="style1399-4-1">.cls-1{fill:#e3e3e3;}</style>
    <style
       id="style1399-8-9">.cls-1{fill:#e3e3e3;}</style>
    <style
       id="style1399-4-5-6">.cls-1{fill:#e3e3e3;}</style>
    <style
       id="style1399-9-9">.cls-1{fill:#e3e3e3;}</style>
    <style
       id="style1399-4-6-3">.cls-1{fill:#e3e3e3;}</style>
    <style
       id="style1399-8-4-3">.cls-1{fill:#e3e3e3;}</style>
    <style
       id="style1399-4-5-3-8">.cls-1{fill:#e3e3e3;}</style>
    <style
       id="style1399-88-0">.cls-1{fill:#e3e3e3;}</style>
    <style
       id="style1399-3-5">.cls-1{fill:#e3e3e3;}</style>
    <style
       id="style1399-94-6">.cls-1{fill:#e3e3e3;}</style>
    <style
       id="style1399-5-6">.cls-1{fill:#e3e3e3;}</style>
    <style
       id="style1399-46-4">.cls-1{fill:#e3e3e3;}</style>
    <style
       id="style1399-4-2-0">.cls-1{fill:#e3e3e3;}</style>
    <style
       id="style1399-8-5-0">.cls-1{fill:#e3e3e3;}</style>
    <style
       id="style1399-4-5-8-4">.cls-1{fill:#e3e3e3;}</style>
    <style
       id="style1399-9-6-6">.cls-1{fill:#e3e3e3;}</style>
    <style
       id="style1399-4-6-2-2">.cls-1{fill:#e3e3e3;}</style>
    <style
       id="style1399-8-4-8-6">.cls-1{fill:#e3e3e3;}</style>
    <style
       id="style1399-4-5-3-4-7">.cls-1{fill:#e3e3e3;}</style>
    <style
       id="style1399-88-7-5">.cls-1{fill:#e3e3e3;}</style>
    <style
       id="style1399-3-2-6">.cls-1{fill:#e3e3e3;}</style>
    <style
       id="style1399-94-4-9">.cls-1{fill:#e3e3e3;}</style>
    <style
       id="style1399-5-0-8">.cls-1{fill:#e3e3e3;}</style>
    <style
       id="style1399-1">.cls-1{fill:#e3e3e3;}</style>
    <style
       id="style1399-4-59">.cls-1{fill:#e3e3e3;}</style>
    <style
       id="style1399-8-91">.cls-1{fill:#e3e3e3;}</style>
    <style
       id="style1399-4-5-4">.cls-1{fill:#e3e3e3;}</style>
    <style
       id="style1399-9-91">.cls-1{fill:#e3e3e3;}</style>
    <style
       id="style1399-4-6-0">.cls-1{fill:#e3e3e3;}</style>
    <style
       id="style1399-8-4-7">.cls-1{fill:#e3e3e3;}</style>
    <style
       id="style1399-4-5-3-5">.cls-1{fill:#e3e3e3;}</style>
    <style
       id="style1399-88-8">.cls-1{fill:#e3e3e3;}</style>
    <style
       id="style1399-3-7">.cls-1{fill:#e3e3e3;}</style>
    <style
       id="style1399-94-0">.cls-1{fill:#e3e3e3;}</style>
    <style
       id="style1399-5-4">.cls-1{fill:#e3e3e3;}</style>
    <style
       id="style1399-46-8">.cls-1{fill:#e3e3e3;}</style>
    <style
       id="style1399-4-2-04">.cls-1{fill:#e3e3e3;}</style>
    <style
       id="style1399-8-5-2">.cls-1{fill:#e3e3e3;}</style>
    <style
       id="style1399-4-5-8-9">.cls-1{fill:#e3e3e3;}</style>
    <style
       id="style1399-9-6-61">.cls-1{fill:#e3e3e3;}</style>
    <style
       id="style1399-4-6-2-0">.cls-1{fill:#e3e3e3;}</style>
    <style
       id="style1399-8-4-8-4">.cls-1{fill:#e3e3e3;}</style>
    <style
       id="style1399-4-5-3-4-2">.cls-1{fill:#e3e3e3;}</style>
    <style
       id="style1399-88-7-2">.cls-1{fill:#e3e3e3;}</style>
    <style
       id="style1399-3-2-2">.cls-1{fill:#e3e3e3;}</style>
    <style
       id="style1399-94-4-0">.cls-1{fill:#e3e3e3;}</style>
    <style
       id="style1399-5-0-5">.cls-1{fill:#e3e3e3;}</style>
    <style
       id="style1399-80">.cls-1{fill:#e3e3e3;}</style>
    <style
       id="style1399-4-4">.cls-1{fill:#e3e3e3;}</style>
    <style
       id="style1399-8-0">.cls-1{fill:#e3e3e3;}</style>
    <style
       id="style1399-4-5-9">.cls-1{fill:#e3e3e3;}</style>
    <style
       id="style1399-9-1">.cls-1{fill:#e3e3e3;}</style>
    <style
       id="style1399-4-6-9">.cls-1{fill:#e3e3e3;}</style>
    <style
       id="style1399-8-4-6">.cls-1{fill:#e3e3e3;}</style>
    <style
       id="style1399-4-5-3-2">.cls-1{fill:#e3e3e3;}</style>
    <style
       id="style1399-88-5">.cls-1{fill:#e3e3e3;}</style>
    <style
       id="style1399-3-4">.cls-1{fill:#e3e3e3;}</style>
    <style
       id="style1399-94-49">.cls-1{fill:#e3e3e3;}</style>
    <style
       id="style1399-5-9">.cls-1{fill:#e3e3e3;}</style>
    <style
       id="style1399-46-3">.cls-1{fill:#e3e3e3;}</style>
    <style
       id="style1399-4-2-6">.cls-1{fill:#e3e3e3;}</style>
    <style
       id="style1399-8-5-05">.cls-1{fill:#e3e3e3;}</style>
    <style
       id="style1399-4-5-8-0">.cls-1{fill:#e3e3e3;}</style>
    <style
       id="style1399-9-6-2">.cls-1{fill:#e3e3e3;}</style>
    <style
       id="style1399-4-6-2-9">.cls-1{fill:#e3e3e3;}</style>
    <style
       id="style1399-8-4-8-43">.cls-1{fill:#e3e3e3;}</style>
    <style
       id="style1399-4-5-3-4-5">.cls-1{fill:#e3e3e3;}</style>
    <style
       id="style1399-88-7-1">.cls-1{fill:#e3e3e3;}</style>
    <style
       id="style1399-3-2-7">.cls-1{fill:#e3e3e3;}</style>
    <style
       id="style1399-94-4-4">.cls-1{fill:#e3e3e3;}</style>
    <style
       id="style1399-5-0-3">.cls-1{fill:#e3e3e3;}</style>
    <style
       id="style1399-6">.cls-1{fill:#e3e3e3;}</style>
    <style
       id="style1399-888">.cls-1{fill:#e3e3e3;}</style>
    <style
       id="style1399-4-68">.cls-1{fill:#e3e3e3;}</style>
    <style
       id="style1399-5-3">.cls-1{fill:#e3e3e3;}</style>
    <style
       id="style1399-7">.cls-1{fill:#e3e3e3;}</style>
  </defs>
  <sodipodi:namedview
     id="base"
     pagecolor="#ffffff"
     bordercolor="#666666"
     borderopacity="1.0"
     inkscape:pageopacity="0.0"
     inkscape:pageshadow="2"
     inkscape:zoom="22.627417"
     inkscape:cx="0.6307887"
     inkscape:cy="12.792152"
     inkscape:document-units="mm"
     inkscape:current-layer="svg8"
     showgrid="false"
     units="px"
     inkscape:window-width="1920"
     inkscape:window-height="1043"
     inkscape:window-x="0"
     inkscape:window-y="120"
     inkscape:window-maximized="1">
    <sodipodi:guide
       position="8.4666666,0"
       orientation="-32,0"
       id="guide854"
       inkscape:locked="false" />
    <sodipodi:guide
       position="8.5622298,8.4657622"
       orientation="0,-32"
       id="guide856"
       inkscape:locked="false" />
    <sodipodi:guide
       position="0,8.4666814"
       orientation="32,0"
       id="guide858"
       inkscape:locked="false" />
  </sodipodi:namedview>
  <metadata
     id="metadata5">
    <rdf:RDF>
      <cc:Work
         rdf:about="">
        <dc:format>image/svg+xml</dc:format>
        <dc:type
           rdf:resource="http://purl.org/dc/dcmitype/StillImage" />
        <dc:title></dc:title>
      </cc:Work>
    </rdf:RDF>
  </metadata>
  <path
     sodipodi:nodetypes="sccssssccssssccscccscsccccccccccccsccccsssssssssssssssssscccsscccsccccccccccccscccccccscccscccsscssssssscccsscccscccccsccccsccc"
     inkscape:connector-curvature="0"
     id="path1124"
     d="M 5.1403305,9.0440001e-4 C 4.9919911,-0.0162546 4.834895,0.0283204 4.7114161,0.1517996 L 2.7595973,2.1031016 H 0.52045755 c -0.290887,0 -0.5260661,0.235697 -0.5260661,0.5265829 v 3.1589801 c 0,0.2906678 0.2351791,0.5260663 0.5260661,0.5260663 H 2.7595973 l 1.9518188,1.951302 c 0.329716,0.3297158 0.8986533,0.098262 0.8986533,-0.3720703 V 0.5238699 c 0,-0.2942323 -0.2225067,-0.4943679 -0.4697389,-0.52296549999 z M 7.1133366,2.4601858 C 6.9450418,2.47547 6.7869149,2.5707581 6.6988917,2.7299368 6.5587139,2.9846277 6.6514247,3.3045219 6.9061142,3.4451387 c 0.2832092,0.1555345 0.4588867,0.4485407 0.4588867,0.7637774 0,0.3154569 -0.1758971,0.6082432 -0.4588867,0.7637777 -0.2546906,0.1406179 -0.3474009,0.4605108 -0.2072225,0.7152019 0.141056,0.2557872 0.461608,0.3465234 0.7152018,0.2072224 0.6192861,-0.3411228 1.0040731,-0.9868447 1.0040731,-1.686202 0,-0.6993567 -0.3845674,-1.3452975 -1.0040731,-1.6862018 -0.095262,-0.052073 -0.1997797,-0.071699 -0.3007569,-0.062528 z m -5.4211674,0.841809 c 0.117107,3e-7 0.213875,0.020945 0.2904788,0.061447 0.077484,0.039623 0.1388159,0.096826 0.1837216,0.1725493 0.044906,0.074843 0.076113,0.1670207 0.093723,0.2762033 0.01761,0.1083022 0.026689,0.231326 0.026689,0.3686847 0,0.1364779 -0.011504,0.2592422 -0.033517,0.3693052 C 2.2312513,4.6602479 2.1954552,4.7544904 2.1452664,4.8319739 2.0959582,4.9094589 2.0311192,4.9687259 1.9509931,5.0101096 1.8717478,5.0514946 1.7746186,5.0721776 1.659273,5.0721776 1.5421658,5.0721773 1.4453974,5.0522146 1.3687942,5.0125926 1.2921899,4.9720896 1.2312192,4.9148866 1.186314,4.840043 1.1414088,4.76432 1.1098394,4.6721421 1.0913498,4.5638397 1.0737394,4.4546575 1.0646605,4.3312725 1.0646605,4.1939141 c 0,-0.1355977 0.010884,-0.2586218 0.032896,-0.368685 C 1.1204494,3.7142859 1.1568674,3.620303 1.2061758,3.5428195 1.2563645,3.4653345 1.3212034,3.4060672 1.400449,3.364684 1.4805747,3.3233 1.5777039,3.301995 1.6921692,3.3019948 Z m -1.16501865,0.029172 h 0.1626185 c 0.04792,0 0.086275,0.038353 0.086275,0.086275 v 1.5411513 c 0,0.04792 -0.038353,0.086895 -0.086275,0.086895 h -0.1626185 c -0.047921,0 -0.086275,-0.038975 -0.086275,-0.086895 V 3.4174415 c 0,-0.047921 0.038354,-0.086275 0.086275,-0.086275 z m 2.12769525,0 h 0.1619978 c 0.047919,0 0.086275,0.038353 0.086275,0.086275 v 1.5411513 c 0,0.04792 -0.038353,0.086895 -0.086275,0.086895 H 2.6548458 c -0.04792,0 -0.086895,-0.038975 -0.086895,-0.086895 V 3.4174415 c 0,-0.047921 0.038974,-0.086275 0.086895,-0.086275 z m -0.977573,0.2457895 c -0.051949,1.3e-6 -0.094763,0.012946 -0.1291016,0.038482 -0.033459,0.024654 -0.060438,0.062154 -0.080689,0.1123434 -0.019371,0.050189 -0.033038,0.1126021 -0.040965,0.1874456 -0.00793,0.074843 -0.011793,0.161811 -0.011793,0.2613068 0,0.1215093 0.00522,0.2227664 0.014896,0.3028926 0.00969,0.079244 0.024437,0.1423807 0.044689,0.1899282 0.021132,0.046666 0.048108,0.079938 0.080689,0.099309 0.03258,0.018489 0.071522,0.027311 0.1173087,0.027311 0.03434,0 0.064826,-0.00495 0.09124,-0.015518 0.026414,-0.011443 0.048904,-0.028264 0.068275,-0.050275 0.02025,-0.022013 0.037067,-0.049713 0.050275,-0.083171 0.013207,-0.03346 0.023727,-0.072043 0.031655,-0.1160677 0.00881,-0.044025 0.014737,-0.094113 0.017379,-0.149584 0.00353,-0.055472 0.00559,-0.1168027 0.00559,-0.1837216 0,-0.081006 -0.00243,-0.1518788 -0.00683,-0.2135143 -0.0044,-0.062515 -0.01141,-0.1168315 -0.021103,-0.1626182 -0.0088,-0.045787 -0.020669,-0.084368 -0.034758,-0.1160674 -0.013207,-0.031697 -0.029043,-0.057232 -0.048413,-0.075723 -0.019372,-0.019373 -0.041139,-0.032417 -0.065792,-0.040344 -0.024655,-0.00793 -0.052613,-0.012414 -0.082551,-0.012414 z M 4.4228676,5.105174 c -0.117107,0 -0.2138749,-0.020323 -0.2904789,-0.060827 C 4.0549044,5.0047248 3.9935729,4.9469007 3.948667,4.8711775 3.9037617,4.7963345 3.8725538,4.7041568 3.8549445,4.5949744 3.8373285,4.4866725 3.8282533,4.3636471 3.8282565,4.2262895 c 0,-0.136478 0.010885,-0.259242 0.032896,-0.3693052 0.022013,-0.1100627 0.05843,-0.2036839 0.1086192,-0.2811687 0.049308,-0.077485 0.1141473,-0.1373725 0.1942732,-0.1787562 0.079245,-0.041383 0.1763744,-0.062068 0.2917203,-0.062068 0.1171067,0 0.2138751,0.019963 0.2904786,0.059585 0.076603,0.040503 0.1375752,0.098327 0.1824802,0.1731703 0.044905,0.075723 0.076473,0.1679003 0.094964,0.2762028 0.017616,0.1091827 0.026688,0.2319469 0.026688,0.3693056 0,0.1355972 -0.010885,0.2586213 -0.032896,0.3686845 C 4.994592,4.6928835 4.95817,4.7868664 4.9088614,4.8643499 4.8586724,4.9418339 4.7938338,5.0017223 4.7145882,5.0431061 4.6344622,5.0844881 4.5373332,5.1051741 4.4228676,5.105174 Z M 3.4601579,5.076624 H 3.2975394 c -0.047921,0 -0.086275,-0.038354 -0.086275,-0.086275 V 3.4498183 c 0,-0.047921 0.038353,-0.086895 0.086275,-0.086895 h 0.1626185 c 0.04792,0 0.086275,0.038974 0.086275,0.086895 v 1.5405309 c 0,0.047922 -0.038354,0.086275 -0.086275,0.086275 z M 4.4371434,4.8302133 c 0.05195,-10e-7 0.095383,-0.012946 0.1297223,-0.038482 0.033459,-0.024654 0.060438,-0.062154 0.080688,-0.1123429 0.019373,-0.050189 0.033038,-0.1126035 0.040965,-0.1874459 0.00792,-0.074843 0.011793,-0.1618093 0.011793,-0.261307 0,-0.1215093 -0.0052,-0.2221457 -0.014896,-0.3022716 -0.00969,-0.079246 -0.024437,-0.1430028 -0.044689,-0.1905492 -0.021132,-0.046666 -0.048113,-0.079319 -0.080688,-0.098688 -0.03258,-0.018492 -0.071522,-0.02793 -0.1173088,-0.02793 -0.034341,0 -0.064826,0.00557 -0.09124,0.016137 -0.026416,0.011446 -0.049525,0.027641 -0.068896,0.049654 -0.020249,0.022013 -0.037067,0.049712 -0.050275,0.083171 -0.013208,0.03346 -0.023725,0.072663 -0.031655,0.1166879 -0.00881,0.044025 -0.014116,0.093492 -0.016756,0.1489633 -0.00353,0.055472 -0.00559,0.116803 -0.00559,0.1837217 0,0.081006 0.00243,0.1518793 0.00683,0.2135145 0.0044,0.062515 0.011411,0.1168315 0.021106,0.1626185 0.00881,0.045787 0.02005,0.084369 0.034137,0.1160671 0.013208,0.031696 0.029662,0.057233 0.049034,0.075723 0.019373,0.019373 0.041139,0.033038 0.065792,0.040965 0.024654,0.00793 0.051993,0.011793 0.08193,0.011793 z"
     style="fill:#3e8b45;fill-opacity:1;stroke-width:0.02193718" />
</svg>
