<?xml version="1.0" encoding="UTF-8" standalone="no"?>
<!-- Created with Inkscape (http://www.inkscape.org/) -->

<svg
   xmlns:dc="http://purl.org/dc/elements/1.1/"
   xmlns:cc="http://creativecommons.org/ns#"
   xmlns:rdf="http://www.w3.org/1999/02/22-rdf-syntax-ns#"
   xmlns:svg="http://www.w3.org/2000/svg"
   xmlns="http://www.w3.org/2000/svg"
   xmlns:sodipodi="http://sodipodi.sourceforge.net/DTD/sodipodi-0.dtd"
   xmlns:inkscape="http://www.inkscape.org/namespaces/inkscape"
   width="32"
   height="32"
   viewBox="0 0 8.4666666 8.4666666"
   version="1.1"
   id="svg8"
   inkscape:version="0.92.5 (2060ec1f9f, 2020-04-08)"
   sodipodi:docname="colors_sl.svg">
  <defs
     id="defs2">
    <style
       id="style1399">.cls-1{fill:#e3e3e3;}</style>
    <style
       id="style1399-4">.cls-1{fill:#e3e3e3;}</style>
    <style
       id="style1399-8">.cls-1{fill:#e3e3e3;}</style>
    <style
       id="style1399-4-5">.cls-1{fill:#e3e3e3;}</style>
    <style
       id="style1399-9">.cls-1{fill:#e3e3e3;}</style>
    <style
       id="style1399-4-6">.cls-1{fill:#e3e3e3;}</style>
    <style
       id="style1399-8-4">.cls-1{fill:#e3e3e3;}</style>
    <style
       id="style1399-4-5-3">.cls-1{fill:#e3e3e3;}</style>
    <style
       id="style1399-88">.cls-1{fill:#e3e3e3;}</style>
    <style
       id="style1399-3">.cls-1{fill:#e3e3e3;}</style>
    <style
       id="style1399-94">.cls-1{fill:#e3e3e3;}</style>
    <style
       id="style1399-5">.cls-1{fill:#e3e3e3;}</style>
  </defs>
  <sodipodi:namedview
     id="base"
     pagecolor="#ffffff"
     bordercolor="#666666"
     borderopacity="1.0"
     inkscape:pageopacity="0.0"
     inkscape:pageshadow="2"
     inkscape:zoom="2.8284271"
     inkscape:cx="-87.447648"
     inkscape:cy="6.4432583"
     inkscape:document-units="mm"
     inkscape:current-layer="svg8"
     showgrid="false"
     units="px"
     inkscape:window-width="3388"
     inkscape:window-height="1376"
     inkscape:window-x="1526"
     inkscape:window-y="507"
     inkscape:window-maximized="1"
     inkscape:snap-bbox="true"
     inkscape:snap-bbox-edge-midpoints="true"
     inkscape:bbox-nodes="true"
     inkscape:bbox-paths="true"
     inkscape:snap-bbox-midpoints="true"
     inkscape:snap-nodes="false">
    <sodipodi:guide
       position="8.4666666,0"
       orientation="-32,0"
       id="guide854"
       inkscape:locked="false" />
    <sodipodi:guide
       position="8.5622298,8.4657622"
       orientation="0,-32"
       id="guide856"
       inkscape:locked="false" />
    <sodipodi:guide
       position="0,8.4666814"
       orientation="32,0"
       id="guide858"
       inkscape:locked="false" />
  </sodipodi:namedview>
  <metadata
     id="metadata5">
    <rdf:RDF>
      <cc:Work
         rdf:about="">
        <dc:format>image/svg+xml</dc:format>
        <dc:type
           rdf:resource="http://purl.org/dc/dcmitype/StillImage" />
        <dc:title></dc:title>
      </cc:Work>
    </rdf:RDF>
  </metadata>
  <path
     style="opacity:1;fill:#e3e3e3;fill-opacity:1;stroke:none;stroke-width:3.04216266;stroke-miterlimit:4;stroke-dasharray:none;stroke-opacity:0.98156684"
     d="M 9.7480469 0.00390625 A 9.7485325 9.7485325 0 0 0 0 9.7519531 A 9.7485325 9.7485325 0 0 0 3.9589844 17.580078 A 9.7485324 9.7485324 0 0 1 12.503906 12.505859 A 9.7485324 9.7485324 0 0 1 13.072266 12.535156 A 9.7485324 9.7485324 0 0 1 18.96875 6.6210938 A 9.7485325 9.7485325 0 0 0 9.7480469 0.00390625 z M 18.96875 6.6210938 A 9.7485325 9.7485325 0 0 1 19.496094 9.7519531 A 9.7485325 9.7485325 0 0 1 18.296875 14.4375 A 9.7485324 9.7485324 0 0 1 22.251953 22.255859 A 9.7485324 9.7485324 0 0 1 21.683594 25.501953 A 9.7485324 9.7485324 0 0 0 22.251953 25.53125 A 9.7485324 9.7485324 0 0 0 32 15.783203 A 9.7485324 9.7485324 0 0 0 22.251953 6.0351562 A 9.7485324 9.7485324 0 0 0 18.96875 6.6210938 z M 21.683594 25.501953 A 9.7485324 9.7485324 0 0 1 13.035156 18.919922 A 9.7485325 9.7485325 0 0 1 9.7480469 19.5 A 9.7485325 9.7485325 0 0 1 3.9589844 17.580078 A 9.7485324 9.7485324 0 0 0 2.7539062 22.255859 A 9.7485324 9.7485324 0 0 0 12.503906 32.003906 A 9.7485324 9.7485324 0 0 0 21.683594 25.501953 z M 13.035156 18.919922 A 9.7485325 9.7485325 0 0 0 18.296875 14.4375 A 9.7485324 9.7485324 0 0 0 13.072266 12.535156 A 9.7485324 9.7485324 0 0 0 12.503906 15.783203 A 9.7485324 9.7485324 0 0 0 13.035156 18.919922 z "
     transform="scale(0.26458333)"
     id="path826" />
</svg>
