<?xml version="1.0" encoding="UTF-8" standalone="no"?>
<!-- Created with Inkscape (http://www.inkscape.org/) -->

<svg
   xmlns:dc="http://purl.org/dc/elements/1.1/"
   xmlns:cc="http://creativecommons.org/ns#"
   xmlns:rdf="http://www.w3.org/1999/02/22-rdf-syntax-ns#"
   xmlns:svg="http://www.w3.org/2000/svg"
   xmlns="http://www.w3.org/2000/svg"
   xmlns:sodipodi="http://sodipodi.sourceforge.net/DTD/sodipodi-0.dtd"
   xmlns:inkscape="http://www.inkscape.org/namespaces/inkscape"
   width="32"
   height="32"
   viewBox="0 0 8.4666666 8.4666666"
   version="1.1"
   id="svg8"
   inkscape:version="0.92.5 (2060ec1f9f, 2020-04-08)"
   sodipodi:docname="export-color-palette_sd.svg">
  <defs
     id="defs2">
    <style
       id="style1399">.cls-1{fill:#e3e3e3;}</style>
    <style
       id="style1399-4">.cls-1{fill:#e3e3e3;}</style>
    <style
       id="style1399-8">.cls-1{fill:#e3e3e3;}</style>
    <style
       id="style1399-4-5">.cls-1{fill:#e3e3e3;}</style>
    <style
       id="style1399-9">.cls-1{fill:#e3e3e3;}</style>
    <style
       id="style1399-4-6">.cls-1{fill:#e3e3e3;}</style>
    <style
       id="style1399-8-4">.cls-1{fill:#e3e3e3;}</style>
    <style
       id="style1399-4-5-3">.cls-1{fill:#e3e3e3;}</style>
    <style
       id="style1399-88">.cls-1{fill:#e3e3e3;}</style>
    <style
       id="style1399-3">.cls-1{fill:#e3e3e3;}</style>
    <style
       id="style1399-94">.cls-1{fill:#e3e3e3;}</style>
    <style
       id="style1399-5">.cls-1{fill:#e3e3e3;}</style>
    <style
       id="style1399-44">.cls-1{fill:#e3e3e3;}</style>
    <style
       id="style1399-4-7">.cls-1{fill:#e3e3e3;}</style>
    <style
       id="style1399-8-6">.cls-1{fill:#e3e3e3;}</style>
    <style
       id="style1399-4-5-31">.cls-1{fill:#e3e3e3;}</style>
    <style
       id="style1399-9-7">.cls-1{fill:#e3e3e3;}</style>
    <style
       id="style1399-4-6-5">.cls-1{fill:#e3e3e3;}</style>
    <style
       id="style1399-8-4-9">.cls-1{fill:#e3e3e3;}</style>
    <style
       id="style1399-4-5-3-6">.cls-1{fill:#e3e3e3;}</style>
    <style
       id="style1399-88-2">.cls-1{fill:#e3e3e3;}</style>
    <style
       id="style1399-3-1">.cls-1{fill:#e3e3e3;}</style>
    <style
       id="style1399-94-7">.cls-1{fill:#e3e3e3;}</style>
    <style
       id="style1399-5-8">.cls-1{fill:#e3e3e3;}</style>
    <style
       id="style1399-7">.cls-1{fill:#e3e3e3;}</style>
    <style
       id="style1399-4-53">.cls-1{fill:#e3e3e3;}</style>
    <style
       id="style1399-8-8">.cls-1{fill:#e3e3e3;}</style>
    <style
       id="style1399-4-5-8">.cls-1{fill:#e3e3e3;}</style>
    <style
       id="style1399-9-3">.cls-1{fill:#e3e3e3;}</style>
    <style
       id="style1399-4-6-1">.cls-1{fill:#e3e3e3;}</style>
    <style
       id="style1399-8-4-8">.cls-1{fill:#e3e3e3;}</style>
    <style
       id="style1399-4-5-3-9">.cls-1{fill:#e3e3e3;}</style>
    <style
       id="style1399-88-6">.cls-1{fill:#e3e3e3;}</style>
    <style
       id="style1399-3-4">.cls-1{fill:#e3e3e3;}</style>
    <style
       id="style1399-94-3">.cls-1{fill:#e3e3e3;}</style>
    <style
       id="style1399-5-3">.cls-1{fill:#e3e3e3;}</style>
  </defs>
  <sodipodi:namedview
     id="base"
     pagecolor="#ffffff"
     bordercolor="#666666"
     borderopacity="1.0"
     inkscape:pageopacity="0.0"
     inkscape:pageshadow="2"
     inkscape:zoom="15.999999"
     inkscape:cx="3.9376583"
     inkscape:cy="10.638221"
     inkscape:document-units="mm"
     inkscape:current-layer="layer1"
     showgrid="false"
     units="px"
     inkscape:window-width="1858"
     inkscape:window-height="1136"
     inkscape:window-x="0"
     inkscape:window-y="27"
     inkscape:window-maximized="1"
     inkscape:snap-bbox="true"
     inkscape:bbox-paths="true"
     inkscape:bbox-nodes="true"
     inkscape:snap-bbox-edge-midpoints="true"
     inkscape:snap-bbox-midpoints="true"
     inkscape:snap-nodes="false">
    <sodipodi:guide
       position="8.4666666,0"
       orientation="-32,0"
       id="guide854"
       inkscape:locked="false" />
    <sodipodi:guide
       position="8.4666666,8.4666666"
       orientation="0,-32"
       id="guide856"
       inkscape:locked="false" />
    <sodipodi:guide
       position="0,8.4666814"
       orientation="32,0"
       id="guide858"
       inkscape:locked="false" />
  </sodipodi:namedview>
  <metadata
     id="metadata5">
    <rdf:RDF>
      <cc:Work
         rdf:about="">
        <dc:format>image/svg+xml</dc:format>
        <dc:type
           rdf:resource="http://purl.org/dc/dcmitype/StillImage" />
        <dc:title></dc:title>
      </cc:Work>
    </rdf:RDF>
  </metadata>
  <g
     inkscape:label="Layer 1"
     inkscape:groupmode="layer"
     id="layer1"
     transform="translate(0,-288.53334)">
    <path
       style="fill:#3e8b45;fill-opacity:1;stroke-width:0.01056834"
       inkscape:connector-curvature="0"
       d="m 4.6075425,295.1501 -1.7754811,1.77547 c -0.1585252,0.15853 -0.4333018,0.0476 -0.4333018,-0.17966 v -1.01456 H 0.96146539 c -0.1405586,0 -0.2536399,-0.11308 -0.2536399,-0.25363 v -1.01457 c 0,-0.14055 0.1130813,-0.25363 0.2536399,-0.25363 H 2.3987596 v -1.01457 c 0,-0.22616 0.2737198,-0.33818 0.4333018,-0.17966 l 1.7754811,1.77548 c 0.098285,0.0993 0.098285,0.25998 0,0.35933 z"
       id="path960"
       sodipodi:nodetypes="ccscsssscsccc" />
    <path
       style="fill:#3e8b45;fill-opacity:1;stroke-width:0.01225569"
       d="m 4.5800821,288.53489 c -1.6813342,0.0554 -3.0275523,1.43017 -3.0328898,3.12022 0.00123,0.43753 0.356547,0.80047 0.7953004,0.80047 h 0.9766845 c 0.6250403,0 1.0293141,0.64973 0.7462075,1.20613 -0.00306,0.006 -0.00383,0.0125 -0.00672,0.0186 l 0.8294065,0.82941 a 0.39691095,0.39691095 0 0 1 0,0.002 c 0.080519,0.0813 0.1323031,0.18023 0.1607138,0.28474 1.470965,-0.1099 3.1191638,-1.6988 2.7093954,-3.76979 -0.2402117,-1.21454 -1.2219461,-2.19415 -2.4401613,-2.4319 -0.250935,-0.0489 -0.4977487,-0.0679 -0.7379393,-0.0599 z m 0.1043864,0.78342 c 0.2169255,0 0.3922241,0.1753 0.3922241,0.39222 0,0.21693 -0.1752986,0.39222 -0.3922241,0.39222 -0.2169258,0 -0.3922242,-0.17529 -0.3922242,-0.39222 0,-0.21692 0.1752984,-0.39222 0.3922242,-0.39222 z m -1.5688964,0.78444 c 0.2169255,0 0.3922239,0.17479 0.3922239,0.39171 3e-7,0.21694 -0.1752984,0.39222 -0.3922239,0.39222 -0.2169258,0 -0.3922241,-0.17528 -0.3922241,-0.39222 0,-0.21692 0.1752983,-0.39171 0.3922241,-0.39171 z m 3.137793,0 c 0.2169255,0 0.3922241,0.17479 0.3922241,0.39171 -3e-7,0.21694 -0.1752986,0.39222 -0.3922241,0.39222 -0.2169256,0 -0.3922242,-0.17528 -0.3922242,-0.39222 0,-0.21692 0.1752986,-0.39171 0.3922242,-0.39171 z m 0.3922241,1.56838 c 0.2169258,0 0.3917072,0.1753 0.3917072,0.39223 0,0.21692 -0.1747814,0.39222 -0.3917072,0.39222 -0.2169258,0 -0.3922241,-0.1753 -0.3922241,-0.39222 0,-0.21693 0.1752983,-0.39223 0.3922241,-0.39223 z"
       id="path5532"
       inkscape:connector-curvature="0" />
  </g>
</svg>
