<?xml version="1.0" encoding="UTF-8" standalone="no"?>
<!-- Created with Inkscape (http://www.inkscape.org/) -->

<svg
   xmlns:dc="http://purl.org/dc/elements/1.1/"
   xmlns:cc="http://creativecommons.org/ns#"
   xmlns:rdf="http://www.w3.org/1999/02/22-rdf-syntax-ns#"
   xmlns:svg="http://www.w3.org/2000/svg"
   xmlns="http://www.w3.org/2000/svg"
   xmlns:sodipodi="http://sodipodi.sourceforge.net/DTD/sodipodi-0.dtd"
   xmlns:inkscape="http://www.inkscape.org/namespaces/inkscape"
   width="32"
   height="32"
   viewBox="0 0 8.4666666 8.4666666"
   version="1.1"
   id="svg8"
   inkscape:version="0.92.5 (2060ec1f9f, 2020-04-08)"
   sodipodi:docname="export-color-palette_bl.svg">
  <defs
     id="defs2">
    <style
       id="style1399">.cls-1{fill:#e3e3e3;}</style>
    <style
       id="style1399-4">.cls-1{fill:#e3e3e3;}</style>
    <style
       id="style1399-8">.cls-1{fill:#e3e3e3;}</style>
    <style
       id="style1399-4-5">.cls-1{fill:#e3e3e3;}</style>
    <style
       id="style1399-9">.cls-1{fill:#e3e3e3;}</style>
    <style
       id="style1399-4-6">.cls-1{fill:#e3e3e3;}</style>
    <style
       id="style1399-8-4">.cls-1{fill:#e3e3e3;}</style>
    <style
       id="style1399-4-5-3">.cls-1{fill:#e3e3e3;}</style>
    <style
       id="style1399-88">.cls-1{fill:#e3e3e3;}</style>
    <style
       id="style1399-3">.cls-1{fill:#e3e3e3;}</style>
    <style
       id="style1399-94">.cls-1{fill:#e3e3e3;}</style>
    <style
       id="style1399-5">.cls-1{fill:#e3e3e3;}</style>
    <style
       id="style1399-44">.cls-1{fill:#e3e3e3;}</style>
    <style
       id="style1399-4-7">.cls-1{fill:#e3e3e3;}</style>
    <style
       id="style1399-8-6">.cls-1{fill:#e3e3e3;}</style>
    <style
       id="style1399-4-5-31">.cls-1{fill:#e3e3e3;}</style>
    <style
       id="style1399-9-7">.cls-1{fill:#e3e3e3;}</style>
    <style
       id="style1399-4-6-5">.cls-1{fill:#e3e3e3;}</style>
    <style
       id="style1399-8-4-9">.cls-1{fill:#e3e3e3;}</style>
    <style
       id="style1399-4-5-3-6">.cls-1{fill:#e3e3e3;}</style>
    <style
       id="style1399-88-2">.cls-1{fill:#e3e3e3;}</style>
    <style
       id="style1399-3-1">.cls-1{fill:#e3e3e3;}</style>
    <style
       id="style1399-94-7">.cls-1{fill:#e3e3e3;}</style>
    <style
       id="style1399-5-8">.cls-1{fill:#e3e3e3;}</style>
    <style
       id="style1399-7">.cls-1{fill:#e3e3e3;}</style>
    <style
       id="style1399-4-53">.cls-1{fill:#e3e3e3;}</style>
    <style
       id="style1399-8-8">.cls-1{fill:#e3e3e3;}</style>
    <style
       id="style1399-4-5-8">.cls-1{fill:#e3e3e3;}</style>
    <style
       id="style1399-9-3">.cls-1{fill:#e3e3e3;}</style>
    <style
       id="style1399-4-6-1">.cls-1{fill:#e3e3e3;}</style>
    <style
       id="style1399-8-4-8">.cls-1{fill:#e3e3e3;}</style>
    <style
       id="style1399-4-5-3-9">.cls-1{fill:#e3e3e3;}</style>
    <style
       id="style1399-88-6">.cls-1{fill:#e3e3e3;}</style>
    <style
       id="style1399-3-4">.cls-1{fill:#e3e3e3;}</style>
    <style
       id="style1399-94-3">.cls-1{fill:#e3e3e3;}</style>
    <style
       id="style1399-5-3">.cls-1{fill:#e3e3e3;}</style>
  </defs>
  <sodipodi:namedview
     id="base"
     pagecolor="#ffffff"
     bordercolor="#666666"
     borderopacity="1.0"
     inkscape:pageopacity="0.0"
     inkscape:pageshadow="2"
     inkscape:zoom="3.9999998"
     inkscape:cx="29.959743"
     inkscape:cy="18.096516"
     inkscape:document-units="mm"
     inkscape:current-layer="layer1"
     showgrid="false"
     units="px"
     inkscape:window-width="1858"
     inkscape:window-height="1136"
     inkscape:window-x="0"
     inkscape:window-y="27"
     inkscape:window-maximized="1"
     inkscape:snap-bbox="true"
     inkscape:bbox-paths="true"
     inkscape:bbox-nodes="true"
     inkscape:snap-bbox-edge-midpoints="true"
     inkscape:snap-bbox-midpoints="true"
     inkscape:snap-nodes="false">
    <sodipodi:guide
       position="8.4666666,0"
       orientation="-32,0"
       id="guide854"
       inkscape:locked="false" />
    <sodipodi:guide
       position="8.4666666,8.4666666"
       orientation="0,-32"
       id="guide856"
       inkscape:locked="false" />
    <sodipodi:guide
       position="0,8.4666814"
       orientation="32,0"
       id="guide858"
       inkscape:locked="false" />
  </sodipodi:namedview>
  <metadata
     id="metadata5">
    <rdf:RDF>
      <cc:Work
         rdf:about="">
        <dc:format>image/svg+xml</dc:format>
        <dc:type
           rdf:resource="http://purl.org/dc/dcmitype/StillImage" />
        <dc:title></dc:title>
      </cc:Work>
    </rdf:RDF>
  </metadata>
  <g
     inkscape:label="Layer 1"
     inkscape:groupmode="layer"
     id="layer1"
     transform="translate(0,-288.53334)">
    <path
       style="fill:#8ad891;fill-opacity:1;stroke-width:0.01056834"
       inkscape:connector-curvature="0"
       d="m 5.2524644,295.1501 -1.7754811,1.77547 c -0.1585252,0.15853 -0.4333018,0.0476 -0.4333018,-0.17966 v -1.01456 H 1.6063873 c -0.1405586,0 -0.2536399,-0.11308 -0.2536399,-0.25363 v -1.01457 c 0,-0.14055 0.1130813,-0.25363 0.2536399,-0.25363 h 1.4372942 v -1.01457 c 0,-0.22616 0.2737198,-0.33818 0.4333018,-0.17966 l 1.7754811,1.77548 c 0.098285,0.0993 0.098285,0.25998 0,0.35933 z m -3.2233436,1.72264 V 296.45 c 0,-0.0697 -0.057069,-0.12682 -0.1268199,-0.12682 H 1.0145606 c -0.1870598,0 -0.3381868,-0.15113 -0.3381868,-0.33819 v -2.02911 c 0,-0.18707 0.151127,-0.33819 0.3381868,-0.33819 h 0.8877403 c 0.069751,0 0.1268199,-0.0571 0.1268199,-0.12682 v -0.42274 c 0,-0.0697 -0.057069,-0.12682 -0.1268199,-0.12682 H 1.0145606 C 0.4544384,292.94131 0,293.39575 0,293.95588 v 2.02911 c 0,0.56013 0.4544384,1.01457 1.0145606,1.01457 h 0.8877403 c 0.069751,0 0.1268199,-0.0571 0.1268199,-0.12682 z"
       id="path960" />
    <path
       style="fill:#e3e3e3;fill-opacity:1;stroke-width:0.04632072"
       d="M 19.748047,0.00585938 C 13.393398,0.21517419 8.3053295,5.4112234 8.2851562,11.798828 c 0.00463,1.653657 1.3475792,3.025391 3.0058598,3.025391 h 3.691406 c 2.362357,0 3.890321,2.455664 2.820312,4.558593 -0.01156,0.0227 -0.01446,0.04744 -0.02539,0.07031 l 3.134765,3.134766 a 1.5001359,1.5001359 0 0 1 0,0.0078 c 0.304325,0.307467 0.500043,0.681178 0.607422,1.076172 C 27.079084,23.256485 33.308497,17.251189 31.759766,9.4238281 30.851879,4.8334407 27.141387,1.1310046 22.537109,0.23242188 21.588693,0.04772109 20.655854,-0.02404274 19.748047,0.00585938 Z m 0.394531,2.96093752 c 0.819876,0 1.482422,0.6625667 1.482422,1.4824219 0,0.8198929 -0.662546,1.4824218 -1.482422,1.4824218 -0.819877,0 -1.482422,-0.6625289 -1.482422,-1.4824218 0,-0.8198552 0.662545,-1.4824219 1.482422,-1.4824219 z m -5.929687,2.9648437 c 0.819876,0 1.482421,0.6606137 1.482421,1.4804688 1e-6,0.8199307 -0.662545,1.4824218 -1.482421,1.4824218 -0.819877,0 -1.482422,-0.6624911 -1.482422,-1.4824218 0,-0.8198551 0.662545,-1.4804688 1.482422,-1.4804688 z m 11.859375,0 c 0.819876,0 1.482422,0.6606137 1.482422,1.4804688 -10e-7,0.8199307 -0.662546,1.4824218 -1.482422,1.4824218 -0.819876,0 -1.482422,-0.6624911 -1.482422,-1.4824218 0,-0.8198551 0.662546,-1.4804688 1.482422,-1.4804688 z m 1.482422,5.9277344 c 0.819877,0 1.480468,0.662529 1.480468,1.482422 0,0.819855 -0.660591,1.482422 -1.480468,1.482422 -0.819877,0 -1.482422,-0.662567 -1.482422,-1.482422 0,-0.819893 0.662545,-1.482422 1.482422,-1.482422 z"
       transform="matrix(0.26458333,0,0,0.26458333,0,288.53334)"
       id="path5532"
       inkscape:connector-curvature="0" />
  </g>
</svg>
