<?xml version="1.0" encoding="UTF-8" standalone="no"?>
<!-- Created with Inkscape (http://www.inkscape.org/) -->

<svg
   xmlns:dc="http://purl.org/dc/elements/1.1/"
   xmlns:cc="http://creativecommons.org/ns#"
   xmlns:rdf="http://www.w3.org/1999/02/22-rdf-syntax-ns#"
   xmlns:svg="http://www.w3.org/2000/svg"
   xmlns="http://www.w3.org/2000/svg"
   xmlns:sodipodi="http://sodipodi.sourceforge.net/DTD/sodipodi-0.dtd"
   xmlns:inkscape="http://www.inkscape.org/namespaces/inkscape"
   width="32"
   height="32"
   viewBox="0 0 8.4666666 8.4666666"
   version="1.1"
   id="svg8"
   inkscape:version="0.92.5 (2060ec1f9f, 2020-04-08)"
   sodipodi:docname="import-color-palette_bl.svg">
  <defs
     id="defs2">
    <style
       id="style1399">.cls-1{fill:#e3e3e3;}</style>
    <style
       id="style1399-4">.cls-1{fill:#e3e3e3;}</style>
    <style
       id="style1399-8">.cls-1{fill:#e3e3e3;}</style>
    <style
       id="style1399-4-5">.cls-1{fill:#e3e3e3;}</style>
    <style
       id="style1399-9">.cls-1{fill:#e3e3e3;}</style>
    <style
       id="style1399-4-6">.cls-1{fill:#e3e3e3;}</style>
    <style
       id="style1399-8-4">.cls-1{fill:#e3e3e3;}</style>
    <style
       id="style1399-4-5-3">.cls-1{fill:#e3e3e3;}</style>
    <style
       id="style1399-88">.cls-1{fill:#e3e3e3;}</style>
    <style
       id="style1399-3">.cls-1{fill:#e3e3e3;}</style>
    <style
       id="style1399-94">.cls-1{fill:#e3e3e3;}</style>
    <style
       id="style1399-5">.cls-1{fill:#e3e3e3;}</style>
    <style
       id="style1399-44">.cls-1{fill:#e3e3e3;}</style>
    <style
       id="style1399-4-7">.cls-1{fill:#e3e3e3;}</style>
    <style
       id="style1399-8-6">.cls-1{fill:#e3e3e3;}</style>
    <style
       id="style1399-4-5-31">.cls-1{fill:#e3e3e3;}</style>
    <style
       id="style1399-9-7">.cls-1{fill:#e3e3e3;}</style>
    <style
       id="style1399-4-6-5">.cls-1{fill:#e3e3e3;}</style>
    <style
       id="style1399-8-4-9">.cls-1{fill:#e3e3e3;}</style>
    <style
       id="style1399-4-5-3-6">.cls-1{fill:#e3e3e3;}</style>
    <style
       id="style1399-88-2">.cls-1{fill:#e3e3e3;}</style>
    <style
       id="style1399-3-1">.cls-1{fill:#e3e3e3;}</style>
    <style
       id="style1399-94-7">.cls-1{fill:#e3e3e3;}</style>
    <style
       id="style1399-5-8">.cls-1{fill:#e3e3e3;}</style>
    <style
       id="style1399-7">.cls-1{fill:#e3e3e3;}</style>
    <style
       id="style1399-4-53">.cls-1{fill:#e3e3e3;}</style>
    <style
       id="style1399-8-8">.cls-1{fill:#e3e3e3;}</style>
    <style
       id="style1399-4-5-8">.cls-1{fill:#e3e3e3;}</style>
    <style
       id="style1399-9-3">.cls-1{fill:#e3e3e3;}</style>
    <style
       id="style1399-4-6-1">.cls-1{fill:#e3e3e3;}</style>
    <style
       id="style1399-8-4-8">.cls-1{fill:#e3e3e3;}</style>
    <style
       id="style1399-4-5-3-9">.cls-1{fill:#e3e3e3;}</style>
    <style
       id="style1399-88-6">.cls-1{fill:#e3e3e3;}</style>
    <style
       id="style1399-3-4">.cls-1{fill:#e3e3e3;}</style>
    <style
       id="style1399-94-3">.cls-1{fill:#e3e3e3;}</style>
    <style
       id="style1399-5-3">.cls-1{fill:#e3e3e3;}</style>
    <style
       id="style1399-89">.cls-1{fill:#e3e3e3;}</style>
    <style
       id="style1399-4-77">.cls-1{fill:#e3e3e3;}</style>
    <style
       id="style1399-8-64">.cls-1{fill:#e3e3e3;}</style>
    <style
       id="style1399-4-5-30">.cls-1{fill:#e3e3e3;}</style>
    <style
       id="style1399-9-30">.cls-1{fill:#e3e3e3;}</style>
    <style
       id="style1399-4-6-9">.cls-1{fill:#e3e3e3;}</style>
    <style
       id="style1399-8-4-2">.cls-1{fill:#e3e3e3;}</style>
    <style
       id="style1399-4-5-3-5">.cls-1{fill:#e3e3e3;}</style>
    <style
       id="style1399-88-4">.cls-1{fill:#e3e3e3;}</style>
    <style
       id="style1399-3-0">.cls-1{fill:#e3e3e3;}</style>
    <style
       id="style1399-94-5">.cls-1{fill:#e3e3e3;}</style>
    <style
       id="style1399-5-9">.cls-1{fill:#e3e3e3;}</style>
  </defs>
  <sodipodi:namedview
     id="base"
     pagecolor="#ffffff"
     bordercolor="#666666"
     borderopacity="1.0"
     inkscape:pageopacity="0.0"
     inkscape:pageshadow="2"
     inkscape:zoom="7.9999996"
     inkscape:cx="-5.5414098"
     inkscape:cy="2.2792282"
     inkscape:document-units="mm"
     inkscape:current-layer="layer1"
     showgrid="false"
     units="px"
     inkscape:window-width="1858"
     inkscape:window-height="1136"
     inkscape:window-x="0"
     inkscape:window-y="27"
     inkscape:window-maximized="1"
     inkscape:snap-bbox="true"
     inkscape:bbox-paths="true"
     inkscape:bbox-nodes="true"
     inkscape:snap-bbox-edge-midpoints="true"
     inkscape:snap-bbox-midpoints="true"
     inkscape:snap-nodes="false">
    <sodipodi:guide
       position="8.4666666,0"
       orientation="-32,0"
       id="guide854"
       inkscape:locked="false" />
    <sodipodi:guide
       position="8.4666666,8.4666666"
       orientation="0,-32"
       id="guide856"
       inkscape:locked="false" />
    <sodipodi:guide
       position="0,8.4666814"
       orientation="32,0"
       id="guide858"
       inkscape:locked="false" />
  </sodipodi:namedview>
  <metadata
     id="metadata5">
    <rdf:RDF>
      <cc:Work
         rdf:about="">
        <dc:format>image/svg+xml</dc:format>
        <dc:type
           rdf:resource="http://purl.org/dc/dcmitype/StillImage" />
        <dc:title></dc:title>
      </cc:Work>
    </rdf:RDF>
  </metadata>
  <g
     inkscape:label="Layer 1"
     inkscape:groupmode="layer"
     id="layer1"
     transform="translate(0,-288.53334)">
    <path
       style="fill:#e3e3e3;fill-opacity:1;stroke-width:0.04286986"
       d="M 11.351562,-0.078125 C 10.511392,-0.10579454 9.6472913,-0.04008866 8.7695312,0.13085938 4.5082681,0.96250662 1.0746245,4.388303 0.234375,8.6367188 -1.1240414,15.502211 3.9845877,20.856723 8.9023438,21.726562 9.1167335,20.224701 10.436963,19.037109 11.972656,19.037109 h 1.476563 c -0.01388,-0.400659 -0.106581,-0.806212 -0.298828,-1.183593 -0.990294,-1.946268 0.424965,-4.21875 2.611328,-4.21875 h 3.417969 c 1.534739,0 2.776962,-1.268347 2.78125,-2.798828 C 21.942087,4.9241895 17.232759,0.11556176 11.351562,-0.078125 Z m -0.365234,2.7382812 c 0.758797,0 1.371094,0.614269 1.371094,1.3730469 0,0.758778 -0.612297,1.3710938 -1.371094,1.3710938 -0.758796,0 -1.3710936,-0.6123158 -1.3710936,-1.3710938 0,-0.7587779 0.6122976,-1.3730469 1.3710936,-1.3730469 z M 5.5,5.4042969 c 0.7587957,0 1.3710937,0.6142311 1.3710938,1.3730469 0,0.7587779 -0.6122981,1.3710937 -1.3710938,1.3710937 -0.7587965,0 -1.3730469,-0.6123158 -1.3730469,-1.3710937 0,-0.7588158 0.6142504,-1.3730469 1.3730469,-1.3730469 z m 10.974609,0 c 0.758797,0 1.371094,0.6142311 1.371094,1.3730469 0,0.7587779 -0.612297,1.3710937 -1.371094,1.3710937 -0.758796,0 -1.373046,-0.6123158 -1.373047,-1.3710937 0,-0.7588158 0.614251,-1.3730469 1.373047,-1.3730469 z M 4.1269531,10.892578 c 0.7587961,0 1.3730469,0.612278 1.3730469,1.371094 0,0.758778 -0.6142508,1.371094 -1.3730469,1.371094 -0.7587968,0 -1.3710937,-0.612316 -1.3710937,-1.371094 0,-0.758816 0.6122969,-1.371094 1.3710937,-1.371094 z"
       transform="matrix(0.26458333,0,0,0.26458333,0,288.53334)"
       id="path5532"
       inkscape:connector-curvature="0" />
    <path
       id="path1100"
       d="M 7.4242065,296.91267 H 6.5120538 c -0.071669,0 -0.1303074,-0.0586 -0.1303074,-0.13031 v -0.43435 c 0,-0.0717 0.058641,-0.13031 0.1303074,-0.13031 h 0.9121527 c 0.1922037,0 0.347487,-0.15529 0.347487,-0.34749 v -2.08492 c 0,-0.1922 -0.1552833,-0.34748 -0.347487,-0.34748 H 6.5120538 c -0.071669,0 -0.1303074,-0.0586 -0.1303074,-0.13031 v -0.43436 c 0,-0.0717 0.058641,-0.13031 0.1303074,-0.13031 h 0.9121527 c 0.5755247,0 1.0424602,0.46694 1.0424602,1.04246 v 2.08492 c 0,0.57553 -0.4669355,1.04246 -1.0424602,1.04246 z m -0.5103709,-2.18265 -1.8243047,-1.82431 c -0.1628847,-0.16288 -0.4452179,-0.0489 -0.4452179,0.18461 v 1.04246 H 3.1674945 c -0.1444238,0 -0.2606149,0.11619 -0.2606149,0.26062 v 1.04246 c 0,0.14442 0.1161911,0.26061 0.2606149,0.26061 H 4.644313 v 1.04246 c 0,0.23346 0.2823332,0.34748 0.4452179,0.1846 l 1.8243047,-1.8243 c 0.1009878,-0.10208 0.1009878,-0.26713 0,-0.36921 z"
       inkscape:connector-curvature="0"
       style="fill:#d588f1;fill-opacity:1;stroke-width:0.01085895" />
  </g>
</svg>
