<?xml version="1.0" encoding="UTF-8" standalone="no"?>
<!-- Created with Inkscape (http://www.inkscape.org/) -->

<svg
   width="864.82617"
   height="1065.5404"
   viewBox="0 0 228.81858 281.92424"
   version="1.1"
   id="svg8"
   inkscape:version="1.1.1 (3bf5ae0d25, 2021-09-20)"
   sodipodi:docname="duik-icon.svg"
   inkscape:export-filename="D:\RxLab\src\RxOT\RxUI\Icons\4_RxOT\Duik\duik-icon.png"
   inkscape:export-xdpi="48"
   inkscape:export-ydpi="48"
   xmlns:inkscape="http://www.inkscape.org/namespaces/inkscape"
   xmlns:sodipodi="http://sodipodi.sourceforge.net/DTD/sodipodi-0.dtd"
   xmlns="http://www.w3.org/2000/svg"
   xmlns:svg="http://www.w3.org/2000/svg"
   xmlns:rdf="http://www.w3.org/1999/02/22-rdf-syntax-ns#"
   xmlns:cc="http://creativecommons.org/ns#"
   xmlns:dc="http://purl.org/dc/elements/1.1/">
  <defs
     id="defs2" />
  <sodipodi:namedview
     id="base"
     pagecolor="#ffffff"
     bordercolor="#666666"
     borderopacity="1.0"
     inkscape:pageopacity="0.0"
     inkscape:pageshadow="2"
     inkscape:zoom="0.7"
     inkscape:cx="209.28571"
     inkscape:cy="556.42857"
     inkscape:document-units="mm"
     inkscape:current-layer="layer1"
     showgrid="false"
     units="px"
     fit-margin-top="0"
     fit-margin-left="0"
     fit-margin-right="0"
     fit-margin-bottom="0"
     inkscape:window-width="1920"
     inkscape:window-height="1057"
     inkscape:window-x="957"
     inkscape:window-y="1432"
     inkscape:window-maximized="1"
     inkscape:pagecheckerboard="0"
     inkscape:snap-nodes="false"
     inkscape:snap-bbox="true"
     inkscape:bbox-paths="true"
     inkscape:bbox-nodes="true"
     inkscape:snap-bbox-edge-midpoints="true"
     inkscape:snap-bbox-midpoints="true" />
  <metadata
     id="metadata5">
    <rdf:RDF>
      <cc:Work
         rdf:about="">
        <dc:format>image/svg+xml</dc:format>
        <dc:type
           rdf:resource="http://purl.org/dc/dcmitype/StillImage" />
      </cc:Work>
    </rdf:RDF>
  </metadata>
  <g
     inkscape:label="Calque 1"
     inkscape:groupmode="layer"
     id="layer1"
     transform="translate(-11.078798,-13.075632)">
    <path
       style="display:inline;fill:#ec1818;fill-opacity:1;fill-rule:nonzero;stroke:none;stroke-width:21.1045;stroke-linecap:butt;stroke-linejoin:round;stroke-miterlimit:4;stroke-dasharray:none;stroke-opacity:1;paint-order:markers stroke fill"
       d="m 118.1274,22.363116 c -3.11495,-0.366064 -6.42739,0.57914 -9.04083,3.192258 L 65.391474,69.250591 c -2.160001,2.160334 -8.639361,9.475829 -7.482379,14.914327 1.120607,5.257998 4.611692,10.500351 12.470207,10.225845 24.343078,-0.851655 24.286239,-0.83736 57.587328,-0.83736 19.48096,0.641503 37.72601,8.435667 51.67606,22.146957 30.37842,29.85934 31.39118,79.62697 0.0132,110.48504 -29.76615,29.27357 -78.47018,30.10718 -109.050966,-0.4726 -13.405983,-13.40599 -21.296981,-30.8595 -22.521206,-49.6062 -0.162408,-2.90252 -2.604996,-5.14753 -5.524412,-5.13759 H 16.708863 c -3.176664,0 -5.694289,2.66574 -5.536758,5.83594 1.386949,27.28261 12.494572,54.15708 33.332597,74.99511 44.646144,44.64634 117.041018,44.64539 161.687478,0 44.59549,-44.59499 44.52564,-117.30929 -0.1624,-161.824927 l 0.0132,-0.01328 C 184.40347,68.398481 156.2734,57.296322 127.95526,56.654493 V 33.372867 c 0,-6.160688 -4.6458,-10.400403 -9.8389,-11.01131 z M 82.949226,129.581 v 6.28503 l 30.801324,31.4871 v 6.32252 l -30.801324,31.47431 v 6.29739 h 80.108214 v -6.29739 L 132.2561,173.67565 v -6.32252 l 30.80134,-31.4871 V 129.581 Z"
       id="path2156"
       inkscape:connector-curvature="0"
       inkscape:label="Picto" />
  </g>
</svg>
