<?xml version="1.0" encoding="UTF-8" standalone="no"?>
<svg
   width="32"
   height="32"
   viewBox="0 0 8.4666666 8.4666666"
   version="1.1"
   id="svg8"
   inkscape:version="1.2.2 (732a01da63, 2022-12-09)"
   sodipodi:docname="penguin_sd.svg"
   inkscape:export-filename="D:\DEV_SRC\RxOT\DuAEF_Duik\icons\w16/w16_bird.png"
   inkscape:export-xdpi="48"
   inkscape:export-ydpi="48"
   xml:space="preserve"
   xmlns:inkscape="http://www.inkscape.org/namespaces/inkscape"
   xmlns:sodipodi="http://sodipodi.sourceforge.net/DTD/sodipodi-0.dtd"
   xmlns="http://www.w3.org/2000/svg"
   xmlns:svg="http://www.w3.org/2000/svg"
   xmlns:rdf="http://www.w3.org/1999/02/22-rdf-syntax-ns#"
   xmlns:cc="http://creativecommons.org/ns#"
   xmlns:dc="http://purl.org/dc/elements/1.1/"><defs
     id="defs2"><inkscape:path-effect
       effect="mirror_symmetry"
       start_point="4.2333333,0"
       end_point="4.2333333,8.4666667"
       center_point="4.2333333,4.2333333"
       id="path-effect897"
       is_visible="true"
       mode="vertical"
       discard_orig_path="false"
       fuse_paths="false"
       oposite_fuse="false" /><inkscape:path-effect
       effect="mirror_symmetry"
       start_point="4.2328811,1.6730093"
       end_point="4.2328811,6.1768975"
       center_point="4.2328811,3.9249534"
       id="path-effect862"
       is_visible="true"
       mode="free"
       discard_orig_path="false"
       fuse_paths="false"
       oposite_fuse="false" /><inkscape:path-effect
       effect="mirror_symmetry"
       start_point="4.2333333,0"
       end_point="4.2333333,8.4666667"
       center_point="4.2333333,4.2333333"
       id="path-effect858"
       is_visible="true"
       mode="vertical"
       discard_orig_path="false"
       fuse_paths="false"
       oposite_fuse="false" /><inkscape:path-effect
       effect="mirror_symmetry"
       start_point="4.2333333,0"
       end_point="4.2333333,8.4666667"
       center_point="4.2333333,4.2333333"
       id="path-effect854"
       is_visible="true"
       mode="vertical"
       discard_orig_path="false"
       fuse_paths="false"
       oposite_fuse="false" /><style
       id="style1399">.cls-1{fill:#e3e3e3;}</style><style
       id="style1399-4">.cls-1{fill:#e3e3e3;}</style><style
       id="style1399-8">.cls-1{fill:#e3e3e3;}</style><style
       id="style1399-4-5">.cls-1{fill:#e3e3e3;}</style></defs><sodipodi:namedview
     id="base"
     pagecolor="#ffffff"
     bordercolor="#666666"
     borderopacity="1.0"
     inkscape:pageopacity="0.0"
     inkscape:pageshadow="2"
     inkscape:zoom="12.526561"
     inkscape:cx="4.2310097"
     inkscape:cy="21.5542"
     inkscape:document-units="mm"
     inkscape:current-layer="svg8"
     showgrid="false"
     units="px"
     inkscape:window-width="3440"
     inkscape:window-height="1369"
     inkscape:window-x="1912"
     inkscape:window-y="-8"
     inkscape:window-maximized="1"
     inkscape:document-rotation="0"
     inkscape:snap-nodes="false"
     inkscape:snap-bbox="true"
     inkscape:bbox-paths="true"
     inkscape:snap-bbox-edge-midpoints="true"
     inkscape:bbox-nodes="true"
     inkscape:snap-bbox-midpoints="true"
     inkscape:showpageshadow="0"
     inkscape:pagecheckerboard="0"
     inkscape:deskcolor="#d1d1d1" /><metadata
     id="metadata5"><rdf:RDF><cc:Work
         rdf:about=""><dc:format>image/svg+xml</dc:format><dc:type
           rdf:resource="http://purl.org/dc/dcmitype/StillImage" /></cc:Work></rdf:RDF></metadata><path
     id="path698"
     style="fill:#434343;fill-opacity:1;stroke-width:0.429703;stroke-linecap:round;stroke-linejoin:round"
     d="M 4.2378796,-0.00516804 A 1.8121056,1.8121056 0 0 0 2.4261577,1.8065538 1.8121056,1.8121056 0 0 0 2.4949034,2.298724 3.2705899,3.2024525 0 0 0 1.2897252,3.6225343 l -6.084e-4,-0.00365 C 0.77936922,4.6819947 0.52459596,5.9126106 0.6862234,6.0182901 0.75486738,6.0631725 0.91330255,5.9506617 1.0731459,5.8065777 A 3.2705899,3.2024525 0 0 0 1.7277506,7.0592088 2.7431036,3.2024525 0 0 1 1.4947454,5.7712924 2.7431036,3.2024525 0 0 1 2.8727004,2.9959145 1.8121056,1.8121056 0 0 0 4.2378796,3.618884 1.8121056,1.8121056 0 0 0 5.6042756,2.9946978 2.7431036,3.2024525 0 0 1 6.9810138,5.7712924 2.7431036,3.2024525 0 0 1 6.7486171,7.0592088 3.2705899,3.2024525 0 0 0 7.4013966,5.8138782 C 7.5585055,5.9544764 7.7129131,6.0624225 7.7804102,6.0182901 7.9273679,5.9222025 7.730345,4.896131 7.3101413,3.9115093 A 3.2705899,3.2024525 0 0 0 5.9802474,2.3011576 1.8121056,1.8121056 0 0 0 6.0502098,1.8065538 1.8121056,1.8121056 0 0 0 4.2378796,-0.00516804 Z M 3.4250991,0.89217573 c 0.3857557,2.0508e-4 0.6994235,0.30535207 0.7142248,0.68745667 -0.066659,0.00839 -0.1210595,0.025966 -0.1362746,0.05232 -0.044661,0.077356 0.1455081,0.4069986 0.2348303,0.4069985 0.089323,0 0.2800996,-0.329643 0.2354387,-0.4069985 C 4.4603107,1.6094223 4.4184536,1.5939056 4.3650286,1.5844993 4.3773684,1.1999125 4.6928564,0.89205235 5.0804702,0.89217573 5.4759839,0.89204988 5.7966459,1.2127116 5.7965201,1.6082257 5.79631,2.0035022 5.4757463,2.3237931 5.0804702,2.3236672 H 3.4250991 C 3.0298225,2.3237931 2.7092592,2.0035022 2.7090491,1.6082257 2.7089232,1.2127116 3.029585,0.89204988 3.4250991,0.89217573 Z M 3.4098898,1.4798599 A 0.12809884,0.12809884 0 0 0 3.2815241,1.6076173 0.12809884,0.12809884 0 0 0 3.4098898,1.7359831 0.12809884,0.12809884 0 0 0 3.5376473,1.6076173 0.12809884,0.12809884 0 0 0 3.4098898,1.4798599 Z m 1.6827478,0 A 0.12809884,0.12809884 0 0 0 4.9648802,1.6076173 0.12809884,0.12809884 0 0 0 5.0926376,1.7359831 0.12809884,0.12809884 0 0 0 5.2210033,1.6076173 0.12809884,0.12809884 0 0 0 5.0926376,1.4798599 Z m 0.3479869,6.1816339 c -0.2010986,0.00352 -0.3979572,0.056246 -0.5572658,0.1472252 -0.1243533,0.071017 0.2339851,0.6527796 0.3771886,0.6527796 0.051795,0 0.1247677,-0.069489 0.1934613,-0.1636512 0.068745,0.094289 0.1422295,0.1636512 0.1940695,0.1636512 0.1432035,0 0.4998375,-0.5798772 0.3765802,-0.6527796 C 5.8470692,7.7036805 5.641722,7.657979 5.4406245,7.6614938 Z m -2.4316496,0.010336 c -0.2010985,0.00352 -0.3979572,0.056246 -0.5572658,0.1472253 -0.1243532,0.071017 0.2339852,0.6527796 0.3771886,0.6527796 0.051795,0 0.1247678,-0.069489 0.1934613,-0.1636512 0.068745,0.094289 0.1422296,0.1636512 0.1940696,0.1636512 0.1432035,0 0.4998375,-0.5798772 0.3765802,-0.6527796 C 3.4154196,7.7140227 3.2100724,7.6683213 3.0089749,7.671836 Z" /></svg>
