<?xml version="1.0" encoding="UTF-8" standalone="no"?>
<!-- Created with Inkscape (http://www.inkscape.org/) -->

<svg
   width="32"
   height="32"
   viewBox="0 0 8.4666666 8.4666666"
   version="1.1"
   id="svg8"
   inkscape:version="1.2.2 (732a01da63, 2022-12-09)"
   sodipodi:docname="tyrannosaurus-rex_sl.svg"
   inkscape:export-filename="D:\RxLab\src\RxOT\After-Effects\Duik\inc\oco\cow.png"
   inkscape:export-xdpi="36.000004"
   inkscape:export-ydpi="36.000004"
   xml:space="preserve"
   xmlns:inkscape="http://www.inkscape.org/namespaces/inkscape"
   xmlns:sodipodi="http://sodipodi.sourceforge.net/DTD/sodipodi-0.dtd"
   xmlns="http://www.w3.org/2000/svg"
   xmlns:svg="http://www.w3.org/2000/svg"
   xmlns:rdf="http://www.w3.org/1999/02/22-rdf-syntax-ns#"
   xmlns:cc="http://creativecommons.org/ns#"
   xmlns:dc="http://purl.org/dc/elements/1.1/"><defs
     id="defs2"><inkscape:path-effect
       effect="taper_stroke"
       id="path-effect879"
       is_visible="true"
       stroke_width="1.77"
       attach_start="1e-07"
       end_offset="1.0001633"
       smoothing="0.5"
       jointype="extrapolated"
       miter_limit="100" /><inkscape:path-effect
       effect="mirror_symmetry"
       start_point="4.2333333,0"
       end_point="4.2333333,8.4666667"
       center_point="4.2333333,4.2333333"
       id="path-effect897"
       is_visible="true"
       mode="vertical"
       discard_orig_path="false"
       fuse_paths="false"
       oposite_fuse="false" /><inkscape:path-effect
       effect="mirror_symmetry"
       start_point="4.2328811,1.6730093"
       end_point="4.2328811,6.1768975"
       center_point="4.2328811,3.9249534"
       id="path-effect862"
       is_visible="true"
       mode="free"
       discard_orig_path="false"
       fuse_paths="false"
       oposite_fuse="false" /><inkscape:path-effect
       effect="mirror_symmetry"
       start_point="4.2333333,0"
       end_point="4.2333333,8.4666667"
       center_point="4.2333333,4.2333333"
       id="path-effect858"
       is_visible="true"
       mode="vertical"
       discard_orig_path="false"
       fuse_paths="false"
       oposite_fuse="false" /><inkscape:path-effect
       effect="mirror_symmetry"
       start_point="4.2333333,0"
       end_point="4.2333333,8.4666667"
       center_point="4.2333333,4.2333333"
       id="path-effect854"
       is_visible="true"
       mode="vertical"
       discard_orig_path="false"
       fuse_paths="false"
       oposite_fuse="false" /><style
       id="style1399">.cls-1{fill:#e3e3e3;}</style><style
       id="style1399-4">.cls-1{fill:#e3e3e3;}</style><style
       id="style1399-8">.cls-1{fill:#e3e3e3;}</style><style
       id="style1399-4-5">.cls-1{fill:#e3e3e3;}</style><inkscape:path-effect
       oposite_fuse="false"
       fuse_paths="false"
       discard_orig_path="false"
       mode="vertical"
       is_visible="true"
       id="path-effect897-3"
       center_point="4.2333333,4.2333333"
       end_point="4.2333333,8.4666667"
       start_point="4.2333333,0"
       effect="mirror_symmetry" /><inkscape:path-effect
       oposite_fuse="false"
       fuse_paths="false"
       discard_orig_path="false"
       mode="free"
       is_visible="true"
       id="path-effect862-8"
       center_point="4.2328811,3.9249534"
       end_point="4.2328811,6.1768975"
       start_point="4.2328811,1.6730093"
       effect="mirror_symmetry" /><inkscape:path-effect
       oposite_fuse="false"
       fuse_paths="false"
       discard_orig_path="false"
       mode="vertical"
       is_visible="true"
       id="path-effect858-5"
       center_point="4.2333333,4.2333333"
       end_point="4.2333333,8.4666667"
       start_point="4.2333333,0"
       effect="mirror_symmetry" /><inkscape:path-effect
       oposite_fuse="false"
       fuse_paths="false"
       discard_orig_path="false"
       mode="vertical"
       is_visible="true"
       id="path-effect854-6"
       center_point="4.2333333,4.2333333"
       end_point="4.2333333,8.4666667"
       start_point="4.2333333,0"
       effect="mirror_symmetry" /><style
       id="style1399-1">.cls-1{fill:#e3e3e3;}</style><style
       id="style1399-4-1">.cls-1{fill:#e3e3e3;}</style><style
       id="style1399-8-5">.cls-1{fill:#e3e3e3;}</style><style
       id="style1399-4-5-9">.cls-1{fill:#e3e3e3;}</style></defs><sodipodi:namedview
     id="base"
     pagecolor="#ffffff"
     bordercolor="#666666"
     borderopacity="1.0"
     inkscape:pageopacity="0.0"
     inkscape:pageshadow="2"
     inkscape:zoom="8"
     inkscape:cx="23.75"
     inkscape:cy="7.8125"
     inkscape:document-units="mm"
     inkscape:current-layer="svg8"
     showgrid="false"
     units="px"
     inkscape:window-width="1706"
     inkscape:window-height="1080"
     inkscape:window-x="2628"
     inkscape:window-y="124"
     inkscape:window-maximized="0"
     inkscape:pagecheckerboard="0"
     inkscape:showpageshadow="0"
     inkscape:deskcolor="#d1d1d1"><sodipodi:guide
       position="8.4666666,0"
       orientation="-32,0"
       id="guide854"
       inkscape:locked="false" /><sodipodi:guide
       position="0,8.4666814"
       orientation="0,-32"
       id="guide856"
       inkscape:locked="false" /><sodipodi:guide
       position="0,8.4666814"
       orientation="32,0"
       id="guide858"
       inkscape:locked="false" /></sodipodi:namedview><metadata
     id="metadata5"><rdf:RDF><cc:Work
         rdf:about=""><dc:format>image/svg+xml</dc:format><dc:type
           rdf:resource="http://purl.org/dc/dcmitype/StillImage" /></cc:Work></rdf:RDF></metadata><path
     style="fill:#e3e3e3;fill-opacity:1;stroke-width:0.0137426"
     d="m 4.8344129,4.4301456 c 0.1314391,0.038209 0.2425183,0.060922 0.362795,0.078681 l -0.030114,0.059331 C 5.1175589,4.6657527 5.0110003,4.7859941 4.9740463,4.7859941 4.8435897,4.7481971 4.839069,4.5895375 4.8344129,4.4301456 Z"
     id="path1103"
     sodipodi:nodetypes="ccscc" /><path
     style="fill:#e3e3e3;fill-opacity:1;stroke-width:0.0137426"
     d="M 7.1407271,4.4541032 7.3843355,4.3380482 C 7.5429662,4.2624766 7.705045,4.135392 7.705045,4.135392 7.6282503,4.4353582 7.5477967,4.7250574 7.4368095,5.0106084 7.3829205,5.1118997 7.2871886,5.20933 7.2415491,5.20933 7.1405241,4.9242624 7.1553278,4.7430548 7.1407271,4.4541032 Z"
     id="path1101"
     sodipodi:nodetypes="cscccc" /><path
     style="fill:#e3e3e3;fill-opacity:1;stroke-width:0.0137426"
     d="M 5.5454445,5.408065 C 5.5295865,5.365281 5.5026165,4.5644834 5.5165365,4.5497268 c 0.1766388,0.052822 0.51819,0.022369 0.51819,0.022369 0,0 0.014661,0.00357 -0.1081942,0.3930874 -0.073126,0.2945026 -0.1572967,0.430755 -0.3810862,0.4428822 z"
     id="path1099"
     sodipodi:nodetypes="sccccs" /><path
     style="fill:#e3e3e3;fill-opacity:1;stroke-width:0.0137426"
     d="M 6.3733142,5.7726127 C 6.2562006,5.4080654 6.2591193,4.9846018 6.2518535,4.5886782 l 0.1538426,-0.011873 c 0.084613,-0.00653 0.2419522,-0.02803 0.3496421,-0.04777 C 6.8630287,4.5092958 6.9536908,4.4956765 6.9568115,4.4987729 6.8933875,4.9098559 6.7537953,5.3225938 6.5545796,5.6654817 6.477898,5.7550655 6.3733142,5.8114703 6.3733142,5.7726175 Z"
     id="path1097"
     sodipodi:nodetypes="ccssccsc" /><path
     style="fill:#e3e3e3;fill-opacity:1;stroke-width:0.0137426"
     d="M 4.3326487,5.489523 C 4.2749297,5.4498381 4.223362,5.4110405 4.2180528,5.4033099 4.207366,5.3877424 4.4558748,5.1685848 4.4792866,5.1729371 c 0.00808,0.0015 0.025552,0.020358 0.03881,0.041901 0.027786,0.045139 0.011846,0.1425109 -0.043315,0.2645686 l -0.037186,0.082272 z"
     id="path1095" /><path
     style="fill:#e3e3e3;fill-opacity:1;stroke-width:0.0137426"
     d="m 4.7314703,5.7408867 c -0.00337,-0.00292 0.067039,-0.096259 0.1564684,-0.2074135 0.089429,-0.1111574 0.1966344,-0.250352 0.2382338,-0.3093248 0.041599,-0.058973 0.081074,-0.1072251 0.087723,-0.1072251 0.00665,0 0.026332,0.015743 0.043746,0.034983 0.060994,0.067399 0.057683,0.1567906 -0.017397,0.4696036 -0.039241,0.1634932 -0.076082,0.2965108 -0.081871,0.295595 -0.1283874,-0.055972 -0.2449,-0.091621 -0.4269032,-0.1762182 z"
     id="path1093"
     sodipodi:nodetypes="ccsscscc" /><path
     style="fill:#e3e3e3;fill-opacity:1;stroke-width:0.0137426"
     d="m 5.7622343,6.1248907 -0.069059,-0.017377 0.036901,-0.086088 c 0.058829,-0.1372446 0.2407394,-0.436118 0.2729716,-0.4484867 0.038501,-0.014773 0.07412,0.035399 0.08942,0.1259546 0.00843,0.049826 -0.00346,0.1349238 -0.038805,0.2779937 -0.028015,0.1134031 -0.055944,0.2053192 -0.062064,0.2042592 -0.084253,-0.026726 -0.1370852,-0.033384 -0.2293646,-0.056256 z"
     id="path1091"
     sodipodi:nodetypes="ccsscscc" /><path
     style="fill:#e3e3e3;fill-opacity:1;stroke-width:0.0137426"
     d="M 6.5861123,6.400041 C 6.5348303,6.389267 6.4907793,6.379105 6.4882183,6.377428 6.4793883,6.371648 6.7109206,5.9484976 6.7381902,5.9206113 c 0.02429,-0.02484 0.030075,-0.024305 0.051665,0.00478 0.047298,0.063718 0.049017,0.1878593 0.00472,0.3426883 -0.046893,0.1639763 -0.049136,0.1653963 -0.208482,0.1319553 z"
     id="path1089" /><path
     id="path345"
     style="fill:#e3e3e3;fill-opacity:1;stroke-width:0.0137426"
     d="M 2.1776449 0.39842529 C 2.0711397 0.4005498 1.956897 0.41927984 1.8582845 0.45165202 C 1.5416727 0.55558832 1.2581597 0.86698841 1.0490316 1.3404867 L 0.98288574 1.4893148 L 0.90537109 1.5125692 C 0.70048905 1.5739409 0.46178112 1.8169442 0.31109212 2.118217 C 0.18959538 2.3611256 0.059717841 2.7959048 0.00051676432 3.1558797 C -0.034060801 4.2685301 -0.035371338 4.9165063 0.5286499 5.5572835 C 1.0926712 6.1980609 1.3383981 6.4104314 1.6753499 6.6502401 C 1.8209712 6.7538787 2.1061535 6.899237 2.2727295 6.955131 C 2.7212009 7.1056143 3.2123163 7.1260077 3.6886637 7.0140422 C 3.7785515 6.9929141 3.8571679 6.9850897 3.9770182 6.9851034 C 4.1774906 6.9851364 4.2886028 7.0103191 4.7469971 7.1597697 C 5.3420661 7.3537805 5.6963678 7.4212802 6.1210734 7.4212524 C 6.3982094 7.4212359 6.5071505 7.4010098 6.6734945 7.3194499 C 6.8673224 7.2244142 7.0145129 7.0591 7.1018921 6.8378255 C 7.1713436 6.6619496 7.1894391 6.6846555 6.9422119 6.6404215 C 6.5163048 6.564219 6.0577159 6.4450499 5.6347982 6.3003906 C 4.8796732 6.0421 4.2966152 5.7360084 3.8307739 5.3536784 C 3.7375022 5.2771282 3.6332765 5.200445 3.5992635 5.1831462 C 3.4603586 5.1124962 3.2189997 5.0601034 2.8365194 5.0177816 C 2.299991 4.9584147 2.046254 4.9156038 1.857251 4.852417 C 1.740128 4.8132607 1.6092803 4.7437402 1.5425415 4.6849854 C 1.498747 4.6464306 1.414384 4.5346535 1.414384 4.5154867 C 1.414384 4.5097407 1.4681373 4.5015231 1.5342733 4.4968831 C 2.0972606 4.4573889 2.380256 4.3736795 2.9713949 4.0726196 C 3.2898474 3.9104354 3.3643964 3.8837464 3.525883 3.8741821 C 3.7479937 3.8610272 3.9308505 3.8996339 4.4519246 4.069519 C 4.9892712 4.2447095 5.2598464 4.3012047 5.674589 4.3237671 C 6.5313971 4.370378 7.3857378 4.1020373 8.0248332 3.5858276 C 8.4083331 3.2696834 8.5649694 2.9834724 8.3199056 2.4070882 C 8.0748418 1.8307041 7.5792244 1.529984 6.5949463 1.4314372 C 6.3223367 1.4041422 6.0890746 1.3917565 5.4684001 1.3714925 C 4.6672615 1.3453361 3.9461359 1.0223711 3.6540405 0.97720133 C 3.6275857 0.97311425 3.5878319 0.96682468 3.5651571 0.9632487 L 3.5238159 0.95704753 L 3.5661906 0.99528809 C 3.7496316 1.1610662 4.2110038 1.5621079 4.3330688 1.6619141 C 4.4766956 1.7793499 4.4811426 1.7839987 4.4297038 1.7745687 C 4.2514551 1.7418991 3.9424786 1.6049018 3.7181193 1.4583089 C 3.6413222 1.4081308 3.5351489 1.4161221 3.4070272 1.2934611 C 2.9598386 0.86533242 2.6094421 0.44728028 2.3156209 0.40617676 C 2.2727525 0.40017976 2.2260562 0.39745961 2.1776449 0.39842529 z M 2.065507 1.2412679 C 2.1053095 1.2402914 2.1451441 1.2445453 2.1833293 1.2552205 C 2.3593238 1.3044227 3.165373 2.0812193 3.1517456 2.1884969 C 3.1442657 2.2473822 3.0405418 2.3950153 2.9574422 2.4649658 C 2.8734427 2.5356736 2.7531874 2.5915141 2.6494507 2.6075928 C 2.5211199 2.6274858 2.4840857 2.6261248 2.4696167 2.6008748 C 2.4152839 2.506054 2.3858325 2.1400912 2.4086385 1.839681 L 2.4246582 1.6324585 L 2.36368 1.6758667 C 2.2771387 1.737836 2.1203984 1.9069287 2.0624064 2.0009115 C 2.0352184 2.0449731 1.9956307 2.1345349 1.9740397 2.1998657 L 1.9347656 2.3187215 L 1.8887736 2.2324219 C 1.8220384 2.1075677 1.7677929 1.883833 1.7476969 1.6484782 C 1.7305201 1.4473783 1.7309249 1.4417911 1.7719849 1.3807943 C 1.8286937 1.2965518 1.9460997 1.2441976 2.065507 1.2412679 z M 6.6523071 2.2794474 C 6.6662433 2.2797036 6.6818383 2.2801615 6.6993327 2.2809977 C 6.8785486 2.2895705 6.9654103 2.3211341 7.0781209 2.4189738 C 7.1745537 2.5026827 7.2264917 2.5825893 7.2233317 2.6789062 C 7.220168 2.775223 7.0566292 2.8455212 6.8848511 2.7972453 C 6.7563297 2.7611258 6.6975979 2.733107 6.619751 2.670638 C 6.5031585 2.5770789 6.4639466 2.4719347 6.5065796 2.3688477 C 6.5379774 2.2929222 6.5547537 2.2776545 6.6523071 2.2794474 z " /></svg>
