<?xml version="1.0" encoding="UTF-8" standalone="no"?>
<svg
   xmlns:dc="http://purl.org/dc/elements/1.1/"
   xmlns:cc="http://creativecommons.org/ns#"
   xmlns:rdf="http://www.w3.org/1999/02/22-rdf-syntax-ns#"
   xmlns:svg="http://www.w3.org/2000/svg"
   xmlns="http://www.w3.org/2000/svg"
   xmlns:sodipodi="http://sodipodi.sourceforge.net/DTD/sodipodi-0.dtd"
   xmlns:inkscape="http://www.inkscape.org/namespaces/inkscape"
   viewBox="0 0 32973.582 33045.419"
   version="1.1"
   id="svg22"
   sodipodi:docname="duviews-icon.svg"
   width="264.59302"
   height="265.16946"
   inkscape:version="0.92.5 (2060ec1f9f, 2020-04-08)">
  <metadata
     id="metadata26">
    <rdf:RDF>
      <cc:Work
         rdf:about="">
        <dc:format>image/svg+xml</dc:format>
        <dc:type
           rdf:resource="http://purl.org/dc/dcmitype/StillImage" />
        <dc:title>Fichier 7</dc:title>
      </cc:Work>
    </rdf:RDF>
  </metadata>
  <sodipodi:namedview
     pagecolor="#ffffff"
     bordercolor="#666666"
     borderopacity="1"
     objecttolerance="10"
     gridtolerance="10"
     guidetolerance="10"
     inkscape:pageopacity="0"
     inkscape:pageshadow="2"
     inkscape:window-width="1920"
     inkscape:window-height="1025"
     id="namedview24"
     showgrid="false"
     inkscape:zoom="0.94687849"
     inkscape:cx="44.200616"
     inkscape:cy="3.2958512"
     inkscape:window-x="0"
     inkscape:window-y="27"
     inkscape:window-maximized="1"
     inkscape:current-layer="svg22"
     units="px"
     fit-margin-top="0"
     fit-margin-left="0"
     fit-margin-right="0"
     fit-margin-bottom="0" />
  <defs
     id="defs4">
    <style
       id="style2">.cls-1{fill:#e3e3e2;stroke:#701034;stroke-miterlimit:10;stroke-width:2px;}.cls-2{fill:#e52120;}.cls-3{fill:#701034;}</style>
  </defs>
  <title
     id="title6">Fichier 7</title>
  <path
     class="cls-2"
     d="m 3255.827,20827.037 a 825.49323,825.49323 0 0 1 846.003,-835.748 h 8424.132 a 820.36595,820.36595 0 0 1 804.984,835.748 v 8429.261 a 825.49323,825.49323 0 0 1 -825.492,830.624 h -1061.349 a 830.62051,830.62051 0 0 1 -825.495,-846.004 l 148.692,-4701.725 -7009,6998.75 a 825.49323,825.49323 0 0 1 -1169.022,0 l -779.348,-779.344 a 815.23866,815.23866 0 0 1 0,-1169.028 l 6998.748,-7003.866 -4706.85,143.558 a 825.49323,825.49323 0 0 1 -846.003,-825.492 z"
     id="path10"
     inkscape:connector-curvature="0"
     style="fill:#e52120;stroke-width:512.72869873" />
  <path
     class="cls-3"
     d="m 28589.753,1538.188 a 2845.6443,2845.6443 0 0 1 2845.644,2840.515 v 13274.546 a 2845.6443,2845.6443 0 0 1 -2845.644,2840.515 H 15315.207 A 2845.6443,2845.6443 0 0 1 12474.689,17653.249 V 4378.703 a 2845.6443,2845.6443 0 0 1 2840.518,-2840.515 h 13274.546 m 0,-1538.18499876 H 15315.207 A 4378.7033,4378.7033 0 0 0 10936.503,4378.703 v 13274.546 a 4383.8305,4383.8305 0 0 0 4378.704,4378.7 h 13274.546 a 4383.8305,4383.8305 0 0 0 4383.83,-4378.7 V 4378.703 A 4378.7033,4378.7033 0 0 0 28589.753,0.00300124 Z"
     id="path12"
     inkscape:connector-curvature="0"
     style="fill:#701034;stroke-width:512.72869873" />
  <path
     class="cls-3"
     d="m 20509.148,24595.596 v 4071.064 a 2840.5172,2840.5172 0 0 1 -2840.517,2840.515 H 4373.576 A 2840.5172,2840.5172 0 0 1 1538.187,28666.66 V 15392.114 A 2845.6443,2845.6443 0 0 1 4378.703,12551.599 H 8377.987 V 11013.414 H 4378.703 A 4378.7033,4378.7033 0 0 0 0,15392.114 V 28666.66 a 4378.7033,4378.7033 0 0 0 4378.703,4378.71 h 13269.418 a 4378.7033,4378.7033 0 0 0 4399.213,-4378.71 v -4071.064 z"
     id="path14"
     inkscape:connector-curvature="0"
     style="fill:#701034;stroke-width:512.72869873" />
  <path
     class="cls-3"
     d="m 18740.234,12413.164 -97.418,71.784 -2614.917,2143.203 -579.382,471.706 a 1497.1679,1497.1679 0 0 1 -799.857,353.786 1025.4574,1025.4574 0 0 1 -871.64,-282.002 830.62051,830.62051 0 0 1 -230.727,-512.731 1266.44,1266.44 0 0 1 348.654,-943.414 2620.0438,2620.0438 0 0 1 425.566,-364.041 l 3112.264,-2404.7 2707.206,-2050.907 46.147,-41.025 h -3342.993 a 1086.9849,1086.9849 0 0 1 -456.328,-76.907 671.67463,671.67463 0 0 1 -430.692,-512.731 697.31106,697.31106 0 0 1 107.673,-512.722 1163.8942,1163.8942 0 0 1 635.784,-487.096 1374.1129,1374.1129 0 0 1 476.839,-82.039 h 6665.472 l -51.273,-46.148 -2127.824,-1733.023 a 610.14717,610.14717 0 0 1 -230.728,-343.529 548.61973,548.61973 0 0 1 112.801,-476.83 974.18456,974.18456 0 0 1 553.747,-343.53 1138.2577,1138.2577 0 0 1 866.511,117.924 c 112.801,71.782 220.473,164.078 328.147,246.109 l 3317.353,2563.647 1656.115,1271.563 a 5388.7789,5388.7789 0 0 1 1707.387,2132.955 5050.3778,5050.3778 0 0 1 389.674,2050.916 4876.0501,4876.0501 0 0 1 -389.674,1809.931 5291.3603,5291.3603 0 0 1 -1430.514,1953.496 5932.2712,5932.2712 0 0 1 -2050.914,1163.897 6075.8353,6075.8353 0 0 1 -1086.985,251.233 6721.8734,6721.8734 0 0 1 -1199.785,56.403 c -199.965,0 -399.929,-30.768 -594.765,-56.403 a 5809.2164,5809.2164 0 0 1 -1179.277,-282.001 5973.2895,5973.2895 0 0 1 -1866.333,-1025.454 5327.2513,5327.2513 0 0 1 -1425.386,-1825.319 4168.4845,4168.4845 0 0 1 -394.801,-1256.183 3281.4638,3281.4638 0 0 1 -41.018,-440.948 c 0,-158.946 0,-312.76 35.891,-466.583 -5.127,-51.271 0,-66.651 0,-92.287 z m 2194.48,-302.512 c 0,92.295 0,225.605 30.763,358.907 a 1574.0771,1574.0771 0 0 0 35.891,215.351 3076.3724,3076.3724 0 0 0 651.165,1322.843 3522.4463,3522.4463 0 0 0 1661.242,1107.493 3973.6475,3973.6475 0 0 0 1389.495,179.449 4014.6659,4014.6659 0 0 0 697.311,-102.542 3522.4463,3522.4463 0 0 0 1979.132,-1215.168 3014.8448,3014.8448 0 0 0 697.311,-1794.551 2866.1535,2866.1535 0 0 0 -87.163,-861.383 3117.3906,3117.3906 0 0 0 -1112.622,-1692.008 3696.7741,3696.7741 0 0 0 -2297.025,-815.235 3548.0827,3548.0827 0 0 0 -958.803,102.543 3589.1011,3589.1011 0 0 0 -1748.405,958.801 3076.3724,3076.3724 0 0 0 -938.292,2235.5 z"
     id="path16"
     inkscape:connector-curvature="0"
     style="fill:#701034;stroke-width:512.72869873" />
  <path
     class="cls-3"
     d="m 24539.196,9905.921 a 2409.8249,2409.8249 0 0 1 1722.769,666.545 1897.0963,1897.0963 0 0 1 569.129,1112.626 1850.9506,1850.9506 0 0 1 -425.566,1497.161 2409.8249,2409.8249 0 0 1 -2050.914,825.5 2317.5339,2317.5339 0 0 1 -1589.459,-830.624 1912.4781,1912.4781 0 0 1 230.728,-2671.313 2256.0063,2256.0063 0 0 1 1215.168,-574.259 c 112.798,-10.256 246.109,-15.379 328.145,-25.636 z"
     id="path18"
     inkscape:connector-curvature="0"
     style="fill:#701034;stroke-width:512.72869873" />
</svg>
