<?xml version="1.0" encoding="utf-8"?>
<svg width="32" height="32" viewBox="0 0 8.4666666 8.4666666" version="1.1" id="svg8" xmlns="http://www.w3.org/2000/svg">
  <defs id="defs2">
    <style id="style1399">.cls-1{fill:#e3e3e3;}</style>
  </defs>
  <path class="cls-2" d="M 3.415 5.051 L 2.097 5.051 L 1.829 5.889 C 1.822 5.92 1.793 5.941 1.761 5.94 L 1.094 5.94 C 1.056 5.94 1.044 5.919 1.054 5.877 L 2.194 2.594 C 2.206 2.56 2.218 2.527 2.229 2.483 C 2.244 2.406 2.25 2.328 2.251 2.251 C 2.248 2.228 2.267 2.207 2.292 2.21 L 3.198 2.21 C 3.225 2.21 3.24 2.22 3.244 2.24 L 4.538 5.883 C 4.55 5.921 4.538 5.94 4.504 5.94 L 3.763 5.94 C 3.737 5.943 3.712 5.926 3.706 5.9 L 3.415 5.051 Z M 2.304 4.345 L 3.205 4.345 C 3.181 4.269 3.155 4.183 3.124 4.089 C 3.093 3.992 3.061 3.891 3.027 3.782 C 2.993 3.674 2.959 3.564 2.925 3.456 C 2.89 3.347 2.859 3.243 2.83 3.141 C 2.802 3.04 2.777 2.947 2.754 2.864 L 2.749 2.864 C 2.716 3.018 2.675 3.17 2.629 3.322 C 2.574 3.493 2.519 3.669 2.466 3.848 C 2.411 4.026 2.357 4.193 2.304 4.345 Z M 6.637 4.725 L 5.514 4.725 C 5.527 4.836 5.563 4.945 5.622 5.04 C 5.686 5.136 5.776 5.21 5.882 5.254 C 6.025 5.318 6.18 5.348 6.334 5.345 C 6.459 5.342 6.581 5.329 6.703 5.305 C 6.811 5.29 6.918 5.261 7.019 5.22 C 7.039 5.205 7.047 5.215 7.047 5.249 L 7.047 5.793 C 7.048 5.808 7.045 5.823 7.04 5.836 C 7.032 5.846 7.024 5.855 7.014 5.862 C 6.901 5.912 6.78 5.948 6.66 5.967 C 6.495 5.998 6.326 6.013 6.157 6.01 C 5.888 6.01 5.663 5.968 5.479 5.885 C 5.308 5.808 5.154 5.694 5.034 5.547 C 4.923 5.41 4.84 5.25 4.79 5.081 C 4.739 4.913 4.715 4.738 4.715 4.563 C 4.715 4.371 4.745 4.181 4.804 3.999 C 4.861 3.821 4.951 3.658 5.069 3.513 C 5.187 3.371 5.331 3.256 5.496 3.175 C 5.664 3.093 5.861 3.064 6.09 3.064 C 6.279 3.059 6.467 3.096 6.64 3.172 C 6.786 3.236 6.914 3.332 7.014 3.456 C 7.106 3.576 7.177 3.714 7.224 3.859 C 7.27 3.999 7.293 4.147 7.294 4.294 C 7.294 4.377 7.291 4.455 7.285 4.523 C 7.279 4.591 7.275 4.641 7.271 4.672 C 7.268 4.698 7.245 4.717 7.219 4.717 C 7.196 4.717 7.157 4.72 7.101 4.726 C 7.046 4.732 6.978 4.735 6.897 4.737 C 6.815 4.739 6.728 4.725 6.637 4.725 Z M 5.514 4.204 L 6.261 4.204 C 6.351 4.204 6.421 4.203 6.464 4.201 C 6.493 4.198 6.521 4.189 6.547 4.174 L 6.547 4.14 C 6.544 4.095 6.537 4.051 6.523 4.007 C 6.461 3.807 6.271 3.674 6.062 3.682 C 5.864 3.671 5.681 3.775 5.592 3.95 C 5.55 4.031 5.524 4.116 5.514 4.204 Z M 0 2.109 L 0 6.358 C 0 7.471 0.898 8.373 2.009 8.373 L 6.454 8.373 C 7.563 8.373 8.462 7.471 8.462 6.358 L 8.462 2.109 C 8.462 0.995 7.563 0.094 6.454 0.094 L 2.009 0.094 C 0.898 0.094 0 0.995 0 2.109 Z" style="fill: rgb(227, 227, 227);"/>
</svg>