<?xml version="1.0" encoding="utf-8"?>
<svg width="32" height="32" viewBox="0 0 8.4666666 8.4666666" version="1.1" id="svg8" xmlns="http://www.w3.org/2000/svg">
  <defs id="defs2">
    <style id="style1399">.cls-1{fill:#e3e3e3;}</style>
  </defs>
  <path d="M 6.625 4.474 C 6.621 3.78 6.934 3.257 7.57 2.871 C 7.214 2.363 6.678 2.083 5.969 2.028 C 5.298 1.975 4.564 2.419 4.296 2.419 C 4.012 2.419 3.362 2.047 2.852 2.047 C 1.797 2.064 0.676 2.888 0.676 4.565 C 0.676 5.06 0.767 5.572 0.948 6.1 C 1.19 6.793 2.063 8.495 2.974 8.466 C 3.451 8.455 3.787 8.128 4.407 8.128 C 5.008 8.128 5.32 8.466 5.851 8.466 C 6.77 8.453 7.56 6.907 7.791 6.211 C 6.558 5.631 6.625 4.51 6.625 4.474 Z M 5.555 1.37 C 6.071 0.758 6.023 0.2 6.008 0 C 5.553 0.026 5.025 0.31 4.725 0.66 C 4.394 1.034 4.199 1.497 4.241 2.019 C 4.734 2.056 5.184 1.803 5.555 1.37 Z" style="fill: rgb(227, 227, 227);"/>
</svg>