<?xml version="1.0" encoding="UTF-8" standalone="no"?>
<svg
   xmlns:dc="http://purl.org/dc/elements/1.1/"
   xmlns:cc="http://creativecommons.org/ns#"
   xmlns:rdf="http://www.w3.org/1999/02/22-rdf-syntax-ns#"
   xmlns:svg="http://www.w3.org/2000/svg"
   xmlns="http://www.w3.org/2000/svg"
   xmlns:sodipodi="http://sodipodi.sourceforge.net/DTD/sodipodi-0.dtd"
   xmlns:inkscape="http://www.inkscape.org/namespaces/inkscape"
   width="32"
   height="32"
   viewBox="0 0 8.4666668 8.4666669"
   version="1.1"
   id="svg8"
   inkscape:version="1.0.2-2 (e86c870879, 2021-01-15)"
   sodipodi:docname="github_sd.svg">
  <defs
     id="defs2">
    <style
       id="style1399">.cls-1{fill:#e3e3e3;}</style>
  </defs>
  <sodipodi:namedview
     id="base"
     pagecolor="#ffffff"
     bordercolor="#666666"
     borderopacity="1.0"
     inkscape:pageopacity="0.0"
     inkscape:pageshadow="2"
     inkscape:zoom="8.0000004"
     inkscape:cx="-11.897942"
     inkscape:cy="24.462431"
     inkscape:document-units="px"
     inkscape:current-layer="svg8"
     showgrid="false"
     units="px"
     inkscape:window-width="3378"
     inkscape:window-height="1417"
     inkscape:window-x="973"
     inkscape:window-y="-8"
     inkscape:window-maximized="1"
     inkscape:document-rotation="0"
     inkscape:snap-bbox="true"
     inkscape:bbox-paths="true"
     inkscape:bbox-nodes="true"
     inkscape:snap-bbox-edge-midpoints="true"
     inkscape:snap-bbox-midpoints="true"
     inkscape:snap-nodes="false">
    <sodipodi:guide
       position="8.4666666,0"
       orientation="-32,0"
       id="guide854"
       inkscape:locked="false" />
    <sodipodi:guide
       position="8.4666666,8.4666666"
       orientation="0,-32"
       id="guide856"
       inkscape:locked="false" />
    <sodipodi:guide
       position="0,8.4666814"
       orientation="32,0"
       id="guide858"
       inkscape:locked="false" />
  </sodipodi:namedview>
  <metadata
     id="metadata5">
    <rdf:RDF>
      <cc:Work
         rdf:about="">
        <dc:format>image/svg+xml</dc:format>
        <dc:type
           rdf:resource="http://purl.org/dc/dcmitype/StillImage" />
        <dc:title></dc:title>
      </cc:Work>
    </rdf:RDF>
  </metadata>
  <path
     style="fill:#232323;fill-opacity:1;stroke:none;stroke-width:0.0386502px;stroke-linecap:butt;stroke-linejoin:miter;stroke-opacity:1"
     d="M 4.2333333,0 C 1.8944167,0 0,1.8944167 0,4.2333333 0,6.1065833 1.2117917,7.6887917 2.8945417,8.2497083 3.1062083,8.28675 3.1855833,8.15975 3.1855833,8.048625 c 0,-0.1005417 -0.00529,-0.4339167 -0.00529,-0.7884583 C 2.1166667,7.4559583 1.8415,7.000875 1.7568333,6.76275 1.7092083,6.6410417 1.5028333,6.2653333 1.3229167,6.1647917 1.17475,6.0854167 0.96308333,5.889625 1.317625,5.8843333 1.651,5.8790417 1.889125,6.19125 1.9685,6.31825 2.3495,6.9585417 2.9580417,6.778625 3.2014583,6.6675 3.2385,6.3923333 3.349625,6.207125 3.4713333,6.1012917 2.5294167,5.9954583 1.5451667,5.6303333 1.5451667,4.0110833 c 0,-0.460375 0.1640416,-0.841375 0.4339166,-1.1377083 -0.042333,-0.1058333 -0.1905,-0.53975 0.042333,-1.1218333 0,0 0.3545416,-0.111125 1.1641666,0.4339166 0.3386667,-0.09525 0.6985,-0.142875 1.0583334,-0.142875 0.3598333,0 0.7196666,0.047625 1.0583333,0.142875 0.809625,-0.5503333 1.1641667,-0.4339166 1.1641667,-0.4339166 0.2328333,0.5820833 0.084667,1.016 0.042333,1.1218333 0.269875,0.2963333 0.4339167,0.6720417 0.4339167,1.1377083 0,1.6245417 -0.9895417,1.984375 -1.9314584,2.0902084 0.1534584,0.1322916 0.28575,0.3862916 0.28575,0.7831666 0,0.5662084 -0.00529,1.0212917 -0.00529,1.1641667 0,0.111125 0.079375,0.2434167 0.2910416,0.2010833 A 4.2402125,4.2402125 0 0 0 8.4666667,4.2333333 C 8.4666667,1.8944167 6.57225,0 4.2333333,0 Z"
     id="path834" />
</svg>
