<?xml version="1.0" encoding="utf-8"?>
<svg width="32" height="32" viewBox="0 0 8.4666666 8.4666666" version="1.1" id="svg8" xmlns="http://www.w3.org/2000/svg">
  <defs id="defs2">
    <style id="style1399">.cls-1{fill:#e3e3e3;}</style>
  </defs>
  <path d="M 3.478 3.167 C 3.604 3.564 3.964 3.754 4.211 3.744 C 4.458 3.734 4.505 3.544 4.505 3.352 C 4.505 3.17 4.362 3 4.362 3 C 4.362 3 3.875 3.211 3.478 3.167 Z M 5.961 7.757 C 5.7 8.287 5.142 7.897 5.142 7.897 C 5.142 7.897 5.313 8.218 5.802 8.244 C 5.153 8.598 4.725 7.873 4.725 7.873 C 4.725 7.873 4.813 8.315 5.034 8.426 C 4.271 8.325 4.16 7.741 4.148 7.492 C 3.822 7.278 3.506 6.922 3.239 6.629 C 2.411 5.721 2.416 4.667 2.416 4.667 C 2.416 4.667 1.339 5.389 0.7 5.155 C 1.091 4.784 1.446 4.381 1.465 3.948 C 0.909 3.97 -0.003 3.469 -0.006 1.983 C -0.009 0.497 1.189 0.109 1.774 0.087 C 2.359 0.065 2.588 0.138 2.949 0.349 C 3.31 0.56 3.458 0.417 3.458 0.417 C 3.458 0.417 3.544 0.733 3.058 0.797 C 2.572 0.861 2.416 0.564 1.664 0.876 C 0.886 1.198 0.762 2.373 1.315 2.602 C 2.047 2.905 2.302 1.142 3.577 1.142 C 4.096 1.142 4.492 1.56 4.492 1.56 C 4.492 1.56 4.776 1.17 5.367 1.157 C 6.273 1.137 6.712 2.801 7.22 2.591 C 7.598 2.434 7.735 1.644 7.231 1.086 C 6.727 0.528 6.381 0.832 5.952 0.832 C 5.277 0.832 5.384 0.475 5.384 0.475 C 5.384 0.475 5.472 0.599 5.643 0.511 C 5.814 0.423 6.277 0.021 6.943 0.167 C 7.609 0.313 8.477 0.563 8.462 2.144 C 8.447 3.725 7.171 3.844 7.171 3.844 C 7.171 3.844 7.268 4.207 7.476 4.034 C 7.453 4.908 5.968 3.959 5.968 3.959 C 5.968 3.959 6.006 4.041 6.022 4.27 C 6.038 4.499 6.184 4.488 6.423 4.426 C 6.662 4.364 6.669 4.79 6.656 5.003 C 6.643 5.216 6.222 5.486 6.222 5.486 C 6.222 5.486 6.314 5.592 6.467 5.731 C 6.576 5.83 6.365 5.969 6.229 6.04 C 6.072 5.989 5.907 5.954 5.753 5.957 C 5.376 5.972 5.107 6.061 4.868 6.024 C 4.498 5.987 4.384 5.75 4.384 5.75 C 4.363 5.713 4.318 5.7 4.282 5.72 C 4.245 5.74 4.232 5.786 4.252 5.822 C 4.252 5.822 4.422 6.097 4.848 6.172 C 5.119 6.207 5.402 6.118 5.759 6.107 C 5.879 6.101 6.013 6.125 6.146 6.163 C 6.172 6.27 6.199 6.458 6.069 6.566 C 5.878 6.725 5.619 6.466 5.522 6.805 C 5.466 6.999 5.714 7.037 5.592 7.266 C 5.516 7.41 5.43 7.497 5.246 7.566 C 5.324 7.766 5.511 7.958 5.961 7.757 Z M 5.131 2.974 C 5.131 2.974 5.086 3.27 5.228 3.477 C 5.368 3.681 5.542 3.769 5.707 3.74 C 5.872 3.711 5.958 3.568 5.979 3.447 C 6.001 3.322 5.982 3.127 5.904 3.05 C 5.652 3.103 5.131 2.974 5.131 2.974 Z M 5.319 5.261 C 5.319 4.893 5.238 4.641 4.993 4.568 C 4.826 4.518 4.55 4.663 4.546 4.837 C 4.544 4.952 4.627 5.064 4.837 5.028 C 4.942 5.01 4.962 4.854 4.962 4.854 C 4.962 4.854 5.123 4.805 5.319 5.261 Z" style="fill: rgb(35, 35, 35);"/>
  <path d="M 6.92 6.443 C 6.92 6.443 6.252 6.015 5.756 6.032 C 5.389 6.045 5.113 6.134 4.858 6.098 C 4.46 6.042 4.318 5.786 4.318 5.786" style="fill: none; stroke-linecap: round; stroke-width: 0.15px;"/>
  <path d="M 6.923 6.518 C 6.964 6.517 6.996 6.482 6.995 6.44 C 6.994 6.399 6.959 6.367 6.917 6.368 C 6.917 6.368 6.939 6.374 6.917 6.368 C 6.917 6.368 6.271 5.946 5.753 5.957 C 5.376 5.972 5.107 6.061 4.868 6.024 C 4.498 5.987 4.384 5.75 4.384 5.75 C 4.363 5.713 4.318 5.7 4.282 5.72 C 4.245 5.74 4.232 5.786 4.252 5.822 C 4.252 5.822 4.422 6.097 4.848 6.172 C 5.119 6.207 5.402 6.118 5.759 6.107 C 6.233 6.084 6.923 6.518 6.923 6.518 C 6.901 6.512 6.923 6.518 6.923 6.518 Z" style="fill: none;"/>
</svg>