<?xml version="1.0" encoding="utf-8"?>
<svg width="32" height="32" viewBox="0 0 8.4666666 8.4666666" version="1.1" id="svg8" xmlns="http://www.w3.org/2000/svg">
  <defs id="defs2">
    <style id="style1399">.cls-1{fill:#e3e3e3;}</style>
  </defs>
  <path d="M 4.882 4.162 C 4.502 3.668 3.861 3.684 3.452 4.175 C 2.604 5.194 2.312 5.604 2.312 6.343 C 2.312 7.365 3.094 8.131 4.233 8.131 C 5.372 8.131 5.973 7.3 5.973 6.403 C 5.973 5.582 5.583 5.073 4.882 4.162 Z M 5.054 2.689 C 5.201 2.621 4.98 2.432 4.902 2.404 C 4.677 2.324 4.412 2.281 4.181 2.287 C 3.983 2.292 3.802 2.347 3.626 2.418 C 3.508 2.466 3.291 2.636 3.412 2.689 C 3.775 2.847 4.019 3.115 4.019 3.115 C 4.162 3.272 4.304 3.272 4.447 3.115 C 4.447 3.115 4.682 2.862 5.054 2.689 Z M 6.967 5.897 C 6.967 7.464 5.743 8.467 4.233 8.467 C 2.723 8.467 1.499 7.464 1.499 5.897 C 1.499 4.174 2.502 3.575 2.707 2.553 C 2.833 1.928 2.754 1.548 2.754 1.548 C 2.754 0.675 3.139 0 4.078 0 L 4.401 0 C 5.272 0 5.689 0.534 5.689 1.548 C 5.689 1.548 5.625 1.833 5.76 2.485 C 5.965 3.48 6.967 3.72 6.967 5.897 Z M 4.365 1.574 C 4.335 1.865 4.511 2.057 4.756 2.082 C 5.002 2.107 5.225 1.956 5.254 1.665 C 5.284 1.376 5.109 1.056 4.864 1.031 C 4.618 1.006 4.394 1.285 4.365 1.574 Z M 3.594 1.031 C 3.348 1.056 3.173 1.375 3.203 1.665 C 3.232 1.955 3.455 2.107 3.701 2.081 C 3.946 2.056 4.122 1.865 4.092 1.574 C 4.063 1.285 3.839 1.006 3.594 1.031 Z" style="fill: rgb(213, 213, 213);"/>
</svg>