<?xml version="1.0" encoding="UTF-8" standalone="no"?>
<svg
   width="32"
   height="32"
   viewBox="0 0 8.4666666 8.4666666"
   version="1.1"
   id="svg8"
   inkscape:version="1.1.1 (3bf5ae0d25, 2021-09-20)"
   sodipodi:docname="oco_sd.svg"
   inkscape:export-filename="C:\Users\duduf\Desktop\bitmap.png"
   inkscape:export-xdpi="48.000004"
   inkscape:export-ydpi="48.000004"
   xmlns:inkscape="http://www.inkscape.org/namespaces/inkscape"
   xmlns:sodipodi="http://sodipodi.sourceforge.net/DTD/sodipodi-0.dtd"
   xmlns="http://www.w3.org/2000/svg"
   xmlns:svg="http://www.w3.org/2000/svg"
   xmlns:rdf="http://www.w3.org/1999/02/22-rdf-syntax-ns#"
   xmlns:cc="http://creativecommons.org/ns#"
   xmlns:dc="http://purl.org/dc/elements/1.1/">
  <defs
     id="defs2">
    <style
       id="style1399">.cls-1{fill:#e3e3e3;}</style>
    <style
       id="style1399-4">.cls-1{fill:#e3e3e3;}</style>
    <style
       id="style1399-8">.cls-1{fill:#e3e3e3;}</style>
    <style
       id="style1399-4-5">.cls-1{fill:#e3e3e3;}</style>
    <style
       id="style1399-0">.cls-1{fill:#e3e3e3;}</style>
    <style
       id="style854">.cls-1{fill:#e3e3e3;}</style>
    <style
       id="style1399-84">.cls-1{fill:#e3e3e3;}</style>
    <style
       id="style1399-4-8">.cls-1{fill:#e3e3e3;}</style>
    <style
       id="style1399-8-10">.cls-1{fill:#e3e3e3;}</style>
    <style
       id="style1399-4-5-3">.cls-1{fill:#e3e3e3;}</style>
    <style
       id="style1399-0-0">.cls-1{fill:#e3e3e3;}</style>
    <style
       id="style1399-5">.cls-1{fill:#e3e3e3;}</style>
    <style
       id="style1399-4-6">.cls-1{fill:#e3e3e3;}</style>
    <style
       id="style1399-8-1">.cls-1{fill:#e3e3e3;}</style>
    <style
       id="style1399-4-5-1">.cls-1{fill:#e3e3e3;}</style>
    <style
       id="style1399-0-5">.cls-1{fill:#e3e3e3;}</style>
    <style
       id="style1257">.cls-1{fill:#e3e3e3;}</style>
    <style
       id="style1387">.cls-1{fill:#e3e3e3;}</style>
    <style
       id="style1399-59">.cls-1{fill:#e3e3e3;}</style>
    <style
       id="style1399-89">.cls-1{fill:#e3e3e3;}</style>
    <style
       id="style1399-4-64">.cls-1{fill:#e3e3e3;}</style>
    <style
       id="style1399-8-3">.cls-1{fill:#e3e3e3;}</style>
    <style
       id="style1399-4-5-33">.cls-1{fill:#e3e3e3;}</style>
    <style
       id="style1399-0-8">.cls-1{fill:#e3e3e3;}</style>
    <style
       id="style1399-7">.cls-1{fill:#e3e3e3;}</style>
    <style
       id="style1399-4-7">.cls-1{fill:#e3e3e3;}</style>
    <style
       id="style1399-8-6">.cls-1{fill:#e3e3e3;}</style>
    <style
       id="style1399-4-5-4">.cls-1{fill:#e3e3e3;}</style>
    <style
       id="style1399-0-3">.cls-1{fill:#e3e3e3;}</style>
    <style
       id="style1399-05">.cls-1{fill:#e3e3e3;}</style>
    <style
       id="style1399-4-9">.cls-1{fill:#e3e3e3;}</style>
    <style
       id="style1399-8-4">.cls-1{fill:#e3e3e3;}</style>
    <style
       id="style1399-4-5-6">.cls-1{fill:#e3e3e3;}</style>
    <style
       id="style1399-0-9">.cls-1{fill:#e3e3e3;}</style>
    <style
       id="style854-2">.cls-1{fill:#e3e3e3;}</style>
    <style
       id="style1399-84-2">.cls-1{fill:#e3e3e3;}</style>
    <style
       id="style1399-4-8-4">.cls-1{fill:#e3e3e3;}</style>
    <style
       id="style1399-8-10-7">.cls-1{fill:#e3e3e3;}</style>
    <style
       id="style1399-4-5-3-7">.cls-1{fill:#e3e3e3;}</style>
    <style
       id="style1399-0-0-5">.cls-1{fill:#e3e3e3;}</style>
    <style
       id="style1399-5-4">.cls-1{fill:#e3e3e3;}</style>
    <style
       id="style1399-4-6-8">.cls-1{fill:#e3e3e3;}</style>
    <style
       id="style1399-8-1-1">.cls-1{fill:#e3e3e3;}</style>
    <style
       id="style1399-4-5-1-2">.cls-1{fill:#e3e3e3;}</style>
    <style
       id="style1399-0-5-8">.cls-1{fill:#e3e3e3;}</style>
    <style
       id="style1257-9">.cls-1{fill:#e3e3e3;}</style>
    <style
       id="style1387-3">.cls-1{fill:#e3e3e3;}</style>
    <style
       id="style1399-59-6">.cls-1{fill:#e3e3e3;}</style>
    <style
       id="style1399-89-8">.cls-1{fill:#e3e3e3;}</style>
    <style
       id="style1399-4-64-0">.cls-1{fill:#e3e3e3;}</style>
    <style
       id="style1399-8-3-2">.cls-1{fill:#e3e3e3;}</style>
    <style
       id="style1399-4-5-33-1">.cls-1{fill:#e3e3e3;}</style>
    <style
       id="style1399-0-8-0">.cls-1{fill:#e3e3e3;}</style>
  </defs>
  <sodipodi:namedview
     id="base"
     pagecolor="#ffffff"
     bordercolor="#666666"
     borderopacity="1.0"
     inkscape:pageopacity="0.0"
     inkscape:pageshadow="2"
     inkscape:zoom="22.627416"
     inkscape:cx="12.263884"
     inkscape:cy="14.164233"
     inkscape:document-units="mm"
     inkscape:current-layer="svg8"
     showgrid="false"
     units="px"
     inkscape:window-width="3440"
     inkscape:window-height="1369"
     inkscape:window-x="-8"
     inkscape:window-y="-8"
     inkscape:window-maximized="1"
     inkscape:snap-bbox="true"
     inkscape:bbox-paths="true"
     inkscape:bbox-nodes="true"
     inkscape:snap-bbox-edge-midpoints="true"
     inkscape:snap-bbox-midpoints="true"
     inkscape:snap-nodes="true"
     inkscape:snap-others="true"
     inkscape:snap-object-midpoints="true"
     inkscape:snap-page="true"
     inkscape:document-rotation="0"
     inkscape:pagecheckerboard="0">
    <sodipodi:guide
       position="8.4666666,0"
       orientation="-32,0"
       id="guide854"
       inkscape:locked="false" />
    <sodipodi:guide
       position="8.4666666,8.4666666"
       orientation="0,-32"
       id="guide856"
       inkscape:locked="false" />
    <sodipodi:guide
       position="0,8.4666814"
       orientation="32,0"
       id="guide858"
       inkscape:locked="false" />
  </sodipodi:namedview>
  <metadata
     id="metadata5">
    <rdf:RDF>
      <cc:Work
         rdf:about="">
        <dc:format>image/svg+xml</dc:format>
        <dc:type
           rdf:resource="http://purl.org/dc/dcmitype/StillImage" />
      </cc:Work>
    </rdf:RDF>
  </metadata>
  <path
     id="path1638"
     style="opacity:1;fill:#232323;fill-opacity:1;stroke:none;stroke-width:3.36416;stroke-linecap:butt;stroke-linejoin:miter;stroke-miterlimit:4;stroke-dasharray:none;stroke-dashoffset:0;stroke-opacity:1"
     d="M 16 0 A 4.1844129 4.1844129 0 0 0 11.816406 4.1835938 A 4.1844129 4.1844129 0 0 0 16 8.3691406 A 4.1844129 4.1844129 0 0 0 20.183594 4.1835938 A 4.1844129 4.1844129 0 0 0 16 0 z M 16 1.6230469 C 16.654506 1.6230469 17.309323 1.8754713 17.808594 2.375 C 18.807649 3.3735386 18.807649 4.9916942 17.808594 5.9902344 C 16.810054 6.9892886 15.189946 6.9892886 14.191406 5.9902344 C 13.192351 4.9916945 13.192353 3.3735392 14.191406 2.375 C 14.690677 1.8754725 15.345491 1.6230469 16 1.6230469 z M 16 3.1210938 C 15.728842 3.1210938 15.458799 3.2266461 15.251953 3.4335938 C 14.838051 3.847285 14.838051 4.5179521 15.251953 4.9316406 C 15.665644 5.3455424 16.334356 5.3455424 16.748047 4.9316406 C 17.161949 4.5179494 17.161949 3.8472835 16.748047 3.4335938 C 16.541197 3.2266397 16.271161 3.1210937 16 3.1210938 z M 1.8125 9.7226562 C 0.80837504 9.7226562 -1.4802974e-16 10.531031 0 11.535156 L 0 12.957031 L 0 12.980469 L 0 14.189453 C 0 15.193582 0.80837504 16.001953 1.8125 16.001953 L 12.109375 16.001953 C 12.364493 16.001953 12.606374 15.949783 12.826172 15.855469 C 13.31525 15.71329 13.778483 15.463706 14.164062 15.078125 C 15.385681 13.856508 15.385681 11.875915 14.164062 10.654297 C 13.786747 10.276978 13.334829 10.030954 12.857422 9.8867188 C 12.628966 9.7832062 12.377362 9.7226562 12.109375 9.7226562 L 1.8125 9.7226562 z M 19.890625 9.7226562 C 19.622638 9.7226562 19.371035 9.783205 19.142578 9.8867188 C 18.665171 10.030954 18.213255 10.276979 17.835938 10.654297 C 16.614319 11.875915 16.614319 13.856508 17.835938 15.078125 C 18.221517 15.463706 18.68475 15.713294 19.173828 15.855469 C 19.393626 15.949783 19.635507 16.001953 19.890625 16.001953 L 30.1875 16.001953 C 31.191625 16.001953 32 15.193578 32 14.189453 L 32 12.980469 L 32 12.957031 L 32 11.535156 C 32 10.53103 31.191625 9.7226562 30.1875 9.7226562 L 19.890625 9.7226562 z M 11.929688 10.972656 A 1.9013674 1.9013674 0 0 1 13.830078 12.875 A 1.9013674 1.9013674 0 0 1 11.929688 14.775391 A 1.9013674 1.9013674 0 0 1 10.027344 12.875 A 1.9013674 1.9013674 0 0 1 11.929688 10.972656 z M 20.070312 10.972656 A 1.9013674 1.9013674 0 0 1 21.972656 12.875 A 1.9013674 1.9013674 0 0 1 20.070312 14.775391 A 1.9013674 1.9013674 0 0 1 18.169922 12.875 A 1.9013674 1.9013674 0 0 1 20.070312 10.972656 z M 12.703125 16.919922 C 11.902572 16.919922 11.101043 17.225128 10.490234 17.835938 C 10.104653 18.221517 9.8550651 18.68475 9.7128906 19.173828 C 9.6185763 19.393626 9.5664062 19.635507 9.5664062 19.890625 L 9.5664062 30.1875 C 9.5664062 31.191625 10.374781 32 11.378906 32 L 12.587891 32 L 12.611328 32 L 14.033203 32 C 15.037329 32 15.845703 31.191625 15.845703 30.1875 L 15.845703 19.890625 C 15.845703 19.622638 15.785154 19.371035 15.681641 19.142578 C 15.537405 18.665171 15.29138 18.213255 14.914062 17.835938 C 14.303253 17.225128 13.503678 16.919922 12.703125 16.919922 z M 19.289062 16.919922 C 18.48851 16.919922 17.688934 17.225128 17.078125 17.835938 C 16.692544 18.221517 16.442956 18.68475 16.300781 19.173828 C 16.206467 19.393626 16.154297 19.635507 16.154297 19.890625 L 16.154297 30.1875 C 16.154297 31.191625 16.962672 32 17.966797 32 L 19.175781 32 L 19.199219 32 L 20.621094 32 C 21.62522 32 22.433594 31.191625 22.433594 30.1875 L 22.433594 19.890625 C 22.433594 19.622638 22.373045 19.371035 22.269531 19.142578 C 22.125296 18.665171 21.879271 18.213255 21.501953 17.835938 C 20.891144 17.225128 20.089615 16.919922 19.289062 16.919922 z M 12.693359 18.169922 A 1.9013674 1.9013674 0 0 1 14.595703 20.070312 A 1.9013674 1.9013674 0 0 1 12.693359 21.972656 A 1.9013674 1.9013674 0 0 1 10.792969 20.070312 A 1.9013674 1.9013674 0 0 1 12.693359 18.169922 z M 19.28125 18.169922 A 1.9013674 1.9013674 0 0 1 21.183594 20.070312 A 1.9013674 1.9013674 0 0 1 19.28125 21.972656 A 1.9013674 1.9013674 0 0 1 17.380859 20.070312 A 1.9013674 1.9013674 0 0 1 19.28125 18.169922 z "
     transform="scale(0.26458333)" />
</svg>
