<?xml version="1.0" encoding="utf-8"?>
<svg width="32" height="32" viewBox="0 0 8.4666666 8.4666666" version="1.1" id="svg8" xmlns="http://www.w3.org/2000/svg">
  <defs id="defs2">
    <style id="style1399">.cls-1{fill:#e3e3e3;}</style>
  </defs>
  <path class="cls-2" d="M 6.611 3.99 C 6.502 3.934 6.386 3.893 6.265 3.868 C 6.133 3.838 5.997 3.822 5.861 3.821 C 5.787 3.82 5.714 3.828 5.643 3.848 C 5.598 3.858 5.558 3.884 5.53 3.92 C 5.511 3.95 5.501 3.985 5.501 4.019 C 5.502 4.053 5.514 4.086 5.535 4.113 C 5.569 4.152 5.611 4.185 5.658 4.208 C 5.74 4.253 5.826 4.293 5.914 4.328 C 6.109 4.393 6.295 4.482 6.469 4.592 C 6.587 4.667 6.685 4.77 6.754 4.892 C 6.811 5.007 6.841 5.135 6.838 5.264 C 6.842 5.434 6.793 5.602 6.698 5.744 C 6.598 5.888 6.457 6 6.294 6.067 C 6.118 6.144 5.9 6.183 5.64 6.183 C 5.475 6.185 5.31 6.169 5.148 6.136 C 5.021 6.113 4.898 6.074 4.78 6.02 C 4.754 6.007 4.738 5.979 4.739 5.95 L 4.739 5.322 C 4.738 5.31 4.743 5.297 4.754 5.29 C 4.763 5.284 4.776 5.285 4.785 5.293 C 4.924 5.375 5.076 5.435 5.233 5.47 C 5.372 5.505 5.514 5.524 5.658 5.526 C 5.793 5.526 5.893 5.508 5.957 5.473 C 6.016 5.446 6.054 5.387 6.053 5.322 C 6.053 5.272 6.024 5.223 5.966 5.177 C 5.908 5.13 5.789 5.074 5.611 5.008 C 5.428 4.944 5.255 4.857 5.097 4.747 C 4.983 4.667 4.889 4.562 4.823 4.441 C 4.766 4.326 4.737 4.2 4.739 4.072 C 4.738 3.918 4.781 3.767 4.861 3.635 C 4.953 3.491 5.084 3.376 5.239 3.304 C 5.409 3.219 5.622 3.176 5.878 3.176 C 6.028 3.175 6.178 3.186 6.326 3.208 C 6.434 3.222 6.539 3.25 6.638 3.292 C 6.654 3.297 6.667 3.309 6.673 3.325 C 6.677 3.339 6.679 3.353 6.679 3.368 L 6.679 3.956 C 6.68 3.969 6.673 3.983 6.661 3.99 C 6.646 3.998 6.627 3.998 6.611 3.99 Z M 1.629 6.058 L 1.629 2.341 C 1.629 2.314 1.641 2.301 1.664 2.301 C 1.726 2.301 1.782 2.3 1.868 2.298 C 1.953 2.296 2.045 2.294 2.144 2.292 C 2.243 2.29 2.348 2.288 2.458 2.286 C 2.568 2.285 2.678 2.283 2.787 2.283 C 3.081 2.283 3.33 2.32 3.531 2.394 C 3.713 2.455 3.879 2.556 4.017 2.691 C 4.134 2.806 4.224 2.946 4.281 3.1 C 4.336 3.25 4.363 3.409 4.363 3.569 C 4.363 3.879 4.291 4.135 4.147 4.336 C 4.003 4.539 3.8 4.692 3.566 4.776 C 3.322 4.866 3.05 4.897 2.752 4.897 C 2.667 4.897 2.606 4.896 2.572 4.894 C 2.537 4.892 2.484 4.892 2.415 4.892 L 2.415 6.052 C 2.419 6.083 2.393 6.109 2.362 6.104 L 1.67 6.104 C 1.643 6.104 1.629 6.089 1.629 6.058 Z M 2.415 2.999 L 2.415 4.211 C 2.465 4.215 2.512 4.216 2.554 4.216 L 2.746 4.216 C 2.887 4.216 3.028 4.193 3.162 4.15 C 3.277 4.116 3.38 4.05 3.458 3.958 C 3.534 3.869 3.572 3.745 3.572 3.586 C 3.575 3.474 3.545 3.362 3.487 3.266 C 3.426 3.173 3.338 3.101 3.235 3.06 C 3.099 3.007 2.955 2.982 2.81 2.987 C 2.717 2.987 2.635 2.988 2.563 2.99 C 2.491 2.992 2.442 2.995 2.415 2.999 Z M 0 2.109 L 0 6.358 C 0 7.471 0.898 8.373 2.009 8.373 L 6.454 8.373 C 7.563 8.373 8.462 7.471 8.462 6.358 L 8.462 2.109 C 8.462 0.995 7.563 0.094 6.454 0.094 L 2.009 0.094 C 0.898 0.094 0 0.995 0 2.109 Z" style="fill: rgb(227, 227, 227);"/>
</svg>