<?xml version="1.0" encoding="utf-8"?>
<svg width="32" height="32" viewBox="0 0 8.4666666 8.4666666" version="1.1" id="svg8" xmlns="http://www.w3.org/2000/svg">
  <defs id="defs2">
    <style id="style1399">.cls-1{fill:#e3e3e3;}</style>
  </defs>
  <path d="M 6.92 6.443 C 6.92 6.443 6.252 6.015 5.756 6.032 C 5.389 6.045 5.113 6.134 4.858 6.098 C 4.46 6.042 4.318 5.786 4.318 5.786" style="fill: none; stroke-linecap: round; stroke-width: 0.15px;"/>
  <path d="M 6.923 6.518 C 6.964 6.517 6.996 6.482 6.995 6.44 C 6.994 6.399 6.959 6.367 6.917 6.368 C 6.917 6.368 6.939 6.374 6.917 6.368 C 6.917 6.368 6.271 5.946 5.753 5.957 C 5.376 5.972 5.107 6.061 4.868 6.024 C 4.498 5.987 4.384 5.75 4.384 5.75 C 4.363 5.713 4.318 5.7 4.282 5.72 C 4.245 5.74 4.232 5.786 4.252 5.822 C 4.252 5.822 4.422 6.097 4.848 6.172 C 5.119 6.207 5.402 6.118 5.759 6.107 C 6.233 6.084 6.923 6.518 6.923 6.518 C 6.901 6.512 6.923 6.518 6.923 6.518 Z" style="fill: none;"/>
  <path d="M 1.758 3.053 L 2.689 3.053 C 2.968 3.053 3.174 3.126 3.301 3.273 C 3.5460000000000003 3.555 3.457 4.117 3.113 4.433 C 2.802 4.724 2.467 4.685 1.925 4.685 L 1.811 5.275 L 1.327 5.275 L 1.758 3.053 Z M 3.7720000000000002 2.462 L 4.253 2.462 L 4.139 3.052 C 4.553 3.052 4.938 3.022 5.124 3.193 C 5.318 3.372 5.225 3.601 5.014 4.682 L 4.527 4.682 C 4.73 3.637 4.768 3.55 4.694 3.471 C 4.623 3.395 4.461 3.41 4.07 3.41 L 3.823 4.682 L 3.342 4.682 L 3.7720000000000002 2.462 Z M 5.952 3.404 L 5.771 4.333 C 6.211 4.333 6.589 4.396 6.695 3.855 C 6.792 3.35 6.455 3.404 5.952 3.404 Z M 4.258 1.8170000000000002 C 1.932 1.8170000000000002 0.045 2.808 0.045 4.033 C 0.045 5.258 1.932 6.249 4.258 6.249 C 6.585 6.249 8.472 5.258 8.472 4.033 C 8.472 2.808 6.585 1.8170000000000002 4.258 1.8170000000000002 Z M 5.536 3.053 L 6.467 3.053 C 6.746 3.053 6.9510000000000005 3.126 7.079 3.273 C 7.324 3.555 7.234 4.117 6.891 4.433 C 6.586 4.718 6.272 4.685 5.703 4.685 L 5.588 5.275 L 5.104 5.275 L 5.536 3.053 Z M 2.918 3.855 C 2.814 4.389 2.447 4.333 1.995 4.333 L 2.175 3.404 C 2.676 3.404 3.015 3.35 2.918 3.855 Z" style="fill: rgb(227, 227, 227);"/>
</svg>