<?xml version="1.0" encoding="UTF-8" standalone="no"?>
<!-- Created with Inkscape (http://www.inkscape.org/) -->

<svg
   xmlns:dc="http://purl.org/dc/elements/1.1/"
   xmlns:cc="http://creativecommons.org/ns#"
   xmlns:rdf="http://www.w3.org/1999/02/22-rdf-syntax-ns#"
   xmlns:svg="http://www.w3.org/2000/svg"
   xmlns="http://www.w3.org/2000/svg"
   xmlns:sodipodi="http://sodipodi.sourceforge.net/DTD/sodipodi-0.dtd"
   xmlns:inkscape="http://www.inkscape.org/namespaces/inkscape"
   width="32"
   height="32"
   viewBox="0 0 8.4666666 8.4666666"
   version="1.1"
   id="svg8"
   inkscape:version="0.92.5 (2060ec1f9f, 2020-04-08)"
   sodipodi:docname="post-production_sl.svg">
  <defs
     id="defs2">
    <style
       id="style1399">.cls-1{fill:#e3e3e3;}</style>
    <style
       id="style1399-98">.cls-1{fill:#e3e3e3;}</style>
    <style
       id="style1399-4">.cls-1{fill:#e3e3e3;}</style>
    <style
       id="style1399-8">.cls-1{fill:#e3e3e3;}</style>
    <style
       id="style1399-4-5">.cls-1{fill:#e3e3e3;}</style>
    <style
       id="style1399-9">.cls-1{fill:#e3e3e3;}</style>
    <style
       id="style1399-4-6">.cls-1{fill:#e3e3e3;}</style>
    <style
       id="style1399-8-4">.cls-1{fill:#e3e3e3;}</style>
    <style
       id="style1399-4-5-3">.cls-1{fill:#e3e3e3;}</style>
    <style
       id="style1399-88">.cls-1{fill:#e3e3e3;}</style>
    <style
       id="style1399-3">.cls-1{fill:#e3e3e3;}</style>
    <style
       id="style1399-94">.cls-1{fill:#e3e3e3;}</style>
    <style
       id="style1399-5">.cls-1{fill:#e3e3e3;}</style>
    <style
       id="style1399-46">.cls-1{fill:#e3e3e3;}</style>
    <style
       id="style1399-4-2">.cls-1{fill:#e3e3e3;}</style>
    <style
       id="style1399-8-5">.cls-1{fill:#e3e3e3;}</style>
    <style
       id="style1399-4-5-8">.cls-1{fill:#e3e3e3;}</style>
    <style
       id="style1399-9-6">.cls-1{fill:#e3e3e3;}</style>
    <style
       id="style1399-4-6-2">.cls-1{fill:#e3e3e3;}</style>
    <style
       id="style1399-8-4-8">.cls-1{fill:#e3e3e3;}</style>
    <style
       id="style1399-4-5-3-4">.cls-1{fill:#e3e3e3;}</style>
    <style
       id="style1399-88-7">.cls-1{fill:#e3e3e3;}</style>
    <style
       id="style1399-3-2">.cls-1{fill:#e3e3e3;}</style>
    <style
       id="style1399-94-4">.cls-1{fill:#e3e3e3;}</style>
    <style
       id="style1399-5-0">.cls-1{fill:#e3e3e3;}</style>
    <style
       id="style1399-39">.cls-1{fill:#e3e3e3;}</style>
    <style
       id="style1399-4-1">.cls-1{fill:#e3e3e3;}</style>
    <style
       id="style1399-8-9">.cls-1{fill:#e3e3e3;}</style>
    <style
       id="style1399-4-5-6">.cls-1{fill:#e3e3e3;}</style>
    <style
       id="style1399-9-9">.cls-1{fill:#e3e3e3;}</style>
    <style
       id="style1399-4-6-3">.cls-1{fill:#e3e3e3;}</style>
    <style
       id="style1399-8-4-3">.cls-1{fill:#e3e3e3;}</style>
    <style
       id="style1399-4-5-3-8">.cls-1{fill:#e3e3e3;}</style>
    <style
       id="style1399-88-0">.cls-1{fill:#e3e3e3;}</style>
    <style
       id="style1399-3-5">.cls-1{fill:#e3e3e3;}</style>
    <style
       id="style1399-94-6">.cls-1{fill:#e3e3e3;}</style>
    <style
       id="style1399-5-6">.cls-1{fill:#e3e3e3;}</style>
    <style
       id="style1399-46-4">.cls-1{fill:#e3e3e3;}</style>
    <style
       id="style1399-4-2-0">.cls-1{fill:#e3e3e3;}</style>
    <style
       id="style1399-8-5-0">.cls-1{fill:#e3e3e3;}</style>
    <style
       id="style1399-4-5-8-4">.cls-1{fill:#e3e3e3;}</style>
    <style
       id="style1399-9-6-6">.cls-1{fill:#e3e3e3;}</style>
    <style
       id="style1399-4-6-2-2">.cls-1{fill:#e3e3e3;}</style>
    <style
       id="style1399-8-4-8-6">.cls-1{fill:#e3e3e3;}</style>
    <style
       id="style1399-4-5-3-4-7">.cls-1{fill:#e3e3e3;}</style>
    <style
       id="style1399-88-7-5">.cls-1{fill:#e3e3e3;}</style>
    <style
       id="style1399-3-2-6">.cls-1{fill:#e3e3e3;}</style>
    <style
       id="style1399-94-4-9">.cls-1{fill:#e3e3e3;}</style>
    <style
       id="style1399-5-0-8">.cls-1{fill:#e3e3e3;}</style>
    <style
       id="style1399-1">.cls-1{fill:#e3e3e3;}</style>
    <style
       id="style1399-4-59">.cls-1{fill:#e3e3e3;}</style>
    <style
       id="style1399-8-91">.cls-1{fill:#e3e3e3;}</style>
    <style
       id="style1399-4-5-4">.cls-1{fill:#e3e3e3;}</style>
    <style
       id="style1399-9-91">.cls-1{fill:#e3e3e3;}</style>
    <style
       id="style1399-4-6-0">.cls-1{fill:#e3e3e3;}</style>
    <style
       id="style1399-8-4-7">.cls-1{fill:#e3e3e3;}</style>
    <style
       id="style1399-4-5-3-5">.cls-1{fill:#e3e3e3;}</style>
    <style
       id="style1399-88-8">.cls-1{fill:#e3e3e3;}</style>
    <style
       id="style1399-3-7">.cls-1{fill:#e3e3e3;}</style>
    <style
       id="style1399-94-0">.cls-1{fill:#e3e3e3;}</style>
    <style
       id="style1399-5-4">.cls-1{fill:#e3e3e3;}</style>
    <style
       id="style1399-46-8">.cls-1{fill:#e3e3e3;}</style>
    <style
       id="style1399-4-2-04">.cls-1{fill:#e3e3e3;}</style>
    <style
       id="style1399-8-5-2">.cls-1{fill:#e3e3e3;}</style>
    <style
       id="style1399-4-5-8-9">.cls-1{fill:#e3e3e3;}</style>
    <style
       id="style1399-9-6-61">.cls-1{fill:#e3e3e3;}</style>
    <style
       id="style1399-4-6-2-0">.cls-1{fill:#e3e3e3;}</style>
    <style
       id="style1399-8-4-8-4">.cls-1{fill:#e3e3e3;}</style>
    <style
       id="style1399-4-5-3-4-2">.cls-1{fill:#e3e3e3;}</style>
    <style
       id="style1399-88-7-2">.cls-1{fill:#e3e3e3;}</style>
    <style
       id="style1399-3-2-2">.cls-1{fill:#e3e3e3;}</style>
    <style
       id="style1399-94-4-0">.cls-1{fill:#e3e3e3;}</style>
    <style
       id="style1399-5-0-5">.cls-1{fill:#e3e3e3;}</style>
    <style
       id="style1399-80">.cls-1{fill:#e3e3e3;}</style>
    <style
       id="style1399-4-4">.cls-1{fill:#e3e3e3;}</style>
    <style
       id="style1399-8-0">.cls-1{fill:#e3e3e3;}</style>
    <style
       id="style1399-4-5-9">.cls-1{fill:#e3e3e3;}</style>
    <style
       id="style1399-9-1">.cls-1{fill:#e3e3e3;}</style>
    <style
       id="style1399-4-6-9">.cls-1{fill:#e3e3e3;}</style>
    <style
       id="style1399-8-4-6">.cls-1{fill:#e3e3e3;}</style>
    <style
       id="style1399-4-5-3-2">.cls-1{fill:#e3e3e3;}</style>
    <style
       id="style1399-88-5">.cls-1{fill:#e3e3e3;}</style>
    <style
       id="style1399-3-4">.cls-1{fill:#e3e3e3;}</style>
    <style
       id="style1399-94-49">.cls-1{fill:#e3e3e3;}</style>
    <style
       id="style1399-5-9">.cls-1{fill:#e3e3e3;}</style>
    <style
       id="style1399-46-3">.cls-1{fill:#e3e3e3;}</style>
    <style
       id="style1399-4-2-6">.cls-1{fill:#e3e3e3;}</style>
    <style
       id="style1399-8-5-05">.cls-1{fill:#e3e3e3;}</style>
    <style
       id="style1399-4-5-8-0">.cls-1{fill:#e3e3e3;}</style>
    <style
       id="style1399-9-6-2">.cls-1{fill:#e3e3e3;}</style>
    <style
       id="style1399-4-6-2-9">.cls-1{fill:#e3e3e3;}</style>
    <style
       id="style1399-8-4-8-43">.cls-1{fill:#e3e3e3;}</style>
    <style
       id="style1399-4-5-3-4-5">.cls-1{fill:#e3e3e3;}</style>
    <style
       id="style1399-88-7-1">.cls-1{fill:#e3e3e3;}</style>
    <style
       id="style1399-3-2-7">.cls-1{fill:#e3e3e3;}</style>
    <style
       id="style1399-94-4-4">.cls-1{fill:#e3e3e3;}</style>
    <style
       id="style1399-5-0-3">.cls-1{fill:#e3e3e3;}</style>
    <style
       id="style1399-6">.cls-1{fill:#e3e3e3;}</style>
    <style
       id="style1399-888">.cls-1{fill:#e3e3e3;}</style>
    <style
       id="style1399-4-68">.cls-1{fill:#e3e3e3;}</style>
    <style
       id="style1399-5-3">.cls-1{fill:#e3e3e3;}</style>
    <style
       id="style1399-7">.cls-1{fill:#e3e3e3;}</style>
    <style
       id="style1399-76">.cls-1{fill:#e3e3e3;}</style>
    <style
       id="style1399-4-8">.cls-1{fill:#e3e3e3;}</style>
    <style
       id="style1399-5-90">.cls-1{fill:#e3e3e3;}</style>
    <style
       id="style1399-7-6">.cls-1{fill:#e3e3e3;}</style>
    <style
       id="style1399-73">.cls-1{fill:#e3e3e3;}</style>
    <style
       id="style1399-4-26">.cls-1{fill:#e3e3e3;}</style>
    <style
       id="style1399-5-5">.cls-1{fill:#e3e3e3;}</style>
    <style
       id="style1399-7-2">.cls-1{fill:#e3e3e3;}</style>
    <style
       id="style1399-41">.cls-1{fill:#e3e3e3;}</style>
    <style
       id="style1399-2">.cls-1{fill:#e3e3e3;}</style>
    <style
       id="style1399-4-47">.cls-1{fill:#e3e3e3;}</style>
    <style
       id="style1399-8-93">.cls-1{fill:#e3e3e3;}</style>
    <style
       id="style1399-4-5-92">.cls-1{fill:#e3e3e3;}</style>
    <style
       id="style1399-9-8">.cls-1{fill:#e3e3e3;}</style>
    <style
       id="style1399-4-6-30">.cls-1{fill:#e3e3e3;}</style>
    <style
       id="style1399-8-4-1">.cls-1{fill:#e3e3e3;}</style>
    <style
       id="style1399-4-5-3-7">.cls-1{fill:#e3e3e3;}</style>
    <style
       id="style1399-88-89">.cls-1{fill:#e3e3e3;}</style>
    <style
       id="style1399-38">.cls-1{fill:#e3e3e3;}</style>
  </defs>
  <sodipodi:namedview
     id="base"
     pagecolor="#ffffff"
     bordercolor="#666666"
     borderopacity="1.0"
     inkscape:pageopacity="0.0"
     inkscape:pageshadow="2"
     inkscape:zoom="4"
     inkscape:cx="-12.256042"
     inkscape:cy="50.959495"
     inkscape:document-units="mm"
     inkscape:current-layer="svg8"
     showgrid="false"
     units="px"
     inkscape:window-width="1848"
     inkscape:window-height="1136"
     inkscape:window-x="0"
     inkscape:window-y="27"
     inkscape:window-maximized="1"
     inkscape:snap-bbox="true"
     inkscape:bbox-nodes="true"
     inkscape:bbox-paths="true"
     inkscape:snap-bbox-edge-midpoints="true"
     inkscape:snap-bbox-midpoints="true"
     inkscape:snap-nodes="false">
    <sodipodi:guide
       position="8.4666666,0"
       orientation="-32,0"
       id="guide854"
       inkscape:locked="false" />
    <sodipodi:guide
       position="8.4666666,8.4666666"
       orientation="0,-32"
       id="guide856"
       inkscape:locked="false" />
    <sodipodi:guide
       position="0,8.4666814"
       orientation="32,0"
       id="guide858"
       inkscape:locked="false" />
  </sodipodi:namedview>
  <metadata
     id="metadata5">
    <rdf:RDF>
      <cc:Work
         rdf:about="">
        <dc:format>image/svg+xml</dc:format>
        <dc:type
           rdf:resource="http://purl.org/dc/dcmitype/StillImage" />
        <dc:title></dc:title>
      </cc:Work>
    </rdf:RDF>
  </metadata>
  <path
     style="fill:#e3e3e3;fill-opacity:1;stroke-width:0.01472535"
     d="m 1.3777442,3.1052689 c -0.52716724,0 -0.97305273,0.3460323 -1.12325138,0.8246064 H 0.00740924 L 0.00540762,4.6351572 c 0,0 0.16108053,0.00133 0.24908344,0.00133 0.15019925,0.4785721 0.59608478,0.8246047 1.12325204,0.8246047 0.5275587,0 0.9737566,-0.3464387 1.1239179,-0.8242731 h 0.7419454 v 0.4849657 c 0,0.098336 0.118711,0.1476033 0.1883196,0.077994 L 4.2728646,4.358176 c 0.041435,-0.041434 0.041435,-0.1092221 0,-0.1506558 L 3.4319276,3.3672497 C 3.3623189,3.2976408 3.2436079,3.3465741 3.2436079,3.4449106 V 3.929542 H 2.5016621 C 2.3515009,3.4517078 1.905303,3.1052689 1.3777442,3.1052689 Z m 0,0.9422644 c 0.1295831,0 0.2356495,0.1060668 0.2356495,0.2356496 0,0.1295831 -0.1060664,0.2356494 -0.2356495,0.2356494 -0.1295832,0 -0.2353162,-0.1060663 -0.2353162,-0.2356494 0,-0.1295828 0.105733,-0.2356496 0.2353162,-0.2356496 z"
     id="path6795"
     inkscape:connector-curvature="0"
     sodipodi:nodetypes="sccccsccsccccsccssssss" />
  <path
     style="fill:#e3e3e3;fill-opacity:1;stroke-width:0.03542245"
     d="M 14.712891 9.0976562 C 14.241773 9.0976562 13.863281 9.4761471 13.863281 9.9472656 L 13.863281 10.972656 C 14.041758 11.072281 14.210147 11.190615 14.357422 11.337891 L 14.998047 11.976562 L 14.998047 11.789062 C 14.998047 11.555272 15.188087 11.365234 15.421875 11.365234 L 16.839844 11.365234 C 17.07363 11.365234 17.263672 11.555275 17.263672 11.789062 L 17.263672 13.207031 C 17.263672 13.440818 17.073631 13.630859 16.839844 13.630859 L 16.654297 13.630859 L 17.539062 14.513672 C 18.449521 15.424101 18.449513 16.946994 17.539062 17.857422 L 17.119141 18.277344 C 17.206294 18.355328 17.263672 18.464406 17.263672 18.589844 L 17.263672 20.007812 C 17.263672 20.241599 17.073631 20.433594 16.839844 20.433594 L 15.421875 20.433594 C 15.295944 20.433594 15.187387 20.374856 15.109375 20.287109 L 14.357422 21.039062 C 14.210146 21.186339 14.041758 21.304672 13.863281 21.404297 L 13.863281 21.849609 C 13.863281 22.320728 14.241773 22.699219 14.712891 22.699219 L 14.998047 22.699219 L 14.998047 21.992188 C 14.998047 21.758401 15.188087 21.566406 15.421875 21.566406 L 16.839844 21.566406 C 17.07363 21.566406 17.263672 21.758401 17.263672 21.992188 L 17.263672 22.699219 L 28.599609 22.699219 L 28.599609 21.992188 C 28.599609 21.758401 28.791606 21.566406 29.025391 21.566406 L 30.441406 21.566406 C 30.675196 21.566406 30.867188 21.758401 30.867188 21.992188 L 30.867188 22.699219 L 31.150391 22.699219 C 31.621509 22.699219 32 22.320728 32 21.849609 L 32 9.9472656 C 32 9.4761471 31.621508 9.0976562 31.150391 9.0976562 L 30.867188 9.0976562 L 30.867188 9.8066406 C 30.867188 10.040427 30.675191 10.230469 30.441406 10.230469 L 29.025391 10.230469 C 28.7916 10.230469 28.599609 10.040428 28.599609 9.8066406 L 28.599609 9.0976562 L 17.263672 9.0976562 L 17.263672 9.8066406 C 17.263672 10.040427 17.073631 10.230469 16.839844 10.230469 L 15.421875 10.230469 C 15.188085 10.230469 14.998047 10.040428 14.998047 9.8066406 L 14.998047 9.0976562 L 14.712891 9.0976562 z M 19.388672 10.796875 L 26.474609 10.796875 C 26.7084 10.796875 26.898438 10.988869 26.898438 11.222656 L 26.898438 14.623047 C 26.898438 14.856833 26.708397 15.048828 26.474609 15.048828 L 19.388672 15.048828 C 19.154882 15.048828 18.964844 14.856834 18.964844 14.623047 L 18.964844 11.222656 C 18.964844 10.98887 19.154884 10.796875 19.388672 10.796875 z M 29.025391 11.365234 L 30.441406 11.365234 C 30.675196 11.365234 30.867188 11.555275 30.867188 11.789062 L 30.867188 13.207031 C 30.867188 13.440818 30.675191 13.630859 30.441406 13.630859 L 29.025391 13.630859 C 28.7916 13.630859 28.599609 13.440819 28.599609 13.207031 L 28.599609 11.789062 C 28.599609 11.555272 28.791606 11.365234 29.025391 11.365234 z M 29.025391 14.765625 L 30.441406 14.765625 C 30.675196 14.765625 30.867188 14.955666 30.867188 15.189453 L 30.867188 16.607422 C 30.867188 16.841208 30.675191 17.03125 30.441406 17.03125 L 29.025391 17.03125 C 28.7916 17.03125 28.599609 16.841209 28.599609 16.607422 L 28.599609 15.189453 C 28.599609 14.955667 28.791606 14.765625 29.025391 14.765625 z M 19.388672 16.748047 L 26.474609 16.748047 C 26.7084 16.748047 26.898438 16.940041 26.898438 17.173828 L 26.898438 20.574219 C 26.898438 20.808009 26.708397 21 26.474609 21 L 19.388672 21 C 19.154882 21 18.964844 20.808006 18.964844 20.574219 L 18.964844 17.173828 C 18.964844 16.940042 19.154884 16.748047 19.388672 16.748047 z M 29.025391 18.166016 L 30.441406 18.166016 C 30.675196 18.166016 30.867188 18.356057 30.867188 18.589844 L 30.867188 20.007812 C 30.867188 20.241599 30.675191 20.433594 30.441406 20.433594 L 29.025391 20.433594 C 28.7916 20.433594 28.599609 20.2416 28.599609 20.007812 L 28.599609 18.589844 C 28.599609 18.356057 28.791606 18.166016 29.025391 18.166016 z "
     transform="scale(0.26458333)"
     id="path1222" />
</svg>
