<?xml version="1.0" encoding="UTF-8" standalone="no"?>
<svg
   xmlns:dc="http://purl.org/dc/elements/1.1/"
   xmlns:cc="http://creativecommons.org/ns#"
   xmlns:rdf="http://www.w3.org/1999/02/22-rdf-syntax-ns#"
   xmlns:svg="http://www.w3.org/2000/svg"
   xmlns="http://www.w3.org/2000/svg"
   xmlns:sodipodi="http://sodipodi.sourceforge.net/DTD/sodipodi-0.dtd"
   xmlns:inkscape="http://www.inkscape.org/namespaces/inkscape"
   viewBox="0 0 59.95592 61.060267"
   version="1.1"
   id="svg36"
   sodipodi:docname="Duik-icon-old.svg"
   width="59.955921"
   height="61.060268"
   inkscape:version="0.92.4 (5da689c313, 2019-01-14)">
  <metadata
     id="metadata40">
    <rdf:RDF>
      <cc:Work
         rdf:about="">
        <dc:format>image/svg+xml</dc:format>
        <dc:type
           rdf:resource="http://purl.org/dc/dcmitype/StillImage" />
        <dc:title>Fichier 6</dc:title>
      </cc:Work>
    </rdf:RDF>
  </metadata>
  <sodipodi:namedview
     pagecolor="#ffffff"
     bordercolor="#666666"
     borderopacity="1"
     objecttolerance="10"
     gridtolerance="10"
     guidetolerance="10"
     inkscape:pageopacity="0"
     inkscape:pageshadow="2"
     inkscape:window-width="1846"
     inkscape:window-height="1057"
     id="namedview38"
     showgrid="false"
     fit-margin-top="0"
     fit-margin-left="0"
     fit-margin-right="0"
     fit-margin-bottom="0"
     inkscape:zoom="1.893757"
     inkscape:cx="29.97629"
     inkscape:cy="30.530267"
     inkscape:window-x="1986"
     inkscape:window-y="-8"
     inkscape:window-maximized="1"
     inkscape:current-layer="svg36" />
  <defs
     id="defs4">
    <style
       id="style2">.cls-1{fill:#e3e3e2;stroke:#701034;stroke-miterlimit:10;stroke-width:2px;}.cls-2{fill:#e52221;}</style>
  </defs>
  <title
     id="title6">Fichier 6</title>
  <path
     class="cls-2"
     d="m 48.476289,22.13 -0.2,-0.85 a 16.61,16.61 0 0 1 -6.88,1.54 h -0.34 a 15.19,15.19 0 0 1 -5.39,-1.11 l 0.55,1.7 0.06,0.18 a 0.58,0.58 0 0 0 0.36,0.36 l 2.36,0.8 a 0.63,0.63 0 1 1 -0.33,1.21 l -2.39,-0.81 a 1.86,1.86 0 0 1 -1.15,-1.17 l -2.15,-6.54 a 1.68,1.68 0 0 0 -1.54,-1 1.69,1.69 0 0 0 -0.38,0 1.66,1.66 0 0 0 -1.24,1.93 l 2.18,6.56 a 5.27,5.27 0 0 0 4.94,3.52 h 9 v 0 a 2.26,2.26 0 0 0 1.88,-3.56 v 0 a 0.84,0.84 0 0 1 0.17,-1.13 1.66,1.66 0 0 0 0.49,-1.63 z"
     id="path10"
     inkscape:connector-curvature="0"
     style="fill:#e52221" />
  <path
     class="cls-2"
     d="m 30.416289,14.74 a 3.42,3.42 0 0 1 0.71,-0.07 3.71,3.71 0 0 1 2.14,0.71 3.21,3.21 0 0 1 1,1.1 v 0 a 3.64,3.64 0 0 1 0.25,0.57 l 0.8,2.45 a 13,13 0 0 0 6.09,1.54 13.35,13.35 0 0 0 6.53,-1.73 l -0.1,-0.46 a 1.67,1.67 0 0 0 -1.41,-1.28 h -0.29 a 0.43,0.43 0 0 1 -0.36,-0.32 c 0,-0.13 0.75,-2.91 1.17,-4.4 a 1.46,1.46 0 0 0 -0.47,-1.53 l -0.18,-0.15 -0.4,-0.37 c 0,-0.14 0,-0.27 0,-0.41 0,-7.38 -4.3,-10.39 -11.65,-10.39 h -1.39 c -7.43,0.35 -12.29,6.53 -12.29,15 0,4.64 3.06,5.54 8.21,5.72 l -0.65,-2.17 a 3.06,3.06 0 0 1 0.39,-2.37 3,3 0 0 1 1.9,-1.44 z m 9.88,-4.92 c 2.27,0 3.59,1.85 3.59,4.12 0,2.27 -1.32,4.12 -3.59,4.12 a 4.12,4.12 0 1 1 0,-8.24 z"
     id="path12"
     inkscape:connector-curvature="0"
     style="fill:#e52221" />
  <path
     class="cls-2"
     d="m 18.736289,33.98 a 57.66,57.66 0 0 0 -8,8.38 c -2.7400004,3.78 -5.0000004,8.17 -6.1600004,8.51 -1.16,0.34 -3.78999999,1.58 -2.8,2.53 0.99,0.95 2.55,1.13 3.16,0.61 a 4,4 0 0 0 0.78,-2.07 c 0,0 6.4700004,-9.26 9.7000004,-11.72 3.23,-2.46 6.3,-2.4 6.47,-4 0.17,-1.6 -0.44,-2.72 -1,-2.9 a 2.54,2.54 0 0 0 -2.15,0.66 z"
     id="path14"
     inkscape:connector-curvature="0"
     style="fill:#e52221" />
  <path
     class="cls-2"
     d="m 2.5862886,54.95 c -1,0.71 -2.26999999,-1.17 -2.52999999,-2.8 -0.26,-1.63 0.43,-15.53 1.05999999,-17.72 0.63,-2.19 -0.90999999,-3.06 -0.13999999,-3.46 0.76999999,-0.4 3.18999999,-0.09 2.61999999,0.69 -0.57,0.78 -2.55,12.81 -2.06,18.44 1,0.26 1,1 1,1 0,0 -1.72999999,1.39 -1.28,2.43 a 2.48,2.48 0 0 0 1.33,1.42 z"
     id="path16"
     inkscape:connector-curvature="0"
     style="fill:#e52221" />
  <path
     class="cls-2"
     d="m 1.3962886,30.07 c 0,-0.7 4.86,-4.4 5.65,-3.83 0.79,0.57 2.69,2.91 2.35,3.38 -0.34,0.47 -0.85,2.5 -2,2.41 a 8.41,8.41 0 0 1 -2.66,-1 c 0,0 0.41,-0.9 0.73,-0.67 a 12.08,12.08 0 0 0 1.21,0.64 c 0,0 1,-0.45 1.19,-1.31 0.19,-0.86 -1.2,-2.28 -1.46,-2.24 -0.26,0.04 -2.07,1.87 -2.05,2.84 0.02,0.97 -2.99,0.48 -2.96,-0.22 z"
     id="path18"
     inkscape:connector-curvature="0"
     style="fill:#e52221" />
  <path
     class="cls-2"
     d="m 18.666289,32.46 c -0.47,-0.34 1.09,-4.49 3.52,-5.86 2.43,-1.37 2.64,-2.65 3.23,-2.46 0.59,0.19 1.53,0.87 1.23,1.61 -0.3,0.74 -4.07,0.65 -5.4,2.81 -1.33,2.16 -0.83,3.48 -1.06,3.8 a 1.28,1.28 0 0 1 -1.52,0.1 z"
     id="path20"
     inkscape:connector-curvature="0"
     style="fill:#e52221" />
  <path
     class="cls-2"
     d="m 21.386289,32.3 c 0.21,-1.29 1.41,-4.27 3.05,-3.56 1.64,0.71 3.88,1.61 3.88,1.61 0,0 2.71,8.2 1.37,9.39 -1.34,1.19 -2.88,-2.32 -3.63,-2.62 -0.75,-0.3 -2.9,-0.42 -3.47,-0.84 a 5.66,5.66 0 0 1 -1.2,-3.98 z"
     id="path22"
     inkscape:connector-curvature="0"
     style="fill:#e52221" />
  <path
     class="cls-2"
     d="m 32.926289,42.55 c 0.61,-2 3,-0.21 3,-0.21 a 3.69,3.69 0 0 0 2.74,-0.92 57.65,57.65 0 0 1 7.16,-5.89 c 7,-4.66 6.18,-5.34 8.64,-6.25 2.46,-0.91 2.33,0.83 2.66,1.79 0.33,0.96 -0.53,3.23 -1.57,2.81 -1.04,-0.42 -1.63,-1.61 -2.6,-1 a 47.07,47.07 0 0 0 -13.68,10 5.61,5.61 0 0 1 -3.61,2.68 c -1,0.06 -1.09,-1.16 -1.09,-1.16 0,0 -2.27,0.16 -1.65,-1.85 z"
     id="path24"
     inkscape:connector-curvature="0"
     style="fill:#e52221" />
  <path
     class="cls-2"
     d="m 58.986289,31.22 c 1.09,0.66 1.09,0.66 0.82,3.1 a 3.17,3.17 0 0 1 -2.4,2.9 c 0,0 0.48,-6.64 1.58,-6 z"
     id="path26"
     inkscape:connector-curvature="0"
     style="fill:#e52221" />
  <path
     class="cls-2"
     d="m 55.716289,33.97 c 0.6,2.68 -0.38,3.45 -0.38,3.45 0,0 -8.65,12.31 -8.73,17 a 1.13,1.13 0 0 1 0.54,1.21 2.2,2.2 0 0 1 -3,0.83 c -1.29,-0.69 -1.07,-1.68 -0.12,-3.18 0.95,-1.5 1.85,-4.72 4.21,-9.46 2.36,-4.74 3.56,-6.26 3.75,-8 0.19,-1.74 -0.33,-2.2 -0.33,-2.2 a 2.75,2.75 0 0 0 2,0.92 4,4 0 0 0 2.06,-0.57 z"
     id="path28"
     inkscape:connector-curvature="0"
     style="fill:#e52221" />
  <path
     class="cls-2"
     d="m 46.936289,57.87 a 2.33,2.33 0 0 1 -3,0.1 c -1.8,-1.17 -3,0.35 -2.73,1.07 0.27,0.72 0.56,1.7 1.56,1.42 1,-0.28 1.48,-1 3,-1.08 1.52,-0.08 1.26,0.2 1.26,0.2 l 2.43,-2.78 c 0,0 -1,-0.45 -1.52,-0.19 a 3.39,3.39 0 0 0 -1,1.26 z"
     id="path30"
     inkscape:connector-curvature="0"
     style="fill:#e52221" />
  <path
     class="cls-2"
     d="m 51.006289,57.28 -2.91,3 c 0,0 1.74,-0.55 2.51,-0.09 a 7.46,7.46 0 0 0 3.56,0.87 c 1.26,0 2.75,-0.83 2.47,-1.56 -0.28,-0.73 -2,0.07 -3,-0.39 a 13.74,13.74 0 0 1 -2.63,-1.83 z"
     id="path32"
     inkscape:connector-curvature="0"
     style="fill:#e52221" />
</svg>
