<svg id="Layer_1" data-name="Layer 1" xmlns="http://www.w3.org/2000/svg" xmlns:xlink="http://www.w3.org/1999/xlink" viewBox="0 0 2000 2000"><defs><style>.cls-1{fill:none;}.cls-2{clip-path:url(#clip-path);}.cls-3{clip-path:url(#clip-path-2);}.cls-4{font-size:173.57px;font-family:Calibri;}.cls-10,.cls-4,.cls-8{fill:#e3e3e2;}.cls-5{letter-spacing:0.2em;}.cls-6{letter-spacing:0.2em;}.cls-7{letter-spacing:0.21em;}.cls-8{font-size:1027.96px;font-family:RainboxHeader;}.cls-9{fill:#e52120;}</style><clipPath id="clip-path"><rect class="cls-1" x="615.22" y="96.51" width="790.82" height="1806.99"/></clipPath><clipPath id="clip-path-2"><rect class="cls-1" x="615.22" y="96.5" width="790.82" height="1806.99"/></clipPath></defs><g id="Full_Light" data-name="Full Light"><g class="cls-2"><g class="cls-3"><text class="cls-4" transform="translate(615.22 238.12)"><tspan class="cls-5">R</tspan><tspan class="cls-6" x="128.96" y="0">i</tspan><tspan class="cls-7" x="203.33" y="0">g</tspan><tspan class="cls-5" x="321.31" y="0">g</tspan><tspan class="cls-6" x="437.72" y="0">in</tspan><tspan x="637.83" y="0">g</tspan></text><text class="cls-8" transform="translate(624.99 945.42)">DU</text></g><path class="cls-9" d="M646.14,819.78,749.58,716.33,853,819.78,749.58,923.22Zm30.31,176.69h146.3v756.11H676.45Z"/><g class="cls-3"><path class="cls-9" d="M1173.71,1730.9c.9-16.17,8.83-30.44,20.78-40.55a70.54,70.54,0,0,1,89.47,0c12,10.11,19.88,24.38,20.79,40.55.91,16.63-5.77,32.09-17.5,43.54-12,11.64-29,19-48,19s-36.08-7.32-48-19c-11.73-11.45-18.4-26.91-17.48-43.54"/><path class="cls-10" d="M1069.35,1763.64c.11,6.32,2.14,18.62,5.16,28.25a149,149,0,0,0,32.21,55.76,166.36,166.36,0,0,0,56.36,40.46,184.29,184.29,0,0,0,148-.25,167.45,167.45,0,0,0,56.32-40.63,150.15,150.15,0,0,0,32.18-55.87,140.24,140.24,0,0,0,5.06-62.15,144.31,144.31,0,0,0-20.53-56.21,157.59,157.59,0,0,0-37.48-41.31l0,0L1195,1515.26l-.38-.33c-10-7.61-26.7-7.59-37.62.06-11.08,7.75-12.33,20.53-2.5,28.62l0,0,63.23,49.33L1025,1595.71h.09c-16.23,0-31.84,10.68-34.94,24.14C987,1633.58,998,1645,1014.9,1645l0,.06h97.52L938.06,1777.31c-.21.17-.45.33-.66.5-16.43,12.59-21.76,33.54-11.4,46.8,10.52,13.48,32.86,13.49,49.48.05l95.14-77.85a149.68,149.68,0,0,0-1.27,16.83m244.48,35.19c-19.6,20-47,31.31-76.75,31.36s-57.17-11.18-76.78-31.12a91.41,91.41,0,0,1-21-32.81,85.42,85.42,0,0,1-4.81-36.64,86.59,86.59,0,0,1,10.51-34.51,95.54,95.54,0,0,1,23.33-27.73c19.05-15.54,43.3-23.94,68.7-24s49.63,8.31,68.7,23.78a94.81,94.81,0,0,1,23.3,27.64,86.77,86.77,0,0,1,10.54,34.48,85.35,85.35,0,0,1-4.83,36.65,91.7,91.7,0,0,1-20.94,32.88"/><path class="cls-9" d="M1011.12,1684.25v-9.36c-16.68-1-31.48-8.25-41-20.26a48.82,48.82,0,0,1-9.21-41.5c6.21-26.91,33.58-47.23,63.78-47.42l107.87-1.54a46.35,46.35,0,0,1-14.63-35.4,47.54,47.54,0,0,1,11.55-28.94l-83.58-160.13,217.49-343.53h-82.19l-170.07,268.69V996.17H865.74V1752h56l89.36-67.77"/></g></g></g></svg>