<?xml version="1.0" encoding="UTF-8" standalone="no"?>
<!-- Created with Inkscape (http://www.inkscape.org/) -->

<svg
   width="128"
   height="128"
   viewBox="0 0 33.866665 33.866668"
   version="1.1"
   id="svg8"
   inkscape:version="1.1.1 (3bf5ae0d25, 2021-09-20)"
   sodipodi:docname="ramses-icon-medium-red.svg"
   inkscape:export-filename="/media/DATA2/DEV_SRC/RxOT/Ramses/Ramses-Client/src/resources/icons/appicon/ramses_128.png"
   inkscape:export-xdpi="96.000008"
   inkscape:export-ydpi="96.000008"
   xmlns:inkscape="http://www.inkscape.org/namespaces/inkscape"
   xmlns:sodipodi="http://sodipodi.sourceforge.net/DTD/sodipodi-0.dtd"
   xmlns="http://www.w3.org/2000/svg"
   xmlns:svg="http://www.w3.org/2000/svg"
   xmlns:rdf="http://www.w3.org/1999/02/22-rdf-syntax-ns#"
   xmlns:cc="http://creativecommons.org/ns#"
   xmlns:dc="http://purl.org/dc/elements/1.1/">
  <defs
     id="defs2">
    <style
       id="style2">.a{filter:url(#a);}.b{fill:#710132;}.c{fill:#e3e3e3;}</style>
    <filter
       name="AI_FlouGaussien_4"
       id="a">
      <feGaussianBlur
         id="feGaussianBlur4"
         stdDeviation="4" />
    </filter>
  </defs>
  <sodipodi:namedview
     id="base"
     pagecolor="#ffffff"
     bordercolor="#666666"
     borderopacity="1.0"
     inkscape:pageopacity="0.0"
     inkscape:pageshadow="2"
     inkscape:zoom="1.4142136"
     inkscape:cx="-6.7175142"
     inkscape:cy="41.012192"
     inkscape:document-units="mm"
     inkscape:current-layer="layer1"
     showgrid="false"
     units="px"
     inkscape:window-width="1684"
     inkscape:window-height="1376"
     inkscape:window-x="1740"
     inkscape:window-y="0"
     inkscape:window-maximized="0"
     fit-margin-top="0"
     fit-margin-left="0"
     fit-margin-right="0"
     fit-margin-bottom="0"
     inkscape:snap-nodes="false"
     inkscape:snap-bbox="true"
     inkscape:bbox-paths="true"
     inkscape:bbox-nodes="true"
     inkscape:snap-bbox-edge-midpoints="true"
     inkscape:snap-bbox-midpoints="true"
     inkscape:snap-global="false"
     inkscape:snap-others="true"
     inkscape:snap-object-midpoints="true"
     inkscape:snap-center="true"
     inkscape:pagecheckerboard="0" />
  <metadata
     id="metadata5">
    <rdf:RDF>
      <cc:Work
         rdf:about="">
        <dc:format>image/svg+xml</dc:format>
        <dc:type
           rdf:resource="http://purl.org/dc/dcmitype/StillImage" />
      </cc:Work>
    </rdf:RDF>
  </metadata>
  <g
     inkscape:label="Calque 1"
     inkscape:groupmode="layer"
     id="layer1"
     transform="translate(-41.884402,-233.57524)">
    <circle
       style="opacity:1;fill:#e3e4e3;fill-opacity:1;fill-rule:nonzero;stroke:#710132;stroke-width:1.61656;stroke-linecap:butt;stroke-linejoin:round;stroke-miterlimit:4;stroke-dasharray:none;stroke-opacity:1;paint-order:markers fill stroke"
       id="circle834"
       cx="58.817734"
       cy="250.50858"
       r="16.084583" />
    <path
       sodipodi:nodetypes="csaascccsscsccsssssccccccccc"
       inkscape:connector-curvature="0"
       id="circle15-1"
       d="m 49.470488,237.92796 c -3.37789,0.9051 -7.632904,6.52122 -7.445369,11.54223 0.07444,1.99339 0.285543,2.46052 0.87266,3.5156 0.695174,1.24926 1.795462,2.29095 2.99273,3.07227 1.932828,1.26133 4.120682,1.67123 6.485284,2.42535 0.840194,0.26797 2.27314,3.45381 0.240871,7.29313 3.92508,1.5259 5.87225,1.56191 8.852392,1.1344 -0.353402,-5.52221 2.374765,-5.20936 3.444041,-5.00348 1.078588,0.35027 2.993961,0.34991 3.421272,-0.66112 0.427333,-1.01097 -0.494485,-1.82733 -0.51171,-2.2901 -0.05196,-1.39038 0.487718,-2.15012 0.555776,-2.25883 0.06811,-0.10784 0.420282,-0.29872 0.437288,-0.65553 0.02794,-0.58545 -0.54521,-0.87826 -0.54521,-0.87826 0.209906,-0.33394 0.883188,-0.53386 0.679722,-1.2238 0,0 -1.009481,-1.53504 -0.905401,-2.45851 0.104025,-0.92352 2.023241,-0.79866 1.635706,-1.76269 -1.327331,-3.30191 -3.426162,-4.24257 -4.328354,-4.59944 -0.902181,-0.35681 -1.161501,-1.59089 -1.325628,-2.18853 -0.164104,-0.59742 -0.858016,-1.10462 -1.407647,-1.54591 -0.549631,-0.44135 -1.206223,-1.83808 -2.299404,-2.57913 -1.660627,-1.02587 -3.874813,-1.68671 -5.923116,-1.62287 -2.048312,0.0632 -3.479114,0.3354 -4.925932,0.74375 z m 12.722225,6.53708 c 0,0 1.58794,0.91858 1.423453,2.70508 0,0 -1.296025,0.71049 -3.854651,0.1441 0.493088,-1.56751 2.431209,-2.84899 2.431209,-2.84899 z"
       style="display:inline;fill:#710132;fill-opacity:1;stroke-width:0.0809699" />
  </g>
</svg>
