<?xml version="1.0" encoding="UTF-8" standalone="no"?>
<!-- Created with Inkscape (http://www.inkscape.org/) -->

<svg
   width="512"
   height="512"
   viewBox="0 0 135.46666 135.46667"
   version="1.1"
   id="svg8"
   inkscape:version="1.1.1 (3bf5ae0d25, 2021-09-20)"
   sodipodi:docname="ramses-icon-large.svg"
   inkscape:export-filename="D:\RxLab\src\RxOT\Ramses\Ramses-Client\src\resources\icons\ramses-icon-large.png"
   inkscape:export-xdpi="48.000004"
   inkscape:export-ydpi="48.000004"
   xmlns:inkscape="http://www.inkscape.org/namespaces/inkscape"
   xmlns:sodipodi="http://sodipodi.sourceforge.net/DTD/sodipodi-0.dtd"
   xmlns="http://www.w3.org/2000/svg"
   xmlns:svg="http://www.w3.org/2000/svg"
   xmlns:rdf="http://www.w3.org/1999/02/22-rdf-syntax-ns#"
   xmlns:cc="http://creativecommons.org/ns#"
   xmlns:dc="http://purl.org/dc/elements/1.1/">
  <defs
     id="defs2">
    <style
       id="style2">.a{filter:url(#a);}.b{fill:#710132;}.c{fill:#e3e3e3;}</style>
    <filter
       name="AI_FlouGaussien_4"
       id="a">
      <feGaussianBlur
         id="feGaussianBlur4"
         stdDeviation="4" />
    </filter>
    <style
       id="style2-5">.a{filter:url(#a);}.b{fill:#710132;}.c{fill:#e3e3e3;}</style>
    <filter
       name="AI_FlouGaussien_4"
       id="a-9">
      <feGaussianBlur
         id="feGaussianBlur4-5"
         stdDeviation="4" />
    </filter>
    <style
       id="style2-1">.a{filter:url(#a);}.b{fill:#710132;}.c{fill:#e3e3e3;}</style>
    <filter
       name="AI_FlouGaussien_4"
       id="a-3">
      <feGaussianBlur
         id="feGaussianBlur4-3"
         stdDeviation="4" />
    </filter>
  </defs>
  <sodipodi:namedview
     id="base"
     pagecolor="#ffffff"
     bordercolor="#666666"
     borderopacity="1.0"
     inkscape:pageopacity="0.0"
     inkscape:pageshadow="2"
     inkscape:zoom="0.35355339"
     inkscape:cx="-89.095455"
     inkscape:cy="-144.24978"
     inkscape:document-units="mm"
     inkscape:current-layer="layer1"
     showgrid="false"
     units="px"
     inkscape:window-width="1684"
     inkscape:window-height="1376"
     inkscape:window-x="662"
     inkscape:window-y="0"
     inkscape:window-maximized="0"
     fit-margin-top="0"
     fit-margin-left="0"
     fit-margin-right="0"
     fit-margin-bottom="0"
     inkscape:snap-nodes="false"
     inkscape:snap-bbox="true"
     inkscape:bbox-paths="true"
     inkscape:bbox-nodes="true"
     inkscape:snap-bbox-edge-midpoints="true"
     inkscape:snap-bbox-midpoints="true"
     inkscape:snap-global="false"
     inkscape:snap-others="true"
     inkscape:snap-object-midpoints="true"
     inkscape:snap-center="true"
     inkscape:pagecheckerboard="0" />
  <metadata
     id="metadata5">
    <rdf:RDF>
      <cc:Work
         rdf:about="">
        <dc:format>image/svg+xml</dc:format>
        <dc:type
           rdf:resource="http://purl.org/dc/dcmitype/StillImage" />
      </cc:Work>
    </rdf:RDF>
  </metadata>
  <g
     inkscape:label="Calque 1"
     inkscape:groupmode="layer"
     id="layer1"
     transform="translate(-41.884402,-131.97524)">
    <circle
       style="opacity:1;fill:#e3e3e3;fill-opacity:1;fill-rule:nonzero;stroke:#a526c4;stroke-width:5.519;stroke-linecap:butt;stroke-linejoin:round;stroke-miterlimit:4;stroke-dasharray:none;stroke-opacity:1;paint-order:markers fill stroke"
       id="circle834"
       cx="109.61774"
       cy="199.70857"
       r="64.927773" />
    <path
       sodipodi:nodetypes="csaascccsscsccsssssccccccccc"
       inkscape:connector-curvature="0"
       id="circle15-1"
       d="m 72.639299,148.67011 c -13.383666,3.58614 -30.242622,25.83799 -29.499582,45.73192 0.294966,7.89807 1.131362,9.74894 3.457597,13.92929 2.754377,4.94974 7.113871,9.07708 11.857614,12.17274 7.658131,4.99759 16.326712,6.62168 25.695591,9.60963 3.328963,1.06168 9.00649,13.68446 0.954366,28.89635 15.551715,6.0458 23.266685,6.18848 35.074415,4.49463 -1.40026,-21.87972 9.40913,-20.64017 13.64574,-19.82448 4.27351,1.38784 11.86251,1.3864 13.55556,-2.61945 1.69317,-4.00557 -1.9592,-7.24012 -2.02748,-9.07364 -0.2058,-5.50888 1.9324,-8.51909 2.20206,-8.94982 0.26993,-0.42713 1.66523,-1.1836 1.73262,-2.59732 0.11074,-2.31961 -2.1602,-3.47976 -2.1602,-3.47976 0.83168,-1.32311 3.49929,-2.11525 2.69315,-4.8489 0,0 -3.9997,-6.08199 -3.58735,-9.74095 0.4123,-3.65912 8.01637,-3.16438 6.48091,-6.984 -5.25906,-13.08264 -13.57492,-16.80964 -17.14951,-18.22363 -3.57457,-1.41373 -4.60203,-6.30332 -5.25235,-8.67125 -0.65019,-2.36708 -3.39956,-4.37662 -5.57729,-6.12512 -2.17772,-1.74867 -4.7792,-7.28271 -9.11053,-10.21885 -6.57967,-4.06467 -15.35256,-6.68299 -23.46822,-6.43001 -8.115695,0.25024 -13.784735,1.32885 -19.517225,2.94678 z m 50.407221,25.90083 c 0,0 6.29163,3.63955 5.63989,10.71789 0,0 -5.13503,2.81506 -15.27265,0.57096 1.95369,-6.21069 9.63281,-11.28812 9.63281,-11.28812 z"
       style="display:inline;fill:#a526c4;fill-opacity:1;stroke-width:0.320814" />
  </g>
</svg>
