<?xml version="1.0" encoding="UTF-8" standalone="no"?>
<!-- Created with Inkscape (http://www.inkscape.org/) -->

<svg
   xmlns:dc="http://purl.org/dc/elements/1.1/"
   xmlns:cc="http://creativecommons.org/ns#"
   xmlns:rdf="http://www.w3.org/1999/02/22-rdf-syntax-ns#"
   xmlns:svg="http://www.w3.org/2000/svg"
   xmlns="http://www.w3.org/2000/svg"
   xmlns:sodipodi="http://sodipodi.sourceforge.net/DTD/sodipodi-0.dtd"
   xmlns:inkscape="http://www.inkscape.org/namespaces/inkscape"
   width="32"
   height="32"
   viewBox="0 0 8.466666 8.466667"
   version="1.1"
   id="svg8"
   inkscape:version="0.92.5 (2060ec1f9f, 2020-04-08)"
   sodipodi:docname="ramses-icon-small.svg"
   inkscape:export-filename="/media/DATA2/DEV_SRC/RxOT/Ramses/Ramses-Client/src/resources/icons/appicon/ramses_48.png"
   inkscape:export-xdpi="144.00002"
   inkscape:export-ydpi="144.00002">
  <defs
     id="defs2">
    <style
       id="style2">.a{filter:url(#a);}.b{fill:#710132;}.c{fill:#e3e3e3;}</style>
    <filter
       name="AI_FlouGaussien_4"
       id="a">
      <feGaussianBlur
         id="feGaussianBlur4"
         stdDeviation="4" />
    </filter>
  </defs>
  <sodipodi:namedview
     id="base"
     pagecolor="#ffffff"
     bordercolor="#666666"
     borderopacity="1.0"
     inkscape:pageopacity="0.0"
     inkscape:pageshadow="2"
     inkscape:zoom="4"
     inkscape:cx="16.710832"
     inkscape:cy="12.398517"
     inkscape:document-units="mm"
     inkscape:current-layer="layer1"
     showgrid="false"
     units="px"
     inkscape:window-width="1684"
     inkscape:window-height="1376"
     inkscape:window-x="3676"
     inkscape:window-y="27"
     inkscape:window-maximized="0"
     fit-margin-top="0"
     fit-margin-left="0"
     fit-margin-right="0"
     fit-margin-bottom="0"
     inkscape:snap-nodes="false"
     inkscape:snap-bbox="true"
     inkscape:bbox-paths="true"
     inkscape:bbox-nodes="true"
     inkscape:snap-bbox-edge-midpoints="true"
     inkscape:snap-bbox-midpoints="true"
     inkscape:snap-global="true"
     inkscape:snap-others="true"
     inkscape:snap-object-midpoints="true"
     inkscape:snap-center="true" />
  <metadata
     id="metadata5">
    <rdf:RDF>
      <cc:Work
         rdf:about="">
        <dc:format>image/svg+xml</dc:format>
        <dc:type
           rdf:resource="http://purl.org/dc/dcmitype/StillImage" />
        <dc:title />
      </cc:Work>
    </rdf:RDF>
  </metadata>
  <g
     inkscape:label="Calque 1"
     inkscape:groupmode="layer"
     id="layer1"
     transform="translate(-41.884402,-258.97524)">
    <circle
       style="opacity:1;fill:#e3e4e3;fill-opacity:1;fill-rule:nonzero;stroke:#710132;stroke-width:0.93862259;stroke-linecap:butt;stroke-linejoin:round;stroke-miterlimit:4;stroke-dasharray:none;stroke-opacity:1;paint-order:markers fill stroke"
       id="circle834"
       cx="46.098846"
       cy="263.22354"
       r="3.7472262" />
    <path
       style="display:inline;fill:#710132;stroke-width:0.06877141"
       d="M 11.386719,3.6621094 C 10.498345,3.6592033 9.5687863,3.7460481 8.6230469,3.9394531 A 14.162745,14.162745 0 0 0 1.765625,16.056641 14.162745,14.162745 0 0 0 2.3144531,19.943359 c 0.3936259,0.342239 0.8259481,0.645842 1.3183594,0.876953 2.955103,1.389204 4.9161056,1.416924 5.8789063,2.351563 0.8730022,0.845311 0.1846365,3.24741 -1.1347657,4.847656 a 14.162745,14.162745 0 0 0 0.703125,0.431641 l 8.3828129,-0.0039 c -0.683611,-1.184089 1.955224,-3.784969 2.84375,-3.458985 0.90435,0.331465 2.531032,0.3916 2.925781,-0.453125 0.394745,-0.844497 -0.361328,-1.870833 -0.361328,-1.960937 0,-0.08957 0.481759,-1.808409 0.542968,-1.898438 0.06119,-0.08957 0.364808,-0.240795 0.390626,-0.542969 0.04233,-0.496062 -0.433594,-0.763671 -0.433594,-0.763671 0.188674,-0.27704 0.766045,-0.4236 0.615234,-1.015625 0,0 -0.807057,-1.334649 -0.689453,-2.115235 0.117581,-0.78051 1.232231,-0.902648 1.443359,-1.445312 -1.025382,-3.13663 -2.772923,-3.709514 -3.527343,-4.041016 C 20.45847,10.420489 20.276601,9.365944 20.15625,8.8535156 20.03591,8.3412385 19.462281,7.8880686 19.009766,7.4960938 18.55725,7.1038922 18.044975,5.8979844 17.140625,5.234375 15.763675,4.3109608 13.710532,3.6787904 11.384766,3.6660156 Z m 7.164062,6.4316406 c 0,0 1.319299,0.830742 1.123047,2.341797 0,0 -1.121702,0.56194 -3.27539,0 0.468204,-1.31486 2.152343,-2.341797 2.152343,-2.341797 z"
       transform="matrix(0.26458333,0,0,0.26458333,41.884402,258.97524)"
       id="circle15"
       inkscape:connector-curvature="0" />
  </g>
</svg>
