<?xml version="1.0" encoding="UTF-8" standalone="no"?>
<!-- Created with Inkscape (http://www.inkscape.org/) -->

<svg
   xmlns:dc="http://purl.org/dc/elements/1.1/"
   xmlns:cc="http://creativecommons.org/ns#"
   xmlns:rdf="http://www.w3.org/1999/02/22-rdf-syntax-ns#"
   xmlns:svg="http://www.w3.org/2000/svg"
   xmlns="http://www.w3.org/2000/svg"
   xmlns:sodipodi="http://sodipodi.sourceforge.net/DTD/sodipodi-0.dtd"
   xmlns:inkscape="http://www.inkscape.org/namespaces/inkscape"
   width="128"
   height="128"
   viewBox="0 0 33.866665 33.866668"
   version="1.1"
   id="svg8"
   inkscape:version="0.92.5 (2060ec1f9f, 2020-04-08)"
   sodipodi:docname="ramses-icon-medium.svg">
  <defs
     id="defs2">
    <style
       id="style2">.a{filter:url(#a);}.b{fill:#710132;}.c{fill:#e3e3e3;}</style>
    <filter
       name="AI_FlouGaussien_4"
       id="a">
      <feGaussianBlur
         id="feGaussianBlur4"
         stdDeviation="4" />
    </filter>
  </defs>
  <sodipodi:namedview
     id="base"
     pagecolor="#ffffff"
     bordercolor="#666666"
     borderopacity="1.0"
     inkscape:pageopacity="0.0"
     inkscape:pageshadow="2"
     inkscape:zoom="2"
     inkscape:cx="-14.176591"
     inkscape:cy="100.18582"
     inkscape:document-units="mm"
     inkscape:current-layer="layer1"
     showgrid="false"
     units="px"
     inkscape:window-width="1848"
     inkscape:window-height="1136"
     inkscape:window-x="0"
     inkscape:window-y="27"
     inkscape:window-maximized="1"
     fit-margin-top="0"
     fit-margin-left="0"
     fit-margin-right="0"
     fit-margin-bottom="0"
     inkscape:snap-nodes="false"
     inkscape:snap-bbox="true"
     inkscape:bbox-paths="true"
     inkscape:bbox-nodes="true"
     inkscape:snap-bbox-edge-midpoints="true"
     inkscape:snap-bbox-midpoints="true"
     inkscape:snap-global="true"
     inkscape:snap-others="true"
     inkscape:snap-object-midpoints="true"
     inkscape:snap-center="true" />
  <metadata
     id="metadata5">
    <rdf:RDF>
      <cc:Work
         rdf:about="">
        <dc:format>image/svg+xml</dc:format>
        <dc:type
           rdf:resource="http://purl.org/dc/dcmitype/StillImage" />
        <dc:title></dc:title>
      </cc:Work>
    </rdf:RDF>
  </metadata>
  <g
     inkscape:label="Calque 1"
     inkscape:groupmode="layer"
     id="layer1"
     transform="translate(-41.884402,-233.57524)">
    <path
       sodipodi:nodetypes="ccsccccccsscscccscssscsccccc"
       inkscape:connector-curvature="0"
       id="circle15"
       d="m 58.039449,233.6594 c -1.411246,-0.008 -2.9051,0.1724 -4.420831,0.5862 -5.454958,1.36323 -9.495946,6.29613 -9.495946,12.17345 0,2.33345 0.410074,4.01107 1.218002,5.21111 0.765852,1.25913 1.830377,2.33091 3.22826,2.9871 3.609484,1.6968 6.006005,1.73133 7.182007,2.8729 1.165081,1.12812 1.771729,6.07259 -1.845315,9.90971 l 11.555373,-0.0106 c -1.322999,-6.44196 2.39021,-8.08641 3.475489,-7.68825 1.104603,0.40489 3.090302,0.47879 3.572465,-0.55273 0.482163,-1.03151 -0.441823,-2.28396 -0.441823,-2.394 0,-0.11003 0.588876,-2.21013 0.663638,-2.32017 0.07475,-0.11004 0.441774,-0.29388 0.47873,-0.66265 0.03696,-0.36876 -0.257904,-0.43017 -0.257904,-0.43017 -0.0203,-0.29922 -0.0079,-0.59976 0.03705,-0.89627 0.335186,-0.13596 0.522307,-0.49491 0.441828,-0.84755 0,0 -0.987092,-1.63043 -0.843452,-2.58383 0.143643,-0.9534 1.506122,-1.10124 1.764005,-1.764 -1.252447,-3.83124 -3.387623,-4.53094 -4.309107,-4.93582 -0.92148,-0.40488 -1.14253,-1.69437 -1.289533,-2.32018 -0.146998,-0.62579 -0.846733,-1.17839 -1.399454,-1.65719 -0.55272,-0.4788 -1.179315,-1.95221 -2.283915,-2.76281 -1.681863,-1.12787 -4.188817,-1.89867 -7.029591,-1.91429 z m 10.051134,8.05466 c 0,0 0.86352,0.54347 0.735002,1.53299 0,0 -0.735089,0.36792 -2.145448,0 0.306599,-0.86099 1.410446,-1.53299 1.410446,-1.53299 z"
       style="display:inline;fill:#710132;stroke-width:0.08400007" />
  </g>
</svg>
