<?xml version="1.0" encoding="UTF-8" standalone="no"?>
<!-- Created with Inkscape (http://www.inkscape.org/) -->

<svg
   xmlns:dc="http://purl.org/dc/elements/1.1/"
   xmlns:cc="http://creativecommons.org/ns#"
   xmlns:rdf="http://www.w3.org/1999/02/22-rdf-syntax-ns#"
   xmlns:svg="http://www.w3.org/2000/svg"
   xmlns="http://www.w3.org/2000/svg"
   xmlns:sodipodi="http://sodipodi.sourceforge.net/DTD/sodipodi-0.dtd"
   xmlns:inkscape="http://www.inkscape.org/namespaces/inkscape"
   width="32"
   height="32"
   viewBox="0 0 8.466666 8.466667"
   version="1.1"
   id="svg8"
   inkscape:version="0.92.5 (2060ec1f9f, 2020-04-08)"
   sodipodi:docname="ramses-icon-small.svg">
  <defs
     id="defs2">
    <style
       id="style2">.a{filter:url(#a);}.b{fill:#710132;}.c{fill:#e3e3e3;}</style>
    <filter
       name="AI_FlouGaussien_4"
       id="a">
      <feGaussianBlur
         id="feGaussianBlur4"
         stdDeviation="4" />
    </filter>
  </defs>
  <sodipodi:namedview
     id="base"
     pagecolor="#ffffff"
     bordercolor="#666666"
     borderopacity="1.0"
     inkscape:pageopacity="0.0"
     inkscape:pageshadow="2"
     inkscape:zoom="1"
     inkscape:cx="9.831792"
     inkscape:cy="27.72289"
     inkscape:document-units="mm"
     inkscape:current-layer="layer1"
     showgrid="false"
     units="px"
     inkscape:window-width="1848"
     inkscape:window-height="1136"
     inkscape:window-x="0"
     inkscape:window-y="27"
     inkscape:window-maximized="1"
     fit-margin-top="0"
     fit-margin-left="0"
     fit-margin-right="0"
     fit-margin-bottom="0"
     inkscape:snap-nodes="false"
     inkscape:snap-bbox="true"
     inkscape:bbox-paths="true"
     inkscape:bbox-nodes="true"
     inkscape:snap-bbox-edge-midpoints="true"
     inkscape:snap-bbox-midpoints="true"
     inkscape:snap-global="true"
     inkscape:snap-others="true"
     inkscape:snap-object-midpoints="true"
     inkscape:snap-center="true" />
  <metadata
     id="metadata5">
    <rdf:RDF>
      <cc:Work
         rdf:about="">
        <dc:format>image/svg+xml</dc:format>
        <dc:type
           rdf:resource="http://purl.org/dc/dcmitype/StillImage" />
        <dc:title></dc:title>
      </cc:Work>
    </rdf:RDF>
  </metadata>
  <g
     inkscape:label="Calque 1"
     inkscape:groupmode="layer"
     id="layer1"
     transform="translate(-41.884402,-258.97524)">
    <path
       sodipodi:nodetypes="ccsccccccsscsccscssscsccccc"
       inkscape:connector-curvature="0"
       id="circle15"
       d="m 45.764814,259.00706 c -0.39371,-0.002 -0.810466,0.0481 -1.233325,0.16353 -1.521826,0.38033 -2.649181,1.7565 -2.649181,3.39616 0,0.65098 0.114403,1.11901 0.339799,1.4538 0.213657,0.35126 0.510639,0.65028 0.900621,0.83333 1.006974,0.47338 1.675556,0.48301 2.003638,0.80149 0.325035,0.31473 0.01746,1.26649 -0.514808,1.79875 l 3.223721,-0.002 c -0.232945,-0.40348 0.666822,-1.29009 0.969593,-1.17902 0.308163,0.11296 0.862133,0.13358 0.996647,-0.1542 0.134515,-0.28777 -0.12326,-0.63718 -0.12326,-0.66787 0,-0.0306 0.164285,-0.61659 0.185143,-0.64728 0.02085,-0.0306 0.124766,-0.0819 0.133556,-0.18487 0.01442,-0.16904 -0.148198,-0.2599 -0.148198,-0.2599 0.0643,-0.0944 0.2612,-0.14487 0.209809,-0.3466 0,0 -0.27538,-0.45486 -0.235306,-0.72084 0.04007,-0.26597 0.420178,-0.30722 0.49212,-0.49213 -0.349407,-1.06883 -0.945079,-1.26403 -1.202154,-1.37699 -0.257074,-0.11295 -0.318744,-0.47268 -0.359754,-0.64728 -0.041,-0.17457 -0.236222,-0.32875 -0.390421,-0.46233 -0.154197,-0.13357 -0.329004,-0.54462 -0.637166,-0.77076 -0.469207,-0.31465 -1.168596,-0.52969 -1.961118,-0.53405 z m 2.441708,2.1916 c 0,0 0.449336,0.28282 0.382462,0.79772 0,0 -0.382508,0.19149 -1.116393,0 0.159544,-0.44804 0.733931,-0.79772 0.733931,-0.79772 z"
       style="display:inline;fill:#710132;stroke-width:0.02343436" />
  </g>
</svg>
