<?xml version="1.0" encoding="UTF-8" standalone="no"?>
<!-- Created with Inkscape (http://www.inkscape.org/) -->

<svg
   xmlns:dc="http://purl.org/dc/elements/1.1/"
   xmlns:cc="http://creativecommons.org/ns#"
   xmlns:rdf="http://www.w3.org/1999/02/22-rdf-syntax-ns#"
   xmlns:svg="http://www.w3.org/2000/svg"
   xmlns="http://www.w3.org/2000/svg"
   xmlns:sodipodi="http://sodipodi.sourceforge.net/DTD/sodipodi-0.dtd"
   xmlns:inkscape="http://www.inkscape.org/namespaces/inkscape"
   width="225.32246"
   height="224.01289"
   viewBox="0 0 59.616566 59.27008"
   version="1.1"
   id="svg8"
   inkscape:version="0.92.4 (5da689c313, 2019-01-14)"
   sodipodi:docname="dugr-icon.svg">
  <defs
     id="defs2">
    <style
       id="style815">.cls-1{opacity:0.35;}.cls-2{fill:#701034;}</style>
  </defs>
  <sodipodi:namedview
     id="base"
     pagecolor="#ffffff"
     bordercolor="#666666"
     borderopacity="1.0"
     inkscape:pageopacity="0.0"
     inkscape:pageshadow="2"
     inkscape:zoom="0.98994949"
     inkscape:cx="11.917387"
     inkscape:cy="119.29498"
     inkscape:document-units="px"
     inkscape:current-layer="layer1"
     showgrid="false"
     inkscape:window-width="1846"
     inkscape:window-height="1057"
     inkscape:window-x="1986"
     inkscape:window-y="-8"
     inkscape:window-maximized="1"
     units="px"
     fit-margin-top="0"
     fit-margin-left="0"
     fit-margin-right="0"
     fit-margin-bottom="0" />
  <metadata
     id="metadata5">
    <rdf:RDF>
      <cc:Work
         rdf:about="">
        <dc:format>image/svg+xml</dc:format>
        <dc:type
           rdf:resource="http://purl.org/dc/dcmitype/StillImage" />
        <dc:title></dc:title>
      </cc:Work>
    </rdf:RDF>
  </metadata>
  <g
     inkscape:label="Calque 1"
     inkscape:groupmode="layer"
     id="layer1"
     transform="translate(-38.879985,-196.53852)">
    <g
       data-name="Calque 2"
       id="Calque_2"
       transform="matrix(1.0190866,0,0,1.0190866,38.879985,196.53852)">
      <g
         data-name="Calque 1"
         id="Calque_1-2">
        <g
           id="g823"
           class="cls-1"
           style="opacity:0.35">
          <path
             id="path821"
             d="m 54.79,1 a 2.71,2.71 0 0 1 2.71,2.71 v 11.23 a 2.72,2.72 0 0 1 -2.71,2.71 H 43.56 A 2.72,2.72 0 0 1 40.85,14.94 V 3.71 A 2.71,2.71 0 0 1 43.56,1 h 11.23 m 0,-1 H 43.56 a 3.71,3.71 0 0 0 -3.71,3.71 v 11.23 a 3.71,3.71 0 0 0 3.71,3.71 H 54.79 A 3.71,3.71 0 0 0 58.5,14.94 V 3.71 A 3.71,3.71 0 0 0 54.79,0 Z"
             class="cls-2"
             inkscape:connector-curvature="0"
             style="fill:#701034" />
        </g>
        <path
           id="path825"
           d="m 34.87,1 a 2.7,2.7 0 0 1 2.7,2.71 v 11.23 a 2.71,2.71 0 0 1 -2.7,2.71 H 23.63 a 2.71,2.71 0 0 1 -2.7,-2.71 V 3.71 A 2.7,2.7 0 0 1 23.63,1 h 11.24 m 0,-1 H 23.63 a 3.71,3.71 0 0 0 -3.7,3.71 v 11.23 a 3.71,3.71 0 0 0 3.7,3.71 h 11.24 a 3.71,3.71 0 0 0 3.7,-3.71 V 3.71 A 3.71,3.71 0 0 0 34.87,0 Z"
           class="cls-2"
           inkscape:connector-curvature="0"
           style="fill:#701034" />
        <g
           id="g829"
           class="cls-1"
           style="opacity:0.35">
          <path
             id="path827"
             d="m 14.94,1 a 2.71,2.71 0 0 1 2.71,2.71 v 11.23 a 2.72,2.72 0 0 1 -2.71,2.71 H 3.71 A 2.71,2.71 0 0 1 1,14.94 V 3.71 A 2.71,2.71 0 0 1 3.71,1 h 11.23 m 0,-1 H 3.71 A 3.71,3.71 0 0 0 0,3.71 v 11.23 a 3.71,3.71 0 0 0 3.71,3.71 h 11.23 a 3.71,3.71 0 0 0 3.71,-3.71 V 3.71 A 3.71,3.71 0 0 0 14.94,0 Z"
             class="cls-2"
             inkscape:connector-curvature="0"
             style="fill:#701034" />
        </g>
        <path
           id="path831"
           d="m 54.79,20.76 a 2.71,2.71 0 0 1 2.71,2.7 V 34.7 a 2.71,2.71 0 0 1 -2.71,2.7 H 43.56 A 2.71,2.71 0 0 1 40.85,34.7 V 23.46 a 2.71,2.71 0 0 1 2.71,-2.7 h 11.23 m 0,-1 H 43.56 a 3.71,3.71 0 0 0 -3.71,3.7 V 34.7 a 3.71,3.71 0 0 0 3.71,3.7 H 54.79 A 3.71,3.71 0 0 0 58.5,34.7 V 23.46 a 3.71,3.71 0 0 0 -3.71,-3.7 z"
           class="cls-2"
           inkscape:connector-curvature="0"
           style="fill:#701034" />
        <rect
           id="rect833"
           rx="3.71"
           height="18.65"
           width="18.65"
           y="19.76"
           x="19.93"
           class="cls-2"
           style="fill:#701034" />
        <path
           id="path835"
           d="m 14.94,20.76 a 2.71,2.71 0 0 1 2.71,2.7 V 34.7 a 2.71,2.71 0 0 1 -2.71,2.7 H 3.71 A 2.7,2.7 0 0 1 1,34.7 V 23.46 a 2.7,2.7 0 0 1 2.71,-2.7 h 11.23 m 0,-1 H 3.71 A 3.71,3.71 0 0 0 0,23.46 V 34.7 a 3.71,3.71 0 0 0 3.71,3.7 h 11.23 a 3.71,3.71 0 0 0 3.71,-3.7 V 23.46 a 3.71,3.71 0 0 0 -3.71,-3.7 z"
           class="cls-2"
           inkscape:connector-curvature="0"
           style="fill:#701034" />
        <g
           id="g839"
           class="cls-1"
           style="opacity:0.35">
          <path
             id="path837"
             d="m 54.79,40.51 a 2.72,2.72 0 0 1 2.71,2.71 v 11.23 a 2.72,2.72 0 0 1 -2.71,2.71 H 43.56 A 2.72,2.72 0 0 1 40.85,54.45 V 43.22 a 2.72,2.72 0 0 1 2.71,-2.71 h 11.23 m 0,-1 H 43.56 a 3.71,3.71 0 0 0 -3.71,3.71 v 11.23 a 3.71,3.71 0 0 0 3.71,3.71 H 54.79 A 3.71,3.71 0 0 0 58.5,54.45 V 43.22 a 3.71,3.71 0 0 0 -3.71,-3.71 z"
             class="cls-2"
             inkscape:connector-curvature="0"
             style="fill:#701034" />
        </g>
        <path
           id="path841"
           d="m 34.87,40.51 a 2.71,2.71 0 0 1 2.7,2.71 v 11.23 a 2.71,2.71 0 0 1 -2.7,2.71 H 23.63 a 2.71,2.71 0 0 1 -2.7,-2.71 V 43.22 a 2.71,2.71 0 0 1 2.7,-2.71 h 11.24 m 0,-1 H 23.63 a 3.71,3.71 0 0 0 -3.7,3.71 v 11.23 a 3.71,3.71 0 0 0 3.7,3.71 h 11.24 a 3.71,3.71 0 0 0 3.7,-3.71 V 43.22 a 3.71,3.71 0 0 0 -3.7,-3.71 z"
           class="cls-2"
           inkscape:connector-curvature="0"
           style="fill:#701034" />
        <g
           id="g845"
           class="cls-1"
           style="opacity:0.35">
          <path
             id="path843"
             d="m 14.94,40.51 a 2.72,2.72 0 0 1 2.71,2.71 v 11.23 a 2.72,2.72 0 0 1 -2.71,2.71 H 3.71 A 2.71,2.71 0 0 1 1,54.45 V 43.22 a 2.71,2.71 0 0 1 2.71,-2.71 h 11.23 m 0,-1 H 3.71 A 3.71,3.71 0 0 0 0,43.22 v 11.23 a 3.71,3.71 0 0 0 3.71,3.71 h 11.23 a 3.71,3.71 0 0 0 3.71,-3.71 V 43.22 a 3.71,3.71 0 0 0 -3.71,-3.71 z"
             class="cls-2"
             inkscape:connector-curvature="0"
             style="fill:#701034" />
        </g>
      </g>
    </g>
  </g>
</svg>
