<?xml version="1.0" encoding="UTF-8" standalone="no"?>
<!-- Created with Inkscape (http://www.inkscape.org/) -->

<svg
   xmlns:dc="http://purl.org/dc/elements/1.1/"
   xmlns:cc="http://creativecommons.org/ns#"
   xmlns:rdf="http://www.w3.org/1999/02/22-rdf-syntax-ns#"
   xmlns:svg="http://www.w3.org/2000/svg"
   xmlns="http://www.w3.org/2000/svg"
   xmlns:sodipodi="http://sodipodi.sourceforge.net/DTD/sodipodi-0.dtd"
   xmlns:inkscape="http://www.inkscape.org/namespaces/inkscape"
   width="32"
   height="32"
   viewBox="0 0 8.4666666 8.4666666"
   version="1.1"
   id="svg8"
   inkscape:version="0.92.5 (2060ec1f9f, 2020-04-08)"
   sodipodi:docname="image-sync-backup_bd.svg">
  <defs
     id="defs2">
    <style
       id="style1399">.cls-1{fill:#e3e3e3;}</style>
    <style
       id="style1399-9">.cls-1{fill:#e3e3e3;}</style>
    <style
       id="style1399-5">.cls-1{fill:#e3e3e3;}</style>
  </defs>
  <sodipodi:namedview
     id="base"
     pagecolor="#ffffff"
     bordercolor="#666666"
     borderopacity="1.0"
     inkscape:pageopacity="0.0"
     inkscape:pageshadow="2"
     inkscape:zoom="16"
     inkscape:cx="12.360729"
     inkscape:cy="15.894282"
     inkscape:document-units="mm"
     inkscape:current-layer="svg8"
     showgrid="false"
     units="px"
     inkscape:window-width="1237"
     inkscape:window-height="1136"
     inkscape:window-x="0"
     inkscape:window-y="27"
     inkscape:window-maximized="0">
    <sodipodi:guide
       position="8.4666666,0"
       orientation="-32,0"
       id="guide854"
       inkscape:locked="false" />
    <sodipodi:guide
       position="8.4666666,8.4657622"
       orientation="0,-32"
       id="guide856"
       inkscape:locked="false" />
    <sodipodi:guide
       position="0,8.4666814"
       orientation="32,0"
       id="guide858"
       inkscape:locked="false" />
  </sodipodi:namedview>
  <metadata
     id="metadata5">
    <rdf:RDF>
      <cc:Work
         rdf:about="">
        <dc:format>image/svg+xml</dc:format>
        <dc:type
           rdf:resource="http://purl.org/dc/dcmitype/StillImage" />
        <dc:title></dc:title>
      </cc:Work>
    </rdf:RDF>
  </metadata>
  <path
     style="fill:#232323;fill-opacity:1;stroke-width:0.01471477"
     d="m 0.71468506,9.0440001e-4 c -0.39008857,0 -0.70590007,0.31581116999 -0.70590007,0.70590005999 V 4.9447886 c 0,0.3900887 0.3158115,0.7059001 0.70590007,0.7059001 H 3.9997559 C 4.1172442,5.2982306 4.3062075,4.9792498 4.5501099,4.7096608 H 0.95032958 V 4.0027272 L 2.0024617,2.9505952 c 0.068968,-0.068951 0.1811607,-0.068951 0.250114,0 L 3.0695799,3.7675994 5.0637736,1.773406 c 0.034484,-0.034476 0.07935,-0.05116 0.1245401,-0.05116 0.045191,0 0.09058,0.016683 0.1250569,0.05116 l 1.2877768,1.2877765 v 0.7725627 c 0.3379174,0.013128 0.6505948,0.1049592 0.9415444,0.2423626 V 0.70680446 c 0,-0.39008889 -0.3163281,-0.70590005999 -0.7064166,-0.70590005999 z M 1.6567464,0.82462672 c 0.4550987,0 0.8237223,0.36914038 0.8237223,0.82423908 0,0.455098 -0.3686236,0.8237223 -0.8237223,0.8237223 -0.4550984,0 -0.82423908,-0.3686243 -0.82423908,-0.8237223 0,-0.4550987 0.36914068,-0.82423908 0.82423908,-0.82423908 z"
     id="path933"
     inkscape:connector-curvature="0" />
  <g
     transform="matrix(0.47161363,0,0,0.47161363,4.473219,-131.61382)"
     id="layer1"
     inkscape:label="Layer 1"
     style="fill:#00a2a3">
    <path
       inkscape:connector-curvature="0"
       id="path1058"
       transform="matrix(0.26458333,0,0,0.26458333,0,288.53334)"
       d="M 16,0 A 15.999999,15.999999 0 0 0 0,16 15.999999,15.999999 0 0 0 16,32 15.999999,15.999999 0 0 0 32,16 15.999999,15.999999 0 0 0 16,0 Z m -0.02344,6.3847656 c 2.572404,0 4.9072,1.0110094 6.63086,2.6582032 L 23.990232,7.6601562 C 24.575536,7.0748586 25.57617,7.4904917 25.57617,8.3183594 v 5.1894526 c 0,0.513147 -0.414594,0.929688 -0.927734,0.929688 h -5.191407 c -0.827762,0 -1.241552,-1.002517 -0.65625,-1.587891 l 1.615235,-1.615234 C 19.205767,10.101159 17.63691,9.4809101 15.970701,9.4824219 c -2.998634,0.00227 -5.587975,2.0581251 -6.3027342,4.9101561 -0.052029,0.207496 -0.2371259,0.353516 -0.4511719,0.353516 h -2.21875 c -0.2902715,0 -0.5107259,-0.263474 -0.4570313,-0.548828 C 7.3786476,9.7491018 11.285044,6.3847656 15.97656,6.3847656 Z m 6.757813,10.8398434 h 2.21875 c 0.290271,0 0.510727,0.263474 0.457031,0.548829 -0.837672,4.44805 -4.742078,7.8125 -9.433594,7.8125 -2.572403,0 -4.909153,-1.01101 -6.632812,-2.658204 L 7.9609375,24.310547 C 7.3756349,24.895882 6.375,24.480174 6.375,23.652344 v -5.189453 c 0,-0.513147 0.4165467,-0.929688 0.9296875,-0.929688 h 5.1894535 c 0.827762,0 1.241552,1.000602 0.65625,1.585938 l -1.615235,1.617187 c 1.210247,1.133291 2.781018,1.753465 4.447266,1.751953 2.997085,-0.0023 5.585673,-2.056802 6.300781,-4.910156 0.05203,-0.207496 0.237126,-0.353516 0.451172,-0.353516 z"
       style="fill:#00a2a3;fill-opacity:1;stroke:none;stroke-width:5.91496086;stroke-miterlimit:4;stroke-dasharray:none;stroke-opacity:1" />
  </g>
</svg>
