<?xml version="1.0" encoding="UTF-8" standalone="no"?>
<svg
   xmlns:dc="http://purl.org/dc/elements/1.1/"
   xmlns:cc="http://creativecommons.org/ns#"
   xmlns:rdf="http://www.w3.org/1999/02/22-rdf-syntax-ns#"
   xmlns:svg="http://www.w3.org/2000/svg"
   xmlns="http://www.w3.org/2000/svg"
   xmlns:sodipodi="http://sodipodi.sourceforge.net/DTD/sodipodi-0.dtd"
   xmlns:inkscape="http://www.inkscape.org/namespaces/inkscape"
   width="32"
   height="32"
   viewBox="0 0 8.4666666 8.4666666"
   version="1.1"
   id="svg8"
   inkscape:version="1.0.1 (3bc2e813f5, 2020-09-07)"
   sodipodi:docname="point-light-sun_sd.svg">
  <defs
     id="defs2">
    <style
       id="style1399">.cls-1{fill:#e3e3e3;}</style>
    <style
       id="style1399-4">.cls-1{fill:#e3e3e3;}</style>
    <style
       id="style1399-5">.cls-1{fill:#e3e3e3;}</style>
    <style
       id="style1399-7">.cls-1{fill:#e3e3e3;}</style>
    <style
       id="style1399-85">.cls-1{fill:#e3e3e3;}</style>
    <style
       id="style1399-4-6">.cls-1{fill:#e3e3e3;}</style>
    <style
       id="style1399-8">.cls-1{fill:#e3e3e3;}</style>
    <style
       id="style1399-4-5">.cls-1{fill:#e3e3e3;}</style>
  </defs>
  <sodipodi:namedview
     id="base"
     pagecolor="#ffffff"
     bordercolor="#666666"
     borderopacity="1.0"
     inkscape:pageopacity="0.0"
     inkscape:pageshadow="2"
     inkscape:zoom="5.6568543"
     inkscape:cx="23.740337"
     inkscape:cy="-1.6314119"
     inkscape:document-units="mm"
     inkscape:current-layer="svg8"
     showgrid="false"
     units="px"
     inkscape:window-width="1876"
     inkscape:window-height="1016"
     inkscape:window-x="0"
     inkscape:window-y="27"
     inkscape:window-maximized="1"
     inkscape:document-rotation="0"
     inkscape:snap-bbox="true"
     inkscape:bbox-paths="true"
     inkscape:bbox-nodes="true"
     inkscape:snap-bbox-edge-midpoints="true"
     inkscape:snap-bbox-midpoints="true"
     inkscape:snap-nodes="false">
    <sodipodi:guide
       position="8.4666666,0"
       orientation="-32,0"
       id="guide854"
       inkscape:locked="false" />
    <sodipodi:guide
       position="0,8.4666666"
       orientation="0,-32"
       id="guide856"
       inkscape:locked="false" />
    <sodipodi:guide
       position="0,8.4666666"
       orientation="32,0"
       id="guide858"
       inkscape:locked="false" />
  </sodipodi:namedview>
  <metadata
     id="metadata5">
    <rdf:RDF>
      <cc:Work
         rdf:about="">
        <dc:format>image/svg+xml</dc:format>
        <dc:type
           rdf:resource="http://purl.org/dc/dcmitype/StillImage" />
        <dc:title></dc:title>
      </cc:Work>
    </rdf:RDF>
  </metadata>
  <path
     id="path909"
     style="color:#000000;font-style:normal;font-variant:normal;font-weight:normal;font-stretch:normal;font-size:medium;line-height:normal;font-family:sans-serif;font-variant-ligatures:normal;font-variant-position:normal;font-variant-caps:normal;font-variant-numeric:normal;font-variant-alternates:normal;font-variant-east-asian:normal;font-feature-settings:normal;font-variation-settings:normal;text-indent:0;text-align:start;text-decoration:none;text-decoration-line:none;text-decoration-style:solid;text-decoration-color:#000000;letter-spacing:normal;word-spacing:normal;text-transform:none;writing-mode:lr-tb;direction:ltr;text-orientation:mixed;dominant-baseline:auto;baseline-shift:baseline;text-anchor:start;white-space:normal;shape-padding:0;shape-margin:0;inline-size:0;clip-rule:nonzero;display:inline;overflow:visible;visibility:visible;isolation:auto;mix-blend-mode:normal;color-interpolation:sRGB;color-interpolation-filters:linearRGB;solid-color:#000000;solid-opacity:1;vector-effect:none;fill:#232323;fill-opacity:1;fill-rule:evenodd;stroke:none;stroke-width:0.70323;stroke-linecap:butt;stroke-linejoin:miter;stroke-miterlimit:4;stroke-dasharray:none;stroke-dashoffset:0;stroke-opacity:1;color-rendering:auto;image-rendering:auto;shape-rendering:auto;text-rendering:auto;enable-background:accumulate;stop-color:#000000"
     d="M 16 0.140625 A 0.87874016 0.87874016 0 0 0 15.121094 1.0195312 L 15.121094 8.4667969 A 0.87874016 0.87874016 0 0 0 16 9.3457031 A 0.87874016 0.87874016 0 0 0 16.876953 8.4667969 L 16.876953 1.0195312 A 0.87874016 0.87874016 0 0 0 16 0.140625 z M 8.5058594 2.1484375 A 0.87874016 0.87874016 0 0 0 8.0703125 2.265625 A 0.87874016 0.87874016 0 0 0 7.7460938 3.4628906 L 11.474609 9.9140625 A 0.87874016 0.87874016 0 0 0 12.669922 10.238281 A 0.87874016 0.87874016 0 0 0 12.994141 9.0351562 L 9.2675781 2.5839844 A 0.87874016 0.87874016 0 0 0 8.5058594 2.1484375 z M 23.492188 2.1484375 A 0.87874016 0.87874016 0 0 0 22.732422 2.5839844 L 19.003906 9.0351562 A 0.87874016 0.87874016 0 0 0 19.328125 10.238281 A 0.87874016 0.87874016 0 0 0 20.523438 9.9140625 L 24.251953 3.4628906 A 0.87874016 0.87874016 0 0 0 23.935547 2.265625 A 0.87874016 0.87874016 0 0 0 23.492188 2.1484375 z M 3.0214844 7.6328125 A 0.87874016 0.87874016 0 0 0 2.2617188 8.0683594 A 0.87874016 0.87874016 0 0 0 2.5859375 9.2714844 L 9.0371094 12.992188 A 0.87874016 0.87874016 0 0 0 10.242188 12.673828 A 0.87874016 0.87874016 0 0 0 9.9160156 11.470703 L 3.4648438 7.7441406 A 0.87874016 0.87874016 0 0 0 3.0214844 7.6328125 z M 28.976562 7.6328125 A 0.87874016 0.87874016 0 0 0 28.533203 7.7441406 L 22.082031 11.470703 A 0.87874016 0.87874016 0 0 0 21.763672 12.673828 A 0.87874016 0.87874016 0 0 0 22.960938 12.992188 L 29.412109 9.2714844 A 0.87874016 0.87874016 0 0 0 29.736328 8.0683594 A 0.87874016 0.87874016 0 0 0 28.976562 7.6328125 z M 16 10.701172 C 13.074003 10.701172 10.701172 13.074003 10.701172 16 C 10.701172 18.925997 13.074003 21.298828 16 21.298828 C 18.925997 21.298828 21.298828 18.925997 21.298828 16 C 21.298828 13.074003 18.925997 10.701172 16 10.701172 z M 1.0136719 15.117188 A 0.87874016 0.87874016 0 0 0 0.13476562 15.996094 A 0.87874016 0.87874016 0 0 0 1.0136719 16.882812 L 8.46875 16.882812 A 0.87874016 0.87874016 0 0 0 9.3476562 15.996094 A 0.87874016 0.87874016 0 0 0 8.46875 15.117188 L 1.0136719 15.117188 z M 23.529297 15.117188 A 0.87874016 0.87874016 0 0 0 22.650391 15.996094 A 0.87874016 0.87874016 0 0 0 23.529297 16.882812 L 30.984375 16.882812 A 0.87874016 0.87874016 0 0 0 31.863281 15.996094 A 0.87874016 0.87874016 0 0 0 30.984375 15.117188 L 23.529297 15.117188 z M 9.4804688 18.890625 A 0.87874016 0.87874016 0 0 0 9.0371094 19.007812 L 2.5859375 22.728516 A 0.87874016 0.87874016 0 0 0 2.2617188 23.931641 A 0.87874016 0.87874016 0 0 0 3.4648438 24.25 L 9.9160156 20.529297 A 0.87874016 0.87874016 0 0 0 10.242188 19.326172 A 0.87874016 0.87874016 0 0 0 9.4804688 18.890625 z M 22.525391 18.890625 A 0.87874016 0.87874016 0 0 0 21.763672 19.326172 A 0.87874016 0.87874016 0 0 0 22.082031 20.529297 L 28.533203 24.25 A 0.87874016 0.87874016 0 0 0 29.736328 23.931641 A 0.87874016 0.87874016 0 0 0 29.412109 22.728516 L 22.960938 19.007812 A 0.87874016 0.87874016 0 0 0 22.525391 18.890625 z M 12.234375 21.644531 A 0.87874016 0.87874016 0 0 0 11.474609 22.085938 L 7.7460938 28.539062 A 0.87874016 0.87874016 0 0 0 8.0703125 29.734375 A 0.87874016 0.87874016 0 0 0 9.2675781 29.416016 L 12.994141 22.964844 A 0.87874016 0.87874016 0 0 0 12.669922 21.761719 A 0.87874016 0.87874016 0 0 0 12.234375 21.644531 z M 19.763672 21.644531 A 0.87874016 0.87874016 0 0 0 19.328125 21.761719 A 0.87874016 0.87874016 0 0 0 19.003906 22.964844 L 22.732422 29.416016 A 0.87874016 0.87874016 0 0 0 23.935547 29.734375 A 0.87874016 0.87874016 0 0 0 24.251953 28.539062 L 20.523438 22.085938 A 0.87874016 0.87874016 0 0 0 19.763672 21.644531 z M 16 22.654297 A 0.87874016 0.87874016 0 0 0 15.121094 23.533203 L 15.121094 30.982422 A 0.87874016 0.87874016 0 0 0 16 31.859375 A 0.87874016 0.87874016 0 0 0 16.876953 30.982422 L 16.876953 23.533203 A 0.87874016 0.87874016 0 0 0 16 22.654297 z "
     transform="scale(0.26458333)" />
</svg>
