<?xml version="1.0" encoding="UTF-8" standalone="no"?>
<svg
   xmlns:dc="http://purl.org/dc/elements/1.1/"
   xmlns:cc="http://creativecommons.org/ns#"
   xmlns:rdf="http://www.w3.org/1999/02/22-rdf-syntax-ns#"
   xmlns:svg="http://www.w3.org/2000/svg"
   xmlns="http://www.w3.org/2000/svg"
   xmlns:sodipodi="http://sodipodi.sourceforge.net/DTD/sodipodi-0.dtd"
   xmlns:inkscape="http://www.inkscape.org/namespaces/inkscape"
   viewBox="0 0 359.86133 397.65127"
   version="1.1"
   id="svg23"
   sodipodi:docname="Ramses-icon.svg"
   inkscape:version="0.92.5 (2060ec1f9f, 2020-04-08)"
   width="359.86133"
   height="397.65128">
  <metadata
     id="metadata27">
    <rdf:RDF>
      <cc:Work
         rdf:about="">
        <dc:format>image/svg+xml</dc:format>
        <dc:type
           rdf:resource="http://purl.org/dc/dcmitype/StillImage" />
        <dc:title>logo</dc:title>
      </cc:Work>
    </rdf:RDF>
  </metadata>
  <sodipodi:namedview
     pagecolor="#ffffff"
     bordercolor="#666666"
     borderopacity="1"
     objecttolerance="10"
     gridtolerance="10"
     guidetolerance="10"
     inkscape:pageopacity="0"
     inkscape:pageshadow="2"
     inkscape:window-width="1870"
     inkscape:window-height="1052"
     id="namedview25"
     showgrid="false"
     inkscape:zoom="0.921875"
     inkscape:cx="-157.99831"
     inkscape:cy="170.42074"
     inkscape:window-x="1920"
     inkscape:window-y="0"
     inkscape:window-maximized="1"
     inkscape:current-layer="svg23"
     fit-margin-top="0"
     fit-margin-left="0"
     fit-margin-right="0"
     fit-margin-bottom="0" />
  <defs
     id="defs7">
    <style
       id="style2">.a{filter:url(#a);}.b{fill:#710132;}.c{fill:#e3e3e3;}</style>
    <filter
       id="a"
       name="AI_FlouGaussien_4">
      <feGaussianBlur
         stdDeviation="4"
         id="feGaussianBlur4" />
    </filter>
  </defs>
  <title
     id="title9">logo</title>
  <path
     style="display:inline;fill:#710132"
     d="M 165.67578,0.00285688 C 148.87524,-0.08953312 131.09127,2.0552189 113.04687,6.9813729 48.106933,23.210311 3e-6,81.935413 0,151.90324 c 0,27.77916 4.881805,47.75086 14.5,62.03711 9.11728,14.98948 21.790166,27.74876 38.431643,35.56055 42.97,20.2 71.499997,20.61117 85.499997,34.20117 13.87,13.43 24.98969,46.67938 -18.07031,92.35938 l 133.10937,21.58984 c -15.75,-76.69 29.01164,-92.36891 41.93164,-87.62891 13.15,4.82 36.7893,5.69993 42.5293,-6.58008 5.74,-12.27999 -5.25977,-27.18999 -5.25977,-28.5 0,-1.31 7.01043,-26.31109 7.90039,-27.62109 0.89,-1.31 5.25922,-3.49867 5.69922,-7.88867 0.44,-4.39 -3.07031,-5.12109 -3.07031,-5.12109 -0.24203,-3.5621 -0.094,-7.13999 0.44141,-10.66993 3.99023,-1.61848 6.21789,-5.89182 5.25976,-10.08984 0,0 -11.75101,-19.40977 -10.04101,-30.75977 1.71,-11.35 17.93,-13.11 21,-21 -14.91,-45.61 -40.32883,-53.93976 -51.29883,-58.75976 -10.97,-4.819997 -13.60156,-20.171097 -15.35156,-27.621087 -1.75,-7.45 -10.08016,-14.02852 -16.66016,-19.72852 -6.58,-5.7 -14.03945,-23.240624 -27.18945,-32.890624 C 229.33914,9.3650439 199.49449,0.18883088 165.67578,0.00285688 Z M 285.33203,95.891523 c 0,0 10.28,6.469997 8.75,18.249997 0,0 -8.75101,4.38 -25.54101,0 3.64999,-10.25 16.79101,-18.249997 16.79101,-18.249997 z"
     id="circle15"
     inkscape:connector-curvature="0"
     sodipodi:nodetypes="scsccccccsscscccscssscscccc" />
</svg>
