<?xml version="1.0" encoding="UTF-8" standalone="no"?>
<!-- Created with Inkscape (http://www.inkscape.org/) -->

<svg
   xmlns:dc="http://purl.org/dc/elements/1.1/"
   xmlns:cc="http://creativecommons.org/ns#"
   xmlns:rdf="http://www.w3.org/1999/02/22-rdf-syntax-ns#"
   xmlns:svg="http://www.w3.org/2000/svg"
   xmlns="http://www.w3.org/2000/svg"
   xmlns:sodipodi="http://sodipodi.sourceforge.net/DTD/sodipodi-0.dtd"
   xmlns:inkscape="http://www.inkscape.org/namespaces/inkscape"
   width="32"
   height="32"
   viewBox="0 0 8.4666666 8.4666666"
   version="1.1"
   id="svg8"
   inkscape:version="0.92.5 (2060ec1f9f, 2020-04-08)"
   sodipodi:docname="bug-report_bl.svg">
  <defs
     id="defs2">
    <style
       id="style1399">.cls-1{fill:#e3e3e3;}</style>
    <style
       id="style1399-1">.cls-1{fill:#e3e3e3;}</style>
    <style
       id="style1399-5">.cls-1{fill:#e3e3e3;}</style>
    <style
       id="style1399-8">.cls-1{fill:#e3e3e3;}</style>
    <style
       id="style1399-7">.cls-1{fill:#e3e3e3;}</style>
    <style
       id="style1399-1-5">.cls-1{fill:#e3e3e3;}</style>
    <style
       id="style1399-5-6">.cls-1{fill:#e3e3e3;}</style>
    <style
       id="style1399-8-9">.cls-1{fill:#e3e3e3;}</style>
    <style
       id="style1399-3">.cls-1{fill:#e3e3e3;}</style>
    <style
       id="style1399-1-8">.cls-1{fill:#e3e3e3;}</style>
    <style
       id="style1399-5-60">.cls-1{fill:#e3e3e3;}</style>
    <style
       id="style1399-8-4">.cls-1{fill:#e3e3e3;}</style>
    <style
       id="style1399-4">.cls-1{fill:#e3e3e3;}</style>
    <style
       id="style1399-1-3">.cls-1{fill:#e3e3e3;}</style>
    <style
       id="style1399-5-0">.cls-1{fill:#e3e3e3;}</style>
    <style
       id="style1399-8-3">.cls-1{fill:#e3e3e3;}</style>
    <style
       id="style1399-9">.cls-1{fill:#e3e3e3;}</style>
    <style
       id="style1399-1-4">.cls-1{fill:#e3e3e3;}</style>
    <style
       id="style1399-5-69">.cls-1{fill:#e3e3e3;}</style>
    <style
       id="style1399-8-2">.cls-1{fill:#e3e3e3;}</style>
    <style
       id="style1399-0">.cls-1{fill:#e3e3e3;}</style>
    <style
       id="style1399-1-2">.cls-1{fill:#e3e3e3;}</style>
    <style
       id="style1399-5-1">.cls-1{fill:#e3e3e3;}</style>
    <style
       id="style1399-8-0">.cls-1{fill:#e3e3e3;}</style>
    <style
       id="style1399-7-5">.cls-1{fill:#e3e3e3;}</style>
    <style
       id="style1399-1-5-1">.cls-1{fill:#e3e3e3;}</style>
    <style
       id="style1399-5-6-1">.cls-1{fill:#e3e3e3;}</style>
    <style
       id="style1399-8-9-0">.cls-1{fill:#e3e3e3;}</style>
  </defs>
  <sodipodi:namedview
     id="base"
     pagecolor="#ffffff"
     bordercolor="#666666"
     borderopacity="1.0"
     inkscape:pageopacity="0.0"
     inkscape:pageshadow="2"
     inkscape:zoom="7.9999996"
     inkscape:cx="-19.404345"
     inkscape:cy="22.338583"
     inkscape:document-units="mm"
     inkscape:current-layer="svg8"
     showgrid="false"
     units="px"
     inkscape:window-width="1920"
     inkscape:window-height="1043"
     inkscape:window-x="0"
     inkscape:window-y="120"
     inkscape:window-maximized="1">
    <sodipodi:guide
       position="8.4666666,0"
       orientation="-32,0"
       id="guide854"
       inkscape:locked="false" />
    <sodipodi:guide
       position="8.4666666,8.4666666"
       orientation="0,-32"
       id="guide856"
       inkscape:locked="false" />
    <sodipodi:guide
       position="0,8.4666814"
       orientation="1,6.123234e-17"
       id="guide858"
       inkscape:locked="false" />
  </sodipodi:namedview>
  <metadata
     id="metadata5">
    <rdf:RDF>
      <cc:Work
         rdf:about="">
        <dc:format>image/svg+xml</dc:format>
        <dc:type
           rdf:resource="http://purl.org/dc/dcmitype/StillImage" />
        <dc:title></dc:title>
      </cc:Work>
    </rdf:RDF>
  </metadata>
  <path
     id="path1110"
     d="M 3.1167019,0 C 2.698461,0 2.3586085,0.3398504 2.3586085,0.7580932 v 3.4127116 c 0,0.00834 0.00232,0.016016 0.00258,0.024288 h 1.1539351 c 0.408123,0 0.7270166,0.2970995 0.735918,0.7228316 l 0.00305,1.0062617 c 3.519e-4,0.1161151 0.132742,0.1834423 0.2263426,0.1147218 L 5.9604557,4.928898 h 1.7058391 c 0.4182407,0 0.7580932,-0.3398576 0.7580932,-0.7580932 V 0.7580932 C 8.424388,0.3398504 8.0845355,0 7.6662948,0 Z m 2.319238,0.6614583 c 0.4271309,0 0.7735964,0.3464687 0.7735964,0.7735962 H 4.6628608 c 0,-0.4271275 0.345949,-0.7735962 0.7730791,-0.7735962 z M 4.1032048,1.3244669 c 0.056551,0 0.1134288,0.021449 0.1565797,0.064596 L 4.6370223,1.7663004 H 6.2214217 L 6.5986598,1.3890625 c 0.086301,-0.086293 0.2263407,-0.086293 0.3126423,0 0.086287,0.086297 0.086287,0.2263454 0,0.3126424 L 6.5893581,2.0236491 V 2.429309 h 0.3865396 c 0.124101,0 0.2240836,0.1019803 0.2206583,0.2268595 C 7.193266,2.776524 7.0916463,2.8711424 6.9712469,2.8711424 H 6.5893581 V 2.98173 c 0,0.1509758 -0.033853,0.2940251 -0.094051,0.4221965 l 0.4159951,0.4159953 c 0.086288,0.086297 0.086288,0.2258288 0,0.3121258 -0.086302,0.086292 -0.2263482,0.086288 -0.3126423,0 L 6.2209049,3.7542927 C 6.0500008,3.8928992 5.832305,3.9759847 5.5951034,3.9759847 V 2.291333 c 0,-0.04576 -0.037432,-0.083199 -0.083199,-0.083199 H 5.3465398 c -0.045759,0 -0.083199,0.037436 -0.083199,0.083199 v 1.6846517 c -0.2372018,0 -0.4548965,-0.083086 -0.6258017,-0.221692 L 4.2597845,4.1320476 c -0.086302,0.086292 -0.1772544,0.086288 -0.2635496,0 -0.086287,-0.086297 -0.13538,-0.2258287 -0.049093,-0.3121258 L 4.3631373,3.4039265 C 4.3029372,3.2757551 4.2690861,3.1327058 4.2690861,2.98173 V 2.8711424 H 3.8871974 c -0.1204002,0 -0.2225246,-0.094618 -0.2258261,-0.2149739 C 3.6579213,2.5312893 3.7584453,2.429309 3.8825466,2.429309 H 4.2690861 V 2.0236491 L 3.9471419,1.7017049 c -0.086287,-0.086297 -0.086287,-0.2263496 0,-0.3126424 0.043151,-0.043147 0.099512,-0.064596 0.1560629,-0.064596 z M 0.86981058,4.889624 c -0.17808292,0 -0.32246093,0.1443781 -0.32246093,0.322461 v 2.3647135 c 0,0.00384 0.001935,0.00704 0.002067,0.010852 L 1.6697617,6.4621377 1.4547877,6.2471638 C 1.3532931,6.1456598 1.4253041,5.9722453 1.5684759,5.9722453 h 0.7524088 c 0.089041,0 0.1612305,0.072188 0.1612305,0.1612305 v 0.7518921 c 0,0.1440648 -0.174477,0.2151499 -0.2754354,0.1142047 L 1.9922226,6.7845987 0.88272968,7.8992594 H 3.2345241 c 0.1780828,0 0.3224609,-0.1443781 0.3224609,-0.3224609 V 5.212085 c 0,-0.1780829 -0.1443781,-0.322461 -0.3224609,-0.322461 z m 0.0129191,3.0096354 h -0.0129191 c -0.17424379,0 -0.31435407,-0.1388382 -0.32039388,-0.311609 L 0.01818302,8.1214679 c -0.031404,0.031553 -0.031478,0.082719 0,0.114205 l 0.20825599,0.2082559 c 0.0314846,0.031478 0.0827269,0.031478 0.11420491,0 z"
     style="fill:#e3e3e3;fill-opacity:1;stroke-width:0.01184818"
     inkscape:connector-curvature="0"
     sodipodi:nodetypes="ssscscsccssssssccscccccccccscscsccccccssssccccccscscscccccssscccsssscccssssscscccccc" />
</svg>
