<?xml version="1.0" encoding="UTF-8" standalone="no"?>
<!-- Created with Inkscape (http://www.inkscape.org/) -->

<svg
   xmlns:dc="http://purl.org/dc/elements/1.1/"
   xmlns:cc="http://creativecommons.org/ns#"
   xmlns:rdf="http://www.w3.org/1999/02/22-rdf-syntax-ns#"
   xmlns:svg="http://www.w3.org/2000/svg"
   xmlns="http://www.w3.org/2000/svg"
   xmlns:sodipodi="http://sodipodi.sourceforge.net/DTD/sodipodi-0.dtd"
   xmlns:inkscape="http://www.inkscape.org/namespaces/inkscape"
   width="32"
   height="32"
   viewBox="0 0 8.4666666 8.4666666"
   version="1.1"
   id="svg8"
   inkscape:version="0.92.5 (2060ec1f9f, 2020-04-08)"
   sodipodi:docname="feature-request_bd.svg">
  <defs
     id="defs2">
    <style
       id="style1399">.cls-1{fill:#e3e3e3;}</style>
    <style
       id="style1399-1">.cls-1{fill:#e3e3e3;}</style>
    <style
       id="style1399-5">.cls-1{fill:#e3e3e3;}</style>
    <style
       id="style1399-8">.cls-1{fill:#e3e3e3;}</style>
    <style
       id="style1399-7">.cls-1{fill:#e3e3e3;}</style>
    <style
       id="style1399-1-5">.cls-1{fill:#e3e3e3;}</style>
    <style
       id="style1399-5-6">.cls-1{fill:#e3e3e3;}</style>
    <style
       id="style1399-8-9">.cls-1{fill:#e3e3e3;}</style>
    <style
       id="style1399-3">.cls-1{fill:#e3e3e3;}</style>
    <style
       id="style1399-1-8">.cls-1{fill:#e3e3e3;}</style>
    <style
       id="style1399-5-60">.cls-1{fill:#e3e3e3;}</style>
    <style
       id="style1399-8-4">.cls-1{fill:#e3e3e3;}</style>
    <style
       id="style1399-4">.cls-1{fill:#e3e3e3;}</style>
    <style
       id="style1399-1-3">.cls-1{fill:#e3e3e3;}</style>
    <style
       id="style1399-5-0">.cls-1{fill:#e3e3e3;}</style>
    <style
       id="style1399-8-3">.cls-1{fill:#e3e3e3;}</style>
    <style
       id="style1399-9">.cls-1{fill:#e3e3e3;}</style>
    <style
       id="style1399-1-4">.cls-1{fill:#e3e3e3;}</style>
    <style
       id="style1399-5-69">.cls-1{fill:#e3e3e3;}</style>
    <style
       id="style1399-8-2">.cls-1{fill:#e3e3e3;}</style>
    <style
       id="style1399-0">.cls-1{fill:#e3e3e3;}</style>
    <style
       id="style1399-1-2">.cls-1{fill:#e3e3e3;}</style>
    <style
       id="style1399-5-1">.cls-1{fill:#e3e3e3;}</style>
    <style
       id="style1399-8-0">.cls-1{fill:#e3e3e3;}</style>
    <style
       id="style1399-7-5">.cls-1{fill:#e3e3e3;}</style>
    <style
       id="style1399-1-5-1">.cls-1{fill:#e3e3e3;}</style>
    <style
       id="style1399-5-6-1">.cls-1{fill:#e3e3e3;}</style>
    <style
       id="style1399-8-9-0">.cls-1{fill:#e3e3e3;}</style>
    <style
       id="style1399-58">.cls-1{fill:#e3e3e3;}</style>
    <style
       id="style1399-1-6">.cls-1{fill:#e3e3e3;}</style>
    <style
       id="style1399-5-2">.cls-1{fill:#e3e3e3;}</style>
    <style
       id="style1399-8-8">.cls-1{fill:#e3e3e3;}</style>
    <style
       id="style1399-7-4">.cls-1{fill:#e3e3e3;}</style>
    <style
       id="style1399-1-5-7">.cls-1{fill:#e3e3e3;}</style>
    <style
       id="style1399-5-6-2">.cls-1{fill:#e3e3e3;}</style>
    <style
       id="style1399-8-9-4">.cls-1{fill:#e3e3e3;}</style>
    <style
       id="style1399-3-0">.cls-1{fill:#e3e3e3;}</style>
    <style
       id="style1399-1-8-6">.cls-1{fill:#e3e3e3;}</style>
    <style
       id="style1399-5-60-2">.cls-1{fill:#e3e3e3;}</style>
    <style
       id="style1399-8-4-9">.cls-1{fill:#e3e3e3;}</style>
    <style
       id="style1399-4-9">.cls-1{fill:#e3e3e3;}</style>
    <style
       id="style1399-1-3-0">.cls-1{fill:#e3e3e3;}</style>
    <style
       id="style1399-5-0-8">.cls-1{fill:#e3e3e3;}</style>
    <style
       id="style1399-8-3-1">.cls-1{fill:#e3e3e3;}</style>
    <style
       id="style1399-9-3">.cls-1{fill:#e3e3e3;}</style>
    <style
       id="style1399-1-4-1">.cls-1{fill:#e3e3e3;}</style>
    <style
       id="style1399-5-69-1">.cls-1{fill:#e3e3e3;}</style>
    <style
       id="style1399-8-2-0">.cls-1{fill:#e3e3e3;}</style>
  </defs>
  <sodipodi:namedview
     id="base"
     pagecolor="#ffffff"
     bordercolor="#666666"
     borderopacity="1.0"
     inkscape:pageopacity="0.0"
     inkscape:pageshadow="2"
     inkscape:zoom="15.999999"
     inkscape:cx="1.7404778"
     inkscape:cy="21.602296"
     inkscape:document-units="mm"
     inkscape:current-layer="svg8"
     showgrid="false"
     units="px"
     inkscape:window-width="1920"
     inkscape:window-height="1043"
     inkscape:window-x="0"
     inkscape:window-y="120"
     inkscape:window-maximized="1">
    <sodipodi:guide
       position="8.4666666,0"
       orientation="-32,0"
       id="guide854"
       inkscape:locked="false" />
    <sodipodi:guide
       position="8.4666666,8.4666666"
       orientation="0,-32"
       id="guide856"
       inkscape:locked="false" />
    <sodipodi:guide
       position="0,8.4666814"
       orientation="1,6.123234e-17"
       id="guide858"
       inkscape:locked="false" />
  </sodipodi:namedview>
  <metadata
     id="metadata5">
    <rdf:RDF>
      <cc:Work
         rdf:about="">
        <dc:format>image/svg+xml</dc:format>
        <dc:type
           rdf:resource="http://purl.org/dc/dcmitype/StillImage" />
        <dc:title></dc:title>
      </cc:Work>
    </rdf:RDF>
  </metadata>
  <path
     style="fill:#232323;fill-opacity:1;stroke-width:0.04478052"
     d="M 11.779297 0 C 10.198544 0 8.9140625 1.2844742 8.9140625 2.8652344 L 8.9140625 15.763672 C 8.9140625 15.795193 8.9228454 15.824204 8.9238281 15.855469 L 13.285156 15.855469 C 14.827668 15.855469 16.032763 16.978824 16.066406 18.587891 L 16.078125 22.390625 C 16.079455 22.829485 16.579828 23.08395 16.933594 22.824219 L 22.527344 18.628906 L 28.974609 18.628906 C 30.555362 18.628906 31.839844 17.344405 31.839844 15.763672 L 31.839844 2.8652344 C 31.839844 1.2844742 30.555362 2.9605947e-16 28.974609 0 L 11.779297 0 z M 19.191406 2.5273438 L 21.621094 2.5273438 C 21.977562 2.5273437 22.261942 2.8256125 22.244141 3.1816406 L 21.890625 10.244141 C 21.87403 10.575859 21.599712 10.837891 21.267578 10.837891 L 19.544922 10.837891 C 19.212789 10.837891 18.938467 10.575858 18.921875 10.244141 L 18.568359 3.1816406 C 18.55057 2.8256144 18.834936 2.5273438 19.191406 2.5273438 z M 20.40625 11.667969 C 21.551855 11.667969 22.484375 12.600489 22.484375 13.746094 C 22.484375 14.891698 21.551855 15.824219 20.40625 15.824219 C 19.260645 15.824219 18.328125 14.891698 18.328125 13.746094 C 18.328125 12.600489 19.260645 11.667969 20.40625 11.667969 z M 3.2871094 18.480469 C 2.6140401 18.480469 2.0683594 19.02615 2.0683594 19.699219 L 2.0683594 28.636719 C 2.0683594 28.651232 2.075673 28.663327 2.0761719 28.677734 L 6.3105469 24.423828 L 5.4980469 23.611328 C 5.1144452 23.227691 5.3866126 22.572266 5.9277344 22.572266 L 8.7714844 22.572266 C 9.1080173 22.572266 9.3808594 22.845102 9.3808594 23.181641 L 9.3808594 26.023438 C 9.3808594 26.567934 8.7214188 26.836603 8.3398438 26.455078 L 7.5292969 25.642578 L 3.3359375 29.855469 L 12.224609 29.855469 C 12.897678 29.855469 13.443359 29.309788 13.443359 28.636719 L 13.443359 19.699219 C 13.443359 19.02615 12.897678 18.480469 12.224609 18.480469 L 3.2871094 18.480469 z M 3.3359375 29.855469 L 3.2871094 29.855469 C 2.6285502 29.855469 2.0989995 29.330726 2.0761719 28.677734 L 0.068359375 30.695312 C -0.050332908 30.814568 -0.050612594 31.007951 0.068359375 31.126953 L 0.85546875 31.914062 C 0.97446566 32.033034 1.1681374 32.033034 1.2871094 31.914062 L 3.3359375 29.855469 z "
     transform="scale(0.26458333)"
     id="path1110" />
</svg>
