<?xml version="1.0" encoding="UTF-8" standalone="no"?>
<!-- Created with Inkscape (http://www.inkscape.org/) -->

<svg
   xmlns:dc="http://purl.org/dc/elements/1.1/"
   xmlns:cc="http://creativecommons.org/ns#"
   xmlns:rdf="http://www.w3.org/1999/02/22-rdf-syntax-ns#"
   xmlns:svg="http://www.w3.org/2000/svg"
   xmlns="http://www.w3.org/2000/svg"
   xmlns:sodipodi="http://sodipodi.sourceforge.net/DTD/sodipodi-0.dtd"
   xmlns:inkscape="http://www.inkscape.org/namespaces/inkscape"
   width="32"
   height="32"
   viewBox="0 0 8.4666666 8.4666666"
   version="1.1"
   id="svg8"
   inkscape:version="0.92.5 (2060ec1f9f, 2020-04-08)"
   sodipodi:docname="forum_bl.svg">
  <defs
     id="defs2">
    <style
       id="style1399">.cls-1{fill:#e3e3e3;}</style>
    <style
       id="style1399-1">.cls-1{fill:#e3e3e3;}</style>
    <style
       id="style1399-5">.cls-1{fill:#e3e3e3;}</style>
    <style
       id="style1399-8">.cls-1{fill:#e3e3e3;}</style>
    <style
       id="style1399-7">.cls-1{fill:#e3e3e3;}</style>
    <style
       id="style1399-1-5">.cls-1{fill:#e3e3e3;}</style>
    <style
       id="style1399-5-6">.cls-1{fill:#e3e3e3;}</style>
    <style
       id="style1399-8-9">.cls-1{fill:#e3e3e3;}</style>
    <style
       id="style1399-3">.cls-1{fill:#e3e3e3;}</style>
    <style
       id="style1399-1-8">.cls-1{fill:#e3e3e3;}</style>
    <style
       id="style1399-5-60">.cls-1{fill:#e3e3e3;}</style>
    <style
       id="style1399-8-4">.cls-1{fill:#e3e3e3;}</style>
    <style
       id="style1399-4">.cls-1{fill:#e3e3e3;}</style>
    <style
       id="style1399-1-3">.cls-1{fill:#e3e3e3;}</style>
    <style
       id="style1399-5-0">.cls-1{fill:#e3e3e3;}</style>
    <style
       id="style1399-8-3">.cls-1{fill:#e3e3e3;}</style>
    <style
       id="style1399-9">.cls-1{fill:#e3e3e3;}</style>
    <style
       id="style1399-1-4">.cls-1{fill:#e3e3e3;}</style>
    <style
       id="style1399-5-69">.cls-1{fill:#e3e3e3;}</style>
    <style
       id="style1399-8-2">.cls-1{fill:#e3e3e3;}</style>
  </defs>
  <sodipodi:namedview
     id="base"
     pagecolor="#ffffff"
     bordercolor="#666666"
     borderopacity="1.0"
     inkscape:pageopacity="0.0"
     inkscape:pageshadow="2"
     inkscape:zoom="1.9999999"
     inkscape:cx="-95.074816"
     inkscape:cy="35.15966"
     inkscape:document-units="mm"
     inkscape:current-layer="svg8"
     showgrid="false"
     units="px"
     inkscape:window-width="1920"
     inkscape:window-height="1043"
     inkscape:window-x="0"
     inkscape:window-y="120"
     inkscape:window-maximized="1">
    <sodipodi:guide
       position="8.4666666,0"
       orientation="-32,0"
       id="guide854"
       inkscape:locked="false" />
    <sodipodi:guide
       position="8.4666666,8.4666666"
       orientation="0,-32"
       id="guide856"
       inkscape:locked="false" />
    <sodipodi:guide
       position="0,8.4666814"
       orientation="1,6.123234e-17"
       id="guide858"
       inkscape:locked="false" />
  </sodipodi:namedview>
  <metadata
     id="metadata5">
    <rdf:RDF>
      <cc:Work
         rdf:about="">
        <dc:format>image/svg+xml</dc:format>
        <dc:type
           rdf:resource="http://purl.org/dc/dcmitype/StillImage" />
        <dc:title></dc:title>
      </cc:Work>
    </rdf:RDF>
  </metadata>
  <path
     style="fill:#e3e3e3;fill-opacity:1;stroke-width:0.03611789"
     d="M 15.869141 0 C 14.750254 0 13.815738 0.79829343 13.603516 1.8554688 L 25.777344 1.8554688 C 28.16361 1.8554688 30.130859 3.8321365 30.130859 6.2128906 L 30.130859 14.986328 C 31.21969 14.799729 32.050781 13.854266 32.050781 12.712891 L 32.050781 2.3125 C 32.050781 1.0375317 31.013243 5.9211895e-16 29.738281 0 L 15.869141 0 z M 11.910156 3.8984375 C 10.635194 3.8984375 9.5976564 4.9359687 9.5976562 6.2109375 L 9.5976562 16.513672 L 12.105469 16.513672 C 13.609268 16.513672 14.897611 17.545385 15.328125 18.923828 L 15.376953 18.923828 L 15.376953 19.078125 C 15.445913 19.343909 15.494141 19.617645 15.494141 19.902344 L 15.494141 22.234375 C 15.633721 22.392101 15.872737 22.452739 16.066406 22.310547 L 20.576172 18.923828 L 25.779297 18.923828 C 27.054259 18.923828 28.089844 17.888229 28.089844 16.613281 L 28.089844 6.2109375 C 28.089844 4.9359687 27.054259 3.8984375 25.779297 3.8984375 L 11.910156 3.8984375 z M 3.2753906 18.699219 C 2.6101815 18.699219 2.0703125 19.239088 2.0703125 19.904297 L 2.0703125 28.736328 C 2.0703125 28.750841 2.077616 28.762956 2.078125 28.777344 L 6.2636719 24.574219 L 5.4609375 23.771484 C 5.0818112 23.392332 5.3519164 22.742188 5.8867188 22.742188 L 8.6953125 22.742188 C 9.0279189 22.742188 9.2988281 23.013097 9.2988281 23.345703 L 9.2988281 26.154297 C 9.2988281 26.692436 8.6466487 26.957146 8.2695312 26.580078 L 7.4667969 25.777344 L 3.3242188 29.941406 L 12.107422 29.941406 C 12.772631 29.941406 13.3125 29.401537 13.3125 28.736328 L 13.3125 19.904297 C 13.3125 19.239088 12.772631 18.699219 12.107422 18.699219 L 3.2753906 18.699219 z M 3.3242188 29.941406 L 3.2753906 29.941406 C 2.6246939 29.941406 2.1009479 29.422472 2.078125 28.777344 L 0.09375 30.771484 C -0.02355274 30.889353 -0.023831254 31.079655 0.09375 31.197266 L 0.87304688 31.976562 C 0.99065254 32.094125 1.1812441 32.094125 1.2988281 31.976562 L 3.3242188 29.941406 z "
     transform="scale(0.26458333)"
     id="path998" />
</svg>
