<?xml version="1.0" encoding="UTF-8" standalone="no"?>
<!-- Created with Inkscape (http://www.inkscape.org/) -->

<svg
   xmlns:dc="http://purl.org/dc/elements/1.1/"
   xmlns:cc="http://creativecommons.org/ns#"
   xmlns:rdf="http://www.w3.org/1999/02/22-rdf-syntax-ns#"
   xmlns:svg="http://www.w3.org/2000/svg"
   xmlns="http://www.w3.org/2000/svg"
   xmlns:sodipodi="http://sodipodi.sourceforge.net/DTD/sodipodi-0.dtd"
   xmlns:inkscape="http://www.inkscape.org/namespaces/inkscape"
   width="32"
   height="32"
   viewBox="0 0 8.4666666 8.4666666"
   version="1.1"
   id="svg8"
   inkscape:version="0.92.5 (2060ec1f9f, 2020-04-08)"
   sodipodi:docname="users_sl.svg">
  <defs
     id="defs2" />
  <sodipodi:namedview
     id="base"
     pagecolor="#ffffff"
     bordercolor="#666666"
     borderopacity="1.0"
     inkscape:pageopacity="0.0"
     inkscape:pageshadow="2"
     inkscape:zoom="11.313708"
     inkscape:cx="20.921117"
     inkscape:cy="15.514543"
     inkscape:document-units="mm"
     inkscape:current-layer="layer1"
     showgrid="false"
     units="px"
     inkscape:window-width="1848"
     inkscape:window-height="1136"
     inkscape:window-x="0"
     inkscape:window-y="27"
     inkscape:window-maximized="1"
     inkscape:snap-bbox="true"
     inkscape:bbox-paths="true"
     inkscape:snap-bbox-edge-midpoints="true"
     inkscape:bbox-nodes="true"
     inkscape:snap-bbox-midpoints="true"
     inkscape:snap-nodes="false">
    <sodipodi:guide
       position="8.4666666,0"
       orientation="-32,0"
       id="guide854"
       inkscape:locked="false" />
    <sodipodi:guide
       position="8.4666666,8.4666666"
       orientation="0,-32"
       id="guide856"
       inkscape:locked="false" />
    <sodipodi:guide
       position="0,8.4666814"
       orientation="32,0"
       id="guide858"
       inkscape:locked="false" />
  </sodipodi:namedview>
  <metadata
     id="metadata5">
    <rdf:RDF>
      <cc:Work
         rdf:about="">
        <dc:format>image/svg+xml</dc:format>
        <dc:type
           rdf:resource="http://purl.org/dc/dcmitype/StillImage" />
        <dc:title></dc:title>
      </cc:Work>
    </rdf:RDF>
  </metadata>
  <g
     inkscape:label="Layer 1"
     inkscape:groupmode="layer"
     id="layer1"
     transform="translate(0,-288.53334)">
    <path
       id="path819"
       d="m 6.879167,292.293 c 0.5837367,0 1.0583334,-0.4746 1.0583334,-1.05834 0,-0.58373 -0.4745967,-1.05832 -1.0583334,-1.05832 -0.5837371,0 -1.0583334,0.47459 -1.0583334,1.05832 0,0.58374 0.4745963,1.05834 1.0583334,1.05834 z m 0.5291668,0.52916 H 6.3500003 c -0.2910417,0 -0.5539717,0.11738 -0.7457944,0.30759 0.6664196,0.36545 1.139362,1.02525 1.2418885,1.80909 h 1.091406 c 0.292695,0 0.5291663,-0.23648 0.5291663,-0.52918 v -0.52916 c 0,-0.58374 -0.4745964,-1.05834 -1.0583329,-1.05834 z m -4.2333337,0 c 1.0236065,0 1.8520835,-0.82847 1.8520835,-1.85207 0,-1.02361 -0.828477,-1.85209 -1.8520835,-1.85209 -1.0236069,0 -1.8520834,0.82848 -1.8520834,1.85209 0,1.0236 0.8284765,1.85207 1.8520834,1.85207 z m 1.2700003,0.52918 h -0.137253 c -0.3439582,0.16536 -0.7259501,0.26457 -1.1327473,0.26457 -0.4067967,0 -0.7871352,-0.0992 -1.1327472,-0.26457 H 1.9050004 C 0.8532814,293.35134 0,294.20461 0,295.25634 v 0.47624 c 0,0.43822 0.35553401,0.79376 0.79375002,0.79376 H 5.5562503 c 0.438216,0 0.79375,-0.35554 0.79375,-0.79376 v -0.47624 c 0,-1.05173 -0.8532809,-1.905 -1.9049999,-1.905 z"
       inkscape:connector-curvature="0"
       style="fill:#e3e3e3;stroke-width:0.01653646"
       sodipodi:nodetypes="sssssssccsssssssssscscssssssss" />
  </g>
</svg>
