<?xml version="1.0" encoding="UTF-8" standalone="no"?>
<!-- Created with Inkscape (http://www.inkscape.org/) -->

<svg
   xmlns:dc="http://purl.org/dc/elements/1.1/"
   xmlns:cc="http://creativecommons.org/ns#"
   xmlns:rdf="http://www.w3.org/1999/02/22-rdf-syntax-ns#"
   xmlns:svg="http://www.w3.org/2000/svg"
   xmlns="http://www.w3.org/2000/svg"
   xmlns:sodipodi="http://sodipodi.sourceforge.net/DTD/sodipodi-0.dtd"
   xmlns:inkscape="http://www.inkscape.org/namespaces/inkscape"
   width="208.98361"
   height="208.94345"
   viewBox="0 0 55.293578 55.282956"
   version="1.1"
   id="svg8"
   inkscape:version="0.92.4 (5da689c313, 2019-01-14)"
   sodipodi:docname="duaef-icon.svg">
  <defs
     id="defs2"><style
   id="style857">.cls-1{fill:#e52120;}.cls-1,.cls-2,.cls-3,.cls-4,.cls-5{stroke:#000;stroke-miterlimit:10;stroke-width:1.2px;}.cls-2{fill:#6dbc88;}.cls-3{fill:#701034;}.cls-4{fill:#51aae0;}.cls-5{fill:none;}</style>

	
	

		
	
			
			
		
		
	</defs>
  <sodipodi:namedview
     id="base"
     pagecolor="#ffffff"
     bordercolor="#666666"
     borderopacity="1.0"
     inkscape:pageopacity="0.0"
     inkscape:pageshadow="2"
     inkscape:zoom="0.98994949"
     inkscape:cx="175.2177"
     inkscape:cy="33.290487"
     inkscape:document-units="px"
     inkscape:current-layer="layer1"
     showgrid="false"
     units="px"
     inkscape:window-width="1846"
     inkscape:window-height="1057"
     inkscape:window-x="1986"
     inkscape:window-y="-8"
     inkscape:window-maximized="1"
     fit-margin-top="0"
     fit-margin-left="0"
     fit-margin-right="0"
     fit-margin-bottom="0" />
  <metadata
     id="metadata5">
    <rdf:RDF>
      <cc:Work
         rdf:about="">
        <dc:format>image/svg+xml</dc:format>
        <dc:type
           rdf:resource="http://purl.org/dc/dcmitype/StillImage" />
        <dc:title></dc:title>
      </cc:Work>
    </rdf:RDF>
  </metadata>
  <g
     inkscape:label="Calque 1"
     inkscape:groupmode="layer"
     id="layer1"
     transform="translate(-40.185452,-201.96001)">
    <g
       data-name="Calque 2"
       id="Calque_2"
       transform="matrix(1.0968772,0,0,1.0968772,40.185452,201.96035)"
       style="display:inline">
      <path
         style="fill:#e52120;stroke:#000000;stroke-width:1.20000005px;stroke-miterlimit:10"
         inkscape:connector-curvature="0"
         class="cls-1"
         d="M 29,32.2 H 27 A 1.81,1.81 0 0 1 25.18,30.38 V 25.2 H 20 A 1.81,1.81 0 0 0 18.2,27 v 2 a 3.82,3.82 0 0 1 -3.81,3.82 h -3 A 3.81,3.81 0 0 1 7.6,29 V 27 A 1.81,1.81 0 0 0 5.78,25.2 H 0.6 V 44 a 5.85,5.85 0 0 0 5.84,5.8 H 25.2 V 44.62 A 1.81,1.81 0 0 1 27,42.8 h 2 A 3.82,3.82 0 0 0 32.84,39 V 36 A 3.81,3.81 0 0 0 29,32.2 Z"
         id="path863" />
      <path
         style="fill:#6dbc88;stroke:#000000;stroke-width:1.20000005px;stroke-miterlimit:10"
         inkscape:connector-curvature="0"
         class="cls-2"
         d="m 32.14,21.37 v 2 a 1.82,1.82 0 0 1 -1.82,1.82 h -5.18 v 5.18 A 1.81,1.81 0 0 0 27,32.2 h 2 a 3.8,3.8 0 0 1 3.77,3.8 v 3 A 3.81,3.81 0 0 1 29,42.8 h -2 a 1.81,1.81 0 0 0 -1.81,1.82 V 49.8 H 43.9 A 5.85,5.85 0 0 0 49.74,44 V 25.2 h -5.18 a 1.81,1.81 0 0 1 -1.82,-1.82 v -2 A 3.82,3.82 0 0 0 38.93,17.57 H 36 a 3.81,3.81 0 0 0 -3.86,3.8 z"
         id="path865" />
      <path
         style="fill:#701034;stroke:#000000;stroke-width:1.20000005px;stroke-miterlimit:10"
         inkscape:connector-curvature="0"
         class="cls-3"
         d="m 21.31,18.2 h 2 a 1.82,1.82 0 0 1 1.83,1.8 v 5.2 h 5.18 a 1.82,1.82 0 0 0 1.82,-1.82 v -2 A 3.81,3.81 0 0 1 36,17.56 h 3 a 3.82,3.82 0 0 1 3.81,3.81 v 2 a 1.81,1.81 0 0 0 1.82,1.82 h 5.18 V 6.44 A 5.85,5.85 0 0 0 43.9,0.6 H 25.14 V 5.78 A 1.82,1.82 0 0 1 23.32,7.6 h -2 a 3.81,3.81 0 0 0 -3.81,3.81 v 3 a 3.82,3.82 0 0 0 3.8,3.79 z"
         id="path867" />
      <path
         style="fill:#51aae0;stroke:#000000;stroke-width:1.20000005px;stroke-miterlimit:10"
         inkscape:connector-curvature="0"
         class="cls-4"
         d="M 18.2,29 V 27 A 1.81,1.81 0 0 1 20,25.2 h 5.2 V 20 a 1.81,1.81 0 0 0 -1.82,-1.82 h -2 a 3.82,3.82 0 0 1 -3.81,-3.81 v -3 a 3.81,3.81 0 0 1 3.8,-3.77 h 2 A 1.81,1.81 0 0 0 25.2,5.78 V 0.6 H 6.44 A 5.85,5.85 0 0 0 0.6,6.44 V 25.2 H 5.78 A 1.81,1.81 0 0 1 7.6,27 v 2 a 3.81,3.81 0 0 0 3.81,3.82 h 3 A 3.82,3.82 0 0 0 18.2,29 Z"
         id="path869" />
      <path
         style="fill:#e52120;stroke:#434343;stroke-width:1.20000005px;stroke-miterlimit:10"
         inkscape:connector-curvature="0"
         class="cls-1"
         d="M 29,32.2 H 27 A 1.81,1.81 0 0 1 25.18,30.38 V 25.2 H 20 A 1.81,1.81 0 0 0 18.2,27 v 2 a 3.82,3.82 0 0 1 -3.81,3.82 h -3 A 3.81,3.81 0 0 1 7.6,29 V 27 A 1.81,1.81 0 0 0 5.78,25.2 H 0.6 V 44 a 5.85,5.85 0 0 0 5.84,5.8 H 25.2 V 44.62 A 1.81,1.81 0 0 1 27,42.8 h 2 A 3.82,3.82 0 0 0 32.84,39 V 36 A 3.81,3.81 0 0 0 29,32.2 Z"
         id="path871" />
      <path
         style="fill:#6dbc88;stroke:#434343;stroke-width:1.20000005px;stroke-miterlimit:10"
         inkscape:connector-curvature="0"
         class="cls-2"
         d="m 32.21,21.37 v 2 a 1.82,1.82 0 0 1 -1.82,1.82 h -5.18 v 5.18 a 1.81,1.81 0 0 0 1.86,1.83 h 2 a 3.8,3.8 0 0 1 3.77,3.8 v 3 a 3.81,3.81 0 0 1 -3.77,3.8 h -2 a 1.81,1.81 0 0 0 -1.81,1.82 V 49.8 H 43.97 A 5.85,5.85 0 0 0 49.81,44 V 25.2 h -5.18 a 1.81,1.81 0 0 1 -1.82,-1.82 v -2 A 3.82,3.82 0 0 0 39,17.57 h -2.93 a 3.81,3.81 0 0 0 -3.86,3.8 z"
         id="path873" />
      <path
         style="fill:#701034;stroke:#434343;stroke-width:1.20000005px;stroke-miterlimit:10"
         inkscape:connector-curvature="0"
         class="cls-3"
         d="m 21.31,18.2 h 2 a 1.82,1.82 0 0 1 1.83,1.8 v 5.2 h 5.18 a 1.82,1.82 0 0 0 1.82,-1.82 v -2 A 3.81,3.81 0 0 1 36,17.56 h 3 a 3.82,3.82 0 0 1 3.81,3.81 v 2 a 1.81,1.81 0 0 0 1.82,1.82 h 5.18 V 6.44 A 5.85,5.85 0 0 0 43.9,0.6 H 25.14 V 5.78 A 1.82,1.82 0 0 1 23.32,7.6 h -2 a 3.81,3.81 0 0 0 -3.81,3.81 v 3 a 3.82,3.82 0 0 0 3.8,3.79 z"
         id="path875" />
      <path
         style="fill:#51aae0;stroke:#434343;stroke-width:1.20000005px;stroke-miterlimit:10"
         inkscape:connector-curvature="0"
         class="cls-4"
         d="m 18.2,28.999687 v -2 a 1.81,1.81 0 0 1 1.8,-1.8 h 5.2 v -5.2 a 1.81,1.81 0 0 0 -1.82,-1.82 h -2 a 3.82,3.82 0 0 1 -3.81,-3.81 v -3 a 3.81,3.81 0 0 1 3.8,-3.7699999 h 2 a 1.81,1.81 0 0 0 1.83,-1.82 V 0.59968714 H 6.44 A 5.85,5.85 0 0 0 0.6,6.4396871 V 25.199687 h 5.18 a 1.81,1.81 0 0 1 1.82,1.8 v 2 a 3.81,3.81 0 0 0 3.81,3.82 h 3 a 3.82,3.82 0 0 0 3.79,-3.82 z"
         id="path877" />
    </g>
    <g
       id="g961"
       transform="matrix(0.97419,0,0,0.97419,2.3450545,6.7347441)">
      <path
         style="fill:#434343;stroke:#434343;stroke-width:11.11936951;stroke-miterlimit:4;stroke-dasharray:none"
         d="m 224.2207,222.18945 c -0.30164,0.0605 -0.54272,0.36265 -0.48242,0.66407 0,1.32714 -0.12004,2.65505 -0.36133,3.92187 -0.24128,0.72393 -0.42254,1.26585 -0.60351,1.86914 l -19.42383,55.68164 c -0.18096,0.72389 -0.001,1.08594 0.66211,1.08594 h 11.33984 c 0.54293,0.0605 1.02778,-0.3027 1.14844,-0.8457 l 4.58398,-14.23633 h 22.44141 l 4.94727,14.47851 c 0.12064,0.42237 0.54061,0.72243 0.96289,0.66211 h 12.60937 c 0.60325,0 0.78449,-0.30119 0.60352,-0.96484 l -22.01953,-61.83203 c -0.0603,-0.30161 -0.36092,-0.48438 -0.78321,-0.48438 h -15.44336 z m 7.8418,10.98047 h 0.12109 c 0.42228,1.44779 0.84358,3.01597 1.32618,4.70508 0.4826,1.74943 1.02761,3.49708 1.63085,5.36719 0.60326,1.87003 1.1448,3.68071 1.74805,5.55078 0.54292,1.80975 1.08793,3.56066 1.63086,5.18945 0.54293,1.56843 1.02477,3.07501 1.38672,4.3418 h -15.32422 c 0.90488,-2.53365 1.87007,-5.36679 2.6543,-8.44336 0.9652,-3.01625 1.87051,-6.03404 2.77539,-8.92969 0.84456,-2.59393 1.50785,-5.18724 2.05078,-7.78125 z m 57.00781,3.4375 c -3.86081,0 -7.23893,0.48363 -10.07422,1.8711 -2.83528,1.3875 -5.3081,3.3175 -7.29882,5.73046 -2.05106,2.47337 -3.56019,5.24742 -4.52539,8.26368 -1.02553,3.13693 -1.50782,6.33422 -1.50782,9.59179 0,3.01626 0.42302,5.97331 1.26758,8.8086 0.84455,2.89561 2.23171,5.54966 4.16211,7.90234 2.05106,2.47332 4.64367,4.46361 7.59961,5.73047 3.1369,1.38746 6.99927,2.11133 11.58398,2.11133 2.89561,0.0605 5.73113,-0.18164 8.56641,-0.72461 2.11139,-0.36208 4.10085,-0.96402 6.03125,-1.8086 0.18096,-0.12056 0.3012,-0.24106 0.42188,-0.42187 0.0603,-0.24113 0.12109,-0.48141 0.12109,-0.72266 v -9.23047 c 0,-0.60325 -0.18082,-0.72558 -0.48242,-0.48437 -1.68911,0.66361 -3.49907,1.14547 -5.36914,1.38672 -2.05107,0.42232 -4.16205,0.60374 -6.27344,0.66406 -2.6543,0.0605 -5.30965,-0.48231 -7.72266,-1.50781 -1.80975,-0.72393 -3.31844,-1.99036 -4.40429,-3.61914 -1.02553,-1.62879 -1.62783,-3.49903 -1.86914,-5.36914 h 19.12304 c 1.56845,0 3.01682,0.24218 4.4043,0.24218 1.38748,0 2.53284,-0.0611 3.49805,-0.18164 0.9652,-0.0605 1.63023,-0.11914 1.99218,-0.11914 0.42228,0 0.7854,-0.36471 0.84571,-0.78711 0.0603,-0.54289 0.11763,-1.38507 0.23828,-2.53125 0.0603,-1.14621 0.12304,-2.4135 0.12304,-3.86132 0,-2.47333 -0.3642,-4.94638 -1.14843,-7.35938 -0.78422,-2.53364 -2.04873,-4.82592 -3.61719,-6.87695 -1.68911,-2.1114 -3.86261,-3.74028 -6.33594,-4.82617 -2.95594,-1.32715 -6.15237,-1.93142 -9.34961,-1.8711 z m -0.42187,10.43555 c 3.55918,-0.12057 6.75594,2.17452 7.84179,5.55273 0.24129,0.7239 0.36133,1.44626 0.36133,2.23047 v 0.60352 c -0.42228,0.3016 -0.90412,0.4221 -1.38672,0.48242 -0.7239,0.0605 -1.86904,0.0605 -3.4375,0.0605 h -12.73046 c 0.18096,-1.50811 0.60422,-2.95629 1.32812,-4.34375 1.56845,-3.01629 4.70555,-4.76687 8.02344,-4.58594 z m -32.29492,10.22265 2.7539,7.41211 c 0,0 3.21345,1.60743 3.92774,1.60743 0.71429,0 -1.07032,-7.67774 -1.07032,-7.67774 z"
         transform="matrix(0.26458333,0,0,0.26458333,-0.61004743,160.68313)"
         id="path930"
         inkscape:connector-curvature="0" />
      <g
         transform="matrix(0.1596103,0,0,0.1596103,48.436137,209.86245)"
         id="Ae"
         style="fill:#e3e4e3;stroke:none">
			<path
   style="fill:#e3e4e3;stroke:none"
   inkscape:connector-curvature="0"
   class="st1"
   d="M 96.4,140 H 59.2 l -7.6,23.6 c -0.2,0.9 -1,1.5 -1.9,1.4 H 30.9 c -1.1,0 -1.4,-0.6 -1.1,-1.8 L 62,70.9 c 0.3,-1 0.6,-1.9 1,-3.1 0.4,-2.1 0.6,-4.3 0.6,-6.5 -0.1,-0.5 0.3,-1 0.8,-1.1 0.1,0 0.2,0 0.3,0 h 25.6 c 0.7,0 1.2,0.3 1.3,0.8 l 36.5,102.5 c 0.3,1.1 0,1.6 -1,1.6 h -20.9 c -0.7,0.1 -1.4,-0.4 -1.6,-1.1 z M 65,120.1 h 25.4 c -0.6,-2.1 -1.4,-4.6 -2.3,-7.2 -0.9,-2.7 -1.8,-5.6 -2.7,-8.6 -1,-3.1 -1.9,-6.1 -2.9,-9.2 -1,-3.1 -1.9,-6 -2.7,-8.9 -0.8,-2.8 -1.5,-5.4 -2.2,-7.8 h -0.2 c -0.9,4.3 -2,8.6 -3.4,12.9 -1.5,4.8 -3,9.8 -4.6,14.8 -1.3,5.1 -2.9,9.8 -4.4,14 z"
   id="path822" />

			<path
   style="fill:#e3e4e3;stroke:none"
   inkscape:connector-curvature="0"
   class="st1"
   d="m 187.4,130.8 h -31.7 c 0.4,3.1 1.4,6.2 3.1,8.9 1.8,2.7 4.3,4.8 7.3,6 4,1.7 8.4,2.6 12.8,2.5 3.5,-0.1 7,-0.4 10.4,-1.1 3.1,-0.4 6.1,-1.2 8.9,-2.3 0.5,-0.4 0.8,-0.2 0.8,0.8 v 15.3 c 0,0.4 -0.1,0.8 -0.2,1.2 -0.2,0.3 -0.4,0.5 -0.7,0.7 -3.2,1.4 -6.5,2.4 -10,3 -4.7,0.9 -9.4,1.3 -14.2,1.2 -7.6,0 -14,-1.2 -19.2,-3.5 -4.9,-2.1 -9.2,-5.4 -12.6,-9.5 -3.2,-3.9 -5.5,-8.3 -6.9,-13.1 -1.4,-4.7 -2.1,-9.6 -2.1,-14.6 0,-5.4 0.8,-10.7 2.5,-15.9 1.6,-5 4.1,-9.6 7.5,-13.7 3.3,-4 7.4,-7.2 12.1,-9.5 4.7,-2.3 10.3,-3.1 16.7,-3.1 5.3,-0.1 10.6,0.9 15.5,3.1 4.1,1.8 7.7,4.5 10.5,8 2.6,3.4 4.7,7.2 6,11.4 1.3,4 1.9,8.1 1.9,12.2 0,2.4 -0.1,4.5 -0.2,6.4 -0.2,1.9 -0.3,3.3 -0.4,4.2 -0.1,0.7 -0.7,1.3 -1.4,1.3 -5.49394,0 -10.82884,0.1 -16.4,0.1 z m -31.7,-14.6 h 21.1 c 2.6,0 4.5,0 5.7,-0.1 0.8,-0.1 1.6,-0.3 2.3,-0.8 v -1 c 0,-1.3 -0.2,-2.5 -0.6,-3.7 -1.8,-5.6 -7.1,-9.4 -13,-9.2 -5.5,-0.3 -10.7,2.6 -13.3,7.6 -1.2,2.3 -1.9,4.7 -2.2,7.2 z"
   id="path824"
   sodipodi:nodetypes="cccccccsscccccccsccsccccscccccsccscccc" />

		</g>
    </g>
  </g>
  <style
     id="style815"
     type="text/css">
	.st0{fill:#00005B;}
	.st1{fill:#9999FF;}
</style>
</svg>
