<?xml version="1.0" encoding="UTF-8" standalone="no"?>
<svg
   viewBox="0 0 512 512"
   version="1.1"
   id="svg4"
   sodipodi:docname="dusi_icon.svg"
   inkscape:version="1.1.1 (3bf5ae0d25, 2021-09-20)"
   xmlns:inkscape="http://www.inkscape.org/namespaces/inkscape"
   xmlns:sodipodi="http://sodipodi.sourceforge.net/DTD/sodipodi-0.dtd"
   xmlns="http://www.w3.org/2000/svg"
   xmlns:svg="http://www.w3.org/2000/svg">
  <defs
     id="defs8" />
  <sodipodi:namedview
     id="namedview6"
     pagecolor="#ffffff"
     bordercolor="#999999"
     borderopacity="1"
     inkscape:pageshadow="0"
     inkscape:pageopacity="0"
     inkscape:pagecheckerboard="0"
     showgrid="false"
     inkscape:zoom="1.7050781"
     inkscape:cx="256"
     inkscape:cy="256"
     inkscape:window-width="3440"
     inkscape:window-height="1369"
     inkscape:window-x="1912"
     inkscape:window-y="-8"
     inkscape:window-maximized="1"
     inkscape:current-layer="svg4" />
  <!-- Font Awesome Free 5.15.1 by @fontawesome - https://fontawesome.com License - https://fontawesome.com/license/free (Icons: CC BY 4.0, Fonts: SIL OFL 1.1, Code: MIT License) -->
  <path
     id="path2"
     style="stroke-width:1.03074;fill:#5195e0;fill-opacity:1"
     d="M 256 0.375 C 114.83252 0.375 0.375 114.87375 0.375 256 C 0.375 397.20871 114.83252 511.625 256 511.625 C 397.16748 511.625 511.625 397.20871 511.625 256 C 511.625 114.87375 397.16748 0.375 256 0.375 z M 193.50391 102.25 C 216.60028 102.25 232.45117 117.64752 232.45117 140.29102 C 232.45117 162.93452 216.60028 178.33203 193.50391 178.33203 C 170.40754 178.33203 154.55664 162.93452 154.55664 140.29102 C 154.55664 117.64752 170.40754 102.25 193.50391 102.25 z M 318.04297 109.94922 C 343.85656 109.94922 352.46094 116.29052 352.46094 146.63281 C 352.46094 163.389 350.64963 262.11431 349.29102 284.75781 C 347.93241 306.0427 341.13934 312.83594 318.04297 312.83594 C 294.9466 312.83594 288.15353 306.0427 286.79492 284.75781 C 285.43631 262.11431 283.625 163.389 283.625 146.63281 C 283.625 116.29052 292.22938 109.94922 318.04297 109.94922 z M 193.50391 197.80664 C 216.14741 197.80664 227.46875 206.86372 227.46875 224.97852 L 227.46875 381.67188 C 227.46875 399.78667 216.14741 408.84375 193.50391 408.84375 C 170.86041 408.84375 159.53906 399.78667 159.53906 381.67188 L 159.53906 224.97852 C 159.53906 206.86372 170.86041 197.80664 193.50391 197.80664 z M 318.04297 331.40234 C 342.04508 331.40234 357.44336 347.25349 357.44336 370.80273 C 357.44336 393.8991 342.04508 409.75 318.04297 409.75 C 294.04086 409.75 278.64258 393.8991 278.64258 370.80273 C 278.64258 347.25349 294.04086 331.40234 318.04297 331.40234 z " />
</svg>
