<?xml version="1.0" encoding="UTF-8" standalone="no"?>
<!-- Created with Inkscape (http://www.inkscape.org/) -->

<svg
   xmlns:dc="http://purl.org/dc/elements/1.1/"
   xmlns:cc="http://creativecommons.org/ns#"
   xmlns:rdf="http://www.w3.org/1999/02/22-rdf-syntax-ns#"
   xmlns:svg="http://www.w3.org/2000/svg"
   xmlns="http://www.w3.org/2000/svg"
   xmlns:sodipodi="http://sodipodi.sourceforge.net/DTD/sodipodi-0.dtd"
   xmlns:inkscape="http://www.inkscape.org/namespaces/inkscape"
   width="32"
   height="32"
   viewBox="0 0 8.4666666 8.4666666"
   version="1.1"
   id="svg8"
   inkscape:version="0.92.5 (2060ec1f9f, 2020-04-08)"
   sodipodi:docname="load-code-file_sd.svg">
  <defs
     id="defs2">
    <style
       id="style1399">.cls-1{fill:#e3e3e3;}</style>
    <style
       id="style1399-1">.cls-1{fill:#e3e3e3;}</style>
    <style
       id="style1399-9">.cls-1{fill:#e3e3e3;}</style>
  </defs>
  <sodipodi:namedview
     id="base"
     pagecolor="#ffffff"
     bordercolor="#666666"
     borderopacity="1.0"
     inkscape:pageopacity="0.0"
     inkscape:pageshadow="2"
     inkscape:zoom="11.313708"
     inkscape:cx="6.5921111"
     inkscape:cy="11.564148"
     inkscape:document-units="mm"
     inkscape:current-layer="svg8"
     showgrid="false"
     units="px"
     inkscape:window-width="1848"
     inkscape:window-height="1136"
     inkscape:window-x="1920"
     inkscape:window-y="27"
     inkscape:window-maximized="1">
    <sodipodi:guide
       position="8.4666666,0"
       orientation="-32,0"
       id="guide854"
       inkscape:locked="false" />
    <sodipodi:guide
       position="8.4666666,8.4666666"
       orientation="0,-32"
       id="guide856"
       inkscape:locked="false" />
    <sodipodi:guide
       position="0,8.4666814"
       orientation="1,6.123234e-17"
       id="guide858"
       inkscape:locked="false" />
  </sodipodi:namedview>
  <metadata
     id="metadata5">
    <rdf:RDF>
      <cc:Work
         rdf:about="">
        <dc:format>image/svg+xml</dc:format>
        <dc:type
           rdf:resource="http://purl.org/dc/dcmitype/StillImage" />
        <dc:title></dc:title>
      </cc:Work>
    </rdf:RDF>
  </metadata>
  <path
     id="path1112"
     d="M 0.51449388,0 C 0.293454,0 0.11555183,0.17790206 0.11555183,0.3989421 v 7.7111571 c 0,0.2210401 0.17790217,0.398942 0.39894205,0.398942 H 6.0986491 c 0.2210401,0 0.3989419,-0.1779019 0.3989419,-0.398942 V 5.2518756 C 6.489421,5.2309436 6.481036,5.2099746 6.472786,5.1893476 6.402622,5.2319856 6.3112873,5.2236096 6.2500606,5.2849486 5.9161556,5.6193541 5.8570321,6.1352445 6.0919308,6.5272501 a 0.595372,0.595372 0 0 1 0.00207,0.00155 c 0.1574917,0.263649 0.1247599,0.635522 -0.1074895,0.8676475 L 5.5958373,7.7850544 C 5.293412,8.0872588 4.752406,8.0405554 4.5080485,7.6832517 3.7152722,6.5226321 3.8390138,4.9225326 4.8635823,3.8979533 5.2746768,3.4868511 5.7881719,3.2720004 6.3182739,3.1522622 v -0.013952 c 1.3e-6,-0.181305 0.064114,-0.3447455 0.1638141,-0.4790406 H 4.2372641 c -0.2193782,0 -0.3989422,-0.179562 -0.3989422,-0.398942 V 0 Z M 4.3700725,0 V 2.1275187 H 6.497591 V 2.0257161 c 0,-0.1047 -0.041482,-0.205803 -0.1162719,-0.280603 L 4.7540282,0.11627197 C 4.6792402,0.04143197 4.5777233,0 4.4713582,0 Z M 7.1202921,2.9088664 C 7.0120119,2.921523 6.9146204,3.0099148 6.9146199,3.1383097 V 3.6240683 C 6.3230888,3.6374824 5.7366777,3.8692425 5.285262,4.3206664 4.4619763,5.1439611 4.3664178,6.4202989 5.0000081,7.3478717 c 0.040653,0.059443 0.1252667,0.066933 0.1762167,0.01602 L 5.5658651,6.9742512 C 5.6034261,6.9367103 5.6101992,6.8788425 5.5829183,6.8331746 5.2078613,6.2072694 5.3015339,5.3919373 5.8273477,4.8653361 6.1194758,4.5726691 6.5033796,4.4065232 6.9146199,4.3930136 V 4.959904 c 1.24e-5,0.2054156 0.2490319,0.3085449 0.394291,0.1632974 L 8.2199666,4.212146 C 8.3100032,4.122108 8.3094989,3.9765954 8.2194499,3.8865844 L 7.3089109,2.9760457 C 7.2544319,2.9215246 7.1852603,2.9012364 7.1202921,2.9088664 Z M 3.5923422,3.0137695 c 0.013698,-0.00162 0.027774,-3.437e-4 0.041858,0.00362 L 4.1711183,3.172933 c 0.056334,0.015844 0.088192,0.074924 0.072347,0.131258 L 3.041988,7.4429563 C 3.025263,7.4992893 2.967064,7.5320273 2.9107301,7.5153033 L 2.3738119,7.3592406 C 2.3174774,7.3433966 2.2856217,7.2843162 2.3014648,7.2279824 L 3.5029419,3.089217 c 0.011883,-0.042251 0.048305,-0.070579 0.0894,-0.075448 z M 1.8337931,3.9713339 c 0.027067,8.8e-4 0.053576,0.012464 0.073381,0.03359 l 0.3829223,0.4082439 c 0.041372,0.043131 0.037656,0.1118029 -0.00723,0.1514118 l -0.7973673,0.701766 0.7973673,0.7012493 c 0.044889,0.03961 0.047725,0.1082807 0.00723,0.1514117 L 1.9071737,6.5277668 c -0.03961,0.043129 -0.1067307,0.044623 -0.1498617,0.00413 L 0.48917243,5.3428262 c -0.0448915,-0.04137 -0.0448915,-0.1126247 0,-0.1539957 L 1.757312,4.0002727 c 0.021566,-0.020246 0.049414,-0.029819 0.076481,-0.028939 z"
     style="fill:#3e8b45;fill-opacity:1;stroke-width:0.01661956"
     inkscape:connector-curvature="0" />
</svg>
