<?xml version="1.0" encoding="UTF-8" standalone="no"?>
<!-- Created with Inkscape (http://www.inkscape.org/) -->

<svg
   xmlns:dc="http://purl.org/dc/elements/1.1/"
   xmlns:cc="http://creativecommons.org/ns#"
   xmlns:rdf="http://www.w3.org/1999/02/22-rdf-syntax-ns#"
   xmlns:svg="http://www.w3.org/2000/svg"
   xmlns="http://www.w3.org/2000/svg"
   xmlns:sodipodi="http://sodipodi.sourceforge.net/DTD/sodipodi-0.dtd"
   xmlns:inkscape="http://www.inkscape.org/namespaces/inkscape"
   width="327.84851"
   height="350.83298"
   viewBox="0 0 86.743248 92.824561"
   version="1.1"
   id="svg8"
   inkscape:version="0.92.5 (2060ec1f9f, 2020-04-08)"
   sodipodi:docname="dufx-icon.svg">
  <defs
     id="defs2" />
  <sodipodi:namedview
     id="base"
     pagecolor="#ffffff"
     bordercolor="#666666"
     borderopacity="1.0"
     inkscape:pageopacity="0.0"
     inkscape:pageshadow="2"
     inkscape:zoom="0.35"
     inkscape:cx="-150.54831"
     inkscape:cy="165.32194"
     inkscape:document-units="px"
     inkscape:current-layer="layer1"
     showgrid="false"
     units="px"
     inkscape:window-width="1870"
     inkscape:window-height="1052"
     inkscape:window-x="1920"
     inkscape:window-y="0"
     inkscape:window-maximized="1"
     objecttolerance="5"
     gridtolerance="5"
     guidetolerance="5"
     fit-margin-top="0"
     fit-margin-left="0"
     fit-margin-right="0"
     fit-margin-bottom="0"
     showguides="true"
     inkscape:guide-bbox="true" />
  <metadata
     id="metadata5">
    <rdf:RDF>
      <cc:Work
         rdf:about="">
        <dc:format>image/svg+xml</dc:format>
        <dc:type
           rdf:resource="http://purl.org/dc/dcmitype/StillImage" />
        <dc:title></dc:title>
      </cc:Work>
    </rdf:RDF>
  </metadata>
  <g
     inkscape:label="Calque 1"
     inkscape:groupmode="layer"
     id="layer1"
     transform="translate(-35.567413,-164.09398)">
    <path
       style="fill:#710132;stroke-width:0.11760078"
       inkscape:connector-curvature="0"
       d="m 112.9026,184.57658 -3.13523,6.27165 -6.27284,3.13642 6.27284,3.13641 3.13523,6.27165 3.13523,-6.27165 6.27283,-3.13641 -6.27283,-3.13642 z"
       id="path871"
       sodipodi:nodetypes="ccccccccc" />
    <path
       id="path860"
       d="m 100.94196,173.95279 -11.854736,-9.04275 c -0.871738,-0.66801 -1.932392,-0.91597 -2.940932,-0.78026 -1.008538,0.13572 -1.965391,0.65564 -2.631319,1.53008 l -47.132235,61.6559 c -1.332442,1.7462 -0.996426,4.24133 0.749838,5.57227 l 11.854744,9.04274 c 0.872944,0.66642 1.933458,0.91456 2.940783,0.779 1.008546,-0.13572 1.965381,-0.65561 2.631458,-1.52884 l 47.132059,-61.65711 c 1.33243,-1.74405 0.9966,-4.24011 -0.74965,-5.57104 z m -8.789049,9.31416 -9.625901,-7.36607 4.378362,-5.81652 9.625889,7.36606 z"
       inkscape:connector-curvature="0"
       style="opacity:1;fill:#710132;stroke-width:0.12425363"
       sodipodi:nodetypes="ccscccssccccccccc" />
    <g
       id="g932"
       transform="matrix(4.0338609,0,0,4.0338609,-627.0017,-596.63058)"
       style="fill:#ec1818">
      <path
         style="font-style:italic;font-variant:normal;font-weight:bold;font-stretch:normal;font-size:13.14185238px;line-height:0.80000001;font-family:Calibri;-inkscape-font-specification:'Calibri, Bold Italic';font-variant-ligatures:normal;font-variant-caps:normal;font-variant-numeric:normal;font-feature-settings:normal;text-align:start;letter-spacing:0px;word-spacing:0px;writing-mode:lr-tb;text-anchor:start;fill:#ec1818;fill-opacity:1;stroke:none;stroke-width:5.0090456"
         d="m 336.45508,241.34766 c -5.08731,0 -9.65351,0.71746 -13.69727,2.15234 -3.97854,1.36966 -7.46854,3.45717 -10.46875,6.26172 -2.93499,2.80454 -5.41366,6.29454 -7.43554,10.46875 -2.02188,4.1742 -3.55411,8.99987 -4.59766,14.47851 l -1.85938,9.68555 h -10.76171 c -0.84789,0 -1.59778,0.3263 -2.25,0.97852 -0.587,0.58699 -1.14034,1.36932 -1.66211,2.34765 -0.52178,0.91311 -0.94538,1.9893 -1.27149,3.22852 -0.32611,1.17399 -0.61997,2.34749 -0.88086,3.52148 -0.19566,1.174 -0.35979,2.28262 -0.49023,3.32618 -0.0652,1.04355 -0.0977,1.8927 -0.0977,2.54492 0,1.56532 0.19656,2.64151 0.58789,3.22851 0.45656,0.52178 1.07476,0.78125 1.85742,0.78125 h 10.95899 l -14.77344,73.57032 c -0.587,2.93498 -1.27202,5.41366 -2.05469,7.43554 -0.78266,2.0871 -1.72911,3.78345 -2.83789,5.08789 -1.10877,1.30444 -2.412,2.2509 -3.91211,2.83789 -1.56532,0.65222 -3.39141,0.97852 -5.47851,0.97852 -0.97833,0 -1.76066,-0.0344 -2.34766,-0.0996 -0.65222,-0.0652 -1.20751,-0.16253 -1.66406,-0.29297 -0.45655,-0.0652 -0.88015,-0.13009 -1.27148,-0.19531 -0.39134,-0.0652 -0.7825,-0.0977 -1.17383,-0.0977 -0.587,0 -1.10986,0.29386 -1.56641,0.88086 -0.45655,0.65222 -0.84772,1.46698 -1.17383,2.44531 -0.39133,0.97833 -0.71763,2.05452 -0.97851,3.22852 -0.32611,1.17399 -0.58559,2.28262 -0.78125,3.32617 -0.19567,1.10877 -0.32736,2.1201 -0.39258,3.0332 -0.13045,0.91311 -0.19531,1.5657 -0.19531,1.95704 0,0.84788 0.0649,1.50047 0.19531,1.95703 0.13044,0.45655 0.35944,0.88015 0.68555,1.27148 0.65222,0.52178 2.11957,1.04268 4.40234,1.56445 2.28277,0.52178 5.12018,0.78321 8.51172,0.78321 5.08731,0 9.61912,-0.71746 13.59765,-2.15235 4.04377,-1.36966 7.53377,-3.45717 10.46875,-6.26171 2.93499,-2.73933 5.3488,-6.16251 7.24024,-10.27149 1.95666,-4.10898 3.48888,-8.87173 4.59766,-14.28516 l 15.35546,-76.68359 h 33.92774 l 9.63672,17.41406 -19.46094,34.58789 c -0.47272,0.89292 -0.70898,1.62927 -0.70898,2.20703 0.0525,0.57777 0.39509,1.0503 1.02539,1.41797 0.63029,0.36767 1.62851,0.60394 2.99414,0.70899 1.36563,0.15757 3.2026,0.23633 5.51367,0.23633 2.20602,0 3.99179,-0.0532 5.35742,-0.15821 1.36563,-0.0525 2.417,-0.18443 3.15234,-0.39453 0.78787,-0.26262 1.36476,-0.55009 1.73243,-0.86523 0.36767,-0.36767 0.65709,-0.8146 0.86718,-1.33985 l 13,-24.97461 13,24.97461 c 0.2101,0.52525 0.49952,0.97218 0.86719,1.33985 0.42019,0.31514 1.02268,0.60261 1.81055,0.86523 0.84039,0.2101 1.97052,0.34201 3.38867,0.39453 1.47068,0.10505 3.38836,0.15821 5.75195,0.15821 2.52117,0 4.54321,-0.0788 6.06641,-0.23633 1.5232,-0.10505 2.65138,-0.34132 3.38672,-0.70899 0.73534,-0.36767 1.10351,-0.8402 1.10351,-1.41797 0.0525,-0.57776 -0.13058,-1.31411 -0.55078,-2.20703 l -19.30273,-35.13867 17.49023,-31.9082 c 0.57777,-1.05049 0.86719,-1.89119 0.86719,-2.52149 0.0525,-0.68281 -0.2369,-1.2085 -0.86719,-1.57617 -0.57776,-0.36767 -1.57598,-0.60393 -2.99414,-0.70898 -1.36563,-0.10505 -3.20456,-0.15625 -5.51562,-0.15625 -2.04845,0 -3.67671,0.0512 -4.88477,0.15625 -1.15553,0.10505 -2.075,0.26256 -2.75781,0.47265 -0.68282,0.2101 -1.18095,0.47392 -1.4961,0.78907 -0.31514,0.31514 -0.55141,0.68137 -0.70898,1.10156 l -12.44922,23.47852 -12.52539,-23.47852 c -0.26262,-0.52524 -0.57764,-0.94462 -0.94531,-1.25977 -0.36767,-0.36767 -0.94651,-0.62953 -1.73438,-0.78711 -0.78786,-0.15757 -1.89044,-0.26388 -3.30859,-0.3164 -1.36563,-0.10505 -3.20456,-0.15625 -5.51563,-0.15625 -10.39394,0.0836 -21.50312,0.033 -31.0996,0.0331 l 1.4668,-7.43555 c 0.52178,-2.80454 1.17437,-5.21835 1.95703,-7.24023 0.78267,-2.02188 1.72912,-3.65141 2.83789,-4.89063 1.10878,-1.30443 2.41201,-2.25089 3.91211,-2.83789 1.56533,-0.58699 3.39337,-0.88085 5.48047,-0.88085 1.174,0 2.24824,0.0993 3.22656,0.29492 1.04356,0.19566 1.95758,0.4227 2.74024,0.68359 0.78266,0.19567 1.46769,0.39223 2.05469,0.58789 0.65222,0.19567 1.17312,0.29297 1.56445,0.29297 0.52178,0 1.0122,-0.29386 1.46875,-0.88086 0.45655,-0.65222 0.84772,-1.46698 1.17383,-2.44531 0.39133,-1.04355 0.71763,-2.15218 0.97851,-3.32617 0.26089,-1.174 0.4555,-2.31506 0.58594,-3.42383 0.19567,-1.10878 0.32736,-2.08766 0.39258,-2.93555 0.13044,-0.91311 0.19531,-1.5657 0.19531,-1.95703 0,-0.84789 -0.0973,-1.56535 -0.29297,-2.15234 -0.13044,-0.587 -0.39187,-1.04303 -0.7832,-1.36914 -0.39133,-0.39134 -1.10879,-0.7825 -2.15234,-1.17383 -1.04356,-0.39133 -2.25144,-0.71763 -3.6211,-0.97852 -1.36966,-0.32611 -2.90188,-0.5551 -4.59765,-0.68555 -1.69578,-0.19566 -3.39017,-0.29296 -5.08594,-0.29296 z"
         transform="matrix(0.06559059,0,0,0.06559059,158.62635,184.44003)"
         id="text922"
         inkscape:connector-curvature="0"
         sodipodi:nodetypes="cccsccscccccscscccccscccscccccscccscccccccccccscccccccccscscccccccsccsccccccccccccscccscccccsccccccc" />
    </g>
  </g>
</svg>
