<?xml version="1.0" encoding="UTF-8" standalone="no"?>
<!-- Created with Inkscape (http://www.inkscape.org/) -->

<svg
   xmlns:dc="http://purl.org/dc/elements/1.1/"
   xmlns:cc="http://creativecommons.org/ns#"
   xmlns:rdf="http://www.w3.org/1999/02/22-rdf-syntax-ns#"
   xmlns:svg="http://www.w3.org/2000/svg"
   xmlns="http://www.w3.org/2000/svg"
   xmlns:sodipodi="http://sodipodi.sourceforge.net/DTD/sodipodi-0.dtd"
   xmlns:inkscape="http://www.inkscape.org/namespaces/inkscape"
   width="32"
   height="32"
   viewBox="0 0 8.4666666 8.4666666"
   version="1.1"
   id="svg8"
   inkscape:version="0.92.5 (2060ec1f9f, 2020-04-08)"
   sodipodi:docname="audio-bit-depth_bd.svg">
  <defs
     id="defs2">
    <style
       id="style1399">.cls-1{fill:#e3e3e3;}</style>
    <style
       id="style1399-4">.cls-1{fill:#e3e3e3;}</style>
    <style
       id="style1399-8">.cls-1{fill:#e3e3e3;}</style>
    <style
       id="style1399-4-5">.cls-1{fill:#e3e3e3;}</style>
    <style
       id="style1399-9">.cls-1{fill:#e3e3e3;}</style>
    <style
       id="style1399-4-6">.cls-1{fill:#e3e3e3;}</style>
    <style
       id="style1399-8-4">.cls-1{fill:#e3e3e3;}</style>
    <style
       id="style1399-4-5-3">.cls-1{fill:#e3e3e3;}</style>
    <style
       id="style1399-88">.cls-1{fill:#e3e3e3;}</style>
    <style
       id="style1399-3">.cls-1{fill:#e3e3e3;}</style>
    <style
       id="style1399-94">.cls-1{fill:#e3e3e3;}</style>
    <style
       id="style1399-5">.cls-1{fill:#e3e3e3;}</style>
    <style
       id="style1399-46">.cls-1{fill:#e3e3e3;}</style>
    <style
       id="style1399-4-2">.cls-1{fill:#e3e3e3;}</style>
    <style
       id="style1399-8-5">.cls-1{fill:#e3e3e3;}</style>
    <style
       id="style1399-4-5-8">.cls-1{fill:#e3e3e3;}</style>
    <style
       id="style1399-9-6">.cls-1{fill:#e3e3e3;}</style>
    <style
       id="style1399-4-6-2">.cls-1{fill:#e3e3e3;}</style>
    <style
       id="style1399-8-4-8">.cls-1{fill:#e3e3e3;}</style>
    <style
       id="style1399-4-5-3-4">.cls-1{fill:#e3e3e3;}</style>
    <style
       id="style1399-88-7">.cls-1{fill:#e3e3e3;}</style>
    <style
       id="style1399-3-2">.cls-1{fill:#e3e3e3;}</style>
    <style
       id="style1399-94-4">.cls-1{fill:#e3e3e3;}</style>
    <style
       id="style1399-5-0">.cls-1{fill:#e3e3e3;}</style>
  </defs>
  <sodipodi:namedview
     id="base"
     pagecolor="#ffffff"
     bordercolor="#666666"
     borderopacity="1.0"
     inkscape:pageopacity="0.0"
     inkscape:pageshadow="2"
     inkscape:zoom="11.313709"
     inkscape:cx="17.714646"
     inkscape:cy="25.715372"
     inkscape:document-units="mm"
     inkscape:current-layer="svg8"
     showgrid="false"
     units="px"
     inkscape:window-width="3440"
     inkscape:window-height="1403"
     inkscape:window-x="0"
     inkscape:window-y="293"
     inkscape:window-maximized="1">
    <sodipodi:guide
       position="8.4666666,0"
       orientation="-32,0"
       id="guide854"
       inkscape:locked="false" />
    <sodipodi:guide
       position="8.4666666,8.4666662"
       orientation="0,-32"
       id="guide856"
       inkscape:locked="false" />
    <sodipodi:guide
       position="0,8.4666814"
       orientation="32,0"
       id="guide858"
       inkscape:locked="false" />
  </sodipodi:namedview>
  <metadata
     id="metadata5">
    <rdf:RDF>
      <cc:Work
         rdf:about="">
        <dc:format>image/svg+xml</dc:format>
        <dc:type
           rdf:resource="http://purl.org/dc/dcmitype/StillImage" />
        <dc:title></dc:title>
      </cc:Work>
    </rdf:RDF>
  </metadata>
  <path
     sodipodi:nodetypes="ssssssssscsssssssc"
     inkscape:connector-curvature="0"
     id="path1254"
     d="m 7.0047702,0.00108578 c -0.088431,0 -0.1596801,0.071249 -0.1596801,0.1596802 v 0.54275415 c 0,0.088431 0.071249,0.1596802 0.1596801,0.1596802 h 1.3022161 c 0.088431,0 0.1596803,-0.071249 0.1596803,-0.1596802 V 0.16076598 c 0,-0.088431 -0.071249,-0.1596802 -0.1596803,-0.1596802 z m 0.074414,0.1431437 h 1.153388 c 0.049563,0 0.0894,0.039837 0.0894,0.0894 v 0.39702665 c 0,0.049563 -0.039837,0.0894 -0.0894,0.0894 h -1.153388 c -0.049564,0 -0.0894,-0.039837 -0.0894,-0.0894 V 0.23362968 c 0,-0.049564 0.039837,-0.0894 0.0894,-0.0894002 z"
     style="opacity:1;fill:#232323;fill-opacity:1;stroke:none;stroke-width:0.96527892;stroke-miterlimit:4;stroke-dasharray:none;stroke-opacity:0.98156684" />
  <path
     style="opacity:1;fill:#232323;fill-opacity:1;stroke:none;stroke-width:0.96527892;stroke-miterlimit:4;stroke-dasharray:none;stroke-opacity:0.98156684"
     d="m 7.0047702,1.2678319 c -0.088431,0 -0.1596801,0.071249 -0.1596801,0.1596802 v 0.5427541 c 0,0.088431 0.071249,0.1596802 0.1596801,0.1596802 h 1.3022161 c 0.088431,0 0.1596803,-0.071249 0.1596803,-0.1596802 V 1.4275121 c 0,-0.088431 -0.071249,-0.1596802 -0.1596803,-0.1596802 z m 0.074414,0.1431437 h 1.153388 c 0.049563,0 0.0894,0.039837 0.0894,0.0894 v 0.3970266 c 0,0.049563 -0.039837,0.0894 -0.0894,0.0894 h -1.153388 c -0.049564,0 -0.0894,-0.039837 -0.0894,-0.0894 V 1.5003758 c 0,-0.049564 0.039837,-0.0894 0.0894,-0.0894 z"
     id="path1256"
     inkscape:connector-curvature="0"
     sodipodi:nodetypes="ssssssssscsssssssc" />
  <path
     sodipodi:nodetypes="ssssssssscsssssssc"
     inkscape:connector-curvature="0"
     id="path1258"
     d="m 7.0047702,2.5345781 c -0.088431,0 -0.1596801,0.071249 -0.1596801,0.1596802 v 0.5427541 c 0,0.088431 0.071249,0.1596802 0.1596801,0.1596802 h 1.3022161 c 0.088431,0 0.1596803,-0.071249 0.1596803,-0.1596802 V 2.6942583 c 0,-0.088431 -0.071249,-0.1596802 -0.1596803,-0.1596802 z m 0.074414,0.1431437 h 1.153388 c 0.049563,0 0.0894,0.039837 0.0894,0.0894 v 0.3970266 c 0,0.049563 -0.039837,0.0894 -0.0894,0.0894 h -1.153388 c -0.049564,0 -0.0894,-0.039837 -0.0894,-0.0894 V 2.767122 c 0,-0.049564 0.039837,-0.0894 0.0894,-0.0894 z"
     style="opacity:1;fill:#232323;fill-opacity:1;stroke:none;stroke-width:0.96527892;stroke-miterlimit:4;stroke-dasharray:none;stroke-opacity:0.98156684" />
  <path
     style="opacity:1;fill:#232323;fill-opacity:1;stroke:none;stroke-width:0.96527892;stroke-miterlimit:4;stroke-dasharray:none;stroke-opacity:0.98156684"
     d="m 7.0047702,3.8013244 c -0.088431,0 -0.1596801,0.071249 -0.1596801,0.1596802 v 0.5427541 c 0,0.088431 0.071249,0.1596802 0.1596801,0.1596802 h 1.3022161 c 0.088431,0 0.1596803,-0.071249 0.1596803,-0.1596802 V 3.9610046 c 0,-0.088431 -0.071249,-0.1596802 -0.1596803,-0.1596802 z m 0.074414,0.1431437 h 1.153388 c 0.049563,0 0.0894,0.039837 0.0894,0.0894 v 0.3970266 c 0,0.049563 -0.039837,0.0894 -0.0894,0.0894 h -1.153388 c -0.049564,0 -0.0894,-0.039837 -0.0894,-0.0894 V 4.0338683 c 0,-0.049564 0.039837,-0.0894 0.0894,-0.0894 z"
     id="path1260"
     inkscape:connector-curvature="0"
     sodipodi:nodetypes="ssssssssscsssssssc" />
  <path
     sodipodi:nodetypes="ssssssssscsssssssc"
     inkscape:connector-curvature="0"
     id="path1262"
     d="m 7.0047702,5.0680703 c -0.088431,0 -0.1596801,0.071249 -0.1596801,0.1596802 v 0.5427541 c 0,0.088431 0.071249,0.1596802 0.1596801,0.1596802 h 1.3022161 c 0.088431,0 0.1596803,-0.071249 0.1596803,-0.1596802 V 5.2277505 c 0,-0.088431 -0.071249,-0.1596802 -0.1596803,-0.1596802 z m 0.074414,0.1431437 h 1.153388 c 0.049563,0 0.0894,0.039837 0.0894,0.0894 v 0.3970266 c 0,0.049563 -0.039837,0.0894 -0.0894,0.0894 h -1.153388 c -0.049564,0 -0.0894,-0.039837 -0.0894,-0.0894 V 5.3006142 c 0,-0.049564 0.039837,-0.0894 0.0894,-0.0894 z"
     style="opacity:1;fill:#232323;fill-opacity:1;stroke:none;stroke-width:0.96527892;stroke-miterlimit:4;stroke-dasharray:none;stroke-opacity:0.98156684" />
  <path
     style="opacity:1;fill:#232323;fill-opacity:1;stroke:none;stroke-width:0.96527892;stroke-miterlimit:4;stroke-dasharray:none;stroke-opacity:0.98156684"
     d="m 7.0047702,6.3348165 c -0.088431,0 -0.1596801,0.071249 -0.1596801,0.1596802 v 0.5427541 c 0,0.088431 0.071249,0.1596802 0.1596801,0.1596802 h 1.3022161 c 0.088431,0 0.1596803,-0.071249 0.1596803,-0.1596802 V 6.4944967 c 0,-0.088431 -0.071249,-0.1596802 -0.1596803,-0.1596802 z"
     id="path1264"
     inkscape:connector-curvature="0"
     sodipodi:nodetypes="sssssssss" />
  <path
     sodipodi:nodetypes="sssssssss"
     inkscape:connector-curvature="0"
     id="path1266"
     d="m 7.0047702,7.6015626 c -0.088431,0 -0.1596801,0.071249 -0.1596801,0.1596802 v 0.5427541 c 0,0.088431 0.071249,0.1596802 0.1596801,0.1596802 h 1.3022161 c 0.088431,0 0.1596803,-0.071249 0.1596803,-0.1596802 V 7.7612428 c 0,-0.088431 -0.071249,-0.1596802 -0.1596803,-0.1596802 z"
     style="opacity:1;fill:#232323;fill-opacity:1;stroke:none;stroke-width:0.96527892;stroke-miterlimit:4;stroke-dasharray:none;stroke-opacity:0.98156684" />
  <path
     style="opacity:1;fill:#232323;fill-opacity:1;stroke:none;stroke-width:0.96527892;stroke-miterlimit:4;stroke-dasharray:none;stroke-opacity:0.98156684"
     d="m 4.7235908,0.00108578 c -0.088431,0 -0.1596801,0.071249 -0.1596801,0.1596802 v 0.54275415 c 0,0.088431 0.071249,0.1596802 0.1596801,0.1596802 h 1.3022161 c 0.088431,0 0.1596803,-0.071249 0.1596803,-0.1596802 V 0.16076598 c 0,-0.088431 -0.071249,-0.1596802 -0.1596803,-0.1596802 z m 0.074414,0.1431437 h 1.153388 c 0.049563,0 0.0894,0.039837 0.0894,0.0894 v 0.39702665 c 0,0.049563 -0.039837,0.0894 -0.0894,0.0894 h -1.153388 c -0.049564,0 -0.0894,-0.039837 -0.0894,-0.0894 V 0.23362968 c 0,-0.049564 0.039837,-0.0894 0.0894,-0.0894002 z"
     id="path1296"
     inkscape:connector-curvature="0"
     sodipodi:nodetypes="ssssssssscsssssssc" />
  <path
     sodipodi:nodetypes="ssssssssscsssssssc"
     inkscape:connector-curvature="0"
     id="path1298"
     d="m 4.7235908,1.2678319 c -0.088431,0 -0.1596801,0.071249 -0.1596801,0.1596802 v 0.5427541 c 0,0.088431 0.071249,0.1596802 0.1596801,0.1596802 h 1.3022161 c 0.088431,0 0.1596803,-0.071249 0.1596803,-0.1596802 V 1.4275121 c 0,-0.088431 -0.071249,-0.1596802 -0.1596803,-0.1596802 z m 0.074414,0.1431437 h 1.153388 c 0.049563,0 0.0894,0.039837 0.0894,0.0894 v 0.3970266 c 0,0.049563 -0.039837,0.0894 -0.0894,0.0894 h -1.153388 c -0.049564,0 -0.0894,-0.039837 -0.0894,-0.0894 V 1.5003758 c 0,-0.049564 0.039837,-0.0894 0.0894,-0.0894 z"
     style="opacity:1;fill:#232323;fill-opacity:1;stroke:none;stroke-width:0.96527892;stroke-miterlimit:4;stroke-dasharray:none;stroke-opacity:0.98156684" />
  <path
     style="opacity:1;fill:#232323;fill-opacity:1;stroke:none;stroke-width:0.96527892;stroke-miterlimit:4;stroke-dasharray:none;stroke-opacity:0.98156684"
     d="m 4.7235908,2.5345781 c -0.088431,0 -0.1596801,0.071249 -0.1596801,0.1596802 v 0.5427541 c 0,0.088431 0.071249,0.1596802 0.1596801,0.1596802 h 1.3022161 c 0.088431,0 0.1596803,-0.071249 0.1596803,-0.1596802 V 2.6942583 c 0,-0.088431 -0.071249,-0.1596802 -0.1596803,-0.1596802 z m 0.074414,0.1431437 h 1.153388 c 0.049563,0 0.0894,0.039837 0.0894,0.0894 v 0.3970266 c 0,0.049563 -0.039837,0.0894 -0.0894,0.0894 h -1.153388 c -0.049564,0 -0.0894,-0.039837 -0.0894,-0.0894 V 2.767122 c 0,-0.049564 0.039837,-0.0894 0.0894,-0.0894 z"
     id="path1300"
     inkscape:connector-curvature="0"
     sodipodi:nodetypes="ssssssssscsssssssc" />
  <path
     sodipodi:nodetypes="sssssssss"
     inkscape:connector-curvature="0"
     id="path1302"
     d="m 4.7235908,3.8013244 c -0.088431,0 -0.1596801,0.071249 -0.1596801,0.1596802 v 0.5427541 c 0,0.088431 0.071249,0.1596802 0.1596801,0.1596802 h 1.3022161 c 0.088431,0 0.1596803,-0.071249 0.1596803,-0.1596802 V 3.9610046 c 0,-0.088431 -0.071249,-0.1596802 -0.1596803,-0.1596802 z"
     style="opacity:1;fill:#232323;fill-opacity:1;stroke:none;stroke-width:0.96527892;stroke-miterlimit:4;stroke-dasharray:none;stroke-opacity:0.98156684" />
  <path
     style="opacity:1;fill:#232323;fill-opacity:1;stroke:none;stroke-width:0.96527892;stroke-miterlimit:4;stroke-dasharray:none;stroke-opacity:0.98156684"
     d="m 4.7235908,5.0680703 c -0.088431,0 -0.1596801,0.071249 -0.1596801,0.1596802 v 0.5427541 c 0,0.088431 0.071249,0.1596802 0.1596801,0.1596802 h 1.3022161 c 0.088431,0 0.1596803,-0.071249 0.1596803,-0.1596802 V 5.2277505 c 0,-0.088431 -0.071249,-0.1596802 -0.1596803,-0.1596802 z"
     id="path1304"
     inkscape:connector-curvature="0"
     sodipodi:nodetypes="sssssssss" />
  <path
     sodipodi:nodetypes="sssssssss"
     inkscape:connector-curvature="0"
     id="path1306"
     d="m 4.7235908,6.3348165 c -0.088431,0 -0.1596801,0.071249 -0.1596801,0.1596802 v 0.5427541 c 0,0.088431 0.071249,0.1596802 0.1596801,0.1596802 h 1.3022161 c 0.088431,0 0.1596803,-0.071249 0.1596803,-0.1596802 V 6.4944967 c 0,-0.088431 -0.071249,-0.1596802 -0.1596803,-0.1596802 z"
     style="opacity:1;fill:#232323;fill-opacity:1;stroke:none;stroke-width:0.96527892;stroke-miterlimit:4;stroke-dasharray:none;stroke-opacity:0.98156684" />
  <path
     style="opacity:1;fill:#232323;fill-opacity:1;stroke:none;stroke-width:0.96527892;stroke-miterlimit:4;stroke-dasharray:none;stroke-opacity:0.98156684"
     d="m 4.7235908,7.6015626 c -0.088431,0 -0.1596801,0.071249 -0.1596801,0.1596802 v 0.5427541 c 0,0.088431 0.071249,0.1596802 0.1596801,0.1596802 h 1.3022161 c 0.088431,0 0.1596803,-0.071249 0.1596803,-0.1596802 V 7.7612428 c 0,-0.088431 -0.071249,-0.1596802 -0.1596803,-0.1596802 z"
     id="path1308"
     inkscape:connector-curvature="0"
     sodipodi:nodetypes="sssssssss" />
  <path
     sodipodi:nodetypes="ssssssssscsssssssc"
     inkscape:connector-curvature="0"
     id="path1310"
     d="m 2.4424106,0.00108578 c -0.088431,0 -0.1596801,0.071249 -0.1596801,0.1596802 v 0.54275415 c 0,0.088431 0.071249,0.1596802 0.1596801,0.1596802 h 1.3022161 c 0.088431,0 0.1596803,-0.071249 0.1596803,-0.1596802 V 0.16076598 c 0,-0.088431 -0.071249,-0.1596802 -0.1596803,-0.1596802 z m 0.074414,0.1431437 h 1.153388 c 0.049563,0 0.0894,0.039837 0.0894,0.0894 v 0.39702665 c 0,0.049563 -0.039837,0.0894 -0.0894,0.0894 h -1.153388 c -0.049564,0 -0.0894,-0.039837 -0.0894,-0.0894 V 0.23362968 c 0,-0.049564 0.039837,-0.0894 0.0894,-0.0894002 z"
     style="opacity:1;fill:#232323;fill-opacity:1;stroke:none;stroke-width:0.96527892;stroke-miterlimit:4;stroke-dasharray:none;stroke-opacity:0.98156684" />
  <path
     style="opacity:1;fill:#232323;fill-opacity:1;stroke:none;stroke-width:0.96527892;stroke-miterlimit:4;stroke-dasharray:none;stroke-opacity:0.98156684"
     d="m 2.4424106,1.2678319 c -0.088431,0 -0.1596801,0.071249 -0.1596801,0.1596802 v 0.5427541 c 0,0.088431 0.071249,0.1596802 0.1596801,0.1596802 h 1.3022161 c 0.088431,0 0.1596803,-0.071249 0.1596803,-0.1596802 V 1.4275121 c 0,-0.088431 -0.071249,-0.1596802 -0.1596803,-0.1596802 z m 0.074414,0.1431437 h 1.153388 c 0.049563,0 0.0894,0.039837 0.0894,0.0894 v 0.3970266 c 0,0.049563 -0.039837,0.0894 -0.0894,0.0894 h -1.153388 c -0.049564,0 -0.0894,-0.039837 -0.0894,-0.0894 V 1.5003758 c 0,-0.049564 0.039837,-0.0894 0.0894,-0.0894 z"
     id="path1312"
     inkscape:connector-curvature="0"
     sodipodi:nodetypes="ssssssssscsssssssc" />
  <path
     sodipodi:nodetypes="ssssssssscsssssssc"
     inkscape:connector-curvature="0"
     id="path1314"
     d="m 2.4424106,2.5345781 c -0.088431,0 -0.1596801,0.071249 -0.1596801,0.1596802 v 0.5427541 c 0,0.088431 0.071249,0.1596802 0.1596801,0.1596802 h 1.3022161 c 0.088431,0 0.1596803,-0.071249 0.1596803,-0.1596802 V 2.6942583 c 0,-0.088431 -0.071249,-0.1596802 -0.1596803,-0.1596802 z m 0.074414,0.1431437 h 1.153388 c 0.049563,0 0.0894,0.039837 0.0894,0.0894 v 0.3970266 c 0,0.049563 -0.039837,0.0894 -0.0894,0.0894 h -1.153388 c -0.049564,0 -0.0894,-0.039837 -0.0894,-0.0894 V 2.767122 c 0,-0.049564 0.039837,-0.0894 0.0894,-0.0894 z"
     style="opacity:1;fill:#232323;fill-opacity:1;stroke:none;stroke-width:0.96527892;stroke-miterlimit:4;stroke-dasharray:none;stroke-opacity:0.98156684" />
  <path
     style="opacity:1;fill:#232323;fill-opacity:1;stroke:none;stroke-width:0.96527892;stroke-miterlimit:4;stroke-dasharray:none;stroke-opacity:0.98156684"
     d="m 2.4424106,3.8013244 c -0.088431,0 -0.1596801,0.071249 -0.1596801,0.1596802 v 0.5427541 c 0,0.088431 0.071249,0.1596802 0.1596801,0.1596802 h 1.3022161 c 0.088431,0 0.1596803,-0.071249 0.1596803,-0.1596802 V 3.9610046 c 0,-0.088431 -0.071249,-0.1596802 -0.1596803,-0.1596802 z m 0.074414,0.1431437 h 1.153388 c 0.049563,0 0.0894,0.039837 0.0894,0.0894 v 0.3970266 c 0,0.049563 -0.039837,0.0894 -0.0894,0.0894 h -1.153388 c -0.049564,0 -0.0894,-0.039837 -0.0894,-0.0894 V 4.0338683 c 0,-0.049564 0.039837,-0.0894 0.0894,-0.0894 z"
     id="path1316"
     inkscape:connector-curvature="0"
     sodipodi:nodetypes="ssssssssscsssssssc" />
  <path
     sodipodi:nodetypes="sssssssss"
     inkscape:connector-curvature="0"
     id="path1318"
     d="m 2.4424106,5.0680703 c -0.088431,0 -0.1596801,0.071249 -0.1596801,0.1596802 v 0.5427541 c 0,0.088431 0.071249,0.1596802 0.1596801,0.1596802 h 1.3022161 c 0.088431,0 0.1596803,-0.071249 0.1596803,-0.1596802 V 5.2277505 c 0,-0.088431 -0.071249,-0.1596802 -0.1596803,-0.1596802 z"
     style="opacity:1;fill:#232323;fill-opacity:1;stroke:none;stroke-width:0.96527892;stroke-miterlimit:4;stroke-dasharray:none;stroke-opacity:0.98156684" />
  <path
     style="opacity:1;fill:#232323;fill-opacity:1;stroke:none;stroke-width:0.96527892;stroke-miterlimit:4;stroke-dasharray:none;stroke-opacity:0.98156684"
     d="m 2.4424106,6.3348165 c -0.088431,0 -0.1596801,0.071249 -0.1596801,0.1596802 v 0.5427541 c 0,0.088431 0.071249,0.1596802 0.1596801,0.1596802 h 1.3022161 c 0.088431,0 0.1596803,-0.071249 0.1596803,-0.1596802 V 6.4944967 c 0,-0.088431 -0.071249,-0.1596802 -0.1596803,-0.1596802 z"
     id="path1320"
     inkscape:connector-curvature="0"
     sodipodi:nodetypes="sssssssss" />
  <path
     sodipodi:nodetypes="sssssssss"
     inkscape:connector-curvature="0"
     id="path1322"
     d="m 2.4424106,7.6015626 c -0.088431,0 -0.1596801,0.071249 -0.1596801,0.1596802 v 0.5427541 c 0,0.088431 0.071249,0.1596802 0.1596801,0.1596802 h 1.3022161 c 0.088431,0 0.1596803,-0.071249 0.1596803,-0.1596802 V 7.7612428 c 0,-0.088431 -0.071249,-0.1596802 -0.1596803,-0.1596802 z"
     style="opacity:1;fill:#232323;fill-opacity:1;stroke:none;stroke-width:0.96527892;stroke-miterlimit:4;stroke-dasharray:none;stroke-opacity:0.98156684" />
  <path
     style="opacity:1;fill:#232323;fill-opacity:1;stroke:none;stroke-width:0.96527892;stroke-miterlimit:4;stroke-dasharray:none;stroke-opacity:0.98156684"
     d="m 0.16123046,0.00108578 c -0.088431,0 -0.1596801,0.071249 -0.1596801,0.1596802 v 0.54275415 c 0,0.088431 0.071249,0.1596802 0.1596801,0.1596802 H 1.4634466 c 0.088431,0 0.1596803,-0.071249 0.1596803,-0.1596802 V 0.16076598 c 0,-0.088431 -0.071249,-0.1596802 -0.1596803,-0.1596802 z m 0.074414,0.1431437 H 1.3890325 c 0.049563,0 0.0894,0.039837 0.0894,0.0894 v 0.39702665 c 0,0.049563 -0.039837,0.0894 -0.0894,0.0894 H 0.23564446 c -0.049564,0 -0.0894,-0.039837 -0.0894,-0.0894 V 0.23362968 c 0,-0.049564 0.039837,-0.0894 0.0894,-0.0894002 z"
     id="path1324"
     inkscape:connector-curvature="0"
     sodipodi:nodetypes="ssssssssscsssssssc" />
  <path
     sodipodi:nodetypes="ssssssssscsssssssc"
     inkscape:connector-curvature="0"
     id="path1326"
     d="m 0.16123046,1.2678319 c -0.088431,0 -0.1596801,0.071249 -0.1596801,0.1596802 v 0.5427541 c 0,0.088431 0.071249,0.1596802 0.1596801,0.1596802 H 1.4634466 c 0.088431,0 0.1596803,-0.071249 0.1596803,-0.1596802 V 1.4275121 c 0,-0.088431 -0.071249,-0.1596802 -0.1596803,-0.1596802 z m 0.074414,0.1431437 H 1.3890325 c 0.049563,0 0.0894,0.039837 0.0894,0.0894 v 0.3970266 c 0,0.049563 -0.039837,0.0894 -0.0894,0.0894 H 0.23564446 c -0.049564,0 -0.0894,-0.039837 -0.0894,-0.0894 V 1.5003758 c 0,-0.049564 0.039837,-0.0894 0.0894,-0.0894 z"
     style="opacity:1;fill:#232323;fill-opacity:1;stroke:none;stroke-width:0.96527892;stroke-miterlimit:4;stroke-dasharray:none;stroke-opacity:0.98156684" />
  <path
     style="opacity:1;fill:#232323;fill-opacity:1;stroke:none;stroke-width:0.96527892;stroke-miterlimit:4;stroke-dasharray:none;stroke-opacity:0.98156684"
     d="m 0.16123046,2.5345781 c -0.088431,0 -0.1596801,0.071249 -0.1596801,0.1596802 v 0.5427541 c 0,0.088431 0.071249,0.1596802 0.1596801,0.1596802 H 1.4634466 c 0.088431,0 0.1596803,-0.071249 0.1596803,-0.1596802 V 2.6942583 c 0,-0.088431 -0.071249,-0.1596802 -0.1596803,-0.1596802 z"
     id="path1328"
     inkscape:connector-curvature="0"
     sodipodi:nodetypes="sssssssss" />
  <path
     sodipodi:nodetypes="sssssssss"
     inkscape:connector-curvature="0"
     id="path1330"
     d="m 0.16123046,3.8013244 c -0.088431,0 -0.1596801,0.071249 -0.1596801,0.1596802 v 0.5427541 c 0,0.088431 0.071249,0.1596802 0.1596801,0.1596802 H 1.4634466 c 0.088431,0 0.1596803,-0.071249 0.1596803,-0.1596802 V 3.9610046 c 0,-0.088431 -0.071249,-0.1596802 -0.1596803,-0.1596802 z"
     style="opacity:1;fill:#232323;fill-opacity:1;stroke:none;stroke-width:0.96527892;stroke-miterlimit:4;stroke-dasharray:none;stroke-opacity:0.98156684" />
  <path
     style="opacity:1;fill:#232323;fill-opacity:1;stroke:none;stroke-width:0.96527892;stroke-miterlimit:4;stroke-dasharray:none;stroke-opacity:0.98156684"
     d="m 0.16123046,5.0680703 c -0.088431,0 -0.1596801,0.071249 -0.1596801,0.1596802 v 0.5427541 c 0,0.088431 0.071249,0.1596802 0.1596801,0.1596802 H 1.4634466 c 0.088431,0 0.1596803,-0.071249 0.1596803,-0.1596802 V 5.2277505 c 0,-0.088431 -0.071249,-0.1596802 -0.1596803,-0.1596802 z"
     id="path1332"
     inkscape:connector-curvature="0"
     sodipodi:nodetypes="sssssssss" />
  <path
     sodipodi:nodetypes="sssssssss"
     inkscape:connector-curvature="0"
     id="path1334"
     d="m 0.16123046,6.3348165 c -0.088431,0 -0.1596801,0.071249 -0.1596801,0.1596802 v 0.5427541 c 0,0.088431 0.071249,0.1596802 0.1596801,0.1596802 H 1.4634466 c 0.088431,0 0.1596803,-0.071249 0.1596803,-0.1596802 V 6.4944967 c 0,-0.088431 -0.071249,-0.1596802 -0.1596803,-0.1596802 z"
     style="opacity:1;fill:#232323;fill-opacity:1;stroke:none;stroke-width:0.96527892;stroke-miterlimit:4;stroke-dasharray:none;stroke-opacity:0.98156684" />
  <path
     style="opacity:1;fill:#232323;fill-opacity:1;stroke:none;stroke-width:0.96527892;stroke-miterlimit:4;stroke-dasharray:none;stroke-opacity:0.98156684"
     d="m 0.16123046,7.6015626 c -0.088431,0 -0.1596801,0.071249 -0.1596801,0.1596802 v 0.5427541 c 0,0.088431 0.071249,0.1596802 0.1596801,0.1596802 H 1.4634466 c 0.088431,0 0.1596803,-0.071249 0.1596803,-0.1596802 V 7.7612428 c 0,-0.088431 -0.071249,-0.1596802 -0.1596803,-0.1596802 z"
     id="path1336"
     inkscape:connector-curvature="0"
     sodipodi:nodetypes="sssssssss" />
</svg>
