<?xml version="1.0" encoding="UTF-8" standalone="no"?>
<!-- Created with Inkscape (http://www.inkscape.org/) -->

<svg
   xmlns:dc="http://purl.org/dc/elements/1.1/"
   xmlns:cc="http://creativecommons.org/ns#"
   xmlns:rdf="http://www.w3.org/1999/02/22-rdf-syntax-ns#"
   xmlns:svg="http://www.w3.org/2000/svg"
   xmlns="http://www.w3.org/2000/svg"
   xmlns:sodipodi="http://sodipodi.sourceforge.net/DTD/sodipodi-0.dtd"
   xmlns:inkscape="http://www.inkscape.org/namespaces/inkscape"
   width="500"
   height="500"
   viewBox="0 0 132.29166 132.29167"
   version="1.1"
   id="svg8"
   inkscape:version="0.92.4 (5da689c313, 2019-01-14)"
   sodipodi:docname="durpresets.svg">
  <defs
     id="defs2" />
  <sodipodi:namedview
     id="base"
     pagecolor="#ffffff"
     bordercolor="#666666"
     borderopacity="1.0"
     inkscape:pageopacity="0.0"
     inkscape:pageshadow="2"
     inkscape:zoom="1.2342059"
     inkscape:cx="510.62658"
     inkscape:cy="258.51208"
     inkscape:document-units="px"
     inkscape:current-layer="layer1"
     showgrid="false"
     units="px"
     inkscape:window-width="3378"
     inkscape:window-height="1417"
     inkscape:window-x="54"
     inkscape:window-y="-8"
     inkscape:window-maximized="1" />
  <metadata
     id="metadata5">
    <rdf:RDF>
      <cc:Work
         rdf:about="">
        <dc:format>image/svg+xml</dc:format>
        <dc:type
           rdf:resource="http://purl.org/dc/dcmitype/StillImage" />
        <dc:title></dc:title>
      </cc:Work>
    </rdf:RDF>
  </metadata>
  <g
     inkscape:label="Calque 1"
     inkscape:groupmode="layer"
     id="layer1"
     transform="translate(0,-164.70831)">
    <path
       id="path819"
       d="m 87.911316,199.94501 v 31.13185 c 0,2.86456 -2.324082,5.18864 -5.188638,5.18864 H 37.754452 c -2.864562,0 -5.188641,-2.32408 -5.188641,-5.18864 v -31.13185 c 0,-2.86456 2.324079,-5.18864 5.188641,-5.18864 h 9.512509 l 1.32959,-3.55638 c 0.756676,-2.02141 2.691608,-3.36181 4.853541,-3.36181 h 13.566134 c 2.161935,0 4.096865,1.3404 4.853542,3.36181 l 1.340399,3.55638 h 9.512511 c 2.864556,0 5.188638,2.32408 5.188638,5.18864 z m -14.701149,15.56592 c 0,-7.156 -5.815602,-12.9716 -12.971603,-12.9716 -7.156,0 -12.971603,5.8156 -12.971603,12.9716 0,7.15601 5.815603,12.9716 12.971603,12.9716 7.156001,0 12.971603,-5.81559 12.971603,-12.9716 z m -3.459094,0 c 0,5.24269 -4.269819,9.51251 -9.512509,9.51251 -5.24269,0 -9.512509,-4.26982 -9.512509,-9.51251 0,-5.24269 4.269819,-9.5125 9.512509,-9.5125 5.24269,0 9.512509,4.26981 9.512509,9.5125 z"
       inkscape:connector-curvature="0"
       style="fill:#720434;fill-opacity:1;stroke-width:0.10809668" />
    <path
       id="path936"
       d="m 94.216978,230.60895 h -8.149486 c 0,-3.59597 -2.923628,-6.5196 -6.51959,-6.5196 -3.595961,0 -6.519589,2.92363 -6.519589,6.5196 h -8.149488 c -2.699518,0 -4.889693,2.19017 -4.889693,4.88969 v 35.85774 c 0,2.69952 2.190175,4.88969 4.889693,4.88969 h 29.338153 c 2.69952,0 4.889699,-2.19017 4.889699,-4.88969 v -35.85774 c 0,-2.69952 -2.190179,-4.88969 -4.889699,-4.88969 z m -24.448461,36.67268 c -1.354852,0 -2.444846,-1.08999 -2.444846,-2.44484 0,-1.35485 1.089994,-2.44484 2.444846,-2.44484 1.354853,0 2.444847,1.08999 2.444847,2.44484 0,1.35485 -1.089994,2.44484 -2.444847,2.44484 z m 0,-9.77938 c -1.354852,0 -2.444846,-1.08999 -2.444846,-2.44484 0,-1.35486 1.089994,-2.44485 2.444846,-2.44485 1.354853,0 2.444847,1.08999 2.444847,2.44485 0,1.35485 -1.089994,2.44484 -2.444847,2.44484 z m 0,-9.77939 c -1.354852,0 -2.444846,-1.08999 -2.444846,-2.44484 0,-1.35485 1.089994,-2.44484 2.444846,-2.44484 1.354853,0 2.444847,1.08999 2.444847,2.44484 0,1.35485 -1.089994,2.44484 -2.444847,2.44484 z m 9.779385,-19.55877 c 1.354852,0 2.444847,1.09001 2.444847,2.44486 0,1.35484 -1.089995,2.44484 -2.444847,2.44484 -1.354851,0 -2.444846,-1.09 -2.444846,-2.44484 0,-1.35485 1.089995,-2.44486 2.444846,-2.44486 z m 13.039177,37.48765 c 0,0.44823 -0.366727,0.81495 -0.814946,0.81495 H 77.103056 c -0.448222,0 -0.814949,-0.36672 -0.814949,-0.81495 v -1.62989 c 0,-0.44823 0.366727,-0.81496 0.814949,-0.81496 h 14.669077 c 0.448219,0 0.814946,0.36673 0.814946,0.81496 z m 0,-9.77939 c 0,0.44823 -0.366727,0.81496 -0.814946,0.81496 H 77.103056 c -0.448222,0 -0.814949,-0.36673 -0.814949,-0.81496 v -1.62989 c 0,-0.44823 0.366727,-0.81495 0.814949,-0.81495 h 14.669077 c 0.448219,0 0.814946,0.36672 0.814946,0.81495 z m 0,-9.77938 c 0,0.44823 -0.366727,0.81495 -0.814946,0.81495 H 77.103056 c -0.448222,0 -0.814949,-0.36672 -0.814949,-0.81495 v -1.62989 c 0,-0.44823 0.366727,-0.81496 0.814949,-0.81496 h 14.669077 c 0.448219,0 0.814946,0.36673 0.814946,0.81496 z"
       inkscape:connector-curvature="0"
       style="fill:#ec1818;fill-opacity:1;stroke-width:0.10186859" />
  </g>
</svg>
