<?xml version="1.0" encoding="UTF-8" standalone="no"?>
<svg
   xmlns:dc="http://purl.org/dc/elements/1.1/"
   xmlns:cc="http://creativecommons.org/ns#"
   xmlns:rdf="http://www.w3.org/1999/02/22-rdf-syntax-ns#"
   xmlns:svg="http://www.w3.org/2000/svg"
   xmlns="http://www.w3.org/2000/svg"
   xmlns:sodipodi="http://sodipodi.sourceforge.net/DTD/sodipodi-0.dtd"
   xmlns:inkscape="http://www.inkscape.org/namespaces/inkscape"
   width="32"
   height="32"
   viewBox="0 0 8.4666666 8.4666666"
   version="1.1"
   id="svg8"
   inkscape:version="1.0.2-2 (e86c870879, 2021-01-15)"
   sodipodi:docname="saveincremental_bl.svg">
  <defs
     id="defs2" />
  <sodipodi:namedview
     id="base"
     pagecolor="#ffffff"
     bordercolor="#666666"
     borderopacity="1.0"
     inkscape:pageopacity="0.0"
     inkscape:pageshadow="2"
     inkscape:zoom="22.627416"
     inkscape:cx="14.254436"
     inkscape:cy="26.682416"
     inkscape:document-units="mm"
     inkscape:current-layer="svg8"
     showgrid="false"
     units="px"
     inkscape:window-width="3440"
     inkscape:window-height="1417"
     inkscape:window-x="1915"
     inkscape:window-y="-8"
     inkscape:window-maximized="1"
     inkscape:document-rotation="0">
    <sodipodi:guide
       position="8.4666666,0"
       orientation="-32,0"
       id="guide854"
       inkscape:locked="false" />
    <sodipodi:guide
       position="8.4666666,8.4666666"
       orientation="0,-32"
       id="guide856"
       inkscape:locked="false" />
    <sodipodi:guide
       position="0,8.4666814"
       orientation="32,0"
       id="guide858"
       inkscape:locked="false" />
  </sodipodi:namedview>
  <metadata
     id="metadata5">
    <rdf:RDF>
      <cc:Work
         rdf:about="">
        <dc:format>image/svg+xml</dc:format>
        <dc:type
           rdf:resource="http://purl.org/dc/dcmitype/StillImage" />
        <dc:title></dc:title>
      </cc:Work>
    </rdf:RDF>
  </metadata>
  <path
     style="fill:#e3e3e3;fill-opacity:1;stroke-width:0.06233934"
     d="M 9.5585938 0.083984375 C 8.7294814 0.083984375 8.0625 0.75096551 8.0625 1.5800781 L 8.0625 10.576172 C 10.490709 10.633532 12.915698 11.587563 14.763672 13.435547 C 18.574052 17.245952 18.574063 23.480645 14.763672 27.291016 C 12.915803 29.138898 10.497759 30.081126 8.0625 30.136719 L 8.0625 30.505859 C 8.0625 31.334972 8.7294814 32.001953 9.5585938 32.001953 L 30.503906 32.001953 C 31.333019 32.001953 32 31.334972 32 30.505859 L 32 10.058594 L 23.521484 10.058594 C 22.698606 10.058594 22.025391 9.3853859 22.025391 8.5625 L 22.025391 0.083984375 L 9.5585938 0.083984375 z M 24.021484 0.083984375 L 24.021484 8.0644531 L 32 8.0644531 L 32 7.6835938 C 32 7.290868 31.844989 6.9114326 31.564453 6.6308594 L 25.460938 0.52148438 C 25.18041 0.24076238 24.799362 0.083984375 24.400391 0.083984375 L 24.021484 0.083984375 z "
     transform="scale(0.26458333)"
     id="path823" />
  <path
     id="path819"
     style="fill:#8ad891;fill-opacity:1;stroke-width:0.0623393"
     d="M 7.8320312 12.550781 C 5.8325715 12.550819 3.8341267 13.312361 2.3085938 14.837891 C -0.74244615 17.888915 -0.74244918 22.835657 2.3085938 25.886719 C 5.3596374 28.937742 10.306382 28.93778 13.357422 25.886719 C 16.408462 22.835695 16.408465 17.888953 13.357422 14.837891 C 11.8319 13.312361 9.8314652 12.550781 7.8320312 12.550781 z M 7.8457031 15.660156 C 9.039956 15.663956 10.233358 16.123987 11.144531 17.035156 C 12.032718 17.923345 12.489229 19.078321 12.515625 20.242188 L 13.470703 20.242188 C 13.874838 20.242223 14.07671 20.731883 13.791016 21.017578 L 11.998047 22.808594 C 11.820859 22.985854 11.534595 22.985891 11.357422 22.808594 L 9.5644531 21.017578 C 9.278649 20.731846 9.4825021 20.242188 9.8867188 20.242188 L 11.001953 20.242188 C 10.975343 19.433028 10.648103 18.676316 10.072266 18.101562 C 9.0361353 17.066958 7.4327071 16.883142 6.2011719 17.621094 C 6.1115929 17.674764 5.9957799 17.661571 5.921875 17.587891 L 5.15625 16.822266 C 5.0560283 16.722108 5.070614 16.554357 5.1875 16.474609 C 5.9859505 15.929223 6.9168351 15.658709 7.8457031 15.662109 L 7.8457031 15.660156 z M 5.3535156 18.951172 L 5.8339844 18.951172 C 6.0991288 18.951172 6.3144531 19.166503 6.3144531 19.431641 L 6.3144531 21.591797 L 8.4746094 21.591797 C 8.7397534 21.591797 8.9550781 21.807113 8.9550781 22.072266 L 8.9550781 22.552734 C 8.9550781 22.817864 8.7397508 23.03125 8.4746094 23.03125 L 6.3144531 23.03125 L 6.3144531 25.193359 C 6.3144531 25.458517 6.0991258 25.673828 5.8339844 25.673828 L 5.3535156 25.673828 C 5.0883712 25.673828 4.8730469 25.458512 4.8730469 25.193359 L 4.8730469 23.03125 L 2.7128906 23.03125 C 2.4477472 23.03125 2.2324219 22.817864 2.2324219 22.552734 L 2.2324219 22.072266 C 2.2324219 21.807111 2.4477473 21.591797 2.7128906 21.591797 L 4.8730469 21.591797 L 4.8730469 19.431641 C 4.8730469 19.166503 5.0883742 18.951172 5.3535156 18.951172 z "
     transform="scale(0.26458333)" />
</svg>
