<?xml version="1.0" encoding="UTF-8" standalone="no"?>
<!-- Created with Inkscape (http://www.inkscape.org/) -->

<svg
   width="32"
   height="32"
   viewBox="0 0 8.4666666 8.4666666"
   version="1.1"
   id="svg8"
   inkscape:version="1.1.1 (3bf5ae0d25, 2021-09-20)"
   sodipodi:docname="rss_sl.svg"
   xmlns:inkscape="http://www.inkscape.org/namespaces/inkscape"
   xmlns:sodipodi="http://sodipodi.sourceforge.net/DTD/sodipodi-0.dtd"
   xmlns="http://www.w3.org/2000/svg"
   xmlns:svg="http://www.w3.org/2000/svg"
   xmlns:rdf="http://www.w3.org/1999/02/22-rdf-syntax-ns#"
   xmlns:cc="http://creativecommons.org/ns#"
   xmlns:dc="http://purl.org/dc/elements/1.1/">
  <defs
     id="defs2" />
  <sodipodi:namedview
     id="base"
     pagecolor="#ffffff"
     bordercolor="#666666"
     borderopacity="1.0"
     inkscape:pageopacity="0.0"
     inkscape:pageshadow="2"
     inkscape:zoom="22.627418"
     inkscape:cx="27.024736"
     inkscape:cy="17.832348"
     inkscape:document-units="mm"
     inkscape:current-layer="layer1"
     showgrid="false"
     units="px"
     inkscape:window-width="3440"
     inkscape:window-height="1369"
     inkscape:window-x="1912"
     inkscape:window-y="-8"
     inkscape:window-maximized="1"
     inkscape:pagecheckerboard="0"
     inkscape:snap-nodes="false"
     inkscape:snap-bbox="true"
     inkscape:bbox-paths="true"
     inkscape:bbox-nodes="true"
     inkscape:snap-bbox-edge-midpoints="true"
     inkscape:snap-bbox-midpoints="true">
    <sodipodi:guide
       position="8.4666666,0"
       orientation="-32,0"
       id="guide854"
       inkscape:locked="false" />
    <sodipodi:guide
       position="8.4666666,8.4666666"
       orientation="0,-32"
       id="guide856"
       inkscape:locked="false" />
    <sodipodi:guide
       position="0,8.4666814"
       orientation="32,0"
       id="guide858"
       inkscape:locked="false" />
  </sodipodi:namedview>
  <metadata
     id="metadata5">
    <rdf:RDF>
      <cc:Work
         rdf:about="">
        <dc:format>image/svg+xml</dc:format>
        <dc:type
           rdf:resource="http://purl.org/dc/dcmitype/StillImage" />
      </cc:Work>
    </rdf:RDF>
  </metadata>
  <g
     inkscape:label="Layer 1"
     inkscape:groupmode="layer"
     id="layer1"
     transform="translate(0,-288.53334)">
    <path
       d="m 2.4205763,295.79012 c 0,0.66843 -0.5418662,1.2103 -1.2102976,1.2103 C 0.5418473,297.00042 0,296.45855 0,295.79012 c 0,-0.66843 0.54186616,-1.21029 1.2102976,-1.21029 0.6684314,0 1.2102787,0.54188 1.2102787,1.21029 z m 3.3197619,0.89297 C 5.5824576,293.76134 3.2422013,291.41813 0.31732965,291.26008 0.14468915,291.25104 0,291.38946 0,291.56235 v 0.90844 c 0,0.15904 0.12265318,0.29241 0.28134632,0.30272 2.11348978,0.13767 3.80759638,1.82756 3.94553878,3.94555 0.010338,0.15868 0.1437063,0.28134 0.3027209,0.28134 h 0.908446 c 0.1729049,2e-5 0.3116219,-0.14467 0.3022862,-0.31731 z m 2.7261321,0.005 C 8.3078333,292.2692 4.7523848,288.69294 0.31188679,288.53353 0.14123066,288.52751 0,288.66527 0,288.83602 v 0.90842 c 0,0.16301 0.12917325,0.29568 0.29204303,0.30237 3.61305217,0.14815 6.51303417,3.04868 6.66116267,6.66116 0.00668,0.16288 0.1393413,0.29205 0.3023621,0.29205 h 0.9084271 c 0.170732,-2e-5 0.3085983,-0.14125 0.3024754,-0.31191 z"
       id="path826"
       style="stroke-width:0.0188988;fill:#e3e3e3;fill-opacity:1" />
  </g>
</svg>
