<?xml version="1.0" encoding="UTF-8" standalone="no"?>
<!-- Created with Inkscape (http://www.inkscape.org/) -->

<svg
   xmlns:dc="http://purl.org/dc/elements/1.1/"
   xmlns:cc="http://creativecommons.org/ns#"
   xmlns:rdf="http://www.w3.org/1999/02/22-rdf-syntax-ns#"
   xmlns:svg="http://www.w3.org/2000/svg"
   xmlns="http://www.w3.org/2000/svg"
   xmlns:sodipodi="http://sodipodi.sourceforge.net/DTD/sodipodi-0.dtd"
   xmlns:inkscape="http://www.inkscape.org/namespaces/inkscape"
   width="208.98361"
   height="208.94345"
   viewBox="0 0 55.293578 55.282956"
   version="1.1"
   id="svg8"
   inkscape:version="0.92.4 (5da689c313, 2019-01-14)"
   sodipodi:docname="dublf-icon.svg">
  <defs
     id="defs2"><style
   id="style857">.cls-1{fill:#e52120;}.cls-1,.cls-2,.cls-3,.cls-4,.cls-5{stroke:#000;stroke-miterlimit:10;stroke-width:1.2px;}.cls-2{fill:#6dbc88;}.cls-3{fill:#701034;}.cls-4{fill:#51aae0;}.cls-5{fill:none;}</style>

	
	

		
	
			
			
		
		
	
	

	

	
</defs>
  <sodipodi:namedview
     id="base"
     pagecolor="#ffffff"
     bordercolor="#666666"
     borderopacity="1.0"
     inkscape:pageopacity="0.0"
     inkscape:pageshadow="2"
     inkscape:zoom="0.7"
     inkscape:cx="-137.91728"
     inkscape:cy="227.94761"
     inkscape:document-units="px"
     inkscape:current-layer="layer1"
     showgrid="false"
     units="px"
     inkscape:window-width="1846"
     inkscape:window-height="1057"
     inkscape:window-x="1986"
     inkscape:window-y="-8"
     inkscape:window-maximized="1"
     fit-margin-top="0"
     fit-margin-left="0"
     fit-margin-right="0"
     fit-margin-bottom="0"
     objecttolerance="3"
     gridtolerance="2"
     guidetolerance="2" />
  <metadata
     id="metadata5">
    <rdf:RDF>
      <cc:Work
         rdf:about="">
        <dc:format>image/svg+xml</dc:format>
        <dc:type
           rdf:resource="http://purl.org/dc/dcmitype/StillImage" />
        <dc:title></dc:title>
      </cc:Work>
    </rdf:RDF>
  </metadata>
  <g
     inkscape:label="Calque 1"
     inkscape:groupmode="layer"
     id="layer1"
     transform="translate(-40.185452,-201.96001)">
    <g
       data-name="Calque 2"
       id="Calque_2"
       transform="matrix(1.0968772,0,0,1.0968772,40.185452,201.96035)"
       style="display:inline">
      <path
         style="fill:#e52120;stroke:#000000;stroke-width:1.20000005px;stroke-miterlimit:10"
         inkscape:connector-curvature="0"
         class="cls-1"
         d="M 29,32.2 H 27 A 1.81,1.81 0 0 1 25.18,30.38 V 25.2 H 20 A 1.81,1.81 0 0 0 18.2,27 v 2 a 3.82,3.82 0 0 1 -3.81,3.82 h -3 A 3.81,3.81 0 0 1 7.6,29 V 27 A 1.81,1.81 0 0 0 5.78,25.2 H 0.6 V 44 a 5.85,5.85 0 0 0 5.84,5.8 H 25.2 V 44.62 A 1.81,1.81 0 0 1 27,42.8 h 2 A 3.82,3.82 0 0 0 32.84,39 V 36 A 3.81,3.81 0 0 0 29,32.2 Z"
         id="path863" />
      <path
         style="fill:#6dbc88;stroke:#000000;stroke-width:1.20000005px;stroke-miterlimit:10"
         inkscape:connector-curvature="0"
         class="cls-2"
         d="m 32.14,21.37 v 2 a 1.82,1.82 0 0 1 -1.82,1.82 h -5.18 v 5.18 A 1.81,1.81 0 0 0 27,32.2 h 2 a 3.8,3.8 0 0 1 3.77,3.8 v 3 A 3.81,3.81 0 0 1 29,42.8 h -2 a 1.81,1.81 0 0 0 -1.81,1.82 V 49.8 H 43.9 A 5.85,5.85 0 0 0 49.74,44 V 25.2 h -5.18 a 1.81,1.81 0 0 1 -1.82,-1.82 v -2 A 3.82,3.82 0 0 0 38.93,17.57 H 36 a 3.81,3.81 0 0 0 -3.86,3.8 z"
         id="path865" />
      <path
         style="fill:#701034;stroke:#000000;stroke-width:1.20000005px;stroke-miterlimit:10"
         inkscape:connector-curvature="0"
         class="cls-3"
         d="m 21.31,18.2 h 2 a 1.82,1.82 0 0 1 1.83,1.8 v 5.2 h 5.18 a 1.82,1.82 0 0 0 1.82,-1.82 v -2 A 3.81,3.81 0 0 1 36,17.56 h 3 a 3.82,3.82 0 0 1 3.81,3.81 v 2 a 1.81,1.81 0 0 0 1.82,1.82 h 5.18 V 6.44 A 5.85,5.85 0 0 0 43.9,0.6 H 25.14 V 5.78 A 1.82,1.82 0 0 1 23.32,7.6 h -2 a 3.81,3.81 0 0 0 -3.81,3.81 v 3 a 3.82,3.82 0 0 0 3.8,3.79 z"
         id="path867" />
      <path
         style="fill:#51aae0;stroke:#000000;stroke-width:1.20000005px;stroke-miterlimit:10"
         inkscape:connector-curvature="0"
         class="cls-4"
         d="M 18.2,29 V 27 A 1.81,1.81 0 0 1 20,25.2 h 5.2 V 20 a 1.81,1.81 0 0 0 -1.82,-1.82 h -2 a 3.82,3.82 0 0 1 -3.81,-3.81 v -3 a 3.81,3.81 0 0 1 3.8,-3.77 h 2 A 1.81,1.81 0 0 0 25.2,5.78 V 0.6 H 6.44 A 5.85,5.85 0 0 0 0.6,6.44 V 25.2 H 5.78 A 1.81,1.81 0 0 1 7.6,27 v 2 a 3.81,3.81 0 0 0 3.81,3.82 h 3 A 3.82,3.82 0 0 0 18.2,29 Z"
         id="path869" />
      <path
         style="fill:#e52120;stroke:#434343;stroke-width:1.20000005px;stroke-miterlimit:10"
         inkscape:connector-curvature="0"
         class="cls-1"
         d="M 29,32.2 H 27 A 1.81,1.81 0 0 1 25.18,30.38 V 25.2 H 20 A 1.81,1.81 0 0 0 18.2,27 v 2 a 3.82,3.82 0 0 1 -3.81,3.82 h -3 A 3.81,3.81 0 0 1 7.6,29 V 27 A 1.81,1.81 0 0 0 5.78,25.2 H 0.6 V 44 a 5.85,5.85 0 0 0 5.84,5.8 H 25.2 V 44.62 A 1.81,1.81 0 0 1 27,42.8 h 2 A 3.82,3.82 0 0 0 32.84,39 V 36 A 3.81,3.81 0 0 0 29,32.2 Z"
         id="path871" />
      <path
         style="fill:#6dbc88;stroke:#434343;stroke-width:1.20000005px;stroke-miterlimit:10"
         inkscape:connector-curvature="0"
         class="cls-2"
         d="m 32.21,21.37 v 2 a 1.82,1.82 0 0 1 -1.82,1.82 h -5.18 v 5.18 a 1.81,1.81 0 0 0 1.86,1.83 h 2 a 3.8,3.8 0 0 1 3.77,3.8 v 3 a 3.81,3.81 0 0 1 -3.77,3.8 h -2 a 1.81,1.81 0 0 0 -1.81,1.82 V 49.8 H 43.97 A 5.85,5.85 0 0 0 49.81,44 V 25.2 h -5.18 a 1.81,1.81 0 0 1 -1.82,-1.82 v -2 A 3.82,3.82 0 0 0 39,17.57 h -2.93 a 3.81,3.81 0 0 0 -3.86,3.8 z"
         id="path873" />
      <path
         style="fill:#701034;stroke:#434343;stroke-width:1.20000005px;stroke-miterlimit:10"
         inkscape:connector-curvature="0"
         class="cls-3"
         d="m 21.31,18.2 h 2 a 1.82,1.82 0 0 1 1.83,1.8 v 5.2 h 5.18 a 1.82,1.82 0 0 0 1.82,-1.82 v -2 A 3.81,3.81 0 0 1 36,17.56 h 3 a 3.82,3.82 0 0 1 3.81,3.81 v 2 a 1.81,1.81 0 0 0 1.82,1.82 h 5.18 V 6.44 A 5.85,5.85 0 0 0 43.9,0.6 H 25.14 V 5.78 A 1.82,1.82 0 0 1 23.32,7.6 h -2 a 3.81,3.81 0 0 0 -3.81,3.81 v 3 a 3.82,3.82 0 0 0 3.8,3.79 z"
         id="path875" />
      <path
         style="fill:#51aae0;stroke:#434343;stroke-width:1.20000005px;stroke-miterlimit:10"
         inkscape:connector-curvature="0"
         class="cls-4"
         d="m 18.2,28.999687 v -2 a 1.81,1.81 0 0 1 1.8,-1.8 h 5.2 v -5.2 a 1.81,1.81 0 0 0 -1.82,-1.82 h -2 a 3.82,3.82 0 0 1 -3.81,-3.81 v -3 a 3.81,3.81 0 0 1 3.8,-3.7699999 h 2 a 1.81,1.81 0 0 0 1.83,-1.82 V 0.59968714 H 6.44 A 5.85,5.85 0 0 0 0.6,6.4396871 V 25.199687 h 5.18 a 1.81,1.81 0 0 1 1.82,1.8 v 2 a 3.81,3.81 0 0 0 3.81,3.82 h 3 a 3.82,3.82 0 0 0 3.79,-3.82 z"
         id="path877" />
    </g>
    <g
       id="g1004"
       xml:space="preserve"
       transform="matrix(0.1612496,0,0,0.1612496,-0.66168197,161.08966)">
<path
   style="fill:#434343;fill-rule:nonzero;stroke:#434343;stroke-width:18.89763832;stroke-linecap:round;stroke-linejoin:round;stroke-miterlimit:4;stroke-dasharray:none"
   sodipodi:nodetypes="cccccccccccccccccccccccccccccccccccccccccccccccccccccccc"
   id="path1037"
   d="m 378.88164,435.97007 c 0.0391,2.301 0.7813,6.786 1.8828,10.297 v 0 c 2.3204,7.414 6.2579,14.278 11.7422,20.328 v 0 c 5.625,6.211 12.5429,11.207 20.5429,14.746 v 0 c 8.41,3.727 17.524,5.629 26.973,5.61 v 0 c 9.453,-0.016 18.562,-1.949 26.972,-5.699 v 0 c 7.993,-3.578 14.911,-8.586 20.532,-14.813 v 0 c 5.476,-6.074 9.406,-12.949 11.73,-20.367 v 0 c 1.176,-3.75 1.906,-7.551 2.207,-11.367 v 0 c 0.293,-3.758 0.168,-7.528 -0.363,-11.289 v 0 c -1.043,-7.332 -3.582,-14.215 -7.484,-20.489 -3.583,-5.761 -8.184,-10.808 -13.661,-15.058 v 0 l 0.008,-0.008 v 0 l -55.262,-42.437 v 0 c -0.046,-0.04 -0.093,-0.079 -0.14,-0.118 v 0 c -3.637,-2.777 -9.731,-2.769 -13.715,0.02 v 0 c -4.039,2.824 -4.492,7.484 -0.91,10.433 v 0 l -0.012,0.008 v 0 l 23.051,18.75 -70.2657,0.074 v 0 h -0.0977 v 0 c -5.8047,0.004 -11.3828,3.821 -12.4922,8.633 v 0 c -1.1289,4.907 2.8164,8.973 8.8516,8.996 v 0 l -0.008,0.024 v 0 l 35.6132,-0.07 -63.5546,48.777 v 0 c -0.0782,0.062 -0.1641,0.121 -0.2422,0.183 v 0 c -5.9883,4.59 -7.9297,12.227 -4.1563,17.059 v 0 c 3.836,4.914 11.9805,4.918 18.0391,0.02 v 0 l 34.6836,-28.379 c 0,0 -0.5039,3.832 -0.4649,6.136 z"
   inkscape:connector-curvature="0" /><path
   style="fill:#e3e4e3;fill-rule:nonzero;stroke-width:0;stroke-linecap:butt;stroke-linejoin:miter;stroke-miterlimit:4"
   d="m -215.00586,-4.3398438 c -2.47612,0.0035 -4.99628,0.7031563 -6.98828,2.0976563 -4.039,2.824 -4.49216,7.4845937 -0.91016,10.4335937 l -0.0117,0.00781 23.05079,18.7499998 -70.26563,0.07422 h -0.0977 c -5.8047,0.004 -11.38278,3.820812 -12.49218,8.632812 -1.1289,4.907 2.81636,8.973094 8.85156,8.996094 l -0.008,0.02344 35.61328,-0.07031 -63.55469,48.777343 c -0.0782,0.062 -0.16409,0.121594 -0.24219,0.183594 -5.9883,4.59 -7.92965,12.226591 -4.15625,17.058591 3.836,4.914 11.98047,4.91753 18.03907,0.0195 l 34.68359,-28.378902 c 0,0 -0.50384,3.832719 -0.46484,6.136719 0.0391,2.301 0.78131,6.785875 1.88281,10.296875 2.3204,7.413998 6.25789,14.278118 11.74219,20.328118 5.625,6.211 12.54296,11.2071 20.54296,14.7461 8.41,3.727 17.52366,5.62837 26.97266,5.60937 9.453,-0.016 18.56266,-1.94922 26.97266,-5.69922 7.993,-3.578 14.9122,-8.5855 20.5332,-14.8125 5.476,-6.074 9.40452,-12.94918 11.72852,-20.367181 1.176,-3.75 1.90603,-7.551187 2.20703,-11.367187 0.293,-3.758 0.16772,-7.528063 -0.36328,-11.289063 -1.043,-7.332 -3.58043,-14.214281 -7.48243,-20.488281 -3.583,-5.761 -8.18511,-10.808594 -13.66211,-15.058594 l 0.008,-0.0078 -55.26172,-42.4374998 c -0.046,-0.04 -0.0936,-0.078188 -0.14063,-0.1171876 -1.8185,-1.3885 -4.25043,-2.081625 -6.72656,-2.078125 z m 22.18359,48.9101558 c 9.258,-0.011 18.09397,3.027969 25.04297,8.667969 3.539,2.883 6.4101,6.292219 8.4961,10.074219 2.129,3.851 3.44884,8.101312 3.83984,12.570312 0.394,4.566001 -0.20681,9.090375 -1.75781,13.359376 -1.582,4.352 -4.14472,8.425374 -7.63672,11.984372 -7.144,7.289 -17.14261,11.4146 -27.97461,11.4336 -10.836,0.02 -20.84123,-4.07375 -27.99023,-11.34375 -3.492,-3.546004 -6.05854,-7.613941 -7.64454,-11.960941 -1.547,-4.266 -2.1523,-8.789469 -1.7539,-13.355469 0.3868,-4.469 1.70303,-8.727031 3.83203,-12.582031 2.09,-3.789 4.96091,-7.211375 8.50391,-10.109375 6.945,-5.664 15.78496,-8.726281 25.04296,-8.738282 z m 0.78907,11.28125 c -6.277,0.004 -12.0306,2.211032 -16.3086,5.832032 -4.355,3.687 -7.24622,8.88625 -7.57422,14.78125 -0.336,6.062 2.0981,11.699093 6.3711,15.871094 4.36,4.246 10.57062,6.914062 17.51562,6.914062 6.941,0 13.14791,-2.668062 17.50391,-6.914062 4.277,-4.172001 6.71286,-9.809094 6.38086,-15.871094 -0.332,-5.895 -3.22313,-11.09425 -7.57813,-14.78125 -4.278,-3.621 -10.03354,-5.828031 -16.31054,-5.832032 z"
   transform="translate(632.84237,347.54015)"
   id="path968"
   inkscape:connector-curvature="0" />








</g>  </g>
  <style
     id="style815"
     type="text/css">
	.st0{fill:#00005B;}
	.st1{fill:#9999FF;}
</style>
</svg>
