<?xml version="1.0" encoding="UTF-8" standalone="no"?>
<svg
   xmlns:dc="http://purl.org/dc/elements/1.1/"
   xmlns:cc="http://creativecommons.org/ns#"
   xmlns:rdf="http://www.w3.org/1999/02/22-rdf-syntax-ns#"
   xmlns:svg="http://www.w3.org/2000/svg"
   xmlns="http://www.w3.org/2000/svg"
   xmlns:sodipodi="http://sodipodi.sourceforge.net/DTD/sodipodi-0.dtd"
   xmlns:inkscape="http://www.inkscape.org/namespaces/inkscape"
   id="Calque_1"
   data-name="Calque 1"
   viewBox="0 0 32 32"
   version="1.1"
   sodipodi:docname="blender_p.svg"
   inkscape:version="0.92.4 (5da689c313, 2019-01-14)">
  <metadata
     id="metadata13">
    <rdf:RDF>
      <cc:Work
         rdf:about="">
        <dc:format>image/svg+xml</dc:format>
        <dc:type
           rdf:resource="http://purl.org/dc/dcmitype/StillImage" />
        <dc:title>blender_r</dc:title>
      </cc:Work>
    </rdf:RDF>
  </metadata>
  <sodipodi:namedview
     pagecolor="#ffffff"
     bordercolor="#666666"
     borderopacity="1"
     objecttolerance="10"
     gridtolerance="10"
     guidetolerance="10"
     inkscape:pageopacity="0"
     inkscape:pageshadow="2"
     inkscape:window-width="782"
     inkscape:window-height="480"
     id="namedview11"
     showgrid="false"
     inkscape:zoom="7.375"
     inkscape:cx="16"
     inkscape:cy="16"
     inkscape:window-x="0"
     inkscape:window-y="0"
     inkscape:window-maximized="0"
     inkscape:current-layer="Calque_1" />
  <defs
     id="defs4">
    <style
       id="style2">.cls-1{fill:#ec1818;}</style>
  </defs>
  <title
     id="title6">blender_r</title>
  <path
     class="cls-1"
     d="M20.06,7.19a.33.33,0,0,0-.23.11.3.3,0,0,0-.11.24v.69a.3.3,0,0,0,.11.23.33.33,0,0,0,.23.11h6.8l-.78,2.75h-6a.33.33,0,0,0-.23.11.3.3,0,0,0-.11.24v.68a.3.3,0,0,0,.11.24.33.33,0,0,0,.23.11h5.68L25,15.45h-4.9a.33.33,0,0,0-.23.11.3.3,0,0,0-.11.23v.69a.3.3,0,0,0,.11.24.33.33,0,0,0,.23.11h4.52l-.73,2.75h-11l-.39-4.13H8A2,2,0,0,1,6,13.39V6.51A2,2,0,0,1,6.56,5,2,2,0,0,1,8,4.44H28l-.73,2.75ZM8.71,12.7h3.48l-.47-5.51h-3ZM23.85,21a2.73,2.73,0,0,1,2.75,2.76v1.37a1.4,1.4,0,0,1-1.38,1.38H11.46a1.36,1.36,0,0,1-1-.41,1.33,1.33,0,0,1-.4-1V23.71A2.72,2.72,0,0,1,12.84,21Zm-5.51,4.13a1.3,1.3,0,0,0,1-.41,1.34,1.34,0,0,0,0-1.93,1.34,1.34,0,0,0-1-.41,1.36,1.36,0,0,0-1,.41,1.38,1.38,0,0,0,1,2.34Z"
     id="path8"
     style="fill:#820238;fill-opacity:1" />
</svg>
