<svg id="Calque_1" data-name="Calque 1" xmlns="http://www.w3.org/2000/svg" viewBox="0 0 32 32"><defs><style>.cls-1{fill:#ec1818;}</style></defs><title>chain2_r</title><path class="cls-1" d="M13.51,28.85l4.66-4.66a1.69,1.69,0,0,0,0-2.39h0a1.7,1.7,0,0,0-2.4,0l-4.71,4.71a4,4,0,0,1-5.38.39,3.93,3.93,0,0,1-.29-5.81l4.84-4.84a1.69,1.69,0,0,0,0-2.39h0a1.7,1.7,0,0,0-2.4,0L3,18.69a7.31,7.31,0,0,0,.35,10.67A7.48,7.48,0,0,0,13.51,28.85Z"/><path class="cls-1" d="M18.2,3.43,13.54,8.09a1.69,1.69,0,0,0,0,2.39h0a1.68,1.68,0,0,0,2.4,0l4.71-4.71A4,4,0,0,1,26,5.39a3.93,3.93,0,0,1,.29,5.81L21.49,16a1.68,1.68,0,0,0,0,2.4h0a1.69,1.69,0,0,0,2.39,0l4.84-4.84a7.32,7.32,0,0,0-.36-10.67A7.48,7.48,0,0,0,18.2,3.43Z"/><path class="cls-1" d="M9.27,10.87a1.17,1.17,0,0,1-.81-.33L3.25,5.33a1.15,1.15,0,0,1,0-1.61,1.13,1.13,0,0,1,1.6,0l5.22,5.22a1.13,1.13,0,0,1-.8,1.93Z"/><path class="cls-1" d="M10.76,8.07a1.13,1.13,0,0,1-1-.65L8.16,4.08a1.13,1.13,0,1,1,2.05-1l1.57,3.33A1.13,1.13,0,0,1,11.24,8,1.05,1.05,0,0,1,10.76,8.07Z"/><path class="cls-1" d="M6.46,12.36a1.18,1.18,0,0,1-.48-.1L2.64,10.69a1.14,1.14,0,0,1,1-2.06L7,10.2a1.13,1.13,0,0,1-.49,2.16Z"/><path class="cls-1" d="M27.66,29a1.13,1.13,0,0,1-.8-.33L21.64,23.4a1.13,1.13,0,0,1,1.61-1.6L28.46,27a1.14,1.14,0,0,1-.8,1.94Z"/><path class="cls-1" d="M22.52,29.87a1.13,1.13,0,0,1-1-.65l-1.57-3.33a1.13,1.13,0,1,1,2.05-1l1.57,3.34A1.14,1.14,0,0,1,23,29.77,1.19,1.19,0,0,1,22.52,29.87Z"/><path class="cls-1" d="M28.58,23.81a1.18,1.18,0,0,1-.48-.1l-3.33-1.57a1.14,1.14,0,0,1,1-2.06l3.34,1.57a1.13,1.13,0,0,1-.49,2.16Z"/></svg>