<svg id="Calque_1" data-name="Calque 1" xmlns="http://www.w3.org/2000/svg" viewBox="0 0 32 32"><defs><style>.cls-1{fill:#710132;}</style></defs><title>down_p_1</title><path class="cls-1" d="M27.42,14.76a1.17,1.17,0,0,1,.35.85,1.19,1.19,0,0,1-.35.86L17.69,26.2a1.19,1.19,0,0,1-.86.35A1.17,1.17,0,0,1,16,26.2L6.25,16.47a1.19,1.19,0,0,1-.35-.86,1.17,1.17,0,0,1,.35-.85l1.1-1.15a1.07,1.07,0,0,1,.86-.33,1.24,1.24,0,0,1,.85.38l5.77,6V5.28A1.2,1.2,0,0,1,16,4.08h1.61a1.15,1.15,0,0,1,.85.35,1.17,1.17,0,0,1,.35.85v14.4l5.77-6a1.24,1.24,0,0,1,.85-.38,1,1,0,0,1,.85.33Z"/></svg>