<?xml version="1.0" encoding="UTF-8" standalone="no"?>
<svg
   xmlns:dc="http://purl.org/dc/elements/1.1/"
   xmlns:cc="http://creativecommons.org/ns#"
   xmlns:rdf="http://www.w3.org/1999/02/22-rdf-syntax-ns#"
   xmlns:svg="http://www.w3.org/2000/svg"
   xmlns="http://www.w3.org/2000/svg"
   xmlns:sodipodi="http://sodipodi.sourceforge.net/DTD/sodipodi-0.dtd"
   xmlns:inkscape="http://www.inkscape.org/namespaces/inkscape"
   viewBox="0 0 512 512"
   version="1.1"
   id="svg4"
   sodipodi:docname="file-power-off.svg"
   inkscape:version="0.92.4 (5da689c313, 2019-01-14)"
   inkscape:export-filename="C:\DEV_SRC\RxUI\Icons\shared\18w\w18_poweroff_m.png"
   inkscape:export-xdpi="3.3800001"
   inkscape:export-ydpi="3.3800001">
  <metadata
     id="metadata10">
    <rdf:RDF>
      <cc:Work
         rdf:about="">
        <dc:format>image/svg+xml</dc:format>
        <dc:type
           rdf:resource="http://purl.org/dc/dcmitype/StillImage" />
        <dc:title></dc:title>
      </cc:Work>
    </rdf:RDF>
  </metadata>
  <defs
     id="defs8">
    <mask
       maskUnits="userSpaceOnUse"
       id="mask4636">
      <g
         id="g4642"
         style="display:inline">
        <rect
           y="-47.728813"
           x="-45.559322"
           height="622.64404"
           width="642.16949"
           id="rect4638"
           style="fill:#ffffff;fill-opacity:1" />
        <path
           inkscape:connector-curvature="0"
           id="path4640"
           d="m 343.25977,142.15625 c -15.23212,-0.0478 -33.74642,-1.1334 -44.75,11.56641 -11.97042,13.95086 -9.0113,33.75144 -8.61322,50.64248 0.0512,5.15152 0.0795,10.30339 0.0644,15.45517 -2.19537,-8.79661 -8.12585,-15.86811 -12.17774,-23.8125 -6.81882,-11.63559 -19.35858,-21.05238 -33.42187,-19.50781 -17.93798,1.64811 -30.80081,16.17186 -43.22656,27.6582 -53.67926,54.04242 -69.01479,142.47543 -35.30597,211.02087 30.56197,64.0356 99.45272,108.74029 170.86651,107.00843 67.09406,-0.51999 132.90901,-39.51496 163.65235,-99.50195 31.02918,-58.04341 28.78786,-132.73793 -7.50265,-187.95572 -15.26369,-24.10383 -35.92676,-46.19632 -62.44853,-57.71616 -15.28764,-3.78946 -30.44477,5.9331 -38.27047,18.6374 -4.41709,7.57492 -9.1235,15.16504 -11.67484,23.62237 -0.34546,-18.18159 0.0218,-36.59875 -2.33008,-54.58985 -5.13174,-14.02358 -20.2132,-22.91518 -34.86132,-22.52734 z m -53.45313,103.40234 c -0.14019,35.70326 -1.33905,71.64538 2.08984,107.17579 6.2439,16.71283 25.90384,25.0322 42.80274,22.25195 15.87639,1.80134 35.33852,-3.61584 41.92773,-19.62891 7.6518,-18.51193 1.61594,-38.7701 3.49721,-57.99798 -0.0722,-18.34546 -0.002,-38.50862 0.39928,-55.72467 7.75783,18.07748 29.11887,25.32024 37.15429,43.26171 24.48501,39.7847 15.47162,97.75499 -22.70839,125.80755 -33.68305,26.78627 -85.57781,28.4068 -119.17425,0.62675 -32.07639,-24.73134 -46.57328,-70.57236 -31.73529,-108.68434 7.13592,-20.32228 21.52927,-37.48642 38.83278,-49.99214 3.26629,-3.57801 5.63203,-7.94596 6.96289,-12.59766 -0.0163,1.83398 -0.0326,3.66797 -0.0488,5.50195 z"
           style="display:inline;fill:#000000;fill-opacity:1;stroke-width:0.68146396" />
      </g>
    </mask>
  </defs>
  <sodipodi:namedview
     pagecolor="#ffffff"
     bordercolor="#666666"
     borderopacity="1"
     objecttolerance="10"
     gridtolerance="10"
     guidetolerance="10"
     inkscape:pageopacity="0"
     inkscape:pageshadow="2"
     inkscape:window-width="1920"
     inkscape:window-height="1121"
     id="namedview6"
     showgrid="false"
     inkscape:zoom="0.23046875"
     inkscape:cx="373.85472"
     inkscape:cy="336.83954"
     inkscape:window-x="-9"
     inkscape:window-y="-9"
     inkscape:window-maximized="1"
     inkscape:current-layer="svg4" />
  <g
     id="g4646"
     style="fill:#434343;fill-opacity:1"
     inkscape:export-filename="C:\DEV_SRC\RxUI\Icons\shared\18w\w18_filepoweroff_m.png"
     inkscape:export-xdpi="3"
     inkscape:export-ydpi="3">
    <path
       mask="url(#mask4636)"
       style="display:inline;fill:#434343;fill-opacity:1;stroke-width:0.83050847"
       inkscape:connector-curvature="0"
       d="M 208.81356,115.11864 V 2.1694944 H 42.711865 c -11.045762,0 -19.932203,8.8864406 -19.932203,19.9322026 V 407.45763 c 0,11.04576 8.886441,19.9322 19.932203,19.9322 H 321.76271 c 11.04576,0 19.9322,-8.88644 19.9322,-19.9322 V 135.05085 H 228.74576 c -10.96271,0 -19.9322,-8.96949 -19.9322,-19.93221 z m 132.88135,-11.71017 v 5.06611 H 235.38983 V 2.1694944 h 5.0661 c 5.31526,0 10.38136,2.0762712 14.11865,5.8135593 L 335.88135,89.37288 c 3.73729,3.737289 5.81356,8.80339 5.81356,14.03559 z"
       id="path4572" />
    <path
       inkscape:connector-curvature="0"
       inkscape:export-ydpi="3.3800001"
       inkscape:export-xdpi="3.3800001"
       inkscape:export-filename="C:\DEV_SRC\RxUI\Icons\shared\18w\w18_poweroff_l.png"
       style="display:inline;fill:#434343;fill-opacity:1;stroke-width:0.68146396"
       id="path2"
       d="M 433.12775,197.40957 C 476.05998,228.07545 504,278.23119 504,334.99714 c 0,93.22426 -75.5062,168.79861 -168.66232,169.00305 -93.01983,0.20444 -169.2075,-75.64249 -169.34379,-168.73047 -0.0681,-56.76594 27.87188,-107.05798 70.73596,-137.792 7.97313,-5.65615 19.08099,-3.27103 23.85123,5.24727 l 10.76713,19.14914 c 4.02064,7.15537 2.11254,16.21884 -4.49766,21.12538 -28.28075,20.98909 -46.33954,54.24453 -46.33954,91.92948 -0.0682,62.89912 50.76906,114.55409 114.48594,114.55409 62.42209,0 114.89481,-50.56463 114.48594,-115.23555 -0.20444,-35.29983 -16.83216,-69.37303 -46.4077,-91.31617 -6.6102,-4.90654 -8.45015,-13.97001 -4.42951,-21.05723 l 10.76713,-19.14914 c 4.77024,-8.45015 15.80996,-10.97157 23.71494,-5.31542 z M 362.2555,340.44885 V 176.89751 c 0,-9.06347 -7.29166,-16.35514 -16.35513,-16.35514 h -21.80685 c -9.06347,0 -16.35513,7.29167 -16.35513,16.35514 v 163.55134 c 0,9.06347 7.29166,16.35513 16.35513,16.35513 h 21.80685 c 9.06347,0 16.35513,-7.29166 16.35513,-16.35513 z" />
  </g>
</svg>
