<svg id="Calque_1" data-name="Calque 1" xmlns="http://www.w3.org/2000/svg" viewBox="0 0 32 32"><defs><style>.cls-1{fill:#ec1818;}</style></defs><title>lock_r</title><path class="cls-1" d="M25,13.74A2.25,2.25,0,0,1,27.29,16v9.07A2.25,2.25,0,0,1,25,27.35H8.39a2.17,2.17,0,0,1-1.6-.66,2.21,2.21,0,0,1-.66-1.61V16a2.2,2.2,0,0,1,.66-1.61,2.17,2.17,0,0,1,1.6-.66H9.53v-3.4a6.94,6.94,0,0,1,1-3.59,7.16,7.16,0,0,1,2.62-2.62,7.13,7.13,0,0,1,7.18,0,7.23,7.23,0,0,1,2.62,2.62,6.94,6.94,0,0,1,1,3.59v3.4Zm-4.91,0v-3.4a3.38,3.38,0,0,0-3.4-3.4,3.38,3.38,0,0,0-3.4,3.4v3.4Z"/></svg>