<svg id="Calque_1" data-name="Calque 1" xmlns="http://www.w3.org/2000/svg" viewBox="0 0 32 32"><defs><style>.cls-1{fill:#710132;}</style></defs><title>stop_p</title><path class="cls-1" d="M16.11,2.34a13.53,13.53,0,0,1,7,1.89,14.17,14.17,0,0,1,5.1,5.1,13.53,13.53,0,0,1,1.89,7,13.58,13.58,0,0,1-1.89,7,14.17,14.17,0,0,1-5.1,5.1,13.53,13.53,0,0,1-7,1.89,13.53,13.53,0,0,1-7-1.89A14.17,14.17,0,0,1,4,23.31a13.58,13.58,0,0,1-1.89-7A13.53,13.53,0,0,1,4,9.33a14.17,14.17,0,0,1,5.1-5.1A13.53,13.53,0,0,1,16.11,2.34Zm5.41,18.49v-9a.91.91,0,0,0-.25-.65.88.88,0,0,0-.65-.25h-9a.88.88,0,0,0-.65.25.87.87,0,0,0-.25.65v9a.84.84,0,0,0,.25.64.89.89,0,0,0,.65.26h9a.87.87,0,0,0,.9-.9Z"/></svg>