<svg id="Calque_1" data-name="Calque 1" xmlns="http://www.w3.org/2000/svg" viewBox="0 0 32 32"><defs><style>.cls-1{fill:#6d6d6d;}</style></defs><title>update_d</title><path class="cls-1" d="M17.84,25.2a8.8,8.8,0,0,0,8.58-6.77.54.54,0,0,1,.22-.33A.66.66,0,0,1,27,18h2.46a.56.56,0,0,1,.47.22.58.58,0,0,1,.13.48,12.25,12.25,0,0,1-2.31,5.16,12.72,12.72,0,0,1-4.34,3.64,12,12,0,0,1-5.59,1.33,12.34,12.34,0,0,1-9.48-4.36l.2,4.11a.52.52,0,0,1-.12.47.65.65,0,0,1-.48.18H5.6a.62.62,0,0,1-.6-.6v-10a.58.58,0,0,1,.18-.43A.54.54,0,0,1,5.6,18h10a.58.58,0,0,1,.6.6v2.35a.57.57,0,0,1-.17.43.58.58,0,0,1-.43.18l-5.11-.25a8.67,8.67,0,0,0,3.13,2.85A8.53,8.53,0,0,0,17.84,25.2Zm9.28-21a.64.64,0,0,1,.17-.47.58.58,0,0,1,.43-.18h2.36a.62.62,0,0,1,.6.6v10a.58.58,0,0,1-.18.43.54.54,0,0,1-.42.17h-10a.58.58,0,0,1-.6-.6V11.81a.57.57,0,0,1,.17-.43.65.65,0,0,1,.48-.18l5.06.26a8.78,8.78,0,0,0-7.32-3.92,8.8,8.8,0,0,0-8.58,6.77.54.54,0,0,1-.22.33.68.68,0,0,1-.38.12H6.2a.55.55,0,0,1-.47-.22.58.58,0,0,1-.13-.48A12.25,12.25,0,0,1,7.91,8.9a12.72,12.72,0,0,1,4.34-3.64,12.09,12.09,0,0,1,5.59-1.33,12.34,12.34,0,0,1,9.48,4.36Z"/></svg>