<svg id="Layer_1" data-name="Layer 1" xmlns="http://www.w3.org/2000/svg" xmlns:xlink="http://www.w3.org/1999/xlink" viewBox="0 0 2000 2000"><defs><style>.cls-1{fill:none;}.cls-2{clip-path:url(#clip-path);}.cls-3{clip-path:url(#clip-path-2);}.cls-4{font-size:1027.96px;fill:#e3e3e2;}.cls-4,.cls-5{font-family:RainboxHeader;}.cls-5{font-size:1181.02px;fill:#e52120;}.cls-6{fill:#fff;}</style><clipPath id="clip-path"><rect class="cls-1" x="510.17" y="57.15" width="1172.43" height="1885.71"/></clipPath><clipPath id="clip-path-2"><rect class="cls-1" x="510.17" y="57.14" width="1172.43" height="1885.71"/></clipPath></defs><g id="Logo_simple_light" data-name="Logo simple light"><g class="cls-2"><g class="cls-3"><text class="cls-4" transform="translate(750.84 900.06)">DU</text><text class="cls-5" transform="translate(802.63 1706.65)">iK</text><path class="cls-6" d="M1432.25,1318.07c-1.3,2.1-3.8,5.5-5.5,7.7s-3.1,4.4-3.1,5a15,15,0,0,1-1.9,4.6,46.64,46.64,0,0,0-3,7.3,66.12,66.12,0,0,1-5.4,10.5c-2.2,3.7-5.4,9.2-7,12.2-4.2,7.6-11.4,19.6-15.4,25.4-1.8,2.6-3.3,5.4-3.3,6.1a2.54,2.54,0,0,1-1.5,1.9,5.81,5.81,0,0,0-2.5,2.8,70.27,70.27,0,0,1-5.6,8.3c-2.4,3.3-6.7,9.4-9.4,13.5a91.41,91.41,0,0,1-6.4,9.2c-.8,1-2.7,3.5-4.1,5.7-3.1,5.1-4.1,5.5-15,7-4.9.7-10.9,1.7-13.2,2.2a41,41,0,0,1-5.7.9c-2.2,0-2-3.9.2-6.2,1.7-2,8.6-14.4,16.2-29.3,2.2-4.4,5.4-10.5,7.1-13.5,2.2-4,2.9-6.6,2.7-9.5-.3-3.7-.6-4.1-4-4.9-5.2-1.3-7.9.4-13,8.1-2.3,3.5-4.5,6.3-5,6.3s-1.7,2-2.8,4.4c-2.4,5.1-5.5,8.6-7.5,8.6-2.3,0-12.3,15.7-23.6,37-1.8,3.3-3.1,4.6-4.9,4.7a253.37,253.37,0,0,0-25.8,3.9,95.6,95.6,0,0,1-10.5,1.9c-10.4,1.1-19.6,2.7-23.9,4.2-4,1.4-5.4,1.5-10.3.4s-5.9-1.1-7.4.3a6.13,6.13,0,0,1-3.1,1.6,5.7,5.7,0,0,0-2.9,1.3c-.9.8-6.5,2.2-12.6,3.1s-11.9,2.1-13,2.6c-2.7,1-11.7,2.9-19,4a55,55,0,0,0-10.4,2.4c-8.7,3.2-7-.6,4.2-9.3,3.1-2.4,5.7-4.8,5.7-5.2,0-1.7,2.5-.9,3.8,1.1a4.05,4.05,0,0,0,2.8,2c1.2,0,1.4-1,1.2-5.1-.4-6.6-2.4-8.2-6.8-5.5-1.7,1-3.4,1.5-3.7,1.2-.7-.7-5.7,3.8-19.5,17-9.4,9.1-9.8,9.4-14.3,9.4-4.3,0-14.2,1.9-21,4a45.64,45.64,0,0,1-7.9,1.6c-4.7.7-4.8.7-4.1-1.7.4-1.3,1.6-4.4,2.7-6.9,2.5-5.5,1.6-9.5-2.2-9.5-2.7,0-3.8,1.8-9,14.5-2,4.8-3.3,6.6-5.1,7.1-3.7,1.1-8.9,1-8.9-.1,0-.5.9-4.8,2-9.6,1.5-6.4,1.8-8.9.9-9.5-1.2-.7-1.1-1.2,1.3-15,1.7-9.5.6-15.2-3.4-18.2-3.6-2.6-6.8-1.3-9.2,3.7-.9,2-2.1,3.6-2.7,3.6s-1.7,1.7-2.5,3.7c-1.6,4-3.1,7.4-9.5,21a70.47,70.47,0,0,0-3.9,9.1c0,1-7.6,20.1-8.2,20.8-.4.3-12.8,3.1-16.8,3.7-1.2.1-1.6-1.3-2.1-6.8-.7-9-1.2-10-6.2-12.3-6.9-3.2-23-1.5-35.2,3.7-5.4,2.3-15.4,5.4-18.7,5.8s-3.8.3-3.8-1.6c0-2.6,3.6-8,11-16.1,3.2-3.6,7.1-8.2,8.7-10.2s5.2-6.4,8.1-9.8a78.61,78.61,0,0,0,7.9-11.3,66.81,66.81,0,0,1,4.3-7.7,37.24,37.24,0,0,0,2.9-6c1.5-3.9,2.3-6.2,4-10.3,1.7-4.3,1.4-25.7-.4-29.4-3.6-7.2-13.1-8.7-20.9-3.5-14,9.5-33.5,31-40.3,44.7-1.2,2.2-3.2,6.3-4.7,9.1a75.89,75.89,0,0,0-4.2,11c-.9,3.5-2.6,7.1-4.3,8.9a13.88,13.88,0,0,0-3.5,6c-2.3,9.8-2.8,15.2-3.6,35.5-.4,12.4-1.1,23.2-1.4,24.1-.5,1-3.2,2-8.4,2.8a73.93,73.93,0,0,0-12.2,3.1,144.66,144.66,0,0,1-15,3.9c-5.8,1.3-12.4,3.1-14.8,4.2a22.86,22.86,0,0,1-6,1.9,35.47,35.47,0,0,0-7.2,2,35.1,35.1,0,0,1-7.1,2c-1,0-5,1.2-9.1,2.6a114.59,114.59,0,0,1-11.8,3.5,29.06,29.06,0,0,0-6.2,1.9,8.55,8.55,0,0,1-3.7,1,3.5,3.5,0,0,0-2.6,1,2.78,2.78,0,0,1-2.3,1,13.06,13.06,0,0,0-4.5,1.5,46.08,46.08,0,0,1-9,2.6,42.26,42.26,0,0,0-8.7,2.4,45.42,45.42,0,0,1-13.3,4.6c-3.2.7-6,1.6-6.3,2.1a4.1,4.1,0,0,1-2.7.8,7.9,7.9,0,0,0-4.1,1.5,8,8,0,0,1-3.8,1.5,8.15,8.15,0,0,0-3.6,1,57.63,57.63,0,0,1-7.7,2.5,81.88,81.88,0,0,0-15.7,5.6,8.75,8.75,0,0,1-3.1.9,29.14,29.14,0,0,0-6.6,2.5,65.75,65.75,0,0,1-19.7,6.4c-3.6.5-9.4,2.6-14.1,5-4.4,2.3-9.4,4.4-11.2,4.7a9.61,9.61,0,0,0-3.7,1.5c-.3.5-1.5.9-2.8.9a8.56,8.56,0,0,0-4.2,1.5,7.9,7.9,0,0,1-4.1,1.5c-1.2,0-2.5.4-2.8,1s-1.8,1-3.3,1c-2.6,0-12,2.8-16.7,5-1.1.5-6,2.1-11,3.6a101.59,101.59,0,0,0-11.5,3.9,102.54,102.54,0,0,1-12.5,5,38.23,38.23,0,0,0-5.9,2.6,4.47,4.47,0,0,1-2.5.9c-1.6,0-23.1,8.3-27.3,10.6a11,11,0,0,1-4.1,1.4,4.37,4.37,0,0,0-2.7,1.5,4.82,4.82,0,0,1-3.2,1.5c-2.2,0-23.2,10-30.6,14.7-2.9,1.8-6.1,3.3-7.1,3.3-2.9,0-8.3,6.7-7.5,9.3.9,3.2,1.4,3.6,7.5,5.3a62.56,62.56,0,0,0,25.1,2.4c5.1-.4,9.5-.6,9.7-.4s.9,0,1.5-.5,4.9-1.4,9.6-2.1a59,59,0,0,0,11.5-2.5,28.68,28.68,0,0,1,7-1.8,42,42,0,0,0,9.5-2.5c3-1.1,8.2-2.7,11.5-3.7,7.2-2,17.3-5.2,20-6.4,1.1-.4,3.7-1.6,5.8-2.5a20.08,20.08,0,0,1,5.5-1.6,4.91,4.91,0,0,0,2.8-.9c.8-.8,5.1-2,16.9-5a24.84,24.84,0,0,0,5.1-1.9c1.2-.6,2.4-.9,2.7-.6s1.6-.1,2.9-.9,5.7-2.1,9.8-2.8a48.92,48.92,0,0,0,9.3-2.1,17.54,17.54,0,0,1,5.5-1.4,13.15,13.15,0,0,0,4.7-1.4c.7-.6,1.4-.7,1.7-.4s2.8-.6,5.4-1.9c6.8-3.5,15.3-6.7,17.6-6.7a9.58,9.58,0,0,0,3.9-1.1c2-1,12.5-3.6,18.7-4.6,1.7-.3,3.2-.9,3.2-1.4s1.5-.9,3.4-.9,7.5-1.4,12.4-3,9.9-3,11-3,2.4-.4,2.7-1,1.9-1,3.5-1,3.1-.4,3.4-.9,2.8-1.2,5.6-1.6,5.4-1.3,6.1-2.1,2.4-1.4,4-1.4,3.1-.4,3.4-1,1.9-1,3.6-1c2.6,0,2.9-.3,2.9-3,0-3,0-3-4.8-2.3-2.6.3-5.2,1-5.8,1.5a3.12,3.12,0,0,1-2.7.2c-.8-.3-2.7.2-4.1,1.1s-3,1.4-3.5,1.1a1,1,0,0,0-1.5.3c-.5.8-5.4,2.1-10.1,2.7a10.72,10.72,0,0,0-2.5.7,50.32,50.32,0,0,1-5.3,1.2c-2.1.3-4,1.2-4.3,1.9a1.82,1.82,0,0,1-2.3.9c-2-.5-23.9,4.9-28.9,7.2a64.5,64.5,0,0,1-10.5,3c-12.7,2.8-16.1,3.7-20.7,6s-15.6,5.7-24,7.6c-2.5.6-5.4,1.4-6.5,1.8a61.23,61.23,0,0,1-7.5,2.1,194.83,194.83,0,0,0-19.5,5.9c-4.3,1.7-9.2,3.1-11.1,3.1a7.72,7.72,0,0,0-3.9,1.4,20.4,20.4,0,0,1-5.5,2.1,44.67,44.67,0,0,0-6.5,2c-1.6.7-7,2.5-11.8,4.1s-9.1,3.2-9.3,3.6-1.8.8-3.5.8a12.68,12.68,0,0,0-4.7.9,81.55,81.55,0,0,1-10.7,3.1c-4.9,1.2-9.9,2.6-11,3-2.4,1-15,2.7-21.9,2.9-2.8.1-5.3.4-5.7.7-1.3.8-13.9-2-13.9-3.1,0-.6,1.5-1.9,3.2-2.8s4.7-2.6,6.3-3.7a50.68,50.68,0,0,1,6.5-3.5c1.9-.9,4.7-2.2,6.2-3a11.52,11.52,0,0,1,4.1-1.5,4.37,4.37,0,0,0,2.7-1.5,4.37,4.37,0,0,1,2.7-1.5c.8,0,4.6-1.5,8.6-3.3a78.28,78.28,0,0,1,10.2-4.1,54.24,54.24,0,0,0,7.5-2.7l7.5-3.3a58.7,58.7,0,0,1,7.5-2.6,26.68,26.68,0,0,0,5.5-2,23.91,23.91,0,0,1,5.3-1.9c2.3-.7,4.2-1.6,4.2-2s1.7-1.2,3.8-1.6a92.37,92.37,0,0,0,10.7-3.2c3.9-1.4,11.8-4,17.7-5.8s12.7-4.3,15.2-5.5a60.41,60.41,0,0,1,10.4-3.1,39.08,39.08,0,0,0,8.7-2.4c3.8-1.7,9.2-3.9,13-5.3,1.7-.5,3.9-1.4,5-1.8s2.7-.8,3.5-1c3.9-.5,17.2-5.1,23.2-8.1a62.08,62.08,0,0,1,7.5-3.3,74.17,74.17,0,0,0,7.3-2.4c3.6-1.4,13.3-4.6,21.5-7.2s15.5-5,16-5.4a14.28,14.28,0,0,1,4-1.3c1.7-.3,7.5-2.1,13-4s15-4.9,21-6.7,11.7-3.7,12.5-4.1a53.47,53.47,0,0,1,7.5-2,46.11,46.11,0,0,0,7.7-2.1c1.9-.9,22.3-6.7,30.8-8.8a53.65,53.65,0,0,0,8.2-2.6,17,17,0,0,1,6.7-1.4c2.2,0,4.3-.4,4.6-1a2.87,2.87,0,0,1,2.2-1,15.83,15.83,0,0,0,4.6-1.5,46.74,46.74,0,0,1,7.2-2.4c2.2-.5,5-1.3,6.3-1.6,2-.7,2.2-.4,2.2,3,0,5.3-4.9,38.6-7.1,48.5-.6,2.5-1.5,7.2-2,10.5s-1.5,8.5-2,11.5c-2.6,14.4-2.3,19,1,19,2.1,0,3.1-2.6,3.1-8,0-7.6,1.9-11.1,10.4-19.3a114.45,114.45,0,0,1,13.1-11.3c2.8-1.9,7.3-5.2,10-7.4s7.9-6.2,11.5-8.9a90.21,90.21,0,0,0,10.2-8.8c2-2.1,7.8-7.6,12.9-12.3,16.4-15,28.9-28.2,32-33.8s7.8-9.2,11.4-9.2a24.55,24.55,0,0,0,6-1.5,29.92,29.92,0,0,1,6.4-1.5c2.1,0,2.3.3,1.7,3.2-1.7,9.1-1.8,11.8-.2,17.3,4.3,14.8,15.8,13.8,31.6-2.6,4.2-4.4,7.9-7.9,8.3-7.9s.7,1.9.7,4.2c0,13,7.3,24.8,15.3,24.8,3.8,0,3.8-1,.2-4.7a39.76,39.76,0,0,1-6-8.6c-2.4-4.5-2.7-5.9-2.3-14.1.3-8,.7-9.9,3.7-15.9,2.3-4.4,4.2-6.9,5.5-7.2s8.9-1.8,17.1-3.5,16.2-3.4,17.8-3.7c2.5-.5,2.7-.3,2.7,2.9,0,6.8,8.4,14.9,18.5,17.9,5.5,1.6,7.9,4,7,6.8-1.1,3.5-10.9,12.9-16.2,15.6-2.9,1.4-5.3,3-5.3,3.4s-1.2,1.3-2.6,2c-2.9,1.3-7.1,4.3-11,7.8-2.4,2.2-3.2,6.7-1.4,7.8,1.4.9,10.9-3.8,15-7.4,1.9-1.7,4-3.1,4.5-3.1s2.3-1.4,3.9-3c1.9-1.9,3.9-3,5.8-3s2.8-.5,2.8-1.5,2-3.5,4.3-5.9c5-4.9,9.7-12.8,9.7-16.1,0-3-7.8-10.1-12.1-11-5.7-1.3-13.7-5.2-14.8-7.3-3.1-5.8-.2-8.6,10.4-10.2,4.4-.7,8.9-1.7,10-2.3a29.86,29.86,0,0,1,8.5-1.8c3.6-.4,8.5-1.2,11-1.7,12-2.6,16.2-3.3,16.8-2.8.3.4-.2,2.2-1.1,4.1-2.1,4.4-2.1,7.2-.3,11.7,1.6,3.7,8.9,11.6,14.9,16.1,4.2,3.2,4.7,5.9,1.7,9.7a9.49,9.49,0,0,0-2,3.6c0,1.3-9.9,11.4-11.1,11.4-.5,0-2.1,1.1-3.6,2.5a148.36,148.36,0,0,1-14.4,10.9c-4.8,3.3-8.3,8.9-7.5,12.1.9,3.4,4.7,3.3,7.8-.3,2.2-2.6,4.7-4.7,13.8-11.7,3.8-2.9,6.5-5.2,16.5-13.9,5.5-4.7,9.8-13.4,9.9-19.6,0-5.8-3.2-10.4-9.2-13.2-5.3-2.5-11.2-9.2-11.2-12.8,0-2.5,2.5-6.7,6.2-10.3a9.67,9.67,0,0,0,2-2.7c.5-1.6,14.5-3,18-1.8,2.7,1,3.3.8,5.2-1.5,1.5-1.8,3.4-2.7,6.6-3,2.5-.3,5.6-.7,7-1s6.3-1,11-1.6a163.24,163.24,0,0,0,19.5-4.1c11.6-3.2,16.5-3.7,16.5-1.9a48.07,48.07,0,0,1-2.6,7.3c-1.4,3.3-2.9,7-3.3,8.1-1.7,4.8-6.4,13.5-8.1,15-1,.9-3.8,1.7-6.4,1.8-4,.2-4.6.5-4.6,2.4,0,2.9,3.4,4.7,7.2,3.9,3-.6,3-.5,2.3,2.6-.3,1.8-1.1,6-1.6,9.3-3.2,21.4-3.1,25,1.5,35.2l2.8,6.2-3.8,5.3a86.42,86.42,0,0,1-5.9,7.5,68.67,68.67,0,0,0-5.9,8.7,51.72,51.72,0,0,1-5.2,7.7,3.44,3.44,0,0,0-1.4,2.2,4.79,4.79,0,0,1-1.4,2.6c-3.8,4.3-11.9,21.7-14.2,30.7-3.5,13.3-3.7,28.7-.6,33.1,2.4,3.4,6.2,4.5,11.3,3.4,3.9-.9,15.5-6.6,16.4-8.1a3.5,3.5,0,0,1,2.6-1c1,0,1.9-.5,1.9-1a1,1,0,0,1,1.1-1c.6,0,3.6-1.7,6.7-3.8a108.71,108.71,0,0,1,11.2-6.9c1.6-.7,1.7-.8,6.6-4.8,1.8-1.4,3.8-2.5,4.5-2.5s2.8-1.4,4.6-3,3.7-3,4.3-3c1,0,8.6-5.4,10-7.1a15.85,15.85,0,0,1,3-1.9c1.4-.7,5.6-3.3,9.4-5.9,8.2-5.5,12.7-8.3,18.1-10.9a28.32,28.32,0,0,0,6-3.9,20.44,20.44,0,0,1,5.5-3.2,40.91,40.91,0,0,0,6.9-4c7.1-5.2,13.3-9.1,14.5-9.1a5.93,5.93,0,0,0,3.1-2,6.71,6.71,0,0,1,2.6-2c.5,0,2.5-1.2,4.6-2.6a59,59,0,0,1,5.8-3.5,41.46,41.46,0,0,0,8.8-5.7,12.36,12.36,0,0,1,3.8-2.2c.6,0,2.5-1.1,4.2-2.4a23.33,23.33,0,0,1,5.7-3.1,18.88,18.88,0,0,0,5.5-3c1.7-1.2,5.5-3.5,8.5-5.1s7.8-4.4,10.7-6.2c6-3.8,17.5-10,25.1-13.6a84.61,84.61,0,0,0,8-4.4,71.61,71.61,0,0,1,8-4.1,109.38,109.38,0,0,0,10.3-5.1c2.7-1.7,5.5-3,6.2-3a38.56,38.56,0,0,0,7.2-2.9c15.7-7.6,23.4-11,27.5-12.4a92.42,92.42,0,0,0,9.5-4c2.8-1.4,7.9-3.5,11.5-4.8a88,88,0,0,0,9.8-4,13.62,13.62,0,0,1,5.7-1.9c1.3,0,5-1.1,8.1-2.5a31.71,31.71,0,0,1,7.1-2.5,13.76,13.76,0,0,0,4.3-1.5,56.36,56.36,0,0,1,8.2-3c4.8-1.3,11.8-3.6,15.8-5.2.8-.3,5.6-2,10.5-3.9,18.6-6.8,22.4-8.4,37-15.8,11.4-5.8,15.5-8.4,17.3-10.9,3.6-5.4,3-7.7-4.3-15-6.5-6.4-6.6-6.4-11.3-6a29.16,29.16,0,0,0-8,2.1c-3.3,1.7-4.2,1.4-5.5-2.2-.5-1.3-41.2-1.2-50.7.2-4.7.7-10.7,1.4-13.5,1.6s-11.7,1.1-20,2-17,1.6-19.5,1.6a55.06,55.06,0,0,0-11,1.5c-3.6.8-11.4,1.9-17.5,2.5s-13.9,1.5-17.5,2c-15.7,2.2-22.9,3.1-28.5,3.4a72.44,72.44,0,0,0-15.5,2.4c-4.8,1.1-24.6,3.7-37,4.7-4.1.4-8.6,1.3-10.2,2.1a17,17,0,0,1-6.7,1.4c-3.7,0-9.2,1-16.1,2.8a15.08,15.08,0,0,1-5.2.4l-2.7-.3,1.9-5.2a76.63,76.63,0,0,1,6.3-11.7c5.4-8.3,5.2-7.8,14.5-25,10.3-19.1,12.2-22.9,12.2-24.4,0-.7,1.3-3,2.8-5.2s4.1-7.3,5.7-11.4,5.7-13.3,9.1-20.3c6.6-13.2,7.9-18.9,4.8-20.1-2.3-.9-2.2-.9-4.8,3.1m-97.7,93c-9.5,18.4-17.8,32.9-20.9,36.5s-11,5.7-11,3.1c0-3.2,12.8-25,18.9-32.3,7.5-8.9,12.1-15.1,12.1-16.1,0-.6,1.7-2.8,3.8-4.7,5.9-5.6,5.1-2-2.9,13.5m-343.9-11.6c.7,1.7,1.3,7,1.4,11.8,0,9-1.6,15.1-7.1,27.1-2.1,4.6-8.1,13.2-10.4,15a22.29,22.29,0,0,0-2.2,3.5,23.36,23.36,0,0,1-4.1,5.4c-1.4,1.4-2.6,3-2.6,3.7a4.14,4.14,0,0,1-1.8,2.6,23.73,23.73,0,0,0-4.2,4.8,31.15,31.15,0,0,1-4.6,5.2c-2.8,2.2-8.5,11.2-10.1,15.8-2.1,5.7-1.7,7.5,2.1,9.3,4.2,2,9.2,1.4,16.1-1.8a59.7,59.7,0,0,1,10-3.5,46.21,46.21,0,0,0,8.1-2.5,25,25,0,0,1,7.5-1.8,35.63,35.63,0,0,0,6.2-1.2c2.4-1,8.3,0,11.2,1.9,2.7,1.8,4.1,7.9,2.6,11.8-1.1,2.8-6.6,5-16.6,6.4a26.57,26.57,0,0,0-6,1.3,12.89,12.89,0,0,1-4.4,1,12,12,0,0,0-4.5,1c-.6.5-3.3,1.2-6.1,1.6a119.51,119.51,0,0,0-12,2.7c-3.8,1.1-7.7,2.1-8.5,2.3-2.8.7-18.5,4.3-23,5.4-2.5.5-4.8.7-5.2.3-1.1-1.1-1-19.2.1-23.7a60.06,60.06,0,0,0,1.1-12.1c0-8.1,1.2-13.6,3.5-16.4a18.13,18.13,0,0,0,2.3-5c4.7-15.7,5.7-18.6,6.3-19.5.4-.6,2.6-4.6,4.9-9,4.9-9.4,11.8-19.2,17.8-25,2.3-2.4,4.2-4.7,4.2-5.3s1.1-1.7,2.4-2.4a42.8,42.8,0,0,0,7.2-5.8c5.8-5.4,9.9-7.7,14-7.9,2.6-.1,3.4.4,4.4,3m394.4,15.9c-1,1.6-1.9,2.8-2.1,2.6-.5-.5,2.2-5.6,3-5.6.5,0,0,1.3-.9,3m259.3,2.1c.8.8,2.1.8,4.7-.1,3.2-1,4-.9,7,.9a13.82,13.82,0,0,0,6.3,2.1c3.7,0,11.3,3.6,11.3,5.4,0,.8-2.6,2.6-5.7,4.2s-7.4,3.7-9.3,4.9-5.5,2.9-8,4-6.4,2.7-8.6,3.6-6.8,2.8-10,3.9-7.7,2.9-9.9,3.9-8.6,3.3-14.2,5.1a131.11,131.11,0,0,0-12.7,4.5,27.81,27.81,0,0,1-6.8,2,29.24,29.24,0,0,0-6.8,2,48.08,48.08,0,0,1-7,2.6,62.35,62.35,0,0,0-9.2,3.6,22.4,22.4,0,0,1-6.3,2.3c-.9,0-5,1.6-9.1,3.5s-8.1,3.5-8.8,3.5-4.5,1.6-8.2,3.5a61.8,61.8,0,0,1-7.5,3.5,57.16,57.16,0,0,0-8.1,3.6c-4,1.9-10.2,4.7-13.8,6.1s-7.2,3.1-8,3.8a12.47,12.47,0,0,1-4,2c-5.1,1.6-38.5,19.2-42.9,22.6a8.1,8.1,0,0,1-3.5,1.9c-.7,0-3.6,1.6-6.6,3.5s-6.1,3.5-7,3.5-3.1,1.3-5,2.8a82.2,82.2,0,0,1-10,6.2,46.29,46.29,0,0,0-7.7,4.6,80.35,80.35,0,0,1-7.9,5c-11.9,7-12.9,7.5-16.6,10.5a18.41,18.41,0,0,1-4.4,2.9,40.3,40.3,0,0,0-6.3,3.9,47.35,47.35,0,0,1-8.1,4.6c-3.7,1.2-13,7.3-13.6,9a3.53,3.53,0,0,1-3,1.5,3.82,3.82,0,0,0-3.3,1.9c-.6,1-3,2.9-5.3,4.1a40.11,40.11,0,0,0-6.8,4.4,20.75,20.75,0,0,1-5.9,3.6c-1.9.8-7,4.1-11.4,7.4s-9.9,7.1-12.1,8.4a41.82,41.82,0,0,0-6.6,4.7c-1.5,1.4-3.3,2.5-4.1,2.5a6.05,6.05,0,0,0-3.5,2.1,21.35,21.35,0,0,1-5.4,3.8,65.47,65.47,0,0,0-12.8,7.8,34.17,34.17,0,0,1-7.7,4.3,10.18,10.18,0,0,0-4.9,3.6c-.9,1.3-2.5,2.4-3.5,2.4a13.26,13.26,0,0,0-4.7,1.5c-3.2,1.6-8.2,1.9-10.3.6-1.8-1.2-2.6-9.4-1.3-13.9.5-2,1.5-6.2,2.2-9.2,1.8-8.4,5.1-16.9,9.1-23,.9-1.4,2.9-4.8,4.4-7.5a56.06,56.06,0,0,1,4.4-7,155.08,155.08,0,0,0,9.6-14c5.9-9.5,11.3-16.5,13.5-17.6,11.4-5.4,16.6-9.5,31.8-24.6,8.3-8.3,12.2-13.7,10.7-15.1-.3-.3-3.3,2.1-6.8,5.4-5.8,5.4-13.4,11.9-19.5,16.8-1.2,1-2.5,1.6-2.8,1.3-.5-.5,5.3-11.6,6.6-12.7.5-.4,8.2-10.5,18-23.4,4.7-6.2,18-24.1,22.4-30.1a79.17,79.17,0,0,0,6.1-9.8,47.79,47.79,0,0,1,6.2-8.7c3.4-3.8,5.2-5,7.4-5,1.6,0,2.9.4,2.9.8s-3.9,6.7-8.6,13.7-9.7,15.1-11.1,17.9a40.11,40.11,0,0,1-4.9,7.6c-1.9,2-7.4,11.3-7.4,12.4,0,.2,1,.3,2.2.2s2.8-1.4,4-3.5a43,43,0,0,1,5.3-7c1.9-2,3.5-3.9,3.5-4.3s2.1-4.1,4.8-8.1,5.6-9,6.7-10.8,2.9-4.8,4-6.6,3.5-5.6,5.4-8.6c3.6-5.8,6.6-7.9,10-7,1.1.3,4.2,0,6.8-.6,4.8-1.1,10.6-1.8,36.5-4.6,7.5-.9,15.5-2.2,17.8-3a39.4,39.4,0,0,1,10.4-1.5,47.11,47.11,0,0,0,9.6-1,35.09,35.09,0,0,1,8.5-1.1c4.5,0,11.8-1,28.5-4,3-.5,12.8-1.6,21.7-2.4s17-1.8,18-2.3a18.59,18.59,0,0,1,5.8-1.1,211.2,211.2,0,0,0,22.5-2c4.7-.6,11.7-1.4,15.5-1.7a95.15,95.15,0,0,0,11.5-1.4,39.28,39.28,0,0,1,9-.9c7,.2,37.3-1.1,37.9-1.6.8-.9,3.7-.5,4.8.6m-266.7,12.2c-2.3,4.5-4.9,9-5.8,9.9-1.5,1.8-6.2,2.5-6.2,1,0-1.1,13-19.4,14.4-20.4,2.4-1.6,1.6,1.7-2.4,9.5m-30,22.6a4.93,4.93,0,0,1-1.6,3.2,18.41,18.41,0,0,0-3.1,4.3,30.09,30.09,0,0,1-3.4,5.1c-2.5,2.7-17.9,23.5-17.9,24.2,0,.2-2.7,3.8-6,7.9s-6,7.8-6,8.2-1.5,2.6-3.3,4.8a81.76,81.76,0,0,0-6.4,8.9c-2.9,4.5-5.9,8.8-15.3,22.2-1.7,2.4-3.7,4.3-4.5,4.3s-2.4-1.5-3.6-3.3c-2.1-3.4-2.1-5.7,0-25.2,1-9.4,1.8-12.8,4.5-18.9.9-2,2.3-5.1,3-6.9s4-5.2,7-7.6c6-4.7,13.8-12.8,20.1-20.9,4.4-5.6,9.5-8.7,12.9-7.8a13,13,0,0,0,5.7-.5,148.85,148.85,0,0,1,16.7-3.8c.6,0,1.2.7,1.2,1.8m-279.7,6.8c.6,7.9.5,10.3-1.4,25.3-1.6,12.8-1.7,13-4.2,13-2.1,0-14.4,3.1-17.9,4.5-1.4.5-1.8.2-1.8-1.4,0-2.5,5.5-15.7,10.7-25.6a45.18,45.18,0,0,0,2.3-6,31.25,31.25,0,0,1,4.1-7.6,21.29,21.29,0,0,0,2.9-4.3c0-1.1,3.2-5.6,4-5.6.4,0,1,3.5,1.3,7.7m236.7.4c0,.6-1.6,2.9-3.5,5.2s-3.4,4.8-3.3,5.6-.3,1.5-1.1,1.3-2.4.7-3.7,1.9c-2.2,2.1-2.4,2.1-2.4.4,0-3.9,5.2-13.4,7.9-14.4,3.6-1.3,6.1-1.3,6.1,0m-229,43.3c0,3.9-11.1,16.7-22.9,26.3-11.5,9.5-17.4,5.4-15.1-10.5a68.66,68.66,0,0,1,1.8-8.9c.4-.6,6.8-2.1,14.2-3.3s14.4-2.6,15.5-3.1c2.1-.8,6.5-1.2,6.5-.5m-75,16.5c0,1.2-7.8,11.1-8.8,11.1-.5,0-9.2,8.2-19.5,18.2s-20.8,19.9-23.4,21.7a40.84,40.84,0,0,0-6.4,5.5,6.39,6.39,0,0,1-4.8,1.9c-2.2,0-3.1.5-3.1,1.7,0,1.5-21.9,22-23.5,22-.4,0-.5-1.7-.1-3.8,1-5.1,2.5-14.8,3.1-20.2a38.81,38.81,0,0,1,1.1-6c1.3-3.7,3.4-18,3.4-23.3,0-9.7.4-10,19.5-14.3,21.2-4.9,31.6-7.4,34-8.4,2.7-1.1,9.7-2.7,16.8-4a33.79,33.79,0,0,0,7.5-1.9c2.2-1.3,4.2-1.4,4.2-.2"/><path class="cls-6" d="M921.15,1580.47c-.4.6-.5,1.3-.2,1.6.7.7,2.7-.6,2.7-1.8s-1.7-1.2-2.5.2"/><path class="cls-6" d="M895.65,1586.37c0,1.5.5,2,1.8,1.8a1.8,1.8,0,0,0,0-3.6c-1.3-.2-1.8.3-1.8,1.8"/><path class="cls-6" d="M886.45,1587.07c-2.8.7-2.2,3.3.7,3.3,1.8,0,2.5-.5,2.5-2,0-2-.2-2.1-3.2-1.3"/><path class="cls-6" d="M877.65,1588.87c-1.8,2.1-.5,4.5,2.5,4.5,2.1,0,2.5-.5,2.5-3,0-2.3-.5-3-1.9-3a4.8,4.8,0,0,0-3.1,1.5"/><path class="cls-6" d="M871.35,1590c-.3.4-2.1.8-3.9,1-7.2.8-9.8,1.5-9.8,2.9,0,1.7-1.2,1.9-2.6.5-1.1-1.1-11.4.9-11.4,2.2,0,.5-.7.8-1.5.8a2.6,2.6,0,0,0-2.2,1.6c-.5,1.5-.7,1.5-1.5,0-1.3-2.3-2.8-1-2.8,2.4,0,2.7.2,2.8,3.8,2.5,5-.4,7.2-1.4,7.2-3.3,0-1.2.3-1.3,1.2-.4,1.6,1.6,5.5,1.5,6.5-.1,1.2-1.8,5.3-3.9,5.3-2.7,0,.5.7,1,1.5,1s1.5-.5,1.5-1,1.4-1,3-1,3-.5,3-1.1.8-.8,1.9-.4a3.16,3.16,0,0,0,3.1-1c1.9-2.3-.2-6-2.3-3.9"/><path class="cls-6" d="M829.15,1600.37a10,10,0,0,1-4.6.3,3.81,3.81,0,0,0-3.7,1,3.5,3.5,0,0,1-3.2,1c-1.1-.3-2-.1-2,.5s-1.8,1.3-4,1.7c-3.6.6-4,1-4,3.5,0,3.8,1.8,4.8,3.7,2.1,1.1-1.7,1.8-1.9,2.8-1.1a3.66,3.66,0,0,0,3.2.6,14.23,14.23,0,0,1,2.8-.6,13.62,13.62,0,0,0,3.4-1.6,6.9,6.9,0,0,1,5-1.1c3.1.7,6.1-2,6.1-5.3,0-2.1-2-2.5-5.5-1"/></g></g></g></svg>