<?xml version="1.0" encoding="UTF-8" standalone="no"?>
<!-- Created with Inkscape (http://www.inkscape.org/) -->

<svg
   xmlns:dc="http://purl.org/dc/elements/1.1/"
   xmlns:cc="http://creativecommons.org/ns#"
   xmlns:rdf="http://www.w3.org/1999/02/22-rdf-syntax-ns#"
   xmlns:svg="http://www.w3.org/2000/svg"
   xmlns="http://www.w3.org/2000/svg"
   xmlns:sodipodi="http://sodipodi.sourceforge.net/DTD/sodipodi-0.dtd"
   xmlns:inkscape="http://www.inkscape.org/namespaces/inkscape"
   width="32"
   height="32"
   viewBox="0 0 8.4666666 8.4666666"
   version="1.1"
   id="svg8"
   inkscape:version="0.92.5 (2060ec1f9f, 2020-04-08)"
   sodipodi:docname="import-color-palette_sd.svg">
  <defs
     id="defs2">
    <style
       id="style1399">.cls-1{fill:#e3e3e3;}</style>
    <style
       id="style1399-4">.cls-1{fill:#e3e3e3;}</style>
    <style
       id="style1399-8">.cls-1{fill:#e3e3e3;}</style>
    <style
       id="style1399-4-5">.cls-1{fill:#e3e3e3;}</style>
    <style
       id="style1399-9">.cls-1{fill:#e3e3e3;}</style>
    <style
       id="style1399-4-6">.cls-1{fill:#e3e3e3;}</style>
    <style
       id="style1399-8-4">.cls-1{fill:#e3e3e3;}</style>
    <style
       id="style1399-4-5-3">.cls-1{fill:#e3e3e3;}</style>
    <style
       id="style1399-88">.cls-1{fill:#e3e3e3;}</style>
    <style
       id="style1399-3">.cls-1{fill:#e3e3e3;}</style>
    <style
       id="style1399-94">.cls-1{fill:#e3e3e3;}</style>
    <style
       id="style1399-5">.cls-1{fill:#e3e3e3;}</style>
    <style
       id="style1399-44">.cls-1{fill:#e3e3e3;}</style>
    <style
       id="style1399-4-7">.cls-1{fill:#e3e3e3;}</style>
    <style
       id="style1399-8-6">.cls-1{fill:#e3e3e3;}</style>
    <style
       id="style1399-4-5-31">.cls-1{fill:#e3e3e3;}</style>
    <style
       id="style1399-9-7">.cls-1{fill:#e3e3e3;}</style>
    <style
       id="style1399-4-6-5">.cls-1{fill:#e3e3e3;}</style>
    <style
       id="style1399-8-4-9">.cls-1{fill:#e3e3e3;}</style>
    <style
       id="style1399-4-5-3-6">.cls-1{fill:#e3e3e3;}</style>
    <style
       id="style1399-88-2">.cls-1{fill:#e3e3e3;}</style>
    <style
       id="style1399-3-1">.cls-1{fill:#e3e3e3;}</style>
    <style
       id="style1399-94-7">.cls-1{fill:#e3e3e3;}</style>
    <style
       id="style1399-5-8">.cls-1{fill:#e3e3e3;}</style>
    <style
       id="style1399-7">.cls-1{fill:#e3e3e3;}</style>
    <style
       id="style1399-4-53">.cls-1{fill:#e3e3e3;}</style>
    <style
       id="style1399-8-8">.cls-1{fill:#e3e3e3;}</style>
    <style
       id="style1399-4-5-8">.cls-1{fill:#e3e3e3;}</style>
    <style
       id="style1399-9-3">.cls-1{fill:#e3e3e3;}</style>
    <style
       id="style1399-4-6-1">.cls-1{fill:#e3e3e3;}</style>
    <style
       id="style1399-8-4-8">.cls-1{fill:#e3e3e3;}</style>
    <style
       id="style1399-4-5-3-9">.cls-1{fill:#e3e3e3;}</style>
    <style
       id="style1399-88-6">.cls-1{fill:#e3e3e3;}</style>
    <style
       id="style1399-3-4">.cls-1{fill:#e3e3e3;}</style>
    <style
       id="style1399-94-3">.cls-1{fill:#e3e3e3;}</style>
    <style
       id="style1399-5-3">.cls-1{fill:#e3e3e3;}</style>
    <style
       id="style1399-89">.cls-1{fill:#e3e3e3;}</style>
    <style
       id="style1399-4-77">.cls-1{fill:#e3e3e3;}</style>
    <style
       id="style1399-8-64">.cls-1{fill:#e3e3e3;}</style>
    <style
       id="style1399-4-5-30">.cls-1{fill:#e3e3e3;}</style>
    <style
       id="style1399-9-30">.cls-1{fill:#e3e3e3;}</style>
    <style
       id="style1399-4-6-9">.cls-1{fill:#e3e3e3;}</style>
    <style
       id="style1399-8-4-2">.cls-1{fill:#e3e3e3;}</style>
    <style
       id="style1399-4-5-3-5">.cls-1{fill:#e3e3e3;}</style>
    <style
       id="style1399-88-4">.cls-1{fill:#e3e3e3;}</style>
    <style
       id="style1399-3-0">.cls-1{fill:#e3e3e3;}</style>
    <style
       id="style1399-94-5">.cls-1{fill:#e3e3e3;}</style>
    <style
       id="style1399-5-9">.cls-1{fill:#e3e3e3;}</style>
  </defs>
  <sodipodi:namedview
     id="base"
     pagecolor="#ffffff"
     bordercolor="#666666"
     borderopacity="1.0"
     inkscape:pageopacity="0.0"
     inkscape:pageshadow="2"
     inkscape:zoom="11.313708"
     inkscape:cx="15.317315"
     inkscape:cy="-5.1680638"
     inkscape:document-units="mm"
     inkscape:current-layer="layer1"
     showgrid="false"
     units="px"
     inkscape:window-width="1858"
     inkscape:window-height="1136"
     inkscape:window-x="0"
     inkscape:window-y="27"
     inkscape:window-maximized="1"
     inkscape:snap-bbox="true"
     inkscape:bbox-paths="true"
     inkscape:bbox-nodes="true"
     inkscape:snap-bbox-edge-midpoints="true"
     inkscape:snap-bbox-midpoints="true"
     inkscape:snap-nodes="false">
    <sodipodi:guide
       position="8.4666666,0"
       orientation="-32,0"
       id="guide854"
       inkscape:locked="false" />
    <sodipodi:guide
       position="8.4666666,8.4666666"
       orientation="0,-32"
       id="guide856"
       inkscape:locked="false" />
    <sodipodi:guide
       position="0,8.4666814"
       orientation="32,0"
       id="guide858"
       inkscape:locked="false" />
  </sodipodi:namedview>
  <metadata
     id="metadata5">
    <rdf:RDF>
      <cc:Work
         rdf:about="">
        <dc:format>image/svg+xml</dc:format>
        <dc:type
           rdf:resource="http://purl.org/dc/dcmitype/StillImage" />
        <dc:title></dc:title>
      </cc:Work>
    </rdf:RDF>
  </metadata>
  <g
     inkscape:label="Layer 1"
     inkscape:groupmode="layer"
     id="layer1"
     transform="translate(0,-288.53334)">
    <path
       style="fill:#8109ad;fill-opacity:1;stroke-width:0.01134265"
       d="m 3.821947,288.51267 c -0.2222949,-0.007 -0.4509216,0.0101 -0.6831623,0.0553 -1.1274591,0.22004 -2.035944,1.12645 -2.25826001,2.25051 -0.35941434,1.8165 0.99224381,3.23321 2.29340001,3.46336 0.056724,-0.39737 0.4060347,-0.71159 0.8123535,-0.71159 h 0.3906739 c -0.00367,-0.10601 -0.028199,-0.21331 -0.079065,-0.31316 -0.2620153,-0.51495 0.1124387,-1.11621 0.6909139,-1.11621 h 0.9043376 c 0.4060663,0 0.7347378,-0.33558 0.7358724,-0.74052 -0.00499,-1.56415 -1.2509974,-2.83643 -2.8070641,-2.88768 z m -0.096635,0.7245 c 0.2007651,0 0.3627686,0.16253 0.3627686,0.36329 0,0.20076 -0.1620035,0.36277 -0.3627686,0.36277 -0.2007648,0 -0.3627685,-0.16201 -0.3627685,-0.36277 0,-0.20076 0.1620037,-0.36329 0.3627685,-0.36329 z m -1.4515909,0.72606 c 0.2007647,0 0.3627685,0.16251 0.3627685,0.36328 0,0.20076 -0.1620038,0.36277 -0.3627685,0.36277 -0.2007649,0 -0.3632853,-0.16201 -0.3632853,-0.36277 0,-0.20077 0.1625204,-0.36328 0.3632853,-0.36328 z m 2.9036986,0 c 0.200765,0 0.3627686,0.16251 0.3627686,0.36328 0,0.20076 -0.1620036,0.36277 -0.3627686,0.36277 -0.2007648,0 -0.3632851,-0.16201 -0.3632854,-0.36277 0,-0.20077 0.1625206,-0.36328 0.3632854,-0.36328 z m -3.2669839,1.4521 c 0.2007648,0 0.3632853,0.162 0.3632853,0.36277 0,0.20076 -0.1625205,0.36277 -0.3632853,0.36277 -0.200765,0 -0.3627686,-0.16201 -0.3627686,-0.36277 0,-0.20077 0.1620036,-0.36277 0.3627686,-0.36277 z"
       id="path5532"
       inkscape:connector-curvature="0" />
    <path
       id="path1100"
       d="m 7.7323486,294.73002 -1.8243047,-1.82431 c -0.1628847,-0.16288 -0.4452179,-0.0489 -0.4452179,0.18461 v 1.04246 H 3.9860075 c -0.1444238,0 -0.2606149,0.11619 -0.2606149,0.26062 v 1.04246 c 0,0.14442 0.1161911,0.26061 0.2606149,0.26061 H 5.462826 v 1.04246 c 0,0.23346 0.2823332,0.34748 0.4452179,0.1846 l 1.8243047,-1.8243 c 0.1009878,-0.10208 0.1009878,-0.26713 0,-0.36921 z"
       inkscape:connector-curvature="0"
       style="fill:#8109ad;fill-opacity:1;stroke-width:0.01085895"
       sodipodi:nodetypes="ccscsssscsccc" />
  </g>
</svg>
