<?xml version="1.0" encoding="UTF-8" standalone="no"?>
<svg
   xmlns:dc="http://purl.org/dc/elements/1.1/"
   xmlns:cc="http://creativecommons.org/ns#"
   xmlns:rdf="http://www.w3.org/1999/02/22-rdf-syntax-ns#"
   xmlns:svg="http://www.w3.org/2000/svg"
   xmlns="http://www.w3.org/2000/svg"
   xmlns:sodipodi="http://sodipodi.sourceforge.net/DTD/sodipodi-0.dtd"
   xmlns:inkscape="http://www.inkscape.org/namespaces/inkscape"
   width="32"
   height="32"
   viewBox="0 0 8.4666666 8.4666666"
   version="1.1"
   id="svg8"
   inkscape:version="1.0.2-2 (e86c870879, 2021-01-15)"
   sodipodi:docname="bake-oven_sl.svg">
  <defs
     id="defs2">
    <style
       id="style857">.cls-1{fill:#e52120;}.cls-1,.cls-2,.cls-3,.cls-4,.cls-5{stroke:#000;stroke-miterlimit:10;stroke-width:1.2px;}.cls-2{fill:#6dbc88;}.cls-3{fill:#701034;}.cls-4{fill:#51aae0;}.cls-5{fill:none;}</style>
    <style
       id="style835">.cls-1{fill:#e3e3e3;}</style>
  </defs>
  <sodipodi:namedview
     id="base"
     pagecolor="#ffffff"
     bordercolor="#666666"
     borderopacity="1.0"
     inkscape:pageopacity="0.0"
     inkscape:pageshadow="2"
     inkscape:zoom="16"
     inkscape:cx="10.561414"
     inkscape:cy="23.041515"
     inkscape:document-units="mm"
     inkscape:current-layer="g865"
     showgrid="false"
     units="px"
     inkscape:window-width="3440"
     inkscape:window-height="1417"
     inkscape:window-x="1915"
     inkscape:window-y="-8"
     inkscape:window-maximized="1"
     inkscape:document-rotation="0">
    <sodipodi:guide
       position="8.4666666,0"
       orientation="-32,0"
       id="guide854"
       inkscape:locked="false" />
    <sodipodi:guide
       position="8.4666666,8.4666666"
       orientation="0,-32"
       id="guide856"
       inkscape:locked="false" />
    <sodipodi:guide
       position="0,8.4666814"
       orientation="32,0"
       id="guide858"
       inkscape:locked="false" />
  </sodipodi:namedview>
  <metadata
     id="metadata5">
    <rdf:RDF>
      <cc:Work
         rdf:about="">
        <dc:format>image/svg+xml</dc:format>
        <dc:type
           rdf:resource="http://purl.org/dc/dcmitype/StillImage" />
        <dc:title />
      </cc:Work>
    </rdf:RDF>
  </metadata>
  <style
     type="text/css"
     id="style815">
	.st0{fill:#00005B;}
	.st1{fill:#9999FF;}
</style>
  <g
     id="g865"
     transform="matrix(0.28711256,0,0,0.28711256,-0.42819887,-0.42913465)">
    <path
       id="rect841"
       style="stroke:none;fill:#e3e3e3;fill-opacity:1"
       d="m 3.4492188,3.2421875 c -1.8789068,0 -3.4023438,1.5214841 -3.4023438,3.4003906 V 22.361328 c 2.2e-7,1.878907 1.5234372,3.402344 3.4023438,3.402344 h 0.5644531 c -0.055727,0.188475 -0.095703,0.384779 -0.095703,0.591797 v 2.654297 c -1e-7,1.154072 0.9299122,2.083984 2.0839843,2.083984 1.1540722,0 2.0820313,-0.929912 2.0820313,-2.083984 v -2.654297 c 0,-0.207018 -0.038023,-0.403322 -0.09375,-0.591797 H 24.033203 c -0.04434,0.169642 -0.07422,0.345377 -0.07422,0.529297 v 2.654297 c 0,1.154072 0.927959,2.083984 2.082032,2.083984 h 0.01758 c 1.154072,0 2.082031,-0.929912 2.082031,-2.083984 v -2.654297 c 0,-0.18392 -0.02988,-0.359655 -0.07422,-0.529297 h 0.513672 c 1.878907,0 3.402344,-1.523437 3.402344,-3.402344 V 6.6425781 c 0,-1.8789063 -1.523437,-3.4003904 -3.402344,-3.4003906 z M 3.5410156,6.734375 H 22.341797 V 22.519531 H 3.5410156 Z M 27.220703,7.5136719 c 0.154388,-0.014476 0.30864,-0.012754 0.460938,0.00586 1.015317,0.1240839 1.922069,0.9578109 1.912109,2.1640626 1.1e-5,1.1889252 -0.961477,2.1552422 -2.150391,2.1601562 v -0.01953 c -1.930051,0.0079 -2.898676,-2.3257471 -1.53125,-3.6875002 0.384589,-0.3829932 0.84543,-0.5796178 1.308594,-0.6230469 z m -7.521484,2.1640625 c -0.104063,-0.014421 -0.229119,-0.00865 -0.378907,0.025391 -0.599143,0.1361537 -3.725383,1.013061 -4.484374,2.115234 -0.758993,1.102173 -0.888235,2.27874 -0.923829,3.15625 -0.03559,0.877511 -0.04423,1.485698 -0.179687,1.826172 -0.135458,0.340476 -1.08228,1.639176 -1.304688,1.865235 -0.222408,0.226058 -0.396858,0.389845 -0.304687,0.703125 0.109681,0.277993 0.423867,0.342555 0.701172,0.304687 0.277304,-0.03787 3.096492,-0.758904 3.523437,-1.832031 0.426946,-1.073128 0.349503,-2.027048 0.378906,-2.751953 0.02941,-0.724905 0.0989,-1.192584 0.431641,-1.675782 0.332745,-0.483196 2.374549,-2.148121 2.652344,-2.404296 0.277795,-0.256176 0.513227,-0.673209 0.408203,-0.898438 C 20.13998,9.9424059 20.011406,9.7209969 19.699219,9.6777344 Z m -6.716797,0.082031 c -0.145145,-0.025755 -0.290319,-0.00514 -0.398438,0.00391 -0.216237,0.0181 -3.4746587,0.8693481 -4.1230465,1.9589841 -0.6483878,1.089636 -0.699205,2.195877 -0.734375,3.021485 -0.03517,0.825609 -0.073872,1.385054 -0.2734375,1.789062 -0.1995653,0.404008 -1.4794989,1.811774 -1.7402344,2.074219 -0.2607354,0.262444 -0.4794636,0.500711 -0.3476562,0.824219 0.1315608,0.323085 0.4251887,0.434932 0.8242187,0.347656 0.39903,-0.08728 3.2471193,-0.906823 3.7871094,-2 0.5399895,-1.093176 0.5312445,-2.13645 0.5644535,-2.916016 0.0332,-0.779565 0.09026,-1.279778 0.339843,-1.699219 0.249588,-0.419439 1.940617,-1.994796 2.146485,-2.21875 0.205868,-0.223952 0.557377,-0.577873 0.349609,-0.917968 C 13.27307,9.8572921 13.127567,9.785521 12.982422,9.7597656 Z m 14.226562,3.1074224 c 0.154249,-0.0153 0.308786,-0.01378 0.460938,0.0039 1.014348,0.117996 1.923818,0.944828 1.923828,2.148437 1.1e-5,1.188925 -0.961477,2.15329 -2.150391,2.158203 -1.925759,0.0079 -2.897801,-2.317263 -1.539062,-3.68164 0.382145,-0.383732 0.84194,-0.582997 1.304687,-0.628906 z"
       transform="matrix(0.92153173,0,0,0.92153173,1.4913972,1.4946565)" />
  </g>
</svg>
