<?xml version="1.0" encoding="UTF-8" standalone="no"?>
<!-- Created with Inkscape (http://www.inkscape.org/) -->

<svg
   xmlns:dc="http://purl.org/dc/elements/1.1/"
   xmlns:cc="http://creativecommons.org/ns#"
   xmlns:rdf="http://www.w3.org/1999/02/22-rdf-syntax-ns#"
   xmlns:svg="http://www.w3.org/2000/svg"
   xmlns="http://www.w3.org/2000/svg"
   xmlns:sodipodi="http://sodipodi.sourceforge.net/DTD/sodipodi-0.dtd"
   xmlns:inkscape="http://www.inkscape.org/namespaces/inkscape"
   width="32"
   height="32"
   viewBox="0 0 8.4666666 8.4666666"
   version="1.1"
   id="svg8"
   inkscape:version="0.92.5 (2060ec1f9f, 2020-04-08)"
   sodipodi:docname="bug_sd.svg">
  <defs
     id="defs2" />
  <sodipodi:namedview
     id="base"
     pagecolor="#ffffff"
     bordercolor="#666666"
     borderopacity="1.0"
     inkscape:pageopacity="0.0"
     inkscape:pageshadow="2"
     inkscape:zoom="5.6568543"
     inkscape:cx="-30.879402"
     inkscape:cy="2.5630739"
     inkscape:document-units="mm"
     inkscape:current-layer="layer1"
     showgrid="false"
     units="px"
     inkscape:window-width="1920"
     inkscape:window-height="1043"
     inkscape:window-x="0"
     inkscape:window-y="120"
     inkscape:window-maximized="1">
    <sodipodi:guide
       position="8.4666666,0"
       orientation="-32,0"
       id="guide854"
       inkscape:locked="false" />
    <sodipodi:guide
       position="8.4666666,8.4666666"
       orientation="0,-32"
       id="guide856"
       inkscape:locked="false" />
    <sodipodi:guide
       position="0,8.4666814"
       orientation="32,0"
       id="guide858"
       inkscape:locked="false" />
  </sodipodi:namedview>
  <metadata
     id="metadata5">
    <rdf:RDF>
      <cc:Work
         rdf:about="">
        <dc:format>image/svg+xml</dc:format>
        <dc:type
           rdf:resource="http://purl.org/dc/dcmitype/StillImage" />
        <dc:title></dc:title>
      </cc:Work>
    </rdf:RDF>
  </metadata>
  <g
     inkscape:label="Layer 1"
     inkscape:groupmode="layer"
     id="layer1"
     transform="translate(0,-288.53334)">
    <path
       id="path1061"
       d="m 8.4666667,293.30885 c -0.00788,0.28811 -0.2515366,0.51408 -0.5397532,0.51408 H 7.0122276 v 0.26448 c 0,0.36141 -0.080699,0.70391 -0.2248073,1.01073 l 0.9955666,0.99556 c 0.2065589,0.20658 0.2065589,0.54149 0,0.74807 -0.2065914,0.20657 -0.5415049,0.20656 -0.7480801,0 l -0.9047845,-0.90479 c -0.4091168,0.3318 -0.9303894,0.53074 -1.4982104,0.53074 v -4.03331 c 0,-0.10954 -0.088816,-0.19835 -0.1983596,-0.19835 H 4.0368329 c -0.109544,0 -0.1983596,0.0888 -0.1983596,0.19835 v 4.03331 c -0.5678209,0 -1.0890935,-0.19894 -1.4982103,-0.53074 l -0.9047844,0.90479 c -0.2065917,0.20657 -0.54150533,0.20656 -0.74808032,0 -0.20655858,-0.20658 -0.20655858,-0.54149 0,-0.74807 L 1.6829653,295.09814 C 1.538857,294.79132 1.4581577,294.44882 1.4581577,294.08741 v -0.26448 H 0.54348829 c -0.28821659,0 -0.53185183,-0.22597 -0.5397531,-0.51408 -0.008216,-0.29894 0.2316675,-0.54384 0.52874417,-0.54384 H 1.4581577 v -0.97105 L 0.68739828,291.0232 c -0.20655858,-0.20658 -0.20655858,-0.54149 0,-0.74806 0.20659159,-0.20657 0.54148862,-0.20657 0.74808032,0 l 0.9029826,0.90299 h 3.7934462 l 0.9029832,-0.90298 c 0.2065914,-0.20657 0.5414887,-0.20657 0.7480801,0 0.2065584,0.20658 0.2065584,0.54149 0,0.74807 l -0.7707431,0.77074 v 0.97105 h 0.9256786 c 0.2970764,0 0.5369593,0.2449 0.5287605,0.54384 z m -4.2149441,-4.77551 c -1.0224778,0 -1.8513567,0.82888 -1.8513567,1.85135 h 3.7027133 c 0,-1.02247 -0.8288788,-1.85135 -1.8513566,-1.85135 z"
       inkscape:connector-curvature="0"
       style="stroke-width:0.01652997;fill:#232323;fill-opacity:1" />
  </g>
</svg>
