<?xml version="1.0" encoding="UTF-8" standalone="no"?>
<!-- Created with Inkscape (http://www.inkscape.org/) -->

<svg
   xmlns:dc="http://purl.org/dc/elements/1.1/"
   xmlns:cc="http://creativecommons.org/ns#"
   xmlns:rdf="http://www.w3.org/1999/02/22-rdf-syntax-ns#"
   xmlns:svg="http://www.w3.org/2000/svg"
   xmlns="http://www.w3.org/2000/svg"
   xmlns:sodipodi="http://sodipodi.sourceforge.net/DTD/sodipodi-0.dtd"
   xmlns:inkscape="http://www.inkscape.org/namespaces/inkscape"
   width="32"
   height="32"
   viewBox="0 0 8.4666666 8.4666666"
   version="1.1"
   id="svg8"
   inkscape:version="0.92.5 (2060ec1f9f, 2020-04-08)"
   sodipodi:docname="certification-award_sl.svg">
  <defs
     id="defs2" />
  <sodipodi:namedview
     id="base"
     pagecolor="#ffffff"
     bordercolor="#666666"
     borderopacity="1.0"
     inkscape:pageopacity="0.0"
     inkscape:pageshadow="2"
     inkscape:zoom="11.313708"
     inkscape:cx="25.36429"
     inkscape:cy="8.0655348"
     inkscape:document-units="mm"
     inkscape:current-layer="layer1"
     showgrid="false"
     units="px"
     inkscape:window-width="1868"
     inkscape:window-height="1016"
     inkscape:window-x="52"
     inkscape:window-y="27"
     inkscape:window-maximized="1"
     inkscape:snap-bbox="true"
     inkscape:bbox-nodes="true"
     inkscape:snap-bbox-edge-midpoints="true"
     inkscape:snap-bbox-midpoints="true"
     inkscape:bbox-paths="true"
     inkscape:snap-nodes="false">
    <sodipodi:guide
       position="8.4666666,0"
       orientation="-32,0"
       id="guide854"
       inkscape:locked="false" />
    <sodipodi:guide
       position="8.4666666,8.4666666"
       orientation="0,-32"
       id="guide856"
       inkscape:locked="false" />
    <sodipodi:guide
       position="0,8.4666814"
       orientation="32,0"
       id="guide858"
       inkscape:locked="false" />
  </sodipodi:namedview>
  <metadata
     id="metadata5">
    <rdf:RDF>
      <cc:Work
         rdf:about="">
        <dc:format>image/svg+xml</dc:format>
        <dc:type
           rdf:resource="http://purl.org/dc/dcmitype/StillImage" />
        <dc:title></dc:title>
      </cc:Work>
    </rdf:RDF>
  </metadata>
  <g
     inkscape:label="Layer 1"
     inkscape:groupmode="layer"
     id="layer1"
     transform="translate(0,-288.53334)">
    <path
       id="path837"
       d="m 2.7227212,294.50817 c -0.1431772,-0.14318 -0.06854,-0.10281 -0.413879,-0.19524 -0.1566876,-0.042 -0.2944275,-0.12275 -0.4189867,-0.21946 l -0.7475196,1.8328 c -0.07233,0.17745 0.062774,0.37022 0.2542258,0.36296 l 0.8681246,-0.0331 0.597093,0.6307 c 0.1318085,0.13906 0.3631327,0.0957 0.4354627,-0.0817 l 0.8575798,-2.10268 c -0.1786008,0.0995 -0.3768079,0.15784 -0.5817704,0.15784 -0.3212834,0 -0.6231252,-0.12505 -0.8503302,-0.35209 z m 4.7068853,1.4181 -0.7475194,-1.8328 c -0.1245592,0.0969 -0.2622992,0.17745 -0.4189866,0.21946 -0.347151,0.0929 -0.2710315,0.0524 -0.413879,0.19524 -0.2272052,0.22704 -0.5292117,0.3521 -0.8504952,0.3521 -0.2049624,0 -0.4031695,-0.0585 -0.5817703,-0.15785 l 0.8575798,2.10268 c 0.07233,0.17745 0.3038189,0.22078 0.4354627,0.0817 l 0.5972578,-0.6307 0.8681245,0.0331 c 0.191452,0.007 0.3265556,-0.18569 0.2542257,-0.36297 z m -1.9738339,-1.79095 c 0.2517546,-0.2562 0.2805877,-0.23413 0.6391071,-0.33183 0.2288527,-0.0625 0.4077829,-0.2445 0.4690739,-0.47748 0.1232411,-0.46792 0.091278,-0.41141 0.4275541,-0.75378 0.1675618,-0.17052 0.2329718,-0.41915 0.1716808,-0.65212 -0.1230763,-0.46759 -0.1232411,-0.40235 0,-0.87043 0.061291,-0.23298 -0.00412,-0.4816 -0.1716808,-0.65213 -0.3362766,-0.34236 -0.304313,-0.28602 -0.4275541,-0.75377 -0.061291,-0.23298 -0.2402212,-0.41504 -0.4690739,-0.47748 -0.459353,-0.12538 -0.4039933,-0.0926 -0.7405997,-0.43513 -0.1675617,-0.17053 -0.4119019,-0.23726 -0.6407546,-0.17481 -0.4591882,0.12521 -0.3950963,0.12537 -0.8551083,0 -0.2288527,-0.0625 -0.4731929,0.004 -0.6407546,0.17481 -0.3362767,0.34237 -0.2809171,0.30975 -0.7404348,0.43513 -0.2288528,0.0625 -0.407783,0.2445 -0.4690739,0.47748 -0.1230763,0.46775 -0.091278,0.41141 -0.4275543,0.75377 -0.1675617,0.17053 -0.2331365,0.41915 -0.1716807,0.65213 0.1230763,0.46726 0.123241,0.40202 0,0.87026 -0.061291,0.23298 0.00412,0.4816 0.1716807,0.65229 0.3362768,0.34237 0.3043132,0.28586 0.4275543,0.75378 0.061291,0.23298 0.2402211,0.41504 0.4690739,0.47748 0.3687346,0.1005 0.3962496,0.0847 0.6389422,0.33183 0.2179785,0.22193 0.5575504,0.26164 0.81952,0.0959 a 0.65370478,0.65370478 0 0 1 0.7007275,0 c 0.2618049,0.16575 0.6013768,0.12604 0.8193552,-0.0959 z m -2.7241544,-2.70274 c 0,-0.87372 0.6959495,-1.58203 1.5543531,-1.58203 0.8584036,0 1.554353,0.70831 1.554353,1.58203 0,0.87373 -0.6959494,1.58204 -1.554353,1.58204 -0.8584036,0 -1.5543531,-0.70831 -1.5543531,-1.58204 z"
       inkscape:connector-curvature="0"
       style="stroke-width:0.01647607;fill:#e3e3e3;fill-opacity:1" />
  </g>
</svg>
