<?xml version="1.0" encoding="UTF-8" standalone="no"?>
<svg
   xmlns:dc="http://purl.org/dc/elements/1.1/"
   xmlns:cc="http://creativecommons.org/ns#"
   xmlns:rdf="http://www.w3.org/1999/02/22-rdf-syntax-ns#"
   xmlns:svg="http://www.w3.org/2000/svg"
   xmlns="http://www.w3.org/2000/svg"
   xmlns:sodipodi="http://sodipodi.sourceforge.net/DTD/sodipodi-0.dtd"
   xmlns:inkscape="http://www.inkscape.org/namespaces/inkscape"
   width="32"
   height="32"
   viewBox="0 0 8.4666666 8.4666666"
   version="1.1"
   id="svg8"
   inkscape:version="1.0.2-2 (e86c870879, 2021-01-15)"
   sodipodi:docname="language-translation-localize_sd.svg">
  <defs
     id="defs2">
    <style
       id="style857">.cls-1{fill:#e52120;}.cls-1,.cls-2,.cls-3,.cls-4,.cls-5{stroke:#000;stroke-miterlimit:10;stroke-width:1.2px;}.cls-2{fill:#6dbc88;}.cls-3{fill:#701034;}.cls-4{fill:#51aae0;}.cls-5{fill:none;}</style>
  </defs>
  <sodipodi:namedview
     id="base"
     pagecolor="#ffffff"
     bordercolor="#666666"
     borderopacity="1.0"
     inkscape:pageopacity="0.0"
     inkscape:pageshadow="2"
     inkscape:zoom="16"
     inkscape:cx="13.916328"
     inkscape:cy="16.101039"
     inkscape:document-units="mm"
     inkscape:current-layer="svg8"
     showgrid="false"
     units="px"
     inkscape:window-width="3440"
     inkscape:window-height="1417"
     inkscape:window-x="1915"
     inkscape:window-y="-8"
     inkscape:window-maximized="1"
     inkscape:document-rotation="0">
    <sodipodi:guide
       position="8.4666666,0"
       orientation="-32,0"
       id="guide854"
       inkscape:locked="false" />
    <sodipodi:guide
       position="8.4666666,8.4666666"
       orientation="0,-32"
       id="guide856"
       inkscape:locked="false" />
    <sodipodi:guide
       position="0,8.4666814"
       orientation="32,0"
       id="guide858"
       inkscape:locked="false" />
  </sodipodi:namedview>
  <metadata
     id="metadata5">
    <rdf:RDF>
      <cc:Work
         rdf:about="">
        <dc:format>image/svg+xml</dc:format>
        <dc:type
           rdf:resource="http://purl.org/dc/dcmitype/StillImage" />
        <dc:title></dc:title>
      </cc:Work>
    </rdf:RDF>
  </metadata>
  <style
     type="text/css"
     id="style815">
	.st0{fill:#00005B;}
	.st1{fill:#9999FF;}
</style>
  <path
     d="M 2.0116048,3.9124204 C 1.9653154,3.7523912 1.9084457,3.4733322 1.9084457,3.4733322 h -0.00661 c 0,0 -0.05687,0.279059 -0.1031592,0.4390882 L 1.6518726,4.408378 H 2.1557659 Z M 8.1469331,2.0581995 H 4.4437818 v 4.2321733 h 3.7031513 c 0.1758999,0 0.3174129,-0.1415135 0.3174129,-0.3174131 V 2.3756126 c 0,-0.1758999 -0.141513,-0.3174131 -0.3174129,-0.3174131 z M 7.82952,3.6452644 c 0,0.087288 -0.071418,0.1587065 -0.1587066,0.1587065 H 7.5200423 c -0.091256,0.3121228 -0.2869939,0.6268905 -0.5647305,0.9244652 0.1110945,0.084643 0.2261571,0.1653193 0.3451869,0.23806 0.07274,0.044967 0.096546,0.1388682 0.054225,0.2142536 L 7.2502413,5.3645846 C 7.2052746,5.4426154 7.106083,5.4677441 7.0293749,5.4214544 6.8627331,5.3182952 6.7053492,5.2085231 6.5611907,5.0921383 6.4170321,5.2072003 6.260971,5.3182952 6.0930064,5.4214544 c -0.076708,0.04629 -0.1758995,0.02116 -0.2208662,-0.05687 L 5.7676584,5.1807497 C 5.7253363,5.1066865 5.7491414,5.0114628 5.8232053,4.9664961 5.9462032,4.8911101 6.0612654,4.8117573 6.1683924,4.7284361 6.0639104,4.6173416 5.9713319,4.5036018 5.8906559,4.3885396 5.8377536,4.3131545 5.8615587,4.2086724 5.9395904,4.1623832 l 0.085966,-0.05158 0.096546,-0.05687 c 0.071418,-0.042322 0.1639972,-0.022486 0.2116089,0.044967 0.066128,0.092579 0.1428358,0.1851577 0.2301247,0.2764141 C 6.7423802,4.1875115 6.8786035,3.9930963 6.9606019,3.8039709 H 5.4489223 c -0.087288,0 -0.1587066,-0.071418 -0.1587066,-0.1587065 V 3.4336559 c 0,-0.087288 0.071418,-0.1587065 0.1587066,-0.1587065 H 6.2953574 V 3.0633408 c 0,-0.087288 0.071418,-0.1587065 0.1587066,-0.1587065 h 0.2116081 c 0.087289,0 0.1587066,0.071417 0.1587066,0.1587065 v 0.2116086 h 0.8464344 c 0.087289,0 0.1587069,0.071417 0.1587069,0.1587065 z M 0,2.3756126 V 5.9729597 C 0,6.1488593 0.14151165,6.2903728 0.31741308,6.2903728 H 4.0205642 V 2.0581995 H 0.31741308 C 0.14151165,2.0581995 0,2.1997127 0,2.3756126 Z M 0.7789843,5.2336516 1.5394529,2.997213 C 1.5619378,2.9324076 1.6214518,2.8900862 1.690224,2.8900862 h 0.4298303 c 0.06745,0 0.1282878,0.043644 0.1507712,0.1071268 L 3.031294,5.2336516 C 3.0656809,5.3368112 2.9902946,5.4439381 2.8805229,5.4439381 H 2.5776578 A 0.15870649,0.15870649 0 0 1 2.4255643,5.3301981 L 2.3012442,4.9083037 H 1.5050665 L 1.384714,5.3288758 C 1.364875,5.3963258 1.302715,5.4439381 1.2326206,5.4439381 H 0.92975548 c -0.10844945,0 -0.18515754,-0.1071269 -0.15077118,-0.2102865 z"
     id="path835"
     style="stroke-width:0.0132255;fill:#232323;fill-opacity:1" />
</svg>
