<?xml version="1.0" encoding="UTF-8" standalone="no"?>
<!-- Created with Inkscape (http://www.inkscape.org/) -->

<svg
   xmlns:dc="http://purl.org/dc/elements/1.1/"
   xmlns:cc="http://creativecommons.org/ns#"
   xmlns:rdf="http://www.w3.org/1999/02/22-rdf-syntax-ns#"
   xmlns:svg="http://www.w3.org/2000/svg"
   xmlns="http://www.w3.org/2000/svg"
   xmlns:sodipodi="http://sodipodi.sourceforge.net/DTD/sodipodi-0.dtd"
   xmlns:inkscape="http://www.inkscape.org/namespaces/inkscape"
   width="32"
   height="32"
   viewBox="0 0 8.4666666 8.4666666"
   version="1.1"
   id="svg8"
   inkscape:version="0.92.5 (2060ec1f9f, 2020-04-08)"
   sodipodi:docname="paste_sl.svg">
  <defs
     id="defs2">
    <style
       id="style1399">.cls-1{fill:#e3e3e3;}</style>
    <style
       id="style1399-4">.cls-1{fill:#e3e3e3;}</style>
    <style
       id="style1399-8">.cls-1{fill:#e3e3e3;}</style>
    <style
       id="style1399-4-5">.cls-1{fill:#e3e3e3;}</style>
    <style
       id="style1399-0">.cls-1{fill:#e3e3e3;}</style>
    <style
       id="style854">.cls-1{fill:#e3e3e3;}</style>
    <style
       id="style1399-84">.cls-1{fill:#e3e3e3;}</style>
    <style
       id="style1399-4-8">.cls-1{fill:#e3e3e3;}</style>
    <style
       id="style1399-8-10">.cls-1{fill:#e3e3e3;}</style>
    <style
       id="style1399-4-5-3">.cls-1{fill:#e3e3e3;}</style>
    <style
       id="style1399-0-0">.cls-1{fill:#e3e3e3;}</style>
    <style
       id="style1399-5">.cls-1{fill:#e3e3e3;}</style>
    <style
       id="style1399-4-6">.cls-1{fill:#e3e3e3;}</style>
    <style
       id="style1399-8-1">.cls-1{fill:#e3e3e3;}</style>
    <style
       id="style1399-4-5-1">.cls-1{fill:#e3e3e3;}</style>
    <style
       id="style1399-0-5">.cls-1{fill:#e3e3e3;}</style>
  </defs>
  <sodipodi:namedview
     id="base"
     pagecolor="#ffffff"
     bordercolor="#666666"
     borderopacity="1.0"
     inkscape:pageopacity="0.0"
     inkscape:pageshadow="2"
     inkscape:zoom="15.999999"
     inkscape:cx="14.866554"
     inkscape:cy="11.911825"
     inkscape:document-units="mm"
     inkscape:current-layer="svg8"
     showgrid="false"
     units="px"
     inkscape:window-width="1868"
     inkscape:window-height="1016"
     inkscape:window-x="0"
     inkscape:window-y="27"
     inkscape:window-maximized="1"
     inkscape:snap-bbox="true"
     inkscape:bbox-paths="true"
     inkscape:bbox-nodes="true"
     inkscape:snap-bbox-edge-midpoints="true"
     inkscape:snap-bbox-midpoints="true"
     inkscape:snap-nodes="true"
     inkscape:snap-others="true"
     inkscape:snap-object-midpoints="true"
     inkscape:snap-page="true"
     showguides="false">
    <sodipodi:guide
       position="8.4666666,0"
       orientation="-32,0"
       id="guide854"
       inkscape:locked="false" />
    <sodipodi:guide
       position="8.4666666,8.4666666"
       orientation="0,-32"
       id="guide856"
       inkscape:locked="false" />
    <sodipodi:guide
       position="0,8.4666814"
       orientation="32,0"
       id="guide858"
       inkscape:locked="false" />
  </sodipodi:namedview>
  <metadata
     id="metadata5">
    <rdf:RDF>
      <cc:Work
         rdf:about="">
        <dc:format>image/svg+xml</dc:format>
        <dc:type
           rdf:resource="http://purl.org/dc/dcmitype/StillImage" />
        <dc:title></dc:title>
      </cc:Work>
    </rdf:RDF>
  </metadata>
  <path
     id="path853"
     d="m 2.7781253,3.0427082 c 0,-0.5106292 0.4154289,-0.9260416 0.9260416,-0.9260416 H 5.9531252 V 0.92604165 c 0,-0.21919073 -0.1776842,-0.39687498 -0.3968749,-0.39687498 H 4.2232463 C 4.0399563,0.21315493 3.6981642,0 3.307292,0 2.9164197,0 2.5746277,0.21315493 2.3913375,0.52916667 H 1.0583339 c -0.21919125,0 -0.39687495,0.17768425 -0.39687495,0.39687498 V 6.4822917 c 0,0.2191906 0.1776837,0.396875 0.39687495,0.396875 H 2.7781253 Z M 3.307292,0.66145829 c 0.2191907,0 0.3968749,0.17768425 0.3968749,0.39687501 0,0.2191907 -0.1776842,0.396875 -0.3968749,0.396875 -0.2191909,0 -0.3968751,-0.1776843 -0.3968751,-0.396875 0,-0.21919076 0.1776842,-0.39687501 0.3968751,-0.39687501 z M 6.3500002,4.7624999 h 1.7197914 v 3.3072917 c 0,0.2191907 -0.1776838,0.3968751 -0.396875,0.3968751 H 3.7041669 c -0.2191907,0 -0.3968749,-0.1776844 -0.3968749,-0.3968751 V 3.0427082 c 0,-0.2191907 0.1776842,-0.3968749 0.3968749,-0.3968749 h 2.2489583 v 1.7197916 c 0,0.2182812 0.1785938,0.396875 0.396875,0.396875 z M 8.0697916,4.1331388 V 4.2333332 H 6.4822918 V 2.6458333 H 6.5824862 A 0.39687499,0.39687499 0 0 1 6.86311,2.7620681 l 1.0904303,1.0904305 a 0.39690807,0.39690807 0 0 1 0.1162513,0.2806402 z"
     inkscape:connector-curvature="0"
     style="stroke-width:0.01653646;fill:#e3e3e3;fill-opacity:1" />
</svg>
