<?xml version="1.0" encoding="UTF-8" standalone="no"?>
<!-- Created with Inkscape (http://www.inkscape.org/) -->

<svg
   width="32"
   height="32"
   viewBox="0 0 8.4666666 8.4666666"
   version="1.1"
   id="svg8"
   inkscape:version="1.1 (c68e22c387, 2021-05-23)"
   sodipodi:docname="save-changes-commit_bd.svg"
   xmlns:inkscape="http://www.inkscape.org/namespaces/inkscape"
   xmlns:sodipodi="http://sodipodi.sourceforge.net/DTD/sodipodi-0.dtd"
   xmlns="http://www.w3.org/2000/svg"
   xmlns:svg="http://www.w3.org/2000/svg"
   xmlns:rdf="http://www.w3.org/1999/02/22-rdf-syntax-ns#"
   xmlns:cc="http://creativecommons.org/ns#"
   xmlns:dc="http://purl.org/dc/elements/1.1/">
  <defs
     id="defs2" />
  <sodipodi:namedview
     id="base"
     pagecolor="#ffffff"
     bordercolor="#666666"
     borderopacity="1.0"
     inkscape:pageopacity="0.0"
     inkscape:pageshadow="2"
     inkscape:zoom="11.313708"
     inkscape:cx="-5.524272"
     inkscape:cy="15.512156"
     inkscape:document-units="mm"
     inkscape:current-layer="svg8"
     showgrid="false"
     units="px"
     inkscape:window-width="1920"
     inkscape:window-height="1027"
     inkscape:window-x="-8"
     inkscape:window-y="-8"
     inkscape:window-maximized="1"
     inkscape:pagecheckerboard="1"
     inkscape:snap-bbox="true"
     inkscape:bbox-paths="true"
     inkscape:snap-bbox-edge-midpoints="true"
     inkscape:bbox-nodes="true"
     inkscape:snap-bbox-midpoints="true"
     inkscape:snap-nodes="false">
    <sodipodi:guide
       position="8.4666666,0"
       orientation="-32,0"
       id="guide854"
       inkscape:locked="false" />
    <sodipodi:guide
       position="8.4666666,8.4666666"
       orientation="0,-32"
       id="guide856"
       inkscape:locked="false" />
    <sodipodi:guide
       position="0,8.4666814"
       orientation="32,0"
       id="guide858"
       inkscape:locked="false" />
  </sodipodi:namedview>
  <metadata
     id="metadata5">
    <rdf:RDF>
      <cc:Work
         rdf:about="">
        <dc:format>image/svg+xml</dc:format>
        <dc:type
           rdf:resource="http://purl.org/dc/dcmitype/StillImage" />
      </cc:Work>
    </rdf:RDF>
  </metadata>
  <path
     style="fill:#8109ad;fill-opacity:1;stroke-width:0.0165334"
     d="m 7.7990069,4.3371056 c -0.070756,0 -0.1413552,0.027147 -0.1953368,0.081132 L 5.0110635,7.0113609 3.8002847,5.8005821 c -0.1079629,-0.1079696 -0.2832277,-0.1079696 -0.3911904,0 l -0.390674,0.3911907 c -0.1079629,0.1079696 -0.1079629,0.2827173 0,0.3906737 L 4.81521,8.3797528 c 0.1079629,0.1079762 0.2832163,0.1079566 0.3911904,0 L 8.3855345,5.200102 c 0.1079629,-0.1079695 0.1079629,-0.2827107 0,-0.3906737 L 7.9948608,4.4182377 C 7.9408792,4.3642529 7.8697629,4.3371056 7.7990069,4.3371056 Z"
     id="path1415" />
  <path
     id="path845"
     d="M 3.9371756,1.2595169 5.6727963,2.9951374 1.9039697,6.7639638 0.35652608,6.9347876 C 0.14936871,6.9576983 -0.02565758,6.7825378 -0.00260994,6.5753799 L 0.16956927,5.026852 Z M 6.7462719,1.0011125 5.9313359,0.18617607 c -0.2542018,-0.25420159 -0.6664827,-0.25420159 -0.9206842,0 L 4.2439799,0.95284806 5.9796005,2.6884686 6.7462719,1.9217967 c 0.2542019,-0.2543372 0.2542019,-0.6664827 0,-0.9206842 z"
     inkscape:connector-curvature="0"
     style="fill:#232323;stroke-width:0.0135574;fill-opacity:1" />
</svg>
