<?xml version="1.0" encoding="UTF-8" standalone="no"?>
<!-- Created with Inkscape (http://www.inkscape.org/) -->

<svg
   width="32"
   height="32"
   viewBox="0 0 8.4666666 8.4666666"
   version="1.1"
   id="svg8"
   inkscape:version="1.2.2 (732a01da63, 2022-12-09)"
   sodipodi:docname="tasks-list-queue_sd.svg"
   xml:space="preserve"
   xmlns:inkscape="http://www.inkscape.org/namespaces/inkscape"
   xmlns:sodipodi="http://sodipodi.sourceforge.net/DTD/sodipodi-0.dtd"
   xmlns="http://www.w3.org/2000/svg"
   xmlns:svg="http://www.w3.org/2000/svg"
   xmlns:rdf="http://www.w3.org/1999/02/22-rdf-syntax-ns#"
   xmlns:cc="http://creativecommons.org/ns#"
   xmlns:dc="http://purl.org/dc/elements/1.1/"><defs
     id="defs2" /><sodipodi:namedview
     id="base"
     pagecolor="#ffffff"
     bordercolor="#666666"
     borderopacity="1.0"
     inkscape:pageopacity="0.0"
     inkscape:pageshadow="2"
     inkscape:zoom="22.627417"
     inkscape:cx="1.5467961"
     inkscape:cy="14.318912"
     inkscape:document-units="mm"
     inkscape:current-layer="layer1"
     showgrid="false"
     units="px"
     inkscape:window-width="3440"
     inkscape:window-height="1369"
     inkscape:window-x="1912"
     inkscape:window-y="-8"
     inkscape:window-maximized="1"
     inkscape:showpageshadow="0"
     inkscape:pagecheckerboard="0"
     inkscape:deskcolor="#d1d1d1" /><metadata
     id="metadata5"><rdf:RDF><cc:Work
         rdf:about=""><dc:format>image/svg+xml</dc:format><dc:type
           rdf:resource="http://purl.org/dc/dcmitype/StillImage" /></cc:Work></rdf:RDF></metadata><g
     inkscape:label="Layer 1"
     inkscape:groupmode="layer"
     id="layer1"
     transform="translate(0,-288.53334)"><path
       d="m 2.3086492,289.18811 a 0.19843767,0.19843767 0 0 0 -0.2811201,0 l -1.05304248,1.04693 -0.37537787,-0.36578 a 0.19843767,0.19843767 0 0 0 -0.28112,0 l -0.25962259,0.25996 a 0.19843767,0.19843767 0 0 0 0,0.28111 l 0.78697071,0.78382 a 0.21133611,0.21133611 0 0 0 0.29120723,0 l 0.2578035,-0.25829 1.1939334,-1.19377 a 0.19992595,0.19992595 0 0 0 0.00148,-0.28112 z m 0,2.63245 a 0.19843767,0.19843767 0 0 0 -0.2811201,0 l -1.05304248,1.0537 -0.37537787,-0.36546 a 0.19843767,0.19843767 0 0 0 -0.28112,0 l -0.25962259,0.25946 a 0.19843767,0.19843767 0 0 0 0,0.28113 l 0.78498641,0.78548 a 0.21117074,0.21117074 0 0 0 0.29104173,0 l 0.2596227,-0.25947 1.1939332,-1.19425 a 0.19843767,0.19843767 0 0 0 0.00148,-0.27948 z m -1.2503226,2.86593 c -0.43805116,0 -0.80350718,0.35554 -0.80350718,0.79376 0,0.43821 0.36578685,0.79374 0.80350718,0.79374 a 0.79375064,0.79375064 0 0 0 0,-1.5875 z m 7.1437555,0.26458 H 3.4395785 a 0.26458354,0.26458354 0 0 0 -0.2645835,0.26459 v 0.52917 a 0.26458354,0.26458354 0 0 0 0.2645835,0.26458 h 4.7625036 a 0.26458354,0.26458354 0 0 0 0.2645846,-0.26458 v -0.52917 a 0.26458354,0.26458354 0 0 0 -0.2645846,-0.26459 z m 0,-5.29166 H 3.4395785 a 0.26458354,0.26458354 0 0 0 -0.2645835,0.26458 v 0.52917 a 0.26458354,0.26458354 0 0 0 0.2645835,0.26457 h 4.7625036 a 0.26458354,0.26458354 0 0 0 0.2645846,-0.26457 v -0.52917 a 0.26458354,0.26458354 0 0 0 -0.2645846,-0.26458 z m 0,2.64583 H 3.4395785 a 0.26458354,0.26458354 0 0 0 -0.2645835,0.26458 v 0.52918 a 0.26458354,0.26458354 0 0 0 0.2645835,0.26458 H 8.2020821 A 0.26458354,0.26458354 0 0 0 8.4666667,293.099 v -0.52918 a 0.26458354,0.26458354 0 0 0 -0.2645846,-0.26458 z"
       id="path289"
       style="stroke-width:0.0165365;fill:#232323;fill-opacity:1" /></g></svg>
