<?xml version="1.0" encoding="utf-8"?>
<svg width="32px" height="32px" viewBox="0 0 500 500" xmlns="http://www.w3.org/2000/svg">
  <path d="M 87.916 245.425 C 83.568 249.718 76.563 249.672 72.27 245.324 L 4.758 176.941 C 0.464 172.592 0.51 165.587 4.858 161.294 L 113.894 51.772 C 122.048 44.257 132.202 36.897 152.953 36.703 L 168.16 36.703 C 173.036 64.781 208.021 86.557 250.456 86.557 C 292.891 86.557 327.876 64.781 332.752 36.703 L 347.121 36.703 C 362.483 36.703 366.546 38.75 379.385 50.087 L 495.806 162.308 C 500.154 166.601 500.199 173.605 495.906 177.955 L 428.394 246.338 C 424.1 250.687 417.096 250.732 412.748 246.439 L 389.228 223.22 L 389.228 443.344 C 389.228 449.455 384.275 454.408 378.164 454.408 L 124.526 454.408 C 118.415 454.408 113.463 449.455 113.463 443.344 L 113.463 220.204 L 87.916 245.425 Z" style="fill: rgb(35, 35, 35);"/>
</svg>