<?xml version="1.0" encoding="UTF-8" standalone="no"?>
<!-- Created with Inkscape (http://www.inkscape.org/) -->

<svg
   width="32"
   height="32"
   viewBox="0 0 8.4666666 8.4666666"
   version="1.1"
   id="svg8"
   inkscape:version="1.2.2 (732a01da63, 2022-12-09, custom)"
   sodipodi:docname="create-folder_sl.svg"
   xml:space="preserve"
   xmlns:inkscape="http://www.inkscape.org/namespaces/inkscape"
   xmlns:sodipodi="http://sodipodi.sourceforge.net/DTD/sodipodi-0.dtd"
   xmlns="http://www.w3.org/2000/svg"
   xmlns:svg="http://www.w3.org/2000/svg"
   xmlns:rdf="http://www.w3.org/1999/02/22-rdf-syntax-ns#"
   xmlns:cc="http://creativecommons.org/ns#"
   xmlns:dc="http://purl.org/dc/elements/1.1/"><defs
     id="defs2"><style
       id="style1399">.cls-1{fill:#e3e3e3;}</style><style
       id="style1399-1">.cls-1{fill:#e3e3e3;}</style><style
       id="style1399-5">.cls-1{fill:#e3e3e3;}</style><style
       id="style1399-8">.cls-1{fill:#e3e3e3;}</style></defs><sodipodi:namedview
     id="base"
     pagecolor="#ffffff"
     bordercolor="#666666"
     borderopacity="1.0"
     inkscape:pageopacity="0.0"
     inkscape:pageshadow="2"
     inkscape:zoom="7.9999995"
     inkscape:cx="13.750001"
     inkscape:cy="7.5625005"
     inkscape:document-units="mm"
     inkscape:current-layer="svg8"
     showgrid="false"
     units="px"
     inkscape:window-width="1846"
     inkscape:window-height="1016"
     inkscape:window-x="0"
     inkscape:window-y="0"
     inkscape:window-maximized="1"
     inkscape:showpageshadow="0"
     inkscape:pagecheckerboard="1"
     inkscape:deskcolor="#d1d1d1"><sodipodi:guide
       position="8.4666666,0"
       orientation="-32,0"
       id="guide854"
       inkscape:locked="false" /><sodipodi:guide
       position="8.4666666,8.4666666"
       orientation="0,-32"
       id="guide856"
       inkscape:locked="false" /><sodipodi:guide
       position="0,8.4666814"
       orientation="1,6.123234e-17"
       id="guide858"
       inkscape:locked="false" /></sodipodi:namedview><metadata
     id="metadata5"><rdf:RDF><cc:Work
         rdf:about=""><dc:format>image/svg+xml</dc:format><dc:type
           rdf:resource="http://purl.org/dc/dcmitype/StillImage" /></cc:Work></rdf:RDF></metadata><path
     id="path1824"
     style="fill:#e3e3e3;fill-opacity:1;stroke-width:0.015461"
     d="M 0.74207357 0.71675212 C 0.3322036 0.71675212 -4.6999394e-16 1.0489559 0 1.4588257 L 0 5.9117839 C 0 6.3216538 0.3322036 6.6538574 0.74207357 6.6538574 L 3.8214722 6.6538574 C 3.3611226 6.5110795 3.0173869 6.075623 3.0173869 5.5743368 L 3.0173869 5.2420573 C 3.0173869 4.6283237 3.5327943 4.113444 4.1465169 4.113444 L 4.8456991 4.113444 L 4.8456991 3.4142619 C 4.8456991 2.8005127 5.3610743 2.2851318 5.9748291 2.2851318 L 6.3065918 2.2851318 C 6.9203468 2.2851318 7.4357218 2.8005124 7.4357218 3.4142619 L 7.4357218 4.113444 L 7.9157959 4.113444 L 7.9157959 2.4484294 C 7.9157959 2.0385594 7.583592 1.7063558 7.1737223 1.7063558 L 4.2054281 1.7063558 L 3.2158244 0.71675212 L 0.74207357 0.71675212 z M 5.9748291 3.0819824 C 5.7913619 3.0819824 5.6425496 3.2307983 5.6425496 3.4142619 L 5.6425496 4.9097778 L 4.1475505 4.9097778 C 3.9640828 4.9097778 3.815271 5.0580659 3.815271 5.2415405 L 3.815271 5.57382 C 3.815271 5.7572781 3.9640828 5.9060994 4.1475505 5.9060994 L 5.6425496 5.9060994 L 5.6425496 7.4016154 C 5.6425496 7.58509 5.7913619 7.7338949 5.9748291 7.7338949 L 6.3071086 7.7338949 C 6.4905757 7.7338949 6.639388 7.58509 6.639388 7.4016154 L 6.639388 5.9060994 L 8.1343872 5.9060994 C 8.3178544 5.9060994 8.4666667 5.7572781 8.4666667 5.57382 L 8.4666667 5.2415405 C 8.4666667 5.0580659 8.3178544 4.9097778 8.1343872 4.9097778 L 6.639388 4.9097778 L 6.639388 3.4142619 C 6.639388 3.2307983 6.4905757 3.0819824 6.3071086 3.0819824 L 5.9748291 3.0819824 z " /></svg>
