<?xml version="1.0" encoding="UTF-8" standalone="no"?>
<!-- Created with Inkscape (http://www.inkscape.org/) -->

<svg
   width="32"
   height="32"
   viewBox="0 0 8.4666666 8.4666666"
   version="1.1"
   id="svg8"
   inkscape:version="1.2.2 (732a01da63, 2022-12-09)"
   sodipodi:docname="drives_sl.svg"
   xmlns:inkscape="http://www.inkscape.org/namespaces/inkscape"
   xmlns:sodipodi="http://sodipodi.sourceforge.net/DTD/sodipodi-0.dtd"
   xmlns="http://www.w3.org/2000/svg"
   xmlns:svg="http://www.w3.org/2000/svg"
   xmlns:rdf="http://www.w3.org/1999/02/22-rdf-syntax-ns#"
   xmlns:cc="http://creativecommons.org/ns#"
   xmlns:dc="http://purl.org/dc/elements/1.1/">
  <defs
     id="defs2" />
  <sodipodi:namedview
     id="base"
     pagecolor="#ffffff"
     bordercolor="#666666"
     borderopacity="1.0"
     inkscape:pageopacity="0.0"
     inkscape:pageshadow="2"
     inkscape:zoom="22.627417"
     inkscape:cx="4.8613591"
     inkscape:cy="17.147339"
     inkscape:document-units="mm"
     inkscape:current-layer="layer1"
     showgrid="false"
     units="px"
     inkscape:window-width="3440"
     inkscape:window-height="1369"
     inkscape:window-x="1912"
     inkscape:window-y="-8"
     inkscape:window-maximized="1"
     inkscape:pagecheckerboard="0"
     inkscape:showpageshadow="0"
     inkscape:deskcolor="#d1d1d1" />
  <metadata
     id="metadata5">
    <rdf:RDF>
      <cc:Work
         rdf:about="">
        <dc:format>image/svg+xml</dc:format>
        <dc:type
           rdf:resource="http://purl.org/dc/dcmitype/StillImage" />
      </cc:Work>
    </rdf:RDF>
  </metadata>
  <g
     inkscape:label="Layer 1"
     inkscape:groupmode="layer"
     id="layer1"
     transform="translate(0,-288.53334)">
    <g
       id="g14"
       transform="matrix(0,0.10279572,-0.10279572,0,9.3731707,287.62689)"
       style="fill:#e3e3e3;fill-opacity:1">
	<g
   id="g4"
   style="fill:#e3e3e3;fill-opacity:1">
		<path
   d="m 32.948,24.348 h -0.011 c -0.057,-2.327 -1.971,-4.133 -4.3,-4.165 v -0.006 h -15.69 v 0.011 C 10.64,20.245 8.88,22.04 8.828,24.349 h -0.01 v 51.2 h 0.008 c 0.043,2.3 1.838,4.089 4.121,4.178 v 0.097 h 15.69 v 0 c 2.401,-0.001 4.311,-1.875 4.311,-4.274 0,0 0,-10e-4 0,-10e-4 v 0 z M 20.882,74.836 c -3.443,0 -6.233,-2.792 -6.233,-6.234 0,-3.443 2.791,-6.234 6.233,-6.234 3.444,0 6.235,2.791 6.235,6.234 0,3.443 -2.791,6.234 -6.235,6.234 z M 27.96,52.426 H 13.805 V 25.164 H 27.96 Z"
   id="path2"
   style="fill:#e3e3e3;fill-opacity:1" />

	</g>

	<g
   id="g8"
   style="fill:#e3e3e3;fill-opacity:1">
		<path
   d="m 62.065,24.348 h -0.011 c -0.057,-2.327 -1.971,-4.133 -4.3,-4.165 v -0.006 h -15.69 v 0.011 c -2.307,0.057 -4.067,1.852 -4.119,4.161 h -0.01 v 51.2 h 0.008 c 0.043,2.3 1.838,4.089 4.121,4.178 v 0.097 h 15.69 v 0 c 2.401,-0.001 4.311,-1.875 4.311,-4.274 0,0 0,-10e-4 0,-10e-4 v 0 z M 49.999,74.836 c -3.443,0 -6.233,-2.792 -6.233,-6.234 0,-3.443 2.791,-6.234 6.233,-6.234 3.444,0 6.235,2.791 6.235,6.234 0,3.443 -2.791,6.234 -6.235,6.234 z m 7.078,-22.41 H 42.923 V 25.164 h 14.155 v 27.262 z"
   id="path6"
   style="fill:#e3e3e3;fill-opacity:1" />

	</g>

	<g
   id="g12"
   style="fill:#e3e3e3;fill-opacity:1">
		<path
   d="m 91.182,24.348 h -0.011 c -0.057,-2.327 -1.971,-4.133 -4.3,-4.165 v -0.006 h -15.69 v 0.011 c -2.307,0.057 -4.067,1.852 -4.119,4.161 h -0.01 v 51.2 h 0.008 c 0.043,2.3 1.838,4.089 4.121,4.178 v 0.097 h 15.69 v 0 c 2.401,-0.001 4.311,-1.875 4.311,-4.274 0,0 0,-10e-4 0,-10e-4 v 0 z M 79.117,74.836 c -3.443,0 -6.233,-2.792 -6.233,-6.234 0,-3.443 2.791,-6.234 6.233,-6.234 3.444,0 6.235,2.791 6.235,6.234 0,3.443 -2.792,6.234 -6.235,6.234 z m 7.078,-22.41 H 72.04 V 25.164 h 14.155 z"
   id="path10"
   style="fill:#e3e3e3;fill-opacity:1" />

	</g>

</g>
  </g>
</svg>
