<?xml version="1.0" encoding="UTF-8" standalone="no"?>
<!-- Created with Inkscape (http://www.inkscape.org/) -->

<svg
   width="32"
   height="32"
   viewBox="0 0 8.4666666 8.4666666"
   version="1.1"
   id="svg8"
   inkscape:version="1.1 (c68e22c387, 2021-05-23)"
   sodipodi:docname="export-save-as-file_sd.svg"
   xmlns:inkscape="http://www.inkscape.org/namespaces/inkscape"
   xmlns:sodipodi="http://sodipodi.sourceforge.net/DTD/sodipodi-0.dtd"
   xmlns="http://www.w3.org/2000/svg"
   xmlns:svg="http://www.w3.org/2000/svg"
   xmlns:rdf="http://www.w3.org/1999/02/22-rdf-syntax-ns#"
   xmlns:cc="http://creativecommons.org/ns#"
   xmlns:dc="http://purl.org/dc/elements/1.1/">
  <defs
     id="defs2">
    <style
       id="style1399">.cls-1{fill:#e3e3e3;}</style>
  </defs>
  <sodipodi:namedview
     id="base"
     pagecolor="#ffffff"
     bordercolor="#666666"
     borderopacity="1.0"
     inkscape:pageopacity="0.0"
     inkscape:pageshadow="2"
     inkscape:zoom="11.313708"
     inkscape:cx="-5.524272"
     inkscape:cy="15.688932"
     inkscape:document-units="mm"
     inkscape:current-layer="svg8"
     showgrid="false"
     units="px"
     inkscape:window-width="1920"
     inkscape:window-height="1027"
     inkscape:window-x="-8"
     inkscape:window-y="-8"
     inkscape:window-maximized="1"
     inkscape:pagecheckerboard="1">
    <sodipodi:guide
       position="8.4666666,0"
       orientation="-32,0"
       id="guide854"
       inkscape:locked="false" />
    <sodipodi:guide
       position="8.4666666,8.4666666"
       orientation="0,-32"
       id="guide856"
       inkscape:locked="false" />
    <sodipodi:guide
       position="0,8.4666814"
       orientation="1,6.123234e-17"
       id="guide858"
       inkscape:locked="false" />
  </sodipodi:namedview>
  <metadata
     id="metadata5">
    <rdf:RDF>
      <cc:Work
         rdf:about="">
        <dc:format>image/svg+xml</dc:format>
        <dc:type
           rdf:resource="http://purl.org/dc/dcmitype/StillImage" />
      </cc:Work>
    </rdf:RDF>
  </metadata>
  <path
     id="path1112-8"
     style="fill:#3e8b45;fill-opacity:1;stroke-width:0.0628141"
     d="M 9.3867188 0 C 8.5512924 0 7.8789063 0.67238576 7.8789062 1.5078125 L 7.8789062 5.4257812 C 8.1425791 5.3120596 8.4204754 5.2377388 8.703125 5.2050781 C 9.5592401 5.1061637 10.530429 5.401536 11.205078 6.0761719 L 19.458984 14.335938 A 1.8751877 1.8751877 0 0 1 19.466797 14.34375 C 20.632092 15.521636 20.632088 17.47641 19.466797 18.654297 A 1.8751877 1.8751877 0 0 1 19.458984 18.662109 L 11.205078 26.914062 C 10.299053 27.820078 8.9267262 28.004888 7.8847656 27.578125 C 7.8828823 27.577354 7.8807883 27.576948 7.8789062 27.576172 L 7.8789062 30.652344 C 7.8789062 31.487771 8.5512924 32.160156 9.3867188 32.160156 L 30.492188 32.160156 C 31.327611 32.16018 32 31.487771 32 30.652344 L 32 7.65625 C 32 7.2605335 31.843218 6.8784118 31.560547 6.5957031 L 25.410156 0.43945312 C 25.127493 0.15659331 24.74576 -1.4802974e-16 24.34375 0 L 9.3867188 0 z M 9.0410156 7.0585938 C 8.9990047 7.0590175 8.9575867 7.0616032 8.9160156 7.0664062 C 8.3617332 7.1304545 7.8613281 7.5798288 7.8613281 8.2402344 L 7.8613281 12.958984 L 1.1777344 12.958984 C 0.52415334 12.958984 1.4892118e-06 13.485085 0 14.138672 L 0 18.855469 C 0 19.509054 0.52415334 20.035156 1.1777344 20.035156 L 7.8613281 20.035156 L 7.8613281 24.751953 C 7.8613281 25.808479 9.1398304 26.326959 9.8769531 25.589844 L 18.130859 17.332031 C 18.587872 16.870078 18.587872 16.12406 18.130859 15.662109 L 9.8769531 7.4042969 C 9.6350844 7.1624334 9.335092 7.0556278 9.0410156 7.0585938 z "
     transform="scale(0.26458333)" />
</svg>
