<?xml version="1.0" encoding="UTF-8" standalone="no"?>
<!-- Created with Inkscape (http://www.inkscape.org/) -->

<svg
   width="32"
   height="32"
   viewBox="0 0 8.4666666 8.4666666"
   version="1.1"
   id="svg8"
   inkscape:version="1.1.1 (3bf5ae0d25, 2021-09-20)"
   sodipodi:docname="outout-folder-bin_sl.svg"
   xmlns:inkscape="http://www.inkscape.org/namespaces/inkscape"
   xmlns:sodipodi="http://sodipodi.sourceforge.net/DTD/sodipodi-0.dtd"
   xmlns="http://www.w3.org/2000/svg"
   xmlns:svg="http://www.w3.org/2000/svg"
   xmlns:rdf="http://www.w3.org/1999/02/22-rdf-syntax-ns#"
   xmlns:cc="http://creativecommons.org/ns#"
   xmlns:dc="http://purl.org/dc/elements/1.1/">
  <defs
     id="defs2">
    <style
       id="style1399">.cls-1{fill:#e3e3e3;}</style>
    <style
       id="style1399-59">.cls-1{fill:#e3e3e3;}</style>
    <style
       id="style1399-1">.cls-1{fill:#e3e3e3;}</style>
    <style
       id="style1399-5">.cls-1{fill:#e3e3e3;}</style>
    <style
       id="style1399-8">.cls-1{fill:#e3e3e3;}</style>
  </defs>
  <sodipodi:namedview
     id="base"
     pagecolor="#ffffff"
     bordercolor="#666666"
     borderopacity="1.0"
     inkscape:pageopacity="0.0"
     inkscape:pageshadow="2"
     inkscape:zoom="22.983556"
     inkscape:cx="3.8505791"
     inkscape:cy="17.294974"
     inkscape:document-units="mm"
     inkscape:current-layer="svg8"
     showgrid="false"
     units="px"
     inkscape:window-width="3440"
     inkscape:window-height="1369"
     inkscape:window-x="-8"
     inkscape:window-y="-8"
     inkscape:window-maximized="1"
     inkscape:pagecheckerboard="0"
     inkscape:snap-bbox="true"
     inkscape:bbox-paths="true"
     inkscape:bbox-nodes="true"
     inkscape:snap-bbox-edge-midpoints="true"
     inkscape:snap-bbox-midpoints="true"
     inkscape:snap-nodes="false"
     inkscape:snap-global="true"
     inkscape:snap-page="true" />
  <metadata
     id="metadata5">
    <rdf:RDF>
      <cc:Work
         rdf:about="">
        <dc:format>image/svg+xml</dc:format>
        <dc:type
           rdf:resource="http://purl.org/dc/dcmitype/StillImage" />
      </cc:Work>
    </rdf:RDF>
  </metadata>
  <path
     id="path1426"
     style="fill:#e3e3e3;fill-opacity:1;stroke-width:0.0146926"
     d="m 4.4700113,0.40232382 c -0.1636959,0 -0.2955891,0.13189789 -0.2955891,0.29558919 V 2.765487 H 3.0938679 c -0.2190811,0 -0.3287131,0.264533 -0.1736328,0.4196127 L 4.3961139,4.6599449 H 5.5288613 L 7.0026733,3.1850997 C 7.1577535,3.03002 7.0481221,2.765487 6.8290405,2.765487 H 5.7500366 V 0.69791301 c 0,-0.1636913 -0.1318932,-0.29558919 -0.2955893,-0.29558919 z M 0.70538329,2.3066003 C 0.31588299,2.3066003 0,2.6224834 0,3.0119837 V 7.0970056 L 1.0149251,5.3570601 C 1.2667117,4.9254215 1.7337463,4.6573612 2.2334554,4.6573612 h 1.409733 L 2.5460978,3.5602704 C 2.3179069,3.3320808 2.2689246,2.978004 2.3781494,2.7143274 2.449553,2.5419538 2.5956126,2.3908534 2.7786417,2.3066003 Z M 7.049182,3.8889327 6.2807534,4.6573612 H 7.0522827 V 3.9524946 c 0,-0.021352 -0.00124,-0.042693 -0.0031,-0.063562 z M 2.2334554,5.1276168 A 0.94032476,0.94032476 0 0 0 1.4211019,5.5942548 L 0.35708415,7.418433 C 0.21995794,7.6535137 0.38930794,7.9486331 0.66145832,7.9486331 H 6.5381023 A 0.94028074,0.94028074 0 0 0 7.3504556,7.4819949 L 8.4144733,5.657817 C 8.5516134,5.4227352 8.3817329,5.1276168 8.1095825,5.1276168 Z" />
</svg>
