<?xml version="1.0" encoding="UTF-8" standalone="no"?>
<!-- Created with Inkscape (http://www.inkscape.org/) -->

<svg
   width="32"
   height="32"
   viewBox="0 0 8.4666666 8.4666666"
   version="1.1"
   id="svg8"
   inkscape:version="1.2.2 (732a01da63, 2022-12-09, custom)"
   sodipodi:docname="hidden-file-hide_sd.svg"
   xmlns:inkscape="http://www.inkscape.org/namespaces/inkscape"
   xmlns:sodipodi="http://sodipodi.sourceforge.net/DTD/sodipodi-0.dtd"
   xmlns="http://www.w3.org/2000/svg"
   xmlns:svg="http://www.w3.org/2000/svg"
   xmlns:rdf="http://www.w3.org/1999/02/22-rdf-syntax-ns#"
   xmlns:cc="http://creativecommons.org/ns#"
   xmlns:dc="http://purl.org/dc/elements/1.1/">
  <defs
     id="defs2" />
  <sodipodi:namedview
     id="base"
     pagecolor="#ffffff"
     bordercolor="#666666"
     borderopacity="1.0"
     inkscape:pageopacity="0.0"
     inkscape:pageshadow="2"
     inkscape:zoom="22.627417"
     inkscape:cx="18.185903"
     inkscape:cy="17.346213"
     inkscape:document-units="mm"
     inkscape:current-layer="layer1"
     showgrid="false"
     units="px"
     inkscape:window-width="1890"
     inkscape:window-height="1205"
     inkscape:window-x="3189"
     inkscape:window-y="117"
     inkscape:window-maximized="0"
     inkscape:pagecheckerboard="1"
     inkscape:snap-bbox="true"
     inkscape:bbox-paths="true"
     inkscape:bbox-nodes="true"
     inkscape:snap-bbox-edge-midpoints="true"
     inkscape:snap-bbox-midpoints="true"
     inkscape:snap-nodes="false"
     inkscape:showpageshadow="2"
     inkscape:deskcolor="#d1d1d1" />
  <metadata
     id="metadata5">
    <rdf:RDF>
      <cc:Work
         rdf:about="">
        <dc:format>image/svg+xml</dc:format>
        <dc:type
           rdf:resource="http://purl.org/dc/dcmitype/StillImage" />
      </cc:Work>
    </rdf:RDF>
  </metadata>
  <g
     inkscape:label="Layer 1"
     inkscape:groupmode="layer"
     id="layer1"
     transform="translate(0,-288.53334)">
    <path
       id="path2799"
       style="display:inline;fill:#232323;fill-opacity:1;stroke-width:0.0165334"
       d="M 1.6443441 288.54471 L 1.5838826 288.54678 L 1.5192871 288.55711 L 1.4572754 288.57261 L 1.3962972 288.59587 L 1.3379028 288.62326 L 1.2831258 288.65633 L 1.2634888 288.67183 L 1.6076538 289.13124 L 1.6112712 289.1271 L 1.6190226 289.12504 L 1.6267741 289.1209 L 1.6345256 289.11883 L 1.6427938 289.11883 L 1.6582967 289.11677 L 1.9941935 289.11677 L 1.9941935 288.54471 L 1.6443441 288.54471 z M 2.5683187 288.54471 L 2.5683187 289.11728 L 3.1424438 289.11728 L 3.1424438 288.54471 L 2.5683187 288.54471 z M 3.7150187 288.54471 L 3.7150187 289.11728 L 4.2891439 289.11728 L 4.2891439 288.54471 L 3.7150187 288.54471 z M 4.863269 288.54471 L 4.863269 289.11728 L 4.9728231 289.11728 L 5.3045858 289.11728 L 5.3200887 289.11935 L 5.3283569 289.11935 L 5.3361084 289.12142 L 5.3376587 289.12297 L 5.5293783 288.58192 L 5.5019897 288.5721 L 5.4394613 288.55659 L 5.3769328 288.54678 L 5.3185384 288.54471 L 4.9728231 288.54471 L 4.863269 288.54471 z M 6.0642293 289.0253 L 5.6580526 289.42993 L 6.0642293 289.8361 L 6.4709229 289.43148 L 6.0642293 289.0253 z M 0.99632161 289.42579 L 0.99632161 289.99785 L 1.5704468 289.99785 L 1.5704468 289.42579 L 0.99632161 289.42579 z M 6.8750326 289.83765 L 6.4688558 290.24228 L 6.8750326 290.64846 L 7.2812093 290.24228 L 6.8750326 289.83765 z M 0.99632161 290.57249 L 0.99632161 291.14662 L 1.5704468 291.14662 L 1.5704468 290.57249 L 0.99632161 290.57249 z M 7.4455404 290.58593 L 6.880717 290.6836 L 6.8848511 290.70892 L 6.8926025 290.77713 L 6.8967367 290.87325 L 6.8982869 290.99986 L 6.8982869 291.20708 L 7.4724121 291.20708 L 7.4724121 290.99624 L 7.4708618 290.85568 L 7.4646606 290.73631 L 7.4532918 290.63089 L 7.4455404 290.58593 z M 0.99632161 291.71868 L 0.99632161 292.2928 L 1.5704468 292.2928 L 1.5704468 291.71868 L 0.99632161 291.71868 z M 6.8982869 291.7812 L 6.8982869 292.35533 L 7.4724121 292.35533 L 7.4724121 291.7812 L 6.8982869 291.7812 z M 4.1935425 292.23337 C 3.1739656 292.23337 2.2835298 292.82734 1.8339966 293.7046 A 0.26831066 0.26831066 0 0 0 1.8339966 293.94696 C 2.2837782 294.82455 3.1739656 295.41819 4.1935425 295.41819 C 5.2131209 295.41819 6.1040719 294.82372 6.5536051 293.94645 A 0.26831066 0.26831066 0 0 0 6.5536051 293.7046 C 6.1038234 292.82701 5.2131209 292.23337 4.1935425 292.23337 z M 4.2188639 292.63128 A 1.194335 1.194335 0 0 1 4.310848 292.63697 A 1.194335 1.194335 0 0 1 5.3877848 293.82552 A 1.1937544 1.1937544 0 0 1 4.1935425 295.01977 A 1.194335 1.194335 0 1 1 4.2188639 292.63128 z M 0.99632161 292.86744 L 0.99632161 293.44157 L 1.5704468 293.44157 L 1.5704468 292.86744 L 0.99632161 292.86744 z M 6.8982869 292.9279 L 6.8982869 293.50203 L 7.4724121 293.50203 L 7.4724121 292.9279 L 6.8982869 292.9279 z M 4.1935425 293.02971 A 0.79050046 0.79050046 0 0 0 3.9837362 293.06071 A 0.39686758 0.39686758 0 0 1 3.4287313 293.61572 A 0.79439867 0.79439867 0 1 0 4.1935425 293.02971 z M 0.99632161 294.01363 L 0.99632161 294.58775 L 1.5704468 294.58775 L 1.5704468 294.01363 L 0.99632161 294.01363 z M 6.8982869 294.07615 L 6.8982869 294.64821 L 7.4724121 294.64821 L 7.4724121 294.07615 L 6.8982869 294.07615 z M 0.99632161 295.16188 L 0.99632161 295.73652 L 1.5704468 295.73652 L 1.5704468 295.16188 L 0.99632161 295.16188 z M 6.8982869 295.22285 L 6.8982869 295.79698 L 7.4724121 295.79698 L 7.4724121 295.22285 L 6.8982869 295.22285 z M 1.5704468 296.30703 L 0.99632161 296.30858 L 0.99632161 296.33958 L 0.99787191 296.40056 L 1.0076904 296.46464 L 1.0252604 296.52717 L 1.0469645 296.58815 L 1.074353 296.64654 L 1.1074259 296.69925 L 1.144633 296.74989 L 1.1875244 296.79692 L 1.23455 296.83981 L 1.2831258 296.87702 L 1.3379028 296.91009 L 1.3962972 296.93748 L 1.4572754 296.96073 L 1.5192871 296.97675 L 1.5838826 296.98657 L 1.6076538 296.98657 L 1.6365926 296.41451 L 1.6345256 296.41451 L 1.6267741 296.41245 L 1.6190226 296.40831 L 1.6112712 296.40624 L 1.6055868 296.40004 L 1.5993856 296.39643 L 1.5937012 296.39022 L 1.5880168 296.38402 L 1.5838826 296.37834 L 1.5802653 296.37214 L 1.5761312 296.36439 L 1.5740641 296.35819 L 1.5725138 296.35043 L 1.5704468 296.3401 L 1.5704468 296.3246 L 1.5704468 296.30703 z M 6.8967367 296.3556 L 6.8946696 296.35974 L 6.8905355 296.36542 L 6.8884684 296.37369 L 6.8848511 296.37937 L 6.8786499 296.38557 L 6.8750326 296.39178 L 6.8693481 296.39746 L 6.863147 296.40159 L 6.8553955 296.40728 L 6.8497111 296.40935 L 6.8419596 296.41348 L 6.8342082 296.41555 L 6.8259399 296.41555 L 6.80837 296.41761 L 6.7851156 296.41761 L 6.7851156 296.98967 L 6.8243896 296.98967 L 6.882784 296.9876 L 6.9494466 296.97779 L 7.0119751 296.96228 L 7.0724365 296.93903 L 7.1287638 296.91164 L 7.1835409 296.87805 L 7.2341838 296.84136 L 7.2812093 296.79795 L 7.3220337 296.75144 L 7.3613078 296.70028 L 7.3928304 296.64757 L 7.4217692 296.58918 L 7.4434733 296.52872 L 7.4589762 296.46619 L 7.4687948 296.40159 L 7.4708618 296.38609 L 6.8967367 296.3556 z M 2.1952148 296.41606 L 2.1952148 296.98812 L 2.76934 296.98812 L 2.76934 296.41606 L 2.1952148 296.41606 z M 3.3419149 296.41606 L 3.3419149 296.98812 L 3.91604 296.98812 L 3.91604 296.41606 L 3.3419149 296.41606 z M 4.4901652 296.41606 L 4.4901652 296.98812 L 5.0642904 296.98812 L 5.0642904 296.41606 L 4.4901652 296.41606 z M 5.6368652 296.41606 L 5.6368652 296.98812 L 6.2109904 296.98812 L 6.2109904 296.41606 L 5.6368652 296.41606 z " />
  </g>
</svg>
