<?xml version="1.0" encoding="UTF-8" standalone="no"?>
<!-- Created with Inkscape (http://www.inkscape.org/) -->

<svg
   xmlns:dc="http://purl.org/dc/elements/1.1/"
   xmlns:cc="http://creativecommons.org/ns#"
   xmlns:rdf="http://www.w3.org/1999/02/22-rdf-syntax-ns#"
   xmlns:svg="http://www.w3.org/2000/svg"
   xmlns="http://www.w3.org/2000/svg"
   xmlns:sodipodi="http://sodipodi.sourceforge.net/DTD/sodipodi-0.dtd"
   xmlns:inkscape="http://www.inkscape.org/namespaces/inkscape"
   width="32"
   height="32"
   viewBox="0 0 8.4666666 8.4666666"
   version="1.1"
   id="svg8"
   inkscape:version="0.92.5 (2060ec1f9f, 2020-04-08)"
   sodipodi:docname="render-compute-build-file_sd.svg">
  <defs
     id="defs2">
    <style
       id="style1399">.cls-1{fill:#e3e3e3;}</style>
    <style
       id="style1399-1">.cls-1{fill:#e3e3e3;}</style>
  </defs>
  <sodipodi:namedview
     id="base"
     pagecolor="#ffffff"
     bordercolor="#666666"
     borderopacity="1.0"
     inkscape:pageopacity="0.0"
     inkscape:pageshadow="2"
     inkscape:zoom="7.9999995"
     inkscape:cx="-7.4761158"
     inkscape:cy="22.647049"
     inkscape:document-units="mm"
     inkscape:current-layer="svg8"
     showgrid="false"
     units="px"
     inkscape:window-width="1920"
     inkscape:window-height="1043"
     inkscape:window-x="0"
     inkscape:window-y="120"
     inkscape:window-maximized="1">
    <sodipodi:guide
       position="8.4666666,0"
       orientation="-32,0"
       id="guide854"
       inkscape:locked="false" />
    <sodipodi:guide
       position="8.4666666,8.4666666"
       orientation="0,-32"
       id="guide856"
       inkscape:locked="false" />
    <sodipodi:guide
       position="0,8.4666814"
       orientation="1,6.123234e-17"
       id="guide858"
       inkscape:locked="false" />
  </sodipodi:namedview>
  <metadata
     id="metadata5">
    <rdf:RDF>
      <cc:Work
         rdf:about="">
        <dc:format>image/svg+xml</dc:format>
        <dc:type
           rdf:resource="http://purl.org/dc/dcmitype/StillImage" />
        <dc:title></dc:title>
      </cc:Work>
    </rdf:RDF>
  </metadata>
  <path
     style="fill:#3e8b45;fill-opacity:1;stroke-width:0.06281408"
     d="M 9.3867188 0.009765625 C 8.5512924 0.009765625 7.8789062 0.68215147 7.8789062 1.5175781 L 7.8789062 4.6777344 C 8.4007218 4.307 9.0394351 4.0839844 9.6894531 4.0839844 C 10.5139 4.0839844 11.309793 4.4075103 11.902344 5.0019531 L 13.964844 7.0703125 C 15.158617 8.2631237 15.156777 10.283565 13.964844 11.478516 L 13.964844 11.484375 L 13.791016 11.658203 C 14.766567 11.571953 15.826326 11.88688 16.578125 12.638672 L 22.726562 18.787109 A 2.5696076 2.5696076 0 0 1 22.734375 18.794922 C 24.054218 20.129016 24.054224 22.324108 22.734375 23.658203 A 2.5696076 2.5696076 0 0 1 22.726562 23.666016 L 16.578125 29.816406 C 15.564987 30.829532 13.988077 31.045688 12.820312 30.560547 C 11.65255 30.075406 10.693359 28.798078 10.693359 27.371094 L 10.693359 26.427734 L 8.2871094 26.427734 C 8.1478966 26.427734 8.0144262 26.401854 7.8789062 26.384766 L 7.8789062 30.662109 C 7.8789062 31.497536 8.5512924 32.169922 9.3867188 32.169922 L 30.492188 32.169922 C 31.327611 32.169922 32 31.497536 32 30.662109 L 32 10.060547 L 23.457031 10.060547 C 22.627886 10.060547 21.949219 9.3818871 21.949219 8.5527344 L 21.949219 0.009765625 L 9.3867188 0.009765625 z M 23.958984 0.009765625 L 23.958984 8.0507812 L 32 8.0507812 L 32 7.6660156 C 32 7.2702991 31.843218 6.8881771 31.560547 6.6054688 L 25.410156 0.44921875 C 25.127493 0.16635891 24.74576 0.009765625 24.34375 0.009765625 L 23.958984 0.009765625 z M 9.6914062 6.4238281 C 9.4916091 6.4238281 9.2911441 6.4996282 9.1386719 6.6523438 L 0.27929688 15.511719 C -0.025646218 15.816662 -0.025646218 16.310535 0.27929688 16.615234 L 2.3496094 18.685547 C 2.5020827 18.838021 2.7027886 18.914063 2.9023438 18.914062 C 3.102142 18.914062 3.300653 18.838017 3.453125 18.685547 L 12.3125 9.8261719 C 12.617447 9.5217196 12.617447 9.0273565 12.3125 8.7226562 L 10.242188 6.6523438 C 10.089959 6.4996282 9.8912038 6.4238281 9.6914062 6.4238281 z M 4.2421875 6.4941406 L 3.5917969 7.7949219 L 2.2910156 8.4453125 L 3.5917969 9.0957031 L 4.2421875 10.396484 L 4.8925781 9.0957031 L 6.1933594 8.4453125 L 4.8925781 7.7949219 L 4.2421875 6.4941406 z M 9.6914062 8.0332031 L 10.933594 9.2753906 L 8.8203125 11.388672 L 7.578125 10.146484 L 9.6914062 8.0332031 z M 10.589844 13.451172 L 9.9394531 14.751953 L 8.6386719 15.402344 L 9.9394531 16.052734 L 10.589844 17.353516 L 11.240234 16.052734 L 12.541016 15.402344 L 11.240234 14.751953 L 10.589844 13.451172 z M 14.046875 14.203125 C 13.634079 14.250821 13.263672 14.586295 13.263672 15.078125 L 13.263672 18.589844 L 8.2851562 18.589844 C 7.7984072 18.589844 7.4082031 18.981998 7.4082031 19.46875 L 7.4082031 22.982422 C 7.4082031 23.469174 7.7984072 23.861328 8.2851562 23.861328 L 13.263672 23.861328 L 13.263672 27.375 C 13.263672 28.161839 14.214706 28.545053 14.763672 27.996094 L 20.912109 21.847656 C 21.252467 21.503625 21.252467 20.947549 20.912109 20.603516 L 14.763672 14.455078 C 14.55781 14.249218 14.294553 14.174508 14.046875 14.203125 z "
     transform="scale(0.26458333)"
     id="path1112" />
</svg>
