<?xml version="1.0" encoding="UTF-8" standalone="no"?>
<!-- Created with Inkscape (http://www.inkscape.org/) -->

<svg
   width="32"
   height="32"
   viewBox="0 0 8.4666666 8.4666666"
   version="1.1"
   id="svg8"
   inkscape:version="1.1.1 (3bf5ae0d25, 2021-09-20)"
   sodipodi:docname="restore-versions-folder_sd.svg"
   xmlns:inkscape="http://www.inkscape.org/namespaces/inkscape"
   xmlns:sodipodi="http://sodipodi.sourceforge.net/DTD/sodipodi-0.dtd"
   xmlns="http://www.w3.org/2000/svg"
   xmlns:svg="http://www.w3.org/2000/svg"
   xmlns:rdf="http://www.w3.org/1999/02/22-rdf-syntax-ns#"
   xmlns:cc="http://creativecommons.org/ns#"
   xmlns:dc="http://purl.org/dc/elements/1.1/">
  <defs
     id="defs2">
    <style
       id="style1399">.cls-1{fill:#e3e3e3;}</style>
    <style
       id="style1399-1">.cls-1{fill:#e3e3e3;}</style>
    <style
       id="style1399-5">.cls-1{fill:#e3e3e3;}</style>
    <style
       id="style1399-8">.cls-1{fill:#e3e3e3;}</style>
  </defs>
  <sodipodi:namedview
     id="base"
     pagecolor="#ffffff"
     bordercolor="#666666"
     borderopacity="1.0"
     inkscape:pageopacity="0.0"
     inkscape:pageshadow="2"
     inkscape:zoom="11.313708"
     inkscape:cx="-4.3752234"
     inkscape:cy="20.461903"
     inkscape:document-units="mm"
     inkscape:current-layer="svg8"
     showgrid="false"
     units="px"
     inkscape:window-width="3440"
     inkscape:window-height="1369"
     inkscape:window-x="-8"
     inkscape:window-y="-8"
     inkscape:window-maximized="1"
     inkscape:pagecheckerboard="0"
     inkscape:snap-bbox="true"
     inkscape:bbox-paths="true"
     inkscape:bbox-nodes="true"
     inkscape:snap-bbox-edge-midpoints="true"
     inkscape:snap-bbox-midpoints="true"
     inkscape:snap-nodes="false"
     inkscape:snap-page="true"
     inkscape:snap-global="true">
    <sodipodi:guide
       position="8.4666666,0"
       orientation="-32,0"
       id="guide854"
       inkscape:locked="false" />
    <sodipodi:guide
       position="8.4666666,8.4666666"
       orientation="0,-32"
       id="guide856"
       inkscape:locked="false" />
    <sodipodi:guide
       position="0,8.4666814"
       orientation="1,6.123234e-17"
       id="guide858"
       inkscape:locked="false" />
  </sodipodi:namedview>
  <metadata
     id="metadata5">
    <rdf:RDF>
      <cc:Work
         rdf:about="">
        <dc:format>image/svg+xml</dc:format>
        <dc:type
           rdf:resource="http://purl.org/dc/dcmitype/StillImage" />
      </cc:Work>
    </rdf:RDF>
  </metadata>
  <path
     id="path1524"
     style="fill:#232323;fill-opacity:1;stroke-width:0.0520789"
     d="M 15.982422 -0.013671875 C 12.790962 -0.0078667853 9.8932337 1.250467 7.7539062 3.2949219 L 6.0332031 1.5742188 C 5.3050363 0.84605213 4.0605469 1.3628481 4.0605469 2.3925781 L 4.0605469 8.8476562 C 4.0605469 9.4860064 4.5764936 10.003906 5.2148438 10.003906 L 11.671875 10.003906 C 12.701614 10.003906 13.216399 8.7594168 12.488281 8.03125 L 10.478516 6.0214844 C 11.964901 4.6297319 13.888295 3.8574695 15.931641 3.8398438 C 20.381452 3.8014324 24.132228 7.4024826 24.09375 12 C 24.06506 15.427195 21.875079 18.421582 18.746094 19.546875 L 25.203125 19.546875 C 26.916526 17.479552 27.947245 14.826469 27.947266 11.931641 C 27.947325 5.3430341 22.571033 -0.02547088 15.982422 -0.013671875 z M 2.5 11.929688 C 1.1193902 11.929688 -8.8817842e-16 13.049078 0 14.429688 L 0 26.943359 L 2.6894531 22.482422 C 3.3982849 21.267269 4.5686796 20.403308 5.9023438 20.060547 C 5.9643291 19.516237 6.1974489 18.990051 6.6074219 18.580078 L 8.5117188 16.675781 C 9.430902 15.756731 10.95651 15.691832 11.951172 16.564453 C 13.077733 17.55292 14.483566 18.085938 16.003906 18.085938 C 18.225374 18.085938 20.110627 16.951045 21.189453 15.263672 L 14.166016 15.263672 L 10.837891 11.935547 L 5.21875 11.935547 C 5.1577384 11.935547 5.0973767 11.933327 5.0371094 11.929688 L 2.5 11.929688 z M 10.275391 17.876953 C 10.133736 17.881807 9.9941615 17.939448 9.8867188 18.046875 L 8.3867188 19.546875 L 13.267578 19.546875 C 12.323208 19.208339 11.4452 18.694634 10.675781 18.019531 C 10.561573 17.919336 10.417045 17.8721 10.275391 17.876953 z M 7.9160156 21.929688 C 6.7305619 21.929682 5.6344297 22.560017 5.0371094 23.583984 L 1.265625 30.048828 C 0.77957216 30.882088 1.3810478 31.929688 2.3457031 31.929688 L 23.173828 31.929688 C 24.359272 31.929707 25.455446 31.299366 26.052734 30.275391 L 29.826172 23.808594 C 30.312275 22.975331 29.71075 21.929688 28.746094 21.929688 L 7.9160156 21.929688 z "
     transform="scale(0.26458333)" />
</svg>
