<?xml version="1.0" encoding="UTF-8" standalone="no"?>
<svg
   xmlns:dc="http://purl.org/dc/elements/1.1/"
   xmlns:cc="http://creativecommons.org/ns#"
   xmlns:rdf="http://www.w3.org/1999/02/22-rdf-syntax-ns#"
   xmlns:svg="http://www.w3.org/2000/svg"
   xmlns="http://www.w3.org/2000/svg"
   xmlns:sodipodi="http://sodipodi.sourceforge.net/DTD/sodipodi-0.dtd"
   xmlns:inkscape="http://www.inkscape.org/namespaces/inkscape"
   width="32"
   height="32"
   viewBox="0 0 8.4666666 8.4666666"
   version="1.1"
   id="svg8"
   inkscape:version="1.0.2-2 (e86c870879, 2021-01-15)"
   sodipodi:docname="savefile_bl.svg"
   inkscape:export-filename="D:\DEV_SRC\RxOT\Ramses\Ramses-Maya\icons\savefile_bl.png"
   inkscape:export-xdpi="384"
   inkscape:export-ydpi="384">
  <defs
     id="defs2" />
  <sodipodi:namedview
     id="base"
     pagecolor="#ffffff"
     bordercolor="#666666"
     borderopacity="1.0"
     inkscape:pageopacity="0.0"
     inkscape:pageshadow="2"
     inkscape:zoom="22.627416"
     inkscape:cx="22.653091"
     inkscape:cy="14.396234"
     inkscape:document-units="mm"
     inkscape:current-layer="svg8"
     showgrid="false"
     units="px"
     inkscape:window-width="1858"
     inkscape:window-height="1057"
     inkscape:window-x="-5"
     inkscape:window-y="0"
     inkscape:window-maximized="1"
     inkscape:document-rotation="0"
     showguides="false">
    <sodipodi:guide
       position="8.4666666,0"
       orientation="-32,0"
       id="guide854"
       inkscape:locked="false" />
    <sodipodi:guide
       position="8.4666666,8.4666666"
       orientation="0,-32"
       id="guide856"
       inkscape:locked="false" />
    <sodipodi:guide
       position="0,8.4666814"
       orientation="32,0"
       id="guide858"
       inkscape:locked="false" />
  </sodipodi:namedview>
  <metadata
     id="metadata5">
    <rdf:RDF>
      <cc:Work
         rdf:about="">
        <dc:format>image/svg+xml</dc:format>
        <dc:type
           rdf:resource="http://purl.org/dc/dcmitype/StillImage" />
        <dc:title />
      </cc:Work>
    </rdf:RDF>
  </metadata>
  <path
     style="fill:#e3e3e3;fill-opacity:1;stroke-width:0.0164996"
     d="m 2.4963684,0.00742675 c -0.2194459,0 -0.396065,0.17661911 -0.3960651,0.39606513 V 2.5890325 c 0.043124,-0.00206 0.08568,-0.00667 0.1292855,-0.00667 1.5004268,-1.24e-5 2.728353,1.2300773 2.7283343,2.7298736 1.87e-5,1.4997964 -1.2279075,2.7303992 -2.7283343,2.7303865 -0.043601,6e-7 -0.086166,-0.00462 -0.1292855,-0.00667 v 0.023088 c 0,0.219446 0.1766192,0.3960652 0.3960651,0.3960652 h 5.5438854 c 0.2194453,0 0.396065,-0.1766192 0.396065,-0.3960652 V 2.6470056 H 6.1922919 c -0.2177959,0 -0.396065,-0.1777541 -0.396065,-0.395552 V 0.00742675 Z m 3.8277741,0 V 2.1190899 H 8.4363188 V 2.0185336 c 0,-0.1039453 -0.041183,-0.2043188 -0.1154337,-0.2785796 L 6.7053296,0.12286022 C 6.631081,0.04855993 6.5308092,0.00742675 6.425211,0.00742675 Z"
     id="path821" />
  <path
     style="fill:#d588f1;fill-opacity:1;stroke-width:0.0164996"
     d="M 2.2285628,3.1646608 C 1.0421997,3.1646508 0.08045919,4.1263871 0.08047389,5.3127495 0.08045919,6.499112 1.0421999,7.4608482 2.2285628,7.4608383 3.4149253,7.4608482 4.3766663,6.499112 4.3766516,5.3127495 4.3766663,4.1263871 3.4149253,3.1646508 2.2285628,3.1646608 Z M 2.014113,4.2251097 c 0.321594,0.00808 0.6405954,0.1347474 0.8860161,0.380161 0.2460666,0.2460626 0.3728491,0.5656402 0.380161,0.8880681 h 0.2642142 c 0.069792,0 0.1180716,0.053512 0.1251813,0.1123554 0.00398,0.035344 -0.00687,0.072481 -0.036426,0.102095 L 3.1371528,6.204409 c -0.049067,0.049045 -0.1289472,0.049144 -0.1780242,0 L 2.462508,5.7077885 C 2.3833301,5.6286633 2.4398257,5.4933388 2.5517765,5.4933388 H 2.8606253 C 2.8532685,5.2691673 2.7626062,5.0595006 2.6030803,4.9002671 2.3160347,4.6136495 1.8714952,4.5624324 1.5303184,4.7668774 c -0.024862,0.014794 -0.055979,0.011734 -0.076443,-0.00872 L 1.2414781,4.5457581 c -0.027756,-0.027798 -0.023698,-0.0738 0.00872,-0.095938 0.1896036,-0.1295094 0.4059247,-0.2033486 0.625906,-0.2211193 0.045829,-0.00369 0.092065,-0.00474 0.1380071,-0.0036 z"
     id="path817" />
</svg>
