<?xml version="1.0" encoding="UTF-8" standalone="no"?>
<!-- Created with Inkscape (http://www.inkscape.org/) -->

<svg
   xmlns:dc="http://purl.org/dc/elements/1.1/"
   xmlns:cc="http://creativecommons.org/ns#"
   xmlns:rdf="http://www.w3.org/1999/02/22-rdf-syntax-ns#"
   xmlns:svg="http://www.w3.org/2000/svg"
   xmlns="http://www.w3.org/2000/svg"
   xmlns:sodipodi="http://sodipodi.sourceforge.net/DTD/sodipodi-0.dtd"
   xmlns:inkscape="http://www.inkscape.org/namespaces/inkscape"
   width="32"
   height="32"
   viewBox="0 0 8.4666666 8.4666666"
   version="1.1"
   id="svg8"
   inkscape:version="0.92.5 (2060ec1f9f, 2020-04-08)"
   sodipodi:docname="create-colors_sd.svg">
  <defs
     id="defs2">
    <style
       id="style1399">.cls-1{fill:#e3e3e3;}</style>
    <style
       id="style1399-4">.cls-1{fill:#e3e3e3;}</style>
    <style
       id="style1399-8">.cls-1{fill:#e3e3e3;}</style>
    <style
       id="style1399-4-5">.cls-1{fill:#e3e3e3;}</style>
    <style
       id="style1399-9">.cls-1{fill:#e3e3e3;}</style>
    <style
       id="style1399-4-6">.cls-1{fill:#e3e3e3;}</style>
    <style
       id="style1399-8-4">.cls-1{fill:#e3e3e3;}</style>
    <style
       id="style1399-4-5-3">.cls-1{fill:#e3e3e3;}</style>
    <style
       id="style1399-88">.cls-1{fill:#e3e3e3;}</style>
    <style
       id="style1399-3">.cls-1{fill:#e3e3e3;}</style>
    <style
       id="style1399-94">.cls-1{fill:#e3e3e3;}</style>
    <style
       id="style1399-5">.cls-1{fill:#e3e3e3;}</style>
  </defs>
  <sodipodi:namedview
     id="base"
     pagecolor="#ffffff"
     bordercolor="#666666"
     borderopacity="1.0"
     inkscape:pageopacity="0.0"
     inkscape:pageshadow="2"
     inkscape:zoom="15.999999"
     inkscape:cx="1.0045393"
     inkscape:cy="16.071072"
     inkscape:document-units="mm"
     inkscape:current-layer="layer1"
     showgrid="false"
     units="px"
     inkscape:window-width="1858"
     inkscape:window-height="1136"
     inkscape:window-x="0"
     inkscape:window-y="27"
     inkscape:window-maximized="1"
     inkscape:snap-bbox="true"
     inkscape:bbox-paths="true"
     inkscape:bbox-nodes="true"
     inkscape:snap-bbox-edge-midpoints="true"
     inkscape:snap-bbox-midpoints="true"
     inkscape:snap-nodes="false">
    <sodipodi:guide
       position="8.4666666,0"
       orientation="-32,0"
       id="guide854"
       inkscape:locked="false" />
    <sodipodi:guide
       position="8.4666666,8.4666666"
       orientation="0,-32"
       id="guide856"
       inkscape:locked="false" />
    <sodipodi:guide
       position="0,8.4666814"
       orientation="32,0"
       id="guide858"
       inkscape:locked="false" />
  </sodipodi:namedview>
  <metadata
     id="metadata5">
    <rdf:RDF>
      <cc:Work
         rdf:about="">
        <dc:format>image/svg+xml</dc:format>
        <dc:type
           rdf:resource="http://purl.org/dc/dcmitype/StillImage" />
        <dc:title></dc:title>
      </cc:Work>
    </rdf:RDF>
  </metadata>
  <g
     inkscape:label="Layer 1"
     inkscape:groupmode="layer"
     id="layer1"
     transform="translate(0,-288.53334)">
    <path
       style="fill:#3e8b45;stroke-width:0.03411733"
       d="m 2.5796874,288.53348 c 1.1038201,10e-4 2.0842732,0.70543 2.4388611,1.75074 v 10e-4 c 0.2783822,-0.1015 0.5721563,-0.15412 0.8684308,-0.15578 1.424811,-2e-4 2.5799019,1.15489 2.5796873,2.5797 -3.748e-4,1.42439 -1.1552931,2.57884 -2.5796873,2.57861 -0.04985,-0.001 -0.099657,-0.004 -0.1493618,-0.008 -0.3639663,1.02977 -1.3370631,1.71866 -2.4292588,1.71976 -1.4248111,2.1e-4 -2.57990249,-1.15486 -2.57968792,-2.57968 9.8324e-4,-0.43238 0.11070091,-0.85759 0.31899402,-1.2365 C 0.39009484,292.69827 0.00143009,291.93004 2.9916807e-8,291.11278 -2.1463955e-4,289.68796 1.1548763,288.53288 2.5796874,288.53309 Z m -1.5320226,4.65049 c 0.4431989,0.3288 0.9801718,0.5068 1.5320226,0.50783 0.2965087,-8.8e-4 0.59065,-0.0529 0.8694977,-0.15363 -0.092084,-0.26709 -0.1396591,-0.54751 -0.1408264,-0.83002 0.00104,-0.29275 0.051909,-0.58317 0.1504281,-0.85883 -0.050051,-0.004 -0.1002139,-0.007 -0.1504281,-0.008 -0.9423525,10e-4 -1.8090781,0.5161 -2.2606939,1.34319 z m 2.411122,-1.33465 c 0.5000063,0.03 0.9804482,0.20501 1.3826613,0.50355 0.2080702,-0.38006 0.3170433,-0.8064 0.3168597,-1.23969 -0.00104,-0.28175 -0.048271,-0.56142 -0.1397593,-0.82789 -0.7281437,0.26108 -1.3006718,0.83517 -1.5597617,1.56403 z m 1.3826613,0.50355 c -0.3037752,0.55186 -0.7990054,0.97347 -1.392263,1.1853 0.3381838,0.9916 1.2425839,1.68012 2.2884324,1.74219 v -10e-4 c 0.098154,-0.27574 0.1486615,-0.56615 0.1493618,-0.85883 -0.00197,-0.81574 -0.3896704,-1.5825 -1.0455312,-2.06759 z"
       id="path819"
       inkscape:connector-curvature="0"
       sodipodi:nodetypes="cccccccccccccccccccccccccccccccc" />
  </g>
</svg>
