<?xml version="1.0" encoding="UTF-8" standalone="no"?>
<!-- Created with Inkscape (http://www.inkscape.org/) -->

<svg
   xmlns:dc="http://purl.org/dc/elements/1.1/"
   xmlns:cc="http://creativecommons.org/ns#"
   xmlns:rdf="http://www.w3.org/1999/02/22-rdf-syntax-ns#"
   xmlns:svg="http://www.w3.org/2000/svg"
   xmlns="http://www.w3.org/2000/svg"
   xmlns:sodipodi="http://sodipodi.sourceforge.net/DTD/sodipodi-0.dtd"
   xmlns:inkscape="http://www.inkscape.org/namespaces/inkscape"
   width="251.71733"
   height="188.78801"
   viewBox="0 0 66.600207 49.950162"
   version="1.1"
   id="svg8"
   inkscape:version="0.92.4 (5da689c313, 2019-01-14)"
   sodipodi:docname="dublast-icon.svg">
  <defs
     id="defs2" />
  <sodipodi:namedview
     id="base"
     pagecolor="#ffffff"
     bordercolor="#666666"
     borderopacity="1.0"
     inkscape:pageopacity="0.0"
     inkscape:pageshadow="2"
     inkscape:zoom="0.98994949"
     inkscape:cx="322.88199"
     inkscape:cy="42.135428"
     inkscape:document-units="px"
     inkscape:current-layer="layer1"
     showgrid="false"
     units="px"
     inkscape:window-width="1846"
     inkscape:window-height="1057"
     inkscape:window-x="1986"
     inkscape:window-y="-8"
     inkscape:window-maximized="1"
     fit-margin-top="0"
     fit-margin-left="0"
     fit-margin-right="0"
     fit-margin-bottom="0" />
  <metadata
     id="metadata5">
    <rdf:RDF>
      <cc:Work
         rdf:about="">
        <dc:format>image/svg+xml</dc:format>
        <dc:type
           rdf:resource="http://purl.org/dc/dcmitype/StillImage" />
        <dc:title></dc:title>
      </cc:Work>
    </rdf:RDF>
  </metadata>
  <g
     inkscape:label="Calque 1"
     inkscape:groupmode="layer"
     id="layer1"
     transform="translate(-34.00727,-204.17186)">
    <path
       id="path826"
       d="m 97.485598,204.17186 h -1.04063 v 2.60157 c 0,0.85852 -0.702425,1.56094 -1.560943,1.56094 h -5.20314 c -0.858518,0 -1.560942,-0.70242 -1.560942,-1.56094 v -2.60157 H 46.494807 v 2.60157 c 0,0.85852 -0.702421,1.56094 -1.56094,1.56094 h -5.203141 c -0.858519,0 -1.560943,-0.70242 -1.560943,-1.56094 v -2.60157 h -1.040628 c -1.730045,0 -3.121885,1.39184 -3.121885,3.12188 v 43.70639 c 0,1.73005 1.39184,3.12189 3.121885,3.12189 h 1.040628 v -2.60157 c 0,-0.85852 0.702424,-1.56095 1.560943,-1.56095 h 5.203141 c 0.858519,0 1.56094,0.70243 1.56094,1.56095 v 2.60157 h 41.625136 v -2.60157 c 0,-0.85852 0.702424,-1.56095 1.560942,-1.56095 h 5.20314 c 0.858518,0 1.560943,0.70243 1.560943,1.56095 v 2.60157 h 1.04063 c 1.73004,0 3.121882,-1.39184 3.121882,-3.12189 v -43.70639 c 0,-1.73004 -1.391842,-3.12188 -3.121882,-3.12188 z m -50.990791,40.06419 c 0,0.85852 -0.702421,1.56094 -1.56094,1.56094 h -5.203141 c -0.858519,0 -1.560943,-0.70242 -1.560943,-1.56094 v -5.20314 c 0,-0.85852 0.702424,-1.56094 1.560943,-1.56094 h 5.203141 c 0.858519,0 1.56094,0.70242 1.56094,1.56094 z m 0,-12.48754 c 0,0.85852 -0.702421,1.56094 -1.56094,1.56094 h -5.203141 c -0.858519,0 -1.560943,-0.70242 -1.560943,-1.56094 v -5.20314 c 0,-0.85852 0.702424,-1.56094 1.560943,-1.56094 h 5.203141 c 0.858519,0 1.56094,0.70242 1.56094,1.56094 z m 0,-12.48754 c 0,0.85851 -0.702421,1.56094 -1.56094,1.56094 h -5.203141 c -0.858519,0 -1.560943,-0.70243 -1.560943,-1.56094 v -5.20314 c 0,-0.85852 0.702424,-1.56095 1.560943,-1.56095 h 5.203141 c 0.858519,0 1.56094,0.70243 1.56094,1.56095 z m 49.950161,24.97508 c 0,0.85852 -0.702425,1.56094 -1.560943,1.56094 h -5.20314 c -0.858518,0 -1.560942,-0.70242 -1.560942,-1.56094 v -5.20314 c 0,-0.85852 0.702424,-1.56094 1.560942,-1.56094 h 5.20314 c 0.858518,0 1.560943,0.70242 1.560943,1.56094 z m 0,-12.48754 c 0,0.85852 -0.702425,1.56094 -1.560943,1.56094 h -5.20314 c -0.858518,0 -1.560942,-0.70242 -1.560942,-1.56094 v -5.20314 c 0,-0.85852 0.702424,-1.56094 1.560942,-1.56094 h 5.20314 c 0.858518,0 1.560943,0.70242 1.560943,1.56094 z m 0,-12.48754 c 0,0.85851 -0.702425,1.56094 -1.560943,1.56094 h -5.20314 c -0.858518,0 -1.560942,-0.70243 -1.560942,-1.56094 v -5.20314 c 0,-0.85852 0.702424,-1.56095 1.560942,-1.56095 h 5.20314 c 0.858518,0 1.560943,0.70243 1.560943,1.56095 z"
       inkscape:connector-curvature="0"
       style="display:inline;fill:#710132;stroke-width:0.13007854"
       sodipodi:nodetypes="scssssccsssscsssscssssccsssscssssssssssssssssssssssssssssssssssssssssssssssssssssssssss" />
    <path
       id="path837"
       d="M 78.82505,226.92688 59.922813,215.752 c -1.535806,-0.90752 -3.887846,-0.0269 -3.887846,2.21779 v 22.34438 c 0,2.01373 2.185571,3.22734 3.887846,2.21779 l 18.902237,-11.1695 c 1.686164,-0.99344 1.691535,-3.44214 0,-4.43558 z"
       inkscape:connector-curvature="0"
       style="fill:#ec1818;stroke-width:0.05369953" />
  </g>
</svg>
