<svg id="Calque_1" data-name="Calque 1" xmlns="http://www.w3.org/2000/svg" viewBox="0 0 32 32"><title>icones</title><path d="M28.84,24.62A1.37,1.37,0,0,1,27.47,26H6.38A1.38,1.38,0,0,1,5,24.62V20a1.38,1.38,0,0,1,1.38-1.38H13L15,20.61a2.75,2.75,0,0,0,3.9,0l1.95-1.95h6.65A1.37,1.37,0,0,1,28.84,20ZM24,12.89l-6.41,6.42a.88.88,0,0,1-.65.27.85.85,0,0,1-.64-.27L9.86,12.89a.87.87,0,0,1-.2-1,.92.92,0,0,1,.84-.56h3.67V4.91A.92.92,0,0,1,15.09,4h3.66a.92.92,0,0,1,.92.92v6.42h3.67a1,1,0,0,1,.85.56A.89.89,0,0,1,24,12.89Zm-1.56,9.44a.92.92,0,1,0,.92.92A.92.92,0,0,0,22.42,22.33Zm3.67,0a.92.92,0,1,0,.92.92A.93.93,0,0,0,26.09,22.33Z" style="fill:#710132"/></svg>