<svg id="Calque_1" data-name="Calque 1" xmlns="http://www.w3.org/2000/svg" viewBox="0 0 32 32"><title>icones</title><path d="M15,14.29H7.94a4.39,4.39,0,0,0-3.07,1.42L2,19.07l0,.05c0-.07,0-.14,0-.21V10.75a1.91,1.91,0,0,1,1.91-1.9H6.58a1.91,1.91,0,0,1,1.9,1.9V11H13.1A1.92,1.92,0,0,1,15,12.93Zm2.65,2.12L14.8,19.78a3.35,3.35,0,0,1-2.24,1H3.31c-.3,0-.74-.09-.74-.47a.88.88,0,0,1,.27-.56l2.85-3.37a3.36,3.36,0,0,1,2.25-1h9.24c.31,0,.74.1.74.48A.94.94,0,0,1,17.66,16.41Z" style="fill:#710132"/><path d="M19,6A10.62,10.62,0,0,1,23,6.62c4,1.63,4.72,6.41,4.72,10.26V19.5h3a.75.75,0,0,1,.53,1.28l-6,6a.75.75,0,0,1-1.06,0l-6-6a.75.75,0,0,1,.53-1.28h3V16.88c0-5.06-1-8.37-6.56-8.37q-.72,0-1.44.06c-.19,0-.4.06-.59.06a.39.39,0,0,1-.41-.38.37.37,0,0,1,.2-.33,7.29,7.29,0,0,1,.89-.43A14.82,14.82,0,0,1,19,6Z" style="fill:#710132"/></svg>