<svg xmlns="http://www.w3.org/2000/svg" viewBox="0 0 32 32"><title>icones</title><g style="isolation:isolate"><g id="Calque_1" data-name="Calque 1"><g style="opacity:0.5;mix-blend-mode:multiply"><path d="M10.32,20.65,9.39,24H6.33l4-13h3.87l4,13.05H15.06l-1-3.35Zm3.31-2.21-.81-2.77c-.24-.77-.47-1.74-.66-2.51h0c-.2.77-.39,1.76-.6,2.51l-.78,2.77Z" style="fill:#999"/><path d="M20.83,20.21c.1,1.21,1.3,1.8,2.68,1.8a8.37,8.37,0,0,0,2.61-.39l.39,2a9.3,9.3,0,0,1-3.43.58c-3.21,0-5-1.86-5-4.82,0-2.4,1.49-5.05,4.78-5.05C25.87,14.32,27,16.7,27,19a6.9,6.9,0,0,1-.1,1.17Zm3.47-2a1.71,1.71,0,0,0-1.66-1.92,1.93,1.93,0,0,0-1.82,1.92Z" style="fill:#999"/></g><path d="M9.32,18.65,8.39,22H5.33l4-13h3.87l4,13.05H14.06l-1-3.35Zm3.31-2.21-.81-2.77c-.24-.77-.47-1.74-.66-2.51h0c-.2.77-.39,1.76-.6,2.51l-.78,2.77Z" style="fill:#f44"/><path d="M19.83,18.21c.1,1.21,1.3,1.8,2.68,1.8a8.37,8.37,0,0,0,2.61-.39l.39,2a9.3,9.3,0,0,1-3.43.58c-3.21,0-5-1.86-5-4.82,0-2.4,1.49-5.05,4.78-5.05C24.87,12.32,26,14.7,26,17a6.9,6.9,0,0,1-.1,1.17Zm3.47-2a1.71,1.71,0,0,0-1.66-1.92,1.93,1.93,0,0,0-1.82,1.92Z" style="fill:#f44"/><rect x="3" y="3" width="26" height="26" style="fill:none;stroke:#891f1f;stroke-miterlimit:10;stroke-width:2px"/></g></g></svg>