<svg id="Calque_1" data-name="Calque 1" xmlns="http://www.w3.org/2000/svg" viewBox="0 0 32 32"><title>icones</title><path d="M20.76,18.08a.45.45,0,0,1-.33.43l-2.24.35a6.53,6.53,0,0,1-.46,1.1c.4.58.84,1.12,1.3,1.66a.51.51,0,0,1,.1.29.38.38,0,0,1-.1.27c-.29.39-1.91,2.15-2.33,2.15a.56.56,0,0,1-.31-.1l-1.66-1.3a6.22,6.22,0,0,1-1.12.45,14.39,14.39,0,0,1-.33,2.24.46.46,0,0,1-.43.35H10.16a.45.45,0,0,1-.43-.36L9.39,23.4a7,7,0,0,1-1.09-.45L6.6,24.24a.42.42,0,0,1-.29.1.48.48,0,0,1-.3-.12c-.38-.35-2.08-1.9-2.08-2.31a.48.48,0,0,1,.1-.28c.42-.55.85-1.08,1.27-1.65a7.73,7.73,0,0,1-.51-1.18l-2.2-.35A.42.42,0,0,1,2.25,18V15.36a.45.45,0,0,1,.33-.43l2.24-.35a6.53,6.53,0,0,1,.46-1.1c-.4-.58-.84-1.12-1.3-1.66a.54.54,0,0,1-.1-.29.44.44,0,0,1,.1-.29c.29-.39,1.91-2.14,2.33-2.14a.56.56,0,0,1,.31.1l1.66,1.3A7.61,7.61,0,0,1,9.39,10a14.47,14.47,0,0,1,.33-2.23.46.46,0,0,1,.43-.35h2.69a.45.45,0,0,1,.43.36L13.61,10a7,7,0,0,1,1.09.45L16.41,9.2a.45.45,0,0,1,.29-.1.48.48,0,0,1,.3.12c.38.35,2.08,1.91,2.08,2.31a.48.48,0,0,1-.1.28c-.42.56-.85,1.08-1.26,1.65a9.43,9.43,0,0,1,.49,1.18l2.2.33a.45.45,0,0,1,.35.43ZM11.5,13a3.7,3.7,0,1,0,3.7,3.7A3.71,3.71,0,0,0,11.5,13ZM30,10.33c0,.22-1.87.42-2.15.45a3.52,3.52,0,0,1-.43.75,13.54,13.54,0,0,1,.74,2,.11.11,0,0,1-.06.1c-.17.1-1.72,1-1.79,1A9.13,9.13,0,0,1,24.89,13l-.43,0L24,13a9.13,9.13,0,0,1-1.42,1.66c-.07,0-1.62-.93-1.79-1a.13.13,0,0,1-.06-.1,14.09,14.09,0,0,1,.74-2,3.52,3.52,0,0,1-.43-.75c-.29,0-2.15-.23-2.15-.45v-2c0-.22,1.87-.42,2.15-.45a3.92,3.92,0,0,1,.43-.75,14.09,14.09,0,0,1-.74-2,.13.13,0,0,1,.06-.1c.17-.09,1.72-1,1.79-1A9,9,0,0,1,24,5.64l.43,0,.43,0A13.08,13.08,0,0,1,26.22,4l.09,0c.07,0,1.62.91,1.79,1a.13.13,0,0,1,.06.1,13.54,13.54,0,0,1-.74,2,3.92,3.92,0,0,1,.43.75c.29,0,2.15.23,2.15.45Zm0,14.81c0,.22-1.87.42-2.15.45a3.52,3.52,0,0,1-.43.75,13.54,13.54,0,0,1,.74,2,.11.11,0,0,1-.06.1c-.17.1-1.72,1-1.79,1a9.13,9.13,0,0,1-1.42-1.66l-.43,0-.43,0a9.13,9.13,0,0,1-1.42,1.66c-.07,0-1.62-.93-1.79-1a.13.13,0,0,1-.06-.1,14.09,14.09,0,0,1,.74-2,3.52,3.52,0,0,1-.43-.75c-.29,0-2.15-.23-2.15-.45v-2c0-.22,1.87-.42,2.15-.45a3.92,3.92,0,0,1,.43-.75,14.09,14.09,0,0,1-.74-2,.13.13,0,0,1,.06-.1c.17-.09,1.72-1,1.79-1A9,9,0,0,1,24,20.45l.43,0,.43,0a13.08,13.08,0,0,1,1.33-1.62l.09,0c.07,0,1.62.91,1.79,1a.13.13,0,0,1,.06.1,13.54,13.54,0,0,1-.74,2,3.92,3.92,0,0,1,.43.75c.29,0,2.15.23,2.15.45ZM24.46,7.46a1.85,1.85,0,1,0,1.85,1.85A1.86,1.86,0,0,0,24.46,7.46Zm0,14.81a1.85,1.85,0,1,0,1.85,1.85A1.86,1.86,0,0,0,24.46,22.27Z" style="fill:#e3e3e3"/></svg>