<svg id="Calque_1" data-name="Calque 1" xmlns="http://www.w3.org/2000/svg" viewBox="0 0 32 32"><title>icones</title><path d="M29.56,26.57,27,29.1a5,5,0,0,1-7.06,0l-3.57-3.59A5,5,0,0,1,14.94,22a5.07,5.07,0,0,1,1.53-3.62l-1.53-1.53a5,5,0,0,1-7.14.07l-3.6-3.6a5,5,0,0,1,0-7.06L6.76,3.69a5,5,0,0,1,7.06,0l3.57,3.59a5,5,0,0,1,1.44,3.52,5.07,5.07,0,0,1-1.53,3.62L18.83,16A5,5,0,0,1,26,15.91l3.6,3.61A4.91,4.91,0,0,1,31,23.05,5,5,0,0,1,29.56,26.57ZM15,9.65,11.46,6.06a1.69,1.69,0,0,0-1.18-.48,1.74,1.74,0,0,0-1.18.47L6.55,8.58a1.67,1.67,0,0,0,0,2.34l3.61,3.6a1.72,1.72,0,0,0,2.43-.07c-.58-.57-1.25-1-1.25-1.94A1.66,1.66,0,0,1,13,10.85c.89,0,1.37.67,1.94,1.25a1.67,1.67,0,0,0,.58-1.27A1.7,1.7,0,0,0,15,9.65ZM27.22,21.87l-3.61-3.6a1.68,1.68,0,0,0-1.18-.49,1.64,1.64,0,0,0-1.25.56c.58.57,1.25,1.05,1.25,1.94a1.66,1.66,0,0,1-1.66,1.66c-.89,0-1.37-.67-1.94-1.25A1.67,1.67,0,0,0,18.25,22a1.7,1.7,0,0,0,.49,1.18l3.57,3.59a1.67,1.67,0,0,0,1.18.46,1.71,1.71,0,0,0,1.18-.45l2.55-2.53a1.63,1.63,0,0,0,.48-1.16A1.67,1.67,0,0,0,27.22,21.87Z" style="fill:#710132"/></svg>