<svg id="Calque_1" data-name="Calque 1" xmlns="http://www.w3.org/2000/svg" viewBox="0 0 32 32"><title>icones</title><path d="M14.71,25H10.13A4.13,4.13,0,0,1,6,20.87V10.79a4.13,4.13,0,0,1,4.13-4.13h4.58a.47.47,0,0,1,.46.46c0,.4.19,1.37-.46,1.37H10.13a2.31,2.31,0,0,0-2.3,2.3V20.87a2.31,2.31,0,0,0,2.3,2.3h4.12c.36,0,.92-.08.92.45S15.36,25,14.71,25Zm13.48-8.53-7.79,7.8a.91.91,0,0,1-1.56-.65V19.5H12.42a.93.93,0,0,1-.92-.92v-5.5a.93.93,0,0,1,.92-.92h6.42V8a.91.91,0,0,1,1.56-.65l7.79,7.8a.87.87,0,0,1,0,1.28Z" style="fill:#e3e3e3"/></svg>