<svg id="Calque_1" data-name="Calque 1" xmlns="http://www.w3.org/2000/svg" viewBox="0 0 32 32"><title>icones</title><path d="M19.76,6.66h4.58a4.13,4.13,0,0,1,4.13,4.13V20.87A4.13,4.13,0,0,1,24.34,25H19.76a.47.47,0,0,1-.46-.46c0-.4-.19-1.37.46-1.37h4.58a2.3,2.3,0,0,0,2.29-2.29V10.79a2.3,2.3,0,0,0-2.29-2.29H20.21c-.36,0-.92.07-.92-.46S19.11,6.66,19.76,6.66ZM23,15.83a.91.91,0,0,1-.27.64L14.9,24.27a.91.91,0,0,1-.64.27.92.92,0,0,1-.92-.92V19.5H6.92A.92.92,0,0,1,6,18.58v-5.5a.92.92,0,0,1,.92-.92h6.42V8a.92.92,0,0,1,.92-.92.91.91,0,0,1,.64.27l7.79,7.79A.91.91,0,0,1,23,15.83Z" style="fill:#710132"/></svg>