<?xml version="1.0" encoding="UTF-8" standalone="no"?>
<svg
   id="Calque_1"
   data-name="Calque 1"
   viewBox="0 0 32 32"
   version="1.1"
   sodipodi:docname="brain-side_sl.svg"
   inkscape:version="1.1.1 (3bf5ae0d25, 2021-09-20)"
   xmlns:inkscape="http://www.inkscape.org/namespaces/inkscape"
   xmlns:sodipodi="http://sodipodi.sourceforge.net/DTD/sodipodi-0.dtd"
   xmlns="http://www.w3.org/2000/svg"
   xmlns:svg="http://www.w3.org/2000/svg"
   xmlns:rdf="http://www.w3.org/1999/02/22-rdf-syntax-ns#"
   xmlns:cc="http://creativecommons.org/ns#"
   xmlns:dc="http://purl.org/dc/elements/1.1/">
  <metadata
     id="metadata31">
    <rdf:RDF>
      <cc:Work
         rdf:about="">
        <dc:format>image/svg+xml</dc:format>
        <dc:type
           rdf:resource="http://purl.org/dc/dcmitype/StillImage" />
        <dc:title>body_l</dc:title>
      </cc:Work>
    </rdf:RDF>
  </metadata>
  <sodipodi:namedview
     pagecolor="#ffffff"
     bordercolor="#666666"
     borderopacity="1"
     objecttolerance="10"
     gridtolerance="10"
     guidetolerance="10"
     inkscape:pageopacity="0"
     inkscape:pageshadow="2"
     inkscape:window-width="3440"
     inkscape:window-height="1369"
     id="namedview29"
     showgrid="false"
     inkscape:snap-bbox="true"
     inkscape:bbox-paths="true"
     inkscape:bbox-nodes="true"
     inkscape:snap-bbox-edge-midpoints="true"
     inkscape:snap-bbox-midpoints="true"
     inkscape:snap-nodes="false"
     inkscape:zoom="32"
     inkscape:cx="17.546875"
     inkscape:cy="23.046875"
     inkscape:window-x="1912"
     inkscape:window-y="-8"
     inkscape:window-maximized="1"
     inkscape:current-layer="Calque_1"
     inkscape:pagecheckerboard="0" />
  <defs
     id="defs4">
    <style
       id="style2">.cls-1{fill:#e3e3e3;}</style>
    <style
       id="style1399">.cls-1{fill:#e3e3e3;}</style>
    <style
       id="style1399-4">.cls-1{fill:#e3e3e3;}</style>
    <style
       id="style1399-8">.cls-1{fill:#e3e3e3;}</style>
    <style
       id="style1399-4-5">.cls-1{fill:#e3e3e3;}</style>
    <style
       id="style1399-0">.cls-1{fill:#e3e3e3;}</style>
    <style
       id="style854">.cls-1{fill:#e3e3e3;}</style>
    <style
       id="style1399-84">.cls-1{fill:#e3e3e3;}</style>
    <style
       id="style1399-4-8">.cls-1{fill:#e3e3e3;}</style>
    <style
       id="style1399-8-10">.cls-1{fill:#e3e3e3;}</style>
    <style
       id="style1399-4-5-3">.cls-1{fill:#e3e3e3;}</style>
    <style
       id="style1399-0-0">.cls-1{fill:#e3e3e3;}</style>
    <style
       id="style1399-5">.cls-1{fill:#e3e3e3;}</style>
    <style
       id="style1399-4-6">.cls-1{fill:#e3e3e3;}</style>
    <style
       id="style1399-8-1">.cls-1{fill:#e3e3e3;}</style>
    <style
       id="style1399-4-5-1">.cls-1{fill:#e3e3e3;}</style>
    <style
       id="style1399-0-5">.cls-1{fill:#e3e3e3;}</style>
    <style
       id="style1257">.cls-1{fill:#e3e3e3;}</style>
    <style
       id="style836">.cls-1{fill:#e3e3e3;}</style>
    <style
       id="style891">.cls-1{fill:#e3e3e3;}</style>
    <inkscape:path-effect
       oposite_fuse="false"
       fuse_paths="false"
       discard_orig_path="false"
       mode="free"
       is_visible="true"
       id="path-effect860"
       center_point="4.2644223,4.1242769"
       end_point="4.2644223,6.6226791"
       start_point="4.2644223,1.6258747"
       effect="mirror_symmetry" />
    <style
       id="style1399-9">.cls-1{fill:#e3e3e3;}</style>
    <style
       id="style1399-4-63">.cls-1{fill:#e3e3e3;}</style>
    <style
       id="style1399-8-8">.cls-1{fill:#e3e3e3;}</style>
    <style
       id="style1399-4-5-5">.cls-1{fill:#e3e3e3;}</style>
    <style
       id="style1399-0-6">.cls-1{fill:#e3e3e3;}</style>
    <style
       id="style854-1">.cls-1{fill:#e3e3e3;}</style>
    <style
       id="style1399-84-1">.cls-1{fill:#e3e3e3;}</style>
    <style
       id="style1399-4-8-5">.cls-1{fill:#e3e3e3;}</style>
    <style
       id="style1399-8-10-9">.cls-1{fill:#e3e3e3;}</style>
    <style
       id="style1399-4-5-3-8">.cls-1{fill:#e3e3e3;}</style>
    <style
       id="style1399-0-0-4">.cls-1{fill:#e3e3e3;}</style>
    <style
       id="style1399-5-8">.cls-1{fill:#e3e3e3;}</style>
    <style
       id="style1399-4-6-1">.cls-1{fill:#e3e3e3;}</style>
    <style
       id="style1399-8-1-0">.cls-1{fill:#e3e3e3;}</style>
    <style
       id="style1399-4-5-1-3">.cls-1{fill:#e3e3e3;}</style>
    <style
       id="style1399-0-5-0">.cls-1{fill:#e3e3e3;}</style>
    <style
       id="style1257-4">.cls-1{fill:#e3e3e3;}</style>
    <style
       id="style836-4">.cls-1{fill:#e3e3e3;}</style>
    <style
       id="style891-4">.cls-1{fill:#e3e3e3;}</style>
  </defs>
  <title
     id="title6">body_l</title>
  <path
     id="path989"
     style="fill:#e3e3e3;fill-opacity:1;stroke-width:0.0666202"
     d="M 19.052734 5.1113281 C 18.454743 5.1152629 18.636932 5.1155168 18.927734 5.1152344 C 16.967486 5.1565669 15.597919 6.1561323 14.757812 7.6171875 C 14.09871 7.2938551 13.371354 7.1015625 12.587891 7.1015625 C 10.511094 7.1015625 8.7324831 8.3757654 7.9863281 10.191406 C 7.7065211 10.129226 7.4136954 10.085937 7.1152344 10.085938 C 4.9202954 10.085938 3.1347656 11.869516 3.1347656 14.064453 C 3.1347656 14.114193 3.1484375 14.157647 3.1484375 14.201172 C 1.4260655 14.642648 0.15039064 16.185753 0.15039062 18.044922 C 0.15039062 20.239859 1.9297044 22.023438 4.1308594 22.023438 L 7.7382812 22.023438 C 8.0283913 21.240365 8.4585934 20.317741 9.109375 19.388672 C 10.754167 17.040535 13.864245 14.653974 19.140625 14.486328 A 1 1 0 0 1 20.171875 15.453125 A 1 1 0 0 1 19.203125 16.484375 C 14.483827 16.634321 12.097787 18.605453 10.746094 20.535156 C 10.220048 21.286149 9.8679427 22.021382 9.6308594 22.644531 A 5.4171567 4.4823375 0 0 0 13.662109 24.15625 A 5.4171567 4.4823375 0 0 0 14.041016 24.126953 C 17.868008 21.995991 21.168924 20.932572 23.980469 20.585938 C 24.787885 20.486391 25.555564 20.445048 26.283203 20.455078 C 27.76894 20.475558 29.086182 20.710288 30.25 21.082031 C 31.306044 20.264652 31.986328 18.98768 31.986328 17.546875 C 31.986328 15.569566 30.69985 13.915283 28.927734 13.318359 C 28.971264 13.075859 29.001953 12.827201 29.001953 12.572266 C 29.001953 10.097521 27.000135 8.0957031 24.525391 8.0957031 C 24.226929 8.0957031 23.934462 8.1256946 23.648438 8.1816406 C 22.917825 6.4160017 20.757347 5.1571524 19.15625 5.1152344 C 19.635474 5.1139934 20.117082 5.1113281 19.052734 5.1113281 z M 25.730469 22.425781 C 23.228555 22.476893 20.133094 23.223334 16.318359 25.171875 A 7.1669464 5.2253985 0 0 0 22.458984 27.751953 A 7.1669464 5.2253985 0 0 0 29.568359 22.955078 C 28.477617 22.607917 27.206887 22.39562 25.730469 22.425781 z " />
  <path
     id="path5248"
     style="color:#000000;display:none;fill:#232323;stroke-linecap:round;-inkscape-stroke:none"
     d="m 23.46875,4.0195312 a 1,1 0 0 0 -0.6875,0.3359376 1,1 0 0 0 0.08594,1.4101562 c 0,0 0.388236,0.3425434 0.378906,0.9667969 -0.0093,0.6242535 -0.436426,1.834294 -3.273438,3.4785161 a 1,1 0 0 0 -0.365234,1.367187 1,1 0 0 0 1.367187,0.363281 C 24.121012,10.117872 25.223103,8.2999725 25.246094,6.7617188 25.269084,5.223465 24.193359,4.2695312 24.193359,4.2695312 a 1,1 0 0 0 -0.724609,-0.25 z M 7.765625,6.8242188 A 1,1 0 0 0 6.9648438,7.15625 c 0,0 -0.2007586,0.2377429 -0.3339844,0.5410156 -0.1332259,0.3032727 -0.2499037,0.735652 -0.2304688,1.2578125 0.03887,1.044321 0.610203,2.3584069 2.1894532,3.8417969 A 1,1 0 0 0 10.001953,12.751955 1,1 0 0 0 9.958984,11.337893 C 8.6259167,10.085737 8.4150781,9.2754694 8.4003906,8.8808594 c -0.00734,-0.197305 0.031837,-0.3135512 0.060547,-0.3789063 0.00718,-0.016339 0.00879,-0.026905 0.00977,-0.03125 A 1,1 0 0 0 8.3769531,7.0761719 1,1 0 0 0 7.765625,6.8242188 Z m 6.820313,1.7011718 a 1,1 0 0 0 -0.384766,0.066406 1,1 0 0 0 -0.554688,0.5273437 c 0,0 -0.377664,0.8463082 -0.314453,1.9492187 0.06321,1.102911 0.618335,2.550704 2.15625,3.650391 a 1,1 0 0 0 1.394531,-0.232422 1,1 0 0 0 -0.232421,-1.394531 c -1.086748,-0.77708 -1.286866,-1.521017 -1.322266,-2.138672 -0.0354,-0.617655 0.144531,-1.0214847 0.144531,-1.0214847 A 1,1 0 0 0 14.966797,8.6113281 1,1 0 0 0 14.585938,8.5253906 Z M 26.46875,12.712891 c 0,0 -1.894126,0.167405 -2.826172,1.871093 a 1,1 0 0 0 0.398438,1.357422 1,1 0 0 0 1.357422,-0.396484 c 0.410278,-0.74995 1.255859,-0.839844 1.255859,-0.839844 A 1,1 0 0 0 27.556641,13.615234 1,1 0 0 0 26.46875,12.712891 Z M 5.0996094,14.228516 a 1,1 0 0 0 -1.0195313,0.783203 1,1 0 0 0 0.7597657,1.193359 c 0.3925315,0.08713 1.109375,0.591797 1.109375,0.591797 A 1,1 0 0 0 7.3554688,16.658203 1,1 0 0 0 7.2167969,15.25 c 0,0 -0.8093351,-0.746333 -1.9433594,-0.998047 a 1,1 0 0 0 -0.1738281,-0.02344 z m 15.0410156,2.041015 c -9.856518,0.09614 -14.1367187,7.46875 -14.1367188,7.46875 a 1,1 0 0 0 0.3808594,1.363281 1,1 0 0 0 1.3613282,-0.378906 c 0,0 3.8395202,-7.040378 13.7617182,-6.416015 a 1,1 0 0 0 1.060547,-0.933594 1,1 0 0 0 -0.933593,-1.0625 c -0.51188,-0.03221 -1.009394,-0.04574 -1.494141,-0.04102 z m 5.681641,3.884766 c -4.247438,-0.004 -7.59375,2.263672 -7.59375,2.263672 a 1,1 0 0 0 -0.271485,1.388672 1,1 0 0 0 1.388672,0.271484 c 0,0 5.757809,-3.853632 11.128906,-0.644531 A 1,1 0 0 0 31.845703,23.087891 1,1 0 0 0 31.5,21.716797 C 29.874401,20.745541 28.232622,20.303767 26.683594,20.1875 26.393151,20.1657 26.105428,20.15457 25.822266,20.1543 Z" />
</svg>
