<?xml version="1.0" encoding="UTF-8" standalone="no"?>
<svg
   id="Calque_1"
   data-name="Calque 1"
   viewBox="0 0 32 32"
   version="1.1"
   sodipodi:docname="brain_sd.svg"
   inkscape:version="1.1.1 (3bf5ae0d25, 2021-09-20)"
   xmlns:inkscape="http://www.inkscape.org/namespaces/inkscape"
   xmlns:sodipodi="http://sodipodi.sourceforge.net/DTD/sodipodi-0.dtd"
   xmlns="http://www.w3.org/2000/svg"
   xmlns:svg="http://www.w3.org/2000/svg"
   xmlns:rdf="http://www.w3.org/1999/02/22-rdf-syntax-ns#"
   xmlns:cc="http://creativecommons.org/ns#"
   xmlns:dc="http://purl.org/dc/elements/1.1/">
  <metadata
     id="metadata31">
    <rdf:RDF>
      <cc:Work
         rdf:about="">
        <dc:format>image/svg+xml</dc:format>
        <dc:type
           rdf:resource="http://purl.org/dc/dcmitype/StillImage" />
        <dc:title>body_l</dc:title>
      </cc:Work>
    </rdf:RDF>
  </metadata>
  <sodipodi:namedview
     pagecolor="#ffffff"
     bordercolor="#666666"
     borderopacity="1"
     objecttolerance="10"
     gridtolerance="10"
     guidetolerance="10"
     inkscape:pageopacity="0"
     inkscape:pageshadow="2"
     inkscape:window-width="3440"
     inkscape:window-height="1369"
     id="namedview29"
     showgrid="false"
     inkscape:snap-bbox="true"
     inkscape:bbox-paths="true"
     inkscape:bbox-nodes="true"
     inkscape:snap-bbox-edge-midpoints="true"
     inkscape:snap-bbox-midpoints="true"
     inkscape:snap-nodes="false"
     inkscape:zoom="20.85965"
     inkscape:cx="21.596719"
     inkscape:cy="21.836416"
     inkscape:window-x="1912"
     inkscape:window-y="-8"
     inkscape:window-maximized="1"
     inkscape:current-layer="Calque_1"
     inkscape:pagecheckerboard="0" />
  <defs
     id="defs4">
    <style
       id="style2">.cls-1{fill:#e3e3e3;}</style>
    <style
       id="style1399">.cls-1{fill:#e3e3e3;}</style>
    <style
       id="style1399-4">.cls-1{fill:#e3e3e3;}</style>
    <style
       id="style1399-8">.cls-1{fill:#e3e3e3;}</style>
    <style
       id="style1399-4-5">.cls-1{fill:#e3e3e3;}</style>
    <style
       id="style1399-0">.cls-1{fill:#e3e3e3;}</style>
    <style
       id="style854">.cls-1{fill:#e3e3e3;}</style>
    <style
       id="style1399-84">.cls-1{fill:#e3e3e3;}</style>
    <style
       id="style1399-4-8">.cls-1{fill:#e3e3e3;}</style>
    <style
       id="style1399-8-10">.cls-1{fill:#e3e3e3;}</style>
    <style
       id="style1399-4-5-3">.cls-1{fill:#e3e3e3;}</style>
    <style
       id="style1399-0-0">.cls-1{fill:#e3e3e3;}</style>
    <style
       id="style1399-5">.cls-1{fill:#e3e3e3;}</style>
    <style
       id="style1399-4-6">.cls-1{fill:#e3e3e3;}</style>
    <style
       id="style1399-8-1">.cls-1{fill:#e3e3e3;}</style>
    <style
       id="style1399-4-5-1">.cls-1{fill:#e3e3e3;}</style>
    <style
       id="style1399-0-5">.cls-1{fill:#e3e3e3;}</style>
    <style
       id="style1257">.cls-1{fill:#e3e3e3;}</style>
    <style
       id="style836">.cls-1{fill:#e3e3e3;}</style>
    <style
       id="style891">.cls-1{fill:#e3e3e3;}</style>
    <inkscape:path-effect
       oposite_fuse="false"
       fuse_paths="false"
       discard_orig_path="false"
       mode="free"
       is_visible="true"
       id="path-effect860"
       center_point="4.2644223,4.1242769"
       end_point="4.2644223,6.6226791"
       start_point="4.2644223,1.6258747"
       effect="mirror_symmetry" />
    <style
       id="style1399-9">.cls-1{fill:#e3e3e3;}</style>
    <style
       id="style1399-4-63">.cls-1{fill:#e3e3e3;}</style>
    <style
       id="style1399-8-8">.cls-1{fill:#e3e3e3;}</style>
    <style
       id="style1399-4-5-5">.cls-1{fill:#e3e3e3;}</style>
    <style
       id="style1399-0-6">.cls-1{fill:#e3e3e3;}</style>
    <style
       id="style854-1">.cls-1{fill:#e3e3e3;}</style>
    <style
       id="style1399-84-1">.cls-1{fill:#e3e3e3;}</style>
    <style
       id="style1399-4-8-5">.cls-1{fill:#e3e3e3;}</style>
    <style
       id="style1399-8-10-9">.cls-1{fill:#e3e3e3;}</style>
    <style
       id="style1399-4-5-3-8">.cls-1{fill:#e3e3e3;}</style>
    <style
       id="style1399-0-0-4">.cls-1{fill:#e3e3e3;}</style>
    <style
       id="style1399-5-8">.cls-1{fill:#e3e3e3;}</style>
    <style
       id="style1399-4-6-1">.cls-1{fill:#e3e3e3;}</style>
    <style
       id="style1399-8-1-0">.cls-1{fill:#e3e3e3;}</style>
    <style
       id="style1399-4-5-1-3">.cls-1{fill:#e3e3e3;}</style>
    <style
       id="style1399-0-5-0">.cls-1{fill:#e3e3e3;}</style>
    <style
       id="style1257-4">.cls-1{fill:#e3e3e3;}</style>
    <style
       id="style836-4">.cls-1{fill:#e3e3e3;}</style>
    <style
       id="style891-4">.cls-1{fill:#e3e3e3;}</style>
  </defs>
  <title
     id="title6">body_l</title>
  <path
     d="m 10.773051,2.7327519 c -1.5436452,0 -2.8239927,1.0583515 -3.1905431,2.4884169 -0.041304,0 -0.072283,-0.010325 -0.1135799,-0.010325 -1.82243,0 -3.3041217,1.4816921 -3.3041217,3.3041222 0,0.2478092 0.030976,0.4904556 0.087766,0.7227767 -1.5075059,0.6195227 -2.5658574,2.0960513 -2.5658574,3.8203913 0,0.650499 0.165206,1.254533 0.4285032,1.80178 -1.23904562,0.712451 -2.08056425,2.034099 -2.08056425,3.567418 0,1.719175 1.05318885,3.195706 2.55036915,3.815228 -0.046463,0.237485 -0.072278,0.480131 -0.072278,0.72794 0,2.054751 1.6623864,3.717137 3.7171365,3.717137 0.2116707,0 0.4181784,-0.02582 0.6195229,-0.06196 0.4956186,1.471367 1.8688947,2.540044 3.5106296,2.540044 2.05475,0 3.717139,-1.662386 3.717139,-3.717137 V 6.0368739 c 0,-1.8224297 -1.481693,-3.304122 -3.304122,-3.304122 z M 32.017856,18.48761 c -0.333901,-1.502556 -0.84475,-2.865933 -2.088554,-3.58112 0.26949,-0.549348 0.430149,-1.155702 0.430149,-1.8087 0,-1.730962 -1.062417,-3.213162 -2.575712,-3.8350643 0.05183,-0.2332134 0.0881,-0.4767917 0.0881,-0.7255526 0,-1.8294294 -1.487384,-3.3168123 -3.316813,-3.3168123 -0.04146,0 -0.07774,0.010365 -0.114015,0.010365 -0.36796,-1.4355577 -1.653223,-2.497974 -3.202797,-2.497974 -1.829429,0 -3.316812,1.4822003 -3.316812,3.316812 V 25.535835 c 0,2.062643 1.668771,3.731413 3.731414,3.731413 1.648041,0 3.026591,-1.072781 3.524113,-2.549799 0.202118,0.03628 0.409419,0.0622 0.621901,0.0622 2.062643,0 3.731414,-1.668771 3.731414,-3.731413 0,-0.248761 -0.02592,-0.49234 -0.07255,-0.730736 1.50293,-0.621902 2.934538,-2.145198 2.560164,-3.82988 z"
     id="path989"
     style="fill:#232323;fill-opacity:1;stroke-width:0.0555264"
     sodipodi:nodetypes="scsscscscsscssssscscsscsssscsscss" />
</svg>
