<?xml version="1.0" encoding="UTF-8" standalone="no"?>
<!-- Created with Inkscape (http://www.inkscape.org/) -->

<svg
   xmlns:dc="http://purl.org/dc/elements/1.1/"
   xmlns:cc="http://creativecommons.org/ns#"
   xmlns:rdf="http://www.w3.org/1999/02/22-rdf-syntax-ns#"
   xmlns:svg="http://www.w3.org/2000/svg"
   xmlns="http://www.w3.org/2000/svg"
   xmlns:sodipodi="http://sodipodi.sourceforge.net/DTD/sodipodi-0.dtd"
   xmlns:inkscape="http://www.inkscape.org/namespaces/inkscape"
   width="32"
   height="32"
   viewBox="0 0 8.466666 8.466667"
   version="1.1"
   id="svg8"
   inkscape:version="0.92.5 (2060ec1f9f, 2020-04-08)"
   sodipodi:docname="duchar-icon-small.svg">
  <defs
     id="defs2">
    <style
       id="style2">.a{filter:url(#a);}.b{fill:#710132;}.c{fill:#e3e3e3;}</style>
    <filter
       name="AI_FlouGaussien_4"
       id="a">
      <feGaussianBlur
         id="feGaussianBlur4"
         stdDeviation="4" />
    </filter>
    <style
       id="style2-7">.a{filter:url(#a);}.b{fill:#710132;}.c{fill:#e3e3e3;}</style>
    <filter
       id="a-5"
       name="AI_FlouGaussien_4">
      <feGaussianBlur
         stdDeviation="4"
         id="feGaussianBlur4-8" />
    </filter>
  </defs>
  <sodipodi:namedview
     id="base"
     pagecolor="#ffffff"
     bordercolor="#666666"
     borderopacity="1.0"
     inkscape:pageopacity="0.0"
     inkscape:pageshadow="2"
     inkscape:zoom="5.6568542"
     inkscape:cx="-40.106265"
     inkscape:cy="1.1611453"
     inkscape:document-units="mm"
     inkscape:current-layer="layer1"
     showgrid="false"
     units="px"
     inkscape:window-width="1848"
     inkscape:window-height="1136"
     inkscape:window-x="0"
     inkscape:window-y="27"
     inkscape:window-maximized="1"
     fit-margin-top="0"
     fit-margin-left="0"
     fit-margin-right="0"
     fit-margin-bottom="0"
     inkscape:snap-nodes="false"
     inkscape:snap-bbox="true"
     inkscape:bbox-paths="true"
     inkscape:bbox-nodes="true"
     inkscape:snap-bbox-edge-midpoints="true"
     inkscape:snap-bbox-midpoints="true"
     inkscape:snap-global="true"
     inkscape:snap-others="true"
     inkscape:snap-object-midpoints="true"
     inkscape:snap-center="true" />
  <metadata
     id="metadata5">
    <rdf:RDF>
      <cc:Work
         rdf:about="">
        <dc:format>image/svg+xml</dc:format>
        <dc:type
           rdf:resource="http://purl.org/dc/dcmitype/StillImage" />
        <dc:title></dc:title>
      </cc:Work>
    </rdf:RDF>
  </metadata>
  <g
     inkscape:label="Calque 1"
     inkscape:groupmode="layer"
     id="layer1"
     transform="translate(-41.884402,-258.97524)">
    <g
       transform="translate(-22.759157,-11.988631)"
       id="layer1-4"
       inkscape:label="Calque 1">
      <circle
         r="3.7472262"
         cy="275.1972"
         cx="68.876892"
         id="circle834"
         style="opacity:1;fill:#e3e4e3;fill-opacity:1;fill-rule:nonzero;stroke:#710132;stroke-width:0.93862259;stroke-linecap:butt;stroke-linejoin:round;stroke-miterlimit:4;stroke-dasharray:none;stroke-opacity:1;paint-order:markers fill stroke" />
    </g>
    <g
       aria-label="α"
       style="font-style:normal;font-variant:normal;font-weight:normal;font-stretch:normal;font-size:10.58333302px;line-height:1.25;font-family:OpenSymbol;-inkscape-font-specification:'OpenSymbol, Normal';font-variant-ligatures:normal;font-variant-caps:normal;font-variant-numeric:normal;font-feature-settings:normal;text-align:start;letter-spacing:0px;word-spacing:0px;writing-mode:lr-tb;text-anchor:start;fill:#710132;fill-opacity:1;stroke:none;stroke-width:0.26458332"
       id="text819"
       transform="matrix(0.51812595,0,0,0.51812595,22.217918,126.84222)">
      <path
         d="m 45.363518,266.35677 q 0.877222,0 1.374315,-0.7164 0.497092,-0.7164 0.877223,-2.61704 v -0.007 -0.007 q -0.328959,-1.54975 -0.862603,-2.23691 -0.526333,-0.68716 -1.374315,-0.68716 -0.921084,0 -1.454728,0.84067 -0.526333,0.83336 -0.526333,2.25154 0,1.53514 0.497092,2.3612 0.504404,0.81873 1.469349,0.81873 z m 4.29839,-6.4549 -0.562885,2.19307 q -0.153513,0.58481 -0.350889,1.14038 -0.197375,0.54826 -0.4313,1.05267 v 0.0146 0.0146 q 0.255856,0.65792 0.548264,0.99419 0.292406,0.32895 0.628676,0.32895 0.255857,0 0.42399,-0.19007 0.175445,-0.19736 0.219307,-0.49709 h 0.219305 v 0.12434 q 0,0.82606 -0.226616,1.22081 -0.226616,0.38745 -0.679848,0.38745 -0.482472,0 -0.767569,-0.38014 -0.285097,-0.38744 -0.555574,-1.49128 l -0.02193,-0.0877 -0.04387,0.0731 q -0.592125,0.99419 -1.271973,1.44012 -0.679847,0.44592 -1.60824,0.44592 -1.410866,0 -2.346571,-1.0015 -0.935704,-1.0015 -0.935704,-2.53663 0,-1.38163 0.957634,-2.41237 0.964945,-1.03804 2.280779,-1.03804 1.030736,0 1.681344,0.60674 0.650606,0.60675 0.921083,1.82025 l 0.03655,0.15351 0.562884,-2.37582 z"
         style="font-style:normal;font-variant:normal;font-weight:normal;font-stretch:normal;font-size:10.58333302px;font-family:OpenSymbol;-inkscape-font-specification:'OpenSymbol, Normal';font-variant-ligatures:normal;font-variant-caps:normal;font-variant-numeric:normal;font-feature-settings:normal;text-align:start;writing-mode:lr-tb;text-anchor:start;fill:#710132;fill-opacity:1;stroke-width:0.37428162"
         id="path821"
         inkscape:connector-curvature="0" />
    </g>
  </g>
</svg>
