<?xml version="1.0" encoding="UTF-8" standalone="no"?>
<svg
   xmlns:dc="http://purl.org/dc/elements/1.1/"
   xmlns:cc="http://creativecommons.org/ns#"
   xmlns:rdf="http://www.w3.org/1999/02/22-rdf-syntax-ns#"
   xmlns:svg="http://www.w3.org/2000/svg"
   xmlns="http://www.w3.org/2000/svg"
   xmlns:sodipodi="http://sodipodi.sourceforge.net/DTD/sodipodi-0.dtd"
   xmlns:inkscape="http://www.inkscape.org/namespaces/inkscape"
   id="Calque_1"
   data-name="Calque 1"
   viewBox="0 0 32 32"
   version="1.1"
   sodipodi:docname="body_sd.svg"
   inkscape:version="0.92.5 (2060ec1f9f, 2020-04-08)">
  <metadata
     id="metadata31">
    <rdf:RDF>
      <cc:Work
         rdf:about="">
        <dc:format>image/svg+xml</dc:format>
        <dc:type
           rdf:resource="http://purl.org/dc/dcmitype/StillImage" />
        <dc:title>body_l</dc:title>
      </cc:Work>
    </rdf:RDF>
  </metadata>
  <sodipodi:namedview
     pagecolor="#ffffff"
     bordercolor="#666666"
     borderopacity="1"
     objecttolerance="10"
     gridtolerance="10"
     guidetolerance="10"
     inkscape:pageopacity="0"
     inkscape:pageshadow="2"
     inkscape:window-width="1848"
     inkscape:window-height="1136"
     id="namedview29"
     showgrid="false"
     inkscape:snap-bbox="true"
     inkscape:bbox-paths="true"
     inkscape:bbox-nodes="true"
     inkscape:snap-bbox-edge-midpoints="true"
     inkscape:snap-bbox-midpoints="true"
     inkscape:snap-nodes="false"
     inkscape:zoom="7.375"
     inkscape:cx="-16.273534"
     inkscape:cy="8.9123165"
     inkscape:window-x="0"
     inkscape:window-y="27"
     inkscape:window-maximized="1"
     inkscape:current-layer="Calque_1" />
  <defs
     id="defs4">
    <style
       id="style2">.cls-1{fill:#e3e3e3;}</style>
    <style
       id="style1399">.cls-1{fill:#e3e3e3;}</style>
    <style
       id="style1399-4">.cls-1{fill:#e3e3e3;}</style>
    <style
       id="style1399-8">.cls-1{fill:#e3e3e3;}</style>
    <style
       id="style1399-4-5">.cls-1{fill:#e3e3e3;}</style>
    <style
       id="style1399-0">.cls-1{fill:#e3e3e3;}</style>
    <style
       id="style854">.cls-1{fill:#e3e3e3;}</style>
    <style
       id="style1399-84">.cls-1{fill:#e3e3e3;}</style>
    <style
       id="style1399-4-8">.cls-1{fill:#e3e3e3;}</style>
    <style
       id="style1399-8-10">.cls-1{fill:#e3e3e3;}</style>
    <style
       id="style1399-4-5-3">.cls-1{fill:#e3e3e3;}</style>
    <style
       id="style1399-0-0">.cls-1{fill:#e3e3e3;}</style>
    <style
       id="style1399-5">.cls-1{fill:#e3e3e3;}</style>
    <style
       id="style1399-4-6">.cls-1{fill:#e3e3e3;}</style>
    <style
       id="style1399-8-1">.cls-1{fill:#e3e3e3;}</style>
    <style
       id="style1399-4-5-1">.cls-1{fill:#e3e3e3;}</style>
    <style
       id="style1399-0-5">.cls-1{fill:#e3e3e3;}</style>
    <style
       id="style1257">.cls-1{fill:#e3e3e3;}</style>
    <style
       id="style836">.cls-1{fill:#e3e3e3;}</style>
    <style
       id="style891">.cls-1{fill:#e3e3e3;}</style>
    <inkscape:path-effect
       oposite_fuse="false"
       fuse_paths="false"
       discard_orig_path="false"
       mode="free"
       is_visible="true"
       id="path-effect860"
       center_point="4.2644223,4.1242769"
       end_point="4.2644223,6.6226791"
       start_point="4.2644223,1.6258747"
       effect="mirror_symmetry" />
    <style
       id="style1399-9">.cls-1{fill:#e3e3e3;}</style>
    <style
       id="style1399-4-63">.cls-1{fill:#e3e3e3;}</style>
    <style
       id="style1399-8-8">.cls-1{fill:#e3e3e3;}</style>
    <style
       id="style1399-4-5-5">.cls-1{fill:#e3e3e3;}</style>
    <style
       id="style1399-0-6">.cls-1{fill:#e3e3e3;}</style>
    <style
       id="style854-1">.cls-1{fill:#e3e3e3;}</style>
    <style
       id="style1399-84-1">.cls-1{fill:#e3e3e3;}</style>
    <style
       id="style1399-4-8-5">.cls-1{fill:#e3e3e3;}</style>
    <style
       id="style1399-8-10-9">.cls-1{fill:#e3e3e3;}</style>
    <style
       id="style1399-4-5-3-8">.cls-1{fill:#e3e3e3;}</style>
    <style
       id="style1399-0-0-4">.cls-1{fill:#e3e3e3;}</style>
    <style
       id="style1399-5-8">.cls-1{fill:#e3e3e3;}</style>
    <style
       id="style1399-4-6-1">.cls-1{fill:#e3e3e3;}</style>
    <style
       id="style1399-8-1-0">.cls-1{fill:#e3e3e3;}</style>
    <style
       id="style1399-4-5-1-3">.cls-1{fill:#e3e3e3;}</style>
    <style
       id="style1399-0-5-0">.cls-1{fill:#e3e3e3;}</style>
    <style
       id="style1257-4">.cls-1{fill:#e3e3e3;}</style>
    <style
       id="style836-4">.cls-1{fill:#e3e3e3;}</style>
    <style
       id="style891-4">.cls-1{fill:#e3e3e3;}</style>
  </defs>
  <title
     id="title6">body_l</title>
  <path
     class="cls-1"
     d="m 18.721656,17.823633 h -0.498069 v -0.684844 c 0.0139,-0.05625 0.0139,-0.114972 0,-0.171211 -0.09151,-0.260981 -0.394059,-0.37905 -0.638151,-0.249035 -0.725263,0.273796 -1.497694,0.400771 -2.272437,0.373552 -0.774666,0.02599 -1.546857,-0.100957 -2.272438,-0.373552 -0.140478,-0.07755 -0.310912,-0.07755 -0.451376,0 -0.129882,0.08812 -0.210641,0.232322 -0.217904,0.389117 v 0.700408 h -0.498069 c -0.464191,0 -0.840491,0.376302 -0.840491,0.84049 v 0.420245 c 0,0.464193 0.3763,0.840492 0.840491,0.840492 h 0.544763 v 0.342424 c 0.0026,0.272377 0.159379,0.51973 0.404679,0.63815 0.814862,0.284785 1.674015,0.421828 2.537039,0.404679 0.863395,0.0227 1.723542,-0.114505 2.537037,-0.404679 0.245302,-0.118406 0.40216,-0.365773 0.404681,-0.63815 v -0.342424 h 0.498068 c 0.464191,0 0.84049,-0.376299 0.84049,-0.840492 v -0.326856 c 0.05155,-0.52705 -0.391262,-0.969863 -0.918313,-0.918314 z"
     id="path22"
     inkscape:connector-curvature="0"
     style="fill:#232323;stroke-width:1.55646455"
     sodipodi:nodetypes="ccccccccccsssscccccccsscc" />
  <path
     sodipodi:nodetypes="ccccccccccsssscccccccsscc"
     style="fill:#232323;stroke-width:1.55646455"
     inkscape:connector-curvature="0"
     id="path838"
     d="m 18.721656,13.178785 h -0.498069 v -0.684846 c 0.0139,-0.05624 0.0139,-0.114973 0,-0.171211 -0.09151,-0.260978 -0.394059,-0.379047 -0.638151,-0.249034 -0.725263,0.273796 -1.497694,0.400774 -2.272437,0.373553 -0.774666,0.02599 -1.546857,-0.100958 -2.272438,-0.373553 -0.140478,-0.07755 -0.310912,-0.07755 -0.451376,0 -0.129882,0.08812 -0.210641,0.232321 -0.217904,0.389118 v 0.700408 h -0.498069 c -0.464191,0 -0.840491,0.3763 -0.840491,0.840491 v 0.420247 c 0,0.46419 0.3763,0.84049 0.840491,0.84049 h 0.544763 v 0.342421 c 0.0026,0.272378 0.159379,0.519733 0.404679,0.63815 0.814862,0.284787 1.674015,0.421828 2.537039,0.404684 0.863395,0.0227 1.723542,-0.114505 2.537037,-0.404684 0.245302,-0.118406 0.40216,-0.365772 0.404681,-0.63815 v -0.342421 h 0.498068 c 0.464191,0 0.84049,-0.3763 0.84049,-0.84049 v -0.32686 c 0.05155,-0.527048 -0.391262,-0.969862 -0.918313,-0.918313 z"
     class="cls-1" />
  <g
     style="fill:#232323"
     transform="matrix(0.62762842,0,0,0.62762842,11.762462,-2.5604832)"
     id="g909">
    <path
       style="fill:#232323"
       inkscape:connector-curvature="0"
       class="cls-1"
       d="m 28,23.35 -0.17,-0.73 a 14,14 0 0 1 -3.57,1.11 13.4,13.4 0 0 1 -2.33,0.2 H 21.6 A 13,13 0 0 1 17,23 l 0.48,1.46 0.05,0.15 a 0.49,0.49 0 0 0 0.31,0.32 l 2,0.68 a 0.55,0.55 0 0 1 0.38,0.59 0.54,0.54 0 0 1 -0.54,0.48 h -0.17 l -2,-0.7 a 1.57,1.57 0 0 1 -1,-1 l -1.85,-5.61 a 1.39,1.39 0 0 0 -0.5,-0.63 1.48,1.48 0 0 0 -0.82,-0.26 1.65,1.65 0 0 0 -0.32,0 1.45,1.45 0 0 0 -0.91,0.68 1.42,1.42 0 0 0 -0.16,1 l 1.87,5.64 a 4.51,4.51 0 0 0 4.24,3 h 7.7 v 0 a 2,2 0 0 0 1.47,-0.63 2,2 0 0 0 0.15,-2.43 v 0 a 0.72,0.72 0 0 1 0.14,-1 1.43,1.43 0 0 0 0.48,-1.39 z"
       id="path897" />
    <path
       style="fill:#232323"
       inkscape:connector-curvature="0"
       class="cls-1"
       d="m 12.47,17 a 2.54,2.54 0 0 1 0.61,-0.07 3.14,3.14 0 0 1 1.83,0.61 2.77,2.77 0 0 1 0.86,0.94 v 0 A 2.58,2.58 0 0 1 16,19 l 0.69,2.11 a 11.22,11.22 0 0 0 5.23,1.32 11.65,11.65 0 0 0 5.61,-1.48 l -0.1,-0.4 a 1.43,1.43 0 0 0 -1.21,-1.1 h -0.25 a 0.36,0.36 0 0 1 -0.3,-0.27 c 0,-0.11 0.64,-2.49 1,-3.77 A 1.29,1.29 0 0 0 26.25,14 L 26.1,13.88 25.75,13.56 c 0,-0.12 0,-0.24 0,-0.35 0,-6.34 -3.69,-8.92 -10,-8.92 H 14.56 C 8.2,4.65 4,10 4,17.21 c 0,4 2.62,4.76 7,4.91 l -0.56,-1.87 a 2.7,2.7 0 0 1 0.33,-2 2.53,2.53 0 0 1 1.7,-1.25 z M 21,12.78 c 1.95,0 3.07,1.59 3.07,3.54 0,1.95 -1.17,3.53 -3.07,3.53 a 3.54,3.54 0 1 1 0,-7.07 z"
       id="path899" />
  </g>
  <path
     id="path871"
     d="m 8.7321155,20.231188 c -1.0766585,0.0201 -2.0866114,0.319911 -2.7439366,0.840056 -1.3146519,1.040289 -0.7525095,2.659891 0.14918,3.28074 1.2532684,0.862926 2.1537252,0.986692 2.6962478,1.955239 0.6276636,1.120545 -0.3822093,2.649987 0.2983607,3.840778 0.5222857,0.913841 1.5036076,1.745339 2.5495136,1.863529 1.274729,0.144049 2.461098,-1.519925 3.532636,-1.519925 1.071535,0 2.256685,1.663973 3.531412,1.519925 1.045907,-0.11819 2.027228,-0.949688 2.549513,-1.863529 0.68057,-1.190791 -0.329302,-2.720233 0.298361,-3.840778 0.542523,-0.968547 1.444204,-1.092313 2.697471,-1.955239 0.901689,-0.620849 1.46261,-2.240451 0.147957,-3.28074 -1.314649,-1.04029 -4.039717,-1.201117 -5.886502,0 -1.722051,1.119991 -1.029,1.909995 -3.338212,1.909995 -2.309214,0 -1.616163,-0.790004 -3.338213,-1.909995 -0.923392,-0.600559 -2.06713,-0.860159 -3.1437885,-0.840056 z m 3.2770735,4.741973 c 1.503556,-0.139409 3.475727,2.393222 2.404001,3.357777 -1.143175,1.028858 -4.217894,-2.744245 -2.697471,-3.29297 0.09503,-0.03429 0.193232,-0.05551 0.29347,-0.06481 z m 6.408633,0 c 0.100237,0.0093 0.198443,0.03052 0.293469,0.06481 1.520423,0.548725 -1.554296,4.321828 -2.697471,3.292969 -1.071726,-0.964554 0.900445,-3.497185 2.404002,-3.357776 z m -6.268013,3.910478 c 0.114446,-0.0052 0.228485,-0.0044 0.339935,0.0037 0.534959,0.03899 1.007939,0.235354 1.15798,0.621176 0.400111,1.028857 -3.177685,1.394103 -3.137674,0.34238 0.02188,-0.575158 0.838634,-0.930714 1.639759,-0.967224 z m 5.78868,0.0037 c 0.891598,-0.06497 1.954688,0.306231 1.979694,0.963556 0.04001,1.051723 -3.539008,0.686478 -3.138897,-0.34238 0.150041,-0.385822 0.624244,-0.582192 1.159203,-0.621176 z"
     style="fill:#232323;stroke-width:1.14317513"
     inkscape:connector-curvature="0" />
</svg>
