<?xml version="1.0" encoding="UTF-8" standalone="no"?>
<svg
   xmlns:dc="http://purl.org/dc/elements/1.1/"
   xmlns:cc="http://creativecommons.org/ns#"
   xmlns:rdf="http://www.w3.org/1999/02/22-rdf-syntax-ns#"
   xmlns:svg="http://www.w3.org/2000/svg"
   xmlns="http://www.w3.org/2000/svg"
   xmlns:sodipodi="http://sodipodi.sourceforge.net/DTD/sodipodi-0.dtd"
   xmlns:inkscape="http://www.inkscape.org/namespaces/inkscape"
   id="Calque_1"
   data-name="Calque 1"
   viewBox="0 0 32 32"
   version="1.1"
   sodipodi:docname="spine-vertebrae_sd.svg"
   inkscape:version="0.92.5 (2060ec1f9f, 2020-04-08)">
  <metadata
     id="metadata31">
    <rdf:RDF>
      <cc:Work
         rdf:about="">
        <dc:format>image/svg+xml</dc:format>
        <dc:type
           rdf:resource="http://purl.org/dc/dcmitype/StillImage" />
        <dc:title>body_l</dc:title>
      </cc:Work>
    </rdf:RDF>
  </metadata>
  <sodipodi:namedview
     pagecolor="#ffffff"
     bordercolor="#666666"
     borderopacity="1"
     objecttolerance="10"
     gridtolerance="10"
     guidetolerance="10"
     inkscape:pageopacity="0"
     inkscape:pageshadow="2"
     inkscape:window-width="1848"
     inkscape:window-height="1136"
     id="namedview29"
     showgrid="false"
     inkscape:snap-bbox="true"
     inkscape:bbox-paths="true"
     inkscape:bbox-nodes="true"
     inkscape:snap-bbox-edge-midpoints="true"
     inkscape:snap-bbox-midpoints="true"
     inkscape:snap-nodes="false"
     inkscape:zoom="20.85965"
     inkscape:cx="17.135968"
     inkscape:cy="14.571383"
     inkscape:window-x="0"
     inkscape:window-y="27"
     inkscape:window-maximized="1"
     inkscape:current-layer="Calque_1" />
  <defs
     id="defs4">
    <style
       id="style2">.cls-1{fill:#e3e3e3;}</style>
  </defs>
  <title
     id="title6">body_l</title>
  <path
     class="cls-1"
     d="m 24.54543,24.001871 h -1.141864 v -1.57006 c 0.03175,-0.128928 0.03175,-0.263592 0,-0.392515 -0.209781,-0.598319 -0.903413,-0.869002 -1.463011,-0.570932 -1.662726,0.627701 -3.433588,0.918803 -5.209751,0.856398 -1.775982,0.05956 -3.546295,-0.231443 -5.20975,-0.856398 -0.32204,-0.177773 -0.712787,-0.177773 -1.034814,0 -0.297777,0.202039 -0.482912,0.532615 -0.4995642,0.892081 v 1.605745 h -1.141864 c -1.064195,0 -1.926893,0.862699 -1.926893,1.926894 v 0.963446 c 0,1.064196 0.862698,1.926894 1.926893,1.926894 h 1.2489132 v 0.785031 c 0.0057,0.62445 0.365389,1.191526 0.927763,1.463012 1.868136,0.652893 3.837816,0.967076 5.816366,0.927763 1.979407,0.05203 3.951362,-0.26252 5.816365,-0.927763 0.562374,-0.271479 0.921987,-0.838562 0.927764,-1.463012 v -0.785031 h 1.141862 c 1.064195,0 1.926893,-0.862698 1.926893,-1.926894 v -0.749347 c 0.118191,-1.208305 -0.897003,-2.223491 -2.105308,-2.105312 z m -5.007154,4.193898 c -0.919617,0.312155 -1.888108,0.455374 -2.858707,0.422766 -0.974886,-0.07416 -1.943508,-0.215419 -2.898967,-0.422766 v -3.422392 c 0.935182,0.2703 1.905523,0.399225 2.878837,0.382507 0.973469,0.01961 1.944228,-0.109466 2.878837,-0.382507 z"
     id="path22"
     inkscape:connector-curvature="0"
     style="fill:#232323;stroke-width:3.56832218"
     sodipodi:nodetypes="ccccccccccsssscccccccssccccccccc" />
  <path
     sodipodi:nodetypes="ccccccccccsssscccccccssccccccccc"
     style="fill:#232323;stroke-width:3.56832218"
     inkscape:connector-curvature="0"
     id="path838"
     d="m 24.54543,13.353179 h -1.141864 v -1.570062 c 0.03175,-0.128928 0.03175,-0.263592 0,-0.392515 -0.209781,-0.598319 -0.903413,-0.869 -1.463011,-0.570932 -1.662726,0.627699 -3.433588,0.918805 -5.209751,0.856397 -1.775982,0.05956 -3.546295,-0.23144 -5.20975,-0.856397 -0.32204,-0.177774 -0.712787,-0.177774 -1.034814,0 -0.297777,0.202039 -0.482912,0.532614 -0.4995642,0.892081 v 1.605744 h -1.141864 c -1.064195,0 -1.926893,0.8627 -1.926893,1.926895 v 0.963447 c 0,1.064195 0.862698,1.926894 1.926893,1.926894 h 1.2489132 v 0.78503 c 0.0057,0.624448 0.365389,1.191528 0.927763,1.463012 1.868136,0.652893 3.837816,0.967076 5.816366,0.927765 1.979407,0.05203 3.951362,-0.262524 5.816365,-0.927765 0.562374,-0.271477 0.921987,-0.838564 0.927764,-1.463012 v -0.78503 h 1.141862 c 1.064195,0 1.926893,-0.862699 1.926893,-1.926894 V 15.458489 C 26.768929,14.250184 25.753735,13.235 24.54543,13.353179 Z m -5.007154,4.193894 c -0.919617,0.312159 -1.888108,0.455376 -2.858707,0.42277 -0.974886,-0.07416 -1.943508,-0.215419 -2.898967,-0.42277 v -3.42239 c 0.935182,0.270299 1.905523,0.399227 2.878837,0.382505 0.973469,0.01963 1.944228,-0.109466 2.878837,-0.382505 z"
     class="cls-1" />
  <path
     class="cls-1"
     d="M 24.54543,2.7044817 H 23.403566 V 1.1344199 c 0.03175,-0.1289284 0.03175,-0.26359206 0,-0.39251543 -0.209781,-0.59831844 -0.903413,-0.86900125 -1.463011,-0.57093201 -1.662726,0.62770122 -3.433588,0.91880324 -5.209751,0.85639884 -1.775982,0.059557 -3.546295,-0.23144177 -5.20975,-0.85639884 -0.32204,-0.17777226 -0.712787,-0.17777226 -1.034814,0 C 10.188463,0.37301143 10.003328,0.70358818 9.9866758,1.063052 v 1.6057474 h -1.141864 c -1.064195,0 -1.926893,0.8626984 -1.926893,1.9268932 v 0.9634458 c 0,1.0641949 0.862698,1.926895 1.926893,1.926895 h 1.2489132 v 0.7850309 c 0.0057,0.6244496 0.365389,1.1915274 0.927763,1.4630115 1.868136,0.6528922 3.837816,0.9670762 5.816366,0.9277632 1.979407,0.05203 3.951362,-0.26252 5.816365,-0.9277632 0.562374,-0.2714774 0.921987,-0.8385619 0.927764,-1.4630115 V 7.4860334 h 1.141862 c 1.064195,0 1.926893,-0.8627001 1.926893,-1.926895 V 4.8097915 C 26.768934,3.601487 25.753735,2.5863029 24.54543,2.7044817 Z m -5.007154,4.193896 C 18.618659,7.2105333 17.650168,7.3537516 16.679569,7.3211439 15.704683,7.2469817 14.736061,7.1057247 13.780602,6.8983777 V 3.4759855 c 0.935182,0.2703005 1.905523,0.3992272 2.878837,0.3825069 0.973469,0.019613 1.944228,-0.1094655 2.878837,-0.3825069 z"
     id="path840"
     inkscape:connector-curvature="0"
     style="fill:#232323;stroke-width:3.56832218"
     sodipodi:nodetypes="ccccccccccsssscccccccssccccccccc" />
</svg>
