<?xml version="1.0" encoding="UTF-8" standalone="no"?>
<!-- Created with Inkscape (http://www.inkscape.org/) -->

<svg
   xmlns:dc="http://purl.org/dc/elements/1.1/"
   xmlns:cc="http://creativecommons.org/ns#"
   xmlns:rdf="http://www.w3.org/1999/02/22-rdf-syntax-ns#"
   xmlns:svg="http://www.w3.org/2000/svg"
   xmlns="http://www.w3.org/2000/svg"
   xmlns:sodipodi="http://sodipodi.sourceforge.net/DTD/sodipodi-0.dtd"
   xmlns:inkscape="http://www.inkscape.org/namespaces/inkscape"
   width="1080"
   height="1080"
   viewBox="0 0 285.74999 285.75001"
   version="1.1"
   id="svg8"
   inkscape:version="0.92.5 (2060ec1f9f, 2020-04-08)"
   sodipodi:docname="media_symbols.svg"
   inkscape:export-filename="/media/win/DEV_SRC/RxOT/RxUI/src-docs/docs/img/media_symbols.png"
   inkscape:export-xdpi="96"
   inkscape:export-ydpi="96">
  <defs
     id="defs2">
    <style
       id="style1399">.cls-1{fill:#e3e3e3;}</style>
    <style
       id="style1399-4">.cls-1{fill:#e3e3e3;}</style>
    <style
       id="style1399-8">.cls-1{fill:#e3e3e3;}</style>
    <style
       id="style1399-4-5">.cls-1{fill:#e3e3e3;}</style>
    <style
       id="style1399-9">.cls-1{fill:#e3e3e3;}</style>
    <style
       id="style1399-4-6">.cls-1{fill:#e3e3e3;}</style>
    <style
       id="style1399-8-4">.cls-1{fill:#e3e3e3;}</style>
    <style
       id="style1399-4-5-3">.cls-1{fill:#e3e3e3;}</style>
    <style
       id="style1399-88">.cls-1{fill:#e3e3e3;}</style>
    <style
       id="style1399-3">.cls-1{fill:#e3e3e3;}</style>
    <style
       id="style1399-94">.cls-1{fill:#e3e3e3;}</style>
    <style
       id="style1399-5">.cls-1{fill:#e3e3e3;}</style>
    <style
       id="style1399-46">.cls-1{fill:#e3e3e3;}</style>
    <style
       id="style1399-4-2">.cls-1{fill:#e3e3e3;}</style>
    <style
       id="style1399-8-5">.cls-1{fill:#e3e3e3;}</style>
    <style
       id="style1399-4-5-8">.cls-1{fill:#e3e3e3;}</style>
    <style
       id="style1399-9-6">.cls-1{fill:#e3e3e3;}</style>
    <style
       id="style1399-4-6-2">.cls-1{fill:#e3e3e3;}</style>
    <style
       id="style1399-8-4-8">.cls-1{fill:#e3e3e3;}</style>
    <style
       id="style1399-4-5-3-4">.cls-1{fill:#e3e3e3;}</style>
    <style
       id="style1399-88-7">.cls-1{fill:#e3e3e3;}</style>
    <style
       id="style1399-3-2">.cls-1{fill:#e3e3e3;}</style>
    <style
       id="style1399-94-4">.cls-1{fill:#e3e3e3;}</style>
    <style
       id="style1399-5-0">.cls-1{fill:#e3e3e3;}</style>
    <style
       id="style1399-1">.cls-1{fill:#e3e3e3;}</style>
    <style
       id="style1399-4-59">.cls-1{fill:#e3e3e3;}</style>
    <style
       id="style1399-8-8">.cls-1{fill:#e3e3e3;}</style>
    <style
       id="style1399-4-5-4">.cls-1{fill:#e3e3e3;}</style>
    <style
       id="style1399-9-8">.cls-1{fill:#e3e3e3;}</style>
    <style
       id="style1399-4-6-1">.cls-1{fill:#e3e3e3;}</style>
    <style
       id="style1399-8-4-0">.cls-1{fill:#e3e3e3;}</style>
    <style
       id="style1399-4-5-3-3">.cls-1{fill:#e3e3e3;}</style>
    <style
       id="style1399-88-0">.cls-1{fill:#e3e3e3;}</style>
    <style
       id="style1399-3-4">.cls-1{fill:#e3e3e3;}</style>
    <style
       id="style1399-94-44">.cls-1{fill:#e3e3e3;}</style>
    <style
       id="style1399-5-4">.cls-1{fill:#e3e3e3;}</style>
    <style
       id="style1399-46-7">.cls-1{fill:#e3e3e3;}</style>
    <style
       id="style1399-4-2-6">.cls-1{fill:#e3e3e3;}</style>
    <style
       id="style1399-8-5-3">.cls-1{fill:#e3e3e3;}</style>
    <style
       id="style1399-4-5-8-1">.cls-1{fill:#e3e3e3;}</style>
    <style
       id="style1399-9-6-7">.cls-1{fill:#e3e3e3;}</style>
    <style
       id="style1399-4-6-2-5">.cls-1{fill:#e3e3e3;}</style>
    <style
       id="style1399-8-4-8-9">.cls-1{fill:#e3e3e3;}</style>
    <style
       id="style1399-4-5-3-4-6">.cls-1{fill:#e3e3e3;}</style>
    <style
       id="style1399-88-7-2">.cls-1{fill:#e3e3e3;}</style>
    <style
       id="style1399-3-2-1">.cls-1{fill:#e3e3e3;}</style>
    <style
       id="style1399-94-4-7">.cls-1{fill:#e3e3e3;}</style>
    <style
       id="style1399-5-0-8">.cls-1{fill:#e3e3e3;}</style>
    <style
       id="style1399-59">.cls-1{fill:#e3e3e3;}</style>
    <style
       id="style1399-4-7">.cls-1{fill:#e3e3e3;}</style>
    <style
       id="style1399-8-53">.cls-1{fill:#e3e3e3;}</style>
    <style
       id="style1399-4-5-88">.cls-1{fill:#e3e3e3;}</style>
    <style
       id="style1399-9-3">.cls-1{fill:#e3e3e3;}</style>
    <style
       id="style1399-4-6-18">.cls-1{fill:#e3e3e3;}</style>
    <style
       id="style1399-8-4-9">.cls-1{fill:#e3e3e3;}</style>
    <style
       id="style1399-4-5-3-6">.cls-1{fill:#e3e3e3;}</style>
    <style
       id="style1399-88-4">.cls-1{fill:#e3e3e3;}</style>
    <style
       id="style1399-3-3">.cls-1{fill:#e3e3e3;}</style>
    <style
       id="style1399-94-3">.cls-1{fill:#e3e3e3;}</style>
    <style
       id="style1399-5-3">.cls-1{fill:#e3e3e3;}</style>
    <style
       id="style1399-46-8">.cls-1{fill:#e3e3e3;}</style>
    <style
       id="style1399-4-2-60">.cls-1{fill:#e3e3e3;}</style>
    <style
       id="style1399-8-5-4">.cls-1{fill:#e3e3e3;}</style>
    <style
       id="style1399-4-5-8-8">.cls-1{fill:#e3e3e3;}</style>
    <style
       id="style1399-9-6-8">.cls-1{fill:#e3e3e3;}</style>
    <style
       id="style1399-4-6-2-8">.cls-1{fill:#e3e3e3;}</style>
    <style
       id="style1399-8-4-8-97">.cls-1{fill:#e3e3e3;}</style>
    <style
       id="style1399-4-5-3-4-7">.cls-1{fill:#e3e3e3;}</style>
    <style
       id="style1399-88-7-6">.cls-1{fill:#e3e3e3;}</style>
    <style
       id="style1399-3-2-4">.cls-1{fill:#e3e3e3;}</style>
    <style
       id="style1399-94-4-3">.cls-1{fill:#e3e3e3;}</style>
    <style
       id="style1399-5-0-0">.cls-1{fill:#e3e3e3;}</style>
    <style
       id="style1399-54">.cls-1{fill:#e3e3e3;}</style>
    <style
       id="style1399-4-0">.cls-1{fill:#e3e3e3;}</style>
    <style
       id="style1399-8-59">.cls-1{fill:#e3e3e3;}</style>
    <style
       id="style1399-4-5-46">.cls-1{fill:#e3e3e3;}</style>
    <style
       id="style1399-9-9">.cls-1{fill:#e3e3e3;}</style>
    <style
       id="style1399-4-6-22">.cls-1{fill:#e3e3e3;}</style>
    <style
       id="style1399-8-4-4">.cls-1{fill:#e3e3e3;}</style>
    <style
       id="style1399-4-5-3-7">.cls-1{fill:#e3e3e3;}</style>
    <style
       id="style1399-88-75">.cls-1{fill:#e3e3e3;}</style>
    <style
       id="style1399-3-48">.cls-1{fill:#e3e3e3;}</style>
    <style
       id="style1399-94-1">.cls-1{fill:#e3e3e3;}</style>
    <style
       id="style1399-5-2">.cls-1{fill:#e3e3e3;}</style>
    <style
       id="style1399-46-89">.cls-1{fill:#e3e3e3;}</style>
    <style
       id="style1399-4-2-3">.cls-1{fill:#e3e3e3;}</style>
    <style
       id="style1399-8-5-6">.cls-1{fill:#e3e3e3;}</style>
    <style
       id="style1399-4-5-8-80">.cls-1{fill:#e3e3e3;}</style>
    <style
       id="style1399-9-6-2">.cls-1{fill:#e3e3e3;}</style>
    <style
       id="style1399-4-6-2-1">.cls-1{fill:#e3e3e3;}</style>
    <style
       id="style1399-8-4-8-0">.cls-1{fill:#e3e3e3;}</style>
    <style
       id="style1399-4-5-3-4-5">.cls-1{fill:#e3e3e3;}</style>
    <style
       id="style1399-88-7-1">.cls-1{fill:#e3e3e3;}</style>
    <style
       id="style1399-3-2-10">.cls-1{fill:#e3e3e3;}</style>
    <style
       id="style1399-94-4-8">.cls-1{fill:#e3e3e3;}</style>
    <style
       id="style1399-5-0-5">.cls-1{fill:#e3e3e3;}</style>
    <style
       id="style1399-2">.cls-1{fill:#e3e3e3;}</style>
    <style
       id="style1399-4-58">.cls-1{fill:#e3e3e3;}</style>
    <style
       id="style1399-5-6">.cls-1{fill:#e3e3e3;}</style>
    <style
       id="style1399-7">.cls-1{fill:#e3e3e3;}</style>
    <style
       id="style1399-85">.cls-1{fill:#e3e3e3;}</style>
    <style
       id="style1399-4-6-28">.cls-1{fill:#e3e3e3;}</style>
    <style
       id="style1399-8-47">.cls-1{fill:#e3e3e3;}</style>
    <style
       id="style1399-4-5-2">.cls-1{fill:#e3e3e3;}</style>
    <style
       id="style1399-99">.cls-1{fill:#e3e3e3;}</style>
    <style
       id="style1399-4-08">.cls-1{fill:#e3e3e3;}</style>
    <style
       id="style1399-5-1">.cls-1{fill:#e3e3e3;}</style>
    <style
       id="style1399-7-3">.cls-1{fill:#e3e3e3;}</style>
    <style
       id="style1399-40">.cls-1{fill:#e3e3e3;}</style>
    <style
       id="style1399-4-3">.cls-1{fill:#e3e3e3;}</style>
    <style
       id="style1399-93">.cls-1{fill:#e3e3e3;}</style>
    <style
       id="style1399-4-38">.cls-1{fill:#e3e3e3;}</style>
    <style
       id="style1399-8-0">.cls-1{fill:#e3e3e3;}</style>
    <style
       id="style1399-4-5-5">.cls-1{fill:#e3e3e3;}</style>
    <style
       id="style1399-9-66">.cls-1{fill:#e3e3e3;}</style>
    <style
       id="style1399-4-6-4">.cls-1{fill:#e3e3e3;}</style>
    <style
       id="style1399-8-4-00">.cls-1{fill:#e3e3e3;}</style>
    <style
       id="style1399-4-5-3-46">.cls-1{fill:#e3e3e3;}</style>
    <style
       id="style1399-88-2">.cls-1{fill:#e3e3e3;}</style>
    <style
       id="style1399-98">.cls-1{fill:#e3e3e3;}</style>
    <style
       id="style1399-8-7">.cls-1{fill:#e3e3e3;}</style>
    <style
       id="style1399-4-28">.cls-1{fill:#e3e3e3;}</style>
    <style
       id="style1399-44">.cls-1{fill:#e3e3e3;}</style>
  </defs>
  <sodipodi:namedview
     id="base"
     pagecolor="#ffffff"
     bordercolor="#666666"
     borderopacity="1.0"
     inkscape:pageopacity="0.0"
     inkscape:pageshadow="2"
     inkscape:zoom="0.7"
     inkscape:cx="673.59888"
     inkscape:cy="496.2642"
     inkscape:document-units="mm"
     inkscape:current-layer="g1153"
     showgrid="false"
     units="px"
     inkscape:snap-bbox="true"
     inkscape:bbox-paths="true"
     inkscape:bbox-nodes="true"
     inkscape:snap-bbox-edge-midpoints="true"
     inkscape:snap-bbox-midpoints="true"
     inkscape:snap-nodes="false"
     inkscape:snap-page="true"
     inkscape:window-width="1848"
     inkscape:window-height="1136"
     inkscape:window-x="0"
     inkscape:window-y="27"
     inkscape:window-maximized="1" />
  <metadata
     id="metadata5">
    <rdf:RDF>
      <cc:Work
         rdf:about="">
        <dc:format>image/svg+xml</dc:format>
        <dc:type
           rdf:resource="http://purl.org/dc/dcmitype/StillImage" />
        <dc:title></dc:title>
      </cc:Work>
    </rdf:RDF>
  </metadata>
  <g
     inkscape:label="Layer 1"
     inkscape:groupmode="layer"
     id="layer1"
     transform="translate(0,-11.249983)">
    <rect
       style="opacity:1;fill:#232323;fill-opacity:1;stroke:none;stroke-width:0.57599992;stroke-linecap:round;stroke-linejoin:round;stroke-miterlimit:4;stroke-dasharray:0.57599994, 1.15199988;stroke-dashoffset:15.63091469;stroke-opacity:1"
       id="rect815"
       width="285.75"
       height="285.75"
       x="0"
       y="11.249983"
       sodipodi:insensitive="true" />
    <g
       id="g1153"
       transform="matrix(0.72324925,0,0,0.72324925,47.317738,35.01932)">
      <path
         inkscape:connector-curvature="0"
         style="opacity:1;fill:#e3e3e3;fill-opacity:1;stroke:none;stroke-width:1.83134031;stroke-linecap:round;stroke-linejoin:round;stroke-miterlimit:4;stroke-dasharray:none;stroke-dashoffset:10.3937006;stroke-opacity:1"
         d="m 118.43001,11.400176 v 10.170219 h 10.17333 V 11.400176 Z m 0,10.170219 h -10.17333 v 10.170226 h 10.17333 z m 30.51998,-10.17022 v 10.17022 h 10.17332 V 11.400176 Z m 0,10.17022 h -10.17333 v 10.170226 h 10.17333 z m 0,10.170226 v 10.170226 h -10.17333 v 10.170218 h -10.17332 v 10.170226 h 10.17332 10.17333 10.17332 V 52.081065 41.910847 31.740621 Z M 128.60334,52.081065 V 41.910847 h -10.17333 v 10.170218 z m -10.17333,0 h -10.17333 v 10.170226 h 10.17333 z m 10.17333,-10.170218 h 10.17332 V 31.740621 h -10.17332 z"
         id="rect5880" />
      <path
         style="opacity:1;fill:#e3e3e3;fill-opacity:1;stroke:none;stroke-width:1.83145189;stroke-linecap:round;stroke-linejoin:round;stroke-miterlimit:4;stroke-dasharray:none;stroke-dashoffset:10.3937006;stroke-opacity:1"
         d="m 244.42099,11.395534 v 10.170855 h 10.17394 V 11.395534 Z m 20.34479,10.170855 c 0,6.78154 0,13.563178 0,20.344743 h -10.17085 v 20.3448 h 30.51564 V 31.740285 H 274.93973 V 21.566389 Z m -30.52184,10.059023 v 10.17396 h 10.17083 v -10.17396 z"
         id="rect5880-4"
         inkscape:connector-curvature="0"
         sodipodi:nodetypes="ccccccccccccccccccc" />
      <path
         inkscape:connector-curvature="0"
         style="opacity:1;fill:#e3e3e3;fill-opacity:1;stroke:none;stroke-width:5.80139399;stroke-miterlimit:4;stroke-dasharray:none;stroke-opacity:0.98156684"
         d="m 237.28943,135.50434 c -0.53147,0 -0.95969,0.42852 -0.95969,0.95969 v 3.26107 c 0,0.53129 0.42822,0.95968 0.95969,0.95968 h 7.82659 c 0.53147,0 0.95969,-0.42792 0.95969,-0.95968 v -3.26107 c 0,-0.53129 -0.42822,-0.95969 -0.95969,-0.95969 z m 13.70896,0 c -0.53147,0 -0.9597,0.42852 -0.9597,0.95969 v 3.26107 c 0,0.53129 0.42823,0.95968 0.9597,0.95968 h 7.82659 c 0.53147,0 0.95968,-0.42792 0.95968,-0.95968 v -3.26107 c 0,-0.53129 -0.42822,-0.95969 -0.95968,-0.95969 z m 13.71206,0 c -0.53147,0 -0.9597,0.42852 -0.9597,0.95969 v 3.26107 c 0,0.53129 0.42823,0.95968 0.9597,0.95968 h 7.8266 c 0.53146,0 0.95967,-0.42792 0.95967,-0.95968 v -3.26107 c 0,-0.53129 -0.42822,-0.95969 -0.95967,-0.95969 z m 13.70896,0 c -0.53148,0 -0.9597,0.42852 -0.9597,0.95969 v 3.26107 c 0,0.53129 0.42822,0.95968 0.9597,0.95968 h 7.82657 c 0.53148,0 0.9597,-0.42792 0.9597,-0.95968 v -3.26107 c 0,-0.53129 -0.42822,-0.95969 -0.9597,-0.95969 z m -40.68275,0.86034 h 6.93213 c 0.29786,0 0.53729,0.23921 0.53729,0.5373 v 2.38522 c 0,0.2981 -0.23943,0.53731 -0.53729,0.53731 h -6.93213 c -0.29786,0 -0.53729,-0.23921 -0.53729,-0.53731 v -2.38522 c 0,-0.29809 0.23942,-0.5373 0.53729,-0.5373 z m 13.70896,0 h 6.93212 c 0.29785,0 0.5373,0.23921 0.5373,0.5373 v 2.38522 c 0,0.2981 -0.23945,0.53731 -0.5373,0.53731 h -6.93212 c -0.29787,0 -0.53731,-0.23921 -0.53731,-0.53731 v -2.38522 c 0,-0.29809 0.23944,-0.5373 0.53731,-0.5373 z m 13.71206,0 h 6.93212 c 0.29786,0 0.53731,0.23921 0.53731,0.5373 v 2.38522 c 0,0.2981 -0.23945,0.53731 -0.53731,0.53731 h -6.93212 c -0.29787,0 -0.5373,-0.23921 -0.5373,-0.53731 v -2.38522 c 0,-0.29809 0.23943,-0.5373 0.5373,-0.5373 z m 13.70896,0 h 6.93211 c 0.29786,0 0.5373,0.23921 0.5373,0.5373 v 2.38522 c 0,0.2981 -0.23944,0.53731 -0.5373,0.53731 h -6.93211 c -0.29787,0 -0.53731,-0.23921 -0.53731,-0.53731 v -2.38522 c 0,-0.29809 0.23944,-0.5373 0.53731,-0.5373 z m -41.57722,6.75196 c -0.53147,0 -0.95969,0.42852 -0.95969,0.95969 v 3.26418 c 0,0.53131 0.42823,0.95969 0.95969,0.95969 h 7.8266 c 0.53147,0 0.95968,-0.42791 0.95968,-0.95969 v -3.26418 c 0,-0.5313 -0.42822,-0.95969 -0.95968,-0.95969 z m 13.70896,0 c -0.53147,0 -0.95969,0.42852 -0.95969,0.95969 v 3.26418 c 0,0.53131 0.42823,0.95969 0.95969,0.95969 h 7.82659 c 0.53147,0 0.95969,-0.42791 0.95969,-0.95969 v -3.26418 c 0,-0.5313 -0.42822,-0.95969 -0.95969,-0.95969 z m 13.71206,0 c -0.53147,0 -0.95969,0.42852 -0.95969,0.95969 v 3.26418 c 0,0.53131 0.42823,0.95969 0.95969,0.95969 h 7.82661 c 0.53145,0 0.95967,-0.42791 0.95967,-0.95969 v -3.26418 c 0,-0.5313 -0.42822,-0.95969 -0.95967,-0.95969 z m 13.70896,0 c -0.53147,0 -0.95969,0.42852 -0.95969,0.95969 v 3.26418 c 0,0.53131 0.42822,0.95969 0.95969,0.95969 h 7.82658 c 0.53148,0 0.95969,-0.42791 0.95969,-0.95969 v -3.26418 c 0,-0.5313 -0.42822,-0.95969 -0.95969,-0.95969 z m -40.68275,0.86034 h 6.93213 c 0.29786,0 0.53729,0.2392 0.53729,0.5373 v 2.38835 c 0,0.29809 -0.23943,0.53729 -0.53729,0.53729 h -6.93213 c -0.29786,0 -0.53729,-0.2392 -0.53729,-0.53729 v -2.38835 c 0,-0.2981 0.23943,-0.5373 0.53729,-0.5373 z m 13.70896,0 h 6.93212 c 0.29786,0 0.53731,0.2392 0.53731,0.5373 v 2.38835 c 0,0.29809 -0.23945,0.53729 -0.53731,0.53729 h -6.93212 c -0.29786,0 -0.5373,-0.2392 -0.5373,-0.53729 v -2.38835 c 0,-0.2981 0.23944,-0.5373 0.5373,-0.5373 z m 13.71206,0 h 6.93213 c 0.29786,0 0.5373,0.2392 0.5373,0.5373 v 2.38835 c 0,0.29809 -0.23944,0.53729 -0.5373,0.53729 h -6.93213 c -0.29786,0 -0.53729,-0.2392 -0.53729,-0.53729 v -2.38835 c 0,-0.2981 0.23943,-0.5373 0.53729,-0.5373 z m 13.70896,0 h 6.93212 c 0.29786,0 0.5373,0.2392 0.5373,0.5373 v 2.38835 c 0,0.29809 -0.23944,0.53729 -0.5373,0.53729 h -6.93212 c -0.29786,0 -0.5373,-0.2392 -0.5373,-0.53729 v -2.38835 c 0,-0.2981 0.23944,-0.5373 0.5373,-0.5373 z m -41.57721,6.75508 c -0.53147,0 -0.95969,0.42792 -0.95969,0.95969 v 3.26107 c 0,0.53129 0.42822,0.95968 0.95969,0.95968 h 7.82659 c 0.53147,0 0.95969,-0.42852 0.95969,-0.95968 v -3.26107 c 0,-0.53129 -0.42822,-0.95969 -0.95969,-0.95969 z m 13.70896,0 c -0.53147,0 -0.95969,0.42792 -0.95969,0.95969 v 3.26107 c 0,0.53129 0.42822,0.95968 0.95969,0.95968 h 7.82659 c 0.53147,0 0.95969,-0.42852 0.95969,-0.95968 v -3.26107 c 0,-0.53129 -0.42822,-0.95969 -0.95969,-0.95969 z m 13.71206,0 c -0.53147,0 -0.95969,0.42792 -0.95969,0.95969 v 3.26107 c 0,0.53129 0.42822,0.95968 0.95969,0.95968 h 7.8266 c 0.53146,0 0.95968,-0.42852 0.95968,-0.95968 v -3.26107 c 0,-0.53129 -0.42822,-0.95969 -0.95968,-0.95969 z m 13.70896,0 c -0.53147,0 -0.95969,0.42792 -0.95969,0.95969 v 3.26107 c 0,0.53129 0.42822,0.95968 0.95969,0.95968 h 7.82658 c 0.53147,0 0.95969,-0.42852 0.95969,-0.95968 v -3.26107 c 0,-0.53129 -0.42822,-0.95969 -0.95969,-0.95969 z m -26.97379,0.86028 h 6.93212 c 0.29786,0 0.53731,0.23921 0.53731,0.53731 v 2.38527 c 0,0.2981 -0.23945,0.5373 -0.53731,0.5373 h -6.93212 c -0.29786,0 -0.5373,-0.2392 -0.5373,-0.5373 v -2.38527 c 0,-0.2981 0.23944,-0.53731 0.5373,-0.53731 z m 13.71206,0 h 6.93213 c 0.29786,0 0.5373,0.23921 0.5373,0.53731 v 2.38527 c 0,0.2981 -0.23944,0.5373 -0.5373,0.5373 h -6.93213 c -0.29786,0 -0.53729,-0.2392 -0.53729,-0.5373 v -2.38527 c 0,-0.2981 0.23943,-0.53731 0.53729,-0.53731 z m 13.70896,0 h 6.93212 c 0.29786,0 0.5373,0.23921 0.5373,0.53731 v 2.38527 c 0,0.2981 -0.23944,0.5373 -0.5373,0.5373 h -6.93212 c -0.29786,0 -0.5373,-0.2392 -0.5373,-0.5373 v -2.38527 c 0,-0.2981 0.23944,-0.53731 0.5373,-0.53731 z m -41.57721,6.75201 c -0.53147,0 -0.95969,0.42792 -0.95969,0.95969 v 3.26107 c 0,0.53129 0.42822,0.95968 0.95969,0.95968 h 7.82659 c 0.53147,0 0.95969,-0.42791 0.95969,-0.95968 v -3.26107 c 0,-0.53128 -0.42822,-0.95969 -0.95969,-0.95969 z m 13.70896,0 c -0.53147,0 -0.95969,0.42792 -0.95969,0.95969 v 3.26107 c 0,0.53129 0.42822,0.95968 0.95969,0.95968 h 7.82659 c 0.53147,0 0.95969,-0.42791 0.95969,-0.95968 v -3.26107 c 0,-0.53128 -0.42822,-0.95969 -0.95969,-0.95969 z m 13.71206,0 c -0.53147,0 -0.95969,0.42792 -0.95969,0.95969 v 3.26107 c 0,0.53129 0.42822,0.95968 0.95969,0.95968 h 7.8266 c 0.53146,0 0.95968,-0.42791 0.95968,-0.95968 v -3.26107 c 0,-0.53128 -0.42822,-0.95969 -0.95968,-0.95969 z m 13.70896,0 c -0.53147,0 -0.95969,0.42792 -0.95969,0.95969 v 3.26107 c 0,0.53129 0.42822,0.95968 0.95969,0.95968 h 7.82658 c 0.53147,0 0.95969,-0.42791 0.95969,-0.95968 v -3.26107 c 0,-0.53128 -0.42822,-0.95969 -0.95969,-0.95969 z m -26.97379,0.86029 h 6.93212 c 0.29786,0 0.53731,0.23921 0.53731,0.5373 v 2.38528 c 0,0.2981 -0.23945,0.5373 -0.53731,0.5373 h -6.93212 c -0.29786,0 -0.5373,-0.2392 -0.5373,-0.5373 v -2.38528 c 0,-0.29809 0.23944,-0.5373 0.5373,-0.5373 z m 27.42102,0 h 6.93212 c 0.29786,0 0.5373,0.23921 0.5373,0.5373 v 2.38528 c 0,0.2981 -0.23944,0.5373 -0.5373,0.5373 h -6.93212 c -0.29786,0 -0.5373,-0.2392 -0.5373,-0.5373 v -2.38528 c 0,-0.29809 0.23944,-0.5373 0.5373,-0.5373 z m -41.57721,6.75201 c -0.53147,0 -0.95969,0.42792 -0.95969,0.95969 v 3.26419 c 0,0.5313 0.42822,0.95969 0.95969,0.95969 h 7.82659 c 0.53147,0 0.95969,-0.42792 0.95969,-0.95969 v -3.26419 c 0,-0.53129 -0.42822,-0.95969 -0.95969,-0.95969 z m 13.70896,0 c -0.53147,0 -0.95969,0.42792 -0.95969,0.95969 v 3.26419 c 0,0.5313 0.42822,0.95969 0.95969,0.95969 h 7.82659 c 0.53147,0 0.95969,-0.42792 0.95969,-0.95969 v -3.26419 c 0,-0.53129 -0.42822,-0.95969 -0.95969,-0.95969 z m 13.71206,0 c -0.53147,0 -0.95969,0.42792 -0.95969,0.95969 v 3.26419 c 0,0.5313 0.42822,0.95969 0.95969,0.95969 h 7.8266 c 0.53146,0 0.95968,-0.42792 0.95968,-0.95969 v -3.26419 c 0,-0.53129 -0.42822,-0.95969 -0.95968,-0.95969 z m 13.70896,0 c -0.53147,0 -0.95969,0.42792 -0.95969,0.95969 v 3.26419 c 0,0.5313 0.42822,0.95969 0.95969,0.95969 h 7.82658 c 0.53147,0 0.95969,-0.42792 0.95969,-0.95969 v -3.26419 c 0,-0.53129 -0.42822,-0.95969 -0.95969,-0.95969 z m 0.44721,0.86027 h 6.93211 c 0.29787,0 0.53731,0.23922 0.53731,0.53731 v 2.38835 c 0,0.2981 -0.23944,0.53728 -0.53731,0.53728 h -6.93209 c -0.29786,0 -0.5373,-0.23918 -0.5373,-0.53728 v -2.38835 c 0,-0.29809 0.23944,-0.53731 0.5373,-0.53731 z m -41.57722,6.7551 c -0.53146,0 -0.95969,0.42792 -0.95969,0.95967 v 3.26106 c 0,0.5313 0.42823,0.95977 0.95969,0.95977 h 7.8266 c 0.53147,0 0.95969,-0.42793 0.95969,-0.95977 v -3.26106 c 0,-0.53128 -0.42822,-0.95967 -0.95969,-0.95967 z m 13.70896,0 c -0.53147,0 -0.95968,0.42792 -0.95968,0.95967 v 3.26106 c 0,0.5313 0.42821,0.95977 0.95968,0.95977 h 7.82659 c 0.53147,0 0.95969,-0.42793 0.95969,-0.95977 v -3.26106 c 0,-0.53128 -0.42822,-0.95967 -0.95969,-0.95967 z m 13.71206,0 c -0.53147,0 -0.95969,0.42792 -0.95969,0.95967 v 3.26106 c 0,0.5313 0.42822,0.95977 0.95969,0.95977 h 7.8266 c 0.53147,0 0.95969,-0.42793 0.95969,-0.95977 v -3.26106 c 0,-0.53128 -0.42822,-0.95967 -0.95969,-0.95967 z m 13.70896,0 c -0.53147,0 -0.95969,0.42792 -0.95969,0.95967 v 3.26106 c 0,0.5313 0.42822,0.95977 0.95969,0.95977 h 7.82659 c 0.53148,0 0.95969,-0.42793 0.95969,-0.95977 v -3.26106 c 0,-0.53128 -0.42821,-0.95967 -0.95969,-0.95967 z m -41.12998,7.6123 c -0.53146,0 -0.95969,0.42852 -0.95969,0.95967 v 3.26108 c 0,0.53128 0.42823,0.95967 0.95969,0.95967 h 7.8266 c 0.53147,0 0.95969,-0.42791 0.95969,-0.95967 v -3.26108 c 0,-0.53128 -0.42822,-0.95967 -0.95969,-0.95967 z m 13.70896,0 c -0.53147,0 -0.95968,0.42852 -0.95968,0.95967 v 3.26108 c 0,0.53128 0.42821,0.95967 0.95968,0.95967 h 7.82659 c 0.53147,0 0.95969,-0.42791 0.95969,-0.95967 v -3.26108 c 0,-0.53128 -0.42822,-0.95967 -0.95969,-0.95967 z m 13.71206,0 c -0.53147,0 -0.95969,0.42852 -0.95969,0.95967 v 3.26108 c 0,0.53128 0.42822,0.95967 0.95969,0.95967 h 7.8266 c 0.53147,0 0.95969,-0.42791 0.95969,-0.95967 v -3.26108 c 0,-0.53128 -0.42822,-0.95967 -0.95969,-0.95967 z m 13.70896,0 c -0.53147,0 -0.95969,0.42852 -0.95969,0.95967 v 3.26108 c 0,0.53128 0.42822,0.95967 0.95969,0.95967 h 7.82659 c 0.53148,0 0.95969,-0.42791 0.95969,-0.95967 v -3.26108 c 0,-0.53128 -0.42821,-0.95967 -0.95969,-0.95967 z"
         id="path1254" />
      <path
         inkscape:connector-curvature="0"
         style="opacity:1;fill:#e3e3e3;fill-opacity:1;stroke:none;stroke-width:5.79759264;stroke-miterlimit:4;stroke-dasharray:none;stroke-opacity:0.98156684"
         d="m 127.5335,135.53541 c -0.53108,0 -0.95934,0.42775 -0.95934,0.95933 v 48.8796 c 0,0.5311 0.42777,0.95934 0.95934,0.95934 h 2.55202 c 0.5311,0 0.95935,-0.42836 0.95935,-0.95934 v -48.8796 c 0,-0.53109 -0.42836,-0.95933 -0.95935,-0.95933 z m -6.62848,5.90188 c -0.53108,0 -0.95933,0.42836 -0.95933,0.95933 v 37.07576 c 0,0.53111 0.42836,0.95935 0.95933,0.95935 h 2.55203 c 0.5311,0 0.95939,-0.42837 0.95939,-0.95935 v -37.07576 c 0,-0.53109 -0.42835,-0.95933 -0.95939,-0.95933 z m 13.25378,5.69709 c -0.53108,0 -0.95934,0.42776 -0.95934,0.95932 v 25.68166 c 0,0.53111 0.42836,0.95934 0.95934,0.95934 h 2.55202 c 0.53111,0 0.95935,-0.42775 0.95935,-0.95934 V 148.0937 c 0,-0.53108 -0.42775,-0.95932 -0.95935,-0.95932 z m -19.8822,0.90965 c -0.53109,0 -0.95933,0.42475 -0.95933,0.95621 v 23.86859 c 0,0.53111 0.42836,0.95623 0.95933,0.95623 h 2.55203 c 0.53108,0 0.95933,-0.42477 0.95933,-0.95623 v -23.86859 c 0,-0.5311 -0.42836,-0.95621 -0.95933,-0.95621 z m 33.13911,4.60418 c -0.53111,0 -0.9594,0.42838 -0.9594,0.95935 v 14.65397 c 0,0.53109 0.42836,0.95933 0.9594,0.95933 h 2.55202 c 0.53108,0 0.95934,-0.42777 0.95934,-0.95933 v -14.65397 c 0,-0.53109 -0.42837,-0.95935 -0.95934,-0.95935 z m -6.62848,2.30986 c -0.53111,0 -0.95935,0.42775 -0.95935,0.95932 v 10.03429 c 0,0.5311 0.42837,0.95934 0.95935,0.95934 h 2.55201 c 0.5311,0 0.95935,-0.42775 0.95935,-0.95934 v -10.03429 c 0,-0.53108 -0.42837,-0.95932 -0.95935,-0.95932 z m -33.13905,1.67961 c -0.53109,0 -0.95933,0.42475 -0.95933,0.95627 v 6.68118 c 0,0.53109 0.42835,0.95627 0.95933,0.95627 h 2.55203 c 0.53109,0 0.95933,-0.42475 0.95933,-0.95627 v -6.68118 c 0,-0.53108 -0.42836,-0.95627 -0.95933,-0.95627 z m 46.39594,1.89698 c -0.53109,0 -0.95933,0.42777 -0.95933,0.95935 v 2.88107 c 0,0.53108 0.42775,0.95933 0.95933,0.95933 h 2.55203 c 0.53109,0 0.95933,-0.42835 0.95933,-0.95933 v -2.88107 c 0,-0.53109 -0.42836,-0.95935 -0.95933,-0.95935 z"
         id="path5212" />
      <path
         inkscape:connector-curvature="0"
         style="fill:#e3e3e3;fill-opacity:1;stroke-width:0.09977144"
         d="m -12.717444,11.284951 c -1.32247,0 -2.393671,1.07122 -2.393671,2.393678 v 46.294208 c 0,1.322507 1.071201,2.393678 2.393671,2.393678 h 33.52383 c 1.322458,0 2.393668,-1.071171 2.393668,-2.393678 V 27.247944 H 9.6307329 c -1.316981,0 -2.393666,-1.07667 -2.393666,-2.393678 V 11.284951 Z m 23.147108,0 v 12.770385 h 12.77039 v -0.605427 c -2.7e-5,-0.635075 -0.249966,-1.242422 -0.699065,-1.691495 l -9.774405,-9.771231 c -0.44907,-0.44931 -1.056442,-0.702232 -1.691482,-0.702232 z M -3.1552561,22.438777 a 8.8862604,8.8862604 0 0 1 5.564415,1.969252 l -2.74007997,6.010705 -4.08514703,-7.880063 a 8.8862604,8.8862604 0 0 1 1.260812,-0.09963 z m -2.109675,0.265123 3.030313,5.854645 -8.6446659,-1.610331 A 8.8862604,8.8862604 0 0 1 -5.2649311,22.7039 Z m 8.323218,2.278208 a 8.8862604,8.8862604 0 0 1 2.674543,6.344603 8.8862604,8.8862604 0 0 0 0,0.0025 l -6.26036097,1.532314 z m -14.3276739,2.736949 6.3914389,1.189043 c -2.185889,1.866587 -4.369224,3.761417 -6.5568399,5.648655 a 8.8862604,8.8862604 0 0 1 -0.605438,-3.230044 8.8862604,8.8862604 0 0 1 0.770839,-3.607654 z m 5.2648239,3.255042 0.09989,8.794446 a 8.8862604,8.8862604 0 0 1 -5.1743119,-4.422159 z m 11.693705,1.220195 a 8.8862604,8.8862604 0 0 1 -3.201964,5.988853 l -5.26794,-3.910351 z m -10.83236,1.357605 6.931334,5.149349 a 8.8862604,8.8862604 0 0 1 -4.943372,1.510454 8.8862604,8.8862604 0 0 1 -1.916187,-0.215601 z M 12.080576,37.32184 c 0.306426,0 0.611929,0.118918 0.84574,0.352684 l 3.944714,3.94165 V 52.788657 H -8.6728661 l 0.05013,-4.837238 3.941597,-3.941633 c 0.467551,-0.467435 1.177139,-0.417913 1.644665,0.04838 L 0.90824693,47.999799 11.235033,37.672974 c 0.233776,-0.23371 0.539357,-0.352685 0.845742,-0.352685 z"
         id="path977" />
      <path
         style="fill:#e3e3e3;fill-opacity:1;stroke-width:0.13245647"
         d="m 7.593824,135.52575 c -0.895675,-0.10385 -1.844246,0.16545 -2.589815,0.91113 l -11.785014,11.78193 h -13.519914 c -1.756378,0 -3.176387,1.42309 -3.176387,3.17948 v 19.07388 c 0,1.75507 1.420009,3.17642 3.176387,3.17642 h 13.519914 l 11.785014,11.78193 c 1.990842,1.99077 5.426097,0.59353 5.426097,-2.24656 v -44.50052 c 0,-1.77663 -1.343513,-2.985 -2.836282,-3.15769 z m 11.913007,14.8491 c -1.016189,0.0924 -1.970976,0.66764 -2.50245,1.62875 -0.846392,1.53782 -0.286797,3.46937 1.251196,4.31837 1.710023,0.93915 2.770778,2.70834 2.770778,4.61169 0,1.90475 -1.062092,3.67255 -2.770778,4.6117 -1.537818,0.84907 -2.097589,2.78056 -1.251196,4.31837 0.851728,1.54446 2.787206,2.09228 4.318384,1.25119 3.739259,-2.05967 6.062612,-5.95852 6.062612,-10.18126 0,-4.22265 -2.32203,-8.12289 -6.062612,-10.18125 -0.57542,-0.31457 -1.206277,-0.43293 -1.815934,-0.37737 z m -32.732959,5.08285 c 0.707042,0 1.291337,0.12621 1.753912,0.37134 0.467939,0.2391 0.838137,0.58447 1.109303,1.04184 0.271105,0.45164 0.459489,1.00848 0.56575,1.66769 0.106232,0.65393 0.161215,1.39678 0.161215,2.2261 0,0.82407 -0.06936,1.56534 -0.202267,2.22989 -0.132827,0.66453 -0.348996,1.23362 -0.652046,1.70144 -0.297672,0.46794 -0.689235,0.8257 -1.173057,1.07561 -0.478208,0.24996 -1.064912,0.37496 -1.761404,0.37496 -0.707103,0 -1.291337,-0.12079 -1.753914,-0.35987 -0.462501,-0.24454 -0.830642,-0.58991 -1.101808,-1.04186 -0.271106,-0.45706 -0.461913,-1.01378 -0.573613,-1.66769 -0.106232,-0.65929 -0.161215,-1.40425 -0.161215,-2.23364 0,-0.81874 0.06583,-1.56154 0.198654,-2.22614 0.138264,-0.66984 0.358046,-1.23731 0.655777,-1.70513 0.303109,-0.46794 0.694554,-0.82574 1.173071,-1.07561 0.483645,-0.24996 1.070233,-0.37856 1.761391,-0.37856 z m -7.034383,0.17632 h 0.981896 c 0.289339,0 0.520892,0.23184 0.520892,0.52107 v 9.30543 c 0,0.28922 -0.231552,0.52472 -0.520892,0.52472 h -0.981896 c -0.289342,0 -0.520967,-0.2355 -0.520967,-0.52472 v -9.30543 c 0,-0.28923 0.231567,-0.52107 0.520967,-0.52107 z m 12.846973,0 h 0.978148 c 0.289223,0 0.521086,0.23184 0.521086,0.52107 v 9.30543 c 0,0.28922 -0.231863,0.52472 -0.521086,0.52472 h -0.978148 c -0.289223,0 -0.524698,-0.2355 -0.524698,-0.52472 v -9.30543 c 0,-0.28923 0.235475,-0.52107 0.524698,-0.52107 z m -5.902557,1.48406 c -0.313379,0 -0.572407,0.0785 -0.779511,0.23247 -0.202269,0.14913 -0.364688,0.37555 -0.48726,0.67835 -0.117106,0.30312 -0.199256,0.67989 -0.247553,1.13178 -0.04835,0.45164 -0.07126,0.977 -0.07126,1.57778 0,0.73368 0.03011,1.34509 0.08992,1.82884 0.06038,0.47881 0.147315,0.8597 0.269887,1.14681 0.12739,0.28196 0.290428,0.48243 0.487273,0.59957 0.196832,0.11168 0.43172,0.16484 0.708306,0.16484 0.207103,0 0.391269,-0.0303 0.550678,-0.0936 0.159393,-0.0688 0.295247,-0.17089 0.412381,-0.30371 0.122544,-0.13284 0.224016,-0.30011 0.303713,-0.50236 0.07964,-0.20228 0.143112,-0.43536 0.190806,-0.70084 0.05436,-0.26567 0.08875,-0.56817 0.105053,-0.90323 0.0241,-0.3351 0.03629,-0.70524 0.03629,-1.1093 0,-0.48906 -0.01176,-0.91704 -0.04232,-1.28916 -0.02409,-0.37738 -0.06877,-0.70543 -0.127391,-0.9819 -0.05436,-0.27654 -0.125039,-0.50961 -0.210129,-0.70085 -0.07964,-0.19138 -0.175101,-0.34535 -0.292236,-0.45705 -0.117105,-0.11711 -0.248169,-0.19564 -0.397307,-0.24334 -0.148534,-0.0484 -0.317596,-0.0749 -0.498133,-0.0749 z m 16.577901,9.22738 c -0.707115,0 -1.291409,-0.12255 -1.753912,-0.36712 -0.467953,-0.2391 -0.83819499,-0.5881 -1.10930099,-1.04559 -0.271107,-0.45164 -0.45949,-1.00847 -0.565766,-1.66769 -0.106232,-0.65392 -0.161215,-1.39678 -0.161215,-2.22609 0,-0.82407 0.06582,-1.56534 0.198653,-2.2299 0.132827,-0.66453 0.352624,-1.22981 0.655852,-1.69769 0.297672,-0.46796 0.68923299,-0.82943 1.17299599,-1.0793 0.478812,-0.24995 1.064987,-0.37495 1.761406,-0.37495 0.707102,0 1.291397,0.12078 1.753914,0.35987 0.4625,0.24453 0.8307,0.59352 1.101807,1.0456 0.271107,0.45706 0.461914,1.01377 0.573614,1.66775 0.106231,0.65922 0.161214,1.40045 0.161214,2.22983 0,0.81874 -0.06583,1.56154 -0.198653,2.22615 -0.138265,0.66984 -0.358047,1.2373 -0.655851,1.70518 -0.303095,0.46794 -0.694539,0.82944 -1.172999,1.07928 -0.483644,0.24998 -1.07029,0.37496 -1.76139,0.37496 z m -5.812839,-0.17209 h -0.981895 c -0.28921,0 -0.52107,-0.23126 -0.52107,-0.52107 v -9.3017 c 0,-0.28923 0.23186,-0.52471 0.52107,-0.52471 h 0.981895 c 0.289223,0 0.521084,0.23548 0.521084,0.52471 v 9.3017 c 0,0.28921 -0.231861,0.52107 -0.521084,0.52107 z m 5.899002,-1.48781 c 0.313365,0 0.576022,-0.0784 0.783243,-0.23247 0.202282,-0.14913 0.364702,-0.37556 0.487274,-0.67836 0.117106,-0.3031 0.199256,-0.6799 0.247553,-1.13176 0.04834,-0.45165 0.07126,-0.97702 0.07126,-1.57779 0,-0.73368 -0.03027,-1.34128 -0.08992,-1.8251 -0.06038,-0.47881 -0.147331,-0.86344 -0.269902,-1.15055 -0.127391,-0.28197 -0.290429,-0.47881 -0.48726,-0.59595 -0.196831,-0.11167 -0.431718,-0.16845 -0.708321,-0.16845 -0.207102,0 -0.391253,0.0362 -0.550662,0.0973 -0.159407,0.0695 -0.298876,0.16665 -0.416012,0.29947 -0.122543,0.13284 -0.224015,0.3001 -0.303711,0.50237 -0.07978,0.20227 -0.143113,0.43897 -0.191409,0.70458 -0.05436,0.26566 -0.08507,0.56454 -0.101385,0.89947 -0.0241,0.33512 -0.03614,0.70525 -0.03614,1.10932 0,0.48906 0.01176,0.91703 0.04232,1.28915 0.0241,0.37738 0.06876,0.70543 0.12739,0.9819 0.05436,0.27654 0.120779,0.5096 0.205899,0.70083 0.07964,0.1914 0.179331,0.34537 0.295863,0.45707 0.117106,0.11711 0.248156,0.19926 0.397293,0.24757 0.148535,0.0484 0.313981,0.0713 0.494519,0.0713 z"
         id="path1124"
         inkscape:connector-curvature="0"
         sodipodi:nodetypes="sccssssccssssccscccscsccccccccccccsccccsssssssssssssssssscccsscccsccccccccccccscccccccscccscccsscssssssscccsscccscccccsccccsccc" />
      <path
         inkscape:connector-curvature="0"
         style="opacity:1;fill:#e3e3e3;fill-opacity:1;stroke:none;stroke-width:5.19848633;stroke-linecap:round;stroke-linejoin:round;stroke-miterlimit:4;stroke-dasharray:none;stroke-dashoffset:10.3937006;stroke-opacity:1"
         d="m -20.054832,262.3078 c -1.321623,0 -2.383897,1.06226 -2.383897,2.38389 v 33.38684 c 0,1.32162 1.062274,2.38391 2.383897,2.38391 h 0.7957 v -1.98449 c 0,-0.65587 0.536179,-1.19505 1.191907,-1.19505 h 3.97524 c 0.655856,0 1.19192,0.53918 1.19192,1.19505 v 1.98449 h 31.79865 v -1.98449 c 0,-0.65587 0.536177,-1.19505 1.191903,-1.19505 h 3.975236 c 0.655856,0 1.191927,0.53918 1.191927,1.19505 v 1.98449 h 0.795678 c 1.321625,0 2.383905,-1.06229 2.383905,-2.38391 v -33.38684 c 0,-1.32163 -1.06228,-2.38389 -2.383905,-2.38389 h -0.795678 v 1.98453 c 0,0.6558 -0.536202,1.19506 -1.191927,1.19506 h -3.975236 c -0.655856,0 -1.191903,-0.53921 -1.191903,-1.19506 v -1.98453 h -31.79865 v 1.98453 c 0,0.6558 -0.536193,1.19506 -1.19192,1.19506 h -3.97524 c -0.655857,0 -1.191907,-0.53921 -1.191907,-1.19506 v -1.98453 z m 13.117613,4.76779 h 19.872954 c 0.655856,0 1.191976,0.53618 1.191976,1.19191 v 26.23523 c 0,0.65585 -0.536194,1.19192 -1.191976,1.19192 H -6.937219 c -0.655856,0 -1.191921,-0.53618 -1.191921,-1.19192 V 268.2675 c 0,-0.65579 0.53618,-1.19191 1.191921,-1.19191 z m -11.130006,1.59133 h 3.97524 c 0.655856,0 1.19192,0.53617 1.19192,1.19192 v 3.97523 c 0,0.65586 -0.536193,1.19197 -1.19192,1.19197 h -3.97524 c -0.655857,0 -1.191907,-0.53618 -1.191907,-1.19197 v -3.97523 c 0,-0.65579 0.536179,-1.19192 1.191907,-1.19192 z m 38.157713,0 h 3.975236 c 0.655856,0 1.191927,0.53617 1.191927,1.19192 v 3.97523 c 0,0.65586 -0.536202,1.19197 -1.191927,1.19197 h -3.975236 c -0.655856,0 -1.191903,-0.53618 -1.191903,-1.19197 v -3.97523 c 0,-0.65579 0.536177,-1.19192 1.191903,-1.19192 z M 3.147465,269.2816 c -0.741236,0 -1.372045,0.13459 -1.890898,0.40274 -0.51322303,0.26809 -0.93246103,0.65272 -1.25741802817,1.15449 -0.31941700183,0.50175 -0.55068300183,1.11004 -0.69897900183,1.82844 -0.142487,0.71274 -0.215552,1.51205 -0.215552,2.39011 0,0.88955 0.06031,1.68627 0.171472,2.39326 0.119507,0.70133 0.323642,1.29758 0.614678,1.78793 0.291035,0.48486 0.683387,0.8579 1.17948103,1.1202 0.495727,0.25661 1.123145,0.38402 1.881526,0.38402 0.746908,0 1.377717,-0.13459 1.890825,-0.40274 0.518674,-0.2681 0.938205,-0.64964 1.257491,-1.15141 0.324852,-0.50176 0.559738,-1.11263 0.702053,-1.82536 0.142486,-0.71275 0.215551,-1.50947 0.215551,-2.39327 0,-0.88946 -0.06104,-1.68565 -0.174504,-2.38696 -0.114186,-0.70707 -0.314579,-1.30326 -0.605312,-1.78795 -0.291028,-0.49029 -0.687065,-0.86357 -1.188831,-1.12012 -0.495726,-0.26206 -1.123144,-0.39307 -1.881525,-0.39307 z m -7.544767,0.18718 c -0.310354,0 -0.558528,0.24817 -0.558528,0.55852 v 9.9786 c 0,0.31036 0.248174,0.56153 0.558528,0.56153 h 1.051526 c 0.310354,0 0.561543,-0.25117 0.561543,-0.56153 v -9.9786 c 0,-0.31035 -0.251189,-0.55852 -0.561543,-0.55852 z m 13.779081,0 c -0.310354,0 -0.561543,0.24817 -0.561543,0.55852 v 9.9786 c 0,0.31036 0.251189,0.56153 0.561543,0.56153 h 1.048387 c 0.310355,0 0.561544,-0.25117 0.561544,-0.56153 v -9.9786 c 0,-0.31035 -0.251189,-0.55852 -0.561544,-0.55852 z m -6.331053,1.59448 h 0.0033 c 0.193822,0 0.370736,0.0241 0.530751,0.0748 0.159411,0.0483 0.301905,0.13948 0.427491,0.26508 0.125538,0.1195 0.22946,0.28137 0.315192,0.48666 0.09121,0.2053 0.167852,0.45527 0.224614,0.75198 0.06276,0.29647 0.105721,0.64982 0.13402,1.05462 0.03016,0.39912 0.04225,0.86086 0.04225,1.38544 0,0.43354 -0.01152,0.82957 -0.0362,1.18877 -0.01806,0.35926 -0.05426,0.6791 -0.112324,0.96416 -0.04821,0.285 -0.120217,0.53861 -0.2059,0.75512 -0.08576,0.21677 -0.193218,0.3943 -0.324247,0.53678 -0.125537,0.14249 -0.272314,0.2536 -0.443197,0.32788 -0.170876,0.0682 -0.367109,0.10331 -0.589917,0.10331 -0.296478,0 -0.550675,-0.061 -0.761339,-0.18113 -0.211335,-0.12555 -0.384025,-0.34055 -0.521085,-0.64282 -0.130996,-0.30794 -0.227645,-0.71932 -0.290431,-1.23251 -0.06276,-0.51866 -0.09667,-1.16956 -0.09667,-1.95638 0,-0.64432 0.02411,-1.20968 0.07788,-1.69429 0.0483,-0.48485 0.139471,-0.8888 0.265082,-1.21378 0.130996,-0.32485 0.304323,-0.56757 0.521084,-0.72704 0.222203,-0.16544 0.499951,-0.24636 0.836219,-0.24636 z m -21.117951,7.14227 h 3.97524 c 0.655856,0 1.19192,0.53617 1.19192,1.1919 v 3.97525 c 0,0.65586 -0.536193,1.19191 -1.19192,1.19191 h -3.97524 c -0.655857,0 -1.191907,-0.53618 -1.191907,-1.19191 v -3.97525 c 0,-0.65578 0.536179,-1.1919 1.191907,-1.1919 z m 38.157713,0 h 3.975236 c 0.655856,0 1.191927,0.53617 1.191927,1.1919 v 3.97525 c 0,0.65586 -0.536202,1.19191 -1.191927,1.19191 h -3.975236 c -0.655856,0 -1.191903,-0.53618 -1.191903,-1.19191 v -3.97525 c 0,-0.65578 0.536177,-1.1919 1.191903,-1.1919 z m -12.159663,4.02202 c -0.741228,0 -1.372037,0.13458 -1.890882,0.40273 -0.513239,0.2681 -0.932469,0.65273 -1.257426,1.15449 -0.319417,0.50176 -0.553707,1.11004 -0.702109,1.82851 -0.142486,0.71274 -0.211932,1.51206 -0.211932,2.39012 0,0.88946 0.06031,1.68618 0.171472,2.39325 0.119499,0.70132 0.323634,1.29753 0.61467,1.78787 0.291036,0.48486 0.686541,0.8579 1.182554,1.12019 0.49634,0.25662 1.12321,0.38403 1.881534,0.38403 0.746981,0 1.374628,-0.13459 1.887753,-0.40274 0.518665,-0.26809 0.938196,-0.65273 1.257491,-1.15449 0.324843,-0.50176 0.559729,-1.10641 0.702044,-1.81909 0.142486,-0.71274 0.211939,-1.5126 0.211939,-2.39639 0,-0.88948 -0.05426,-1.68566 -0.168473,-2.38704 -0.114195,-0.70701 -0.317594,-1.3032 -0.608458,-1.78788 -0.291036,-0.49029 -0.687065,-0.86362 -1.188831,-1.12018 -0.495727,-0.26205 -1.123144,-0.39308 -1.881534,-0.39308 z M -4.4223,282.40869 c -0.310362,0 -0.561543,0.24815 -0.561543,0.55853 v 9.98173 c 0,0.31036 0.251181,0.55852 0.561543,0.55852 h 1.048387 c 0.310355,0 0.561544,-0.24816 0.561544,-0.55852 v -9.98173 c 0,-0.31038 -0.251189,-0.55853 -0.561544,-0.55853 z m 4.81143097,0 c -0.310346,0 -0.561528,0.24815 -0.561528,0.55853 v 9.98173 c 0,0.31036 0.251182,0.55852 0.561528,0.55852 H 1.437534 c 0.310355,0 0.561544,-0.24816 0.561544,-0.55852 v -9.98173 c 0,-0.31038 -0.251189,-0.55853 -0.561544,-0.55853 z m 7.44810103,1.59756 c 0.193822,0 0.370745,0.0241 0.530752,0.0779 0.15941,0.0482 0.301904,0.13948 0.427491,0.26508 0.125537,0.11951 0.22946,0.28138 0.315192,0.48667 0.09121,0.2053 0.164231,0.45527 0.221598,0.75199 0.06276,0.29647 0.108736,0.64981 0.137036,1.05466 0.03015,0.39912 0.04225,0.86086 0.04225,1.38539 0,0.43351 -0.01152,0.82963 -0.0362,1.18883 -0.01806,0.35926 -0.05426,0.6791 -0.112324,0.96416 -0.0483,0.285 -0.117202,0.53557 -0.202884,0.75198 -0.08575,0.21676 -0.193218,0.39731 -0.324247,0.53981 -0.125537,0.14249 -0.275329,0.25058 -0.446213,0.32425 -0.170867,0.0682 -0.367108,0.10331 -0.589916,0.10331 -0.296479,0 -0.550071,-0.0617 -0.76134,-0.18116 -0.21073,-0.12555 -0.384024,-0.33753 -0.521084,-0.63961 -0.130997,-0.30794 -0.230662,-0.71938 -0.293463,-1.23249 -0.06276,-0.51868 -0.09365,-1.16958 -0.09365,-1.95646 0,-0.64427 0.02411,-1.20961 0.07788,-1.69429 0.04821,-0.48486 0.139471,-0.88875 0.265082,-1.21378 0.130996,-0.32485 0.304323,-0.56758 0.521084,-0.72704 0.222203,-0.16545 0.502967,-0.24937 0.839349,-0.24937 z m -25.904457,3.73812 h 3.97524 c 0.655856,0 1.19192,0.53618 1.19192,1.19191 v 3.97523 c 0,0.65586 -0.536193,1.19192 -1.19192,1.19192 h -3.97524 c -0.655857,0 -1.191907,-0.53618 -1.191907,-1.19192 v -3.97523 c 0,-0.65585 0.536179,-1.19191 1.191907,-1.19191 z m 38.157713,0 h 3.975236 c 0.655856,0 1.191927,0.53618 1.191927,1.19191 v 3.97523 c 0,0.65586 -0.536202,1.19192 -1.191927,1.19192 h -3.975236 c -0.655856,0 -1.191903,-0.53618 -1.191903,-1.19192 v -3.97523 c 0,-0.65585 0.536177,-1.19191 1.191903,-1.19191 z"
         id="rect819" />
      <path
         inkscape:connector-curvature="0"
         style="fill:#e3e3e3;fill-opacity:1;stroke-width:0.10030314"
         d="m 123.25799,255.70268 c -1.33291,0 -2.41455,1.08164 -2.41455,2.41454 v 1.26068 c 0.72081,-0.40213 1.54358,-0.63192 2.41455,-0.63192 h 17.70322 c 0.87091,0 1.69368,0.22936 2.41449,0.63192 v -1.26068 c 0,-1.3329 -1.08165,-2.41454 -2.41449,-2.41454 z m 0,7.48874 c -1.33291,0 -2.41455,1.07852 -2.41455,2.41135 v 1.3079 c 0.72081,-0.40214 1.54358,-0.63509 2.41455,-0.63509 h 17.70322 c 0.87091,0 1.69368,0.23302 2.41449,0.63509 v -1.3079 c 0,-1.33283 -1.08165,-2.41135 -2.41449,-2.41135 z m 0,7.70255 c -1.33291,0 -2.41455,1.08165 -2.41455,2.41449 v 1.26067 c 0.72081,-0.40213 1.54358,-0.63191 2.41455,-0.63185 h 17.70322 c 0.87091,0 1.69368,0.22935 2.41449,0.63185 v -1.26067 c 0,-1.33284 -1.08165,-2.41449 -2.41449,-2.41449 z m -14.40844,7.04856 c -1.33406,0 -2.4051,1.07106 -2.4051,2.40512 v 24.31167 c 0,1.33401 1.07104,2.40823 2.4051,2.40823 h 0.80483 v -2.00583 c 0,-0.66198 0.54208,-1.20411 1.2041,-1.20411 h 4.0116 c 0.66198,0 1.20411,0.54207 1.20411,1.20411 v 2.00583 h 32.09594 v -2.00583 c 0,-0.66198 0.54208,-1.20411 1.20412,-1.20411 h 4.01159 c 0.66197,0 1.20411,0.54207 1.20411,1.20411 v 2.00583 h 0.80166 c 1.33405,0 2.40827,-1.07422 2.40827,-2.40823 v -24.31167 c 0,-1.33406 -1.07422,-2.40512 -2.40827,-2.40512 h -0.85198 v 2.10646 c 0,0.64786 -0.52138,1.16949 -1.16948,1.16949 h -4.08711 c -0.64791,0 -1.16948,-0.52139 -1.16948,-1.16949 v -2.10646 h -32.0645 v 2.10646 c 0,0.64786 -0.5214,1.16949 -1.16955,1.16949 h -4.08702 c -0.64795,0 -1.16956,-0.52139 -1.16956,-1.16949 v -2.10646 z m 13.24206,4.81333 h 20.0611 c 0.66199,0 1.20412,0.54205 1.20412,1.2041 v 17.09016 c 0,0.66205 -0.54207,1.20409 -1.20412,1.20409 h -20.0611 c -0.66205,0 -1.20412,-0.54204 -1.20412,-1.20409 v -17.09016 c 0,-0.66199 0.54207,-1.2041 1.20412,-1.2041 z m -11.23313,1.60338 h 4.0116 c 0.66198,0 1.20411,0.54207 1.20411,1.20411 v 4.01158 c 0,0.66204 -0.54207,1.20411 -1.20411,1.20411 h -4.0116 c -0.66202,0 -1.2041,-0.54207 -1.2041,-1.20411 v -4.01158 c 0,-0.66198 0.54208,-1.20411 1.2041,-1.20411 z m 38.51577,0 h 4.01159 c 0.66197,0 1.20411,0.54207 1.20411,1.20411 v 4.01158 c 0,0.66204 -0.54208,1.20411 -1.20411,1.20411 h -4.01159 c -0.66204,0 -1.20412,-0.54207 -1.20412,-1.20411 v -4.01158 c 0,-0.66198 0.54208,-1.20411 1.20412,-1.20411 z m -38.51577,9.62973 h 4.0116 c 0.66198,0 1.20411,0.54206 1.20411,1.2041 v 4.0116 c 0,0.66198 -0.54207,1.20409 -1.20411,1.20409 h -4.0116 c -0.66202,0 -1.2041,-0.54205 -1.2041,-1.20409 v -4.0116 c 0,-0.66197 0.54208,-1.2041 1.2041,-1.2041 z m 38.51577,0 h 4.01159 c 0.66197,0 1.20411,0.54206 1.20411,1.2041 v 4.0116 c 0,0.66198 -0.54208,1.20409 -1.20411,1.20409 h -4.01159 c -0.66204,0 -1.20412,-0.54205 -1.20412,-1.20409 v -4.0116 c 0,-0.66197 0.54208,-1.2041 1.20412,-1.2041 z"
         id="path1222" />
      <path
         inkscape:connector-curvature="0"
         style="fill:#8ad891;fill-opacity:1;stroke-width:0.1004613"
         d="m 243.90238,255.66854 c -2.44967,-0.0548 -4.92679,1.65779 -4.92679,4.80727 v 41.79916 c 0,3.76731 4.08913,6.03836 7.2738,4.1497 l 35.36223,-20.89644 c 3.15449,-1.85851 3.16453,-6.43773 0,-8.29624 l -35.36223,-20.90587 c -0.71833,-0.42435 -1.53048,-0.63889 -2.34701,-0.65758 z m 2.86299,14.77724 1.13883,2.28097 2.28097,1.14201 -2.28097,1.13889 -1.13883,2.2778 -1.1389,-2.2778 -2.28097,-1.13889 2.28097,-1.14201 z m 6.15688,0 0.68271,1.3686 1.36854,0.68583 -1.36854,0.68272 -0.68271,1.36854 -0.68583,-1.36854 -1.36543,-0.68272 1.36543,-0.68583 z m 7.31471,0 c 0.35006,0 0.69909,0.13212 0.96587,0.39939 l 3.62747,3.62746 c 0.53454,0.53393 0.53454,1.4013 0,1.93486 l -15.52292,15.52602 c -0.26727,0.26726 -0.61569,0.39937 -0.96588,0.39937 -0.34945,0 -0.70176,-0.13211 -0.96897,-0.39937 l -3.62747,-3.62742 c -0.53454,-0.53391 -0.53454,-1.40044 0,-1.93484 l 15.52603,-15.52608 c 0.26726,-0.26789 0.61574,-0.39939 0.96587,-0.39939 z m 0,2.81898 -3.6998,3.70294 2.17394,2.17711 3.70296,-3.70296 z m 1.57621,9.4949 1.13889,2.2778 2.28407,1.14201 -2.28407,1.1389 -1.13889,2.28097 -1.1389,-2.28097 -2.2809,-1.1389 2.2809,-1.14201 z"
         id="path819" />
    </g>
    <text
       xml:space="preserve"
       style="font-style:italic;font-variant:normal;font-weight:300;font-stretch:normal;font-size:6.27027225px;line-height:1.25;font-family:Ubuntu;-inkscape-font-specification:'Ubuntu, Light Italic';font-variant-ligatures:normal;font-variant-caps:normal;font-variant-numeric:normal;font-feature-settings:normal;text-align:start;letter-spacing:0px;word-spacing:0px;writing-mode:lr-tb;text-anchor:start;fill:#e3e3e3;fill-opacity:1;stroke:none;stroke-width:0.15675816"
       x="29.118948"
       y="96.62751"
       id="text1157"><tspan
         sodipodi:role="line"
         id="tspan1155"
         x="29.118948"
         y="96.62751"
         style="font-style:italic;font-variant:normal;font-weight:300;font-stretch:normal;font-size:6.27027225px;font-family:Ubuntu;-inkscape-font-specification:'Ubuntu, Light Italic';font-variant-ligatures:normal;font-variant-caps:normal;font-variant-numeric:normal;font-feature-settings:normal;text-align:start;writing-mode:lr-tb;text-anchor:start;fill:#e3e3e3;stroke-width:0.15675816">Raw image file</tspan></text>
    <text
       id="text1161"
       y="96.62751"
       x="121.72311"
       style="font-style:italic;font-variant:normal;font-weight:300;font-stretch:normal;font-size:6.27027225px;line-height:1.25;font-family:Ubuntu;-inkscape-font-specification:'Ubuntu, Light Italic';font-variant-ligatures:normal;font-variant-caps:normal;font-variant-numeric:normal;font-feature-settings:normal;text-align:start;letter-spacing:0px;word-spacing:0px;writing-mode:lr-tb;text-anchor:start;fill:#e3e3e3;fill-opacity:1;stroke:none;stroke-width:0.15675816"
       xml:space="preserve"><tspan
         style="font-style:italic;font-variant:normal;font-weight:300;font-stretch:normal;font-size:6.27027225px;font-family:Ubuntu;-inkscape-font-specification:'Ubuntu, Light Italic';font-variant-ligatures:normal;font-variant-caps:normal;font-variant-numeric:normal;font-feature-settings:normal;text-align:start;writing-mode:lr-tb;text-anchor:start;fill:#e3e3e3;stroke-width:0.15675816"
         y="96.62751"
         x="121.72311"
         id="tspan1159"
         sodipodi:role="line">Image bit depth</tspan></text>
    <text
       xml:space="preserve"
       style="font-style:italic;font-variant:normal;font-weight:300;font-stretch:normal;font-size:6.27027225px;line-height:1.25;font-family:Ubuntu;-inkscape-font-specification:'Ubuntu, Light Italic';font-variant-ligatures:normal;font-variant-caps:normal;font-variant-numeric:normal;font-feature-settings:normal;text-align:start;letter-spacing:0px;word-spacing:0px;writing-mode:lr-tb;text-anchor:start;fill:#e3e3e3;fill-opacity:1;stroke:none;stroke-width:0.15675816"
       x="228.87935"
       y="96.62751"
       id="text1165"><tspan
         sodipodi:role="line"
         id="tspan1163"
         x="228.87935"
         y="96.62751"
         style="font-style:italic;font-variant:normal;font-weight:300;font-stretch:normal;font-size:6.27027225px;font-family:Ubuntu;-inkscape-font-specification:'Ubuntu, Light Italic';font-variant-ligatures:normal;font-variant-caps:normal;font-variant-numeric:normal;font-feature-settings:normal;text-align:start;writing-mode:lr-tb;text-anchor:start;fill:#e3e3e3;stroke-width:0.15675816">Pixels</tspan></text>
    <text
       id="text1169"
       y="184.31799"
       x="31.386805"
       style="font-style:italic;font-variant:normal;font-weight:300;font-stretch:normal;font-size:6.27027225px;line-height:1.25;font-family:Ubuntu;-inkscape-font-specification:'Ubuntu, Light Italic';font-variant-ligatures:normal;font-variant-caps:normal;font-variant-numeric:normal;font-feature-settings:normal;text-align:start;letter-spacing:0px;word-spacing:0px;writing-mode:lr-tb;text-anchor:start;fill:#e3e3e3;fill-opacity:1;stroke:none;stroke-width:0.15675816"
       xml:space="preserve"><tspan
         style="font-style:italic;font-variant:normal;font-weight:300;font-stretch:normal;font-size:6.27027225px;font-family:Ubuntu;-inkscape-font-specification:'Ubuntu, Light Italic';font-variant-ligatures:normal;font-variant-caps:normal;font-variant-numeric:normal;font-feature-settings:normal;text-align:start;writing-mode:lr-tb;text-anchor:start;fill:#e3e3e3;stroke-width:0.15675816"
         y="184.31799"
         x="31.386805"
         id="tspan1167"
         sodipodi:role="line">Audio codec</tspan></text>
    <text
       xml:space="preserve"
       style="font-style:italic;font-variant:normal;font-weight:300;font-stretch:normal;font-size:6.27027225px;line-height:1.25;font-family:Ubuntu;-inkscape-font-specification:'Ubuntu, Light Italic';font-variant-ligatures:normal;font-variant-caps:normal;font-variant-numeric:normal;font-feature-settings:normal;text-align:start;letter-spacing:0px;word-spacing:0px;writing-mode:lr-tb;text-anchor:start;fill:#e3e3e3;fill-opacity:1;stroke:none;stroke-width:0.15675816"
       x="120.77817"
       y="184.31799"
       id="text1173"><tspan
         sodipodi:role="line"
         id="tspan1171"
         x="120.77817"
         y="184.31799"
         style="font-style:italic;font-variant:normal;font-weight:300;font-stretch:normal;font-size:6.27027225px;font-family:Ubuntu;-inkscape-font-specification:'Ubuntu, Light Italic';font-variant-ligatures:normal;font-variant-caps:normal;font-variant-numeric:normal;font-feature-settings:normal;text-align:start;writing-mode:lr-tb;text-anchor:start;fill:#e3e3e3;stroke-width:0.15675816">Audio sampling</tspan></text>
    <text
       id="text1177"
       y="184.31799"
       x="214.32727"
       style="font-style:italic;font-variant:normal;font-weight:300;font-stretch:normal;font-size:6.27027225px;line-height:1.25;font-family:Ubuntu;-inkscape-font-specification:'Ubuntu, Light Italic';font-variant-ligatures:normal;font-variant-caps:normal;font-variant-numeric:normal;font-feature-settings:normal;text-align:start;letter-spacing:0px;word-spacing:0px;writing-mode:lr-tb;text-anchor:start;fill:#e3e3e3;fill-opacity:1;stroke:none;stroke-width:0.15675816"
       xml:space="preserve"><tspan
         style="font-style:italic;font-variant:normal;font-weight:300;font-stretch:normal;font-size:6.27027225px;font-family:Ubuntu;-inkscape-font-specification:'Ubuntu, Light Italic';font-variant-ligatures:normal;font-variant-caps:normal;font-variant-numeric:normal;font-feature-settings:normal;text-align:start;writing-mode:lr-tb;text-anchor:start;fill:#e3e3e3;stroke-width:0.15675816"
         y="184.31799"
         x="214.32727"
         id="tspan1175"
         sodipodi:role="line">Audio bit depth</tspan></text>
    <text
       xml:space="preserve"
       style="font-style:italic;font-variant:normal;font-weight:300;font-stretch:normal;font-size:6.27027225px;line-height:1.25;font-family:Ubuntu;-inkscape-font-specification:'Ubuntu, Light Italic';font-variant-ligatures:normal;font-variant-caps:normal;font-variant-numeric:normal;font-feature-settings:normal;text-align:start;letter-spacing:0px;word-spacing:0px;writing-mode:lr-tb;text-anchor:start;fill:#e3e3e3;fill-opacity:1;stroke:none;stroke-width:0.15675816"
       x="31.386805"
       y="273.1424"
       id="text1181"><tspan
         sodipodi:role="line"
         id="tspan1179"
         x="31.386805"
         y="273.1424"
         style="font-style:italic;font-variant:normal;font-weight:300;font-stretch:normal;font-size:6.27027225px;font-family:Ubuntu;-inkscape-font-specification:'Ubuntu, Light Italic';font-variant-ligatures:normal;font-variant-caps:normal;font-variant-numeric:normal;font-feature-settings:normal;text-align:start;writing-mode:lr-tb;text-anchor:start;fill:#e3e3e3;stroke-width:0.15675816">Video codec</tspan></text>
    <text
       id="text1185"
       y="273.1424"
       x="127.58174"
       style="font-style:italic;font-variant:normal;font-weight:300;font-stretch:normal;font-size:6.27027225px;line-height:1.25;font-family:Ubuntu;-inkscape-font-specification:'Ubuntu, Light Italic';font-variant-ligatures:normal;font-variant-caps:normal;font-variant-numeric:normal;font-feature-settings:normal;text-align:start;letter-spacing:0px;word-spacing:0px;writing-mode:lr-tb;text-anchor:start;fill:#e3e3e3;fill-opacity:1;stroke:none;stroke-width:0.15675816"
       xml:space="preserve"><tspan
         style="font-style:italic;font-variant:normal;font-weight:300;font-stretch:normal;font-size:6.27027225px;font-family:Ubuntu;-inkscape-font-specification:'Ubuntu, Light Italic';font-variant-ligatures:normal;font-variant-caps:normal;font-variant-numeric:normal;font-feature-settings:normal;text-align:start;writing-mode:lr-tb;text-anchor:start;fill:#e3e3e3;stroke-width:0.15675816"
         y="273.1424"
         x="127.58174"
         id="tspan1183"
         sodipodi:role="line">Framerate</tspan></text>
    <text
       xml:space="preserve"
       style="font-style:italic;font-variant:normal;font-weight:300;font-stretch:normal;font-size:6.27027225px;line-height:1.25;font-family:Ubuntu;-inkscape-font-specification:'Ubuntu, Light Italic';font-variant-ligatures:normal;font-variant-caps:normal;font-variant-numeric:normal;font-feature-settings:normal;text-align:start;letter-spacing:0px;word-spacing:0px;writing-mode:lr-tb;text-anchor:start;fill:#e3e3e3;fill-opacity:1;stroke:none;stroke-width:0.15675816"
       x="221.8868"
       y="273.1424"
       id="text1189"><tspan
         sodipodi:role="line"
         id="tspan1187"
         x="221.8868"
         y="273.1424"
         style="font-style:italic;font-variant:normal;font-weight:300;font-stretch:normal;font-size:6.27027225px;font-family:Ubuntu;-inkscape-font-specification:'Ubuntu, Light Italic';font-variant-ligatures:normal;font-variant-caps:normal;font-variant-numeric:normal;font-feature-settings:normal;text-align:start;writing-mode:lr-tb;text-anchor:start;fill:#e3e3e3;stroke-width:0.15675816">Encode!</tspan></text>
  </g>
</svg>
