<?xml version="1.0" encoding="UTF-8" standalone="no"?>
<!-- Created with Inkscape (http://www.inkscape.org/) -->

<svg
   width="256"
   height="256"
   viewBox="0 0 67.73333 67.733335"
   version="1.1"
   id="svg8"
   inkscape:version="1.2.2 (732a01da63, 2022-12-09)"
   sodipodi:docname="dublast-icon.svg"
   inkscape:export-filename="dublast-icon.png"
   inkscape:export-xdpi="192"
   inkscape:export-ydpi="192"
   xmlns:inkscape="http://www.inkscape.org/namespaces/inkscape"
   xmlns:sodipodi="http://sodipodi.sourceforge.net/DTD/sodipodi-0.dtd"
   xmlns="http://www.w3.org/2000/svg"
   xmlns:svg="http://www.w3.org/2000/svg"
   xmlns:rdf="http://www.w3.org/1999/02/22-rdf-syntax-ns#"
   xmlns:cc="http://creativecommons.org/ns#"
   xmlns:dc="http://purl.org/dc/elements/1.1/">
  <defs
     id="defs2" />
  <sodipodi:namedview
     id="base"
     pagecolor="#ffffff"
     bordercolor="#666666"
     borderopacity="1.0"
     inkscape:pageopacity="0.0"
     inkscape:pageshadow="2"
     inkscape:zoom="0.98994949"
     inkscape:cx="312.64221"
     inkscape:cy="40.406102"
     inkscape:document-units="px"
     inkscape:current-layer="layer1"
     showgrid="false"
     units="px"
     inkscape:window-width="3440"
     inkscape:window-height="1369"
     inkscape:window-x="1912"
     inkscape:window-y="-8"
     inkscape:window-maximized="1"
     fit-margin-top="0"
     fit-margin-left="0"
     fit-margin-right="0"
     fit-margin-bottom="0"
     inkscape:showpageshadow="0"
     inkscape:pagecheckerboard="0"
     inkscape:deskcolor="#d1d1d1" />
  <metadata
     id="metadata5">
    <rdf:RDF>
      <cc:Work
         rdf:about="">
        <dc:format>image/svg+xml</dc:format>
        <dc:type
           rdf:resource="http://purl.org/dc/dcmitype/StillImage" />
      </cc:Work>
    </rdf:RDF>
  </metadata>
  <g
     inkscape:label="Calque 1"
     inkscape:groupmode="layer"
     id="layer1"
     transform="translate(-34.00727,-204.17186)">
    <path
       id="path826"
       style="display:inline;fill:#a526c4;stroke-width:0.132292;fill-opacity:1"
       d="M 37.18227 212.21375 C 35.422792 212.21375 34.00727 213.62928 34.00727 215.38875 L 34.00727 259.83875 C 34.00727 261.59823 35.422792 263.01375 37.18227 263.01375 L 38.240603 263.01375 L 38.240603 260.36791 C 38.240603 259.49478 38.954978 258.78041 39.828103 258.78041 L 45.11977 258.78041 C 45.992895 258.78041 46.70727 259.49478 46.70727 260.36791 L 46.70727 263.01375 L 89.040603 263.01375 L 89.040603 260.36791 C 89.040603 259.49478 89.754979 258.78041 90.628103 258.78041 L 95.919769 258.78041 C 96.792892 258.78041 97.507269 259.49478 97.507269 260.36791 L 97.507269 263.01375 L 98.565603 263.01375 C 100.32508 263.01375 101.7406 261.59823 101.7406 259.83875 L 101.7406 215.38875 C 101.7406 213.62928 100.32508 212.21375 98.565603 212.21375 L 97.507269 212.21375 L 97.507269 214.85958 C 97.507269 215.73271 96.792892 216.44708 95.919769 216.44708 L 90.628103 216.44708 C 89.754979 216.44708 89.040603 215.73271 89.040603 214.85958 L 89.040603 212.21375 L 46.70727 212.21375 L 46.70727 214.85958 C 46.70727 215.73271 45.992895 216.44708 45.11977 216.44708 L 39.828103 216.44708 C 38.954978 216.44708 38.240603 215.73271 38.240603 214.85958 L 38.240603 212.21375 L 37.18227 212.21375 z M 39.828103 220.68041 L 45.11977 220.68041 C 45.992895 220.68041 46.70727 221.39478 46.70727 222.26791 L 46.70727 227.55958 C 46.70727 228.4327 45.992895 229.14708 45.11977 229.14708 L 39.828103 229.14708 C 38.954978 229.14708 38.240603 228.4327 38.240603 227.55958 L 38.240603 222.26791 C 38.240603 221.39478 38.954978 220.68041 39.828103 220.68041 z M 90.628103 220.68041 L 95.919769 220.68041 C 96.792892 220.68041 97.507269 221.39478 97.507269 222.26791 L 97.507269 227.55958 C 97.507269 228.4327 96.792892 229.14708 95.919769 229.14708 L 90.628103 229.14708 C 89.754979 229.14708 89.040603 228.4327 89.040603 227.55958 L 89.040603 222.26791 C 89.040603 221.39478 89.754979 220.68041 90.628103 220.68041 z M 59.086876 223.63269 C 59.530778 223.64285 59.973317 223.76007 60.3638 223.99081 L 79.587433 235.356 C 81.307745 236.36634 81.302283 238.8565 79.587433 239.86684 L 60.3638 251.22635 C 58.632565 252.25308 56.40952 251.01866 56.40952 248.97068 L 56.40952 226.24648 C 56.40952 224.53429 57.755169 223.6022 59.086876 223.63269 z M 39.828103 233.38041 L 45.11977 233.38041 C 45.992895 233.38041 46.70727 234.09478 46.70727 234.96791 L 46.70727 240.25958 C 46.70727 241.13271 45.992895 241.84708 45.11977 241.84708 L 39.828103 241.84708 C 38.954978 241.84708 38.240603 241.13271 38.240603 240.25958 L 38.240603 234.96791 C 38.240603 234.09478 38.954978 233.38041 39.828103 233.38041 z M 90.628103 233.38041 L 95.919769 233.38041 C 96.792892 233.38041 97.507269 234.09478 97.507269 234.96791 L 97.507269 240.25958 C 97.507269 241.13271 96.792892 241.84708 95.919769 241.84708 L 90.628103 241.84708 C 89.754979 241.84708 89.040603 241.13271 89.040603 240.25958 L 89.040603 234.96791 C 89.040603 234.09478 89.754979 233.38041 90.628103 233.38041 z M 39.828103 246.08041 L 45.11977 246.08041 C 45.992895 246.08041 46.70727 246.79478 46.70727 247.66791 L 46.70727 252.95958 C 46.70727 253.83271 45.992895 254.54708 45.11977 254.54708 L 39.828103 254.54708 C 38.954978 254.54708 38.240603 253.83271 38.240603 252.95958 L 38.240603 247.66791 C 38.240603 246.79478 38.954978 246.08041 39.828103 246.08041 z M 90.628103 246.08041 L 95.919769 246.08041 C 96.792892 246.08041 97.507269 246.79478 97.507269 247.66791 L 97.507269 252.95958 C 97.507269 253.83271 96.792892 254.54708 95.919769 254.54708 L 90.628103 254.54708 C 89.754979 254.54708 89.040603 253.83271 89.040603 252.95958 L 89.040603 247.66791 C 89.040603 246.79478 89.754979 246.08041 90.628103 246.08041 z " />
  </g>
</svg>
