<svg id="Calque_1" data-name="Calque 1" xmlns="http://www.w3.org/2000/svg" viewBox="0 0 32 32"><title>addhand_r</title><path d="M23.5,18.5l.12-8.61a1.61,1.61,0,1,0-3.22,0V13.8h-.46V6.21a1.61,1.61,0,0,0-3.22,0V13.8h-.46V4.37a1.61,1.61,0,0,0-3.22,0V13.8h-.46V6.21a1.61,1.61,0,1,0-3.22,0V17.48l-2.21-3a1.84,1.84,0,0,0-2.94,2.22l5.52,7.36a1.84,1.84,0,0,0,1.47.73l3.3-.34,1,2-4.3.18a3.74,3.74,0,0,1-2.95-1.47L2.73,17.85A3.73,3.73,0,0,1,2,15.64,3.68,3.68,0,0,1,5.68,12a3.39,3.39,0,0,1,1.84.49V6.21A3.46,3.46,0,0,1,11,2.76a3.05,3.05,0,0,1,.6.06,3.44,3.44,0,0,1,6.15,0,3.23,3.23,0,0,1,.61-.06,3.46,3.46,0,0,1,3.45,3.45v.25a3.44,3.44,0,0,1,3.68,3.43l0,8.61Z" style="fill:#ec1818"/><path d="M20.73,31.13A7.27,7.27,0,1,1,28,23.87,7.27,7.27,0,0,1,20.73,31.13ZM25,23.26a.61.61,0,0,0-.61-.6H21.94V20.24a.61.61,0,0,0-.61-.61H20.12a.61.61,0,0,0-.6.61v2.42H17.1a.61.61,0,0,0-.61.6v1.21a.61.61,0,0,0,.61.61h2.42V27.5a.61.61,0,0,0,.6.61h1.21a.61.61,0,0,0,.61-.61V25.08h2.42a.61.61,0,0,0,.61-.61Z" style="fill:#ec1818"/></svg>