<?xml version="1.0" encoding="UTF-8" standalone="no"?>
<!-- Created with Inkscape (http://www.inkscape.org/) -->

<svg
   xmlns:dc="http://purl.org/dc/elements/1.1/"
   xmlns:cc="http://creativecommons.org/ns#"
   xmlns:rdf="http://www.w3.org/1999/02/22-rdf-syntax-ns#"
   xmlns:svg="http://www.w3.org/2000/svg"
   xmlns="http://www.w3.org/2000/svg"
   xmlns:sodipodi="http://sodipodi.sourceforge.net/DTD/sodipodi-0.dtd"
   xmlns:inkscape="http://www.inkscape.org/namespaces/inkscape"
   width="262.95245"
   height="169.75011"
   viewBox="0 0 69.572834 44.91305"
   version="1.1"
   id="svg8"
   inkscape:version="0.92.5 (2060ec1f9f, 2020-04-08)"
   sodipodi:docname="ae-icon.svg">
  <defs
     id="defs2">
    <style
       id="style857">.cls-1{fill:#e52120;}.cls-1,.cls-2,.cls-3,.cls-4,.cls-5{stroke:#000;stroke-miterlimit:10;stroke-width:1.2px;}.cls-2{fill:#6dbc88;}.cls-3{fill:#701034;}.cls-4{fill:#51aae0;}.cls-5{fill:none;}</style>
    <style
       id="style857-1">.cls-1{fill:#e52120;}.cls-1,.cls-2,.cls-3,.cls-4,.cls-5{stroke:#000;stroke-miterlimit:10;stroke-width:1.2px;}.cls-2{fill:#6dbc88;}.cls-3{fill:#701034;}.cls-4{fill:#51aae0;}.cls-5{fill:none;}</style>
  </defs>
  <sodipodi:namedview
     id="base"
     pagecolor="#ffffff"
     bordercolor="#666666"
     borderopacity="1.0"
     inkscape:pageopacity="0.0"
     inkscape:pageshadow="2"
     inkscape:zoom="0.35"
     inkscape:cx="-289.91279"
     inkscape:cy="-283.70899"
     inkscape:document-units="mm"
     inkscape:current-layer="svg8"
     showgrid="false"
     units="px"
     fit-margin-top="0"
     fit-margin-left="0"
     fit-margin-right="0"
     fit-margin-bottom="0"
     inkscape:window-width="1870"
     inkscape:window-height="1025"
     inkscape:window-x="0"
     inkscape:window-y="27"
     inkscape:window-maximized="1" />
  <metadata
     id="metadata5">
    <rdf:RDF>
      <cc:Work
         rdf:about="">
        <dc:format>image/svg+xml</dc:format>
        <dc:type
           rdf:resource="http://purl.org/dc/dcmitype/StillImage" />
        <dc:title />
      </cc:Work>
    </rdf:RDF>
  </metadata>
  <path
     style="color:#000000;font-style:normal;font-variant:normal;font-weight:normal;font-stretch:normal;font-size:medium;line-height:normal;font-family:sans-serif;font-variant-ligatures:normal;font-variant-position:normal;font-variant-caps:normal;font-variant-numeric:normal;font-variant-alternates:normal;font-feature-settings:normal;text-indent:0;text-align:start;text-decoration:none;text-decoration-line:none;text-decoration-style:solid;text-decoration-color:#000000;letter-spacing:normal;word-spacing:normal;text-transform:none;writing-mode:lr-tb;direction:ltr;text-orientation:mixed;dominant-baseline:auto;baseline-shift:baseline;text-anchor:start;white-space:normal;shape-padding:0;clip-rule:nonzero;display:inline;overflow:visible;visibility:visible;opacity:1;isolation:auto;mix-blend-mode:normal;color-interpolation:sRGB;color-interpolation-filters:linearRGB;solid-color:#000000;solid-opacity:1;vector-effect:none;fill:#434343;fill-opacity:1;fill-rule:nonzero;stroke:none;stroke-width:6.9550004;stroke-linecap:butt;stroke-linejoin:miter;stroke-miterlimit:4;stroke-dasharray:none;stroke-dashoffset:0;stroke-opacity:1;color-rendering:auto;image-rendering:auto;shape-rendering:auto;text-rendering:auto;enable-background:accumulate"
     d="m 15.501283,0.0036289 -0.337891,0.0664 c -2.007447,0.40219 -3.486659,2.10819 -3.011719,4.48243 l -0.06641,-0.68164 c 0,0.53112 -0.05539,1.05301 -0.140625,1.53906 -0.08133,0.24555 -0.161602,0.48996 -0.238281,0.74023 L 0.2161257,39.085659 l -0.03711,0.15234 c -0.152191,0.60881 -0.448094,1.66013 0.378906,3.07617 0.827001,1.41605 2.559944,1.88282 3.384766,1.88282 h 6.6816403 l -0.384765,-0.0195 c 2.051091,0.2283 4.028749,-1.28908 4.453125,-3.19922 l -0.08398,0.3125 1.923828,-5.97657 h 8.199218 l 2.109375,6.17774 -0.05273,-0.16992 c 0.539306,1.88932 2.230124,3.18954 4.404297,2.8789 l -0.492188,0.0332 h 7.427735 c 0.756198,0 2.415501,-0.34346 3.30664,-1.78125 0.576373,-0.92995 0.609001,-1.66044 0.541016,-2.27539 1.328746,1.30071 2.820971,2.44259 4.568359,3.19531 2.392537,1.05565 5.134489,1.52743 8.179688,1.53125 1.919916,0.0375 3.818455,-0.12088 5.699219,-0.47852 1.508819,-0.26129 2.95591,-0.69958 4.330078,-1.30078 l 0.279297,-0.12109 0.253906,-0.16992 c 0.38603,-0.25712 0.932061,-0.78883 1.214851,-1.21289 l 0.33593,-0.50196 0.14649,-0.58594 c 0.039,-0.1564 0.17187,-0.55964 0.17187,-1.26953 v -5.43554 c 0,-0.39943 -0.0313,-1.10907 -0.61914,-2.02149 1.55977,-0.43869 2.5682,-1.69912 2.78906,-3.24414 l 0.008,-0.0547 0.006,-0.0547 c 0.0507,-0.45655 0.0793,-0.89186 0.14453,-1.51172 l 0.01,-0.0898 0.004,-0.0918 c 0.0363,-0.69013 0.0742,-1.50757 0.0742,-2.45508 0,-1.79205 -0.26677,-3.61341 -0.84375,-5.39453 -0.59969,-1.9218 -1.54893,-3.62933 -2.67774,-5.10547 l -0.0234,-0.0293 -0.0234,-0.0293 c -1.355306,-1.69414 -3.097592,-2.99436 -5.035161,-3.8476603 -2.223644,-0.99623 -4.604962,-1.4404398 -6.955078,-1.4003898 -2.551945,0.003 -5.075198,0.3018598 -7.427734,1.4531198 -2.097448,1.0264103 -3.959977,2.4772403 -5.453125,4.2871103 -1.482076,1.78897 -2.587546,3.82251 -3.287109,6 -1.99e-4,6.1e-4 1.99e-4,10e-4 0,0.002 -0.552485,1.69046 -0.816268,3.41766 -0.939454,5.15039 l -8.117187,-22.7929701 0.134766,0.48437 c -0.211442,-1.05816 -0.98585,-2.03104 -1.759766,-2.5 -0.773916,-0.46896 -1.497093,-0.57812 -2.113281,-0.57812 h -9.095703 z"
     id="path927"
     inkscape:connector-curvature="0"
     sodipodi:nodetypes="cccccccccsccccccccccscccccccccccsscccccccscccccccccccccsscc" />
  <path
     style="display:inline;fill:#e3e4e3;stroke:none;stroke-width:0.35536271"
     d="m 15.847229,3.479256 c -0.177682,0.03553 -0.31976,0.2129938 -0.28422,0.3906739 0,0.7817999 -0.07128,1.5636764 -0.213424,2.3099363 -0.142145,0.4264401 -0.248924,0.7463716 -0.355533,1.1017417 L 3.5513391,40.081672 c -0.1066091,0.42644 2.91e-4,0.639755 0.3911907,0.639755 h 6.6807292 c 0.319826,0.03553 0.604341,-0.177813 0.675411,-0.497644 l 2.70061,-8.386567 h 13.219349 l 2.914034,8.528677 c 0.07107,0.248761 0.319685,0.426691 0.568441,0.391192 h 7.427452 c 0.355364,0 0.461626,-0.178059 0.355018,-0.568958 L 25.512789,3.7634764 C 25.477253,3.5857865 25.299556,3.479256 25.050802,3.479256 h -9.097119 z m 4.619873,6.4678227 h 0.0708 c 0.248754,0.8528693 0.497575,1.7763863 0.781865,2.7714073 0.28429,1.030549 0.604268,2.061494 0.959631,3.163114 0.355362,1.10163 0.675066,2.167431 1.030428,3.269051 0.319827,1.06609 0.639804,2.096664 0.959631,3.056144 0.319826,0.92394 0.603787,1.81224 0.817005,2.5585 h -9.026323 c 0.533044,-1.49252 1.101758,-3.16254 1.563729,-4.97489 0.56858,-1.77681 1.101481,-3.55337 1.634526,-5.25911 0.497507,-1.52806 0.888884,-3.056156 1.208711,-4.5842163 z m 33.581412,2.0251993 c -2.274321,0 -4.264316,0.284401 -5.93452,1.101741 -1.670206,0.81733 -3.127301,1.954572 -4.299997,3.376022 -1.208233,1.45699 -2.096371,3.091626 -2.664952,4.868436 -0.604118,1.84789 -0.888318,3.731341 -0.888318,5.650303 0,1.776809 0.248701,3.518103 0.746207,5.188312 0.497507,1.70574 1.314884,3.269094 2.452047,4.655013 1.208233,1.456981 2.735969,2.629763 4.477245,3.376022 1.847887,0.817338 4.1226,1.243852 6.823355,1.243852 1.705743,0.03554 3.375483,-0.106511 5.045689,-0.426331 1.243769,-0.21322 2.416628,-0.568574 3.553788,-1.066086 0.106609,-0.07107 0.178009,-0.141962 0.249079,-0.248563 0.03553,-0.14215 0.0708,-0.284697 0.0708,-0.426847 v -5.436878 c 0,-0.355391 -0.10654,-0.42636 -0.28422,-0.28422 -0.995014,0.3909 -2.060972,0.674864 -3.162597,0.817004 -1.208233,0.248761 -2.452129,0.35569 -3.695898,0.391192 -1.563598,0.03554 -3.127111,-0.284208 -4.548561,-0.888318 -1.066088,-0.426442 -1.954503,-1.172691 -2.594157,-2.132171 -0.604115,-0.95948 -0.959596,-2.061485 -1.101741,-3.163115 h 11.264945 c 1.979782,0 3.875728,-0.03514 5.828069,-0.03514 0.248754,0 0.462103,-0.213228 0.497645,-0.461986 0.03554,-0.319821 0.07104,-0.817227 0.14211,-1.492417 0.0356,-0.67519 0.0708,-1.421926 0.0708,-2.274796 0,-1.45699 -0.212924,-2.913676 -0.674894,-4.335136 -0.461971,-1.49252 -1.208225,-2.843202 -2.132169,-4.051432 -0.995016,-1.24377 -2.274567,-2.203071 -3.731556,-2.842721 -1.741276,-0.7818 -3.624768,-1.137241 -5.508191,-1.101741 z m -0.6134,6.141227 c 0.121124,-0.0021 0.242681,5.5e-5 0.364837,0.0067 2.09664,-0.07107 3.98022,1.279527 4.619874,3.269568 0.142147,0.426429 0.212907,0.852678 0.212907,1.314648 v 0.355534 c -0.248756,0.17768 -0.532715,0.24872 -0.817007,0.28422 -0.426434,0.0355 -1.101772,0.03566 -2.025713,0.03566 H 48.29176 c 0.106609,-0.88841 0.355431,-1.741687 0.781865,-2.559017 0.866195,-1.665769 2.544638,-2.675446 4.361489,-2.707328 z"
     id="path822"
     inkscape:connector-curvature="0" />
  <style
     type="text/css"
     id="style815">
	.st0{fill:#00005B;}
	.st1{fill:#9999FF;}
</style>
  <style
     type="text/css"
     id="style815-4">
	.st0{fill:#00005B;}
	.st1{fill:#9999FF;}
</style>
</svg>
