<?xml version="1.0" encoding="UTF-8" standalone="no"?>
<!-- Created with Inkscape (http://www.inkscape.org/) -->

<svg
   xmlns:dc="http://purl.org/dc/elements/1.1/"
   xmlns:cc="http://creativecommons.org/ns#"
   xmlns:rdf="http://www.w3.org/1999/02/22-rdf-syntax-ns#"
   xmlns:svg="http://www.w3.org/2000/svg"
   xmlns="http://www.w3.org/2000/svg"
   xmlns:sodipodi="http://sodipodi.sourceforge.net/DTD/sodipodi-0.dtd"
   xmlns:inkscape="http://www.inkscape.org/namespaces/inkscape"
   width="262.95245"
   height="169.75011"
   viewBox="0 0 69.572834 44.91305"
   version="1.1"
   id="svg8"
   inkscape:version="0.92.5 (2060ec1f9f, 2020-04-08)"
   sodipodi:docname="ae-icon.svg">
  <defs
     id="defs2"><style
   id="style857">.cls-1{fill:#e52120;}.cls-1,.cls-2,.cls-3,.cls-4,.cls-5{stroke:#000;stroke-miterlimit:10;stroke-width:1.2px;}.cls-2{fill:#6dbc88;}.cls-3{fill:#701034;}.cls-4{fill:#51aae0;}.cls-5{fill:none;}</style>










<style
   id="style857-1">.cls-1{fill:#e52120;}.cls-1,.cls-2,.cls-3,.cls-4,.cls-5{stroke:#000;stroke-miterlimit:10;stroke-width:1.2px;}.cls-2{fill:#6dbc88;}.cls-3{fill:#701034;}.cls-4{fill:#51aae0;}.cls-5{fill:none;}</style>
</defs>
  <sodipodi:namedview
     id="base"
     pagecolor="#ffffff"
     bordercolor="#666666"
     borderopacity="1.0"
     inkscape:pageopacity="0.0"
     inkscape:pageshadow="2"
     inkscape:zoom="0.98994949"
     inkscape:cx="-29.382717"
     inkscape:cy="16.83957"
     inkscape:document-units="mm"
     inkscape:current-layer="g961"
     showgrid="false"
     units="px"
     fit-margin-top="0"
     fit-margin-left="0"
     fit-margin-right="0"
     fit-margin-bottom="0"
     inkscape:window-width="1870"
     inkscape:window-height="1052"
     inkscape:window-x="1920"
     inkscape:window-y="0"
     inkscape:window-maximized="1" />
  <metadata
     id="metadata5">
    <rdf:RDF>
      <cc:Work
         rdf:about="">
        <dc:format>image/svg+xml</dc:format>
        <dc:type
           rdf:resource="http://purl.org/dc/dcmitype/StillImage" />
        <dc:title></dc:title>
      </cc:Work>
    </rdf:RDF>
  </metadata>
  <g
     inkscape:label="Calque 1"
     inkscape:groupmode="layer"
     id="layer1"
     transform="translate(-34.039868,-200.05301)">
    <g
       transform="translate(-65.694086,4.3228943)"
       id="layer1-3"
       inkscape:label="Calque 1">
      <g
         transform="matrix(1.0060412,0,0,1.0060412,-40.415747,-6.7232432)"
         id="layer1-8"
         inkscape:label="Calque 1">
        <g
           transform="matrix(2.2130701,0,0,2.2130701,25.119467,-281.01058)"
           id="g961">
          <path
             inkscape:connector-curvature="0"
             id="path927"
             d="m 58.71514,219.47106 c -0.07981,0.016 -0.14385,0.0957 -0.127889,0.17547 0,0.35115 -0.03178,0.70232 -0.09563,1.03751 -0.06384,0.19153 -0.111804,0.33523 -0.159687,0.49484 l -5.139466,14.73207 c -0.04788,0.19153 1.31e-4,0.28711 0.175702,0.28711 h 3.000633 c 0.14365,0.016 0.271205,-0.0796 0.303127,-0.22328 l 1.213205,-3.76681 h 5.937438 l 1.308831,3.83064 c 0.03192,0.11172 0.143587,0.19143 0.255314,0.17547 h 3.335791 c 0.15961,0 0.20757,-0.0797 0.159687,-0.25532 L 63.0564,219.59872 c -0.01596,-0.0798 -0.09577,-0.12766 -0.207501,-0.12766 H 58.76295 Z m 2.074773,2.90478 h 0.03203 c 0.111727,0.38306 0.223484,0.79809 0.351173,1.245 0.127688,0.46287 0.271173,0.92568 0.430783,1.42047 0.159611,0.4948 0.303437,0.97373 0.463047,1.46852 0.143649,0.47883 0.287135,0.94171 0.430784,1.37266 0.143649,0.41499 0.271421,0.81396 0.367187,1.14915 h -4.05415 c 0.239415,-0.67037 0.494851,-1.42045 0.702345,-2.23446 0.255376,-0.79805 0.494727,-1.59622 0.734143,-2.36235 0.223454,-0.68633 0.399008,-1.37267 0.542658,-2.05899 z m 15.083242,0.90984 c -1.021506,0 -1.915308,0.12774 -2.665476,0.49485 -0.750169,0.3671 -1.404619,0.87789 -1.931332,1.51633 -0.542677,0.6544 -0.941581,1.3886 -1.196958,2.18665 -0.271338,0.82997 -0.399219,1.67592 -0.399219,2.53782 0,0.79805 0.111936,1.58015 0.33539,2.33031 0.223455,0.76613 0.590346,1.46831 1.101099,2.09079 0.542675,0.6544 1.229086,1.18115 2.011176,1.51633 0.829974,0.36711 1.851424,0.55868 3.064461,0.55868 0.76613,0.016 1.516322,-0.0478 2.266491,-0.19149 0.558636,-0.0958 1.085422,-0.25537 1.596175,-0.47883 0.04788,-0.0319 0.07972,-0.064 0.111642,-0.11187 0.01596,-0.0639 0.03203,-0.12764 0.03203,-0.19149 v -2.44196 c 0,-0.15961 -0.04785,-0.19173 -0.127657,-0.12789 -0.446908,0.17557 -0.925912,0.30335 -1.420704,0.36719 -0.542675,0.11173 -1.101137,0.15974 -1.659772,0.1757 -0.702285,0.016 -1.404766,-0.12788 -2.043207,-0.39922 -0.478831,-0.19153 -0.877629,-0.52671 -1.164927,-0.95765 -0.271338,-0.43095 -0.431,-0.92569 -0.494845,-1.42048 h 5.059624 c 0.889214,0 1.740772,-0.016 2.617662,-0.016 0.111727,0 0.207323,-0.0958 0.223284,-0.2075 0.01596,-0.14365 0.03191,-0.36706 0.06383,-0.67032 0.01596,-0.30326 0.03203,-0.63842 0.03203,-1.02148 0,-0.65441 -0.09587,-1.30868 -0.30336,-1.94712 -0.207492,-0.67036 -0.542671,-1.27702 -0.957658,-1.81969 -0.446909,-0.55864 -1.021385,-0.9895 -1.675786,-1.2768 -0.782091,-0.35114 -1.628057,-0.51081 -2.473991,-0.49485 z m -0.27574,2.75832 c 0.0544,-9.5e-4 0.109232,3e-5 0.164097,0.003 0.941701,-0.0319 1.787475,0.57447 2.074774,1.46828 0.06384,0.19154 0.09586,0.38321 0.09586,0.59071 v 0.15945 c -0.111727,0.0798 -0.239499,0.1117 -0.367188,0.12766 -0.191532,0.016 -0.494626,0.016 -0.909613,0.016 h -3.367821 c 0.04788,-0.39902 0.159641,-0.78204 0.351173,-1.14914 0.38905,-0.74817 1.142686,-1.20167 1.95872,-1.21599 z"
             style="fill:#434343;stroke:#434343;stroke-width:3.1238215;stroke-miterlimit:4;stroke-dasharray:none" />
          <g
             style="fill:#e3e4e3;stroke:none"
             id="Ae"
             transform="matrix(0.1596103,0,0,0.1596103,48.436137,209.86245)">
            <path
               id="path822"
               d="M 96.4,140 H 59.2 l -7.6,23.6 c -0.2,0.9 -1,1.5 -1.9,1.4 H 30.9 c -1.1,0 -1.4,-0.6 -1.1,-1.8 L 62,70.9 c 0.3,-1 0.6,-1.9 1,-3.1 0.4,-2.1 0.6,-4.3 0.6,-6.5 -0.1,-0.5 0.3,-1 0.8,-1.1 0.1,0 0.2,0 0.3,0 h 25.6 c 0.7,0 1.2,0.3 1.3,0.8 l 36.5,102.5 c 0.3,1.1 0,1.6 -1,1.6 h -20.9 c -0.7,0.1 -1.4,-0.4 -1.6,-1.1 z M 65,120.1 h 25.4 c -0.6,-2.1 -1.4,-4.6 -2.3,-7.2 -0.9,-2.7 -1.8,-5.6 -2.7,-8.6 -1,-3.1 -1.9,-6.1 -2.9,-9.2 -1,-3.1 -1.9,-6 -2.7,-8.9 -0.8,-2.8 -1.5,-5.4 -2.2,-7.8 h -0.2 c -0.9,4.3 -2,8.6 -3.4,12.9 -1.5,4.8 -3,9.8 -4.6,14.8 -1.3,5.1 -2.9,9.8 -4.4,14 z"
               class="st1"
               inkscape:connector-curvature="0"
               style="fill:#e3e4e3;stroke:none" />
            <path
               sodipodi:nodetypes="cccccccsscccccccsccsccccscccccsccscccc"
               id="path824"
               d="m 187.4,130.8 h -31.7 c 0.4,3.1 1.4,6.2 3.1,8.9 1.8,2.7 4.3,4.8 7.3,6 4,1.7 8.4,2.6 12.8,2.5 3.5,-0.1 7,-0.4 10.4,-1.1 3.1,-0.4 6.1,-1.2 8.9,-2.3 0.5,-0.4 0.8,-0.2 0.8,0.8 v 15.3 c 0,0.4 -0.1,0.8 -0.2,1.2 -0.2,0.3 -0.4,0.5 -0.7,0.7 -3.2,1.4 -6.5,2.4 -10,3 -4.7,0.9 -9.4,1.3 -14.2,1.2 -7.6,0 -14,-1.2 -19.2,-3.5 -4.9,-2.1 -9.2,-5.4 -12.6,-9.5 -3.2,-3.9 -5.5,-8.3 -6.9,-13.1 -1.4,-4.7 -2.1,-9.6 -2.1,-14.6 0,-5.4 0.8,-10.7 2.5,-15.9 1.6,-5 4.1,-9.6 7.5,-13.7 3.3,-4 7.4,-7.2 12.1,-9.5 4.7,-2.3 10.3,-3.1 16.7,-3.1 5.3,-0.1 10.6,0.9 15.5,3.1 4.1,1.8 7.7,4.5 10.5,8 2.6,3.4 4.7,7.2 6,11.4 1.3,4 1.9,8.1 1.9,12.2 0,2.4 -0.1,4.5 -0.2,6.4 -0.2,1.9 -0.3,3.3 -0.4,4.2 -0.1,0.7 -0.7,1.3 -1.4,1.3 -5.49394,0 -10.82884,0.1 -16.4,0.1 z m -31.7,-14.6 h 21.1 c 2.6,0 4.5,0 5.7,-0.1 0.8,-0.1 1.6,-0.3 2.3,-0.8 v -1 c 0,-1.3 -0.2,-2.5 -0.6,-3.7 -1.8,-5.6 -7.1,-9.4 -13,-9.2 -5.5,-0.3 -10.7,2.6 -13.3,7.6 -1.2,2.3 -1.9,4.7 -2.2,7.2 z"
               class="st1"
               inkscape:connector-curvature="0"
               style="fill:#e3e4e3;stroke:none" />
          </g>
        </g>
      </g>
    </g>
  </g>
  <style
     type="text/css"
     id="style815">
	.st0{fill:#00005B;}
	.st1{fill:#9999FF;}
</style>
  <style
     type="text/css"
     id="style815-4">
	.st0{fill:#00005B;}
	.st1{fill:#9999FF;}
</style>
</svg>
