<svg id="Calque_1" data-name="Calque 1" xmlns="http://www.w3.org/2000/svg" viewBox="0 0 32 32"><title>audition_r</title><path d="M7.93,19l-1,3.68H3.55L7.93,8.35h4.26l4.44,14.33H13.15L12,19Zm3.64-2.42-.89-3c-.26-.85-.51-1.92-.72-2.77H9.91c-.21.85-.42,1.94-.66,2.77l-.85,3Z" style="fill:#ec1818"/><path d="M26.77,19.34c0,1.36,0,2.47.08,3.34h-2.8l-.15-1.47h-.07a3.7,3.7,0,0,1-3.25,1.71c-2.11,0-3.66-1.32-3.66-4.53V12.28h3.25v5.6c0,1.51.49,2.42,1.62,2.42a1.76,1.76,0,0,0,1.62-1.13,1.88,1.88,0,0,0,.1-.7V12.28h3.26Z" style="fill:#ec1818"/></svg>