<svg id="Calque_1" data-name="Calque 1" xmlns="http://www.w3.org/2000/svg" viewBox="0 0 32 32"><title>autorig_l</title><path d="M3.9,19.77V17.85a.34.34,0,0,0-.2-.34,1.42,1.42,0,0,1-.78-1.3c0-.43,0-.87,0-1.31a.51.51,0,0,0-.17-.4c-.53-.46-1-.93-1.57-1.4A.78.78,0,0,0,1,13a.94.94,0,0,1-.43-1.48c.59-.87,1.19-1.73,1.79-2.59l.92-1.33a.91.91,0,0,1,1-.41A.9.9,0,0,1,5,7.93a1,1,0,0,1-.23.81c-.65.95-1.31,1.9-2,2.84-.21.3-.21.3.06.54s.77.7,1.15,1.05a.67.67,0,0,0,.47.18c.84,0,1.69,0,2.53,0a.57.57,0,0,0,.43-.18c.47-.44.94-.87,1.42-1.29.15-.13.16-.22,0-.39-.7-1-1.4-2-2.09-3A.94.94,0,1,1,8.27,7.36c.53.73,1.05,1.47,1.57,2.21l1.22,1.74a1,1,0,0,1-.41,1.47,4.91,4.91,0,0,0-1,.85c-.34.27-.64.58-1,.87a.43.43,0,0,0-.15.36c0,.46,0,.93,0,1.39a1.32,1.32,0,0,1-.75,1.24.39.39,0,0,0-.23.4c0,1.27,0,2.53,0,3.79,0,.32,0,.33-.29.23a4.62,4.62,0,0,0-3.07,0c-.25.08-.28.06-.28-.21C3.91,21.05,3.91,20.41,3.9,19.77Z" style="fill:#e3e3e3"/><path d="M5.71,30.06a3.72,3.72,0,1,1,3.71-3.69A3.72,3.72,0,0,1,5.71,30.06Zm0-1.29a2.45,2.45,0,0,0,2.41-2.43,2.47,2.47,0,0,0-2.44-2.43,2.43,2.43,0,0,0,0,4.86Z" style="fill:#e3e3e3"/><path d="M30.26,7.76,13.9,24.13a.81.81,0,0,1-.57.23.83.83,0,0,1-.58-.23l-2.52-2.52A.81.81,0,0,1,10,21a.83.83,0,0,1,.23-.58L26.6,4.1a.82.82,0,0,1,1.14,0l2.52,2.52a.77.77,0,0,1,.23.57A.75.75,0,0,1,30.26,7.76ZM14.55,5.16l-1.25.38-.38,1.24-.38-1.24-1.25-.38,1.25-.39.38-1.24.38,1.24Zm5.7,2.44-2.5.76L17,10.86l-.76-2.5-2.5-.76,2.5-.77L17,4.34l.76,2.49Zm2.44-2.44-1.25.38-.38,1.24-.38-1.24-1.25-.38,1.25-.39.38-1.24.38,1.24Zm5.84,2L27.17,5.83,23.44,9.56l1.36,1.36Zm2.31,6.11-1.25.38-.38,1.25-.38-1.25-1.25-.38,1.25-.38.38-1.25.38,1.25Z" style="fill:#e3e3e3"/></svg>