<svg id="Calque_1" data-name="Calque 1" xmlns="http://www.w3.org/2000/svg" viewBox="0 0 32 32"><title>back_d</title><path d="M28,17.66a1.72,1.72,0,0,1-1.68,1.84H16.24l4.2,4.21a1.79,1.79,0,0,1,0,2.58l-1.07,1.09a1.84,1.84,0,0,1-1.29.53,1.92,1.92,0,0,1-1.31-.53L7.45,18a1.86,1.86,0,0,1-.53-1.29,1.92,1.92,0,0,1,.53-1.31l9.32-9.31a1.89,1.89,0,0,1,1.31-.54,1.84,1.84,0,0,1,1.29.54l1.07,1.06A1.83,1.83,0,0,1,21,8.49a1.86,1.86,0,0,1-.55,1.31L16.24,14H26.33A1.72,1.72,0,0,1,28,15.83Z" style="fill:#6d6d6d"/></svg>