<svg id="Calque_1" data-name="Calque 1" xmlns="http://www.w3.org/2000/svg" viewBox="0 0 32 32"><defs><style>.cls-1{fill:#ec1818;}</style></defs><title>bars_r_1</title><path class="cls-1" d="M24.64,22.34a.62.62,0,0,1,.66.66v1.33a.63.63,0,0,1-.66.67H5.33a1.24,1.24,0,0,1-.93-.4,1.24,1.24,0,0,1-.4-.93v-14A.65.65,0,0,1,4.67,9H6a.63.63,0,0,1,.66.67V22.34ZM9.87,19.67a.55.55,0,0,1-.54-.54V16.22a.57.57,0,0,1,.54-.54h1.58a.48.48,0,0,1,.37.17.51.51,0,0,1,.17.37v2.91a.53.53,0,0,1-.17.38.5.5,0,0,1-.37.16Zm4,0a.5.5,0,0,1-.37-.16.53.53,0,0,1-.17-.38V10.89a.53.53,0,0,1,.17-.37.51.51,0,0,1,.37-.17h1.58a.53.53,0,0,1,.38.17.52.52,0,0,1,.16.37v8.24a.55.55,0,0,1-.54.54Zm4,0a.55.55,0,0,1-.54-.54V13.56a.55.55,0,0,1,.54-.54h1.58a.5.5,0,0,1,.37.16.53.53,0,0,1,.17.38v5.57a.53.53,0,0,1-.17.38.5.5,0,0,1-.37.16Zm4,0a.5.5,0,0,1-.37-.16.53.53,0,0,1-.17-.38V9.56A.59.59,0,0,1,21.85,9h1.58a.53.53,0,0,1,.38.17.5.5,0,0,1,.16.37v9.57a.55.55,0,0,1-.54.54Z"/></svg>