<svg id="Calque_1" data-name="Calque 1" xmlns="http://www.w3.org/2000/svg" viewBox="0 0 32 32"><defs><style>.cls-1{fill:#ec1818;}</style></defs><title>beer_r</title><path class="cls-1" d="M22.28,8.11a4,4,0,0,1,3,1.24,4,4,0,0,1,1.24,3v6.79a4,4,0,0,1-.69,2.29A4.37,4.37,0,0,1,24,23l-4.27,1.89v2.21a1.26,1.26,0,0,1-1.26,1.27H4.18a1.26,1.26,0,0,1-1.27-1.27V6a1.24,1.24,0,0,1,.37-.89,1.22,1.22,0,0,1,.9-.37H18.49a1.19,1.19,0,0,1,.89.37,1.2,1.2,0,0,1,.37.89V8.11ZM8.81,23.26a.81.81,0,0,0,.6-.23.82.82,0,0,0,.24-.61V10.63a.85.85,0,1,0-1.69,0V22.42a.81.81,0,0,0,.85.84Zm5,0a.79.79,0,0,0,.6-.23.82.82,0,0,0,.24-.61V10.63a.81.81,0,0,0-.24-.6.8.8,0,0,0-.6-.24.82.82,0,0,0-.61.24.85.85,0,0,0-.23.6V22.42a.85.85,0,0,0,.23.61A.81.81,0,0,0,13.86,23.26Zm9.26-4.15V12.32a.82.82,0,0,0-.24-.61.83.83,0,0,0-.6-.23H19.75v9.68l2.9-1.32A.74.74,0,0,0,23.12,19.11Z"/></svg>