<svg id="Calque_1" data-name="Calque 1" xmlns="http://www.w3.org/2000/svg" viewBox="0 0 32 32"><defs><style>.cls-1{fill:#ec1818;}</style></defs><title>blender_r</title><path class="cls-1" d="M20.06,7.19a.33.33,0,0,0-.23.11.3.3,0,0,0-.11.24v.69a.3.3,0,0,0,.11.23.33.33,0,0,0,.23.11h6.8l-.78,2.75h-6a.33.33,0,0,0-.23.11.3.3,0,0,0-.11.24v.68a.3.3,0,0,0,.11.24.33.33,0,0,0,.23.11h5.68L25,15.45h-4.9a.33.33,0,0,0-.23.11.3.3,0,0,0-.11.23v.69a.3.3,0,0,0,.11.24.33.33,0,0,0,.23.11h4.52l-.73,2.75h-11l-.39-4.13H8A2,2,0,0,1,6,13.39V6.51A2,2,0,0,1,6.56,5,2,2,0,0,1,8,4.44H28l-.73,2.75ZM8.71,12.7h3.48l-.47-5.51h-3ZM23.85,21a2.73,2.73,0,0,1,2.75,2.76v1.37a1.4,1.4,0,0,1-1.38,1.38H11.46a1.36,1.36,0,0,1-1-.41,1.33,1.33,0,0,1-.4-1V23.71A2.72,2.72,0,0,1,12.84,21Zm-5.51,4.13a1.3,1.3,0,0,0,1-.41,1.34,1.34,0,0,0,0-1.93,1.34,1.34,0,0,0-1-.41,1.36,1.36,0,0,0-1,.41,1.38,1.38,0,0,0,1,2.34Z"/></svg>