<?xml version="1.0" encoding="UTF-8" standalone="no"?>
<!-- Created with Inkscape (http://www.inkscape.org/) -->

<svg
   xmlns:dc="http://purl.org/dc/elements/1.1/"
   xmlns:cc="http://creativecommons.org/ns#"
   xmlns:rdf="http://www.w3.org/1999/02/22-rdf-syntax-ns#"
   xmlns:svg="http://www.w3.org/2000/svg"
   xmlns="http://www.w3.org/2000/svg"
   xmlns:sodipodi="http://sodipodi.sourceforge.net/DTD/sodipodi-0.dtd"
   xmlns:inkscape="http://www.inkscape.org/namespaces/inkscape"
   width="260.74936"
   height="216.97723"
   viewBox="0 0 68.989931 57.408561"
   version="1.1"
   id="svg8"
   inkscape:version="0.92.5 (2060ec1f9f, 2020-04-08)"
   sodipodi:docname="blender-icon.svg">
  <defs
     id="defs2"><style
   id="style857">.cls-1{fill:#e52120;}.cls-1,.cls-2,.cls-3,.cls-4,.cls-5{stroke:#000;stroke-miterlimit:10;stroke-width:1.2px;}.cls-2{fill:#6dbc88;}.cls-3{fill:#701034;}.cls-4{fill:#51aae0;}.cls-5{fill:none;}</style>










</defs>
  <sodipodi:namedview
     id="base"
     pagecolor="#ffffff"
     bordercolor="#666666"
     borderopacity="1.0"
     inkscape:pageopacity="0.0"
     inkscape:pageshadow="2"
     inkscape:zoom="0.98994949"
     inkscape:cx="-35.013976"
     inkscape:cy="62.38228"
     inkscape:document-units="mm"
     inkscape:current-layer="layer1-3"
     showgrid="false"
     units="px"
     fit-margin-top="0"
     fit-margin-left="0"
     fit-margin-right="0"
     fit-margin-bottom="0"
     inkscape:window-width="1870"
     inkscape:window-height="1052"
     inkscape:window-x="1920"
     inkscape:window-y="0"
     inkscape:window-maximized="1" />
  <metadata
     id="metadata5">
    <rdf:RDF>
      <cc:Work
         rdf:about="">
        <dc:format>image/svg+xml</dc:format>
        <dc:type
           rdf:resource="http://purl.org/dc/dcmitype/StillImage" />
        <dc:title></dc:title>
      </cc:Work>
    </rdf:RDF>
  </metadata>
  <g
     inkscape:label="Calque 1"
     inkscape:groupmode="layer"
     id="layer1"
     transform="translate(-34.193458,-199.60734)">
    <g
       transform="translate(-65.694086,4.3228943)"
       id="layer1-3"
       inkscape:label="Calque 1">
      <path
         style="fill:#434343;fill-rule:nonzero;stroke:#434343;stroke-width:6.65862799;stroke-linecap:round;stroke-linejoin:round;stroke-miterlimit:4;stroke-dasharray:none"
         sodipodi:nodetypes="cccccccccccccccccccccccccccccccccccccccccccccccccccccccc"
         id="path1037"
         d="m 122.30178,231.40036 c 0.0138,0.81076 0.27529,2.39106 0.6634,3.62817 v 0 c 0.8176,2.61234 2.20499,5.03089 4.1374,7.16262 v 0 c 1.98198,2.18846 4.41952,3.94882 7.23834,5.19579 v 0 c 2.96328,1.31322 6.17462,1.98339 9.504,1.9767 v 0 c 3.33079,-0.006 6.54036,-0.68674 9.50365,-2.00806 v 0 c 2.81635,-1.26072 5.25392,-3.0253 7.2345,-5.21939 v 0 c 1.92948,-2.14019 3.31422,-4.56262 4.13309,-7.17637 v 0 c 0.41437,-1.32132 0.67158,-2.66061 0.77764,-4.00519 v 0 c 0.10324,-1.32414 0.0592,-2.6525 -0.1279,-3.9777 v 0 c -0.36751,-2.58345 -1.26213,-5.00869 -2.63701,-7.21935 -1.26248,-2.0299 -2.88365,-3.80822 -4.81348,-5.30572 v 0 l 0.003,-0.003 v 0 l -19.4717,-14.95278 v 0 c -0.0162,-0.0141 -0.0328,-0.0278 -0.0493,-0.0416 v 0 c -1.28151,-0.97848 -3.42874,-0.97566 -4.83252,0.007 v 0 c -1.42315,0.99504 -1.58276,2.637 -0.32064,3.67609 v 0 l -0.004,0.003 v 0 l 8.12207,6.60661 -24.75829,0.0261 v 0 h -0.0344 v 0 c -2.0453,0.001 -4.01076,1.34634 -4.40166,3.04186 v 0 c -0.39777,1.72899 0.99237,3.16166 3.11888,3.16976 v 0 l -0.003,0.008 v 0 l 12.5484,-0.0247 -22.39361,17.1867 v 0 c -0.0276,0.0218 -0.0578,0.0426 -0.0853,0.0645 v 0 c -2.11,1.6173 -2.79405,4.30821 -1.46449,6.01078 v 0 c 1.35163,1.73146 4.22136,1.73287 6.35612,0.007 v 0 l 12.22085,-9.9994 c 0,0 -0.17755,1.35021 -0.16381,2.16203 z"
         inkscape:connector-curvature="0" />
      <path
         style="fill:#e3e4e3;fill-rule:nonzero;stroke-width:0;stroke-linecap:butt;stroke-linejoin:miter;stroke-miterlimit:4"
         d="m 136.02762,198.71272 c -0.87247,0.001 -1.76045,0.24775 -2.46234,0.73911 -1.42315,0.99504 -1.58282,2.63721 -0.3207,3.6763 l -0.004,0.003 8.122,6.60661 -24.75826,0.0262 h -0.0344 c -2.0453,0.001 -4.01075,1.34627 -4.40165,3.04179 -0.39777,1.729 0.99235,3.1617 3.11886,3.1698 l -0.003,0.008 12.54842,-0.0248 -22.39365,17.18681 c -0.0276,0.0218 -0.0578,0.0428 -0.0853,0.0647 -2.11,1.6173 -2.79403,4.30807 -1.46447,6.01063 1.35163,1.73146 4.22135,1.73271 6.35611,0.007 l 12.22085,-9.99938 c 0,0 -0.17753,1.35047 -0.16379,2.16229 0.0138,0.81076 0.2753,2.39102 0.66341,3.62813 0.8176,2.61234 2.20499,5.03093 4.13739,7.16266 1.98198,2.18846 4.41954,3.94885 7.23836,5.19582 2.96329,1.31322 6.17451,1.98317 9.50388,1.97648 3.33079,-0.006 6.5406,-0.68682 9.50389,-2.00814 2.81635,-1.26071 5.25435,-3.02512 7.23492,-5.21922 1.92948,-2.14019 3.3137,-4.56267 4.13257,-7.17642 0.41437,-1.32132 0.67159,-2.66068 0.77765,-4.00526 0.10324,-1.32414 0.0591,-2.65253 -0.128,-3.97773 -0.3675,-2.58344 -1.26157,-5.00843 -2.63645,-7.21909 -1.26248,-2.0299 -2.88405,-3.80843 -4.81388,-5.30593 l 0.003,-0.003 -19.4716,-14.95296 c -0.0162,-0.0141 -0.033,-0.0276 -0.0496,-0.0413 -0.64075,-0.48924 -1.49765,-0.73346 -2.37012,-0.73223 z m 7.81644,17.23361 c 3.26208,-0.004 6.37545,1.06691 8.82395,3.05418 1.24698,1.01583 2.25862,2.21707 2.99362,3.54967 0.75016,1.35691 1.21521,2.85452 1.35298,4.42918 0.13883,1.60884 -0.0729,3.20302 -0.61937,4.70721 -0.55742,1.53344 -1.4604,2.9687 -2.69082,4.22272 -2.5172,2.5683 -6.04024,4.02196 -9.85692,4.02866 -3.81809,0.007 -7.34345,-1.4354 -9.86242,-3.997 -1.23042,-1.24944 -2.13474,-2.68279 -2.69357,-4.21447 -0.54509,-1.50313 -0.75837,-3.09699 -0.61799,-4.70583 0.13629,-1.57466 0.60006,-3.07499 1.35022,-4.43331 0.73642,-1.33506 1.74799,-2.54094 2.99637,-3.56206 2.44709,-1.99572 5.56187,-3.07473 8.82395,-3.07895 z m 0.27803,3.97497 c -2.21171,0.001 -4.23901,0.77906 -5.74637,2.05493 -1.5345,1.29913 -2.55323,3.13109 -2.6688,5.20821 -0.11839,2.13596 0.73927,4.1222 2.24487,5.59222 1.53626,1.49609 3.72459,2.43619 6.17168,2.43619 2.44567,0 4.63269,-0.9401 6.16754,-2.43619 1.50701,-1.47002 2.36529,-3.45626 2.24831,-5.59222 -0.11698,-2.07712 -1.13568,-3.90908 -2.67017,-5.20821 -1.50736,-1.27587 -3.53534,-2.05352 -5.74706,-2.05493 z"
         id="path968"
         inkscape:connector-curvature="0" />
    </g>
  </g>
  <style
     type="text/css"
     id="style815">
	.st0{fill:#00005B;}
	.st1{fill:#9999FF;}
</style>
</svg>
