<svg id="Calque_1" data-name="Calque 1" xmlns="http://www.w3.org/2000/svg" viewBox="0 0 32 32"><title>bug_l</title><path d="M25.64,18.91H23a6.94,6.94,0,0,1-.8,3.45l2.47,2.49a.75.75,0,0,1,0,1.07.73.73,0,0,1-.53.22.75.75,0,0,1-.54-.22l-2.35-2.35A5.91,5.91,0,0,1,17.65,25V14.35H16.13V25a5.82,5.82,0,0,1-3.72-1.57l-2.18,2.46a.74.74,0,0,1-.57.25A.79.79,0,0,1,9.15,26a.78.78,0,0,1-.06-1.08l2.4-2.7a7.18,7.18,0,0,1-.69-3.26H8.14a.76.76,0,1,1,0-1.52H10.8V13.9L8.75,11.84a.76.76,0,0,1,1.07-1.07l2,2.06h10L24,10.77A.76.76,0,0,1,25,11.84L23,13.9v3.49h2.66a.76.76,0,0,1,0,1.52Zm-12.55-7.6a3.8,3.8,0,1,1,7.6,0Z" style="fill:#e3e3e3"/></svg>