<svg id="Calque_1" data-name="Calque 1" xmlns="http://www.w3.org/2000/svg" viewBox="0 0 32 32"><title>cal_p</title><path d="M28.32,25.66A2.34,2.34,0,0,1,26,28H6.34A2.34,2.34,0,0,1,4,25.66V9.76A2.34,2.34,0,0,1,6.34,7.42H26a2.34,2.34,0,0,1,2.33,2.34Zm-16.84-14a.45.45,0,0,0-.46-.47H6.34a.46.46,0,0,0-.47.47v2.8a.46.46,0,0,0,.47.47H11a.45.45,0,0,0,.46-.47Zm0,5.61a.46.46,0,0,0-.46-.47H6.34a.47.47,0,0,0-.47.47v2.81a.47.47,0,0,0,.47.47H11a.46.46,0,0,0,.46-.47Zm0,5.61a.45.45,0,0,0-.46-.46H6.34a.46.46,0,0,0-.47.46v2.81a.47.47,0,0,0,.47.47H11a.46.46,0,0,0,.46-.47ZM19,11.63a.46.46,0,0,0-.47-.47H13.82a.45.45,0,0,0-.46.47v2.8a.45.45,0,0,0,.46.47H18.5a.46.46,0,0,0,.47-.47Zm0,5.61a.47.47,0,0,0-.47-.47H13.82a.46.46,0,0,0-.46.47v2.81a.46.46,0,0,0,.46.47H18.5a.47.47,0,0,0,.47-.47Zm0,5.61a.46.46,0,0,0-.47-.46H13.82a.45.45,0,0,0-.46.46v2.81a.46.46,0,0,0,.46.47H18.5a.47.47,0,0,0,.47-.47Zm7.48-11.22a.45.45,0,0,0-.46-.47H21.31a.46.46,0,0,0-.47.47v2.8a.46.46,0,0,0,.47.47H26a.45.45,0,0,0,.46-.47Zm0,5.61a.46.46,0,0,0-.46-.47H21.31a.46.46,0,0,0-.47.47v2.81a.46.46,0,0,0,.47.47H26a.46.46,0,0,0,.46-.47Zm0,5.61a.45.45,0,0,0-.46-.46H21.31a.45.45,0,0,0-.47.46v2.81a.46.46,0,0,0,.47.47H26a.46.46,0,0,0,.46-.47Z" style="fill:#710132"/></svg>