<svg id="Calque_1" data-name="Calque 1" xmlns="http://www.w3.org/2000/svg" viewBox="0 0 32 32"><title>calc_l copie</title><path d="M26.84,26.36A1.69,1.69,0,0,1,25.16,28H6.68A1.69,1.69,0,0,1,5,26.36V6.21A1.69,1.69,0,0,1,6.68,4.53H25.16a1.69,1.69,0,0,1,1.68,1.68ZM25.16,7.05a.85.85,0,0,0-.84-.84H7.52a.85.85,0,0,0-.84.84v3.36a.85.85,0,0,0,.84.84h16.8a.85.85,0,0,0,.84-.84ZM8.36,12.93A1.68,1.68,0,1,0,10,14.61,1.67,1.67,0,0,0,8.36,12.93Zm0,5A1.68,1.68,0,1,0,10,19.65,1.67,1.67,0,0,0,8.36,18Zm0,5A1.68,1.68,0,1,0,10,24.68,1.68,1.68,0,0,0,8.36,23Zm5-10.07a1.68,1.68,0,1,0,1.68,1.68A1.67,1.67,0,0,0,13.4,12.93Zm0,5a1.68,1.68,0,1,0,1.68,1.68A1.67,1.67,0,0,0,13.4,18Zm0,5a1.68,1.68,0,1,0,1.68,1.68A1.68,1.68,0,0,0,13.4,23Zm5-10.07a1.68,1.68,0,1,0,1.68,1.68A1.67,1.67,0,0,0,18.44,12.93Zm0,5a1.68,1.68,0,1,0,1.68,1.68A1.67,1.67,0,0,0,18.44,18Zm0,5a1.68,1.68,0,1,0,1.68,1.68A1.68,1.68,0,0,0,18.44,23Zm5-10.07a1.68,1.68,0,1,0,1.68,1.68A1.66,1.66,0,0,0,23.48,12.93Zm1.68,6.72a1.68,1.68,0,0,0-3.36,0v5a1.68,1.68,0,0,0,3.36,0Z" style="fill:#e3e3e3"/></svg>