<svg id="Calque_1" data-name="Calque 1" xmlns="http://www.w3.org/2000/svg" viewBox="0 0 32 32"><title>cel_r</title><path d="M26.46,7.52l-7.34,7.34H15.45V11.19l7.34-7.34Zm-7,5.41-2.07-2.07-.8.8v.94h1.13v1.13h.94Zm3.62-7.58a.19.19,0,0,0-.15.07L18.14,10.2a.17.17,0,0,0-.06.15.18.18,0,0,0,.19.19.22.22,0,0,0,.15-.06L23.2,5.7a.19.19,0,0,0,.06-.15A.19.19,0,0,0,23.07,5.35Zm5.41.15L27,7,23.35,3.29l1.46-1.45a1.11,1.11,0,0,1,1.6,0L28.48,3.9a1.13,1.13,0,0,1,0,1.6Z" style="fill:#ec1818"/><path d="M12,29.33,5.41,24.22,4,25.34l8,6.24,8-6.24-1.45-1.13Zm0-2.27L18.54,22,20,20.83l-8-6.24L4,20.83,5.42,22Z" style="fill:#ec1818"/></svg>