<svg id="Calque_1" data-name="Calque 1" xmlns="http://www.w3.org/2000/svg" viewBox="0 0 32 32"><title>check_r</title><path d="M15.78,30.22A13.32,13.32,0,1,1,29.09,16.91,13.32,13.32,0,0,1,15.78,30.22ZM24.41,13.3l-1.58-1.56a1.09,1.09,0,0,0-.78-.33,1.11,1.11,0,0,0-.78.33L14.2,18.8l-3.92-3.92a1.09,1.09,0,0,0-.78-.33,1.11,1.11,0,0,0-.78.33L7.14,16.44a1.16,1.16,0,0,0-.31.8,1.13,1.13,0,0,0,.31.78l6.28,6.27a1.12,1.12,0,0,0,.78.33,1.15,1.15,0,0,0,.8-.33l9.41-9.41a1.09,1.09,0,0,0,.31-.78A1.12,1.12,0,0,0,24.41,13.3Z" style="fill:#ec1818"/></svg>