<svg id="Calque_1" data-name="Calque 1" xmlns="http://www.w3.org/2000/svg" viewBox="0 0 32 32"><title>code_r</title><path d="M9.82,23.72a.44.44,0,0,1-.65,0l-6.61-6.6a.46.46,0,0,1,0-.65L9.17,9.86a.46.46,0,0,1,.65,0l.71.71a.46.46,0,0,1,0,.65L5,16.79l5.57,5.57a.47.47,0,0,1,0,.66Zm3.8,2.47a.45.45,0,0,1-.55.31l-.88-.24a.46.46,0,0,1-.31-.57l5.28-18.3a.46.46,0,0,1,.56-.31l.88.24a.46.46,0,0,1,.31.57Zm8-2.47a.44.44,0,0,1-.65,0l-.71-.7a.47.47,0,0,1,0-.66l5.57-5.57-5.57-5.57a.46.46,0,0,1,0-.65L21,9.86a.46.46,0,0,1,.65,0l6.61,6.61a.46.46,0,0,1,0,.65Z" style="fill:#ec1818"/></svg>