<svg id="Calque_1" data-name="Calque 1" xmlns="http://www.w3.org/2000/svg" viewBox="0 0 32 32"><title>cog_m</title><path d="M27.66,18.49a.56.56,0,0,1-.41.53l-2.73.41A8.43,8.43,0,0,1,24,20.77c.5.73,1,1.38,1.58,2a.63.63,0,0,1,.14.37.48.48,0,0,1-.13.34c-.35.47-2.35,2.64-2.85,2.64a.79.79,0,0,1-.38-.13l-2-1.6a7.45,7.45,0,0,1-1.34.56,18.29,18.29,0,0,1-.43,2.75.53.53,0,0,1-.53.41H14.7a.53.53,0,0,1-.54-.44L13.75,25a8.06,8.06,0,0,1-1.33-.54L10.34,26a.54.54,0,0,1-.37.13A.56.56,0,0,1,9.6,26a18.37,18.37,0,0,1-2.43-2.48.59.59,0,0,1-.1-.34.58.58,0,0,1,.11-.34c.51-.68,1.05-1.33,1.55-2a8,8,0,0,1-.6-1.46L5.43,19A.54.54,0,0,1,5,18.43V15.15a.58.58,0,0,1,.4-.53l2.74-.41a7.72,7.72,0,0,1,.58-1.36c-.5-.71-1-1.37-1.58-2A.53.53,0,0,1,7,10.46a.54.54,0,0,1,.14-.34C7.48,9.63,9.47,7.48,10,7.48a.66.66,0,0,1,.39.15l2,1.58a8.35,8.35,0,0,1,1.35-.56,19.86,19.86,0,0,1,.42-2.75.55.55,0,0,1,.54-.41H18a.52.52,0,0,1,.53.44l.41,2.72a8.06,8.06,0,0,1,1.33.54l2.1-1.58a.49.49,0,0,1,.35-.13.58.58,0,0,1,.37.15,18.67,18.67,0,0,1,2.44,2.51.49.49,0,0,1,.1.32.58.58,0,0,1-.12.34c-.5.68-1.05,1.33-1.55,2a8.27,8.27,0,0,1,.61,1.45l2.7.41a.54.54,0,0,1,.42.53ZM16.33,13a3.78,3.78,0,1,0,3.78,3.78A3.79,3.79,0,0,0,16.33,13Z" style="fill:#838383"/></svg>