<svg id="Calque_1" data-name="Calque 1" xmlns="http://www.w3.org/2000/svg" viewBox="0 0 32 32"><title>collapsedimensions_l</title><rect x="18.44" y="10.54" width="10.52" height="10.52" rx="3.33" ry="3.33" style="fill:#e3e3e3"/><path d="M9.19,12.74a1.34,1.34,0,0,1,1.33,1.33v3.86a1.34,1.34,0,0,1-1.33,1.33H5.33A1.34,1.34,0,0,1,4,17.93V14.07a1.34,1.34,0,0,1,1.33-1.33H9.19m0-2H5.33A3.33,3.33,0,0,0,2,14.07v3.86a3.33,3.33,0,0,0,3.33,3.33H9.19a3.33,3.33,0,0,0,3.33-3.33V14.07a3.33,3.33,0,0,0-3.33-3.33Z" style="fill:#e3e3e3"/><line x1="12" y1="14" x2="19" y2="14" style="fill:none;stroke:#e3e3e3;stroke-miterlimit:10;stroke-width:2px"/><line x1="12" y1="18" x2="19" y2="18" style="fill:none;stroke:#e3e3e3;stroke-miterlimit:10;stroke-width:2px"/></svg>