<svg id="Calque_1" data-name="Calque 1" xmlns="http://www.w3.org/2000/svg" viewBox="0 0 32 32"><title>copy_l</title><path d="M28.68,10.87V28.29a1.38,1.38,0,0,1-1.38,1.38H13.54a1.38,1.38,0,0,1-1.37-1.38V24.17H4.38A1.38,1.38,0,0,1,3,22.79V13.16a3.84,3.84,0,0,1,1-2.35L9.82,5a3.85,3.85,0,0,1,2.35-1h6a1.38,1.38,0,0,1,1.38,1.38v4.7a3.92,3.92,0,0,1,1.83-.58h6A1.38,1.38,0,0,1,28.68,10.87Zm-11,.92v-6h-5.5v6a1.37,1.37,0,0,1-1.38,1.37h-6v9.17h7.34V18.66a3.84,3.84,0,0,1,1-2.35ZM6.05,11.33h4.29V7Zm20.79,0h-5.5v6A1.37,1.37,0,0,1,20,18.66H14v9.17H26.84Zm-11.62,5.5h4.29V12.55Z" style="fill:#e3e3e3"/></svg>