<svg id="Calque_1" data-name="Calque 1" xmlns="http://www.w3.org/2000/svg" viewBox="0 0 32 32"><title>distancelink_r</title><path d="M25.6,22a3.34,3.34,0,1,1-2.36,1,3.32,3.32,0,0,1,2.36-1m0-2a5.34,5.34,0,1,0,3.77,1.56A5.35,5.35,0,0,0,25.6,20Z" style="fill:#ec1818"/><path d="M17,22a.29.29,0,0,1-.21.27l-1.38.21a4.09,4.09,0,0,1-.29.68c.25.37.52.69.8,1a.32.32,0,0,1,.07.19.25.25,0,0,1-.06.17c-.18.24-1.19,1.34-1.45,1.34a.37.37,0,0,1-.19-.07l-1-.81a4.48,4.48,0,0,1-.68.29,9.56,9.56,0,0,1-.22,1.39.27.27,0,0,1-.27.21H10.43a.28.28,0,0,1-.27-.23L10,25.3A5.58,5.58,0,0,1,9.28,25l-1,.8a.28.28,0,0,1-.19.07.27.27,0,0,1-.19-.08,9.76,9.76,0,0,1-1.23-1.26.26.26,0,0,1,0-.17.25.25,0,0,1,.06-.17c.25-.35.53-.68.78-1a4,4,0,0,1-.31-.74l-1.36-.2A.27.27,0,0,1,5.52,22V20.31a.29.29,0,0,1,.2-.27l1.39-.21a4.59,4.59,0,0,1,.29-.69c-.25-.35-.52-.69-.8-1a.29.29,0,0,1-.07-.18.28.28,0,0,1,.07-.17c.18-.25,1.19-1.34,1.44-1.34a.29.29,0,0,1,.19.08l1,.8A4.63,4.63,0,0,1,10,17a9.53,9.53,0,0,1,.21-1.39.28.28,0,0,1,.27-.21h1.66a.26.26,0,0,1,.27.23L12.57,17a5,5,0,0,1,.67.28l1.06-.8a.31.31,0,0,1,.18-.07.27.27,0,0,1,.19.08,9.3,9.3,0,0,1,1.24,1.27.28.28,0,0,1,.05.16.39.39,0,0,1-.06.18c-.26.34-.53.67-.79,1a4.56,4.56,0,0,1,.31.73l1.37.21a.27.27,0,0,1,.21.27Zm-5.74-2.76a1.92,1.92,0,1,0,1.92,1.92A1.92,1.92,0,0,0,11.26,19.24Z" style="fill:#ec1818"/><rect x="2" y="1.11" width="10.52" height="10.52" rx="3.33" ry="3.33" style="fill:#ec1818"/><path d="M25.6,22a3.34,3.34,0,1,1-2.36,1,3.32,3.32,0,0,1,2.36-1m0-2a5.34,5.34,0,1,0,3.77,1.56A5.35,5.35,0,0,0,25.6,20Z" style="fill:#ec1818"/><path d="M22.85,14.68a.89.89,0,0,0-.59-.24h-.71a.89.89,0,0,0-.59.24.81.81,0,0,0-.24.6V18l-2.85-2.85a.63.63,0,0,0-.13-.2l-3.28-3.28h2.73a.86.86,0,0,0,.6-.25.84.84,0,0,0,.25-.6v-.69a.82.82,0,0,0-.84-.84H13.39a4.31,4.31,0,0,1-3.11,3.18v2l.15,0h1.66a1.22,1.22,0,0,1,.57.16v-1.1l2,2a1.33,1.33,0,0,1,.68.29l.15.14a9.12,9.12,0,0,1,1.24,1.31,1.2,1.2,0,0,1,.22.62l2,2H17.87a1.26,1.26,0,0,1,.13.54V22a1.13,1.13,0,0,1,0,.18h2.14a5.84,5.84,0,0,1,1-1.33,6.33,6.33,0,0,1,2-1.35V15.28A.9.9,0,0,0,22.85,14.68Z" style="fill:#ec1818"/><rect x="2" y="1.11" width="10.52" height="10.52" rx="3.33" ry="3.33" style="fill:#ec1818"/></svg>