<svg id="Calque_1" data-name="Calque 1" xmlns="http://www.w3.org/2000/svg" viewBox="0 0 32 32"><defs><style>.cls-1{fill:#710132;}</style></defs><title>download_p</title><path class="cls-1" d="M30.68,28a1.17,1.17,0,0,1-.35.85,1.19,1.19,0,0,1-.85.35H6.2A1.2,1.2,0,0,1,5,28V22.39a1.15,1.15,0,0,1,.35-.85,1.14,1.14,0,0,1,.85-.36h7.38L16,23.64a2.54,2.54,0,0,0,3.62,0l2.45-2.46h7.38a1.21,1.21,0,0,1,1.2,1.21ZM19.85,3.53a1.2,1.2,0,0,1,1.2,1.2v8.43h4.41a.91.91,0,0,1,.91.63.94.94,0,0,1-.2,1.08l-7.63,7.62a1,1,0,0,1-1.4,0L9.51,14.87a.94.94,0,0,1-.2-1.08.91.91,0,0,1,.91-.63h4.41V4.73A1.19,1.19,0,0,1,15,3.88a1.17,1.17,0,0,1,.85-.35ZM24.16,26.1a1,1,0,0,0-.7-.3,1,1,0,0,0-.71.3,1,1,0,0,0-.3.7,1,1,0,0,0,.3.7,1,1,0,0,0,.71.31.94.94,0,0,0,.7-.31,1,1,0,0,0,.3-.7A1,1,0,0,0,24.16,26.1Zm3.21,0a1,1,0,0,0-.7-.3,1,1,0,0,0-.71.3,1,1,0,0,0-.3.7,1,1,0,0,0,.3.7,1,1,0,0,0,.71.31.94.94,0,0,0,.7-.31,1,1,0,0,0,.3-.7A1,1,0,0,0,27.37,26.1Z"/></svg>