<svg id="Calque_1" data-name="Calque 1" xmlns="http://www.w3.org/2000/svg" viewBox="0 0 32 32"><title>edit_l_1</title><circle cx="11.15" cy="21.5" r="0.67" style="fill:#e3e3e3"/><path d="M16,3A13,13,0,1,0,29,16,13,13,0,0,0,16,3ZM11.42,24.23a1.33,1.33,0,0,1-.94.38,1.39,1.39,0,0,1-1-.38L8.43,23.1a1.3,1.3,0,0,1-.4-.93,1.35,1.35,0,0,1,.4-1l7.09-7.1a5.39,5.39,0,0,0,3,3ZM24.89,13.7a4.73,4.73,0,0,1-4.41,3.13,4.67,4.67,0,0,1,0-9.33,4.76,4.76,0,0,1,2.39.65.37.37,0,0,1,.17.29.4.4,0,0,1-.17.3L19.82,10.5v2.33l2,1.12c.34-.2,2.76-1.72,3-1.72a.33.33,0,0,1,.33.36A3.94,3.94,0,0,1,24.89,13.7Z" style="fill:#e3e3e3"/></svg>