<svg id="Calque_1" data-name="Calque 1" xmlns="http://www.w3.org/2000/svg" viewBox="0 0 32 32"><title>edit_l_2</title><circle cx="11.04" cy="21.6" r="0.66" style="fill:#e3e3e3"/><path d="M15.82,3.35A12.83,12.83,0,1,0,28.65,16.18,12.82,12.82,0,0,0,15.82,3.35ZM11.31,24.29a1.33,1.33,0,0,1-1.86,0L8.36,23.18A1.25,1.25,0,0,1,8,22.26a1.33,1.33,0,0,1,.39-.94l7-7a5.27,5.27,0,0,0,2.95,3ZM24.59,13.9a4.59,4.59,0,1,1-2-5.47.37.37,0,0,1,.17.29A.39.39,0,0,1,22.6,9l-3,1.74v2.3l2,1.1c.34-.2,2.73-1.7,2.93-1.7a.33.33,0,0,1,.33.36A3.5,3.5,0,0,1,24.59,13.9Z" style="fill:#e3e3e3"/></svg>