<?xml version="1.0" encoding="UTF-8" standalone="no"?>
<!-- Created with Inkscape (http://www.inkscape.org/) -->

<svg
   xmlns:dc="http://purl.org/dc/elements/1.1/"
   xmlns:cc="http://creativecommons.org/ns#"
   xmlns:rdf="http://www.w3.org/1999/02/22-rdf-syntax-ns#"
   xmlns:svg="http://www.w3.org/2000/svg"
   xmlns="http://www.w3.org/2000/svg"
   xmlns:sodipodi="http://sodipodi.sourceforge.net/DTD/sodipodi-0.dtd"
   xmlns:inkscape="http://www.inkscape.org/namespaces/inkscape"
   width="100mm"
   height="100mm"
   viewBox="0 0 100 100"
   version="1.1"
   id="svg8"
   inkscape:version="0.92.4 (5da689c313, 2019-01-14)"
   sodipodi:docname="eyebrow.svg"
   inkscape:export-filename="F:\DEV_SRC\RainboxUI\Icons\25w\w25_eyebrow_l.png"
   inkscape:export-xdpi="6.3499999"
   inkscape:export-ydpi="6.3499999">
  <defs
     id="defs2" />
  <sodipodi:namedview
     id="base"
     pagecolor="#ffffff"
     bordercolor="#666666"
     borderopacity="1.0"
     inkscape:pageopacity="0.0"
     inkscape:pageshadow="2"
     inkscape:zoom="1.489335"
     inkscape:cx="404.66245"
     inkscape:cy="137.90379"
     inkscape:document-units="mm"
     inkscape:current-layer="layer1"
     showgrid="false"
     inkscape:window-width="3378"
     inkscape:window-height="1417"
     inkscape:window-x="54"
     inkscape:window-y="-8"
     inkscape:window-maximized="1" />
  <metadata
     id="metadata5">
    <rdf:RDF>
      <cc:Work
         rdf:about="">
        <dc:format>image/svg+xml</dc:format>
        <dc:type
           rdf:resource="http://purl.org/dc/dcmitype/StillImage" />
        <dc:title />
      </cc:Work>
    </rdf:RDF>
  </metadata>
  <g
     inkscape:label="Calque 1"
     inkscape:groupmode="layer"
     id="layer1"
     transform="translate(0,-197)">
    <path
       style="fill:#e3e3e3;stroke-width:0.16075951;fill-opacity:1"
       d="m 16.983578,257.54626 c -1.185542,-0.44654 -1.387301,-0.56067 -2.089873,-1.18212 -0.427215,-0.3779 -0.930854,-1.05986 -1.230038,-1.66556 -0.893333,-1.80855 -3.7833895,-8.71158 -4.0301895,-9.62629 -0.595919,-2.20862 0.4971985,-4.74727 2.5176245,-5.84693 1.330492,-0.72414 6.929402,-2.249 12.227414,-3.33013 12.000711,-2.4489 24.369575,-2.74954 35.579402,-0.86479 4.405535,0.74072 7.384775,1.48034 11.753365,2.91787 6.633606,2.18287 12.056473,4.77214 17.000447,8.11724 1.965868,1.33011 2.789396,2.10882 2.9634,2.8021 0.155439,0.61933 -0.202769,1.59381 -0.757417,2.06052 -0.721344,0.60697 -1.544302,0.54522 -4.221154,-0.31673 -8.990941,-2.89509 -19.415191,-4.43704 -28.397787,-4.2006 -13.321109,0.35064 -25.535534,3.74176 -36.116928,10.02723 -0.81029,0.48132 -1.816487,0.97842 -2.235993,1.10468 -0.941136,0.28323 -2.215593,0.28475 -2.962273,0.004 z"
       id="path5839"
       inkscape:connector-curvature="0"
       sodipodi:nodetypes="cccccsscsccsscccc" />
  </g>
</svg>
