<?xml version="1.0" encoding="UTF-8" standalone="no"?>
<svg
   xmlns:dc="http://purl.org/dc/elements/1.1/"
   xmlns:cc="http://creativecommons.org/ns#"
   xmlns:rdf="http://www.w3.org/1999/02/22-rdf-syntax-ns#"
   xmlns:svg="http://www.w3.org/2000/svg"
   xmlns="http://www.w3.org/2000/svg"
   xmlns:sodipodi="http://sodipodi.sourceforge.net/DTD/sodipodi-0.dtd"
   xmlns:inkscape="http://www.inkscape.org/namespaces/inkscape"
   viewBox="0 0 512 512"
   version="1.1"
   id="svg4"
   sodipodi:docname="filmplay.svg"
   inkscape:version="0.92.3 (2405546, 2018-03-11)"
   inkscape:export-filename="/home/duduf/Images/filmplay.png"
   inkscape:export-xdpi="96"
   inkscape:export-ydpi="96">
  <metadata
     id="metadata10">
    <rdf:RDF>
      <cc:Work
         rdf:about="">
        <dc:format>image/svg+xml</dc:format>
        <dc:type
           rdf:resource="http://purl.org/dc/dcmitype/StillImage" />
        <dc:title></dc:title>
      </cc:Work>
    </rdf:RDF>
  </metadata>
  <defs
     id="defs8">
    <mask
       maskUnits="userSpaceOnUse"
       id="mask4586">
      <g
         id="g4592"
         style="display:inline">
        <rect
           y="-20.61017"
           x="-38.508476"
           height="551.05084"
           width="570.57629"
           id="rect4588"
           style="fill:#ffffff;fill-opacity:1;stroke:none;stroke-width:12.65972805;stroke-linecap:square;stroke-linejoin:miter;stroke-miterlimit:4;stroke-dasharray:none;stroke-opacity:1;paint-order:stroke fill markers" />
        <path
           style="fill:#000000;fill-opacity:1;stroke:none;stroke-width:0.41887"
           inkscape:connector-curvature="0"
           d="M 340.48654,234.95516 193.04429,147.78832 c -11.97968,-7.07889 -30.32618,-0.20943 -30.32618,17.29933 v 174.29181 c 0,15.70762 17.048,25.17408 30.32618,17.29933 l 147.44225,-87.12496 c 13.15252,-7.7491 13.1944,-26.84957 0,-34.59867 z"
           id="path4590" />
      </g>
    </mask>
  </defs>
  <sodipodi:namedview
     pagecolor="#ffffff"
     bordercolor="#666666"
     borderopacity="1"
     objecttolerance="10"
     gridtolerance="10"
     guidetolerance="10"
     inkscape:pageopacity="0"
     inkscape:pageshadow="2"
     inkscape:window-width="1779"
     inkscape:window-height="1152"
     id="namedview6"
     showgrid="false"
     inkscape:zoom="0.921875"
     inkscape:cx="242.19003"
     inkscape:cy="267.97415"
     inkscape:window-x="330"
     inkscape:window-y="174"
     inkscape:window-maximized="0"
     inkscape:current-layer="svg4" />
  <path
     d="m 488,448 h -8 v -20 c 0,-6.6 -5.4,-12 -12,-12 h -40 c -6.6,0 -12,5.4 -12,12 v 20 H 96 v -20 c 0,-6.6 -5.4,-12 -12,-12 H 44 c -6.6,0 -12,5.4 -12,12 v 20 H 24 C 10.7,448 0,437.3 0,424 V 88 C 0,74.7 10.7,64 24,64 h 8 v 20 c 0,6.6 5.4,12 12,12 h 40 c 6.6,0 12,-5.4 12,-12 V 64 h 320 v 20 c 0,6.6 5.4,12 12,12 h 40 c 6.6,0 12,-5.4 12,-12 V 64 h 8 c 13.3,0 24,10.7 24,24 v 336 c 0,13.3 -10.7,24 -24,24 z M 96,140 c 0,-6.6 -5.4,-12 -12,-12 H 44 c -6.6,0 -12,5.4 -12,12 v 40 c 0,6.6 5.4,12 12,12 h 40 c 6.6,0 12,-5.4 12,-12 z m 0,96 c 0,-6.6 -5.4,-12 -12,-12 H 44 c -6.6,0 -12,5.4 -12,12 v 40 c 0,6.6 5.4,12 12,12 h 40 c 6.6,0 12,-5.4 12,-12 z m 0,96 c 0,-6.6 -5.4,-12 -12,-12 H 44 c -6.6,0 -12,5.4 -12,12 v 40 c 0,6.6 5.4,12 12,12 h 40 c 6.6,0 12,-5.4 12,-12 z M 480,140 c 0,-6.6 -5.4,-12 -12,-12 h -40 c -6.6,0 -12,5.4 -12,12 v 40 c 0,6.6 5.4,12 12,12 h 40 c 6.6,0 12,-5.4 12,-12 z m 0,96 c 0,-6.6 -5.4,-12 -12,-12 h -40 c -6.6,0 -12,5.4 -12,12 v 40 c 0,6.6 5.4,12 12,12 h 40 c 6.6,0 12,-5.4 12,-12 z m 0,96 c 0,-6.6 -5.4,-12 -12,-12 h -40 c -6.6,0 -12,5.4 -12,12 v 40 c 0,6.6 5.4,12 12,12 h 40 c 6.6,0 12,-5.4 12,-12 z"
     id="path2"
     inkscape:connector-curvature="0"
     sodipodi:nodetypes="scssssccsssscsssscssssccsssscsssssssssssssssssssssssssssssssssssssssssssssssssasssssssa"
     mask="url(#mask4586)" />
</svg>
