<?xml version="1.0" encoding="UTF-8" standalone="no"?>
<svg
   xmlns:dc="http://purl.org/dc/elements/1.1/"
   xmlns:cc="http://creativecommons.org/ns#"
   xmlns:rdf="http://www.w3.org/1999/02/22-rdf-syntax-ns#"
   xmlns:svg="http://www.w3.org/2000/svg"
   xmlns="http://www.w3.org/2000/svg"
   xmlns:sodipodi="http://sodipodi.sourceforge.net/DTD/sodipodi-0.dtd"
   xmlns:inkscape="http://www.inkscape.org/namespaces/inkscape"
   id="Calque_1"
   data-name="Calque 1"
   viewBox="0 0 32 32"
   version="1.1"
   sodipodi:docname="folder_m.svg"
   inkscape:version="0.92.4 (5da689c313, 2019-01-14)">
  <metadata
     id="metadata13">
    <rdf:RDF>
      <cc:Work
         rdf:about="">
        <dc:format>image/svg+xml</dc:format>
        <dc:type
           rdf:resource="http://purl.org/dc/dcmitype/StillImage" />
        <dc:title>folder_r</dc:title>
      </cc:Work>
    </rdf:RDF>
  </metadata>
  <sodipodi:namedview
     pagecolor="#ffffff"
     bordercolor="#666666"
     borderopacity="1"
     objecttolerance="10"
     gridtolerance="10"
     guidetolerance="10"
     inkscape:pageopacity="0"
     inkscape:pageshadow="2"
     inkscape:window-width="1858"
     inkscape:window-height="1057"
     id="namedview11"
     showgrid="false"
     inkscape:zoom="4.5732338"
     inkscape:cx="-15.457641"
     inkscape:cy="-23.554767"
     inkscape:window-x="54"
     inkscape:window-y="-1"
     inkscape:window-maximized="1"
     inkscape:current-layer="Calque_1" />
  <defs
     id="defs4">
    <style
       id="style2">.cls-1{fill:#ec1818;}</style>
    <style
       id="style4935">.cls-1{fill:#838383;}</style>
  </defs>
  <title
     id="title6">folder_r</title>
  <path
     class="cls-1"
     d="M10.62,14.76a4.56,4.56,0,0,0-2.4.66,4.92,4.92,0,0,0-1.76,1.75L3,23.09V9.15A2.39,2.39,0,0,1,5.41,6.74h8L16.64,10h8a2.39,2.39,0,0,1,2.4,2.41v2.4Zm21.12,3.42a1.21,1.21,0,0,0-1-1.81H10.62A3.15,3.15,0,0,0,9,16.8,2.78,2.78,0,0,0,7.87,18L4.2,24.19A1.21,1.21,0,0,0,5.26,26H25.32a3.12,3.12,0,0,0,1.6-.43,2.84,2.84,0,0,0,1.16-1.17Z"
     id="path8"
     style="fill:#838383;fill-opacity:1" />
</svg>
