<?xml version="1.0" encoding="UTF-8" standalone="no"?>
<!-- Created with Inkscape (http://www.inkscape.org/) -->

<svg
   xmlns:dc="http://purl.org/dc/elements/1.1/"
   xmlns:cc="http://creativecommons.org/ns#"
   xmlns:rdf="http://www.w3.org/1999/02/22-rdf-syntax-ns#"
   xmlns:svg="http://www.w3.org/2000/svg"
   xmlns="http://www.w3.org/2000/svg"
   xmlns:sodipodi="http://sodipodi.sourceforge.net/DTD/sodipodi-0.dtd"
   xmlns:inkscape="http://www.inkscape.org/namespaces/inkscape"
   width="100mm"
   height="100mm"
   viewBox="0 0 100 100"
   version="1.1"
   id="svg8"
   inkscape:version="0.92.4 (5da689c313, 2019-01-14)"
   sodipodi:docname="hair.svg"
   inkscape:export-filename="F:\DEV_SRC\RainboxUI\Icons\25w\w25_hair_l.png"
   inkscape:export-xdpi="6.3499999"
   inkscape:export-ydpi="6.3499999">
  <defs
     id="defs2" />
  <sodipodi:namedview
     id="base"
     pagecolor="#ffffff"
     bordercolor="#666666"
     borderopacity="1.0"
     inkscape:pageopacity="0.0"
     inkscape:pageshadow="2"
     inkscape:zoom="1.4893351"
     inkscape:cx="326.62239"
     inkscape:cy="185.40239"
     inkscape:document-units="mm"
     inkscape:current-layer="layer1"
     showgrid="false"
     inkscape:window-width="3378"
     inkscape:window-height="1417"
     inkscape:window-x="54"
     inkscape:window-y="-8"
     inkscape:window-maximized="1" />
  <metadata
     id="metadata5">
    <rdf:RDF>
      <cc:Work
         rdf:about="">
        <dc:format>image/svg+xml</dc:format>
        <dc:type
           rdf:resource="http://purl.org/dc/dcmitype/StillImage" />
        <dc:title />
      </cc:Work>
    </rdf:RDF>
  </metadata>
  <g
     inkscape:label="Calque 1"
     inkscape:groupmode="layer"
     id="layer1"
     transform="translate(0,-197)">
    <path
       style="fill:#e3e3e3;stroke-width:0.21222037;fill-opacity:1"
       d="m 60.124897,273.96647 c 1.307171,-1.37611 1.88144,-1.9234 5.086931,-8.02741 2.671307,-5.0868 2.895261,-5.9467 2.553991,-9.80645 -0.316562,-3.58032 -0.926535,-7.17179 -1.826011,-10.75141 -0.392143,-1.56061 -0.741286,-2.86055 -0.775872,-2.88876 -0.03459,-0.0282 -1.065624,0.0705 -2.291197,0.21934 -4.026839,0.48907 -8.129683,0.73192 -12.365661,0.73192 H 46.33591 l -0.206934,-0.79583 c -0.778963,-2.99573 -1.053812,-7.66599 -0.669975,-11.38421 0.143306,-1.3882 0.316285,-2.66923 0.384397,-2.84673 0.08589,-0.22384 0.0405,-0.27122 -0.148138,-0.15463 -0.405817,0.25081 -1.216751,2.21102 -1.689143,4.08303 -0.581987,2.30633 -0.853644,4.50158 -1.013183,8.1875 l -0.137141,3.16845 -2.035034,-0.14133 c -2.263222,-0.15717 -6.947057,-0.66369 -8.673353,-0.93796 -0.616326,-0.0979 -1.158575,-0.11658 -1.204998,-0.0415 -0.04642,0.0751 -0.257905,0.99243 -0.469962,2.03848 -0.59527,2.93639 -0.537125,9.82446 0.108059,12.8008 1.67722,7.73733 4.435272,14.21397 6.693861,16.91577 -3.191972,-0.61091 -4.284872,-1.92822 -4.284872,-1.92822 0.121883,0.98132 0.388642,1.58638 1.096265,2.38441 -1.040955,0.075 -3.647393,-2.01614 -4.701978,-3.44105 -0.904984,-1.22278 -0.936119,-1.24384 -0.784309,-0.53055 0.231537,1.0879 1.046514,2.601 1.872843,3.47717 l 0.723595,0.76724 h -0.574716 c -0.845684,0 -3.666443,-0.7589 -4.610042,-1.24029 -3.221285,-1.64338 -5.667719,-4.75566 -7.592848,-9.65941 -2.051277,-5.22507 -2.645432,-10.31527 -1.923402,-16.47803 1.10137,-9.40057 3.47726,-16.70521 7.696012,-23.66127 3.756248,-6.19347 8.031223,-10.36133 13.059704,-12.73247 2.92017,-1.37699 4.25914,-1.68292 7.371169,-1.6842 2.831871,-0.001 4.438324,0.3828 5.80205,1.38676 l 0.602653,0.44366 1.20122,-0.53502 c 2.946892,-1.31255 6.900759,-1.67644 9.796148,-0.90157 6.859225,1.83567 13.449092,8.42646 18.264676,18.26724 3.919171,8.00895 5.06966,13.70245 4.459883,22.07092 -0.516608,7.08984 -1.513519,11.57062 -3.427093,15.40362 -1.91342,3.83269 -6.411038,7.4947 -9.554998,7.77979 -0.68951,0.0625 -1.253653,0.0621 -1.253653,-8.5e-4 0,-0.063 0.237814,-0.62537 0.528477,-1.24975 0.290664,-0.62437 0.529411,-1.50182 0.530551,-1.94988 l 0.0021,-0.81466 -1.856928,1.89617 c -1.934123,1.975 -3.400507,2.89545 -4.416387,2.77218 l -0.560024,-0.0679 0.679466,-0.84888 c 0.373706,-0.46689 0.945043,-1.37413 1.269638,-2.0161 0.732443,-1.44858 1.772185,-4.34897 1.669485,-4.65707 0,0 -3.90313,6.30366 -8.234154,7.37894 z"
       id="path5777"
       inkscape:connector-curvature="0"
       sodipodi:nodetypes="csscccsccscccsccccsccccccscsssssccccccssscscccscccccc" />
  </g>
</svg>
