<svg id="Calque_1" data-name="Calque 1" xmlns="http://www.w3.org/2000/svg" viewBox="0 0 32 32"><title>handeyedropper_l</title><path d="M30.15,7.63l-2.54,2.52,1.17,1.17a.36.36,0,0,1,0,.52l-2.36,2.37a.37.37,0,0,1-.52,0L24.71,13l-6.8,6.8a1.42,1.42,0,0,1-1,.42H14.61l-2.89,1.44L11,21l1.44-2.89V15.78a1.42,1.42,0,0,1,.42-1L19.66,8,18.48,6.79a.36.36,0,0,1,0-.52L20.84,3.9a.36.36,0,0,1,.52,0l1.18,1.17,2.51-2.54a3.61,3.61,0,1,1,5.1,5.1Zm-6.88,4L21.1,9.41l-6.49,6.5v2.16h2.16Z" style="fill:#e3e3e3"/><path d="M15,10.51V9.65A1.63,1.63,0,0,0,13.36,8c-.9,0-1.23.72-1.23,1.63v3.74Z" style="fill:#e3e3e3"/><path d="M19,20.88a2.92,2.92,0,0,1-2.07.86H15L12.39,23a1.44,1.44,0,0,1-.67.16,1.49,1.49,0,0,1-1.06-.44L9.94,22a1.49,1.49,0,0,1-.28-1.73l1.28-2.57V15.78a2.93,2.93,0,0,1,.44-1.53V10.89c0-.91-.86-1-1.77-1s-1.24.39-1.24,1.29V18.9L8,23,5.72,20a1.87,1.87,0,1,0-3,2.26l5.63,7.49a1.86,1.86,0,0,0,1.49.75H19.92a1.41,1.41,0,0,0,1.39-1.14l1.12-5.93a6.13,6.13,0,0,0,.07-.87V17.35Z" style="fill:#e3e3e3"/><path d="M30.15,7.63l-2.54,2.52,1.17,1.17a.36.36,0,0,1,0,.52l-2.36,2.37a.37.37,0,0,1-.52,0L24.71,13l-6.8,6.8a1.42,1.42,0,0,1-1,.42H14.61l-2.89,1.44L11,21l1.44-2.89V15.78a1.42,1.42,0,0,1,.42-1L19.66,8,18.48,6.79a.36.36,0,0,1,0-.52L20.84,3.9a.36.36,0,0,1,.52,0l1.18,1.17,2.51-2.54a3.61,3.61,0,1,1,5.1,5.1Zm-6.88,4L21.1,9.41l-6.49,6.5v2.16h2.16Z" style="fill:#e3e3e3"/></svg>