<svg id="Calque_1" data-name="Calque 1" xmlns="http://www.w3.org/2000/svg" viewBox="0 0 32 32"><title>hand_r</title><path d="M19.72,4.82a3.23,3.23,0,0,1,.61-.06,3.46,3.46,0,0,1,3.45,3.45v.25a3.44,3.44,0,0,1,3.68,3.43v7.16a5.93,5.93,0,0,1-.12,1.19l-1.09,5.81a3.21,3.21,0,0,1-3.16,2.63H13.2a3.74,3.74,0,0,1-2.95-1.47L4.73,19.85A3.73,3.73,0,0,1,4,17.64,3.68,3.68,0,0,1,7.68,14a3.39,3.39,0,0,1,1.84.49V8.21A3.46,3.46,0,0,1,13,4.76a3.05,3.05,0,0,1,.6.06,3.44,3.44,0,0,1,6.15,0ZM15,6.37V15.8h-.46V8.21a1.61,1.61,0,1,0-3.22,0V19.48L9.15,16.53a1.84,1.84,0,0,0-2.94,2.22l5.52,7.36a1.84,1.84,0,0,0,1.47.73h9.89a1.39,1.39,0,0,0,1.36-1.12l1.1-5.82a6,6,0,0,0,.07-.85V11.89a1.61,1.61,0,1,0-3.22,0V15.8h-.46V8.21a1.61,1.61,0,0,0-3.22,0V15.8h-.46V6.37a1.61,1.61,0,0,0-3.22,0Z" style="fill:#ec1818"/></svg>