<svg id="Calque_1" data-name="Calque 1" xmlns="http://www.w3.org/2000/svg" viewBox="0 0 32 32"><title>help_r</title><path d="M20.41,16.92A2.87,2.87,0,0,0,19,18.81a.67.67,0,0,1-.57.69H15c-.32,0-.52-.49-.52-.8v-.65c0-1.73,1.72-3.22,3-3.8,1.1-.5,1.56-1,1.56-1.89s-1-1.52-2.2-1.52a2.89,2.89,0,0,0-1.55.42,8,8,0,0,0-1.53,1.65.62.62,0,0,1-.45.23A.7.7,0,0,1,13,13L10.6,11.23a.57.57,0,0,1-.14-.76,7.29,7.29,0,0,1,6.65-3.81c3.07,0,6.5,2.45,6.5,5.73C23.61,15.11,21.77,16.16,20.41,16.92Zm-1.32,7.51a.58.58,0,0,1-.58.57H15.08a.58.58,0,0,1-.58-.57V21a.57.57,0,0,1,.58-.57h3.43a.57.57,0,0,1,.58.57Z" style="fill:#ec1818"/></svg>