<svg id="Calque_1" data-name="Calque 1" xmlns="http://www.w3.org/2000/svg" viewBox="0 0 32 32"><title>hidehand_l</title><path d="M21.2,12.82c.19,0,.38,0,.57,0v-7a2,2,0,0,0-2-2c-1.13,0-1.54.91-1.54,2v7.34A12.18,12.18,0,0,1,21.2,12.82Z" style="fill:#e3e3e3"/><path d="M26.44,14V10.54a2,2,0,0,0-2.05-2c-1.13,0-1.45.91-1.45,2V13A12.77,12.77,0,0,1,26.44,14Z" style="fill:#e3e3e3"/><path d="M21.2,29a13,13,0,0,1-11-6.32,3.45,3.45,0,0,1-.51-1.77,3.39,3.39,0,0,1,.48-1.72,13.77,13.77,0,0,1,3.32-3.71l-.93-.77V5.09c0-1.13-1.07-1.26-2.2-1.26s-1.54.48-1.54,1.61v9.62l-.5,5.11L5.54,16.43a2.31,2.31,0,0,0-1.85-.93,2.34,2.34,0,0,0-2.34,2.33,2.31,2.31,0,0,0,.48,1.41l7,9.33a2.33,2.33,0,0,0,1.86.93H23.23a1.77,1.77,0,0,0,1.59-1.06A12.32,12.32,0,0,1,21.2,29Z" style="fill:#e3e3e3"/><path d="M17.1,13.56v-10a2,2,0,0,0-2-2c-1.13,0-1.53.9-1.53,2v12A13.12,13.12,0,0,1,17.1,13.56Z" style="fill:#e3e3e3"/><path d="M25.53,14.93c-2.23,4-4.44,8-6.67,12l-.52.94a.36.36,0,0,1-.29.17,9.24,9.24,0,0,1-1.42-.74.34.34,0,0,1-.17-.3,4.16,4.16,0,0,1,.46-.92,11.84,11.84,0,0,1-5-4.42,1.41,1.41,0,0,1-.21-.73,1.44,1.44,0,0,1,.21-.73,11.06,11.06,0,0,1,9.27-5.36,10.11,10.11,0,0,1,1.9.18l.57-1a.36.36,0,0,1,.3-.17,9.08,9.08,0,0,1,1.4.74.34.34,0,0,1,.17.29A.38.38,0,0,1,25.53,14.93Zm-7.11,8.46a4.74,4.74,0,0,1-2-3.83,4.63,4.63,0,0,1,.65-2.38,10.62,10.62,0,0,0-4,3.73,10.7,10.7,0,0,0,4.51,4Zm2.78-7A3.23,3.23,0,0,0,18,19.56a.51.51,0,0,0,1,0,2.2,2.2,0,0,1,2.2-2.2.52.52,0,0,0,.51-.51A.53.53,0,0,0,21.2,16.34Zm9.26,5.3a11.54,11.54,0,0,1-1.15,1.53A10.7,10.7,0,0,1,21.2,27L22,25.61a9.89,9.89,0,0,0,7.34-4.7,11,11,0,0,0-3-3.11L27,16.62a12.11,12.11,0,0,1,3.46,3.56,1.35,1.35,0,0,1,.21.73A1.32,1.32,0,0,1,30.46,21.64ZM22.89,24l3-5.31a5.26,5.26,0,0,1,.08.89A4.73,4.73,0,0,1,22.89,24Z" style="fill:#e3e3e3"/></svg>