<svg id="Calque_1" data-name="Calque 1" xmlns="http://www.w3.org/2000/svg" viewBox="0 0 32 32"><title>individualcontrol_l</title><path d="M31,11a.29.29,0,0,1-.21.27l-1.38.21a4.09,4.09,0,0,1-.29.68c.25.37.52.69.8,1a.32.32,0,0,1,.07.19.25.25,0,0,1-.06.17c-.18.24-1.19,1.34-1.45,1.34a.37.37,0,0,1-.19-.07l-1-.81a4.48,4.48,0,0,1-.68.29,9.56,9.56,0,0,1-.22,1.39.27.27,0,0,1-.27.21H24.43a.28.28,0,0,1-.27-.23L24,14.3a5.58,5.58,0,0,1-.67-.28l-1.05.8a.28.28,0,0,1-.19.07.27.27,0,0,1-.19-.08,9.76,9.76,0,0,1-1.23-1.26.26.26,0,0,1-.05-.17.25.25,0,0,1,.06-.17c.25-.35.53-.68.78-1a4,4,0,0,1-.31-.74l-1.36-.2a.27.27,0,0,1-.22-.27V9.31a.29.29,0,0,1,.2-.27l1.39-.21a4.59,4.59,0,0,1,.29-.69c-.25-.35-.52-.69-.8-1a.29.29,0,0,1-.07-.18.28.28,0,0,1,.07-.17c.18-.25,1.19-1.34,1.44-1.34a.29.29,0,0,1,.19.08l1,.8A4.63,4.63,0,0,1,24,6a9.53,9.53,0,0,1,.21-1.39.28.28,0,0,1,.27-.21h1.66a.26.26,0,0,1,.27.23L26.57,6a5,5,0,0,1,.67.28l1.06-.8a.31.31,0,0,1,.18-.07.27.27,0,0,1,.19.08,9.3,9.3,0,0,1,1.24,1.27.28.28,0,0,1,.05.16.39.39,0,0,1-.06.18c-.26.34-.53.67-.79,1a4.56,4.56,0,0,1,.31.73l1.37.21a.27.27,0,0,1,.21.27ZM25.26,8.24a1.92,1.92,0,1,0,1.92,1.92A1.92,1.92,0,0,0,25.26,8.24Z" style="fill:#e3e3e3"/><rect x="3" y="4.11" width="10.52" height="10.52" rx="3.33" ry="3.33" style="fill:#e3e3e3"/><rect x="3" y="18.11" width="10.52" height="10.52" rx="3.33" ry="3.33" style="fill:#e3e3e3"/><path d="M18,11V9.31A1.54,1.54,0,0,1,18.07,9H10v2h8Z" style="fill:#e3e3e3"/><path d="M31,24a.29.29,0,0,1-.21.27l-1.38.21a4.09,4.09,0,0,1-.29.68c.25.37.52.69.8,1a.32.32,0,0,1,.07.19.25.25,0,0,1-.06.17c-.18.24-1.19,1.34-1.45,1.34a.37.37,0,0,1-.19-.07l-1-.81a4.48,4.48,0,0,1-.68.29,9.56,9.56,0,0,1-.22,1.39.27.27,0,0,1-.27.21H24.43a.28.28,0,0,1-.27-.23L24,27.3a5.58,5.58,0,0,1-.67-.28l-1.05.8a.28.28,0,0,1-.19.07.27.27,0,0,1-.19-.08,9.76,9.76,0,0,1-1.23-1.26.26.26,0,0,1-.05-.17.25.25,0,0,1,.06-.17c.25-.35.53-.68.78-1a4,4,0,0,1-.31-.74l-1.36-.2a.27.27,0,0,1-.22-.27V22.31a.29.29,0,0,1,.2-.27l1.39-.21a4.59,4.59,0,0,1,.29-.69c-.25-.35-.52-.69-.8-1a.29.29,0,0,1-.07-.18.28.28,0,0,1,.07-.17c.18-.25,1.19-1.34,1.44-1.34a.29.29,0,0,1,.19.08l1,.8A4.63,4.63,0,0,1,24,19a9.53,9.53,0,0,1,.21-1.39.28.28,0,0,1,.27-.21h1.66a.26.26,0,0,1,.27.23L26.57,19a5,5,0,0,1,.67.28l1.06-.8a.31.31,0,0,1,.18-.07.27.27,0,0,1,.19.08,9.3,9.3,0,0,1,1.24,1.27.28.28,0,0,1,.05.16.39.39,0,0,1-.06.18c-.26.34-.53.67-.79,1a4.56,4.56,0,0,1,.31.73l1.37.21a.27.27,0,0,1,.21.27Zm-5.74-2.76a1.92,1.92,0,1,0,1.92,1.92A1.92,1.92,0,0,0,25.26,21.24Z" style="fill:#e3e3e3"/><path d="M18,24V22.31a1.54,1.54,0,0,1,.05-.31H10v2h8Z" style="fill:#e3e3e3"/></svg>