<svg id="Calque_1" data-name="Calque 1" xmlns="http://www.w3.org/2000/svg" viewBox="0 0 32 32"><title>io_r</title><path d="M28.55,11.49,24,16.08a.49.49,0,0,1-.33.13.48.48,0,0,1-.46-.46V13H3.46A.47.47,0,0,1,3,12.54V9.79a.47.47,0,0,1,.46-.46H23.17V6.58a.45.45,0,0,1,.46-.46.57.57,0,0,1,.35.14l4.57,4.57a.53.53,0,0,1,.13.33A.49.49,0,0,1,28.55,11.49Zm.13,10.22a.48.48,0,0,1-.46.46H8.5v2.75a.47.47,0,0,1-.46.46.5.5,0,0,1-.34-.15L3.13,20.65A.44.44,0,0,1,3,20.33.44.44,0,0,1,3.13,20l4.58-4.58A.48.48,0,0,1,8,15.29a.46.46,0,0,1,.46.46V18.5H28.22a.47.47,0,0,1,.46.46Z" style="fill:#ec1818"/></svg>