<svg id="Calque_1" data-name="Calque 1" xmlns="http://www.w3.org/2000/svg" viewBox="0 0 18 12"><title>keyboard_l</title><path d="M16.63,9.71a1.09,1.09,0,0,1-1.09,1.09H1.29A1.09,1.09,0,0,1,.2,9.71V2A1.09,1.09,0,0,1,1.29.94H15.54A1.09,1.09,0,0,1,16.63,2ZM15.54,2H1.29V9.71H15.54Zm-12,2.05a.14.14,0,0,1-.14.14H2.53a.14.14,0,0,1-.14-.14V3.27a.14.14,0,0,1,.14-.14h.82a.14.14,0,0,1,.14.14ZM4.58,6.28a.13.13,0,0,1-.13.14H2.53a.14.14,0,0,1-.14-.14V5.46a.14.14,0,0,1,.14-.14H4.45a.13.13,0,0,1,.13.14ZM3.49,8.47a.14.14,0,0,1-.14.14H2.53a.14.14,0,0,1-.14-.14V7.65a.14.14,0,0,1,.14-.14h.82a.14.14,0,0,1,.14.14ZM5.68,4.09a.14.14,0,0,1-.14.14H4.72a.14.14,0,0,1-.14-.14V3.27a.14.14,0,0,1,.14-.14h.82a.14.14,0,0,1,.14.14Zm6.57,4.38a.13.13,0,0,1-.13.14H4.72a.14.14,0,0,1-.14-.14V7.65a.14.14,0,0,1,.14-.14h7.4a.13.13,0,0,1,.13.14ZM6.77,6.28a.13.13,0,0,1-.13.14H5.81a.13.13,0,0,1-.13-.14V5.46a.13.13,0,0,1,.13-.14h.83a.13.13,0,0,1,.13.14Zm1.1-2.19a.14.14,0,0,1-.14.14H6.91a.14.14,0,0,1-.14-.14V3.27a.14.14,0,0,1,.14-.14h.82a.14.14,0,0,1,.14.14ZM9,6.28a.13.13,0,0,1-.13.14H8a.14.14,0,0,1-.14-.14V5.46A.14.14,0,0,1,8,5.32h.82A.13.13,0,0,1,9,5.46Zm1.1-2.19a.14.14,0,0,1-.14.14H9.1A.14.14,0,0,1,9,4.09V3.27a.14.14,0,0,1,.14-.14h.82a.14.14,0,0,1,.14.14Zm1.1,2.19a.14.14,0,0,1-.14.14H10.2a.14.14,0,0,1-.14-.14V5.46a.14.14,0,0,1,.14-.14H11a.14.14,0,0,1,.14.14Zm1.09-2.19a.13.13,0,0,1-.13.14h-.83a.13.13,0,0,1-.13-.14V3.27a.13.13,0,0,1,.13-.14h.83a.13.13,0,0,1,.13.14Zm2.19,2.19a.13.13,0,0,1-.13.14H12.39a.14.14,0,0,1-.14-.14V5.46a.14.14,0,0,1,.14-.14h1V3.27a.13.13,0,0,1,.13-.14h.83a.13.13,0,0,1,.13.14Zm0,2.19a.13.13,0,0,1-.13.14h-.83a.13.13,0,0,1-.13-.14V7.65a.13.13,0,0,1,.13-.14h.83a.13.13,0,0,1,.13.14Z" style="fill:#e3e3e3"/></svg>