<svg id="Calque_1" data-name="Calque 1" xmlns="http://www.w3.org/2000/svg" viewBox="0 0 32 32"><title>keyeyedropper_l</title><path d="M28.15,6.63,25.61,9.15l1.17,1.17a.36.36,0,0,1,0,.52l-2.36,2.37a.37.37,0,0,1-.52,0L22.71,12l-6.8,6.8a1.42,1.42,0,0,1-1,.42H12.61L9.72,20.68,9,20l1.44-2.89V14.78a1.42,1.42,0,0,1,.42-1L17.66,7,16.48,5.79a.36.36,0,0,1,0-.52L18.84,2.9a.36.36,0,0,1,.52,0l1.18,1.17,2.51-2.54a3.61,3.61,0,1,1,5.1,5.1Zm-6.88,4L19.1,8.41l-6.49,6.5v2.16h2.16Z" style="fill:#e3e3e3"/><polygon points="10 26 10 25 15 20 15 19 2 19 2 20 7 25 7 26 2 31 2 32 15 32 15 31 10 26" style="fill:#e3e3e3"/></svg>