<svg id="Calque_1" data-name="Calque 1" xmlns="http://www.w3.org/2000/svg" viewBox="0 0 32 32"><title>language_m</title><path d="M27.66,26.69,16.24,23.06c-.23.11-10.81,3.68-11,3.68a.28.28,0,0,1-.26-.2s0,0,0,0V10.59s0-.11.06-.14a.59.59,0,0,1,.29-.17l2.2-.73V3.88L15.79,6.8c.1,0,9.28-3.2,9.41-3.2a.3.3,0,0,1,.3.31v6.17l2.16.69ZM15.82,22.62V7.39L5.58,10.83V26ZM13.71,19.2c-.2-.09-1.07-.58-1.29-.73s-1.06-.84-1.16-.88a26.43,26.43,0,0,1-2,2.67,10.54,10.54,0,0,1-1.55,1.62,1.36,1.36,0,0,1-.56.06,17.89,17.89,0,0,0,1.21-1.36c.37-.43,2.12-2.87,2.42-3.43s1.24-2.42,1.28-2.6a12.61,12.61,0,0,0-1.62.49c-.29.08-1.11.28-1.17.32s0,.24,0,.29a1,1,0,0,1-.46.23,1.6,1.6,0,0,1-.69,0,.83.83,0,0,1-.41-.31.78.78,0,0,1-.08-.34c.18-.06.47-.08.8-.17s1.12-.32,1.55-.47,1.25-.46,1.5-.51.93-.49,1.29-.61.6-.26.62-.19a2.75,2.75,0,0,1,0,.49c0,.07-.72,1.46-.82,1.68s-.48.9-1.14,1.93c.24.1.74.31.94.41s2,.86,2.1.89a1.79,1.79,0,0,1,.22.83C14.62,19.61,13.9,19.27,13.71,19.2Zm-2.14-6.45a1.51,1.51,0,0,1-.74.56,2.65,2.65,0,0,1-.89.18,1.17,1.17,0,0,1-.72-.39c-.18-.19-.31-.71-.25-.65a1.36,1.36,0,0,0,.68.08l.85-.24a8.31,8.31,0,0,1,.82-.21.3.3,0,0,1,.31.25A.57.57,0,0,1,11.57,12.75ZM23.39,26.88l-.8,2.36-.59-1a11.16,11.16,0,0,1-4.07,1.59,7,7,0,0,1-1.35.18H15.34a12.49,12.49,0,0,1-5.65-1.83A.26.26,0,0,1,9.57,28a.27.27,0,0,1,.27-.29,8.23,8.23,0,0,1,1,.52,11.47,11.47,0,0,0,4.68,1.27,10.91,10.91,0,0,0,4.78-1c.48-.22.91-.5,1.37-.75l-.64-1.08Zm1.53-17V4.28L16.46,7.17Zm.47,11.93-2.67-9.69-1.47-.46-3.19,7.91,1.5.46.67-1.63,3.11,1,.55,2Zm-2.54-4.23L20.8,17l1.12-2.73Z" style="fill:#838383"/></svg>