<svg id="Calque_1" data-name="Calque 1" xmlns="http://www.w3.org/2000/svg" viewBox="0 0 32 32"><defs><style>.cls-1{fill:#838383;}</style></defs><title>language_m</title><path class="cls-1" d="M2.37,24.24a1.08,1.08,0,0,1-.8-.33,1.07,1.07,0,0,1-.33-.79V10.37a1.08,1.08,0,0,1,.33-.8,1.08,1.08,0,0,1,.8-.33H15.49v15Zm8-3h1.08a.53.53,0,0,0,.45-.23.59.59,0,0,0,.07-.52L9.3,12.57a.55.55,0,0,0-.56-.38H7.24a.55.55,0,0,0-.56.38L4,20.49a.54.54,0,0,0,.07.52.52.52,0,0,0,.44.23H5.6A.57.57,0,0,0,6,21.12a.49.49,0,0,0,.21-.3l.42-1.5H9.4l.42,1.5A.55.55,0,0,0,10.38,21.24Zm-2-5.44.51,1.78H7.1l.52-1.78c.09-.37.21-.89.37-1.54C8.12,14.79,8.24,15.3,8.37,15.8ZM17,24.24v-15H30.12a1.13,1.13,0,0,1,1.12,1.13V23.12a1.13,1.13,0,0,1-1.12,1.12Zm8.44-10.69V12.8a.56.56,0,0,0-.17-.4.55.55,0,0,0-.39-.16h-.75a.58.58,0,0,0-.4.16.56.56,0,0,0-.17.4v.75h-3a.52.52,0,0,0-.39.17.54.54,0,0,0-.17.4v.75a.54.54,0,0,0,.17.39.52.52,0,0,0,.39.17H25.9a6.86,6.86,0,0,1-1.41,2,6,6,0,0,1-.8-1,.55.55,0,0,0-.35-.23.46.46,0,0,0-.4.09l-.65.37a.55.55,0,0,0-.28.38.51.51,0,0,0,.09.42,11.64,11.64,0,0,0,1,1.22c-.37.28-.78.56-1.21.84a.46.46,0,0,0-.24.33.65.65,0,0,0,.05.42l.37.66a.58.58,0,0,0,.33.26.61.61,0,0,0,.47-.07A16.4,16.4,0,0,0,24.49,20a16.4,16.4,0,0,0,1.64,1.17.61.61,0,0,0,.47.07.52.52,0,0,0,.33-.26l.37-.66a.59.59,0,0,0,.05-.42.47.47,0,0,0-.23-.33,8.22,8.22,0,0,1-1.22-.84,8.83,8.83,0,0,0,2-3.28h.52a.56.56,0,0,0,.4-.17.53.53,0,0,0,.16-.39v-.75a.54.54,0,0,0-.16-.4.56.56,0,0,0-.4-.17Z"/></svg>