<svg id="Calque_1" data-name="Calque 1" xmlns="http://www.w3.org/2000/svg" viewBox="0 0 32 32"><title>list_r</title><path d="M7.43,10.38a.44.44,0,0,1-.43.43H4.43A.44.44,0,0,1,4,10.38V7.81a.44.44,0,0,1,.43-.43H7a.44.44,0,0,1,.43.43Zm0,5.14A.44.44,0,0,1,7,16H4.43A.44.44,0,0,1,4,15.52V13a.44.44,0,0,1,.43-.43H7a.44.44,0,0,1,.43.43Zm0,5.15A.44.44,0,0,1,7,21.1H4.43A.44.44,0,0,1,4,20.67V18.1a.44.44,0,0,1,.43-.43H7a.44.44,0,0,1,.43.43Zm0,5.14a.44.44,0,0,1-.43.43H4.43A.44.44,0,0,1,4,25.81V23.24a.44.44,0,0,1,.43-.43H7a.44.44,0,0,1,.43.43ZM28,10.38a.44.44,0,0,1-.43.43h-18a.45.45,0,0,1-.43-.43V7.81a.45.45,0,0,1,.43-.43h18a.44.44,0,0,1,.43.43Zm0,5.14a.44.44,0,0,1-.43.43h-18a.45.45,0,0,1-.43-.43V13a.45.45,0,0,1,.43-.43h18A.44.44,0,0,1,28,13Zm0,5.15a.44.44,0,0,1-.43.43h-18a.45.45,0,0,1-.43-.43V18.1a.45.45,0,0,1,.43-.43h18a.44.44,0,0,1,.43.43Zm0,5.14a.44.44,0,0,1-.43.43h-18a.45.45,0,0,1-.43-.43V23.24a.45.45,0,0,1,.43-.43h18a.44.44,0,0,1,.43.43Z" style="fill:#ec1818"/></svg>