<svg id="Calque_1" data-name="Calque 1" xmlns="http://www.w3.org/2000/svg" viewBox="0 0 32 32"><title>login_p</title><path d="M19.76,6.66h4.58a4.13,4.13,0,0,1,4.13,4.13V20.87A4.13,4.13,0,0,1,24.34,25H19.76a.47.47,0,0,1-.46-.46c0-.4-.19-1.37.46-1.37h4.58a2.3,2.3,0,0,0,2.29-2.3V10.79a2.3,2.3,0,0,0-2.29-2.3H20.21c-.35,0-.91.08-.91-.45S19.11,6.66,19.76,6.66ZM23,15.83a.91.91,0,0,1-.27.64l-7.79,7.8a.91.91,0,0,1-1.56-.65V19.5H6.92A.93.93,0,0,1,6,18.58v-5.5a.93.93,0,0,1,.92-.92h6.42V8a.91.91,0,0,1,1.56-.65l7.79,7.8A.91.91,0,0,1,23,15.83Z" style="fill:#710132"/></svg>