<svg id="Calque_1" data-name="Calque 1" xmlns="http://www.w3.org/2000/svg" viewBox="0 0 32 32"><title>loopout_r</title><path d="M26.47,16.58V10.49a3,3,0,0,0-3-3H15a3,3,0,0,0-3,3v6.56c0,2.21,2.35,4.37,3.45,4.37H28.88a.78.78,0,0,0,.76-.83v-.83a.78.78,0,0,0-.76-.83H16.06a1.38,1.38,0,0,1-1.38-1.39v-7a.3.3,0,0,1,.3-.31h8.47a.31.31,0,0,1,.3.31v6.08Z" style="fill:#ec1818"/><path d="M2.91,19.87a.76.76,0,0,1,.75-.81H8.13L6.27,17.19A.79.79,0,0,1,6,16.62a.76.76,0,0,1,.25-.57l.47-.49a.83.83,0,0,1,1.15,0L12,19.7a.81.81,0,0,1,0,1.15L7.89,25a.81.81,0,0,1-1.15,0l-.47-.47a.8.8,0,0,1,0-1.16l1.86-1.86H3.66a.76.76,0,0,1-.75-.81Z" style="fill:#ec1818"/></svg>