<svg id="Calque_1" data-name="Calque 1" xmlns="http://www.w3.org/2000/svg" viewBox="0 0 32 32"><defs><style>.cls-1{fill:#ec1818;}</style></defs><title>magic_r</title><path class="cls-1" d="M30,8a1.74,1.74,0,0,1,.47,1.19A1.55,1.55,0,0,1,30,10.31L11.18,29.1a1.55,1.55,0,0,1-1.14.47,1.74,1.74,0,0,1-1.19-.47L4.46,24.71A1.75,1.75,0,0,1,4,23.53a1.59,1.59,0,0,1,.46-1.14L23.26,3.6a1.55,1.55,0,0,1,1.14-.47,1.72,1.72,0,0,1,1.18.47ZM8.13,11.39,6.74,8.66,4,7.26,6.74,5.87,8.13,3.13l1.4,2.74,2.73,1.39L9.53,8.66Zm7.44-3.3-.83-1.65-1.65-.83,1.65-.83.83-1.65.82,1.65L18,5.61l-1.65.83Zm7,5.52L27,9.17,24.4,6.54,20,11ZM26.31,18l1.39,2.74,2.74,1.39-2.74,1.4-1.39,2.73-1.4-2.73-2.73-1.4,2.73-1.39Z"/></svg>