<svg id="Calque_1" data-name="Calque 1" xmlns="http://www.w3.org/2000/svg" viewBox="0 0 32 32"><title>magic_r</title><path d="M27.89,8.51l-19,19a1,1,0,0,1-1.32,0L4.66,24.57a1,1,0,0,1-.26-.67,1,1,0,0,1,.26-.66l19-19A1,1,0,0,1,24.3,4a1,1,0,0,1,.67.26l2.92,2.93a1,1,0,0,1,0,1.32Zm-18.22-3-1.45.44L7.78,7.38,7.33,5.93,5.89,5.49l1.44-.44L7.78,3.6l.44,1.45Zm6.61,2.83-2.9.89L12.5,12.1l-.89-2.89L8.72,8.32l2.89-.88.89-2.9.88,2.9Zm2.83-2.83-1.45.44-.44,1.45-.44-1.45-1.45-.44,1.45-.44.44-1.45.44,1.45Zm6.77,2.36L24.3,6.27,20,10.59l1.58,1.58Zm2.67,7.08-1.44.44-.45,1.45-.44-1.45-1.44-.44,1.44-.44L26.66,13l.45,1.45Z" style="fill:#ec1818"/></svg>