<svg id="Calque_1" data-name="Calque 1" xmlns="http://www.w3.org/2000/svg" viewBox="0 0 32 32"><title>newcel_r</title><path d="M22.66,17.2A7.21,7.21,0,1,1,29.86,10,7.21,7.21,0,0,1,22.66,17.2Zm4.2-7.81a.6.6,0,0,0-.6-.6h-2.4V6.39a.61.61,0,0,0-.6-.6H22.05a.61.61,0,0,0-.6.6v2.4h-2.4a.6.6,0,0,0-.6.6v1.2a.61.61,0,0,0,.6.61h2.4v2.4a.61.61,0,0,0,.6.6h1.21a.61.61,0,0,0,.6-.6V11.2h2.4a.61.61,0,0,0,.6-.61Z" style="fill:#ec1818"/><path d="M13,24.85l7.58-5.91A9.17,9.17,0,0,1,14,7l-1-.77L1,15.55l2.17,1.69Z" style="fill:#ec1818"/><polygon points="12.94 28.22 3.15 20.61 1 22.28 12.96 31.58 24.91 22.28 22.74 20.6 12.94 28.22" style="fill:#ec1818"/><path d="M22.66,17.2A7.21,7.21,0,1,1,29.86,10,7.21,7.21,0,0,1,22.66,17.2Zm4.2-7.81a.6.6,0,0,0-.6-.6h-2.4V6.39a.61.61,0,0,0-.6-.6H22.05a.61.61,0,0,0-.6.6v2.4h-2.4a.6.6,0,0,0-.6.6v1.2a.61.61,0,0,0,.6.61h2.4v2.4a.61.61,0,0,0,.6.6h1.21a.61.61,0,0,0,.6-.6V11.2h2.4a.61.61,0,0,0,.6-.61Z" style="fill:#ec1818"/></svg>