<svg id="Calque_1" data-name="Calque 1" xmlns="http://www.w3.org/2000/svg" viewBox="0 0 32 32"><title>orientationconstraint_r</title><path d="M16.19,23.63A8.09,8.09,0,0,1,10,20.71a.35.35,0,0,1,0-.46l1.44-1.45a.45.45,0,0,1,.27-.1.36.36,0,0,1,.24.13,5.33,5.33,0,0,0,4.26,2.1,5.4,5.4,0,1,0-3.67-9.35L14,13a.65.65,0,0,1,.15.73.69.69,0,0,1-.62.42H8.76a.68.68,0,0,1-.67-.67V8.78a.69.69,0,0,1,.42-.62.65.65,0,0,1,.73.15l1.37,1.36a8.22,8.22,0,0,1,5.58-2.24,8.1,8.1,0,0,1,0,16.2Z" style="fill:#ec1818"/><path d="M9.74,18.18,6.4,19.57a2.5,2.5,0,0,0-1.35,3.27l1.54,3.67a2.49,2.49,0,0,0,3.26,1.35l3.67-1.54a2.45,2.45,0,0,0,1.26-1.17" style="fill:none;stroke:#ec1818;stroke-miterlimit:10;stroke-width:2px"/><path d="M27.89,9.66,26.72,5.85A2.52,2.52,0,0,0,23.59,4.2l-3.8,1.18a2.43,2.43,0,0,0-1.14.75A9.75,9.75,0,0,1,25.57,13l.67-.21A2.49,2.49,0,0,0,27.89,9.66Z" style="fill:#ec1818"/></svg>