<svg id="Calque_1" data-name="Calque 1" xmlns="http://www.w3.org/2000/svg" viewBox="0 0 32 32"><title>paste_l</title><path d="M28.68,28.29a1.38,1.38,0,0,1-1.38,1.38H13.54a1.38,1.38,0,0,1-1.37-1.38V26H4.38A1.38,1.38,0,0,1,3,24.62V5.37A1.38,1.38,0,0,1,4.38,4H20a1.38,1.38,0,0,1,1.38,1.38v4.7a2.49,2.49,0,0,1,.52.4l5.84,5.84a3.78,3.78,0,0,1,1,2.35Zm-11-22a.46.46,0,0,0-.46-.45H7.13a.46.46,0,0,0-.46.45V7.2a.47.47,0,0,0,.46.46H17.21a.47.47,0,0,0,.46-.46Zm9.17,21.55V18.66h-6a1.37,1.37,0,0,1-1.37-1.37v-6H14v16.5Zm-1.22-11-4.28-4.28v4.28Z" style="fill:#e3e3e3"/></svg>