<svg id="Calque_1" data-name="Calque 1" xmlns="http://www.w3.org/2000/svg" viewBox="0 0 32 32"><title>pickproperty_r</title><path d="M28.34,8.45l-2.09,2.06,1,1a.29.29,0,0,1,0,.42l-1.95,1.95a.3.3,0,0,1-.43,0l-1-1-5.58,5.58a1.2,1.2,0,0,1-.84.34H15.57L13.2,20l-.59-.59L13.79,17V15.14a1.18,1.18,0,0,1,.35-.83l5.58-5.58-1-1a.29.29,0,0,1,0-.42L20.7,5.38a.29.29,0,0,1,.42,0l1,1,2.07-2.09a3,3,0,0,1,4.19,4.19Zm-5.65,3.24L20.91,9.91l-5.34,5.34V17h1.78Z" style="fill:#ec1818"/><path d="M19.7,19.87a3.16,3.16,0,0,1-2.25.93H16l-1.94,1a2,2,0,0,1-.9.21,2,2,0,0,1-1.41-.59l-.59-.59a2,2,0,0,1-.38-2.31l1-1.95V15.14a3.16,3.16,0,0,1,.93-2.24l.9-.9H5.33A3.33,3.33,0,0,0,2,15.33V26.67A3.33,3.33,0,0,0,5.33,30H16.67A3.33,3.33,0,0,0,20,26.67V19.58Z" style="fill:#ec1818"/><path d="M28.34,8.45l-2.09,2.06,1,1a.29.29,0,0,1,0,.42l-1.95,1.95a.3.3,0,0,1-.43,0l-1-1-5.58,5.58a1.2,1.2,0,0,1-.84.34H15.57L13.2,20l-.59-.59L13.79,17V15.14a1.18,1.18,0,0,1,.35-.83l5.58-5.58-1-1a.29.29,0,0,1,0-.42L20.7,5.38a.29.29,0,0,1,.42,0l1,1,2.07-2.09a3,3,0,0,1,4.19,4.19Zm-5.65,3.24L20.91,9.91l-5.34,5.34V17h1.78Z" style="fill:#ec1818"/></svg>