<svg id="Calque_1" data-name="Calque 1" xmlns="http://www.w3.org/2000/svg" viewBox="0 0 32 32"><title>pickpath_l</title><path d="M29.34,8.45l-2.09,2.06,1,1a.29.29,0,0,1,0,.42l-1.95,1.95a.3.3,0,0,1-.43,0l-1-1-5.58,5.58a1.2,1.2,0,0,1-.84.34H16.57L14.2,20l-.59-.59L14.79,17V15.14a1.18,1.18,0,0,1,.35-.83l5.58-5.58-1-1a.29.29,0,0,1,0-.42L21.7,5.38a.29.29,0,0,1,.42,0l1,1,2.07-2.09a3,3,0,0,1,4.19,4.19Zm-5.65,3.24L21.91,9.91l-5.34,5.34V17h1.78Z" style="fill:#e3e3e3"/><path d="M12.56,11.21a5,5,0,0,1,.78,2.15,3.32,3.32,0,0,1,.38-.46L15,11.65a6.81,6.81,0,0,0-.73-1.52C10.76,4.72,4.09,6.37,1,8A1,1,0,0,0,2,9.76C2.28,9.6,9.19,6,12.56,11.21Z" style="fill:#e3e3e3"/><path d="M30.72,28.84c-.11,0-10.29,1.59-14.82-3.43A5.81,5.81,0,0,1,14.3,22h-.1a2,2,0,0,1-1.41-.59l-.51-.5a7.74,7.74,0,0,0,2.14,5.85c3.29,3.64,8.8,4.35,12.57,4.35a27,27,0,0,0,4-.28,1,1,0,0,0-.31-2Z" style="fill:#e3e3e3"/></svg>