<svg id="Calque_1" data-name="Calque 1" xmlns="http://www.w3.org/2000/svg" viewBox="0 0 32 32"><title>Plan de travail 12 copie 24</title><path d="M26.64,19.22A10.93,10.93,0,0,1,8.41,24.8L6.56,26.64a.88.88,0,0,1-.64.28A.93.93,0,0,1,5,26V19.58a.93.93,0,0,1,.92-.92h6.42a.92.92,0,0,1,.91.92,1,1,0,0,1-.27.65l-2,2a7.3,7.3,0,0,0,11.23-1.52A11.42,11.42,0,0,0,23,19a.45.45,0,0,1,.43-.33h2.75a.47.47,0,0,1,.46.46A.34.34,0,0,1,26.64,19.22ZM27,14.08a.93.93,0,0,1-.92.92H19.67a.93.93,0,0,1-.92-.92,1,1,0,0,1,.28-.65l2-2a7.37,7.37,0,0,0-5-2A7.3,7.3,0,0,0,9.76,13,10.47,10.47,0,0,0,9,14.67a.45.45,0,0,1-.43.33H5.72a.47.47,0,0,1-.46-.46v-.1A10.93,10.93,0,0,1,16,5.83a11.11,11.11,0,0,1,7.58,3L25.45,7a.88.88,0,0,1,.64-.28.93.93,0,0,1,.92.92Z" style="fill:#710132"/></svg>