<svg id="Calque_1" data-name="Calque 1" xmlns="http://www.w3.org/2000/svg" viewBox="0 0 32 32"><title>Plan de travail 12 copie 4</title><path d="M24.17,21.59a4.12,4.12,0,0,1-4.12,4.13H8.13A4.13,4.13,0,0,1,4,21.59V9.67A4.12,4.12,0,0,1,8.13,5.55H20.05a4,4,0,0,1,1.67.35.48.48,0,0,1,.26.33.44.44,0,0,1-.13.42l-.7.7a.45.45,0,0,1-.46.12,2.35,2.35,0,0,0-.64-.09H8.13a2.3,2.3,0,0,0-2.3,2.29V21.59a2.31,2.31,0,0,0,2.3,2.3H20.05a2.3,2.3,0,0,0,2.29-2.3v-1.8a.44.44,0,0,1,.13-.32l.92-.91a.42.42,0,0,1,.5-.1.43.43,0,0,1,.28.41Zm2.75-9.17L17.3,22.05H13.17V17.93L22.8,8.3ZM18.39,19l-2.18-2.17L14.54,18.5v.8h1.38v1.38h.8Zm4.16-8.64-5,5a.33.33,0,1,0,.46.46l5-5a.33.33,0,0,0,0-.47A.35.35,0,0,0,22.55,10.37Zm5.29,1.14L23.71,7.38,25,6.06a1.39,1.39,0,0,1,1.95,0l2.18,2.18a1.39,1.39,0,0,1,0,1.95Z" style="fill:#710132"/></svg>