<svg id="Calque_1" data-name="Calque 1" xmlns="http://www.w3.org/2000/svg" viewBox="0 0 7 16"><title>Plan de travail 117 copie</title><path d="M7,5.16a.55.55,0,0,1-.54.58H3.26L4.6,7.08a.58.58,0,0,1,.17.41.55.55,0,0,1-.17.41l-.34.35a.58.58,0,0,1-.41.17.59.59,0,0,1-.42-.17l-3-3a.59.59,0,0,1,0-.83l3-3a.57.57,0,0,1,.83,0l.34.33a.59.59,0,0,1,.17.42.58.58,0,0,1-.17.41L3.26,4H6.47A.55.55,0,0,1,7,4.57Z" style="fill:#6d6d6d"/><path d="M0,11.81a.55.55,0,0,1,.54-.58H3.74L2.4,9.89a.58.58,0,0,1-.17-.41.55.55,0,0,1,.17-.41l.34-.35a.63.63,0,0,1,.41-.17.63.63,0,0,1,.42.17l3,3a.59.59,0,0,1,.17.41.63.63,0,0,1-.17.41l-3,3a.59.59,0,0,1-.42.17.58.58,0,0,1-.41-.17l-.34-.34a.59.59,0,0,1-.17-.42.58.58,0,0,1,.17-.41L3.74,13H.53A.55.55,0,0,1,0,12.4Z" style="fill:#6d6d6d"/></svg>