<svg id="Calque_1" data-name="Calque 1" xmlns="http://www.w3.org/2000/svg" viewBox="0 0 32 32"><defs><style>.cls-1{fill:#710132;}</style></defs><title>play_p</title><path class="cls-1" d="M16.33,2.29a13.44,13.44,0,0,1,6.9,1.87,14,14,0,0,1,5,5,13.38,13.38,0,0,1,1.86,6.9A13.38,13.38,0,0,1,28.27,23a14,14,0,0,1-5,5,13.43,13.43,0,0,1-6.9,1.86A13.44,13.44,0,0,1,9.42,28a13.89,13.89,0,0,1-5-5,13.29,13.29,0,0,1-1.87-6.9A13.29,13.29,0,0,1,4.39,9.2a13.89,13.89,0,0,1,5-5A13.45,13.45,0,0,1,16.33,2.29Zm6.45,15.15a1.36,1.36,0,0,0,0-2.34L13,9.14a1.25,1.25,0,0,0-1.34,0A1.26,1.26,0,0,0,11,10.31V21.89a1.26,1.26,0,0,0,.67,1.17,1.25,1.25,0,0,0,1.34,0Z"/></svg>