<svg id="Calque_1" data-name="Calque 1" xmlns="http://www.w3.org/2000/svg" viewBox="0 0 32 32"><title>pos_l</title><path d="M8.72,11.34a.35.35,0,0,1,.24.1l.53.52a.39.39,0,0,1,.1.24.35.35,0,0,1-.1.24L5.37,16.56l4.12,4.11a.39.39,0,0,1,.1.24.33.33,0,0,1-.1.24L9,21.68a.35.35,0,0,1-.24.1.37.37,0,0,1-.24-.1L3.6,16.8a.37.37,0,0,1-.1-.24.35.35,0,0,1,.1-.24l4.88-4.88A.37.37,0,0,1,8.72,11.34Z" style="fill:#e3e3e3"/><path d="M23.67,11.41l4.89,4.89a.38.38,0,0,1,.11.24.36.36,0,0,1-.11.24l-4.89,4.89a.34.34,0,0,1-.24.11.32.32,0,0,1-.24-.11l-.53-.52a.34.34,0,0,1,0-.48l4.13-4.13-4.13-4.12a.35.35,0,0,1,0-.49l.53-.52a.32.32,0,0,1,.24-.11A.34.34,0,0,1,23.67,11.41Z" style="fill:#e3e3e3"/><line x1="5" y1="16.5" x2="27" y2="16.5" style="fill:none;stroke:#e3e3e3;stroke-miterlimit:10;stroke-width:2px"/><path d="M21.3,9.18a.35.35,0,0,1-.11.24l-.52.52a.34.34,0,0,1-.48,0L16.08,5.83,12,9.94a.37.37,0,0,1-.24.1.35.35,0,0,1-.24-.1L11,9.42a.35.35,0,0,1-.11-.24A.36.36,0,0,1,11,8.93l4.87-4.87A.36.36,0,0,1,16.08,4a.35.35,0,0,1,.24.11l4.87,4.87A.36.36,0,0,1,21.3,9.18Z" style="fill:#e3e3e3"/><path d="M21.23,24.12,16.33,29a.32.32,0,0,1-.24.11.34.34,0,0,1-.24-.11L11,24.12a.32.32,0,0,1,0-.48l.52-.53a.37.37,0,0,1,.25-.1.39.39,0,0,1,.24.1l4.12,4.13,4.13-4.13a.34.34,0,0,1,.48,0l.53.53a.34.34,0,0,1,0,.48Z" style="fill:#e3e3e3"/><line x1="16.13" y1="5.45" x2="16.13" y2="27.45" style="fill:none;stroke:#e3e3e3;stroke-miterlimit:10;stroke-width:2px"/></svg>