<svg id="Calque_1" data-name="Calque 1" xmlns="http://www.w3.org/2000/svg" viewBox="0 0 32 32"><title>positionconstraint_l</title><path d="M23.15,17.67l-2,2a.52.52,0,0,1-.36.16.51.51,0,0,1-.51-.51v-1H17.17V21.4h1a.51.51,0,0,1,.51.51.49.49,0,0,1-.15.36l-2,2a.51.51,0,0,1-.72,0l-2-2a.49.49,0,0,1-.15-.36.51.51,0,0,1,.51-.51h1V18.33H12.06v1a.51.51,0,0,1-.51.51.52.52,0,0,1-.36-.16l-2-2A.51.51,0,0,1,9,17.31.55.55,0,0,1,9.15,17l2-2a.51.51,0,0,1,.87.36v1h3.07V13.23h-1a.51.51,0,0,1-.51-.51.48.48,0,0,1,.15-.36l2-2a.51.51,0,0,1,.72,0l2,2a.48.48,0,0,1,.15.36.51.51,0,0,1-.51.51h-1v3.06h3.07v-1a.51.51,0,0,1,.87-.36l2,2a.51.51,0,0,1,.15.36A.48.48,0,0,1,23.15,17.67Z" style="fill:#e3e3e3"/><path d="M25,4a3,3,0,1,1-3,3,3,3,0,0,1,3-3m0-2a5,5,0,1,0,5,5,5,5,0,0,0-5-5Z" style="fill:#e3e3e3"/><circle cx="6.84" cy="26.31" r="4.16" style="fill:#e3e3e3"/></svg>