<svg id="Calque_1" data-name="Calque 1" xmlns="http://www.w3.org/2000/svg" viewBox="0 0 32 32"><title>previousframe_r</title><path d="M23.56,6.58a.69.69,0,0,1,.46.2l1,1a.68.68,0,0,1,.19.45.73.73,0,0,1-.19.46l-7.78,7.77L25,24.22a.72.72,0,0,1,.19.45.69.69,0,0,1-.19.46l-1,1a.69.69,0,0,1-.46.2.67.67,0,0,1-.45-.2L13.89,16.9a.67.67,0,0,1-.2-.45.69.69,0,0,1,.2-.46l9.22-9.21A.67.67,0,0,1,23.56,6.58Z" style="fill:#ec1818"/><line x1="9.59" y1="5" x2="9.59" y2="27.84" style="fill:none;stroke:#ec1818;stroke-miterlimit:10;stroke-width:2px"/></svg>