<svg id="Calque_1" data-name="Calque 1" xmlns="http://www.w3.org/2000/svg" viewBox="0 0 32 32"><defs><style>.cls-1{fill:#ec1818;}</style></defs><title>publish_r</title><path class="cls-1" d="M24.41,15.57H21.59a.85.85,0,0,1-.84-.84V8.82H17.67a.7.7,0,0,1-.5-1.2l5.35-5.35a.69.69,0,0,1,1,0l5.35,5.35a.7.7,0,0,1-.5,1.2H25.25v5.91A.85.85,0,0,1,24.41,15.57Z"/><path class="cls-1" d="M21.59,17.57a2.84,2.84,0,0,1-2.84-2.84V10.82H17.67a2.69,2.69,0,0,1-2.5-1.67c0-.05,0-.1-.05-.15H5.25A2.25,2.25,0,0,0,3,11.25v16.5A2.25,2.25,0,0,0,5.25,30h16.5A2.25,2.25,0,0,0,24,27.75V17.57ZM13.48,27a3,3,0,1,1,3-3A3,3,0,0,1,13.48,27ZM18,17.44a.56.56,0,0,1-.56.56H6.56A.56.56,0,0,1,6,17.44V12.56A.56.56,0,0,1,6.56,12H17.27a.58.58,0,0,1,.4.16l.17.17a.58.58,0,0,1,.16.4Z"/></svg>