<svg id="Calque_1" data-name="Calque 1" xmlns="http://www.w3.org/2000/svg" viewBox="0 0 32 32"><title>randomlayerindex_r</title><path d="M28.42,8A2.57,2.57,0,0,1,31,10.58v.84A2.57,2.57,0,0,1,28.42,14H3.58A2.57,2.57,0,0,1,1,11.42v-.84A2.57,2.57,0,0,1,3.58,8H28.42m0-1H3.58A3.59,3.59,0,0,0,0,10.58v.84A3.59,3.59,0,0,0,3.58,15H28.42A3.59,3.59,0,0,0,32,11.42v-.84A3.59,3.59,0,0,0,28.42,7Z" style="fill:#ec1818"/><path d="M28.42,17A2.57,2.57,0,0,1,31,19.58v.84A2.57,2.57,0,0,1,28.42,23H3.58A2.57,2.57,0,0,1,1,20.42v-.84A2.57,2.57,0,0,1,3.58,17H28.42m0-1H3.58A3.59,3.59,0,0,0,0,19.58v.84A3.59,3.59,0,0,0,3.58,24H28.42A3.59,3.59,0,0,0,32,20.42v-.84A3.59,3.59,0,0,0,28.42,16Z" style="fill:#ec1818"/><rect x="1" y="25" width="30" height="6" rx="2.58" ry="2.58" style="fill:#ec1818"/><rect x="1" width="30" height="6" rx="2.58" ry="2.58" style="fill:#ec1818"/></svg>