<svg id="Calque_1" data-name="Calque 1" xmlns="http://www.w3.org/2000/svg" viewBox="0 0 32 32"><title>rename_r</title><path d="M24.86,9.38V15h1.71v1.72H24.86V24c0,2,1.45,3,4.29,3H30v1.71h-.85c-2.42,0-4.18-.7-5.15-2-1,1.26-2.73,2-5.14,2H18V27h.86c2.84,0,4.28-1,4.28-3V16.67H21.43V15h1.71V9.38c0-2-1.44-3-4.28-3H18V4.66h.86c2.41,0,4.18.7,5.14,2,1-1.26,2.73-2,5.15-2H30V6.38h-.85C26.31,6.38,24.86,7.38,24.86,9.38Z" style="fill:#ec1818"/><path d="M.6,10.54a28.36,28.36,0,0,1,4.31-.3c2.13,0,3.62.32,4.64,1.13a3.64,3.64,0,0,1,1.32,3A3.81,3.81,0,0,1,8.34,17.9V18a3.6,3.6,0,0,1,1.91,2.68c.45,1.62.9,3.49,1.17,4H8.1a18.42,18.42,0,0,1-1-3.34c-.38-1.78-1-2.27-2.31-2.29h-1v5.63H.6Zm3.21,6.17H5.08c1.62,0,2.58-.81,2.58-2.07s-.9-2-2.39-2a8.13,8.13,0,0,0-1.46.11Z" style="fill:#ec1818"/><path d="M14.39,20.51c.11,1.34,1.43,2,2.94,2a9.37,9.37,0,0,0,2.87-.42l.43,2.19a10.45,10.45,0,0,1-3.77.64c-3.53,0-5.55-2-5.55-5.3,0-2.64,1.64-5.55,5.25-5.55,3.36,0,4.64,2.61,4.64,5.19a6.77,6.77,0,0,1-.11,1.27ZM18.2,18.3a1.87,1.87,0,0,0-1.83-2.1,2.12,2.12,0,0,0-2,2.1Z" style="fill:#ec1818"/></svg>