<svg id="Calque_1" data-name="Calque 1" xmlns="http://www.w3.org/2000/svg" viewBox="0 0 32 32"><title>rig_r</title><path d="M10.25,24.13A3.21,3.21,0,0,1,12,21a5.25,5.25,0,0,1,4.25.13L10.53,12c-.19-.32-.2-.32-.48-.07a5.89,5.89,0,0,1-6.48.92c-.11-.05-.21-.15-.35-.13s0,.19.1.26Z" style="fill:#ec1818"/><path d="M14.33,5.41h2.4a.42.42,0,0,0,.43-.25,1.77,1.77,0,0,1,1.62-1h1.63A.64.64,0,0,0,20.92,4c.58-.66,1.17-1.3,1.75-1.95a1,1,0,0,0,.14-.25,1.17,1.17,0,0,1,1.85-.53c1.08.74,2.15,1.5,3.23,2.25l1.65,1.15a1.15,1.15,0,0,1,.51,1.25,1.13,1.13,0,0,1-.93.89,1.29,1.29,0,0,1-1-.28L24.56,4c-.37-.26-.37-.26-.68.07L22.57,5.55a.79.79,0,0,0-.22.58c0,1,0,2.11,0,3.16a.73.73,0,0,0,.22.54c.54.59,1.08,1.18,1.61,1.78.16.18.27.2.48.05,1.23-.87,2.47-1.74,3.72-2.59a1.17,1.17,0,1,1,1.43,1.84c-.91.67-1.85,1.3-2.77,1.95l-2.18,1.52A1.19,1.19,0,0,1,23,13.86a6.41,6.41,0,0,0-1-1.28c-.35-.42-.73-.8-1.09-1.21a.53.53,0,0,0-.45-.19H18.71a1.62,1.62,0,0,1-1.55-.94.48.48,0,0,0-.5-.29H11.92c-.39,0-.4,0-.27-.38a5.75,5.75,0,0,0,0-3.82c-.11-.32-.09-.35.25-.35Z" style="fill:#ec1818"/><path d="M1.48,7.61a4.65,4.65,0,1,1,4.59,4.65A4.65,4.65,0,0,1,1.48,7.61Zm1.61,0a3,3,0,0,0,6.06,0,3,3,0,0,0-3-3A3,3,0,0,0,3.09,7.63Z" style="fill:#ec1818"/><path d="M15.5,24A2.5,2.5,0,1,1,13,26.5,2.5,2.5,0,0,1,15.5,24m0-2A4.5,4.5,0,1,0,20,26.5,4.49,4.49,0,0,0,15.5,22Z" style="fill:#ec1818"/></svg>