<svg id="Calque_1" data-name="Calque 1" xmlns="http://www.w3.org/2000/svg" viewBox="0 0 32 32"><title>rig_p</title><path d="M3.22,13.76c.14,0,.24.08.35.13A5.89,5.89,0,0,0,10.05,13c.28-.25.29-.25.48.07,1.64,2.78,3.3,5.55,4.94,8.33.68,1.14,1.36,2.27,2,3.41a.63.63,0,0,0,.63.37h5.41c.32,0,.42.09.42.42,0,1.58,0,3.17,0,4.76,0,.33-.1.42-.42.42H4.34c-.33,0-.43-.1-.42-.42q0-2.38,0-4.77c0-.32.11-.41.42-.41H9.46c.42,0,.44,0,.23-.39Q8.07,22,6.43,19.28L3.32,14C3.27,14,3.19,13.88,3.22,13.76Z" style="fill:#710132"/><path d="M14.33,6.41h2.4a.42.42,0,0,0,.43-.25,1.77,1.77,0,0,1,1.62-1h1.63A.64.64,0,0,0,20.92,5c.58-.66,1.17-1.3,1.75-1.95a1,1,0,0,0,.14-.25,1.17,1.17,0,0,1,1.85-.53c1.08.74,2.15,1.5,3.23,2.25l1.65,1.15a1.15,1.15,0,0,1,.51,1.25,1.13,1.13,0,0,1-.93.89,1.29,1.29,0,0,1-1-.28L24.56,5c-.37-.26-.37-.26-.68.07L22.57,6.55a.79.79,0,0,0-.22.58c0,1,0,2.11,0,3.16a.73.73,0,0,0,.22.54c.54.59,1.08,1.18,1.61,1.78.16.18.27.2.48.05,1.23-.87,2.47-1.74,3.72-2.59a1.17,1.17,0,1,1,1.43,1.84c-.91.67-1.85,1.3-2.77,1.95l-2.18,1.52A1.19,1.19,0,0,1,23,14.86a6.41,6.41,0,0,0-1-1.28c-.35-.42-.73-.8-1.09-1.21a.53.53,0,0,0-.45-.19H18.71a1.62,1.62,0,0,1-1.55-.94.48.48,0,0,0-.5-.29H11.92c-.39,0-.4,0-.27-.38a5.75,5.75,0,0,0,0-3.82c-.11-.32-.09-.35.25-.35Z" style="fill:#710132"/><path d="M1.48,8.61a4.65,4.65,0,1,1,4.59,4.65A4.65,4.65,0,0,1,1.48,8.61Zm1.61,0a3,3,0,0,0,6.06,0,3,3,0,0,0-3-3A3,3,0,0,0,3.09,8.63Z" style="fill:#710132"/></svg>