<svg id="Calque_1" data-name="Calque 1" xmlns="http://www.w3.org/2000/svg" viewBox="0 0 32 32"><title>savecopy_l</title><path d="M30.47,11V25.37a1.14,1.14,0,0,1-1.13,1.13H18a1.14,1.14,0,0,1-1.13-1.13V22H10.47a1.14,1.14,0,0,1-1.14-1.13V12.91A3.16,3.16,0,0,1,10.14,11L15,6.16a3.18,3.18,0,0,1,1.93-.8h4.91a1.14,1.14,0,0,1,1.13,1.13v3.87a3.28,3.28,0,0,1,1.51-.47h4.91A1.14,1.14,0,0,1,30.47,11Zm-9.06.76V6.87H16.88v4.91a1.14,1.14,0,0,1-1.13,1.13H10.84v7.55h6v-3a3.21,3.21,0,0,1,.8-1.94Zm-9.56-.38h3.52V7.87ZM29,11.4H24.43v4.91a1.14,1.14,0,0,1-1.13,1.13H18.39V25H29Zm-9.57,4.53h3.53V12.4Z" style="fill:#e3e3e3"/><path d="M16.47,21.85,9,29.32a1.53,1.53,0,0,1-1,.43,1.46,1.46,0,0,1-1-.43l-.86-.86a1.45,1.45,0,0,1-.44-1,1.49,1.49,0,0,1,.44-1.05L9.42,23H1.34A1.38,1.38,0,0,1,0,21.54V20.07A1.38,1.38,0,0,1,1.34,18.6H9.42L6.06,15.23a1.43,1.43,0,0,1,0-2.06l.86-.86a1.43,1.43,0,0,1,1-.44,1.49,1.49,0,0,1,1,.44l7.47,7.47a1.43,1.43,0,0,1,.42,1A1.48,1.48,0,0,1,16.47,21.85Z" style="fill:#e3e3e3"/></svg>