<svg id="Calque_1" data-name="Calque 1" xmlns="http://www.w3.org/2000/svg" viewBox="0 0 32 32"><defs><style>.cls-1{fill:#ec1818;}</style></defs><title>save2_r</title><path class="cls-1" d="M28.18,8.68,23.32,3.82a2.79,2.79,0,0,0-2-.82H5.79A2.79,2.79,0,0,0,3,5.79V26.21A2.79,2.79,0,0,0,5.79,29H26.21A2.79,2.79,0,0,0,29,26.21V10.65a2.79,2.79,0,0,0-.82-2ZM16,25.26a3.71,3.71,0,1,1,3.72-3.71A3.71,3.71,0,0,1,16,25.26ZM21.57,7.61v5.84a.69.69,0,0,1-.69.69H7.41a.7.7,0,0,1-.7-.69v-6a.71.71,0,0,1,.7-.7H20.67a.73.73,0,0,1,.5.21l.2.2A.7.7,0,0,1,21.57,7.61Z"/></svg>