<svg id="Calque_1" data-name="Calque 1" xmlns="http://www.w3.org/2000/svg" viewBox="0 0 32 32"><title>save_l</title><path d="M30.14,12.47V24.59a1.1,1.1,0,0,1-1.1,1.1H13.61a1.1,1.1,0,0,1-1.1-1.1V6.23a1.1,1.1,0,0,1,1.1-1.1h9.18v6.24a1.11,1.11,0,0,0,1.11,1.1Zm-4.41,1.84a.36.36,0,0,0-.37-.37H17.29a.36.36,0,0,0-.37.37V15a.36.36,0,0,0,.37.37h8.07a.36.36,0,0,0,.37-.37Zm0,2.93a.36.36,0,0,0-.37-.36H17.29a.36.36,0,0,0-.37.36V18a.36.36,0,0,0,.37.36h8.07a.36.36,0,0,0,.37-.36Zm0,2.94a.36.36,0,0,0-.37-.37H17.29a.36.36,0,0,0-.37.37v.74a.36.36,0,0,0,.37.36h8.07a.36.36,0,0,0,.37-.36ZM29.68,11H24.26V5.58a2.92,2.92,0,0,1,.42.33l4.68,4.68A2.34,2.34,0,0,1,29.68,11Z" style="fill:#e3e3e3"/><path d="M17,17.19,9.5,24.66a1.56,1.56,0,0,1-1.05.42,1.5,1.5,0,0,1-1-.42l-.86-.87a1.45,1.45,0,0,1,0-2.08l3.36-3.37H1.84A1.37,1.37,0,0,1,.5,16.88V15.41a1.38,1.38,0,0,1,1.34-1.47H9.92L6.56,10.56a1.43,1.43,0,0,1,0-2.06l.86-.86a1.43,1.43,0,0,1,1-.44,1.49,1.49,0,0,1,1.05.44L17,15.11a1.43,1.43,0,0,1,.42,1A1.52,1.52,0,0,1,17,17.19Z" style="fill:#e3e3e3"/></svg>