<svg id="Calque_1" data-name="Calque 1" xmlns="http://www.w3.org/2000/svg" viewBox="0 0 32 32"><title>searchreplace_r</title><path d="M1,28.76a2,2,0,0,1,.58-1.41L6.94,22a11,11,0,1,1,2.83,2.82L4.41,30.17A2,2,0,0,1,3,30.76,2,2,0,0,1,1,28.76Zm8-13a7,7,0,1,0,7-7A7,7,0,0,0,9,15.76Z" style="fill:#ec1818"/><path d="M29.36,6.62v5.93h.84v1.83h-.84v7.76c0,2.12.71,3.19,2.1,3.19h.42v1.83h-.42a2.67,2.67,0,0,1-2.52-2.08,2.67,2.67,0,0,1-2.52,2.08H26V25.33h.42c1.39,0,2.1-1.07,2.1-3.19V14.38h-.84V12.55h.84V6.62c0-2.13-.71-3.2-2.1-3.2H26V1.59h.42a2.68,2.68,0,0,1,2.52,2.09,2.68,2.68,0,0,1,2.52-2.09h.42V3.42h-.42C30.07,3.42,29.36,4.49,29.36,6.62Z" style="fill:#ec1818"/><path d="M19.17,15.53c0-2.44-1.11-4.48-4.58-4.48l-.63,0A5.06,5.06,0,0,0,11.21,14,5.73,5.73,0,0,1,14,13.26c1.6,0,1.89.79,1.89,1.34v.15a7.42,7.42,0,0,0-5,1.38,5.08,5.08,0,0,0,5,4.68h0l.18-.17h.06l0,.14a5.06,5.06,0,0,0,2.93-1.14V15.53ZM16,17.9a2.44,2.44,0,0,1-.06.55,1.78,1.78,0,0,1-1.69,1.19A1.16,1.16,0,0,1,13,18.41c0-1.26,1.32-1.66,3-1.64Z" style="fill:#ec1818"/></svg>