<svg id="Calque_1" data-name="Calque 1" xmlns="http://www.w3.org/2000/svg" viewBox="0 0 32 32"><title>searchtext_l</title><path d="M25.91,28.86a2.08,2.08,0,0,1-1.46-.61L18.89,22.7a11.42,11.42,0,1,1,2.94-2.94l5.56,5.57a2.07,2.07,0,0,1-1.48,3.53ZM12.42,6a7.27,7.27,0,1,0,7.27,7.27A7.28,7.28,0,0,0,12.42,6Z" style="fill:#e3e3e3"/><path d="M18.69,13.29a6.27,6.27,0,0,0-2.77-5.2V16.8c0,.57,0,1.15,0,1.7A6.24,6.24,0,0,0,18.69,13.29Z" style="fill:#e3e3e3"/><path d="M19.83,3.35V2.27h-1.7A12.52,12.52,0,0,1,19.83,3.35Z" style="fill:#e3e3e3"/><path d="M24.84,13.29s0,0,0,.05a4.76,4.76,0,0,1,.07.86,4.73,4.73,0,0,1-.47,2.21,12,12,0,0,1-1.33,3.21l1.11,1.11C26.69,20.23,28.9,18,28.9,14s-2.19-6.36-5.21-6.36h-.2A12.41,12.41,0,0,1,24.84,13.29Z" style="fill:#e3e3e3"/><path d="M14.27,17.49V13.12c0-2.76-1.16-5.09-4.71-5.4a6.32,6.32,0,0,0-2.74,2.77A6.24,6.24,0,0,1,8,10.36c1.93,0,2.29,1,2.29,1.62v.18a12.2,12.2,0,0,0-4.15.6,4.71,4.71,0,0,0,0,.53,6.2,6.2,0,0,0,.71,2.88c.28-1.18,1.75-1.58,3.6-1.56V16a2.8,2.8,0,0,1-.08.67,2.13,2.13,0,0,1-2,1.44,6.27,6.27,0,0,0,2.26,1.22h0a6.18,6.18,0,0,0,1.73.25,6.3,6.3,0,0,0,1.9-.3C14.29,18.72,14.27,18.12,14.27,17.49Z" style="fill:#e3e3e3"/></svg>