<svg id="Calque_1" data-name="Calque 1" xmlns="http://www.w3.org/2000/svg" viewBox="0 0 32 32"><title>settings_l</title><path d="M9,27.84a1.84,1.84,0,0,1-1.29.53,1.92,1.92,0,0,1-1.31-.53L4.85,26.29A1.78,1.78,0,0,1,4.3,25a1.82,1.82,0,0,1,.55-1.3l9.75-9.76a7.42,7.42,0,0,0,4.13,4.13Zm-.38-4.67a.92.92,0,0,0,0,1.83.92.92,0,1,0,0-1.83Zm18.9-9.82a6.42,6.42,0,1,1-6.06-8.52,6.37,6.37,0,0,1,3.28.9.46.46,0,0,1,.23.4.49.49,0,0,1-.23.4L20.51,9v3.21l2.76,1.54c.47-.28,3.8-2.37,4.08-2.37a.46.46,0,0,1,.46.5A5.05,5.05,0,0,1,27.48,13.35Z" style="fill:#e3e3e3"/></svg>