<svg id="Calque_1" data-name="Calque 1" xmlns="http://www.w3.org/2000/svg" viewBox="0 0 32 32"><title>showhand_r</title><path d="M30.46,21.64A11.08,11.08,0,0,1,21.2,27a11.11,11.11,0,0,1-9.27-5.36,1.37,1.37,0,0,1,0-1.46,11.11,11.11,0,0,1,9.27-5.36,11.11,11.11,0,0,1,9.26,5.36,1.37,1.37,0,0,1,0,1.46Zm-5.17-4.46a4.73,4.73,0,1,1-8.83,2.38,4.63,4.63,0,0,1,.65-2.38,10.62,10.62,0,0,0-4,3.73,9.77,9.77,0,0,0,8.12,4.74,9.79,9.79,0,0,0,8.12-4.74A10.7,10.7,0,0,0,25.29,17.18Zm-4.09-.84A3.23,3.23,0,0,0,18,19.56a.51.51,0,0,0,1,0,2.21,2.21,0,0,1,2.2-2.2.52.52,0,0,0,.51-.51A.53.53,0,0,0,21.2,16.34Z" style="fill:#ec1818"/><path d="M21.2,12.82c.19,0,.38,0,.57,0v-7a2,2,0,0,0-2-2c-1.13,0-1.54.91-1.54,2v7.34A12.18,12.18,0,0,1,21.2,12.82Z" style="fill:#ec1818"/><path d="M26.44,14V10.54a2,2,0,0,0-2.05-2c-1.13,0-1.45.91-1.45,2V13A12.77,12.77,0,0,1,26.44,14Z" style="fill:#ec1818"/><path d="M21.2,29a13,13,0,0,1-11-6.32,3.45,3.45,0,0,1-.51-1.77,3.39,3.39,0,0,1,.48-1.72,13.77,13.77,0,0,1,3.32-3.71l-.93-.77V5.09c0-1.13-1.07-1.26-2.2-1.26s-1.54.48-1.54,1.61v9.62l-.5,5.11L5.54,16.43a2.31,2.31,0,0,0-1.85-.93,2.34,2.34,0,0,0-2.34,2.33,2.31,2.31,0,0,0,.48,1.41l7,9.33a2.33,2.33,0,0,0,1.86.93H23.23a1.77,1.77,0,0,0,1.59-1.06A12.32,12.32,0,0,1,21.2,29Z" style="fill:#ec1818"/><path d="M17.1,13.56v-10a2,2,0,0,0-2-2c-1.13,0-1.53.9-1.53,2v12A13.12,13.12,0,0,1,17.1,13.56Z" style="fill:#ec1818"/><path d="M30.46,21.64A11.08,11.08,0,0,1,21.2,27a11.11,11.11,0,0,1-9.27-5.36,1.37,1.37,0,0,1,0-1.46,11.11,11.11,0,0,1,9.27-5.36,11.11,11.11,0,0,1,9.26,5.36,1.37,1.37,0,0,1,0,1.46Zm-5.17-4.46a4.73,4.73,0,1,1-8.83,2.38,4.63,4.63,0,0,1,.65-2.38,10.62,10.62,0,0,0-4,3.73,9.77,9.77,0,0,0,8.12,4.74,9.79,9.79,0,0,0,8.12-4.74A10.7,10.7,0,0,0,25.29,17.18Zm-4.09-.84A3.23,3.23,0,0,0,18,19.56a.51.51,0,0,0,1,0,2.21,2.21,0,0,1,2.2-2.2.52.52,0,0,0,.51-.51A.53.53,0,0,0,21.2,16.34Z" style="fill:#ec1818"/></svg>