<svg id="Calque_1" data-name="Calque 1" xmlns="http://www.w3.org/2000/svg" viewBox="0 0 32 32"><title>stack_l</title><path d="M25.3,12.07a.77.77,0,0,1-.76.76H4.76A.77.77,0,0,1,4,12.07V9a.77.77,0,0,1,.76-.76H24.54A.77.77,0,0,1,25.3,9Zm0,6.08a.76.76,0,0,1-.76.76H4.76A.76.76,0,0,1,4,18.15v-3a.76.76,0,0,1,.76-.76H24.54a.76.76,0,0,1,.76.76Zm0,6.09a.76.76,0,0,1-.76.76H4.76A.76.76,0,0,1,4,24.24v-3a.76.76,0,0,1,.76-.76H24.54a.76.76,0,0,1,.76.76Zm-1.52-6.85V15.87H11.61v1.52Zm0,6.09V22H16.17v1.52Zm0-12.17V9.79H19.21v1.52Z" style="fill:#e3e3e3"/></svg>