<svg id="Calque_1" data-name="Calque 1" xmlns="http://www.w3.org/2000/svg" viewBox="0 0 32 32"><title>structureget_r</title><path d="M16.37,24.75h0a2.25,2.25,0,1,1,0,4.5,2.24,2.24,0,0,1-1.28-4.09,2.16,2.16,0,0,1,1.27-.41m0-2a4.25,4.25,0,0,0,0,8.5,4.25,4.25,0,1,0,0-8.5Z" style="fill:#ec1818"/><circle cx="4.87" cy="10.11" r="4.25" style="fill:#ec1818"/><path d="M29.15,6.63,26.61,9.15l1.17,1.17a.36.36,0,0,1,0,.52l-2.36,2.37a.37.37,0,0,1-.52,0L23.71,12l-6.8,6.8a1.42,1.42,0,0,1-1,.42H13.61l-2.89,1.44L10,20l1.44-2.89V14.78a1.42,1.42,0,0,1,.42-1L18.66,7,17.48,5.79a.36.36,0,0,1,0-.52L19.84,2.9a.36.36,0,0,1,.52,0l1.18,1.17,2.51-2.54a3.61,3.61,0,1,1,5.1,5.1Zm-6.88,4L20.1,8.41l-6.49,6.5v2.16h2.16Z" style="fill:#ec1818"/><path d="M13.84,20.24l-2.67,1.34A1,1,0,0,1,10,21.39l-.72-.72a1,1,0,0,1-.18-1.16l1.33-2.67V15.17l-1-1.1c-.23-.27-.24-.27-.45,0a5.58,5.58,0,0,1-5.85,2A.59.59,0,0,0,2.77,16c0,.11.08.16.14.23l8.35,9.09a3,3,0,0,1,1.08-3.2,5,5,0,0,1,4-.62l-1.17-1.26Z" style="fill:#ec1818"/></svg>