<svg id="Calque_1" data-name="Calque 1" xmlns="http://www.w3.org/2000/svg" viewBox="0 0 32 32"><title>structurehide_l</title><path d="M25.53,14.93c-2.23,4-4.44,8-6.67,12l-.52.94a.36.36,0,0,1-.29.17,9.24,9.24,0,0,1-1.42-.74.34.34,0,0,1-.17-.3,4.16,4.16,0,0,1,.46-.92,11.84,11.84,0,0,1-5-4.42,1.41,1.41,0,0,1-.21-.73,1.44,1.44,0,0,1,.21-.73,11.06,11.06,0,0,1,9.27-5.36,10.11,10.11,0,0,1,1.9.18l.57-1a.36.36,0,0,1,.3-.17,9.08,9.08,0,0,1,1.4.74.34.34,0,0,1,.17.29A.38.38,0,0,1,25.53,14.93Zm-7.11,8.45a4.71,4.71,0,0,1-2-3.82,4.63,4.63,0,0,1,.65-2.38,10.62,10.62,0,0,0-4,3.73,10.7,10.7,0,0,0,4.51,4Zm2.78-7A3.23,3.23,0,0,0,18,19.56a.51.51,0,0,0,1,0,2.2,2.2,0,0,1,2.2-2.2.53.53,0,0,0,.51-.51A.52.52,0,0,0,21.2,16.34Zm9.26,5.3a11.54,11.54,0,0,1-1.15,1.53A10.7,10.7,0,0,1,21.2,27L22,25.61a9.89,9.89,0,0,0,7.34-4.7,11,11,0,0,0-3-3.11L27,16.62a12,12,0,0,1,3.46,3.56,1.35,1.35,0,0,1,.21.73A1.32,1.32,0,0,1,30.46,21.64ZM22.89,24l3-5.31a5.26,5.26,0,0,1,.08.89A4.73,4.73,0,0,1,22.89,24Z" style="fill:#e3e3e3"/><path d="M26.29,2.72A2.25,2.25,0,1,1,24.05,5a2.25,2.25,0,0,1,2.24-2.24m0-2A4.25,4.25,0,1,0,30.54,5,4.24,4.24,0,0,0,26.29.72Z" style="fill:#e3e3e3"/><path d="M22.54,8.79a3.21,3.21,0,0,1-2.36-2.7,5.29,5.29,0,0,1,1.55-4L11.25,4.46c-.36.07-.37.08-.22.43a5.9,5.9,0,0,1-1.32,6.4c-.09.09-.21.15-.24.29s.19,0,.28,0Z" style="fill:#e3e3e3"/><path d="M.35,7.44a4.65,4.65,0,1,1,4.59,4.65A4.64,4.64,0,0,1,.35,7.44ZM2,7.46A3,3,0,0,0,8,7.44a3,3,0,0,0-3-3A3,3,0,0,0,2,7.46Z" style="fill:#e3e3e3"/><path d="M10.85,23.56a4.44,4.44,0,0,0-1,2.76,4.48,4.48,0,0,0,7.29,3.51" style="fill:none;stroke:#e3e3e3;stroke-miterlimit:10;stroke-width:2px"/><path d="M9.82,21.67a3.23,3.23,0,0,1-.1-.76,3.34,3.34,0,0,1,.54-1.82,15,15,0,0,1,2.09-2.55L9.4,11.87c-.19-.33-.2-.33-.48-.07a5.87,5.87,0,0,1-6.47.91c-.11-.05-.21-.15-.35-.12s0,.18.09.26L9.12,24A3.41,3.41,0,0,1,9.82,21.67Z" style="fill:#e3e3e3"/></svg>