<svg id="Calque_1" data-name="Calque 1" xmlns="http://www.w3.org/2000/svg" viewBox="0 0 32 32"><title>switch_l</title><path d="M18,16.17a1.32,1.32,0,0,1-1.29,1.42H8.91l3.24,3.25a1.38,1.38,0,0,1,.42,1,1.36,1.36,0,0,1-.42,1l-.83.84a1.39,1.39,0,0,1-1,.41,1.44,1.44,0,0,1-1-.41l-7.2-7.21a1.39,1.39,0,0,1-.41-1,1.44,1.44,0,0,1,.41-1l7.2-7.19a1.41,1.41,0,0,1,1-.42,1.38,1.38,0,0,1,1,.42l.83.82a1.4,1.4,0,0,1,.42,1,1.42,1.42,0,0,1-.42,1L8.91,13.34H16.7A1.33,1.33,0,0,1,18,14.76Z" style="fill:#e3e3e3"/><path d="M14,14.76a1.33,1.33,0,0,1,1.29-1.42h7.79L19.85,10.1a1.42,1.42,0,0,1-.42-1,1.4,1.4,0,0,1,.42-1l.83-.82a1.38,1.38,0,0,1,1-.42,1.41,1.41,0,0,1,1,.42l7.2,7.19a1.44,1.44,0,0,1,.41,1,1.39,1.39,0,0,1-.41,1l-7.2,7.21a1.44,1.44,0,0,1-1,.41,1.39,1.39,0,0,1-1-.41l-.83-.84a1.36,1.36,0,0,1-.42-1,1.38,1.38,0,0,1,.42-1l3.24-3.25H15.3A1.32,1.32,0,0,1,14,16.17Z" style="fill:#e3e3e3"/></svg>