<svg id="Calque_1" data-name="Calque 1" xmlns="http://www.w3.org/2000/svg" viewBox="0 0 32 32"><defs><style>.cls-1{fill:#ec1818;}</style></defs><title>tail_r</title><path class="cls-1" d="M6.79,24a3.53,3.53,0,0,1,0,2.73,1.44,1.44,0,0,0,.58,2l1,2.27s-4.74-3.38-3.48-4.49a1.62,1.62,0,0,0,0-2.39,2.24,2.24,0,0,1,2.53-2.22C9.94,22.09,6.79,24,6.79,24Z"/><path class="cls-1" d="M7,24.1a3.43,3.43,0,0,1,0,2.64,1.38,1.38,0,0,0,.6,1.92l1,2.18s-4.64-3.17-3.45-4.27a1.57,1.57,0,0,0,0-2.31,2.17,2.17,0,0,1,2.4-2.2C10,22.17,7,24.1,7,24.1Z"/><path class="cls-1" d="M7.73,24.21a3.3,3.3,0,0,1,.08,2.55,1.35,1.35,0,0,0,.64,1.84l1.06,2.06s-4.56-2.92-3.44-4A1.51,1.51,0,0,0,6,24.42a2.09,2.09,0,0,1,2.25-2.19C10.56,22.28,7.73,24.21,7.73,24.21Z"/><path class="cls-1" d="M8.85,24.23A3.21,3.21,0,0,1,9,26.68a1.31,1.31,0,0,0,.67,1.76l1.08,1.95s-4.47-2.68-3.43-3.76a1.47,1.47,0,0,0-.13-2.15,2,2,0,0,1,2.08-2.17C11.51,22.28,8.85,24.23,8.85,24.23Z"/><path class="cls-1" d="M10.34,24.17a3.13,3.13,0,0,1,.25,2.36,1.25,1.25,0,0,0,.71,1.66L12.41,30S8,27.62,9,26.53a1.41,1.41,0,0,0-.22-2.05,1.93,1.93,0,0,1,1.92-2.17C12.82,22.2,10.34,24.17,10.34,24.17Z"/><path class="cls-1" d="M12.08,24a3,3,0,0,1,.35,2.25,1.2,1.2,0,0,0,.76,1.56l1.14,1.71S10,27.43,10.89,26.35a1.37,1.37,0,0,0-.31-2,1.84,1.84,0,0,1,1.74-2.16C14.36,22,12.08,24,12.08,24Z"/><path class="cls-1" d="M14,23.75a2.86,2.86,0,0,1,.46,2.13,1.16,1.16,0,0,0,.81,1.46l1.19,1.56S12.19,27.13,13,26a1.31,1.31,0,0,0-.4-1.86A1.76,1.76,0,0,1,14.09,22C16,21.7,14,23.75,14,23.75Z"/><path class="cls-1" d="M15.9,23.34a2.76,2.76,0,0,1,.59,2,1.12,1.12,0,0,0,.89,1.33l1.24,1.41s-4.16-1.39-3.51-2.48a1.26,1.26,0,0,0-.52-1.75,1.69,1.69,0,0,1,1.3-2.18C17.71,21.24,15.9,23.34,15.9,23.34Z"/><path class="cls-1" d="M17.79,22.78a2.65,2.65,0,0,1,.75,1.85,1.06,1.06,0,0,0,1,1.18L20.81,27s-4.07-.94-3.56-2a1.2,1.2,0,0,0-.66-1.62,1.6,1.6,0,0,1,1-2.19C19.31,20.61,17.79,22.78,17.79,22.78Z"/><path class="cls-1" d="M19.54,22.05a2.54,2.54,0,0,1,.94,1.66,1,1,0,0,0,1.05,1l1.38,1s-3.95-.4-3.6-1.5a1.16,1.16,0,0,0-.82-1.45,1.52,1.52,0,0,1,.7-2.19C20.71,19.83,19.54,22.05,19.54,22.05Z"/><path class="cls-1" d="M21.08,21.14a2.44,2.44,0,0,1,1.14,1.41,1,1,0,0,0,1.15.78l1.44.71s-3.76.25-3.6-.83a1.12,1.12,0,0,0-1-1.24,1.44,1.44,0,0,1,.31-2.16C21.81,18.88,21.08,21.14,21.08,21.14Z"/><path class="cls-1" d="M22.34,19.86a2.31,2.31,0,0,1,1.35,1.07.92.92,0,0,0,1.22.49l1.48.36s-3.43,1-3.51,0-1.18-.94-1.18-.94a1.37,1.37,0,0,1-.16-2.06C22.56,17.62,22.34,19.86,22.34,19.86Z"/><path class="cls-1" d="M23.31,18.21a2.19,2.19,0,0,1,1.49.66A.89.89,0,0,0,26,19l1.43,0s-2.89,1.71-3.21.79A1,1,0,0,0,23,19.22a1.29,1.29,0,0,1-.65-1.84C23,16.12,23.31,18.21,23.31,18.21Z"/><path class="cls-1" d="M23.93,16.22a2.08,2.08,0,0,1,1.52.21.84.84,0,0,0,1.17-.18l1.28-.38s-2.17,2.28-2.7,1.54a.94.94,0,0,0-1.33-.19,1.21,1.21,0,0,1-1.06-1.49C23.08,14.42,23.93,16.22,23.93,16.22Z"/><path class="cls-1" d="M24.1,14.11a1.94,1.94,0,0,1,1.44-.17.79.79,0,0,0,1-.44l1.07-.64s-1.44,2.57-2.09,2a.9.9,0,0,0-1.26.15A1.13,1.13,0,0,1,23,13.93C22.91,12.68,24.1,14.11,24.1,14.11Z"/><path class="cls-1" d="M23.65,11.59a1.88,1.88,0,0,1,1.28-.43.76.76,0,0,0,.85-.6l.85-.79S25.81,12.38,25.1,12a.85.85,0,0,0-1.12.38,1,1,0,0,1-1.41-.74C22.29,10.53,23.65,11.59,23.65,11.59Z"/><path class="cls-1" d="M22.53,8.87a1.78,1.78,0,0,1,1.08-.66.7.7,0,0,0,.66-.71l.61-.88S24.65,9.14,23.94,9s-.94.58-.94.58a1,1,0,0,1-1.43-.38C21.09,8.19,22.53,8.87,22.53,8.87Z"/><path class="cls-1" d="M21.07,7a1.65,1.65,0,0,1,.78-.87.64.64,0,0,0,.4-.8l.32-.94s.44,2.29-.24,2.31-.69.76-.69.76a.9.9,0,0,1-1.36,0C19.62,6.72,21.07,7,21.07,7Z"/><path class="cls-1" d="M19.21,5.7a1.56,1.56,0,0,1,.45-1,.6.6,0,0,0,.14-.81l0-.9s1,1.88.41,2.08a.69.69,0,0,0-.4.86.82.82,0,0,1-1.17.41C17.89,5.9,19.21,5.7,19.21,5.7Z"/><path class="cls-1" d="M17.17,5a1.42,1.42,0,0,1,.16-1,.57.57,0,0,0-.08-.76l-.19-.78s1.3,1.4.85,1.72a.65.65,0,0,0-.14.86s-.15.85-.92.64S17.17,5,17.17,5Z"/><path class="cls-1" d="M15.1,4.79a1.36,1.36,0,0,1,0-.9.52.52,0,0,0-.21-.65l-.32-.65s1.4,1,1.07,1.36a.6.6,0,0,0,0,.79s0,.78-.67.74S15.1,4.79,15.1,4.79Z"/><path class="cls-1" d="M13.2,4.92A1.18,1.18,0,0,1,13,4.14a.47.47,0,0,0-.29-.55l-.35-.52s1.35.67,1.11,1a.54.54,0,0,0,.15.69s.16.69-.47.75S13.2,4.92,13.2,4.92Z"/><path class="cls-1" d="M11.33,5.35a1.17,1.17,0,0,1-.24-.68.42.42,0,0,0-.3-.45l-.35-.41s1.22.45,1.06.8a.5.5,0,0,0,.21.59s.21.59-.32.7S11.33,5.35,11.33,5.35Z"/><path class="cls-1" d="M9.68,5.91a1.05,1.05,0,0,1-.27-.56A.4.4,0,0,0,9.12,5l-.33-.31s1.06.3,1,.61.23.49.23.49.23.49-.2.62S9.68,5.91,9.68,5.91Z"/><path class="cls-1" d="M8.35,6.47A.87.87,0,0,1,8.09,6a.36.36,0,0,0-.28-.3l-.27-.24s.87.21.81.47.23.4.23.4.23.4-.11.52S8.35,6.47,8.35,6.47Z"/><path class="cls-1" d="M7.46,6.89a.91.91,0,0,1-.25-.36A.3.3,0,0,0,7,6.29l-.21-.17s.67.14.65.35.22.32.22.32.21.31,0,.41S7.46,6.89,7.46,6.89Z"/><path class="cls-1" d="M7.07,7.07a.79.79,0,0,1-.21-.27.28.28,0,0,0-.19-.18L6.52,6.5s.47.11.48.26.19.24.19.24.18.24,0,.3S7.07,7.07,7.07,7.07Z"/></svg>