<svg id="Calque_1" data-name="Calque 1" xmlns="http://www.w3.org/2000/svg" viewBox="0 0 32 32"><defs><style>.cls-1{fill:#838383;}</style></defs><title>trash_d</title><path class="cls-1" d="M5,7.34a1.21,1.21,0,0,1,.36-.88,1.19,1.19,0,0,1,.88-.36H12l.47-1A1.14,1.14,0,0,1,13,4.63a1.32,1.32,0,0,1,.67-.18h5.89a1.32,1.32,0,0,1,.67.18,1.14,1.14,0,0,1,.46.49l.47,1h5.78a1.19,1.19,0,0,1,.88.36,1.21,1.21,0,0,1,.36.88V8.79a.62.62,0,0,1-.18.44.6.6,0,0,1-.44.18H5.62a.6.6,0,0,1-.44-.18A.62.62,0,0,1,5,8.79ZM25.39,28.56a2.3,2.3,0,0,1-.77,1.65,2.4,2.4,0,0,1-1.7.67H10.21a2.4,2.4,0,0,1-1.7-.67,2.3,2.3,0,0,1-.77-1.65l-1-16.83a.71.71,0,0,1,.18-.47.6.6,0,0,1,.44-.2H25.81a.59.59,0,0,1,.44.2.71.71,0,0,1,.18.47Z"/></svg>