<svg id="Calque_1" data-name="Calque 1" xmlns="http://www.w3.org/2000/svg" viewBox="0 0 32 32"><title>trash_d</title><path d="M29.41,8.7a.55.55,0,0,1-.56.55H27.19V25.68c0,1.91-1.25,3.54-2.78,3.54H10c-1.52,0-2.77-1.56-2.77-3.47V9.25H5.55A.54.54,0,0,1,5,8.7V7.59A.54.54,0,0,1,5.55,7h5.36l1.21-2.89a2.71,2.71,0,0,1,2.31-1.55H20a2.68,2.68,0,0,1,2.3,1.55L23.5,7h5.35a.55.55,0,0,1,.56.56ZM13.88,12a.55.55,0,0,0-.56-.55H12.21a.54.54,0,0,0-.55.55V24.23a.54.54,0,0,0,.55.55h1.11a.55.55,0,0,0,.56-.55Zm7.21-5-.84-2A.64.64,0,0,0,20,4.81h-5.5a.59.59,0,0,0-.29.19l-.85,2Zm-2.78,5a.54.54,0,0,0-.55-.55H16.65a.55.55,0,0,0-.56.55V24.23a.55.55,0,0,0,.56.55h1.11a.54.54,0,0,0,.55-.55Zm4.44,0a.54.54,0,0,0-.55-.55H21.09a.54.54,0,0,0-.56.55V24.23a.54.54,0,0,0,.56.55H22.2a.54.54,0,0,0,.55-.55Z" style="fill:#6d6d6d"/></svg>