<svg id="Calque_1" data-name="Calque 1" xmlns="http://www.w3.org/2000/svg" viewBox="0 0 32 32"><title>tvpclip_l</title><path d="M31,27.81a1.58,1.58,0,0,1-1.58,1.58H13.58A1.58,1.58,0,0,1,12,27.81V14.5a1.58,1.58,0,0,1,1.58-1.58H29.43A1.58,1.58,0,0,1,31,14.5Zm-15.21-13a.64.64,0,0,0-.63-.64H13.9a.64.64,0,0,0-.63.64v1.26a.64.64,0,0,0,.63.64h1.27a.64.64,0,0,0,.63-.64Zm0,3.8a.63.63,0,0,0-.63-.63H13.9a.63.63,0,0,0-.63.63v1.27a.63.63,0,0,0,.63.63h1.27a.63.63,0,0,0,.63-.63Zm0,3.8a.63.63,0,0,0-.63-.63H13.9a.63.63,0,0,0-.63.63v1.27a.63.63,0,0,0,.63.63h1.27a.63.63,0,0,0,.63-.63Zm0,3.81a.64.64,0,0,0-.63-.64H13.9a.64.64,0,0,0-.63.64v1.26a.64.64,0,0,0,.63.64h1.27a.64.64,0,0,0,.63-.64ZM25.94,14.82a.64.64,0,0,0-.63-.64H17.7a.64.64,0,0,0-.63.64v5.07a.64.64,0,0,0,.63.63h7.61a.63.63,0,0,0,.63-.63Zm0,7.6a.63.63,0,0,0-.63-.63H17.7a.64.64,0,0,0-.63.63v5.07a.64.64,0,0,0,.63.64h7.61a.64.64,0,0,0,.63-.64Zm3.81-7.6a.64.64,0,0,0-.64-.64H27.84a.64.64,0,0,0-.63.64v1.26a.64.64,0,0,0,.63.64h1.27a.64.64,0,0,0,.64-.64Zm0,3.8a.64.64,0,0,0-.64-.63H27.84a.63.63,0,0,0-.63.63v1.27a.64.64,0,0,0,.63.63h1.27a.64.64,0,0,0,.64-.63Zm0,3.8a.64.64,0,0,0-.64-.63H27.84a.64.64,0,0,0-.63.63v1.27a.63.63,0,0,0,.63.63h1.27a.64.64,0,0,0,.64-.63Zm0,3.81a.64.64,0,0,0-.64-.64H27.84a.64.64,0,0,0-.63.64v1.26a.64.64,0,0,0,.63.64h1.27a.64.64,0,0,0,.64-.64Z" style="fill:#e3e3e3"/><path d="M1,7.88c.74-.74,5.16-.74,8.85,3.68a2.59,2.59,0,0,0,1.47-.73S12.06,2.71,15,2c1.47-.74,3,5.16,2.21,7.37,2.21,2.21-1.47,5.9-1.47,5.9L12.8,13.77,11.32,13s1.48,3,.74,3.68-4.42,0-5.16-2.21C5.42,10.09,1,9.35,1,7.88Z" style="fill:#e3e3e3"/></svg>