<svg id="Calque_1" data-name="Calque 1" xmlns="http://www.w3.org/2000/svg" viewBox="0 0 32 32"><defs><style>.cls-1{fill:#710132;}</style></defs><title>up_p_1</title><path class="cls-1" d="M6.59,16.32a1.21,1.21,0,0,1,0-1.7l9.74-9.73a1.12,1.12,0,0,1,.85-.35,1.13,1.13,0,0,1,.85.35l9.73,9.73a1.21,1.21,0,0,1,0,1.7l-1.1,1.16a1.09,1.09,0,0,1-.86.32,1.25,1.25,0,0,1-.85-.37l-5.77-6V25.8a1.12,1.12,0,0,1-.35.85A1.14,1.14,0,0,1,18,27h-1.6a1.21,1.21,0,0,1-1.21-1.21V11.41l-5.77,6a1.21,1.21,0,0,1-.85.37,1.07,1.07,0,0,1-.85-.32Z"/></svg>