<svg id="Calque_1" data-name="Calque 1" xmlns="http://www.w3.org/2000/svg" viewBox="0 0 32 32"><title>vulcanhand_r</title><path d="M7.48,26.24,6,20.47a6.71,6.71,0,0,1-.19-1.55,4.35,4.35,0,0,0-.07-1L4.1,11.1a3.29,3.29,0,0,1-.1-.82A3.45,3.45,0,0,1,7.12,6.85,3.41,3.41,0,0,1,10.5,4.07a3.45,3.45,0,0,1,3.35,2.65l1.19,5,1.48-6.15a3.44,3.44,0,0,1,6.74.26,3.44,3.44,0,0,1,3,3.46,5.17,5.17,0,0,1-.1.85L24.44,17.5c1.15-.87,2-1.7,3.49-1.7a3.67,3.67,0,0,1,3.67,3.64,3.82,3.82,0,0,1-1.54,3L22.77,28a3.7,3.7,0,0,1-2.2.73h-10A3.22,3.22,0,0,1,7.48,26.24ZM18.32,6,16,15.8H14.13L12.05,7.15a1.6,1.6,0,0,0-3.16.39,1.75,1.75,0,0,0,0,.4l1.9,7.86h-.38L9,9.94A1.65,1.65,0,0,0,7.46,8.67a1.62,1.62,0,0,0-1.62,1.61,1.58,1.58,0,0,0,0,.38l1.67,6.87c.2.83.06,1.66.27,2.5l1.44,5.76a1.38,1.38,0,0,0,1.34,1.05h10a1.84,1.84,0,0,0,1.1-.37L29,21a2,2,0,0,0,.81-1.58A1.83,1.83,0,0,0,26.83,18l-4.42,3.31V18.06c0-.12,1.86-7.74,2-8.35a1.93,1.93,0,0,0,.06-.42,1.6,1.6,0,0,0-3.16-.42L19.64,15.8h-.38l2.16-9a1.81,1.81,0,0,0,0-.4A1.59,1.59,0,0,0,18.32,6Z" style="fill:#ec1818"/></svg>