<svg id="Calque_1" data-name="Calque 1" xmlns="http://www.w3.org/2000/svg" viewBox="0 0 32 32"><defs><style>.cls-1{fill:#ec1818;}</style></defs><title>vulva_r</title><path class="cls-1" d="M16.82,4.27l-.43-.83-.45.82c-.36.64-8.7,15.91.12,23l.31.25.31-.24C25.07,20.6,17.16,4.94,16.82,4.27ZM17,10.4a1.7,1.7,0,0,0,.91-.82c1.28,3.86,2.43,9.28.75,13.39C19.77,18.64,18,13.09,17,10.4Zm-.62-4.77c.18.41.41,1,.66,1.58a1.57,1.57,0,0,0-.65-.13,1.73,1.73,0,0,0-.75.18C15.9,6.6,16.15,6.05,16.36,5.63ZM14.77,9.41a1.68,1.68,0,0,0,.89.94c-1.05,2.71-2.85,8.44-1.5,12.91C12.1,19,13.37,13.33,14.77,9.41Z"/></svg>