<svg id="Calque_1" data-name="Calque 1" xmlns="http://www.w3.org/2000/svg" viewBox="0 0 32 32"><defs><style>.cls-1{fill:#ec1818;}</style></defs><title>warning_r</title><path class="cls-1" d="M28.6,25.69A2.13,2.13,0,0,1,27.88,27a2,2,0,0,1-1.4.52H4.77A2,2,0,0,1,3.37,27a2.13,2.13,0,0,1-.72-1.26,2.24,2.24,0,0,1,.23-1.47L13.73,5.41a2,2,0,0,1,1.15-1,2.24,2.24,0,0,1,1.49,0,2,2,0,0,1,1.15,1L28.37,24.22A2.24,2.24,0,0,1,28.6,25.69ZM14.16,20.94a2.08,2.08,0,0,0,0,2.94,2.06,2.06,0,0,0,2.93,0,2.08,2.08,0,0,0,0-2.94,2.06,2.06,0,0,0-2.93,0ZM14,19a.47.47,0,0,0,.16.34.53.53,0,0,0,.38.16h2.17a.53.53,0,0,0,.38-.16.47.47,0,0,0,.16-.34l.36-6.15a.61.61,0,0,0-.15-.43.57.57,0,0,0-.39-.16H14.18a.57.57,0,0,0-.39.16.61.61,0,0,0-.15.43Z"/></svg>