<svg id="Calque_1" data-name="Calque 1" xmlns="http://www.w3.org/2000/svg" viewBox="0 0 32 32"><title>zlink_l</title><path d="M4.16,17.78h3a.51.51,0,0,1,.37.15.53.53,0,0,1,0,.75l-.75.75,6,6,.75-.75a.53.53,0,0,1,.75,0,.57.57,0,0,1,.16.37v3a.54.54,0,0,1-.15.38.51.51,0,0,1-.37.15h-3a.54.54,0,0,1-.38-.15.54.54,0,0,1,0-.75l.75-.75-6-6-.75.75a.54.54,0,0,1-.75,0,.54.54,0,0,1-.15-.38v-3a.51.51,0,0,1,.15-.37A.54.54,0,0,1,4.16,17.78Z" style="fill:#e3e3e3"/><path d="M15.79,10.81l9.26-1.16.25-2L14,9,12.58,20.34l2.05-.26ZM12.25,7.27l9.26-1.16.26-2L10.45,5.49,9,16.8l2.05-.25Zm5.33,5.34-1.16,9.26-.26,2.05,11.32-1.41L28.89,11.2l-2.05.25Z" style="fill:#e3e3e3"/></svg>