<svg id="Calque_1" data-name="Calque 1" xmlns="http://www.w3.org/2000/svg" viewBox="0 0 32 32"><defs><style>.cls-1{fill:#ec1818;}</style></defs><title>foxtail_r</title><path class="cls-1" d="M20.24,4.22A11.11,11.11,0,0,0,11.5,15v2.5a5.9,5.9,0,0,1-3.28,5.3L5.39,24.25l1.27,3.81L7.08,28c.75-.12,1.45-.18,2.12-.23a19.15,19.15,0,0,0,6.08-1.34A10.06,10.06,0,0,0,21.5,17.1V12.54a7.89,7.89,0,0,1,1.83-5l4-4.78Zm2.32,2.63A8.54,8.54,0,0,0,21.38,8.7a17.22,17.22,0,0,0-2.26,4.44L19,13.5V12.4a11.61,11.61,0,0,1,.6-3.7L20,7.5l-.17.34a5.56,5.56,0,0,1-2.49,2.49L17,10.5l.21-.21a6.81,6.81,0,0,0,1.29-1.8l.5-1L17.19,9.31a10.39,10.39,0,0,0-2,2.7L15,12.5V10.82a3.21,3.21,0,0,1,.94-2.26L17,7.5l-.72.36c-.52.26-1,.54-1.52.84a10.06,10.06,0,0,1,5.68-3.5l4.25-.91Z"/></svg>