<svg id="Calque_1" data-name="Calque 1" xmlns="http://www.w3.org/2000/svg" viewBox="0 0 32 32"><defs><style>.cls-1{fill:#ec1818;}</style></defs><title>help_r</title><path class="cls-1" d="M19.13,2.53a9.13,9.13,0,0,1,4.19,1A9.07,9.07,0,0,1,26.6,6.29a6.57,6.57,0,0,1,1.36,4,5.91,5.91,0,0,1-.7,2.91,6.76,6.76,0,0,1-1.66,1.91,19.69,19.69,0,0,1-2,1.25,10.28,10.28,0,0,0-1.41.91,1.38,1.38,0,0,0-.6,1.05v.3a1.17,1.17,0,0,1-.35.85,1.15,1.15,0,0,1-.85.35H16.82a1.15,1.15,0,0,1-.85-.35,1.17,1.17,0,0,1-.35-.85v-.5a4.85,4.85,0,0,1,1.3-3.41,12.54,12.54,0,0,1,2.71-1.86l.1-.05a8.84,8.84,0,0,0,1.81-1.2,1.82,1.82,0,0,0,.65-1.36A2.07,2.07,0,0,0,21,8.4a4.07,4.07,0,0,0-2.31-.7,4,4,0,0,0-2.31.65,9.6,9.6,0,0,0-1.85,1.8,1.16,1.16,0,0,1-.78.48,1.09,1.09,0,0,1-.88-.23L10.76,8.75A1.16,1.16,0,0,1,10.28,8a1.12,1.12,0,0,1,.22-.88,11.26,11.26,0,0,1,3.57-3.36A10.21,10.21,0,0,1,19.13,2.53Zm-.5,18.71a3.29,3.29,0,0,1,2.46,1,3.51,3.51,0,0,1,0,4.91,3.45,3.45,0,0,1-4.92,0,3.51,3.51,0,0,1,0-4.91A3.29,3.29,0,0,1,18.63,21.24Z"/></svg>