<?xml version="1.0" encoding="UTF-8" standalone="no"?>
<!-- Created with Inkscape (http://www.inkscape.org/) -->

<svg
   xmlns:dc="http://purl.org/dc/elements/1.1/"
   xmlns:cc="http://creativecommons.org/ns#"
   xmlns:rdf="http://www.w3.org/1999/02/22-rdf-syntax-ns#"
   xmlns:svg="http://www.w3.org/2000/svg"
   xmlns="http://www.w3.org/2000/svg"
   xmlns:sodipodi="http://sodipodi.sourceforge.net/DTD/sodipodi-0.dtd"
   xmlns:inkscape="http://www.inkscape.org/namespaces/inkscape"
   width="100mm"
   height="100mm"
   viewBox="0 0 100 100"
   version="1.1"
   id="svg8"
   inkscape:version="0.92.4 (5da689c313, 2019-01-14)"
   sodipodi:docname="nose.svg"
   inkscape:export-filename="F:\DEV_SRC\RainboxUI\Icons\25w\w25_nose_l.png"
   inkscape:export-xdpi="6.3499999"
   inkscape:export-ydpi="6.3499999">
  <defs
     id="defs2" />
  <sodipodi:namedview
     id="base"
     pagecolor="#ffffff"
     bordercolor="#666666"
     borderopacity="1.0"
     inkscape:pageopacity="0.0"
     inkscape:pageshadow="2"
     inkscape:zoom="1.489335"
     inkscape:cx="536.59468"
     inkscape:cy="109.11693"
     inkscape:document-units="mm"
     inkscape:current-layer="layer1"
     showgrid="false"
     inkscape:window-width="3378"
     inkscape:window-height="1417"
     inkscape:window-x="54"
     inkscape:window-y="-8"
     inkscape:window-maximized="1" />
  <metadata
     id="metadata5">
    <rdf:RDF>
      <cc:Work
         rdf:about="">
        <dc:format>image/svg+xml</dc:format>
        <dc:type
           rdf:resource="http://purl.org/dc/dcmitype/StillImage" />
        <dc:title />
      </cc:Work>
    </rdf:RDF>
  </metadata>
  <g
     inkscape:label="Calque 1"
     inkscape:groupmode="layer"
     id="layer1"
     transform="translate(0,-197)">
    <path
       style="fill:#e3e3e3;stroke-width:0.46841744;fill-opacity:1"
       d="m 28.972257,283.60321 c -5.676127,-2.02837 -8.780267,-6.54343 -8.82423,-12.83511 -0.04815,-6.8906 5.651087,-17.79325 22.220839,-42.50849 11.971014,-17.85583 13.004252,-19.6155 15.128602,-18.95652 2.12435,0.65898 2.087206,17.15207 2.783182,25.52876 0.695976,8.37669 3.139636,9.64921 3.732205,14.63072 0.22486,2.11523 0.140217,2.49093 -0.616484,2.73644 -4.475302,1.45199 -11.804068,6.52493 -10.831484,7.49751 0.159473,0.15948 1.621292,-0.18132 3.248485,-0.7573 1.627193,-0.576 4.539442,-1.14544 6.471664,-1.26543 3.285907,-0.20406 3.710059,-0.11605 6.557845,1.36138 5.11992,2.65611 7.84432,8.03487 7.377116,14.56462 -0.308912,4.31745 -1.837518,6.59285 -5.737383,8.5403 -2.589735,1.29322 -3.196163,1.40283 -7.728888,1.39695 -2.705261,-0.003 -7.869685,-0.18616 -11.4765,-0.40588 -5.309781,-0.32348 -7.382494,-0.25503 -10.890913,0.35961 -5.155255,0.90315 -9.092772,0.94194 -11.414056,0.11246 z"
       id="path5852"
       inkscape:connector-curvature="0"
       sodipodi:nodetypes="csszzccccccssccscc" />
  </g>
</svg>
