<?xml version="1.0" encoding="UTF-8" standalone="no"?>
<!-- Created with Inkscape (http://www.inkscape.org/) -->

<svg
   width="32"
   height="32"
   viewBox="0 0 8.4666666 8.4666666"
   version="1.1"
   id="svg8"
   inkscape:version="1.1.1 (3bf5ae0d25, 2021-09-20)"
   sodipodi:docname="rename-edit-text_sd.svg"
   xmlns:inkscape="http://www.inkscape.org/namespaces/inkscape"
   xmlns:sodipodi="http://sodipodi.sourceforge.net/DTD/sodipodi-0.dtd"
   xmlns="http://www.w3.org/2000/svg"
   xmlns:svg="http://www.w3.org/2000/svg"
   xmlns:rdf="http://www.w3.org/1999/02/22-rdf-syntax-ns#"
   xmlns:cc="http://creativecommons.org/ns#"
   xmlns:dc="http://purl.org/dc/elements/1.1/">
  <defs
     id="defs2" />
  <sodipodi:namedview
     id="base"
     pagecolor="#ffffff"
     bordercolor="#666666"
     borderopacity="1.0"
     inkscape:pageopacity="0.0"
     inkscape:pageshadow="2"
     inkscape:zoom="22.627418"
     inkscape:cx="12.838407"
     inkscape:cy="14.341009"
     inkscape:document-units="mm"
     inkscape:current-layer="svg8"
     showgrid="false"
     units="px"
     inkscape:window-width="3440"
     inkscape:window-height="1369"
     inkscape:window-x="1912"
     inkscape:window-y="-8"
     inkscape:window-maximized="1"
     inkscape:pagecheckerboard="0">
    <sodipodi:guide
       position="8.4666666,0"
       orientation="-32,0"
       id="guide854"
       inkscape:locked="false" />
    <sodipodi:guide
       position="8.4666666,8.4666666"
       orientation="0,-32"
       id="guide856"
       inkscape:locked="false" />
    <sodipodi:guide
       position="0,8.4666814"
       orientation="32,0"
       id="guide858"
       inkscape:locked="false" />
  </sodipodi:namedview>
  <metadata
     id="metadata5">
    <rdf:RDF>
      <cc:Work
         rdf:about="">
        <dc:format>image/svg+xml</dc:format>
        <dc:type
           rdf:resource="http://purl.org/dc/dcmitype/StillImage" />
      </cc:Work>
    </rdf:RDF>
  </metadata>
  <path
     id="rect855"
     style="color:#000000;fill:#232323;stroke-width:3.77953;stroke-linecap:round;-inkscape-stroke:none;fill-opacity:1"
     d="M 26.802734 0 C 26.212 0 25.620542 0.22515995 25.169922 0.67578125 L 22.453125 3.3945312 L 28.605469 9.546875 L 31.324219 6.8300781 C 32.225463 5.9283547 32.225463 4.4656953 31.324219 3.5644531 L 28.435547 0.67578125 C 27.984925 0.22515995 27.393469 0 26.802734 0 z M 21.365234 4.4804688 L 8.0078125 17.837891 L 7.3964844 23.328125 C 7.3147717 24.062579 7.935469 24.682792 8.6699219 24.601562 L 14.15625 23.996094 L 27.517578 10.634766 L 21.365234 4.4804688 z M 4.8203125 17.960938 C 2.1780249 17.960938 0.015625 20.115526 0.015625 22.757812 L 0.015625 27.179688 C 0.015625 29.821974 2.1780249 31.978516 4.8203125 31.978516 L 27.179688 31.978516 C 29.821974 31.978516 31.986328 29.821974 31.986328 27.179688 L 31.986328 22.757812 C 31.986328 20.115526 29.821974 17.960937 27.179688 17.960938 L 23.414062 17.960938 L 21.414062 19.960938 L 27.179688 19.960938 C 28.748569 19.960938 29.984375 21.188931 29.984375 22.757812 L 29.984375 27.179688 C 29.984375 28.748569 28.748569 29.978516 27.179688 29.978516 L 4.8203125 29.978516 C 3.25143 29.978516 2.015625 28.74857 2.015625 27.179688 L 2.015625 22.757812 C 2.015625 21.188931 3.25143 19.960938 4.8203125 19.960938 L 5.4863281 19.960938 L 5.7089844 17.960938 L 4.8203125 17.960938 z "
     transform="scale(0.26458333)" />
</svg>
