<?xml version="1.0" encoding="utf-8"?>
<svg width="32" height="32" viewBox="0 0 8.4666666 8.4666666" version="1.1" id="svg8" xmlns="http://www.w3.org/2000/svg">
  <path d="M 7.622 0.533 L 5.639 0.533 L 5.484 0.224 C 5.416 0.089 5.279 0.004 5.129 0.004 L 3.239 0.004 C 3.089 0.003 2.953 0.089 2.886 0.224 L 2.73 0.533 L 0.748 0.533 C 0.602 0.533 0.484 0.651 0.484 0.797 L 0.484 1.325 C 0.484 1.472 0.602 1.589 0.748 1.589 L 7.622 1.589 C 7.768 1.589 7.885 1.472 7.885 1.325 L 7.885 0.797 C 7.885 0.651 7.768 0.533 7.622 0.533 Z M 1.362 7.72 C 1.389 8.137 1.736 8.463 2.155 8.463 L 6.216 8.463 C 6.633 8.463 6.981 8.137 7.007 7.72 L 7.356 2.119 L 1.013 2.119 L 1.362 7.72 Z" style="fill: rgb(227, 227, 227);"/>
</svg>