<?xml version="1.0" encoding="UTF-8" standalone="no"?>
<!-- Created with Inkscape (http://www.inkscape.org/) -->

<svg
   xmlns:dc="http://purl.org/dc/elements/1.1/"
   xmlns:cc="http://creativecommons.org/ns#"
   xmlns:rdf="http://www.w3.org/1999/02/22-rdf-syntax-ns#"
   xmlns:svg="http://www.w3.org/2000/svg"
   xmlns="http://www.w3.org/2000/svg"
   xmlns:sodipodi="http://sodipodi.sourceforge.net/DTD/sodipodi-0.dtd"
   xmlns:inkscape="http://www.inkscape.org/namespaces/inkscape"
   width="32"
   height="32"
   viewBox="0 0 8.4666666 8.4666666"
   version="1.1"
   id="svg8"
   inkscape:version="0.92.5 (2060ec1f9f, 2020-04-08)"
   sodipodi:docname="copy-colors_sl.svg">
  <defs
     id="defs2">
    <style
       id="style1399">.cls-1{fill:#e3e3e3;}</style>
    <style
       id="style1399-4">.cls-1{fill:#e3e3e3;}</style>
    <style
       id="style1399-8">.cls-1{fill:#e3e3e3;}</style>
    <style
       id="style1399-4-5">.cls-1{fill:#e3e3e3;}</style>
    <style
       id="style1399-9">.cls-1{fill:#e3e3e3;}</style>
    <style
       id="style1399-4-6">.cls-1{fill:#e3e3e3;}</style>
    <style
       id="style1399-8-4">.cls-1{fill:#e3e3e3;}</style>
    <style
       id="style1399-4-5-3">.cls-1{fill:#e3e3e3;}</style>
    <style
       id="style1399-88">.cls-1{fill:#e3e3e3;}</style>
    <style
       id="style1399-3">.cls-1{fill:#e3e3e3;}</style>
    <style
       id="style1399-94">.cls-1{fill:#e3e3e3;}</style>
    <style
       id="style1399-5">.cls-1{fill:#e3e3e3;}</style>
  </defs>
  <sodipodi:namedview
     id="base"
     pagecolor="#ffffff"
     bordercolor="#666666"
     borderopacity="1.0"
     inkscape:pageopacity="0.0"
     inkscape:pageshadow="2"
     inkscape:zoom="15.999999"
     inkscape:cx="12.50454"
     inkscape:cy="16.196072"
     inkscape:document-units="mm"
     inkscape:current-layer="layer1"
     showgrid="false"
     units="px"
     inkscape:window-width="1858"
     inkscape:window-height="1136"
     inkscape:window-x="0"
     inkscape:window-y="27"
     inkscape:window-maximized="1"
     inkscape:snap-bbox="true"
     inkscape:bbox-paths="true"
     inkscape:bbox-nodes="true"
     inkscape:snap-bbox-edge-midpoints="true"
     inkscape:snap-bbox-midpoints="true"
     inkscape:snap-nodes="false">
    <sodipodi:guide
       position="8.4666666,0"
       orientation="-32,0"
       id="guide854"
       inkscape:locked="false" />
    <sodipodi:guide
       position="8.4666666,8.4666666"
       orientation="0,-32"
       id="guide856"
       inkscape:locked="false" />
    <sodipodi:guide
       position="0,8.4666814"
       orientation="32,0"
       id="guide858"
       inkscape:locked="false" />
  </sodipodi:namedview>
  <metadata
     id="metadata5">
    <rdf:RDF>
      <cc:Work
         rdf:about="">
        <dc:format>image/svg+xml</dc:format>
        <dc:type
           rdf:resource="http://purl.org/dc/dcmitype/StillImage" />
        <dc:title></dc:title>
      </cc:Work>
    </rdf:RDF>
  </metadata>
  <g
     inkscape:label="Layer 1"
     inkscape:groupmode="layer"
     id="layer1"
     transform="translate(0,-288.53334)">
    <path
       style="fill:#8ad891;stroke-width:0.06245888"
       d="M 11.005859,0 C 10.177967,0 9.5078125,0.67014136 9.5078125,1.4980469 V 24.484375 c 0,0.827906 0.6701545,1.498047 1.4980465,1.498047 h 16.990235 c 0.827893,0 1.498047,-0.670141 1.498047,-1.498047 V 7.9941406 H 22.998047 C 22.173589,7.9941406 21.5,7.3205221 21.5,6.4960938 V 0 Z m 12.492188,0 v 5.9960938 h 5.996094 V 5.6171875 A 1.4990132,1.4990132 0 0 0 29.054688,4.5585938 L 24.9375,0.43945312 A 1.4990132,1.4990132 0 0 0 23.876953,0 Z M 3.0117188,5.9960938 c -0.8278936,0 -1.4980469,0.6701413 -1.4980469,1.4980468 V 30.480469 c 0,0.827867 0.6701533,1.498047 1.4980469,1.498047 H 20 c 0.827892,0 1.5,-0.67018 1.5,-1.498047 V 27.982422 H 11.005859 c -1.9286676,0 -3.4980465,-1.569354 -3.4980465,-3.498047 V 5.9960938 Z M 16.285156,8.0625 a 4.7219452,4.7219452 0 0 1 4.464844,3.205078 4.7219452,4.7219452 0 0 1 0,0.002 4.7219452,4.7219452 0 0 1 1.589844,-0.285156 4.7219452,4.7219452 0 0 1 4.722656,4.722656 4.7219452,4.7219452 0 0 1 -4.722656,4.720703 4.7219452,4.7219452 0 0 1 -0.273438,-0.01367 A 4.7219452,4.7219452 0 0 1 17.619141,23.5625 4.7219452,4.7219452 0 0 1 12.896484,18.839844 4.7219452,4.7219452 0 0 1 13.480469,16.576172 4.7219452,4.7219452 0 0 1 11.5625,12.785156 4.7219452,4.7219452 0 0 1 16.285156,8.0625 Z m -2.804687,8.513672 a 4.7219452,4.7219452 0 0 0 2.804687,0.929687 4.7219452,4.7219452 0 0 0 1.591797,-0.28125 4.7219452,4.7219452 0 0 1 -0.257812,-1.519531 4.7219452,4.7219452 0 0 1 0.27539,-1.572266 4.7219452,4.7219452 0 0 0 -0.27539,-0.01562 4.7219452,4.7219452 0 0 0 -4.138672,2.458984 z m 4.414062,-2.44336 a 4.7219452,4.7219452 0 0 1 2.53125,0.921876 4.7219452,4.7219452 0 0 0 0.580078,-2.269532 A 4.7219452,4.7219452 0 0 0 20.75,11.269531 4.7219452,4.7219452 0 0 0 17.894531,14.132812 Z m 2.53125,0.921876 a 4.7219452,4.7219452 0 0 1 -2.548828,2.169921 4.7219452,4.7219452 0 0 0 4.189453,3.189453 4.7219452,4.7219452 0 0 0 0,-0.002 4.7219452,4.7219452 0 0 0 0.273438,-1.572265 4.7219452,4.7219452 0 0 0 -1.914063,-3.785156 z"
       transform="matrix(0.26458333,0,0,0.26458333,0,288.53334)"
       id="path819"
       inkscape:connector-curvature="0" />
  </g>
</svg>
