<?xml version="1.0" encoding="UTF-8" standalone="no"?>
<svg
   xmlns:dc="http://purl.org/dc/elements/1.1/"
   xmlns:cc="http://creativecommons.org/ns#"
   xmlns:rdf="http://www.w3.org/1999/02/22-rdf-syntax-ns#"
   xmlns:svg="http://www.w3.org/2000/svg"
   xmlns="http://www.w3.org/2000/svg"
   xmlns:sodipodi="http://sodipodi.sourceforge.net/DTD/sodipodi-0.dtd"
   xmlns:inkscape="http://www.inkscape.org/namespaces/inkscape"
   viewBox="0 0 110.91063 75.563835"
   version="1.1"
   id="svg36"
   sodipodi:docname="DuTranslator-icon.svg"
   inkscape:version="0.92.5 (2060ec1f9f, 2020-04-08)"
   width="110.91063"
   height="75.563835">
  <metadata
     id="metadata40">
    <rdf:RDF>
      <cc:Work
         rdf:about="">
        <dc:format>image/svg+xml</dc:format>
        <dc:type
           rdf:resource="http://purl.org/dc/dcmitype/StillImage" />
        <dc:title>Fichier 6</dc:title>
      </cc:Work>
    </rdf:RDF>
  </metadata>
  <sodipodi:namedview
     pagecolor="#ffffff"
     bordercolor="#666666"
     borderopacity="1"
     objecttolerance="10"
     gridtolerance="10"
     guidetolerance="10"
     inkscape:pageopacity="0"
     inkscape:pageshadow="2"
     inkscape:window-width="1870"
     inkscape:window-height="1052"
     id="namedview38"
     showgrid="false"
     inkscape:zoom="1.893757"
     inkscape:cx="-106.9082"
     inkscape:cy="21.55014"
     inkscape:window-x="1920"
     inkscape:window-y="0"
     inkscape:window-maximized="1"
     inkscape:current-layer="svg36"
     fit-margin-top="0"
     fit-margin-left="0"
     fit-margin-right="0"
     fit-margin-bottom="0" />
  <defs
     id="defs4">
    <style
       id="style2">.cls-1{fill:#e3e3e2;stroke:#701034;stroke-miterlimit:10;stroke-width:2px;}.cls-2{fill:#e52221;}</style>
    <style
       id="style888">.cls-1{font-size:172.57px;fill:#1d1d1b;font-family:MyriadPro-Regular, Myriad Pro;}</style>
    <clipPath
       clipPathUnits="userSpaceOnUse"
       id="clipPath846">
      <rect
         style="font-size:172.57000732px;font-family:MyriadPro-Regular, 'Myriad Pro';display:inline;fill:#e3e3e2;stroke:#701034;stroke-width:2.00308847;stroke-miterlimit:10;stroke-dasharray:none"
         id="rect848"
         rx="23.48"
         height="122.62"
         width="122.62"
         y="1"
         x="1"
         class="cls-1" />
    </clipPath>
  </defs>
  <title
     id="title6">Fichier 6</title>
  <g
     id="g865"
     inkscape:label="icon"
     transform="translate(-35.501449,-53.261322)">
    <path
       inkscape:connector-curvature="0"
       id="rect856"
       d="m 66.737932,57.582809 c -1.461214,0 -2.638049,1.176835 -2.638049,2.638037 V 85.98769 c 0,1.461214 1.176835,2.638038 2.638049,2.638038 h 25.766843 c 1.461214,0 2.638049,-1.176824 2.638049,-2.638038 V 60.220846 c 0,-1.461202 -1.176835,-2.638037 -2.638049,-2.638037 z m 12.144723,6.664867 h 1.475186 c 0.608655,0 1.107486,0.498832 1.107486,1.107487 v 1.475174 h 5.902921 c 0.608655,0 1.105275,0.498855 1.105275,1.107498 v 1.475174 c 0,0.608655 -0.49662,1.107487 -1.105275,1.107487 h -1.052122 c -0.636314,2.176426 -2.001586,4.370623 -3.938225,6.445584 0.774649,0.590215 1.577683,1.151806 2.407674,1.659018 0.507213,0.313548 0.673876,0.969448 0.378768,1.495111 l -0.72873,1.282474 c -0.313559,0.544115 -1.006747,0.719249 -1.541631,0.396482 -1.161967,-0.719329 -2.259667,-1.485381 -3.264883,-2.296932 -1.005205,0.802342 -2.09145,1.577603 -3.26266,2.296932 -0.534872,0.322767 -1.228083,0.147633 -1.541619,-0.396482 L 74.09609,80.120209 C 73.800982,79.603777 73.967271,78.938646 74.483703,78.625098 75.341354,78.099446 76.1444,77.547063 76.891388,76.96608 76.16284,76.19142 75.518042,75.398365 74.955498,74.596057 74.58662,74.070393 74.7525,73.341765 75.296604,73.018986 l 0.598051,-0.358819 0.673354,-0.396482 c 0.497992,-0.295108 1.143175,-0.157999 1.475174,0.312311 0.461101,0.645546 0.997198,1.290718 1.605853,1.927033 1.244981,-1.309532 2.194741,-2.663769 2.766516,-3.982533 H 71.874459 c -0.608654,0 -1.107486,-0.498832 -1.107486,-1.107487 v -1.475174 c 0,-0.608643 0.498832,-1.107498 1.107486,-1.107498 h 5.902921 v -1.475174 c 0,-0.608655 0.49662,-1.107487 1.105275,-1.107487 z"
       style="display:inline;opacity:1;vector-effect:none;fill:#710132;fill-opacity:1;fill-rule:nonzero;stroke:none;stroke-width:9.6801548;stroke-linecap:round;stroke-linejoin:round;stroke-miterlimit:4;stroke-dasharray:none;stroke-dashoffset:0;stroke-opacity:1;paint-order:normal" />
    <path
       inkscape:connector-curvature="0"
       id="rect858"
       d="m 66.737932,93.153147 c -1.461214,0 -2.638049,1.176835 -2.638049,2.638038 v 25.766855 c 0,1.4612 1.176835,2.63804 2.638049,2.63804 h 25.766843 c 1.461214,0 2.638049,-1.17684 2.638049,-2.63804 V 95.791185 c 0,-1.461203 -1.176835,-2.638038 -2.638049,-2.638038 z m 11.384987,6.622793 h 2.994657 c 0.46997,0 0.893238,0.30412 1.049899,0.74644 l 5.300446,15.5846 c 0.239595,0.71879 -0.28726,1.46409 -1.052121,1.46409 h -2.108654 c -0.489782,-3.4e-4 -0.922203,-0.32326 -1.060979,-0.79296 l -0.866054,-2.93927 H 76.8338 l -0.839472,2.93041 c -0.138231,0.46998 -0.570357,0.80182 -1.058767,0.80182 h -2.110876 c -0.755642,0 -1.289494,-0.7453 -1.049899,-1.46409 l 5.298235,-15.5846 c 0.15666,-0.45154 0.570697,-0.74644 1.049898,-0.74644 z m 1.475175,4.06448 c 0,0 -0.397333,1.94385 -0.719873,3.05888 l -1.023316,3.45537 h 3.51296 l -1.005601,-3.45537 c -0.322541,-1.11503 -0.717651,-3.05888 -0.717651,-3.05888 z"
       style="display:inline;opacity:1;vector-effect:none;fill:#710132;fill-opacity:1;fill-rule:nonzero;stroke:none;stroke-width:9.6801548;stroke-linecap:round;stroke-linejoin:round;stroke-miterlimit:4;stroke-dasharray:none;stroke-dashoffset:0;stroke-opacity:1;paint-order:normal" />
    <circle
       r="7.1986194"
       cy="80.020157"
       cx="139.21346"
       id="path868"
       style="display:inline;opacity:1;vector-effect:none;fill:#710132;fill-opacity:1;fill-rule:nonzero;stroke:none;stroke-width:11.2899704;stroke-linecap:round;stroke-linejoin:round;stroke-miterlimit:4;stroke-dasharray:none;stroke-dashoffset:0;stroke-opacity:1;paint-order:normal" />
    <path
       d="m 135.38053,127.83152 c 3.03109,-5.08791 7.79425,-17.10406 10.39234,-26.3056 l -10.50059,1.08254 c -1.19079,7.9025 -4.11363,19.48562 -6.49521,25.87257 z"
       style="font-style:normal;font-variant:normal;font-weight:normal;font-stretch:normal;font-size:172.57331848px;font-family:MyriadPro-Regular, 'Myriad Pro';-inkscape-font-specification:'MyriadPro-Regular, Myriad Pro, Normal';font-variant-ligatures:normal;font-variant-caps:normal;font-variant-numeric:normal;font-feature-settings:normal;text-align:start;writing-mode:lr-tb;text-anchor:start;fill:#710132;stroke-width:0.62728971"
       id="path863"
       inkscape:connector-curvature="0"
       sodipodi:nodetypes="ccccc" />
    <g
       id="g856">
      <path
         inkscape:connector-curvature="0"
         id="path873"
         style="font-style:normal;font-variant:normal;font-weight:normal;font-stretch:normal;font-size:172.57331848px;font-family:MyriadPro-Regular, 'Myriad Pro';-inkscape-font-specification:'MyriadPro-Regular, Myriad Pro, Normal';font-variant-ligatures:normal;font-variant-caps:normal;font-variant-numeric:normal;font-feature-settings:normal;text-align:start;writing-mode:lr-tb;text-anchor:start;fill:#710132;stroke:#710132;stroke-width:1.39731586;stroke-miterlimit:4;stroke-dasharray:none;stroke-opacity:1"
         d="m 36.200107,93.323144 c 6.607052,0 7.537627,4.001449 7.537627,6.886216 0,2.51255 -0.372232,5.02509 -0.744459,7.53763 -0.372226,2.51255 -0.744458,5.11815 -0.744458,7.63069 0,9.39877 5.769542,12.74882 13.493287,12.74882 h 1.954194 v -5.11814 h -1.675021 c -5.211206,0 -7.35152,-2.88477 -7.35152,-8.09597 0,-2.23337 0.279172,-4.37368 0.651404,-6.70011 0.372226,-2.23337 0.651398,-4.5598 0.651398,-7.07234 0.09305,-5.955653 -2.512542,-9.119603 -6.700112,-10.143225 v -0.186112 c 4.18757,-1.116684 6.793168,-4.094523 6.700112,-10.050177 0,-2.512542 -0.279172,-4.74591 -0.651398,-7.072339 -0.372232,-2.233368 -0.651404,-4.466735 -0.651404,-6.607052 0,-5.025083 1.861145,-8.002911 7.35152,-8.002911 h 1.675021 V 53.95998 h -1.954194 c -7.90986,0 -13.493287,3.629225 -13.493287,12.190483 0,2.605603 0.372232,5.118144 0.744458,7.723736 0.372227,2.605603 0.744459,5.211206 0.744459,7.816798 0,3.257001 -0.930575,6.886227 -7.537627,6.886227 z" />
      <path
         d="m 123.0426,93.323144 c -6.60705,0 -7.53762,4.001449 -7.53762,6.886216 0,2.51255 0.37223,5.02509 0.74446,7.53763 0.37222,2.51255 0.74446,5.11815 0.74446,7.63069 0,9.39877 -5.76954,12.74882 -13.49329,12.74882 h -1.9542 v -5.11814 h 1.67502 c 5.21121,0 7.35153,-2.88477 7.35153,-8.09597 0,-2.23337 -0.27918,-4.37368 -0.65141,-6.70011 -0.37223,-2.23337 -0.6514,-4.5598 -0.6514,-7.07234 -0.0931,-5.955653 2.51254,-9.119603 6.70012,-10.143225 v -0.186112 c -4.18758,-1.116684 -6.79317,-4.094523 -6.70012,-10.050173 0,-2.51255 0.27917,-4.74591 0.6514,-7.07234 0.37223,-2.23337 0.65141,-4.46674 0.65141,-6.60705 0,-5.02509 -1.86115,-8.00292 -7.35153,-8.00292 h -1.67502 v -5.11814 h 1.9542 c 7.90986,0 13.49329,3.62922 13.49329,12.19048 0,2.60561 -0.37224,5.11815 -0.74446,7.72374 -0.37223,2.6056 -0.74446,5.2112 -0.74446,7.8168 0,3.256998 0.93057,6.886224 7.53762,6.886224 z"
         style="font-style:normal;font-variant:normal;font-weight:normal;font-stretch:normal;font-size:172.57331848px;font-family:MyriadPro-Regular, 'Myriad Pro';-inkscape-font-specification:'MyriadPro-Regular, Myriad Pro, Normal';font-variant-ligatures:normal;font-variant-caps:normal;font-variant-numeric:normal;font-feature-settings:normal;text-align:start;writing-mode:lr-tb;text-anchor:start;fill:#710132;stroke:#710132;stroke-width:1.39731586;stroke-miterlimit:4;stroke-dasharray:none;stroke-opacity:1"
         id="path835"
         inkscape:connector-curvature="0" />
    </g>
  </g>
</svg>
