<?xml version="1.0" encoding="UTF-8" standalone="no"?>
<svg
   id="Calque_1"
   data-name="Calque 1"
   viewBox="0 0 32 32"
   version="1.1"
   sodipodi:docname="move-target-pivot-anchor-point_sl.svg"
   inkscape:version="1.1 (c68e22c387, 2021-05-23)"
   inkscape:export-filename="D:\DEV_SRC\RxOT\DuAEF\DuAEF_Duik\icons\w16\w16_zero.png"
   inkscape:export-xdpi="48"
   inkscape:export-ydpi="48"
   xmlns:inkscape="http://www.inkscape.org/namespaces/inkscape"
   xmlns:sodipodi="http://sodipodi.sourceforge.net/DTD/sodipodi-0.dtd"
   xmlns="http://www.w3.org/2000/svg"
   xmlns:svg="http://www.w3.org/2000/svg"
   xmlns:rdf="http://www.w3.org/1999/02/22-rdf-syntax-ns#"
   xmlns:cc="http://creativecommons.org/ns#"
   xmlns:dc="http://purl.org/dc/elements/1.1/">
  <sodipodi:namedview
     id="namedview25"
     pagecolor="#ffffff"
     bordercolor="#111111"
     borderopacity="1"
     inkscape:pageshadow="0"
     inkscape:pageopacity="0"
     inkscape:pagecheckerboard="1"
     showgrid="false"
     inkscape:zoom="13.15625"
     inkscape:cx="3.7624703"
     inkscape:cy="18.432304"
     inkscape:window-width="1920"
     inkscape:window-height="1027"
     inkscape:window-x="-8"
     inkscape:window-y="-8"
     inkscape:window-maximized="1"
     inkscape:current-layer="Calque_1"
     inkscape:snap-bbox="true"
     inkscape:bbox-paths="true"
     inkscape:bbox-nodes="true"
     inkscape:snap-bbox-edge-midpoints="true"
     inkscape:snap-bbox-midpoints="true" />
  <defs
     id="defs4">
    <style
       id="style2">.cls-1,.cls-2{fill:none;stroke:#e3e3e3;stroke-miterlimit:10;}.cls-1{stroke-width:3px;}.cls-2{stroke-width:2px;}</style>
    <style
       id="style1399">.cls-1{fill:#e3e3e3;}</style>
    <style
       id="style1399-4">.cls-1{fill:#e3e3e3;}</style>
    <style
       id="style1399-5">.cls-1{fill:#e3e3e3;}</style>
    <style
       id="style1399-7">.cls-1{fill:#e3e3e3;}</style>
    <style
       id="style1399-3">.cls-1{fill:#e3e3e3;}</style>
    <style
       id="style1399-1">.cls-1{fill:#e3e3e3;}</style>
    <style
       id="style1399-5-8">.cls-1{fill:#e3e3e3;}</style>
    <style
       id="style1399-8">.cls-1{fill:#e3e3e3;}</style>
    <style
       id="style1399-7-8">.cls-1{fill:#e3e3e3;}</style>
    <style
       id="style1399-1-5">.cls-1{fill:#e3e3e3;}</style>
    <style
       id="style1399-5-6">.cls-1{fill:#e3e3e3;}</style>
    <style
       id="style1399-8-9">.cls-1{fill:#e3e3e3;}</style>
    <style
       id="style1399-2">.cls-1{fill:#e3e3e3;}</style>
    <style
       id="style1399-1-1">.cls-1{fill:#e3e3e3;}</style>
    <style
       id="style1399-5-5">.cls-1{fill:#e3e3e3;}</style>
    <style
       id="style1399-8-99">.cls-1{fill:#e3e3e3;}</style>
    <style
       id="style857">.cls-1{fill:#e52120;}.cls-1,.cls-2,.cls-3,.cls-4,.cls-5{stroke:#000;stroke-miterlimit:10;stroke-width:1.2px;}.cls-2{fill:#6dbc88;}.cls-3{fill:#701034;}.cls-4{fill:#51aae0;}.cls-5{fill:none;}</style>
  </defs>
  <title
     id="title6">measure_l</title>
  <metadata
     id="metadata1695">
    <rdf:RDF>
      <cc:Work
         rdf:about="">
        <dc:title>measure_l</dc:title>
      </cc:Work>
    </rdf:RDF>
  </metadata>
  <path
     id="path3259"
     style="color:#000000;fill:#e3e3e3;fill-opacity:1;stroke-linecap:round;-inkscape-stroke:none"
     d="M 14.845703,8.8671875 V 15.007812 H 8.7070312 v 2.125 h 6.1386718 v 6.140626 h 2.126953 v -6.140626 h 6.138672 v -2.125 H 16.972656 V 8.8671875 Z"
     sodipodi:nodetypes="ccccccccccccc" />
  <style
     type="text/css"
     id="style815">
	.st0{fill:#00005B;}
	.st1{fill:#9999FF;}
</style>
  <path
     style="fill:#e3e3e3;fill-opacity:1;stroke-width:0.0552889"
     d="m 1.0322266,0.0781253 c -0.610664,3e-7 -1.105467,0.494803 -1.105469,1.1054688 V 11.244141 c 0,0.985118 1.192075,1.477848 1.888672,0.78125 L 11.874024,1.9648441 c 0.696597,-0.696598 0.203907,-1.8867578 -0.78125,-1.8867188 z m 19.7109374,0.00977 c -0.985118,-6e-7 -1.477847,1.1920735 -0.78125,1.8886719 L 30.022461,12.03711 c 0.696598,0.696598 1.886757,0.201954 1.886719,-0.783203 V 1.1953129 c 0,-0.6106646 -0.494803,-1.10742 -1.105469,-1.1074219 z M 0.8935546,19.792969 c -0.519022,0.06105 -0.984399,0.485839 -0.984375,1.101563 v 10.058593 c 1e-6,0.610665 0.494804,1.10742 1.105469,1.107422 H 11.075195 c 0.98512,10e-7 1.477848,-1.192073 0.78125,-1.888672 L 1.7958986,20.111328 c -0.261224,-0.261224 -0.59093,-0.35499 -0.902344,-0.318359 z m 30.0156254,0.0039 c -0.311409,-0.03664 -0.643072,0.05714 -0.904297,0.31836 L 19.944336,30.175782 c -0.696597,0.696598 -0.201953,1.886758 0.783203,1.886718 h 10.060547 c 0.610663,0 1.105465,-0.494803 1.105469,-1.105468 V 20.896485 c 0,-0.615699 -0.46536,-1.038549 -0.984375,-1.09961 z"
     id="path2381" />
</svg>
