<?xml version="1.0" encoding="UTF-8" standalone="no"?>
<svg
   id="Calque_1"
   data-name="Calque 1"
   viewBox="0 0 32 32"
   version="1.1"
   sodipodi:docname="target-pivot-anchor-point_sd.svg"
   inkscape:version="1.1 (c68e22c387, 2021-05-23)"
   inkscape:export-filename="D:\DEV_SRC\RxOT\DuAEF\DuAEF_Duik\icons\w16\w16_zero.png"
   inkscape:export-xdpi="48"
   inkscape:export-ydpi="48"
   xmlns:inkscape="http://www.inkscape.org/namespaces/inkscape"
   xmlns:sodipodi="http://sodipodi.sourceforge.net/DTD/sodipodi-0.dtd"
   xmlns="http://www.w3.org/2000/svg"
   xmlns:svg="http://www.w3.org/2000/svg"
   xmlns:rdf="http://www.w3.org/1999/02/22-rdf-syntax-ns#"
   xmlns:cc="http://creativecommons.org/ns#"
   xmlns:dc="http://purl.org/dc/elements/1.1/">
  <sodipodi:namedview
     id="namedview25"
     pagecolor="#ffffff"
     bordercolor="#111111"
     borderopacity="1"
     inkscape:pageshadow="0"
     inkscape:pageopacity="0"
     inkscape:pagecheckerboard="1"
     showgrid="false"
     inkscape:zoom="18.605747"
     inkscape:cx="4.6491012"
     inkscape:cy="15.075987"
     inkscape:window-width="1920"
     inkscape:window-height="1027"
     inkscape:window-x="-8"
     inkscape:window-y="-8"
     inkscape:window-maximized="1"
     inkscape:current-layer="Calque_1"
     inkscape:snap-bbox="true"
     inkscape:bbox-paths="true"
     inkscape:bbox-nodes="true"
     inkscape:snap-bbox-edge-midpoints="true"
     inkscape:snap-bbox-midpoints="true" />
  <defs
     id="defs4">
    <style
       id="style2">.cls-1,.cls-2{fill:none;stroke:#e3e3e3;stroke-miterlimit:10;}.cls-1{stroke-width:3px;}.cls-2{stroke-width:2px;}</style>
  </defs>
  <title
     id="title6">measure_l</title>
  <metadata
     id="metadata1695">
    <rdf:RDF>
      <cc:Work
         rdf:about="">
        <dc:title>measure_l</dc:title>
      </cc:Work>
    </rdf:RDF>
  </metadata>
  <path
     id="path3259"
     style="color:#000000;fill:#232323;stroke-linecap:round;-inkscape-stroke:none;fill-opacity:1"
     d="M 16.015625 0.033203125 C 7.24795 0.033203125 0.087890625 7.1952152 0.087890625 15.962891 C 0.087890625 24.730566 7.24795 31.892578 16.015625 31.892578 C 24.7833 31.892578 31.945312 24.730566 31.945312 15.962891 C 31.945312 7.1952152 24.7833 0.033203125 16.015625 0.033203125 z M 16.015625 5.0390625 C 22.077822 5.0390625 26.939453 9.9006936 26.939453 15.962891 C 26.939453 22.025087 22.077822 26.884766 16.015625 26.884766 C 9.9534284 26.884766 5.09375 22.025087 5.09375 15.962891 C 5.09375 9.9006936 9.9534284 5.0390625 16.015625 5.0390625 z M 14.845703 8.8671875 L 14.845703 15.007812 L 8.7070312 15.007812 L 8.7070312 17.132812 L 14.845703 17.132812 L 14.845703 23.273438 L 16.972656 23.273438 L 16.972656 17.132812 L 23.111328 17.132812 L 23.111328 15.007812 L 16.972656 15.007812 L 16.972656 8.8671875 L 14.845703 8.8671875 z " />
</svg>
